ply
format ascii 1.0
comment PCL generated
element vertex 617
property float x
property float y
property float z
property uchar red
property uchar green
property uchar blue
element face 26
property list uchar int vertex_indices
end_header
-0.6936 0.51582 1.1885 0 0 0 
-0.69358 0.51597 1.1886 0 0 0 
-0.6932 0.51788 1.1928 0 0 0 
-0.69173 0.52517 1.2096 0 0 0 
-0.69136 0.52699 1.2138 0 0 0 
-0.69061 0.53066 1.2224 0 0 0 
-0.68585 0.55417 1.2766 0 0 0 
-0.68196 0.57348 1.3208 0 0 0 
-0.67001 0.62903 1.4611 0 0 0 
-0.66019 0.6756 1.5752 0 0 0 
-0.64859 0.73111 1.7095 0 0 0 
-0.64719 0.73766 1.726 0 0 0 
-0.64666 0.73803 1.7346 0 0 0 
-0.64613 0.7384 1.7433 0 0 0 
-0.6449 0.72615 1.7791 0 0 0 
-0.64233 0.69035 1.8658 0 0 0 
-0.64186 0.67987 1.8862 0 0 0 
-0.67999 -1.7168 4.065 0 0 0 
-0.68098 -1.7317 4.0655 0 0 0 
-0.6835 -1.7693 4.0665 0 0 0 
-0.68356 -1.7698 4.0661 0 0 0 
-0.68495 -1.7496 4.0184 0 0 0 
-0.68755 -1.7101 3.9267 0 0 0 
-0.68884 -1.6912 3.8821 0 0 0 
-0.69004 -1.6723 3.839 0 0 0 
-0.69476 -1.6021 3.6746 0 0 0 
-0.69893 -1.5362 3.5247 0 0 0 
-0.7019 -1.4907 3.4197 0 0 0 
-0.70283 -1.476 3.3862 0 0 0 
-0.70648 -1.4207 3.2579 0 0 0 
-0.70733 -1.4073 3.2274 0 0 0 
-0.70977 -1.3686 3.1395 0 0 0 
-0.71361 -1.309 3.0029 0 0 0 
-0.71573 -1.2754 2.9267 0 0 0 
-0.71848 -1.234 2.8302 0 0 0 
-0.71911 -1.2239 2.8073 0 0 0 
-0.72097 -1.1945 2.7405 0 0 0 
-0.72156 -1.185 2.719 0 0 0 
-0.72215 -1.1757 2.6978 0 0 0 
-0.72615 -1.1151 2.5573 0 0 0 
-0.73442 -0.99416 2.2715 0 0 0 
-0.73527 -0.9814 2.2418 0 0 0 
-0.73651 -0.96302 2.1986 0 0 0 
-0.73731 -0.95106 2.1708 0 0 0 
-0.73992 -0.91134 2.0788 0 0 0 
-0.74026 -0.90582 2.0664 0 0 0 
-0.74059 -0.90037 2.0541 0 0 0 
-0.74627 -0.81418 1.8544 0 0 0 
-0.75346 -0.71373 1.6116 0 0 0 
-0.75626 -0.67617 1.5189 0 0 0 
-0.76141 -0.60997 1.3517 0 0 0 
-0.76289 -0.58889 1.3011 0 0 0 
-0.76302 -0.58664 1.2963 0 0 0 
-0.76279 -0.57932 1.2916 0 0 0 
-0.70989 0.25644 1.2146 0 0 0 
-0.6953 0.4941 1.1847 0 0 0 
-0.69501 0.49845 1.1846 0 0 0 
-0.69486 0.5007 1.1846 0 0 0 
-0.69471 0.50296 1.1846 0 0 0 
-0.69455 0.50521 1.1846 0 0 0 
-0.6944 0.50747 1.1846 0 0 0 
-0.64391 0.081987 1.0777 0 0 0 
-0.63895 0.075565 1.0802 0 0 0 
-0.62838 -0.042929 1.1506 0 0 0 
-0.62862 -0.13676 1.2091 0 0 0 
-0.6414 -0.5001 1.4395 0 0 0 
-0.64549 -0.5891 1.4963 0 0 0 
-0.64917 -0.62496 1.5198 0 0 0 
-0.66556 -0.69051 1.5658 0 0 0 
-0.66871 -0.69992 1.5727 0 0 0 
-0.68046 -0.69544 1.5737 0 0 0 
-0.75971 -0.65425 1.5734 0 0 0 
-0.76011 -0.65203 1.5722 0 0 0 
-0.76048 -0.64752 1.5695 0 0 0 
-0.76055 -0.63591 1.5622 0 0 0 
-0.74913 -0.25033 1.3184 0 0 0 
-0.74815 -0.16868 1.2673 0 0 0 
-0.74596 -0.15943 1.2608 0 0 0 
-0.74467 -0.15436 1.2572 0 0 0 
-0.64741 0.085656 1.0766 0 0 0 
0.51835 0.56761 1.7443 0 0 0 
-0.034265 0.60474 1.776 0 0 0 
-0.61425 0.67299 1.8232 0 0 0 
-0.62909 0.59892 1.7883 0 0 0 
-0.62913 0.59607 1.7869 0 0 0 
-0.62975 0.50463 1.7434 0 0 0 
-0.61973 0.49095 1.7366 0 0 0 
-0.60982 0.4829 1.7325 0 0 0 
-0.59997 0.47764 1.7298 0 0 0 
-0.59349 0.47508 1.7284 0 0 0 
-0.55072 0.47013 1.725 0 0 0 
-0.17873 0.44498 1.7036 0 0 0 
-0.093752 0.43816 1.6982 0 0 0 
0.11851 0.42515 1.6866 0 0 0 
0.16326 0.42299 1.6844 0 0 0 
0.4076 0.41018 1.6721 0 0 0 
0.87882 0.3726 1.6423 0 0 0 
0.88195 0.37263 1.6423 0 0 0 
0.88946 0.40035 1.6553 0 0 0 
0.90583 0.48741 1.6963 0 0 0 
0.91286 0.54363 1.7229 0 0 0 
0.76504 0.55317 1.7312 0 0 0 
0.62238 0.56287 1.7394 0 0 0 
-0.61968 0.69 1.6894 0 0 0 
-0.61658 0.69579 1.6741 0 0 0 
-0.60647 0.69962 1.662 0 0 0 
-0.59991 0.70139 1.6561 0 0 0 
-0.59341 0.70313 1.6502 0 0 0 
-0.55557 0.70195 1.6444 0 0 0 
-0.44747 0.6978 1.6299 0 0 0 
-0.27693 0.68821 1.6146 0 0 0 
-0.0085259 0.67497 1.586 0 0 0 
0.18252 0.66598 1.5645 0 0 0 
0.23817 0.66358 1.5577 0 0 0 
0.63106 0.64641 1.5101 0 0 0 
0.69371 0.64184 1.5072 0 0 0 
0.69657 0.64161 1.5071 0 0 0 
0.69943 0.64138 1.507 0 0 0 
0.70228 0.64116 1.5069 0 0 0 
0.70514 0.64093 1.5068 0 0 0 
0.708 0.6407 1.5067 0 0 0 
0.71086 0.64048 1.5066 0 0 0 
0.71372 0.64025 1.5065 0 0 0 
0.71658 0.64002 1.5064 0 0 0 
0.71943 0.6398 1.5064 0 0 0 
0.72229 0.63957 1.5063 0 0 0 
0.76807 0.63406 1.5096 0 0 0 
0.82586 0.62606 1.5164 0 0 0 
0.83176 0.62406 1.5201 0 0 0 
0.839 0.61838 1.5328 0 0 0 
0.88519 0.57693 1.6268 0 0 0 
0.90455 0.5577 1.6709 0 0 0 
0.90505 0.55679 1.673 0 0 0 
0.90807 0.53973 1.7154 0 0 0 
0.90182 0.53978 1.7167 0 0 0 
0.73804 0.54893 1.7315 0 0 0 
0.57874 0.55982 1.7409 0 0 0 
-0.62419 0.62488 1.8549 0 0 0 
0.54015 0.29256 1.912 0 0 0 
-0.62811 0.35642 2.021 0 0 0 
-0.65058 0.38614 1.9511 0 0 0 
-0.65595 0.398 1.9224 0 0 0 
-0.65612 0.40672 1.9005 0 0 0 
-0.65591 0.41049 1.8909 0 0 0 
-0.63166 0.46069 1.7585 0 0 0 
-0.61745 0.46459 1.7453 0 0 0 
-0.61033 0.46628 1.7394 0 0 0 
-0.60025 0.46816 1.7324 0 0 0 
-0.5646 0.46888 1.7223 0 0 0 
-0.019619 0.43463 1.6827 0 0 0 
0.057908 0.4297 1.6772 0 0 0 
0.10532 0.42638 1.6746 0 0 0 
0.11803 0.42537 1.6742 0 0 0 
0.1212 0.42512 1.6741 0 0 0 
0.3244 0.40979 1.6658 0 0 0 
0.84585 0.3753 1.6323 0 0 0 
0.84895 0.37505 1.6322 0 0 0 
0.86781 0.37313 1.6327 0 0 0 
0.87426 0.3722 1.6335 0 0 0 
0.88187 0.3679 1.6426 0 0 0 
0.88211 0.36745 1.6437 0 0 0 
0.88236 0.36701 1.6448 0 0 0 
0.88261 0.36656 1.6458 0 0 0 
0.89283 0.28309 1.8543 0 0 0 
0.88907 0.27398 1.8781 0 0 0 
0.87341 0.26947 1.8932 0 0 0 
0.86638 0.26765 1.8994 0 0 0 
0.86278 0.26793 1.8995 0 0 0 
0.85918 0.26822 1.8996 0 0 0 
-0.41227 0.18406 1.8771 0 0 0 
0.89672 0.024182 1.7678 0 0 0 
0.90011 0.024215 1.7677 0 0 0 
0.90351 0.024248 1.7677 0 0 0 
0.90691 0.024282 1.7676 0 0 0 
0.9103 0.024315 1.7675 0 0 0 
0.92305 0.048376 1.7787 0 0 0 
0.89324 0.2663 1.8832 0 0 0 
0.88258 0.27794 1.889 0 0 0 
0.86821 0.28074 1.8907 0 0 0 
0.82507 0.28619 1.8944 0 0 0 
0.38072 0.30992 1.9169 0 0 0 
0.27702 0.31527 1.9221 0 0 0 
0.044156 0.3302 1.9351 0 0 0 
-0.022443 0.33528 1.9392 0 0 0 
-0.61416 0.39641 1.9833 0 0 0 
-0.622 0.39027 1.9806 0 0 0 
-0.62677 0.27382 1.9253 0 0 0 
-0.62689 0.25619 1.9169 0 0 0 
-0.61615 0.21353 1.8963 0 0 0 
-0.60893 0.2056 1.8923 0 0 0 
-0.47879 0.19011 1.8816 0 0 0 
0.12796 0.15008 1.8578 0 0 0 
0.87072 0.098579 1.816 0 0 0 
0.87417 0.098306 1.8159 0 0 0 
0.8809 0.086574 1.8439 0 0 0 
0.88118 0.086074 1.8451 0 0 0 
0.8823 0.082169 1.8547 0 0 0 
0.8878 0.062516 1.9031 0 0 0 
0.889 0.05835 1.9133 0 0 0 
0.89114 0.050403 1.9329 0 0 0 
0.89532 -0.0016535 2.0634 0 0 0 
0.89202 -0.0024622 2.0662 0 0 0 
0.8881 -0.0021519 2.0663 0 0 0 
0.52046 0.025928 2.0805 0 0 0 
0.4968 0.027802 2.0812 0 0 0 
0.48891 0.028427 2.0815 0 0 0 
-0.10161 0.068719 2.1163 0 0 0 
-0.10562 0.069037 2.1165 0 0 0 
-0.10964 0.069355 2.1166 0 0 0 
-0.11365 0.069673 2.1167 0 0 0 
-0.11767 0.069991 2.1168 0 0 0 
-0.12169 0.070309 2.117 0 0 0 
-0.1257 0.070628 2.1171 0 0 0 
-0.12972 0.070946 2.1172 0 0 0 
-0.13374 0.071264 2.1174 0 0 0 
-0.13775 0.071582 2.1175 0 0 0 
-0.14177 0.0719 2.1176 0 0 0 
-0.52954 0.10261 2.1298 0 0 0 
-0.53358 0.10293 2.1299 0 0 0 
-0.53762 0.10325 2.13 0 0 0 
-0.57803 0.10645 2.1313 0 0 0 
-0.58612 0.10709 2.1315 0 0 0 
-0.59016 0.10741 2.1317 0 0 0 
-0.5942 0.10773 2.1318 0 0 0 
-0.63376 0.11141 2.1317 0 0 0 
-0.65851 0.12434 2.1047 0 0 0 
-0.65508 0.14002 2.0643 0 0 0 
-0.60847 0.19432 1.9164 0 0 0 
-0.56855 0.19464 1.9064 0 0 0 
-0.41643 0.18408 1.8979 0 0 0 
0.043502 0.15677 1.8604 0 0 0 
0.082213 0.1537 1.8592 0 0 0 
0.085733 0.15342 1.8591 0 0 0 
0.089252 0.15314 1.859 0 0 0 
0.09629 0.15259 1.8588 0 0 0 
0.12444 0.15036 1.8579 0 0 0 
0.14615 -0.1185 2.0127 0 0 0 
0.66265 -0.15241 1.9835 0 0 0 
0.77305 -0.15754 1.9782 0 0 0 
0.847 -0.15876 1.9758 0 0 0 
0.85557 -0.15808 1.9759 0 0 0 
0.86361 -0.15415 1.9775 0 0 0 
0.9219 -0.12265 1.9911 0 0 0 
0.93245 -0.10813 1.9977 0 0 0 
0.93535 -0.090106 2.0062 0 0 0 
0.88791 0.014624 2.0573 0 0 0 
-0.21627 0.085205 2.1188 0 0 0 
-0.6105 0.11692 2.1439 0 0 0 
-0.61467 0.11596 2.1436 0 0 0 
-0.62784 0.036626 2.1061 0 0 0 
-0.6363 -0.016726 2.081 0 0 0 
-0.62825 -0.042568 2.0685 0 0 0 
-0.62438 -0.052302 2.0637 0 0 0 
-0.61642 -0.060033 2.0598 0 0 0 
-0.61249 -0.063232 2.0582 0 0 0 
-0.60458 -0.064415 2.0575 0 0 0 
-0.54188 -0.068242 2.054 0 0 0 
-0.31067 -0.085164 2.0401 0 0 0 
0.022782 -0.10936 2.0202 0 0 0 
0.87887 -0.25642 2.212 0 0 0 
0.86728 -0.25722 2.2167 0 0 0 
0.75681 -0.25072 2.2258 0 0 0 
0.37491 -0.22796 2.2567 0 0 0 
-0.63607 -0.17971 2.3688 0 0 0 
-0.6434 -0.17424 2.3566 0 0 0 
-0.65569 -0.15653 2.3147 0 0 0 
-0.66175 -0.14705 2.2922 0 0 0 
-0.66489 -0.13679 2.267 0 0 0 
-0.6648 -0.13102 2.2524 0 0 0 
-0.66281 -0.12141 2.2277 0 0 0 
-0.64945 -0.085789 2.1346 0 0 0 
-0.64239 -0.074492 2.1045 0 0 0 
-0.6169 -0.060605 2.0635 0 0 0 
-0.609 -0.056974 2.0525 0 0 0 
-0.5386 -0.059402 2.0424 0 0 0 
0.014914 -0.09557 2.0056 0 0 0 
0.18224 -0.10581 1.9928 0 0 0 
0.18602 -0.10611 1.9926 0 0 0 
0.66347 -0.14711 1.9857 0 0 0 
0.68228 -0.14859 1.9851 0 0 0 
0.68604 -0.14889 1.985 0 0 0 
0.85187 -0.16254 1.9811 0 0 0 
0.86346 -0.16397 1.982 0 0 0 
0.92394 -0.18368 2.0178 0 0 0 
0.93326 -0.18919 2.0296 0 0 0 
0.93911 -0.19501 2.0429 0 0 0 
-0.62496 -0.15143 2.3042 0 0 0 
-0.62957 -0.1943 2.2839 0 0 0 
-0.63887 -0.29365 2.2368 0 0 0 
-0.63892 -0.29718 2.2351 0 0 0 
-0.63019 -0.30821 2.2296 0 0 0 
-0.56609 -0.34974 2.2083 0 0 0 
-0.55781 -0.35337 2.2063 0 0 0 
0.17131 -0.38446 2.173 0 0 0 
0.58738 -0.40754 2.1515 0 0 0 
0.85375 -0.43025 2.134 0 0 0 
0.86474 -0.42118 2.138 0 0 0 
0.86898 -0.41106 2.1427 0 0 0 
0.8743 -0.39436 2.1505 0 0 0 
0.88004 -0.26315 2.2128 0 0 0 
0.87901 -0.2604 2.2142 0 0 0 
0.73993 -0.24719 2.224 0 0 0 
0.65072 -0.24113 2.2291 0 0 0 
0.47929 -0.228 2.2397 0 0 0 
-0.030662 -0.19219 2.2697 0 0 0 
-0.35398 -0.17277 2.2871 0 0 0 
0.86926 -0.47264 2.364 0 0 0 
0.83834 -0.47495 2.377 0 0 0 
-0.63803 -0.40753 2.5484 0 0 0 
-0.64842 -0.4054 2.5454 0 0 0 
-0.66325 -0.38884 2.507 0 0 0 
-0.66287 -0.37521 2.4725 0 0 0 
-0.6488 -0.31068 2.3063 0 0 0 
-0.5405 -0.30095 2.2566 0 0 0 
-0.43537 -0.30402 2.2401 0 0 0 
0.19224 -0.3366 2.1771 0 0 0 
0.2395 -0.33985 2.1744 0 0 0 
0.4502 -0.35494 2.1637 0 0 0 
0.66777 -0.37104 2.1541 0 0 0 
0.67189 -0.37137 2.1539 0 0 0 
0.67601 -0.3717 2.1538 0 0 0 
0.85717 -0.38604 2.1481 0 0 0 
0.86129 -0.38637 2.148 0 0 0 
0.8635 -0.3872 2.1496 0 0 0 
0.86614 -0.39118 2.159 0 0 0 
-0.61413 -0.59485 2.3912 0 0 0 
0.87468 -0.86044 2.2397 0 0 0 
0.8877 -0.7994 2.2636 0 0 0 
0.89724 -0.73471 2.2891 0 0 0 
0.87628 -0.52493 2.3734 0 0 0 
0.86283 -0.51728 2.3769 0 0 0 
0.84105 -0.51495 2.3785 0 0 0 
0.45332 -0.48088 2.4039 0 0 0 
-0.02817 -0.4521 2.4301 0 0 0 
-0.3651 -0.43231 2.4484 0 0 0 
-0.57053 -0.41834 2.4602 0 0 0 
-0.61772 -0.41593 2.4626 0 0 0 
-0.62773 -0.43311 2.4561 0 0 0 
-0.63259 -0.4693 2.4418 0 0 0 
-0.63758 -0.52123 2.4213 0 0 0 
-0.63763 -0.52529 2.4196 0 0 0 
-0.63768 -0.52936 2.418 0 0 0 
-0.63773 -0.53342 2.4164 0 0 0 
-0.63763 -0.55623 2.4073 0 0 0 
-0.63285 -0.57466 2.3998 0 0 0 
-0.62352 -0.59278 2.3923 0 0 0 
0.83095 -0.71858 2.3646 0 0 0 
0.84536 -0.77364 2.5003 0 0 0 
0.64411 -0.76921 2.5357 0 0 0 
0.49351 -0.76449 2.5586 0 0 0 
-0.65335 -0.72487 2.7239 0 0 0 
-0.67167 -0.71849 2.712 0 0 0 
-0.67404 -0.71447 2.7024 0 0 0 
-0.67958 -0.70472 2.6791 0 0 0 
-0.6846 -0.67115 2.5955 0 0 0 
-0.65813 -0.62385 2.4699 0 0 0 
-0.64895 -0.61729 2.4512 0 0 0 
-0.63954 -0.61149 2.4344 0 0 0 
0.6678 -0.69644 2.3464 0 0 0 
0.67225 -0.6968 2.3463 0 0 0 
0.8558 -1.0537 2.4216 0 0 0 
-0.51359 -0.87008 2.5437 0 0 0 
-0.58653 -0.8604 2.5502 0 0 0 
-0.62121 -0.85483 2.5537 0 0 0 
-0.64132 -0.84872 2.5572 0 0 0 
-0.6567 -0.84247 2.5605 0 0 0 
-0.66163 -0.83431 2.5645 0 0 0 
-0.66168 -0.79467 2.5834 0 0 0 
-0.66163 -0.79053 2.5854 0 0 0 
-0.64604 -0.72508 2.6161 0 0 0 
-0.64068 -0.70419 2.6259 0 0 0 
-0.59958 -0.69067 2.6313 0 0 0 
-0.55423 -0.68962 2.6307 0 0 0 
-0.5492 -0.68958 2.6306 0 0 0 
-0.54417 -0.68953 2.6305 0 0 0 
-0.53913 -0.68948 2.6304 0 0 0 
-0.5341 -0.68943 2.6303 0 0 0 
-0.52907 -0.68938 2.6302 0 0 0 
-0.52404 -0.68933 2.6301 0 0 0 
-0.51901 -0.68928 2.63 0 0 0 
-0.51397 -0.68923 2.6299 0 0 0 
-0.50894 -0.68918 2.6298 0 0 0 
-0.50391 -0.68913 2.6296 0 0 0 
0.33951 -0.73926 2.5844 0 0 0 
0.81614 -0.77871 2.5536 0 0 0 
0.8788 -0.78869 2.5472 0 0 0 
0.89097 -0.7955 2.5437 0 0 0 
0.90696 -0.81721 2.5329 0 0 0 
0.91987 -0.90546 2.4906 0 0 0 
0.90533 -1.0326 2.4304 0 0 0 
0.88766 -1.0497 2.4227 0 0 0 
0.87739 -1.0578 2.4192 0 0 0 
0.83634 -1.1565 2.6646 0 0 0 
0.87204 -1.1142 2.6804 0 0 0 
0.87237 -1.0871 2.6912 0 0 0 
0.86725 -1.0781 2.6949 0 0 0 
0.83472 -1.0518 2.7064 0 0 0 
0.72699 -1.0401 2.7143 0 0 0 
0.66728 -1.0341 2.7186 0 0 0 
0.57368 -1.0266 2.7244 0 0 0 
0.46746 -1.0196 2.7305 0 0 0 
0.18392 -0.99887 2.7474 0 0 0 
-0.031109 -0.98374 2.7601 0 0 0 
-0.2796 -0.96735 2.7742 0 0 0 
-0.67018 -0.94297 2.7959 0 0 0 
-0.6563 -1.1126 2.7278 0 0 0 
-0.64579 -1.1217 2.7239 0 0 0 
-0.58701 -1.1331 2.7175 0 0 0 
-0.32605 -1.1539 2.7012 0 0 0 
-0.066414 -1.1673 2.6879 0 0 0 
-0.026396 -1.1675 2.6866 0 0 0 
0.1175 -1.1654 2.6831 0 0 0 
0.1226 -1.1653 2.6829 0 0 0 
0.12771 -1.1653 2.6828 0 0 0 
0.25163 -1.1646 2.6793 0 0 0 
0.25677 -1.1645 2.6791 0 0 0 
0.26192 -1.1645 2.679 0 0 0 
0.34738 -1.1629 2.677 0 0 0 
0.48532 -1.1615 2.6734 0 0 0 
0.49042 -1.1614 2.6732 0 0 0 
0.49553 -1.1614 2.6731 0 0 0 
0.50064 -1.1613 2.673 0 0 0 
0.50575 -1.1613 2.6728 0 0 0 
0.51086 -1.1612 2.6727 0 0 0 
0.51597 -1.1612 2.6726 0 0 0 
0.52108 -1.1611 2.6724 0 0 0 
0.55684 -1.1607 2.6715 0 0 0 
0.56194 -1.1607 2.6713 0 0 0 
0.66923 -1.1595 2.6685 0 0 0 
0.67433 -1.1595 2.6684 0 0 0 
0.67944 -1.1594 2.6682 0 0 0 
0.68455 -1.1594 2.6681 0 0 0 
0.80158 -1.1575 2.6653 0 0 0 
0.80665 -1.1575 2.6651 0 0 0 
0.81172 -1.1574 2.665 0 0 0 
0.81679 -1.1573 2.6649 0 0 0 
0.82186 -1.1573 2.6647 0 0 0 
0.82693 -1.1572 2.6646 0 0 0 
-0.57096 -1.8604 4.2879 0 0 0 
-0.31921 -1.9172 4.3425 0 0 0 
-0.13109 -1.8507 4.2589 0 0 0 
-0.11278 -1.819 4.2219 0 0 0 
-0.15332 -1.8112 4.2146 0 0 0 
-0.65183 -1.7189 4.1296 0 0 0 
-0.65237 -1.7492 4.1641 0 0 0 
-0.6526 -1.7871 4.2075 0 0 0 
-0.65243 -1.7906 4.2115 0 0 0 
-0.64419 -1.8368 4.2639 0 0 0 
-0.61927 -1.8479 4.2756 0 0 0 
2.025 -1.532 4.3238 0 0 0 
2.1948 -1.3743 4.3381 0 0 0 
2.3705 -0.97015 4.3874 0 0 0 
2.3899 -0.91699 4.3941 0 0 0 
2.4275 -0.72139 4.4202 0 0 0 
2.4879 -0.40845 4.462 0 0 0 
2.4881 -0.39143 4.4644 0 0 0 
2.4881 -0.38292 4.4656 0 0 0 
2.4799 -0.32341 4.4745 0 0 0 
2.4346 -0.14297 4.5025 0 0 0 
2.3821 -0.14089 4.5053 0 0 0 
2.1428 -0.19805 4.5087 0 0 0 
1.859 -0.51318 4.4773 0 0 0 
1.6662 -0.95038 4.4242 0 0 0 
1.5197 -1.4268 4.3632 0 0 0 
1.5197 -1.4348 4.362 0 0 0 
1.5196 -1.4428 4.3609 0 0 0 
1.5599 -1.5576 4.3425 0 0 0 
1.5834 -1.618 4.3328 0 0 0 
1.5915 -1.6259 4.3313 0 0 0 
1.6265 -1.6343 4.3284 0 0 0 
1.7134 -1.633 4.3244 0 0 0 
1.9895 -1.5494 4.323 0 0 0 
0.99913 -1.1426 2.6543 0 0 0 
0.87557 -1.1245 2.7605 0 0 0 
0.93311 -1.0973 2.9179 0 0 0 
0.95799 -1.0932 2.9415 0 0 0 
0.96363 -1.0932 2.9415 0 0 0 
0.96927 -1.0932 2.9415 0 0 0 
0.98618 -1.0932 2.9415 0 0 0 
1.1288 -1.0957 2.9253 0 0 0 
1.1512 -1.0962 2.9225 0 0 0 
1.4769 -1.109 2.8456 0 0 0 
1.4769 -1.1093 2.8438 0 0 0 
1.4647 -1.1133 2.8208 0 0 0 
1.4296 -1.1245 2.756 0 0 0 
1.413 -1.1284 2.7336 0 0 0 
1.3966 -1.132 2.7124 0 0 0 
1.3754 -1.1358 2.6907 0 0 0 
1.3545 -1.1395 2.6693 0 0 0 
1.2483 -1.1451 2.6377 0 0 0 
1.2382 -1.1455 2.6352 0 0 0 
1.2281 -1.1458 2.6335 0 0 0 
1.094 -1.1481 2.6214 0 0 0 
1.787 -1.5448 3.9743 0 0 0 
1.5377 -1.5845 4.1648 0 0 0 
1.5388 -1.5514 4.2359 0 0 0 
1.5422 -1.5319 4.2743 0 0 0 
1.5675 -1.4033 4.5263 0 0 0 
1.5705 -1.4005 4.529 0 0 0 
1.5735 -1.3977 4.5317 0 0 0 
1.9121 -1.1785 4.6325 0 0 0 
2.1303 -1.2245 4.2902 0 0 0 
2.1288 -1.2883 4.1529 0 0 0 
2.1089 -1.3245 4.0963 0 0 0 
2.0347 -1.41 3.9925 0 0 0 
2.0321 -1.4124 3.9902 0 0 0 
1.8744 -1.508 3.9574 0 0 0 
0.839 -0.77145 1.7607 0 0 0 
0.85175 -0.81281 2.0294 0 0 0 
0.85188 -0.81176 2.0303 0 0 0 
0.85352 -0.79763 2.0419 0 0 0 
0.88822 -0.44834 2.2267 0 0 0 
0.90689 -0.096799 2.1325 0 0 0 
0.89501 0.004079 1.8084 0 0 0 
0.89417 0.00012618 1.7986 0 0 0 
0.89207 -0.01419 1.7794 0 0 0 
0.87168 -0.18917 1.6349 0 0 0 
0.83147 -0.58941 1.4155 0 0 0 
0.83129 -0.59211 1.4155 0 0 0 
0.8311 -0.59481 1.4155 0 0 0 
0.83092 -0.59751 1.4155 0 0 0 
0.83042 -0.61023 1.4219 0 0 0 
0.82963 -0.6422 1.4462 0 0 0 
0.83015 -0.65029 1.4648 0 0 0 
2.1397 -0.23367 4.5735 0 0 0 
2.4843 -0.27534 4.5251 0 0 0 
2.4928 -0.27305 4.5291 0 0 0 
2.5276 -0.2551 4.5593 0 0 0 
2.5612 -0.20854 4.6345 0 0 0 
2.6503 -0.032012 4.9178 0 0 0 
2.4586 0.026397 5.0004 0 0 0 
2.2572 0.039199 5.0105 0 0 0 
2.2014 0.021311 4.9794 0 0 0 
2.1691 -0.012952 4.9237 0 0 0 
2.147 -0.046457 4.8696 0 0 0 
2.1261 -0.086915 4.8047 0 0 0 
2.0765 -0.21209 4.6044 0 0 0 
2.0857 -0.21733 4.5966 0 0 0 
2.0949 -0.22258 4.5888 0 0 0 
2.4606 -0.2962 4.9339 0 0 0 
2.6724 0.11728 4.9079 0 0 0 
2.7022 0.56163 4.9018 0 0 0 
2.6929 0.57106 4.9027 0 0 0 
2.5253 0.50249 4.9217 0 0 0 
2.4601 0.43923 4.9293 0 0 0 
2.4508 0.42981 4.9304 0 0 0 
2.4415 0.42038 4.9314 0 0 0 
2.2088 0.043405 4.9595 0 0 0 
2.1949 -0.042506 4.9616 0 0 0 
2.1949 -0.052071 4.9617 0 0 0 
2.4247 -0.29155 4.9378 0 0 0 
2.5127 -0.41881 4.5646 0 0 0 
2.3985 -0.79127 4.377 0 0 0 
2.3907 -0.79231 4.3787 0 0 0 
2.3829 -0.79336 4.3805 0 0 0 
2.3683 -0.78914 4.3874 0 0 0 
2.3469 -0.77967 4.3995 0 0 0 
2.2733 -0.73457 4.4488 0 0 0 
2.2664 -0.72925 4.454 0 0 0 
2.2595 -0.72392 4.4593 0 0 0 
2.2527 -0.7186 4.4645 0 0 0 
2.2086 -0.53938 4.5848 0 0 0 
2.185 -0.36055 4.6987 0 0 0 
2.1861 -0.35383 4.7023 0 0 0 
2.1872 -0.3471 4.706 0 0 0 
2.1905 -0.33509 4.7122 0 0 0 
2.2182 -0.31807 4.714 0 0 0 
2.2267 -0.31694 4.7121 0 0 0 
2.2351 -0.31581 4.7102 0 0 0 
2.4485 -0.29913 4.6555 0 0 0 
2.512 -0.3104 4.6295 0 0 0 
2.516 -0.39891 4.5755 0 0 0 
2.5138 -0.41218 4.5683 0 0 0 
2.5176 0.92921 4.7562 0 0 0 
2.2926 0.66267 4.8109 0 0 0 
2.323 0.65366 4.893 0 0 0 
2.368 0.67134 4.953 0 0 0 
2.5224 0.73502 5.1524 0 0 0 
2.6173 0.83746 5.1494 0 0 0 
2.6313 0.85329 5.1475 0 0 0 
2.7794 1.0401 5.0889 0 0 0 
2.7837 1.0457 5.0869 0 0 0 
2.7872 1.0526 5.0806 0 0 0 
2.7126 1.0454 4.9372 0 0 0 
2.6413 1.0398 4.7978 0 0 0 
2.6365 1.0357 4.7957 0 0 0 
2.6833 0.050823 4.8768 0 0 0 
2.5389 0.05723 5.1051 0 0 0 
2.4603 0.0053927 5.0779 0 0 0 
2.453 -0.00033448 5.0729 0 0 0 
2.4494 -0.0031981 5.0704 0 0 0 
2.2134 -0.23666 4.7764 0 0 0 
2.1738 -0.27497 4.7293 0 0 0 
2.1609 -0.30335 4.6705 0 0 0 
2.1613 -0.30526 4.6647 0 0 0 
2.1947 -0.31228 4.5968 0 0 0 
2.4489 -0.19531 4.5457 0 0 0 
2.4624 -0.18692 4.549 0 0 0 
2.4889 -0.16828 4.5612 0 0 0 
2.5925 -0.065531 4.6911 0 0 0 
2.6729 0.027182 4.8274 0 0 0 
2.4051 0.31324 4.7178 0 0 0 
2.4183 0.30542 4.6923 0 0 0 
2.4576 0.34369 4.6935 0 0 0 
2.5332 0.42971 4.7114 0 0 0 
2.5365 0.43519 4.7142 0 0 0 
2.7132 0.74823 4.8965 0 0 0 
2.739 0.81984 4.9557 0 0 0 
2.7343 0.84939 4.9983 0 0 0 
2.6164 0.78778 5.0614 0 0 0 
2.6102 0.78415 5.0643 0 0 0 
2.5054 0.71201 5.0986 0 0 0 
2.4955 0.7025 5.0984 0 0 0 
2.4919 0.69662 5.0954 0 0 0 
2.4882 0.69074 5.0923 0 0 0 
2.4023 0.47056 4.9184 0 0 0 
2.3794 0.38832 4.8426 0 0 0 
61 0 1 2 3 4 5 6 7 8 9 10 11 12 13 14 15 16 17 18 19 20 21 22 23 24 25 26 27 28 29 30 31 32 33 34 35 36 37 38 39 40 41 42 43 44 45 46 47 48 49 50 51 52 53 54 55 56 57 58 59 60
19 61 62 63 64 65 66 67 68 69 70 71 72 73 74 75 76 77 78 79
23 80 81 82 83 84 85 86 87 88 89 90 91 92 93 94 95 96 97 98 99 100 101 102
35 103 104 105 106 107 108 109 110 111 112 113 114 115 116 117 118 119 120 121 122 123 124 125 126 127 128 129 130 131 132 133 134 135 136 137
31 138 139 140 141 142 143 144 145 146 147 148 149 150 151 152 153 154 155 156 157 158 159 160 161 162 163 164 165 166 167 168
22 169 170 171 172 173 174 175 176 177 178 179 180 181 182 183 184 185 186 187 188 189 190
45 191 192 193 194 195 196 197 198 199 200 201 202 203 204 205 206 207 208 209 210 211 212 213 214 215 216 217 218 219 220 221 222 223 224 225 226 227 228 229 230 231 232 233 234 235
23 236 237 238 239 240 241 242 243 244 245 246 247 248 249 250 251 252 253 254 255 256 257 258
27 259 260 261 262 263 264 265 266 267 268 269 270 271 272 273 274 275 276 277 278 279 280 281 282 283 284 285
20 286 287 288 289 290 291 292 293 294 295 296 297 298 299 300 301 302 303 304 305
19 306 307 308 309 310 311 312 313 314 315 316 317 318 319 320 321 322 323 324
21 325 326 327 328 329 330 331 332 333 334 335 336 337 338 339 340 341 342 343 344 345
14 346 347 348 349 350 351 352 353 354 355 356 357 358 359
32 360 361 362 363 364 365 366 367 368 369 370 371 372 373 374 375 376 377 378 379 380 381 382 383 384 385 386 387 388 389 390 391
46 392 393 394 395 396 397 398 399 400 401 402 403 404 405 406 407 408 409 410 411 412 413 414 415 416 417 418 419 420 421 422 423 424 425 426 427 428 429 430 431 432 433 434 435 436 437
11 438 439 440 441 442 443 444 445 446 447 448
23 449 450 451 452 453 454 455 456 457 458 459 460 461 462 463 464 465 466 467 468 469 470 471
21 472 473 474 475 476 477 478 479 480 481 482 483 484 485 486 487 488 489 490 491 492
14 493 494 495 496 497 498 499 500 501 502 503 504 505 506
17 507 508 509 510 511 512 513 514 515 516 517 518 519 520 521 522 523
15 524 525 526 527 528 529 530 531 532 533 534 535 536 537 538
12 539 540 541 542 543 544 545 546 547 548 549 550
22 551 552 553 554 555 556 557 558 559 560 561 562 563 564 565 566 567 568 569 570 571 572
13 573 574 575 576 577 578 579 580 581 582 583 584 585
15 586 587 588 589 590 591 592 593 594 595 596 597 598 599 600
16 601 602 603 604 605 606 607 608 609 610 611 612 613 614 615 616
