ply
format ascii 1.0
comment PCL generated
element vertex 104
property float x
property float y
property float z
property uchar red
property uchar green
property uchar blue
element face 26
property list uchar int vertex_indices
end_header
-0.68356 -1.7698 4.0661 0 0 0 
-0.84994 -1.7584 1.1846 0 0 0 
-0.6784 0.74061 1.1846 0 0 0 
-0.51202 0.72919 4.0661 0 0 0 
-0.62837 0.082922 1.0722 0 0 0 
-0.76055 0.10191 1.1027 0 0 0 
-0.76055 -0.68673 1.5939 0 0 0 
-0.62838 -0.70571 1.5634 0 0 0 
0.91286 0.37294 1.6416 0 0 0 
-0.62975 0.35777 1.6735 0 0 0 
-0.62975 0.67284 1.8235 0 0 0 
0.91286 0.688 1.7916 0 0 0 
0.90807 0.62486 1.5004 0 0 0 
-0.62419 0.74621 1.5485 0 0 0 
-0.62419 0.62488 1.8549 0 0 0 
0.90807 0.50353 1.8069 0 0 0 
0.89283 0.37157 1.6308 0 0 0 
-0.65612 0.49425 1.6794 0 0 0 
-0.65612 0.35863 2.0219 0 0 0 
0.89283 0.23596 1.9733 0 0 0 
0.92305 0.024441 1.7673 0 0 0 
-0.62689 0.0092031 1.7993 0 0 0 
-0.62689 0.39629 1.9836 0 0 0 
0.92305 0.41153 1.9516 0 0 0 
0.89532 0.096631 1.8152 0 0 0 
-0.65851 0.21969 1.8639 0 0 0 
-0.65851 0.11282 2.1338 0 0 0 
0.89532 -0.010242 2.0851 0 0 0 
0.92332 -0.15801 1.9742 0 0 0 
-0.6363 -0.17334 2.0064 0 0 0 
-0.6363 0.11666 2.1445 0 0 0 
0.92332 0.132 2.1123 0 0 0 
0.93911 -0.16575 1.969 0 0 0 
-0.66489 -0.038716 2.0193 0 0 0 
-0.66489 -0.17743 2.3697 0 0 0 
0.93911 -0.30447 2.3194 0 0 0 
0.88004 -0.42999 2.1334 0 0 0 
-0.63892 -0.44492 2.1648 0 0 0 
-0.63892 -0.15157 2.3044 0 0 0 
0.88004 -0.13664 2.2731 0 0 0 
0.86926 -0.387 2.1478 0 0 0 
-0.66325 -0.26563 2.1958 0 0 0 
-0.66325 -0.40554 2.5491 0 0 0 
0.86926 -0.52691 2.5011 0 0 0 
0.89724 -0.82265 2.254 0 0 0 
-0.63763 -0.83883 2.2946 0 0 0 
-0.63763 -0.41614 2.4632 0 0 0 
0.89724 -0.39997 2.4226 0 0 0 
0.84537 -0.71051 2.3409 0 0 0 
-0.6846 -0.58934 2.3889 0 0 0 
-0.6846 -0.72239 2.7249 0 0 0 
0.84537 -0.84357 2.6769 0 0 0 
0.90869 -1.0575 2.4185 0 0 0 
-0.64597 -1.0727 2.4506 0 0 0 
-0.64597 -0.69053 2.6326 0 0 0 
0.90869 -0.67524 2.6005 0 0 0 
0.86725 -1.1581 2.663 0 0 0 
-0.67018 -1.1743 2.7036 0 0 0 
-0.67018 -0.94297 2.7959 0 0 0 
0.86725 -0.92676 2.7553 0 0 0 
-0.11278 -1.9214 4.3388 0 0 0 
-0.6526 -1.9104 4.3484 0 0 0 
-0.6526 -1.7189 4.1296 0 0 0 
-0.11278 -1.7298 4.12 0 0 0 
2.4881 -0.14018 4.5003 0 0 0 
1.5278 -0.14666 4.5457 0 0 0 
1.5278 -1.635 4.333 0 0 0 
2.4881 -1.6285 4.2877 0 0 0 
1.4769 -1.1476 2.6213 0 0 0 
0.87557 -1.1484 2.6215 0 0 0 
0.87557 -1.0933 2.9415 0 0 0 
1.4769 -1.0925 2.9414 0 0 0 
1.4538 -1.42 4.6161 0 0 0 
1.5763 -1.6601 3.9574 0 0 0 
2.1737 -1.3552 3.9574 0 0 0 
2.0511 -1.1151 4.6161 0 0 0 
0.91916 0.002421 2.2267 0 0 0 
0.87232 0.0056362 1.4155 0 0 0 
0.81631 -0.81038 1.4155 0 0 0 
0.86314 -0.8136 2.2267 0 0 0 
2.6503 0.03024 5.0161 0 0 0 
2.0765 0.043315 5.0079 0 0 0 
2.0765 -0.26605 4.5192 0 0 0 
2.6503 -0.27913 4.5275 0 0 0 
2.1944 0.57106 4.9577 0 0 0 
2.1951 -0.2962 4.9632 0 0 0 
2.7028 -0.2962 4.9072 0 0 0 
2.7022 0.57106 4.9017 0 0 0 
2.516 -0.77562 4.3507 0 0 0 
2.185 -0.81972 4.4247 0 0 0 
2.185 -0.32249 4.7214 0 0 0 
2.516 -0.27838 4.6474 0 0 0 
2.8053 1.0357 5.1524 0 0 0 
2.7058 1.1293 4.7562 0 0 0 
2.2789 0.67559 4.7562 0 0 0 
2.3784 0.58199 5.1524 0 0 0 
2.0986 -0.18764 5.0779 0 0 0 
2.1794 -0.33912 4.5457 0 0 0 
2.7336 -0.043415 4.5457 0 0 0 
2.6527 0.10806 5.0779 0 0 0 
2.2535 0.47295 5.0986 0 0 0 
2.4152 0.30256 4.6923 0 0 0 
2.8562 0.72105 4.6923 0 0 0 
2.6944 0.89144 5.0986 0 0 0 
4 0 1 2 3
4 4 5 6 7
4 8 9 10 11
4 12 13 14 15
4 16 17 18 19
4 20 21 22 23
4 24 25 26 27
4 28 29 30 31
4 32 33 34 35
4 36 37 38 39
4 40 41 42 43
4 44 45 46 47
4 48 49 50 51
4 52 53 54 55
4 56 57 58 59
4 60 61 62 63
4 64 65 66 67
4 68 69 70 71
4 72 73 74 75
4 76 77 78 79
4 80 81 82 83
4 84 85 86 87
4 88 89 90 91
4 92 93 94 95
4 96 97 98 99
4 100 101 102 103
