ply
format ascii 1.0
comment PCL generated
element vertex 104
property float x
property float y
property float z
property uchar red
property uchar green
property uchar blue
element face 26
property list uchar int vertex_indices
end_header
-0.69474 -1.6021 3.6749 0 0 0 
-0.83853 -1.5922 1.1846 0 0 0 
-0.67839 0.74061 1.1846 0 0 0 
-0.5346 0.73074 3.6749 0 0 0 
-0.62837 0.082922 1.0722 0 0 0 
-0.76055 0.10191 1.1027 0 0 0 
-0.76055 -0.68673 1.5939 0 0 0 
-0.62838 -0.70571 1.5634 0 0 0 
0.91286 0.37294 1.6416 0 0 0 
-0.62292 0.35784 1.6733 0 0 0 
-0.62292 0.67291 1.8233 0 0 0 
0.91286 0.688 1.7916 0 0 0 
0.90807 0.62486 1.5004 0 0 0 
-0.62419 0.74621 1.5485 0 0 0 
-0.62419 0.62488 1.8549 0 0 0 
0.90807 0.50353 1.8069 0 0 0 
0.89283 0.37157 1.6308 0 0 0 
-0.65612 0.49425 1.6794 0 0 0 
-0.65612 0.35863 2.0219 0 0 0 
0.89283 0.23596 1.9733 0 0 0 
0.92305 0.02444 1.7673 0 0 0 
-0.61604 0.0093097 1.7991 0 0 0 
-0.61604 0.39639 1.9833 0 0 0 
0.92305 0.41153 1.9516 0 0 0 
0.89532 0.096632 1.8152 0 0 0 
-0.65851 0.21969 1.8639 0 0 0 
-0.65851 0.11282 2.1338 0 0 0 
0.89532 -0.010241 2.0851 0 0 0 
0.89153 -0.15637 1.9758 0 0 0 
-0.6241 -0.17127 2.0071 0 0 0 
-0.6241 0.11678 2.1442 0 0 0 
0.89153 0.13168 2.1129 0 0 0 
0.93911 -0.16575 1.969 0 0 0 
-0.66489 -0.038716 2.0193 0 0 0 
-0.66489 -0.17743 2.3697 0 0 0 
0.93911 -0.30447 2.3194 0 0 0 
0.88004 -0.42999 2.1334 0 0 0 
-0.62998 -0.44484 2.1646 0 0 0 
-0.62998 -0.15975 2.3003 0 0 0 
0.88004 -0.1449 2.2691 0 0 0 
0.86614 -0.38675 2.1479 0 0 0 
-0.66325 -0.26563 2.1958 0 0 0 
-0.66325 -0.40422 2.5458 0 0 0 
0.86614 -0.52535 2.4979 0 0 0 
0.89724 -0.80106 2.2626 0 0 0 
-0.62338 -0.81709 2.3028 0 0 0 
-0.62338 -0.41889 2.4616 0 0 0 
0.89724 -0.40287 2.4214 0 0 0 
0.84537 -0.71051 2.3409 0 0 0 
-0.6846 -0.58934 2.3889 0 0 0 
-0.6846 -0.72239 2.7249 0 0 0 
0.84536 -0.84357 2.6769 0 0 0 
0.90533 -1.0575 2.4186 0 0 0 
-0.63049 -1.0726 2.4503 0 0 0 
-0.63049 -0.69037 2.6323 0 0 0 
0.90533 -0.67528 2.6005 0 0 0 
0.85509 -1.1582 2.6633 0 0 0 
-0.67018 -1.1743 2.7036 0 0 0 
-0.67018 -0.94297 2.7959 0 0 0 
0.85509 -0.92689 2.7556 0 0 0 
-0.11278 -1.8582 4.2666 0 0 0 
-0.6526 -1.8472 4.2762 0 0 0 
-0.6526 -1.7189 4.1296 0 0 0 
-0.11278 -1.7298 4.12 0 0 0 
2.4881 -0.14018 4.5003 0 0 0 
1.5364 -0.1466 4.5453 0 0 0 
1.5364 -1.6349 4.3326 0 0 0 
2.4881 -1.6285 4.2877 0 0 0 
1.4769 -1.1455 2.6334 0 0 0 
0.87557 -1.1463 2.6336 0 0 0 
0.87557 -1.0933 2.9415 0 0 0 
1.4769 -1.0925 2.9414 0 0 0 
1.4543 -1.421 4.6134 0 0 0 
1.5763 -1.6601 3.9574 0 0 0 
2.1704 -1.3569 3.9574 0 0 0 
2.0484 -1.1178 4.6134 0 0 0 
0.91864 -0.0052227 2.2267 0 0 0 
0.8718 -0.0020074 1.4155 0 0 0 
0.81631 -0.81038 1.4155 0 0 0 
0.86314 -0.8136 2.2267 0 0 0 
2.6503 -0.27913 4.5275 0 0 0 
2.0765 -0.26605 4.5192 0 0 0 
2.0765 0.043316 5.0079 0 0 0 
2.6503 0.030241 5.0161 0 0 0 
2.1944 0.57106 4.9577 0 0 0 
2.1951 -0.2962 4.9632 0 0 0 
2.7028 -0.2962 4.9072 0 0 0 
2.7022 0.57106 4.9017 0 0 0 
2.4485 -0.78461 4.3658 0 0 0 
2.185 -0.81972 4.4247 0 0 0 
2.185 -0.33424 4.7143 0 0 0 
2.4485 -0.29913 4.6555 0 0 0 
2.8053 1.0357 5.1524 0 0 0 
2.7058 1.1293 4.7562 0 0 0 
2.2789 0.67559 4.7562 0 0 0 
2.3784 0.58199 5.1524 0 0 0 
2.0986 -0.18765 5.0779 0 0 0 
2.1794 -0.33912 4.5457 0 0 0 
2.7258 -0.047535 4.5457 0 0 0 
2.645 0.10394 5.0779 0 0 0 
2.2606 0.46547 5.0808 0 0 0 
2.4148 0.30306 4.6935 0 0 0 
2.8557 0.72155 4.6935 0 0 0 
2.7015 0.88396 5.0808 0 0 0 
4 0 1 2 3
4 4 5 6 7
4 8 9 10 11
4 12 13 14 15
4 16 17 18 19
4 20 21 22 23
4 24 25 26 27
4 28 29 30 31
4 32 33 34 35
4 36 37 38 39
4 40 41 42 43
4 44 45 46 47
4 48 49 50 51
4 52 53 54 55
4 56 57 58 59
4 60 61 62 63
4 64 65 66 67
4 68 69 70 71
4 72 73 74 75
4 76 77 78 79
4 80 81 82 83
4 84 85 86 87
4 88 89 90 91
4 92 93 94 95
4 96 97 98 99
4 100 101 102 103
