ply
format ascii 1.0
comment Generated by InputGen
element vertex 183
property float x
property float y
property float z
property float nx
property float ny
property float nz
end_header
0.264275 0.5449 0 0 0 0
0.252499 0.5549 0 0 0 0
0.256469 0.5349 0 0 0 0
0.253706 0.5649 0 0 0 0
0.265123 0.5249 0 0 0 0
0.260333 0.5749 0 0 0 0
0.291648 0.5149 0 0 0 0
0.26588 0.5849 0 0 0 0
0.273092 0.5049 0 0 0 0
0.258953 0.5949 0 0 0 0
0.251383 0.4949 0 0 0 0
0.256184 0.6049 0 0 0 0
0.263776 0.4849 0 0 0 0
0.261017 0.6149 0 0 0 0
0.269537 0.4749 0 0 0 0
0.250581 0.6249 0 0 0 0
0.247488 0.4649 0 0 0 0
0.264443 0.6349 0 0 0 0
0.255805 0.4549 0 0 0 0
0.225999 0.6449 0 0 0 0
0.252533 0.4449 0 0 0 0
0.247605 0.6549 0 0 0 0
0.265517 0.4349 0 0 0 0
0.279232 0.6649 0 0 0 0
0.258406 0.4249 0 0 0 0
0.257342 0.6749 0 0 0 0
0.252852 0.4149 0 0 0 0
0.260714 0.6849 0 0 0 0
0.253037 0.4049 0 0 0 0
0.252262 0.6949 0 0 0 0
0.251469 0.3949 0 0 0 0
0.247909 0.7049 0 0 0 0
0.265442 0.3849 0 0 0 0
0.237595 0.7149 0 0 0 0
0.251675 0.3749 0 0 0 0
0.246785 0.7249 0 0 0 0
0.257883 0.3649 0 0 0 0
0.25448 0.7349 0 0 0 0
0.250622 0.3549 0 0 0 0
0.255232 0.7449 0 0 0 0
0.254534 0.3449 0 0 0 0
0.249917 0.7549 0 0 0 0
0.243747 0.3349 0 0 0 0
0.289276 0.7649 0 0 0 0
0.24134 0.3249 0 0 0 0
0.263441 0.7749 0 0 0 0
0.26059 0.3149 0 0 0 0
0.259358 0.7849 0 0 0 0
0.256307 0.3049 0 0 0 0
0.246317 0.7949 0 0 0 0
0.262815 0.2949 0 0 0 0
0.260015 0.8049 0 0 0 0
0.244304 0.2849 0 0 0 0
0.261294 0.8149 0 0 0 0
0.263265 0.2749 0 0 0 0
0.240986 0.8249 0 0 0 0
0.248307 0.2649 0 0 0 0
0.247974 0.8349 0 0 0 0
0.260326 0.2549 0 0 0 0
0.250614 0.8449 0 0 0 0
0.261199 0.2449 0 0 0 0
0.457127 0.5449 0 0 0 0
0.444001 0.5549 0 0 0 0
0.445752 0.5349 0 0 0 0
0.458099 0.5649 0 0 0 0
0.458101 0.5249 0 0 0 0
0.452206 0.5749 0 0 0 0
0.472287 0.5149 0 0 0 0
0.439408 0.5849 0 0 0 0
0.464813 0.5049 0 0 0 0
0.464323 0.5949 0 0 0 0
0.448067 0.4949 0 0 0 0
0.458939 0.6049 0 0 0 0
0.461054 0.4849 0 0 0 0
0.440004 0.6149 0 0 0 0
0.432134 0.4749 0 0 0 0
0.45237 0.6249 0 0 0 0
0.450634 0.4649 0 0 0 0
0.457305 0.6349 0 0 0 0
0.456559 0.4549 0 0 0 0
0.442801 0.6449 0 0 0 0
0.438297 0.4449 0 0 0 0
0.450911 0.6549 0 0 0 0
0.438546 0.4349 0 0 0 0
0.458045 0.6649 0 0 0 0
0.452409 0.4249 0 0 0 0
0.455332 0.6749 0 0 0 0
0.457903 0.4149 0 0 0 0
0.453134 0.6849 0 0 0 0
0.445612 0.4049 0 0 0 0
0.457013 0.6949 0 0 0 0
0.470433 0.3949 0 0 0 0
0.456346 0.7049 0 0 0 0
0.464356 0.3849 0 0 0 0
0.451791 0.7149 0 0 0 0
0.452298 0.3749 0 0 0 0
0.476707 0.7249 0 0 0 0
0.452197 0.3649 0 0 0 0
0.46907 0.7349 0 0 0 0
0.460574 0.3549 0 0 0 0
0.438527 0.7449 0 0 0 0
0.444221 0.3449 0 0 0 0
0.455117 0.7549 0 0 0 0
0.455086 0.3349 0 0 0 0
0.449885 0.7649 0 0 0 0
0.452523 0.3249 0 0 0 0
0.451594 0.7749 0 0 0 0
0.450332 0.3149 0 0 0 0
0.457254 0.7849 0 0 0 0
0.444686 0.3049 0 0 0 0
0.443109 0.7949 0 0 0 0
0.442536 0.2949 0 0 0 0
0.46046 0.8049 0 0 0 0
0.456934 0.2849 0 0 0 0
0.467966 0.8149 0 0 0 0
0.462299 0.2749 0 0 0 0
0.442239 0.8249 0 0 0 0
0.456662 0.2649 0 0 0 0
0.441133 0.8349 0 0 0 0
0.437864 0.2549 0 0 0 0
0.447752 0.8449 0 0 0 0
0.445545 0.2449 0 0 0 0
0.724368 0.554573 0 0 0 0
0.71262 0.561778 0 0 0 0
0.726396 0.544763 0 0 0 0
0.701976 0.569279 0 0 0 0
0.717163 0.531937 0 0 0 0
0.686443 0.575469 0 0 0 0
0.727091 0.524244 0 0 0 0
0.712161 0.592713 0 0 0 0
0.721925 0.512507 0 0 0 0
0.712434 0.603139 0 0 0 0
0.724176 0.502758 0 0 0 0
0.693476 0.608412 0 0 0 0
0.736737 0.495771 0 0 0 0
0.695686 0.619357 0 0 0 0
0.743661 0.487273 0 0 0 0
0.683089 0.626334 0 0 0 0
0.725036 0.47193 0 0 0 0
0.662656 0.631212 0 0 0 0
0.730954 0.463163 0 0 0 0
0.693459 0.649818 0 0 0 0
0.742057 0.455785 0 0 0 0
0.71052 0.664742 0 0 0 0
0.754512 0.44877 0 0 0 0
0.664409 0.66274 0 0 0 0
0.727728 0.43124 0 0 0 0
0.687703 0.679334 0 0 0 0
0.762036 0.43008 0 0 0 0
0.692515 0.690977 0 0 0 0
0.754995 0.417841 0 0 0 0
0.68291 0.698756 0 0 0 0
0.763236 0.409696 0 0 0 0
0.668496 0.705246 0 0 0 0
0.739975 0.393111 0 0 0 0
0.666079 0.714951 0 0 0 0
0.754249 0.386583 0 0 0 0
0.663672 0.724659 0 0 0 0
0.746309 0.374102 0 0 0 0
0.657946 0.733478 0 0 0 0
0.739383 0.361894 0 0 0 0
0.661204 0.744703 0 0 0 0
0.758403 0.356637 0 0 0 0
0.668595 0.757037 0 0 0 0
0.765272 0.348125 0 0 0 0
0.676518 0.769512 0 0 0 0
0.783719 0.342715 0 0 0 0
0.657177 0.774683 0 0 0 0
0.76731 0.327966 0 0 0 0
0.639397 0.780271 0 0 0 0
0.781123 0.321314 0 0 0 0
0.64758 0.792817 0 0 0 0
0.788102 0.312831 0 0 0 0
0.64132 0.801492 0 0 0 0
0.787928 0.302432 0 0 0 0
0.636623 0.810586 0 0 0 0
0.785449 0.291415 0 0 0 0
0.628402 0.818736 0 0 0 0
0.772282 0.277534 0 0 0 0
0.6337 0.830509 0 0 0 0
0.794174 0.273047 0 0 0 0
0.634066 0.840959 0 0 0 0
0.806601 0.266024 0 0 0 0
