# Blender v2.67 (sub 1) OBJ File: 'lHouseGtHandAligned.blend'
# www.blender.org
v 0.009258 0.662255 0.001556
v 0.659258 0.662255 0.001556
v 0.659258 0.443755 0.001556
v 0.009258 0.443755 0.222390
v 0.009258 0.662255 0.222390
v 0.659258 0.662255 0.222390
v 0.659258 0.443755 0.222390
v 0.009258 0.553005 0.332807
v 0.659258 0.553005 0.332807
v 0.225925 0.443755 0.222390
v 0.117591 0.553005 0.332807
v 0.225925 0.662255 0.222390
v 0.117591 0.662255 0.332807
v 0.225925 0.443755 0.001556
v 0.225925 0.006755 0.222390
v 0.225925 0.006755 0.001556
v 0.009258 0.006755 0.001556
v 0.009258 0.006755 0.222390
v 0.117591 0.006755 0.332807
vn -1.000000 0.000000 0.000000
vn 0.000000 1.000000 -0.000000
vn 1.000000 -0.000000 0.000000
vn 0.000000 -1.000000 0.000000
vn 0.000000 -0.710852 0.703341
vn -0.000000 0.710852 0.703341
vn 0.713809 0.000000 0.700341
vn -0.713809 0.000000 0.700341
vn 0.000000 0.000000 -1.000000
vn -0.713809 0.000000 0.700340
s off
f 8//1 5//1 4//1
f 5//2 12//2 1//2
f 2//3 6//3 3//3
f 7//4 10//4 14//4
f 9//5 11//5 10//5
f 6//6 12//6 9//6
f 8//5 4//5 11//5
f 5//6 8//6 11//6
f 11//7 12//7 13//7
f 11//8 13//8 5//8
f 12//2 5//2 13//2
f 14//3 10//3 15//3
f 2//9 3//9 14//9
f 19//10 11//10 18//10
f 11//7 19//7 10//7
f 16//4 15//4 17//4
f 5//1 1//1 4//1
f 1//1 17//1 18//1
f 4//1 1//1 18//1
f 12//2 6//2 2//2
f 1//2 12//2 2//2
f 6//3 9//3 7//3
f 3//3 6//3 7//3
f 3//4 7//4 14//4
f 7//5 9//5 10//5
f 12//6 11//6 9//6
f 16//3 14//3 15//3
f 1//9 2//9 14//9
f 17//9 1//9 16//9
f 1//9 14//9 16//9
f 11//8 4//8 18//8
f 19//7 15//7 10//7
f 15//4 19//4 18//4
f 17//4 15//4 18//4
