ply
format ascii 1.0
comment Created by Blender 2.72 (sub 0) - www.blender.org, source file: 'gt.blend'
element vertex 60
property float x
property float y
property float z
property float nx
property float ny
property float nz
element face 28
property list uchar uint vertex_indices
end_header
-4.471676 -8.767732 0.061793 -1.000000 -0.000000 -0.000000
-4.471676 -8.767732 2.061793 -1.000000 -0.000000 -0.000000
-4.471676 -4.767732 2.061793 -1.000000 -0.000000 -0.000000
-4.471676 -3.767732 3.061793 -1.000000 0.000000 0.000000
-4.471676 -2.767732 2.061793 -1.000000 0.000000 0.000000
-4.471676 -2.767732 0.061793 -1.000000 0.000000 0.000000
-4.471676 -2.767732 2.061793 0.000000 1.000000 -0.000000
1.528324 -2.767732 0.061793 0.000000 1.000000 -0.000000
-4.471676 -2.767732 0.061793 0.000000 1.000000 -0.000000
-2.471676 -2.767732 2.061793 0.000000 1.000000 -0.000000
1.528324 -2.767732 2.061793 0.000000 1.000000 -0.000000
1.528324 -2.767732 0.061793 1.000000 -0.000000 0.000000
1.528324 -4.767732 2.061793 1.000000 -0.000000 0.000000
1.528324 -4.767732 0.061793 1.000000 -0.000000 0.000000
1.528324 -2.767732 2.061793 1.000000 -0.000000 0.000000
1.528324 -3.767732 3.061793 1.000000 -0.000000 0.000000
1.528324 -4.767732 2.061793 0.000000 -1.000000 0.000000
-2.471676 -4.767732 2.061793 0.000000 -1.000000 0.000000
-2.471676 -4.767732 0.061793 0.000000 -1.000000 0.000000
1.528324 -4.767732 0.061793 0.000000 -1.000000 0.000000
1.528324 -3.767732 3.061793 0.000000 -0.707107 0.707107
-3.471676 -3.767732 3.061793 0.000000 -0.707107 0.707107
-2.471676 -4.767732 2.061793 0.000000 -0.707107 0.707107
1.528324 -4.767732 2.061793 0.000000 -0.707107 0.707107
1.528324 -2.767732 2.061793 0.000000 0.707107 0.707107
-2.471676 -2.767732 2.061793 0.000000 0.707107 0.707107
-3.471676 -3.767732 3.061793 0.000000 0.707107 0.707107
1.528324 -3.767732 3.061793 0.000000 0.707107 0.707107
-4.471676 -3.767732 3.061793 0.000000 -0.707107 0.707107
-4.471676 -4.767732 2.061793 0.000000 -0.707107 0.707107
-4.471676 -2.767732 2.061793 0.000000 0.707107 0.707107
-4.471676 -3.767732 3.061793 0.000000 0.707107 0.707107
-3.471676 -3.767732 3.061793 0.707107 0.000000 0.707107
-2.471676 -2.767732 2.061793 0.707107 0.000000 0.707107
-3.471676 -2.767732 3.061793 0.707107 0.000000 0.707107
-3.471676 -3.767732 3.061793 -0.707107 0.000000 0.707107
-3.471676 -2.767732 3.061793 -0.707107 0.000000 0.707107
-4.471676 -2.767732 2.061793 -0.707107 0.000000 0.707107
-3.471676 -2.767732 3.061793 -0.000000 1.000000 0.000000
-2.471676 -4.767732 0.061793 1.000000 -0.000000 0.000000
-2.471676 -4.767732 2.061793 1.000000 -0.000000 0.000000
-2.471676 -8.767732 2.061793 1.000000 -0.000000 0.000000
-2.471676 -8.767732 0.061793 1.000000 -0.000000 0.000000
-4.471676 -2.767732 0.061793 0.000000 0.000000 -1.000000
-2.471676 -8.767732 0.061793 0.000000 0.000000 -1.000000
-4.471676 -8.767732 0.061793 0.000000 0.000000 -1.000000
1.528324 -2.767732 0.061793 0.000000 0.000000 -1.000000
1.528324 -4.767732 0.061793 0.000000 0.000000 -1.000000
-2.471676 -4.767732 0.061793 0.000000 0.000000 -1.000000
-3.471676 -8.767732 3.061793 -0.707107 0.000000 0.707107
-4.471676 -4.767732 2.061793 -0.707107 0.000000 0.707107
-4.471676 -8.767732 2.061793 -0.707107 0.000000 0.707107
-3.471676 -8.767732 3.061793 0.707107 0.000000 0.707107
-2.471676 -8.767732 2.061793 0.707107 0.000000 0.707107
-2.471676 -4.767732 2.061793 0.707107 0.000000 0.707107
-2.471676 -8.767732 0.061793 0.000000 -1.000000 0.000000
-4.471676 -8.767732 2.061793 0.000000 -1.000000 0.000000
-4.471676 -8.767732 0.061793 0.000000 -1.000000 0.000000
-2.471676 -8.767732 2.061793 0.000000 -1.000000 0.000000
-3.471676 -8.767732 3.061793 0.000000 -1.000000 0.000000
3 0 1 2
3 3 4 2
3 4 5 0
3 4 0 2
3 6 7 8
3 9 10 7
3 6 9 7
3 11 12 13
3 14 15 12
3 11 14 12
4 16 17 18 19
4 20 21 22 23
4 24 25 26 27
3 28 29 21
3 30 31 26
3 32 33 34
3 35 36 37
3 9 6 38
4 39 40 41 42
3 43 44 45
3 46 47 48
3 43 48 44
3 43 46 48
4 49 35 50 51
4 32 52 53 54
3 55 56 57
3 58 59 56
3 55 58 56
