ply
format ascii 1.0
comment PCL generated
element vertex 1348
property float x
property float y
property float z
property uchar red
property uchar green
property uchar blue
element face 337
property list uchar int vertex_indices
end_header
0.18818 0.6304 0.13648 0 0 0 
0.18818 0.31815 0.13647 0 0 0 
0.58439 0.31815 0.13668 0 0 0 
0.58439 0.6304 0.13669 0 0 0 
0.46977 0.42744 0.066693 0 0 0 
0.43443 0.42744 0.066664 0 0 0 
0.43443 0.40764 0.066218 0 0 0 
0.46977 0.40764 0.066248 0 0 0 
0.21137 0.59394 0.076701 0 0 0 
0.21137 0.59394 0.074224 0 0 0 
0.2112 0.56291 0.074224 0 0 0 
0.2112 0.56291 0.076701 0 0 0 
0.57853 0.62843 0.13667 0 0 0 
0.57854 0.6289 0.053121 0 0 0 
0.18918 0.63114 0.053121 0 0 0 
0.18918 0.63067 0.13667 0 0 0 
0.21082 0.52158 0.074042 0 0 0 
0.21083 0.52158 0.058781 0 0 0 
0.21079 0.51885 0.058781 0 0 0 
0.21078 0.51885 0.074042 0 0 0 
0.18925 0.62879 0.13939 0 0 0 
0.18923 0.62879 0.052734 0 0 0 
0.18795 0.29466 0.052734 0 0 0 
0.18797 0.29466 0.13939 0 0 0 
0.5898 0.62926 0.053175 0 0 0 
0.5898 0.3146 0.053163 0 0 0 
0.18756 0.3146 0.052957 0 0 0 
0.18756 0.62926 0.052968 0 0 0 
0.33467 0.30934 0.14018 0 0 0 
0.33466 0.30913 0.072772 0 0 0 
0.18869 0.3112 0.072772 0 0 0 
0.18869 0.3114 0.14018 0 0 0 
0.58416 0.62616 0.13707 0 0 0 
0.58414 0.62616 0.053042 0 0 0 
0.58324 0.46749 0.053042 0 0 0 
0.58326 0.46749 0.13707 0 0 0 
0.42959 0.30966 0.14034 0 0 0 
0.42959 0.30966 0.11176 0 0 0 
0.49875 0.3091 0.11176 0 0 0 
0.49875 0.3091 0.14034 0 0 0 
0.49672 0.44739 0.14067 0 0 0 
0.47972 0.44741 0.1407 0 0 0 
0.47972 0.45159 0.13621 0 0 0 
0.49672 0.45156 0.13618 0 0 0 
0.49492 0.30587 0.13977 0 0 0 
0.49519 0.30558 0.076511 0 0 0 
0.49932 0.30949 0.076511 0 0 0 
0.49905 0.30978 0.13977 0 0 0 
0.41868 0.30952 0.075327 0 0 0 
0.3483 0.30991 0.07532 0 0 0 
0.3483 0.31111 0.13998 0 0 0 
0.41868 0.31073 0.13998 0 0 0 
0.49587 0.30668 0.086523 0 0 0 
0.49587 0.30668 0.081742 0 0 0 
0.43049 0.30721 0.081742 0 0 0 
0.43049 0.30721 0.086523 0 0 0 
0.27925 0.63633 0.11579 0 0 0 
0.27912 0.63632 0.059017 0 0 0 
0.27946 0.63009 0.059017 0 0 0 
0.27959 0.6301 0.11579 0 0 0 
0.37957 0.42073 0.077988 0 0 0 
0.37956 0.42077 0.069797 0 0 0 
0.37013 0.41782 0.069797 0 0 0 
0.37015 0.41778 0.077988 0 0 0 
0.24882 0.60688 0.098754 0 0 0 
0.24884 0.60688 0.064271 0 0 0 
0.24909 0.62495 0.064271 0 0 0 
0.24908 0.62495 0.098754 0 0 0 
0.24652 0.46226 0.077974 0 0 0 
0.24652 0.46226 0.069718 0 0 0 
0.23836 0.46725 0.069718 0 0 0 
0.23836 0.46725 0.077974 0 0 0 
0.36945 0.4056 0.066577 0 0 0 
0.33391 0.4056 0.066547 0 0 0 
0.33391 0.39112 0.066221 0 0 0 
0.36945 0.39111 0.066251 0 0 0 
0.59052 0.46537 0.13916 0 0 0 
0.5905 0.46537 0.053387 0 0 0 
0.59003 0.38307 0.053387 0 0 0 
0.59005 0.38307 0.13916 0 0 0 
0.19796 0.51322 0.099613 0 0 0 
0.19798 0.51322 0.063177 0 0 0 
0.19762 0.48776 0.063177 0 0 0 
0.1976 0.48776 0.099613 0 0 0 
0.3705 0.4191 0.077814 0 0 0 
0.3705 0.4191 0.069906 0 0 0 
0.36356 0.42023 0.069906 0 0 0 
0.36356 0.42023 0.077814 0 0 0 
0.57892 0.30857 0.14055 0 0 0 
0.57892 0.30858 0.089576 0 0 0 
0.51437 0.30887 0.089576 0 0 0 
0.51437 0.30887 0.14055 0 0 0 
0.46058 0.31551 0.053029 0 0 0 
0.24643 0.31668 0.053008 0 0 0 
0.24643 0.31826 0.13791 0 0 0 
0.46058 0.31709 0.13793 0 0 0 
0.38582 0.35831 0.13633 0 0 0 
0.36782 0.35836 0.13628 0 0 0 
0.36782 0.36132 0.13904 0 0 0 
0.38582 0.36128 0.13909 0 0 0 
0.33463 0.52289 0.073124 0 0 0 
0.33458 0.52289 0.053089 0 0 0 
0.33406 0.53249 0.053089 0 0 0 
0.33411 0.5325 0.073124 0 0 0 
0.48513 0.35491 0.07822 0 0 0 
0.48512 0.35495 0.071718 0 0 0 
0.49413 0.35777 0.071718 0 0 0 
0.49414 0.35773 0.07822 0 0 0 
0.27105 0.35967 0.13891 0 0 0 
0.27105 0.35967 0.13635 0 0 0 
0.25728 0.35974 0.13635 0 0 0 
0.25728 0.35974 0.13891 0 0 0 
0.34828 0.3175 0.13885 0 0 0 
0.34832 0.3175 0.06934 0 0 0 
0.34822 0.31029 0.06934 0 0 0 
0.34818 0.31029 0.13885 0 0 0 
0.54658 0.49774 0.073582 0 0 0 
0.54656 0.49774 0.065655 0 0 0 
0.54733 0.48356 0.065655 0 0 0 
0.54735 0.48357 0.073582 0 0 0 
0.5696 0.61776 0.085571 0 0 0 
0.5696 0.61776 0.055833 0 0 0 
0.56948 0.58699 0.055833 0 0 0 
0.56949 0.58699 0.085571 0 0 0 
0.37289 0.54181 0.076685 0 0 0 
0.29992 0.54181 0.076624 0 0 0 
0.29992 0.51888 0.076107 0 0 0 
0.37289 0.51888 0.076168 0 0 0 
0.54571 0.39047 0.078132 0 0 0 
0.5457 0.39051 0.070249 0 0 0 
0.53542 0.3873 0.070249 0 0 0 
0.53544 0.38726 0.078132 0 0 0 
0.56439 0.53212 0.070169 0 0 0 
0.56439 0.53212 0.054253 0 0 0 
0.57883 0.52976 0.054253 0 0 0 
0.57883 0.52976 0.070169 0 0 0 
0.41849 0.35922 0.077958 0 0 0 
0.41849 0.35922 0.069733 0 0 0 
0.41182 0.36031 0.069733 0 0 0 
0.41182 0.36031 0.077958 0 0 0 
0.38544 0.43819 0.13982 0 0 0 
0.38544 0.43821 0.13692 0 0 0 
0.36956 0.4383 0.13692 0 0 0 
0.36956 0.43828 0.13982 0 0 0 
0.44046 0.43939 0.137 0 0 0 
0.42518 0.43941 0.13702 0 0 0 
0.42518 0.43719 0.13941 0 0 0 
0.44046 0.43717 0.13938 0 0 0 
0.27153 0.47598 0.077975 0 0 0 
0.27151 0.47598 0.070776 0 0 0 
0.27103 0.48493 0.070776 0 0 0 
0.27104 0.48494 0.077975 0 0 0 
0.49939 0.51231 0.076045 0 0 0 
0.42535 0.51231 0.075983 0 0 0 
0.42535 0.53423 0.076477 0 0 0 
0.49939 0.53423 0.076538 0 0 0 
0.52664 0.35212 0.078126 0 0 0 
0.52662 0.35216 0.070326 0 0 0 
0.53702 0.35541 0.070326 0 0 0 
0.53704 0.35537 0.078126 0 0 0 
0.46393 0.41119 0.078059 0 0 0 
0.46393 0.41119 0.070302 0 0 0 
0.4551 0.41263 0.070302 0 0 0 
0.4551 0.41263 0.078059 0 0 0 
0.44984 0.38327 0.077999 0 0 0 
0.44983 0.3833 0.070787 0 0 0 
0.4398 0.38017 0.070787 0 0 0 
0.43981 0.38013 0.077999 0 0 0 
0.4992 0.31721 0.13979 0 0 0 
0.49919 0.31721 0.077214 0 0 0 
0.49914 0.30944 0.077214 0 0 0 
0.49916 0.30944 0.13979 0 0 0 
0.42744 0.53173 0.075134 0 0 0 
0.42744 0.53173 0.05365 0 0 0 
0.42737 0.51471 0.05365 0 0 0 
0.42737 0.51471 0.075134 0 0 0 
0.44717 0.62736 0.063273 0 0 0 
0.33222 0.62766 0.06295 0 0 0 
0.33222 0.63173 0.066739 0 0 0 
0.44717 0.63143 0.067062 0 0 0 
0.49108 0.47325 0.077879 0 0 0 
0.49108 0.47325 0.069556 0 0 0 
0.50343 0.47315 0.069556 0 0 0 
0.50343 0.47315 0.077879 0 0 0 
0.38424 0.37537 0.13509 0 0 0 
0.3688 0.37539 0.13511 0 0 0 
0.3688 0.37075 0.1401 0 0 0 
0.38424 0.37072 0.14008 0 0 0 
0.45152 0.41652 0.073964 0 0 0 
0.45149 0.41652 0.063244 0 0 0 
0.45103 0.42501 0.063244 0 0 0 
0.45106 0.42501 0.073964 0 0 0 
0.31113 0.43446 0.066408 0 0 0 
0.25793 0.43446 0.066364 0 0 0 
0.25793 0.45446 0.066815 0 0 0 
0.31113 0.45446 0.066859 0 0 0 
0.5773 0.51291 0.078754 0 0 0 
0.57729 0.51291 0.066889 0 0 0 
0.57724 0.49898 0.066889 0 0 0 
0.57724 0.49898 0.078754 0 0 0 
0.2458 0.61759 0.09992 0 0 0 
0.22531 0.61762 0.099952 0 0 0 
0.22531 0.62425 0.092835 0 0 0 
0.2458 0.62421 0.092804 0 0 0 
0.42713 0.36129 0.078021 0 0 0 
0.42711 0.36133 0.069738 0 0 0 
0.41824 0.35856 0.069738 0 0 0 
0.41825 0.35852 0.078021 0 0 0 
0.47451 0.46055 0.066731 0 0 0 
0.43762 0.46055 0.0667 0 0 0 
0.43762 0.44621 0.066377 0 0 0 
0.47451 0.44621 0.066408 0 0 0 
0.59043 0.37316 0.086184 0 0 0 
0.59043 0.37316 0.081863 0 0 0 
0.58964 0.31717 0.081863 0 0 0 
0.58963 0.31717 0.086184 0 0 0 
0.43752 0.44492 0.07802 0 0 0 
0.43752 0.44492 0.070115 0 0 0 
0.4473 0.44333 0.070115 0 0 0 
0.4473 0.44333 0.07802 0 0 0 
0.44112 0.52608 0.13594 0 0 0 
0.42393 0.52611 0.13597 0 0 0 
0.42393 0.52327 0.13901 0 0 0 
0.44112 0.52325 0.13899 0 0 0 
0.57988 0.39692 0.13651 0 0 0 
0.5799 0.39692 0.10018 0 0 0 
0.57976 0.38738 0.10018 0 0 0 
0.57974 0.38738 0.13651 0 0 0 
0.58719 0.43456 0.11189 0 0 0 
0.58734 0.4344 0.076976 0 0 0 
0.59143 0.43827 0.076976 0 0 0 
0.59128 0.43843 0.11189 0 0 0 
0.54758 0.31449 0.070969 0 0 0 
0.54758 0.31454 0.061715 0 0 0 
0.53637 0.31461 0.061715 0 0 0 
0.53637 0.31455 0.070969 0 0 0 
0.19441 0.60312 0.099931 0 0 0 
0.19569 0.60225 0.062605 0 0 0 
0.21077 0.6241 0.062605 0 0 0 
0.2095 0.62498 0.099931 0 0 0 
0.44184 0.45106 0.13669 0 0 0 
0.42489 0.45109 0.13671 0 0 0 
0.42489 0.44752 0.14055 0 0 0 
0.44184 0.44749 0.14052 0 0 0 
0.56344 0.40142 0.10009 0 0 0 
0.56346 0.40142 0.063075 0 0 0 
0.56321 0.38382 0.063075 0 0 0 
0.56319 0.38382 0.10009 0 0 0 
0.42953 0.30795 0.11205 0 0 0 
0.42953 0.30795 0.071671 0 0 0 
0.43431 0.30718 0.071671 0 0 0 
0.43431 0.30717 0.11205 0 0 0 
0.57949 0.31655 0.13999 0 0 0 
0.57952 0.31654 0.07102 0 0 0 
0.57942 0.30887 0.07102 0 0 0 
0.57938 0.30887 0.13999 0 0 0 
0.25731 0.47352 0.066542 0 0 0 
0.25731 0.46044 0.066541 0 0 0 
0.24227 0.46044 0.066533 0 0 0 
0.24227 0.47352 0.066534 0 0 0 
0.37172 0.53919 0.076486 0 0 0 
0.37171 0.53919 0.053073 0 0 0 
0.37161 0.52064 0.053073 0 0 0 
0.37161 0.52064 0.076486 0 0 0 
0.37154 0.40641 0.073799 0 0 0 
0.37155 0.40641 0.067586 0 0 0 
0.37135 0.39246 0.067586 0 0 0 
0.37134 0.39246 0.073799 0 0 0 
0.3519 0.46623 0.073757 0 0 0 
0.35224 0.466 0.063947 0 0 0 
0.34636 0.45749 0.063947 0 0 0 
0.34603 0.45772 0.073757 0 0 0 
0.56942 0.58697 0.085418 0 0 0 
0.56942 0.58697 0.058444 0 0 0 
0.58428 0.58685 0.058444 0 0 0 
0.58428 0.58685 0.085418 0 0 0 
0.40798 0.5575 0.078939 0 0 0 
0.40797 0.5575 0.057254 0 0 0 
0.40796 0.55354 0.057254 0 0 0 
0.40796 0.55354 0.078939 0 0 0 
0.57525 0.3062 0.085297 0 0 0 
0.57525 0.3062 0.082263 0 0 0 
0.51661 0.30647 0.082263 0 0 0 
0.51661 0.30647 0.085297 0 0 0 
0.35531 0.35815 0.13376 0 0 0 
0.3418 0.35818 0.13378 0 0 0 
0.3418 0.35452 0.1377 0 0 0 
0.35531 0.3545 0.13768 0 0 0 
0.49708 0.30437 0.11326 0 0 0 
0.49707 0.30437 0.074966 0 0 0 
0.49701 0.29439 0.074966 0 0 0 
0.49702 0.29439 0.11326 0 0 0 
0.44526 0.38047 0.077919 0 0 0 
0.44526 0.38047 0.069517 0 0 0 
0.43391 0.38232 0.069517 0 0 0 
0.43391 0.38232 0.077919 0 0 0 
0.32786 0.43254 0.13646 0 0 0 
0.31422 0.43257 0.13642 0 0 0 
0.31422 0.43704 0.14058 0 0 0 
0.32786 0.437 0.14061 0 0 0 
0.57809 0.40086 0.084084 0 0 0 
0.57809 0.40086 0.054021 0 0 0 
0.56328 0.40098 0.054021 0 0 0 
0.56328 0.40098 0.084084 0 0 0 
0.47051 0.43067 0.073556 0 0 0 
0.47051 0.43067 0.063745 0 0 0 
0.47046 0.41766 0.063745 0 0 0 
0.47046 0.41766 0.073556 0 0 0 
0.57488 0.30526 0.13991 0 0 0 
0.57517 0.30495 0.071229 0 0 0 
0.57944 0.30899 0.071229 0 0 0 
0.57915 0.3093 0.13991 0 0 0 
0.591 0.32062 0.13915 0 0 0 
0.59128 0.32033 0.075319 0 0 0 
0.5872 0.31647 0.075319 0 0 0 
0.58692 0.31676 0.13915 0 0 0 
0.30957 0.42543 0.074444 0 0 0 
0.30987 0.42523 0.065651 0 0 0 
0.31765 0.43648 0.065651 0 0 0 
0.31734 0.43669 0.074444 0 0 0 
0.34531 0.47664 0.066467 0 0 0 
0.34531 0.45505 0.066466 0 0 0 
0.31065 0.45505 0.066448 0 0 0 
0.31065 0.47664 0.066449 0 0 0 
0.4873 0.38193 0.078242 0 0 0 
0.48729 0.38197 0.070188 0 0 0 
0.49703 0.38502 0.070188 0 0 0 
0.49704 0.38497 0.078242 0 0 0 
0.46901 0.48796 0.066459 0 0 0 
0.46901 0.47556 0.066459 0 0 0 
0.48125 0.47556 0.066465 0 0 0 
0.48125 0.48796 0.066465 0 0 0 
0.25018 0.49376 0.078146 0 0 0 
0.25018 0.49376 0.064299 0 0 0 
0.26349 0.48563 0.064299 0 0 0 
0.26349 0.48563 0.078146 0 0 0 
0.58133 0.46917 0.13773 0 0 0 
0.58132 0.46917 0.070771 0 0 0 
0.58688 0.46578 0.070771 0 0 0 
0.58688 0.46578 0.13773 0 0 0 
0.33849 0.53392 0.073043 0 0 0 
0.33845 0.53392 0.053067 0 0 0 
0.33905 0.52287 0.053067 0 0 0 
0.3391 0.52287 0.073043 0 0 0 
0.43306 0.32472 0.078166 0 0 0 
0.43306 0.32472 0.069877 0 0 0 
0.44894 0.32465 0.069877 0 0 0 
0.44894 0.32465 0.078166 0 0 0 
0.45855 0.44198 0.078065 0 0 0 
0.45855 0.44212 0.054164 0 0 0 
0.47522 0.44202 0.054164 0 0 0 
0.47522 0.44189 0.078065 0 0 0 
0.50158 0.45576 0.066591 0 0 0 
0.50158 0.44457 0.066591 0 0 0 
0.51906 0.44457 0.0666 0 0 0 
0.51906 0.45576 0.0666 0 0 0 
0.37983 0.3341 0.066752 0 0 0 
0.3627 0.3341 0.066738 0 0 0 
0.3627 0.31532 0.066315 0 0 0 
0.37983 0.31532 0.066329 0 0 0 
0.38276 0.44305 0.066255 0 0 0 
0.35338 0.44305 0.066231 0 0 0 
0.35338 0.46145 0.066645 0 0 0 
0.38276 0.46145 0.06667 0 0 0 
0.46439 0.52756 0.073457 0 0 0 
0.46434 0.52756 0.053028 0 0 0 
0.46494 0.5165 0.053028 0 0 0 
0.46499 0.5165 0.073457 0 0 0 
0.38698 0.38973 0.078127 0 0 0 
0.38698 0.38973 0.069912 0 0 0 
0.37802 0.39119 0.069912 0 0 0 
0.37802 0.39119 0.078127 0 0 0 
0.38848 0.37127 0.066493 0 0 0 
0.38848 0.35791 0.066493 0 0 0 
0.40297 0.35791 0.0665 0 0 0 
0.40297 0.37127 0.066501 0 0 0 
0.5614 0.44448 0.078049 0 0 0 
0.56143 0.44444 0.070466 0 0 0 
0.56876 0.45139 0.070466 0 0 0 
0.56873 0.45143 0.078049 0 0 0 
0.37763 0.40574 0.06649 0 0 0 
0.37763 0.39262 0.066489 0 0 0 
0.39226 0.39262 0.066497 0 0 0 
0.39226 0.40574 0.066497 0 0 0 
0.36043 0.35977 0.07799 0 0 0 
0.36042 0.35981 0.070135 0 0 0 
0.34991 0.35653 0.070135 0 0 0 
0.34993 0.35649 0.07799 0 0 0 
0.36901 0.35867 0.077931 0 0 0 
0.36901 0.35872 0.069766 0 0 0 
0.37944 0.35866 0.069766 0 0 0 
0.37944 0.35861 0.077931 0 0 0 
0.37201 0.3178 0.078344 0 0 0 
0.37199 0.31784 0.070061 0 0 0 
0.38128 0.32075 0.070061 0 0 0 
0.38129 0.3207 0.078344 0 0 0 
0.56579 0.46651 0.073838 0 0 0 
0.56579 0.46651 0.063841 0 0 0 
0.56573 0.45126 0.063841 0 0 0 
0.56574 0.45126 0.073838 0 0 0 
0.42637 0.37525 0.06651 0 0 0 
0.42637 0.36178 0.066509 0 0 0 
0.412 0.36178 0.066502 0 0 0 
0.412 0.37525 0.066503 0 0 0 
0.19258 0.58383 0.088707 0 0 0 
0.19263 0.58377 0.076452 0 0 0 
0.20583 0.59628 0.076452 0 0 0 
0.20578 0.59634 0.088707 0 0 0 
0.49188 0.43029 0.074076 0 0 0 
0.49188 0.43029 0.061029 0 0 0 
0.49165 0.41405 0.061029 0 0 0 
0.49165 0.41405 0.074076 0 0 0 
0.35097 0.44921 0.077845 0 0 0 
0.35097 0.44921 0.07003 0 0 0 
0.35806 0.44488 0.07003 0 0 0 
0.35806 0.44488 0.077845 0 0 0 
0.26908 0.43531 0.078254 0 0 0 
0.26908 0.43531 0.071272 0 0 0 
0.25663 0.44291 0.071272 0 0 0 
0.25663 0.44291 0.078254 0 0 0 
0.46014 0.53028 0.056688 0 0 0 
0.46014 0.53028 0.052993 0 0 0 
0.46009 0.51593 0.052993 0 0 0 
0.46009 0.51593 0.056688 0 0 0 
0.19353 0.30699 0.099673 0 0 0 
0.19353 0.30698 0.076427 0 0 0 
0.18803 0.31035 0.076427 0 0 0 
0.18803 0.31035 0.099673 0 0 0 
0.44093 0.43704 0.14033 0 0 0 
0.42419 0.43708 0.14029 0 0 0 
0.42419 0.43253 0.13605 0 0 0 
0.44093 0.43249 0.1361 0 0 0 
0.57246 0.34126 0.078283 0 0 0 
0.57249 0.34122 0.070154 0 0 0 
0.56447 0.33362 0.070154 0 0 0 
0.56444 0.33366 0.078283 0 0 0 
0.49569 0.45844 0.06673 0 0 0 
0.48012 0.45844 0.066717 0 0 0 
0.48012 0.44462 0.066405 0 0 0 
0.49569 0.44462 0.066418 0 0 0 
0.41879 0.31833 0.14037 0 0 0 
0.41878 0.31833 0.077047 0 0 0 
0.41874 0.30848 0.077047 0 0 0 
0.41876 0.30848 0.14037 0 0 0 
0.58843 0.31648 0.13791 0 0 0 
0.58843 0.31648 0.071164 0 0 0 
0.57959 0.31655 0.071164 0 0 0 
0.57959 0.31655 0.13791 0 0 0 
0.50818 0.35643 0.078157 0 0 0 
0.50817 0.35647 0.069917 0 0 0 
0.51689 0.35919 0.069917 0 0 0 
0.5169 0.35915 0.078157 0 0 0 
0.30595 0.35627 0.078189 0 0 0 
0.30595 0.35628 0.07046 0 0 0 
0.29734 0.35635 0.07046 0 0 0 
0.29734 0.35634 0.078189 0 0 0 
0.57182 0.51698 0.066867 0 0 0 
0.56154 0.51698 0.066858 0 0 0 
0.56154 0.52945 0.067139 0 0 0 
0.57182 0.52945 0.067148 0 0 0 
0.44594 0.62704 0.060606 0 0 0 
0.33923 0.62722 0.06077 0 0 0 
0.33923 0.63 0.057786 0 0 0 
0.44594 0.62982 0.057622 0 0 0 
0.30167 0.42357 0.078032 0 0 0 
0.30167 0.42357 0.070228 0 0 0 
0.29398 0.42827 0.070228 0 0 0 
0.29398 0.42827 0.078032 0 0 0 
0.42292 0.55572 0.086759 0 0 0 
0.42381 0.5551 0.0607 0 0 0 
0.42217 0.55272 0.0607 0 0 0 
0.42128 0.55333 0.086759 0 0 0 
0.59025 0.40366 0.11509 0 0 0 
0.59025 0.40366 0.066389 0 0 0 
0.58763 0.40409 0.066389 0 0 0 
0.58763 0.40409 0.11509 0 0 0 
0.32251 0.43312 0.066443 0 0 0 
0.32251 0.42369 0.066443 0 0 0 
0.33623 0.42369 0.06645 0 0 0 
0.33623 0.43312 0.06645 0 0 0 
0.44296 0.32672 0.066484 0 0 0 
0.43304 0.32672 0.066475 0 0 0 
0.43304 0.33924 0.066757 0 0 0 
0.44296 0.33924 0.066766 0 0 0 
0.38495 0.43299 0.13671 0 0 0 
0.36846 0.43304 0.13666 0 0 0 
0.36846 0.43679 0.14015 0 0 0 
0.38495 0.43675 0.1402 0 0 0 
0.45323 0.46342 0.074127 0 0 0 
0.4532 0.46342 0.064576 0 0 0 
0.45408 0.44739 0.064576 0 0 0 
0.4541 0.44739 0.074127 0 0 0 
0.46007 0.4878 0.066634 0 0 0 
0.44604 0.4878 0.066622 0 0 0 
0.44604 0.47516 0.066337 0 0 0 
0.46007 0.47516 0.066349 0 0 0 
0.3136 0.40368 0.066607 0 0 0 
0.3136 0.3961 0.066607 0 0 0 
0.32567 0.3961 0.066613 0 0 0 
0.32567 0.40368 0.066614 0 0 0 
0.4963 0.43648 0.14036 0 0 0 
0.48019 0.43652 0.14031 0 0 0 
0.48019 0.43211 0.1362 0 0 0 
0.4963 0.43206 0.13625 0 0 0 
0.46428 0.31582 0.071501 0 0 0 
0.46428 0.30574 0.071501 0 0 0 
0.45249 0.30574 0.071495 0 0 0 
0.45249 0.31582 0.071495 0 0 0 
0.42796 0.48388 0.12377 0 0 0 
0.41744 0.48388 0.12376 0 0 0 
0.41744 0.49325 0.12397 0 0 0 
0.42796 0.49325 0.12398 0 0 0 
0.33275 0.32137 0.078261 0 0 0 
0.33275 0.32135 0.070208 0 0 0 
0.34737 0.32114 0.070208 0 0 0 
0.34737 0.32117 0.078261 0 0 0 
0.58146 0.3256 0.071088 0 0 0 
0.58147 0.3256 0.053947 0 0 0 
0.58175 0.34524 0.053947 0 0 0 
0.58174 0.34524 0.071088 0 0 0 
0.24928 0.60805 0.078219 0 0 0 
0.24928 0.60805 0.073447 0 0 0 
0.21699 0.60832 0.073447 0 0 0 
0.21699 0.60832 0.078219 0 0 0 
0.21366 0.54263 0.078154 0 0 0 
0.21366 0.54263 0.067006 0 0 0 
0.21358 0.5301 0.067006 0 0 0 
0.21359 0.5301 0.078154 0 0 0 
0.33389 0.3873 0.078139 0 0 0 
0.33389 0.3873 0.066165 0 0 0 
0.34967 0.38722 0.066165 0 0 0 
0.34967 0.38722 0.078139 0 0 0 
0.26805 0.31757 0.13854 0 0 0 
0.26808 0.31757 0.070972 0 0 0 
0.26798 0.31 0.070972 0 0 0 
0.26794 0.31 0.13854 0 0 0 
0.35409 0.3612 0.13656 0 0 0 
0.34267 0.36123 0.13653 0 0 0 
0.34267 0.35886 0.13432 0 0 0 
0.35409 0.35883 0.13435 0 0 0 
0.44624 0.47759 0.070339 0 0 0 
0.4462 0.47759 0.054362 0 0 0 
0.44565 0.48771 0.054362 0 0 0 
0.44568 0.48771 0.070339 0 0 0 
0.5592 0.43214 0.074128 0 0 0 
0.55919 0.43214 0.05568 0 0 0 
0.55911 0.4172 0.05568 0 0 0 
0.55911 0.4172 0.074128 0 0 0 
0.38567 0.45173 0.13598 0 0 0 
0.36846 0.45176 0.136 0 0 0 
0.36846 0.44748 0.14061 0 0 0 
0.38567 0.44745 0.14058 0 0 0 
0.58118 0.58689 0.07914 0 0 0 
0.58118 0.58689 0.060361 0 0 0 
0.58116 0.5832 0.060361 0 0 0 
0.58116 0.5832 0.07914 0 0 0 
0.37818 0.43621 0.066387 0 0 0 
0.37818 0.42079 0.066387 0 0 0 
0.34262 0.42079 0.066368 0 0 0 
0.34262 0.43621 0.066369 0 0 0 
0.55286 0.36115 0.13887 0 0 0 
0.53775 0.36119 0.13883 0 0 0 
0.53775 0.35818 0.13603 0 0 0 
0.55286 0.35814 0.13607 0 0 0 
0.42262 0.56562 0.081506 0 0 0 
0.40883 0.56562 0.081494 0 0 0 
0.40883 0.54595 0.081051 0 0 0 
0.42262 0.54595 0.081063 0 0 0 
0.38572 0.52317 0.13902 0 0 0 
0.36825 0.5232 0.13905 0 0 0 
0.36825 0.52604 0.136 0 0 0 
0.38572 0.52601 0.13597 0 0 0 
0.40297 0.35585 0.078149 0 0 0 
0.40297 0.3559 0.069835 0 0 0 
0.38816 0.35599 0.069835 0 0 0 
0.38816 0.35594 0.078149 0 0 0 
0.49123 0.4274 0.066716 0 0 0 
0.47485 0.4274 0.066702 0 0 0 
0.47485 0.41432 0.066407 0 0 0 
0.49123 0.41432 0.066421 0 0 0 
0.2844 0.35774 0.0781 0 0 0 
0.2844 0.35774 0.070566 0 0 0 
0.27418 0.35941 0.070566 0 0 0 
0.27418 0.35941 0.0781 0 0 0 
0.2886 0.47292 0.077889 0 0 0 
0.2886 0.47292 0.069937 0 0 0 
0.29796 0.4672 0.069937 0 0 0 
0.29796 0.4672 0.077889 0 0 0 
0.49754 0.52723 0.07288 0 0 0 
0.49754 0.52723 0.053067 0 0 0 
0.49751 0.51972 0.053067 0 0 0 
0.49751 0.51972 0.07288 0 0 0 
0.51494 0.31672 0.13774 0 0 0 
0.51494 0.31672 0.063952 0 0 0 
0.49927 0.3168 0.063952 0 0 0 
0.49927 0.31679 0.13774 0 0 0 
0.38447 0.43171 0.073756 0 0 0 
0.38512 0.43126 0.054746 0 0 0 
0.37584 0.41782 0.054746 0 0 0 
0.37519 0.41827 0.073756 0 0 0 
0.40664 0.31964 0.077932 0 0 0 
0.40664 0.31964 0.070163 0 0 0 
0.41721 0.31792 0.070163 0 0 0 
0.41721 0.31792 0.077932 0 0 0 
0.22552 0.62431 0.09964 0 0 0 
0.22551 0.62431 0.077812 0 0 0 
0.22543 0.60939 0.077812 0 0 0 
0.22543 0.60939 0.09964 0 0 0 
0.42279 0.5653 0.056338 0 0 0 
0.40715 0.5653 0.056325 0 0 0 
0.40715 0.54722 0.055918 0 0 0 
0.42279 0.54722 0.055931 0 0 0 
0.44342 0.35632 0.078079 0 0 0 
0.44342 0.35632 0.069415 0 0 0 
0.43256 0.35809 0.069415 0 0 0 
0.43256 0.35809 0.078079 0 0 0 
0.52036 0.45902 0.074146 0 0 0 
0.52036 0.45902 0.064683 0 0 0 
0.52015 0.44403 0.064683 0 0 0 
0.52015 0.44403 0.074146 0 0 0 
0.60117 0.31836 0.14092 0 0 0 
0.60117 0.31818 0.085203 0 0 0 
0.59472 0.31828 0.085203 0 0 0 
0.59472 0.31845 0.14092 0 0 0 
0.58836 0.46144 0.11742 0 0 0 
0.58836 0.46144 0.11393 0 0 0 
0.5882 0.43392 0.11393 0 0 0 
0.5882 0.43392 0.11742 0 0 0 
0.51966 0.39905 0.066534 0 0 0 
0.51966 0.38791 0.066534 0 0 0 
0.50666 0.38791 0.066527 0 0 0 
0.50666 0.39905 0.066528 0 0 0 
0.57669 0.48459 0.066505 0 0 0 
0.56103 0.48459 0.066492 0 0 0 
0.56103 0.47743 0.066331 0 0 0 
0.57669 0.47743 0.066344 0 0 0 
0.33685 0.42417 0.074071 0 0 0 
0.33682 0.42417 0.063844 0 0 0 
0.33624 0.43483 0.063844 0 0 0 
0.33627 0.43483 0.074071 0 0 0 
0.28057 0.39307 0.078209 0 0 0 
0.28057 0.39307 0.069878 0 0 0 
0.26813 0.40067 0.069878 0 0 0 
0.26813 0.40067 0.078209 0 0 0 
0.57837 0.62817 0.1359 0 0 0 
0.57837 0.62817 0.084389 0 0 0 
0.58453 0.62717 0.084389 0 0 0 
0.58453 0.62717 0.1359 0 0 0 
0.3923 0.45512 0.070304 0 0 0 
0.3777 0.45512 0.070291 0 0 0 
0.3777 0.44058 0.069964 0 0 0 
0.3923 0.44058 0.069976 0 0 0 
0.37209 0.4564 0.072346 0 0 0 
0.36317 0.45642 0.072321 0 0 0 
0.36317 0.4446 0.061316 0 0 0 
0.37209 0.44457 0.061341 0 0 0 
0.24679 0.3084 0.083427 0 0 0 
0.24679 0.30695 0.083427 0 0 0 
0.19544 0.30695 0.083401 0 0 0 
0.19544 0.3084 0.083401 0 0 0 
0.386 0.44034 0.078027 0 0 0 
0.37686 0.44039 0.078026 0 0 0 
0.37686 0.44026 0.070824 0 0 0 
0.386 0.44021 0.070825 0 0 0 
0.27542 0.49295 0.072602 0 0 0 
0.26221 0.49299 0.072565 0 0 0 
0.26221 0.48651 0.066541 0 0 0 
0.27542 0.48648 0.066578 0 0 0 
0.46036 0.52706 0.073602 0 0 0 
0.46036 0.52706 0.054418 0 0 0 
0.46034 0.52138 0.054418 0 0 0 
0.46034 0.52138 0.073602 0 0 0 
0.39466 0.39268 0.077987 0 0 0 
0.39464 0.39272 0.069792 0 0 0 
0.38482 0.38965 0.069792 0 0 0 
0.38483 0.38961 0.077987 0 0 0 
0.44782 0.39727 0.066499 0 0 0 
0.44782 0.38369 0.066499 0 0 0 
0.43397 0.38369 0.066492 0 0 0 
0.43397 0.39727 0.066492 0 0 0 
0.38492 0.50784 0.13569 0 0 0 
0.36835 0.50789 0.13564 0 0 0 
0.36835 0.51308 0.14047 0 0 0 
0.38492 0.51303 0.14052 0 0 0 
0.53491 0.42612 0.07389 0 0 0 
0.53492 0.42612 0.067062 0 0 0 
0.53477 0.41617 0.067062 0 0 0 
0.53477 0.41617 0.07389 0 0 0 
0.33044 0.36027 0.078088 0 0 0 
0.33044 0.36027 0.069906 0 0 0 
0.32164 0.3617 0.069906 0 0 0 
0.32164 0.3617 0.078088 0 0 0 
0.57691 0.52729 0.13003 0 0 0 
0.57691 0.52729 0.12292 0 0 0 
0.56763 0.53296 0.12292 0 0 0 
0.56763 0.53296 0.13003 0 0 0 
0.47247 0.32226 0.078218 0 0 0 
0.47247 0.32231 0.07009 0 0 0 
0.45752 0.3224 0.07009 0 0 0 
0.45752 0.32235 0.078218 0 0 0 
0.32 0.53745 0.066496 0 0 0 
0.30773 0.53745 0.066486 0 0 0 
0.30773 0.54917 0.06675 0 0 0 
0.32 0.54917 0.06676 0 0 0 
0.46161 0.37152 0.06657 0 0 0 
0.46161 0.35853 0.06657 0 0 0 
0.47021 0.35853 0.066574 0 0 0 
0.47021 0.37152 0.066574 0 0 0 
0.41244 0.33381 0.066651 0 0 0 
0.41244 0.32175 0.06665 0 0 0 
0.40668 0.32175 0.066647 0 0 0 
0.40668 0.33381 0.066648 0 0 0 
0.44172 0.35837 0.13628 0 0 0 
0.42461 0.35842 0.13623 0 0 0 
0.42461 0.36135 0.13896 0 0 0 
0.44172 0.3613 0.13901 0 0 0 
0.30799 0.46477 0.078043 0 0 0 
0.30799 0.46477 0.070335 0 0 0 
0.31761 0.45889 0.070335 0 0 0 
0.31762 0.45889 0.078043 0 0 0 
0.46182 0.41142 0.078006 0 0 0 
0.4618 0.41146 0.069785 0 0 0 
0.46966 0.41392 0.069785 0 0 0 
0.46967 0.41388 0.078006 0 0 0 
0.42401 0.37712 0.13867 0 0 0 
0.42401 0.37003 0.13867 0 0 0 
0.44193 0.37003 0.13868 0 0 0 
0.44193 0.37712 0.13868 0 0 0 
0.34797 0.33567 0.066843 0 0 0 
0.33622 0.33567 0.066833 0 0 0 
0.33622 0.32322 0.066552 0 0 0 
0.34797 0.32322 0.066562 0 0 0 
0.36653 0.4539 0.073352 0 0 0 
0.36653 0.44535 0.073352 0 0 0 
0.37202 0.44535 0.073355 0 0 0 
0.37202 0.4539 0.073355 0 0 0 
0.57536 0.51706 0.078161 0 0 0 
0.57533 0.51706 0.06369 0 0 0 
0.57457 0.53099 0.06369 0 0 0 
0.57461 0.53099 0.078161 0 0 0 
0.35102 0.35779 0.078021 0 0 0 
0.35102 0.35779 0.069785 0 0 0 
0.34378 0.35782 0.069785 0 0 0 
0.34378 0.35782 0.078021 0 0 0 
0.38845 0.36309 0.07464 0 0 0 
0.38845 0.36309 0.068014 0 0 0 
0.38841 0.35721 0.068014 0 0 0 
0.38842 0.35721 0.07464 0 0 0 
0.43873 0.40457 0.077978 0 0 0 
0.43871 0.40461 0.069794 0 0 0 
0.45046 0.40829 0.069794 0 0 0 
0.45047 0.40824 0.077978 0 0 0 
0.45409 0.47269 0.078 0 0 0 
0.45409 0.47269 0.069298 0 0 0 
0.44499 0.47418 0.069298 0 0 0 
0.44499 0.47418 0.078 0 0 0 
0.55616 0.42915 0.066585 0 0 0 
0.54119 0.42915 0.066573 0 0 0 
0.54119 0.41607 0.066278 0 0 0 
0.55616 0.41607 0.066291 0 0 0 
0.53896 0.326 0.07829 0 0 0 
0.53895 0.32603 0.072836 0 0 0 
0.5469 0.32851 0.072836 0 0 0 
0.54691 0.32849 0.07829 0 0 0 
0.25283 0.41213 0.078095 0 0 0 
0.25283 0.41213 0.06992 0 0 0 
0.24095 0.41939 0.06992 0 0 0 
0.24095 0.41939 0.078095 0 0 0 
0.2715 0.40876 0.06658 0 0 0 
0.2715 0.4001 0.06658 0 0 0 
0.28702 0.4001 0.066588 0 0 0 
0.28702 0.40876 0.066588 0 0 0 
0.54138 0.43558 0.13993 0 0 0 
0.54138 0.43558 0.13851 0 0 0 
0.55208 0.43542 0.13851 0 0 0 
0.55208 0.43543 0.13993 0 0 0 
0.56024 0.36087 0.078147 0 0 0 
0.56028 0.36083 0.070261 0 0 0 
0.56839 0.36852 0.070261 0 0 0 
0.56836 0.36856 0.078147 0 0 0 
0.44175 0.51356 0.14037 0 0 0 
0.43587 0.51358 0.14035 0 0 0 
0.43587 0.50837 0.1355 0 0 0 
0.44175 0.50835 0.13552 0 0 0 
0.46902 0.47882 0.066786 0 0 0 
0.46899 0.47882 0.05448 0 0 0 
0.46931 0.47295 0.05448 0 0 0 
0.46934 0.47295 0.066786 0 0 0 
0.4273 0.37416 0.073813 0 0 0 
0.42729 0.37417 0.055246 0 0 0 
0.42723 0.36237 0.055246 0 0 0 
0.42723 0.36237 0.073813 0 0 0 
0.47551 0.47343 0.078024 0 0 0 
0.47551 0.47348 0.069649 0 0 0 
0.46806 0.47352 0.069649 0 0 0 
0.46806 0.47347 0.078024 0 0 0 
0.42233 0.56177 0.070475 0 0 0 
0.40786 0.56177 0.070463 0 0 0 
0.40786 0.54826 0.070158 0 0 0 
0.42233 0.54826 0.07017 0 0 0 
0.23348 0.42713 0.078162 0 0 0 
0.23348 0.42712 0.071096 0 0 0 
0.22391 0.43297 0.071096 0 0 0 
0.22391 0.43297 0.078162 0 0 0 
0.52401 0.31478 0.071553 0 0 0 
0.52401 0.30608 0.071553 0 0 0 
0.514 0.30608 0.071548 0 0 0 
0.514 0.31478 0.071548 0 0 0 
0.58186 0.37626 0.063715 0 0 0 
0.58186 0.37626 0.053233 0 0 0 
0.58176 0.35099 0.053233 0 0 0 
0.58176 0.35099 0.063715 0 0 0 
0.36313 0.38968 0.077993 0 0 0 
0.36313 0.38968 0.069871 0 0 0 
0.35444 0.3911 0.069871 0 0 0 
0.35444 0.3911 0.077993 0 0 0 
0.5271 0.48636 0.07418 0 0 0 
0.5271 0.48636 0.070163 0 0 0 
0.52706 0.47781 0.070163 0 0 0 
0.52707 0.47781 0.07418 0 0 0 
0.49583 0.46113 0.074555 0 0 0 
0.49583 0.46112 0.066637 0 0 0 
0.49561 0.4451 0.066637 0 0 0 
0.4956 0.4451 0.074555 0 0 0 
0.54407 0.40455 0.074206 0 0 0 
0.54408 0.40455 0.066853 0 0 0 
0.54388 0.39082 0.066853 0 0 0 
0.54388 0.39082 0.074206 0 0 0 
0.53359 0.42919 0.066619 0 0 0 
0.53359 0.41611 0.066618 0 0 0 
0.51974 0.41611 0.066611 0 0 0 
0.51974 0.42919 0.066612 0 0 0 
0.56573 0.39834 0.087785 0 0 0 
0.56573 0.38646 0.087785 0 0 0 
0.5674 0.38646 0.087786 0 0 0 
0.5674 0.39834 0.087786 0 0 0 
0.54161 0.31456 0.058927 0 0 0 
0.54161 0.31456 0.05333 0 0 0 
0.56053 0.31447 0.05333 0 0 0 
0.56053 0.31447 0.058927 0 0 0 
0.44685 0.47331 0.064224 0 0 0 
0.44717 0.47308 0.054591 0 0 0 
0.44988 0.47699 0.054591 0 0 0 
0.44955 0.47722 0.064224 0 0 0 
0.20447 0.5324 0.12347 0 0 0 
0.19548 0.53241 0.12349 0 0 0 
0.19548 0.52721 0.12908 0 0 0 
0.20447 0.52719 0.12906 0 0 0 
0.52805 0.48379 0.066722 0 0 0 
0.50894 0.48379 0.066706 0 0 0 
0.50894 0.47281 0.066458 0 0 0 
0.52805 0.47281 0.066474 0 0 0 
0.4282 0.48384 0.12375 0 0 0 
0.41849 0.48386 0.12372 0 0 0 
0.41849 0.49005 0.12948 0 0 0 
0.4282 0.49003 0.12951 0 0 0 
0.59007 0.39928 0.13885 0 0 0 
0.58996 0.39963 0.069925 0 0 0 
0.58015 0.39656 0.069925 0 0 0 
0.58026 0.39621 0.13885 0 0 0 
0.523 0.40361 0.07424 0 0 0 
0.52301 0.40361 0.066305 0 0 0 
0.5228 0.38886 0.066305 0 0 0 
0.52279 0.38886 0.07424 0 0 0 
0.28133 0.43154 0.077927 0 0 0 
0.28133 0.43154 0.069817 0 0 0 
0.28887 0.43031 0.069817 0 0 0 
0.28887 0.43031 0.077927 0 0 0 
0.4648 0.38012 0.07803 0 0 0 
0.4648 0.38012 0.0699 0 0 0 
0.45787 0.38125 0.0699 0 0 0 
0.45787 0.38125 0.07803 0 0 0 
0.24273 0.38449 0.078454 0 0 0 
0.24273 0.38449 0.074693 0 0 0 
0.25357 0.3844 0.074693 0 0 0 
0.25357 0.3844 0.078454 0 0 0 
0.33662 0.3621 0.078075 0 0 0 
0.3366 0.36214 0.070005 0 0 0 
0.32935 0.35987 0.070005 0 0 0 
0.32936 0.35983 0.078075 0 0 0 
0.59152 0.46058 0.11316 0 0 0 
0.58757 0.46058 0.11316 0 0 0 
0.58757 0.43481 0.11258 0 0 0 
0.59152 0.43481 0.11258 0 0 0 
0.3379 0.44207 0.07473 0 0 0 
0.33791 0.44207 0.062818 0 0 0 
0.33779 0.4338 0.062818 0 0 0 
0.33779 0.4338 0.07473 0 0 0 
0.49492 0.374 0.074022 0 0 0 
0.49493 0.374 0.061337 0 0 0 
0.49472 0.35896 0.061337 0 0 0 
0.49471 0.35896 0.074022 0 0 0 
0.50703 0.41344 0.078088 0 0 0 
0.50703 0.41348 0.071655 0 0 0 
0.49805 0.41353 0.071655 0 0 0 
0.49805 0.41349 0.078088 0 0 0 
0.32819 0.45138 0.13624 0 0 0 
0.3129 0.45141 0.13626 0 0 0 
0.3129 0.44737 0.1406 0 0 0 
0.32819 0.44734 0.14058 0 0 0 
0.5136 0.41575 0.078036 0 0 0 
0.51359 0.41579 0.070538 0 0 0 
0.50609 0.41344 0.070538 0 0 0 
0.5061 0.4134 0.078036 0 0 0 
0.46896 0.35718 0.078081 0 0 0 
0.46895 0.35722 0.070496 0 0 0 
0.46141 0.35486 0.070496 0 0 0 
0.46143 0.35482 0.078081 0 0 0 
0.43515 0.40606 0.077984 0 0 0 
0.43515 0.40604 0.070675 0 0 0 
0.44382 0.40592 0.070675 0 0 0 
0.44382 0.40594 0.077984 0 0 0 
0.46187 0.35542 0.078134 0 0 0 
0.46187 0.35542 0.071221 0 0 0 
0.45444 0.35663 0.071221 0 0 0 
0.45444 0.35663 0.078134 0 0 0 
0.32831 0.38953 0.078098 0 0 0 
0.3283 0.38957 0.070357 0 0 0 
0.32176 0.38752 0.070357 0 0 0 
0.32177 0.38748 0.078098 0 0 0 
0.44353 0.37272 0.066546 0 0 0 
0.44353 0.35908 0.066545 0 0 0 
0.43452 0.35908 0.066541 0 0 0 
0.43452 0.37272 0.066541 0 0 0 
0.34807 0.42041 0.077878 0 0 0 
0.34807 0.42041 0.069582 0 0 0 
0.35799 0.42033 0.069582 0 0 0 
0.35799 0.42033 0.077878 0 0 0 
0.49793 0.3611 0.13898 0 0 0 
0.4805 0.36115 0.13893 0 0 0 
0.4805 0.35817 0.13615 0 0 0 
0.49793 0.35812 0.1362 0 0 0 
0.26849 0.32198 0.078047 0 0 0 
0.26849 0.32196 0.070968 0 0 0 
0.27672 0.32184 0.070968 0 0 0 
0.27672 0.32186 0.078047 0 0 0 
0.57809 0.48428 0.077568 0 0 0 
0.57809 0.48428 0.069968 0 0 0 
0.57806 0.47829 0.069968 0 0 0 
0.57806 0.47829 0.077568 0 0 0 
0.34494 0.37267 0.066441 0 0 0 
0.34494 0.35976 0.066441 0 0 0 
0.35781 0.35976 0.066447 0 0 0 
0.35781 0.37267 0.066448 0 0 0 
0.54319 0.39625 0.066493 0 0 0 
0.53026 0.39625 0.066482 0 0 0 
0.53026 0.40301 0.066634 0 0 0 
0.54319 0.40301 0.066645 0 0 0 
0.49769 0.39507 0.073983 0 0 0 
0.4977 0.39507 0.067037 0 0 0 
0.49756 0.38514 0.067037 0 0 0 
0.49755 0.38514 0.073983 0 0 0 
0.27336 0.52562 0.13603 0 0 0 
0.2572 0.52564 0.13606 0 0 0 
0.2572 0.52294 0.13896 0 0 0 
0.27336 0.52291 0.13893 0 0 0 
0.47284 0.38997 0.066415 0 0 0 
0.46455 0.38997 0.066408 0 0 0 
0.46455 0.39626 0.066549 0 0 0 
0.47284 0.39626 0.066556 0 0 0 
0.30158 0.53784 0.07342 0 0 0 
0.30157 0.53784 0.053124 0 0 0 
0.30151 0.52244 0.053124 0 0 0 
0.30152 0.52244 0.07342 0 0 0 
0.43431 0.41691 0.073833 0 0 0 
0.43431 0.41691 0.061345 0 0 0 
0.43427 0.40736 0.061345 0 0 0 
0.43427 0.40736 0.073833 0 0 0 
0.23351 0.62466 0.092594 0 0 0 
0.23351 0.62472 0.080401 0 0 0 
0.22544 0.62477 0.080401 0 0 0 
0.22544 0.6247 0.092594 0 0 0 
0.48468 0.44614 0.13996 0 0 0 
0.48468 0.44614 0.13756 0 0 0 
0.49514 0.44609 0.13756 0 0 0 
0.49514 0.44609 0.13996 0 0 0 
0.4837 0.41158 0.078112 0 0 0 
0.4837 0.41158 0.070898 0 0 0 
0.47573 0.41288 0.070898 0 0 0 
0.47573 0.41288 0.078112 0 0 0 
0.42199 0.54656 0.056262 0 0 0 
0.42199 0.54656 0.053753 0 0 0 
0.40628 0.54912 0.053753 0 0 0 
0.40628 0.54912 0.056262 0 0 0 
0.28711 0.32413 0.078085 0 0 0 
0.28711 0.32413 0.070855 0 0 0 
0.29234 0.32093 0.070855 0 0 0 
0.29234 0.32093 0.078085 0 0 0 
0.47478 0.41482 0.073424 0 0 0 
0.46998 0.41482 0.07342 0 0 0 
0.46998 0.42698 0.073694 0 0 0 
0.47478 0.42698 0.073698 0 0 0 
0.57853 0.61594 0.087352 0 0 0 
0.56966 0.61594 0.087344 0 0 0 
0.56966 0.60487 0.087095 0 0 0 
0.57853 0.60487 0.087102 0 0 0 
0.43761 0.30673 0.071505 0 0 0 
0.42926 0.30673 0.071498 0 0 0 
0.42926 0.31304 0.07164 0 0 0 
0.43761 0.31304 0.071647 0 0 0 
0.25997 0.36119 0.078145 0 0 0 
0.25997 0.36119 0.069823 0 0 0 
0.24908 0.36296 0.069823 0 0 0 
0.24908 0.36296 0.078145 0 0 0 
0.35165 0.45593 0.074273 0 0 0 
0.35166 0.45593 0.066657 0 0 0 
0.35156 0.44922 0.066657 0 0 0 
0.35156 0.44922 0.074273 0 0 0 
0.41136 0.37404 0.074174 0 0 0 
0.41137 0.37404 0.055604 0 0 0 
0.41119 0.36119 0.055604 0 0 0 
0.41118 0.36119 0.074174 0 0 0 
0.29018 0.40205 0.066668 0 0 0 
0.29018 0.39423 0.066667 0 0 0 
0.30334 0.39423 0.066674 0 0 0 
0.30334 0.40205 0.066674 0 0 0 
0.38445 0.44568 0.13766 0 0 0 
0.37064 0.44571 0.13762 0 0 0 
0.37064 0.44721 0.13902 0 0 0 
0.38445 0.44718 0.13905 0 0 0 
0.19247 0.59495 0.05399 0 0 0 
0.18908 0.59497 0.05399 0 0 0 
0.18908 0.5953 0.071668 0 0 0 
0.19247 0.59528 0.071668 0 0 0 
0.57988 0.58677 0.055008 0 0 0 
0.57988 0.58676 0.053415 0 0 0 
0.56988 0.5869 0.053415 0 0 0 
0.56988 0.58691 0.055008 0 0 0 
0.3498 0.39965 0.073401 0 0 0 
0.3498 0.38998 0.073401 0 0 0 
0.35374 0.38998 0.073403 0 0 0 
0.35374 0.39965 0.073403 0 0 0 
0.3354 0.37583 0.066722 0 0 0 
0.32286 0.37583 0.066712 0 0 0 
0.32286 0.36381 0.066441 0 0 0 
0.3354 0.36381 0.066451 0 0 0 
0.21137 0.31645 0.071028 0 0 0 
0.21137 0.31655 0.053227 0 0 0 
0.23723 0.3164 0.053227 0 0 0 
0.23723 0.3163 0.071028 0 0 0 
0.29295 0.486 0.074236 0 0 0 
0.2932 0.48583 0.066895 0 0 0 
0.28791 0.47817 0.066895 0 0 0 
0.28766 0.47834 0.074236 0 0 0 
0.32878 0.46791 0.073169 0 0 0 
0.32882 0.46788 0.065076 0 0 0 
0.32219 0.4616 0.065076 0 0 0 
0.32216 0.46164 0.073169 0 0 0 
0.32825 0.33117 0.073931 0 0 0 
0.32825 0.32026 0.073931 0 0 0 
0.33237 0.32026 0.073933 0 0 0 
0.33237 0.33117 0.073933 0 0 0 
0.1857 0.37211 0.11581 0 0 0 
0.18576 0.37204 0.099863 0 0 0 
0.18566 0.37194 0.099863 0 0 0 
0.18559 0.37201 0.11581 0 0 0 
0.3195 0.55198 0.078218 0 0 0 
0.3195 0.55198 0.074698 0 0 0 
0.30645 0.55208 0.074698 0 0 0 
0.30645 0.55208 0.078218 0 0 0 
0.34845 0.4199 0.077846 0 0 0 
0.34845 0.4199 0.069828 0 0 0 
0.34269 0.42342 0.069828 0 0 0 
0.34269 0.42342 0.077846 0 0 0 
0.37268 0.45872 0.073862 0 0 0 
0.37296 0.45853 0.065854 0 0 0 
0.3662 0.44875 0.065854 0 0 0 
0.36593 0.44893 0.073862 0 0 0 
0.28182 0.43179 0.078093 0 0 0 
0.28182 0.43179 0.070074 0 0 0 
0.27532 0.43576 0.070074 0 0 0 
0.27532 0.43576 0.078093 0 0 0 
0.59138 0.40626 0.11177 0 0 0 
0.59133 0.40642 0.080303 0 0 0 
0.58773 0.40529 0.080303 0 0 0 
0.58778 0.40513 0.11177 0 0 0 
0.49613 0.44468 0.077874 0 0 0 
0.49612 0.44472 0.071079 0 0 0 
0.48855 0.44235 0.071079 0 0 0 
0.48856 0.44232 0.077874 0 0 0 
0.32771 0.35982 0.13643 0 0 0 
0.31394 0.35989 0.13643 0 0 0 
0.31394 0.35994 0.13904 0 0 0 
0.32771 0.35987 0.13904 0 0 0 
0.28044 0.44383 0.062125 0 0 0 
0.2749 0.44384 0.062133 0 0 0 
0.2749 0.45033 0.055166 0 0 0 
0.28044 0.45032 0.055157 0 0 0 
0.1857 0.46679 0.11645 0 0 0 
0.1857 0.42323 0.11645 0 0 0 
0.18887 0.42323 0.11645 0 0 0 
0.18887 0.46679 0.11645 0 0 0 
0.37725 0.43242 0.07364 0 0 0 
0.37724 0.43246 0.066159 0 0 0 
0.38332 0.43436 0.066159 0 0 0 
0.38333 0.43432 0.07364 0 0 0 
0.32444 0.46647 0.073355 0 0 0 
0.32444 0.45861 0.073355 0 0 0 
0.33138 0.45861 0.073358 0 0 0 
0.33138 0.46647 0.073358 0 0 0 
0.52133 0.46988 0.078031 0 0 0 
0.52133 0.46988 0.069874 0 0 0 
0.50867 0.47195 0.069874 0 0 0 
0.50867 0.47195 0.078031 0 0 0 
0.53747 0.3677 0.074074 0 0 0 
0.53748 0.3677 0.068146 0 0 0 
0.5373 0.35538 0.068146 0 0 0 
0.5373 0.35538 0.074074 0 0 0 
0.39394 0.32198 0.078028 0 0 0 
0.39393 0.32202 0.071878 0 0 0 
0.40068 0.32413 0.071878 0 0 0 
0.40069 0.32409 0.078028 0 0 0 
0.45358 0.42026 0.073682 0 0 0 
0.45029 0.42026 0.073679 0 0 0 
0.45029 0.41079 0.073466 0 0 0 
0.45358 0.41079 0.073468 0 0 0 
0.43335 0.39548 0.067339 0 0 0 
0.43335 0.39548 0.054161 0 0 0 
0.43331 0.38881 0.054161 0 0 0 
0.43331 0.38881 0.067339 0 0 0 
0.31236 0.47863 0.073654 0 0 0 
0.31266 0.47843 0.065001 0 0 0 
0.30821 0.47198 0.065001 0 0 0 
0.30791 0.47219 0.073654 0 0 0 
0.53911 0.32686 0.078209 0 0 0 
0.53911 0.32686 0.072919 0 0 0 
0.53146 0.32811 0.072919 0 0 0 
0.53146 0.32811 0.078209 0 0 0 
0.51424 0.32542 0.078363 0 0 0 
0.51423 0.32546 0.071953 0 0 0 
0.5233 0.32829 0.071953 0 0 0 
0.52331 0.32826 0.078363 0 0 0 
0.59058 0.36795 0.072227 0 0 0 
0.58868 0.36795 0.072225 0 0 0 
0.58868 0.35895 0.072023 0 0 0 
0.59058 0.35895 0.072024 0 0 0 
0.2797 0.45112 0.07398 0 0 0 
0.28011 0.45083 0.061864 0 0 0 
0.27237 0.43962 0.061864 0 0 0 
0.27196 0.43991 0.07398 0 0 0 
0.40466 0.37332 0.073977 0 0 0 
0.40466 0.37332 0.055245 0 0 0 
0.40457 0.35815 0.055245 0 0 0 
0.40458 0.35815 0.073977 0 0 0 
0.38457 0.5205 0.1386 0 0 0 
0.36955 0.52058 0.1386 0 0 0 
0.36955 0.52055 0.13678 0 0 0 
0.38457 0.52047 0.13678 0 0 0 
0.18883 0.5524 0.068613 0 0 0 
0.18883 0.5524 0.053543 0 0 0 
0.19241 0.55182 0.053543 0 0 0 
0.19241 0.55182 0.068613 0 0 0 
0.19181 0.51969 0.073538 0 0 0 
0.19181 0.51969 0.061721 0 0 0 
0.18987 0.52087 0.061721 0 0 0 
0.18987 0.52087 0.073538 0 0 0 
0.4699 0.36499 0.073961 0 0 0 
0.4699 0.36499 0.068597 0 0 0 
0.4698 0.35774 0.068597 0 0 0 
0.4698 0.35774 0.073961 0 0 0 
0.54537 0.47543 0.077758 0 0 0 
0.54558 0.47529 0.07168 0 0 0 
0.55141 0.48375 0.07168 0 0 0 
0.5512 0.48389 0.077758 0 0 0 
0.28429 0.48347 0.066307 0 0 0 
0.28429 0.47604 0.066306 0 0 0 
0.27292 0.47604 0.0663 0 0 0 
0.27292 0.48347 0.066301 0 0 0 
0.38759 0.32332 0.073393 0 0 0 
0.38127 0.32332 0.073388 0 0 0 
0.38127 0.33132 0.073568 0 0 0 
0.38759 0.33132 0.073574 0 0 0 
0.48902 0.32064 0.07811 0 0 0 
0.48902 0.32064 0.071641 0 0 0 
0.47946 0.3222 0.071641 0 0 0 
0.47946 0.3222 0.07811 0 0 0 
0.54508 0.45865 0.074023 0 0 0 
0.54509 0.45865 0.066676 0 0 0 
0.54489 0.44476 0.066676 0 0 0 
0.54489 0.44476 0.074023 0 0 0 
0.46685 0.47695 0.073536 0 0 0 
0.46141 0.47695 0.073532 0 0 0 
0.46141 0.48404 0.073691 0 0 0 
0.46685 0.48404 0.073696 0 0 0 
0.3637 0.42711 0.073655 0 0 0 
0.3637 0.42711 0.067557 0 0 0 
0.36367 0.42174 0.067557 0 0 0 
0.36367 0.42174 0.073655 0 0 0 
0.47574 0.45965 0.074034 0 0 0 
0.47574 0.45965 0.064591 0 0 0 
0.47552 0.44376 0.064591 0 0 0 
0.47551 0.44376 0.074034 0 0 0 
0.25029 0.62715 0.077149 0 0 0 
0.25029 0.62715 0.074188 0 0 0 
0.25126 0.60932 0.074188 0 0 0 
0.25126 0.60932 0.077149 0 0 0 
0.50339 0.48466 0.066426 0 0 0 
0.48967 0.48466 0.066415 0 0 0 
0.48967 0.4755 0.066208 0 0 0 
0.50339 0.4755 0.066219 0 0 0 
0.18821 0.39995 0.11599 0 0 0 
0.1859 0.39995 0.11599 0 0 0 
0.1859 0.41536 0.11633 0 0 0 
0.18821 0.41536 0.11633 0 0 0 
0.18518 0.32059 0.11566 0 0 0 
0.18514 0.32071 0.091954 0 0 0 
0.18527 0.32075 0.091954 0 0 0 
0.18531 0.32063 0.11566 0 0 0 
0.42434 0.44636 0.13982 0 0 0 
0.42434 0.44636 0.13718 0 0 0 
0.4415 0.44628 0.13718 0 0 0 
0.4415 0.44628 0.13982 0 0 0 
0.37692 0.40486 0.063804 0 0 0 
0.37692 0.40486 0.054202 0 0 0 
0.37689 0.40021 0.054202 0 0 0 
0.3769 0.40021 0.063804 0 0 0 
0.38158 0.44588 0.073507 0 0 0 
0.38158 0.44588 0.065566 0 0 0 
0.38779 0.44208 0.065566 0 0 0 
0.38779 0.44208 0.073507 0 0 0 
0.31002 0.42407 0.078121 0 0 0 
0.31002 0.42407 0.065737 0 0 0 
0.30108 0.42414 0.065737 0 0 0 
0.30108 0.42414 0.078121 0 0 0 
0.44956 0.39252 0.07398 0 0 0 
0.44956 0.39252 0.06948 0 0 0 
0.44951 0.38367 0.06948 0 0 0 
0.44951 0.38367 0.07398 0 0 0 
0.56542 0.51719 0.063652 0 0 0 
0.56542 0.51723 0.054911 0 0 0 
0.57836 0.51716 0.054911 0 0 0 
0.57836 0.51711 0.063652 0 0 0 
0.5914 0.43615 0.081067 0 0 0 
0.58715 0.43615 0.081063 0 0 0 
0.58715 0.46146 0.081633 0 0 0 
0.5914 0.46146 0.081637 0 0 0 
0.31262 0.35822 0.078161 0 0 0 
0.31261 0.35826 0.070814 0 0 0 
0.30522 0.35595 0.070814 0 0 0 
0.30523 0.35591 0.078161 0 0 0 
0.40676 0.30818 0.07095 0 0 0 
0.39902 0.30819 0.070962 0 0 0 
0.39902 0.30609 0.073217 0 0 0 
0.40676 0.30608 0.073205 0 0 0 
0.29191 0.32109 0.078492 0 0 0 
0.2919 0.32107 0.070575 0 0 0 
0.30222 0.32092 0.070575 0 0 0 
0.30222 0.32095 0.078492 0 0 0 
0.20853 0.56245 0.074127 0 0 0 
0.18889 0.56256 0.074125 0 0 0 
0.18889 0.56274 0.083914 0 0 0 
0.20853 0.56264 0.083916 0 0 0 
0.48887 0.32056 0.07791 0 0 0 
0.48886 0.32059 0.071185 0 0 0 
0.49657 0.323 0.071185 0 0 0 
0.49658 0.32297 0.07791 0 0 0 
0.48269 0.47774 0.064927 0 0 0 
0.48266 0.47774 0.055933 0 0 0 
0.48283 0.47475 0.055933 0 0 0 
0.48285 0.47475 0.064927 0 0 0 
0.47234 0.38198 0.078103 0 0 0 
0.47233 0.38202 0.069775 0 0 0 
0.46427 0.3795 0.069775 0 0 0 
0.46429 0.37946 0.078103 0 0 0 
0.45388 0.42565 0.062569 0 0 0 
0.45388 0.42565 0.054631 0 0 0 
0.45383 0.42162 0.054631 0 0 0 
0.45382 0.42162 0.062569 0 0 0 
0.33911 0.31701 0.10753 0 0 0 
0.3391 0.31701 0.076747 0 0 0 
0.33908 0.31295 0.076747 0 0 0 
0.33908 0.31295 0.10753 0 0 0 
0.45024 0.42113 0.066835 0 0 0 
0.43843 0.42119 0.066834 0 0 0 
0.43843 0.42115 0.0644 0 0 0 
0.45024 0.42108 0.064401 0 0 0 
0.29706 0.46664 0.07799 0 0 0 
0.29706 0.46669 0.069809 0 0 0 
0.30417 0.46665 0.069809 0 0 0 
0.30417 0.4666 0.07799 0 0 0 
0.52365 0.35441 0.073619 0 0 0 
0.51562 0.35441 0.073612 0 0 0 
0.51562 0.36648 0.073884 0 0 0 
0.52365 0.36648 0.07389 0 0 0 
0.40589 0.333 0.064834 0 0 0 
0.40589 0.333 0.054661 0 0 0 
0.40587 0.32761 0.054661 0 0 0 
0.40587 0.32761 0.064834 0 0 0 
0.4641 0.47574 0.055047 0 0 0 
0.45747 0.47577 0.055047 0 0 0 
0.45747 0.476 0.067445 0 0 0 
0.4641 0.47597 0.067446 0 0 0 
0.51373 0.38508 0.07803 0 0 0 
0.51373 0.38508 0.070127 0 0 0 
0.5066 0.38624 0.070127 0 0 0 
0.5066 0.38624 0.07803 0 0 0 
0.4956 0.43873 0.13777 0 0 0 
0.48524 0.43875 0.13779 0 0 0 
0.48524 0.4369 0.13978 0 0 0 
0.4956 0.43688 0.13976 0 0 0 
0.22614 0.58589 0.074579 0 0 0 
0.22687 0.58538 0.053091 0 0 0 
0.20995 0.56087 0.053091 0 0 0 
0.20921 0.56137 0.074579 0 0 0 
0.51163 0.42604 0.068094 0 0 0 
0.50077 0.42606 0.06811 0 0 0 
0.50077 0.42867 0.065297 0 0 0 
0.51163 0.42866 0.06528 0 0 0 
0.25815 0.45078 0.13858 0 0 0 
0.25815 0.45078 0.13638 0 0 0 
0.26938 0.45073 0.13638 0 0 0 
0.26938 0.45073 0.13858 0 0 0 
0.35491 0.57837 0.1368 0 0 0 
0.34365 0.57838 0.13682 0 0 0 
0.34365 0.5813 0.13369 0 0 0 
0.35491 0.58128 0.13367 0 0 0 
0.57833 0.47874 0.077808 0 0 0 
0.57836 0.4787 0.070384 0 0 0 
0.57163 0.47232 0.070384 0 0 0 
0.5716 0.47235 0.077808 0 0 0 
0.33089 0.40576 0.073966 0 0 0 
0.33089 0.40576 0.066246 0 0 0 
0.33071 0.39298 0.066246 0 0 0 
0.33071 0.39298 0.073966 0 0 0 
0.56029 0.47813 0.073712 0 0 0 
0.56029 0.47813 0.055483 0 0 0 
0.56975 0.47235 0.055483 0 0 0 
0.56975 0.47235 0.073712 0 0 0 
0.46189 0.47512 0.078077 0 0 0 
0.46188 0.47517 0.069284 0 0 0 
0.45279 0.47233 0.069284 0 0 0 
0.45281 0.47228 0.078077 0 0 0 
0.34201 0.63604 0.10726 0 0 0 
0.34201 0.63604 0.086607 0 0 0 
0.34065 0.63605 0.086607 0 0 0 
0.34065 0.63605 0.10726 0 0 0 
0.55233 0.44754 0.14078 0 0 0 
0.53733 0.44757 0.1408 0 0 0 
0.53733 0.45202 0.13601 0 0 0 
0.55233 0.452 0.13599 0 0 0 
0.2255 0.30757 0.072606 0 0 0 
0.20237 0.30761 0.072641 0 0 0 
0.20237 0.30955 0.070557 0 0 0 
0.2255 0.30951 0.070522 0 0 0 
0.21106 0.55234 0.073388 0 0 0 
0.21106 0.55234 0.05586 0 0 0 
0.21105 0.55156 0.05586 0 0 0 
0.21106 0.55156 0.073388 0 0 0 
4 0 1 2 3
4 4 5 6 7
4 8 9 10 11
4 12 13 14 15
4 16 17 18 19
4 20 21 22 23
4 24 25 26 27
4 28 29 30 31
4 32 33 34 35
4 36 37 38 39
4 40 41 42 43
4 44 45 46 47
4 48 49 50 51
4 52 53 54 55
4 56 57 58 59
4 60 61 62 63
4 64 65 66 67
4 68 69 70 71
4 72 73 74 75
4 76 77 78 79
4 80 81 82 83
4 84 85 86 87
4 88 89 90 91
4 92 93 94 95
4 96 97 98 99
4 100 101 102 103
4 104 105 106 107
4 108 109 110 111
4 112 113 114 115
4 116 117 118 119
4 120 121 122 123
4 124 125 126 127
4 128 129 130 131
4 132 133 134 135
4 136 137 138 139
4 140 141 142 143
4 144 145 146 147
4 148 149 150 151
4 152 153 154 155
4 156 157 158 159
4 160 161 162 163
4 164 165 166 167
4 168 169 170 171
4 172 173 174 175
4 176 177 178 179
4 180 181 182 183
4 184 185 186 187
4 188 189 190 191
4 192 193 194 195
4 196 197 198 199
4 200 201 202 203
4 204 205 206 207
4 208 209 210 211
4 212 213 214 215
4 216 217 218 219
4 220 221 222 223
4 224 225 226 227
4 228 229 230 231
4 232 233 234 235
4 236 237 238 239
4 240 241 242 243
4 244 245 246 247
4 248 249 250 251
4 252 253 254 255
4 256 257 258 259
4 260 261 262 263
4 264 265 266 267
4 268 269 270 271
4 272 273 274 275
4 276 277 278 279
4 280 281 282 283
4 284 285 286 287
4 288 289 290 291
4 292 293 294 295
4 296 297 298 299
4 300 301 302 303
4 304 305 306 307
4 308 309 310 311
4 312 313 314 315
4 316 317 318 319
4 320 321 322 323
4 324 325 326 327
4 328 329 330 331
4 332 333 334 335
4 336 337 338 339
4 340 341 342 343
4 344 345 346 347
4 348 349 350 351
4 352 353 354 355
4 356 357 358 359
4 360 361 362 363
4 364 365 366 367
4 368 369 370 371
4 372 373 374 375
4 376 377 378 379
4 380 381 382 383
4 384 385 386 387
4 388 389 390 391
4 392 393 394 395
4 396 397 398 399
4 400 401 402 403
4 404 405 406 407
4 408 409 410 411
4 412 413 414 415
4 416 417 418 419
4 420 421 422 423
4 424 425 426 427
4 428 429 430 431
4 432 433 434 435
4 436 437 438 439
4 440 441 442 443
4 444 445 446 447
4 448 449 450 451
4 452 453 454 455
4 456 457 458 459
4 460 461 462 463
4 464 465 466 467
4 468 469 470 471
4 472 473 474 475
4 476 477 478 479
4 480 481 482 483
4 484 485 486 487
4 488 489 490 491
4 492 493 494 495
4 496 497 498 499
4 500 501 502 503
4 504 505 506 507
4 508 509 510 511
4 512 513 514 515
4 516 517 518 519
4 520 521 522 523
4 524 525 526 527
4 528 529 530 531
4 532 533 534 535
4 536 537 538 539
4 540 541 542 543
4 544 545 546 547
4 548 549 550 551
4 552 553 554 555
4 556 557 558 559
4 560 561 562 563
4 564 565 566 567
4 568 569 570 571
4 572 573 574 575
4 576 577 578 579
4 580 581 582 583
4 584 585 586 587
4 588 589 590 591
4 592 593 594 595
4 596 597 598 599
4 600 601 602 603
4 604 605 606 607
4 608 609 610 611
4 612 613 614 615
4 616 617 618 619
4 620 621 622 623
4 624 625 626 627
4 628 629 630 631
4 632 633 634 635
4 636 637 638 639
4 640 641 642 643
4 644 645 646 647
4 648 649 650 651
4 652 653 654 655
4 656 657 658 659
4 660 661 662 663
4 664 665 666 667
4 668 669 670 671
4 672 673 674 675
4 676 677 678 679
4 680 681 682 683
4 684 685 686 687
4 688 689 690 691
4 692 693 694 695
4 696 697 698 699
4 700 701 702 703
4 704 705 706 707
4 708 709 710 711
4 712 713 714 715
4 716 717 718 719
4 720 721 722 723
4 724 725 726 727
4 728 729 730 731
4 732 733 734 735
4 736 737 738 739
4 740 741 742 743
4 744 745 746 747
4 748 749 750 751
4 752 753 754 755
4 756 757 758 759
4 760 761 762 763
4 764 765 766 767
4 768 769 770 771
4 772 773 774 775
4 776 777 778 779
4 780 781 782 783
4 784 785 786 787
4 788 789 790 791
4 792 793 794 795
4 796 797 798 799
4 800 801 802 803
4 804 805 806 807
4 808 809 810 811
4 812 813 814 815
4 816 817 818 819
4 820 821 822 823
4 824 825 826 827
4 828 829 830 831
4 832 833 834 835
4 836 837 838 839
4 840 841 842 843
4 844 845 846 847
4 848 849 850 851
4 852 853 854 855
4 856 857 858 859
4 860 861 862 863
4 864 865 866 867
4 868 869 870 871
4 872 873 874 875
4 876 877 878 879
4 880 881 882 883
4 884 885 886 887
4 888 889 890 891
4 892 893 894 895
4 896 897 898 899
4 900 901 902 903
4 904 905 906 907
4 908 909 910 911
4 912 913 914 915
4 916 917 918 919
4 920 921 922 923
4 924 925 926 927
4 928 929 930 931
4 932 933 934 935
4 936 937 938 939
4 940 941 942 943
4 944 945 946 947
4 948 949 950 951
4 952 953 954 955
4 956 957 958 959
4 960 961 962 963
4 964 965 966 967
4 968 969 970 971
4 972 973 974 975
4 976 977 978 979
4 980 981 982 983
4 984 985 986 987
4 988 989 990 991
4 992 993 994 995
4 996 997 998 999
4 1000 1001 1002 1003
4 1004 1005 1006 1007
4 1008 1009 1010 1011
4 1012 1013 1014 1015
4 1016 1017 1018 1019
4 1020 1021 1022 1023
4 1024 1025 1026 1027
4 1028 1029 1030 1031
4 1032 1033 1034 1035
4 1036 1037 1038 1039
4 1040 1041 1042 1043
4 1044 1045 1046 1047
4 1048 1049 1050 1051
4 1052 1053 1054 1055
4 1056 1057 1058 1059
4 1060 1061 1062 1063
4 1064 1065 1066 1067
4 1068 1069 1070 1071
4 1072 1073 1074 1075
4 1076 1077 1078 1079
4 1080 1081 1082 1083
4 1084 1085 1086 1087
4 1088 1089 1090 1091
4 1092 1093 1094 1095
4 1096 1097 1098 1099
4 1100 1101 1102 1103
4 1104 1105 1106 1107
4 1108 1109 1110 1111
4 1112 1113 1114 1115
4 1116 1117 1118 1119
4 1120 1121 1122 1123
4 1124 1125 1126 1127
4 1128 1129 1130 1131
4 1132 1133 1134 1135
4 1136 1137 1138 1139
4 1140 1141 1142 1143
4 1144 1145 1146 1147
4 1148 1149 1150 1151
4 1152 1153 1154 1155
4 1156 1157 1158 1159
4 1160 1161 1162 1163
4 1164 1165 1166 1167
4 1168 1169 1170 1171
4 1172 1173 1174 1175
4 1176 1177 1178 1179
4 1180 1181 1182 1183
4 1184 1185 1186 1187
4 1188 1189 1190 1191
4 1192 1193 1194 1195
4 1196 1197 1198 1199
4 1200 1201 1202 1203
4 1204 1205 1206 1207
4 1208 1209 1210 1211
4 1212 1213 1214 1215
4 1216 1217 1218 1219
4 1220 1221 1222 1223
4 1224 1225 1226 1227
4 1228 1229 1230 1231
4 1232 1233 1234 1235
4 1236 1237 1238 1239
4 1240 1241 1242 1243
4 1244 1245 1246 1247
4 1248 1249 1250 1251
4 1252 1253 1254 1255
4 1256 1257 1258 1259
4 1260 1261 1262 1263
4 1264 1265 1266 1267
4 1268 1269 1270 1271
4 1272 1273 1274 1275
4 1276 1277 1278 1279
4 1280 1281 1282 1283
4 1284 1285 1286 1287
4 1288 1289 1290 1291
4 1292 1293 1294 1295
4 1296 1297 1298 1299
4 1300 1301 1302 1303
4 1304 1305 1306 1307
4 1308 1309 1310 1311
4 1312 1313 1314 1315
4 1316 1317 1318 1319
4 1320 1321 1322 1323
4 1324 1325 1326 1327
4 1328 1329 1330 1331
4 1332 1333 1334 1335
4 1336 1337 1338 1339
4 1340 1341 1342 1343
4 1344 1345 1346 1347
