ply
format ascii 1.0
comment Generated by InputGen
element vertex 908
property float x
property float y
property float z
property float nx
property float ny
property float nz
end_header
0.315755 0.909396 0 0 0 0
0.326739 0.899313 0 0 0 0
0.311265 0.895242 0 0 0 0
0.332167 0.909964 0 0 0 0
0.303707 0.892541 0 0 0 0
0.341816 0.904862 0 0 0 0
0.293602 0.899341 0 0 0 0
0.349822 0.905896 0 0 0 0
0.288648 0.886923 0 0 0 0
0.358534 0.90429 0 0 0 0
0.280981 0.884626 0 0 0 0
0.362774 0.919375 0 0 0 0
0.275266 0.875046 0 0 0 0
0.373723 0.909424 0 0 0 0
0.264703 0.883557 0 0 0 0
0.380336 0.915654 0 0 0 0
0.257637 0.879019 0 0 0 0
0.387707 0.919054 0 0 0 0
0.248147 0.883525 0 0 0 0
0.396402 0.917513 0 0 0 0
0.241452 0.877604 0 0 0 0
0.402993 0.923823 0 0 0 0
0.233556 0.876161 0 0 0 0
0.412683 0.91857 0 0 0 0
0.227105 0.869327 0 0 0 0
0.420509 0.920275 0 0 0 0
0.217673 0.873618 0 0 0 0
0.426566 0.928576 0 0 0 0
0.211409 0.866086 0 0 0 0
0.434183 0.931059 0 0 0 0
0.202925 0.86684 0 0 0 0
0.44561 0.919325 0 0 0 0
0.197228 0.857191 0 0 0 0
0.449836 0.934463 0 0 0 0
0.187118 0.864013 0 0 0 0
0.456172 0.941725 0 0 0 0
0.178856 0.863938 0 0 0 0
0.466917 0.932536 0 0 0 0
0.172472 0.856853 0 0 0 0
0.473556 0.938667 0 0 0 0
0.165434 0.852208 0 0 0 0
0.479926 0.945802 0 0 0 0
0.158542 0.847019 0 0 0 0
0.489942 0.939333 0 0 0 0
0.149525 0.849764 0 0 0 0
0.498449 0.938494 0 0 0 0
0.142959 0.843358 0 0 0 0
0.507125 0.937023 0 0 0 0
0.133867 0.846378 0 0 0 0
0.511986 0.949792 0 0 0 0
0.126396 0.843353 0 0 0 0
0.517148 0.961435 0 0 0 0
0.116505 0.849356 0 0 0 0
0.528962 0.948257 0 0 0 0
0.110742 0.839954 0 0 0 0
0.535152 0.956063 0 0 0 0
0.101596 0.843178 0 0 0 0
0.543149 0.957129 0 0 0 0
0.0924177 0.846522 0 0 0 0
0.549163 0.965593 0 0 0 0
0.0842976 0.845917 0 0 0 0
0.559863 0.956569 0 0 0 0
0.0808025 0.828052 0 0 0 0
0.0768424 0.783367 0 0 0 0
0.0868489 0.794328 0 0 0 0
0.0875355 0.777948 0 0 0 0
0.0819386 0.801295 0 0 0 0
0.0889263 0.770039 0 0 0 0
0.0778673 0.808486 0 0 0 0
0.0906206 0.76221 0 0 0 0
0.0716213 0.815096 0 0 0 0
0.0943488 0.754927 0 0 0 0
0.0772476 0.824884 0 0 0 0
0.0964755 0.747214 0 0 0 0
0.330704 0.804496 0 0 0 0
0.324425 0.79702 0 0 0 0
0.337138 0.811395 0 0 0 0
0.314061 0.804788 0 0 0 0
0.346961 0.805641 0 0 0 0
0.310329 0.787806 0 0 0 0
0.354197 0.809549 0 0 0 0
0.301317 0.790532 0 0 0 0
0.361607 0.812804 0 0 0 0
0.291637 0.795747 0 0 0 0
0.371126 0.808187 0 0 0 0
0.28699 0.782179 0 0 0 0
0.379029 0.8096 0 0 0 0
0.277513 0.786641 0 0 0 0
0.385755 0.815409 0 0 0 0
0.268375 0.789834 0 0 0 0
0.392974 0.819378 0 0 0 0
0.26073 0.787457 0 0 0 0
0.399572 0.825663 0 0 0 0
0.255607 0.775664 0 0 0 0
0.409488 0.819565 0 0 0 0
0.248814 0.770107 0 0 0 0
0.415641 0.827513 0 0 0 0
0.235025 0.790659 0 0 0 0
0.421789 0.835478 0 0 0 0
0.231355 0.773447 0 0 0 0
0.429874 0.836215 0 0 0 0
0.225338 0.76499 0 0 0 0
0.438971 0.833172 0 0 0 0
0.215642 0.770267 0 0 0 0
0.447691 0.831539 0 0 0 0
0.209523 0.762196 0 0 0 0
0.455074 0.834893 0 0 0 0
0.200305 0.765688 0 0 0 0
0.463029 0.836116 0 0 0 0
0.191502 0.767633 0 0 0 0
0.471711 0.834623 0 0 0 0
0.184546 0.762682 0 0 0 0
0.478639 0.839677 0 0 0 0
0.175655 0.764954 0 0 0 0
0.486485 0.841306 0 0 0 0
0.168761 0.759772 0 0 0 0
0.491486 0.85355 0 0 0 0
0.161937 0.754332 0 0 0 0
0.502488 0.843399 0 0 0 0
0.153812 0.753743 0 0 0 0
0.508759 0.850905 0 0 0 0
0.146464 0.750258 0 0 0 0
0.514482 0.860459 0 0 0 0
0.13779 0.751719 0 0 0 0
0.52544 0.850471 0 0 0 0
0.128739 0.754589 0 0 0 0
0.531517 0.8587 0 0 0 0
0.121924 0.749114 0 0 0 0
0.540239 0.85706 0 0 0 0
0.112803 0.752244 0 0 0 0
0.548347 0.857708 0 0 0 0
0.10722 0.74217 0 0 0 0
0.555791 0.860837 0 0 0 0
0.0990891 0.741605 0 0 0 0
0.562699 0.865966 0 0 0 0
0.726404 0.82114 0 0 0 0
0.717507 0.818847 0 0 0 0
0.736062 0.826271 0 0 0 0
0.71104 0.825618 0 0 0 0
0.739948 0.809869 0 0 0 0
0.704697 0.832854 0 0 0 0
0.749861 0.815951 0 0 0 0
0.69566 0.830038 0 0 0 0
0.756586 0.810141 0 0 0 0
0.686545 0.826932 0 0 0 0
0.766231 0.815225 0 0 0 0
0.681337 0.838403 0 0 0 0
0.772415 0.807396 0 0 0 0
0.672574 0.836611 0 0 0 0
0.779358 0.802399 0 0 0 0
0.665765 0.842108 0 0 0 0
0.786724 0.798979 0 0 0 0
0.655864 0.836066 0 0 0 0
0.795643 0.801356 0 0 0 0
0.649697 0.843962 0 0 0 0
0.803616 0.800201 0 0 0 0
0.642434 0.847763 0 0 0 0
0.812519 0.802519 0 0 0 0
0.634066 0.847446 0 0 0 0
0.820975 0.803168 0 0 0 0
0.627085 0.852299 0 0 0 0
0.826961 0.794596 0 0 0 0
0.617994 0.849284 0 0 0 0
0.83534 0.794957 0 0 0 0
0.607598 0.841397 0 0 0 0
0.844057 0.796581 0 0 0 0
0.601718 0.85036 0 0 0 0
0.850771 0.790729 0 0 0 0
0.59635 0.861235 0 0 0 0
0.856165 0.779952 0 0 0 0
0.586854 0.856706 0 0 0 0
0.866194 0.786467 0 0 0 0
0.581081 0.86607 0 0 0 0
0.874446 0.786357 0 0 0 0
0.571538 0.861364 0 0 0 0
0.883976 0.791012 0 0 0 0
0.725269 0.915005 0 0 0 0
0.720096 0.926607 0 0 0 0
0.734633 0.919041 0 0 0 0
0.709913 0.919514 0 0 0 0
0.741777 0.914792 0 0 0 0
0.702777 0.923791 0 0 0 0
0.748221 0.907934 0 0 0 0
0.695905 0.929052 0 0 0 0
0.758102 0.9139 0 0 0 0
0.686767 0.925862 0 0 0 0
0.766319 0.913655 0 0 0 0
0.681667 0.937736 0 0 0 0
0.772437 0.905581 0 0 0 0
0.673517 0.938229 0 0 0 0
0.781548 0.908672 0 0 0 0
0.665846 0.940511 0 0 0 0
0.789069 0.90583 0 0 0 0
0.656057 0.934888 0 0 0 0
0.797548 0.906566 0 0 0 0
0.647657 0.934447 0 0 0 0
0.801665 0.891024 0 0 0 0
0.640894 0.940119 0 0 0 0
0.811996 0.898665 0 0 0 0
0.634833 0.948406 0 0 0 0
0.818644 0.892568 0 0 0 0
0.626607 0.948618 0 0 0 0
0.826767 0.891975 0 0 0 0
0.619036 0.95127 0 0 0 0
0.836153 0.896091 0 0 0 0
0.61067 0.950958 0 0 0 0
0.842985 0.89068 0 0 0 0
0.605453 0.962396 0 0 0 0
0.849527 0.884188 0 0 0 0
0.594402 0.952064 0 0 0 0
0.858783 0.88782 0 0 0 0
0.588123 0.959539 0 0 0 0
0.865411 0.881647 0 0 0 0
0.577992 0.952641 0 0 0 0
0.874134 0.883291 0 0 0 0
0.571039 0.957603 0 0 0 0
0.88068 0.876812 0 0 0 0
0.880459 0.70779 0 0 0 0
0.884479 0.71579 0 0 0 0
0.882023 0.69979 0 0 0 0
0.881679 0.72379 0 0 0 0
0.879601 0.69179 0 0 0 0
0.892021 0.73179 0 0 0 0
0.878283 0.68379 0 0 0 0
0.880376 0.73979 0 0 0 0
0.887065 0.67579 0 0 0 0
0.881454 0.74779 0 0 0 0
0.894305 0.66779 0 0 0 0
0.894852 0.75579 0 0 0 0
0.886049 0.65979 0 0 0 0
0.882651 0.76379 0 0 0 0
0.888948 0.65179 0 0 0 0
0.888712 0.77179 0 0 0 0
0.892657 0.64379 0 0 0 0
0.93806 0.633918 0 0 0 0
0.93006 0.638732 0 0 0 0
0.94606 0.630835 0 0 0 0
0.92206 0.642346 0 0 0 0
0.95406 0.635397 0 0 0 0
0.91406 0.632249 0 0 0 0
0.96206 0.632611 0 0 0 0
0.90606 0.630808 0 0 0 0
0.97006 0.643833 0 0 0 0
0.89806 0.638475 0 0 0 0
0.97806 0.642458 0 0 0 0
0.89006 0.635407 0 0 0 0
0.98606 0.642674 0 0 0 0
0.992676 0.812515 0 0 0 0
0.98272 0.804515 0 0 0 0
0.990525 0.820515 0 0 0 0
0.985646 0.796515 0 0 0 0
0.992887 0.828515 0 0 0 0
0.987496 0.788515 0 0 0 0
0.987223 0.836515 0 0 0 0
0.987799 0.780515 0 0 0 0
0.978635 0.844515 0 0 0 0
0.990622 0.772515 0 0 0 0
0.982649 0.852515 0 0 0 0
0.985708 0.764515 0 0 0 0
0.988762 0.860515 0 0 0 0
0.985386 0.756515 0 0 0 0
0.990142 0.868515 0 0 0 0
0.977781 0.748515 0 0 0 0
0.989537 0.876515 0 0 0 0
0.984501 0.740515 0 0 0 0
0.987742 0.884515 0 0 0 0
0.986833 0.732515 0 0 0 0
0.989575 0.892515 0 0 0 0
0.989881 0.724515 0 0 0 0
0.988352 0.900515 0 0 0 0
0.988071 0.716515 0 0 0 0
0.987047 0.908515 0 0 0 0
0.985325 0.708515 0 0 0 0
0.97987 0.916515 0 0 0 0
0.982664 0.700515 0 0 0 0
0.997239 0.924515 0 0 0 0
0.993272 0.692515 0 0 0 0
0.982706 0.932515 0 0 0 0
0.98849 0.684515 0 0 0 0
0.979371 0.940515 0 0 0 0
0.990903 0.676515 0 0 0 0
0.98775 0.948515 0 0 0 0
0.984516 0.668515 0 0 0 0
0.989286 0.956515 0 0 0 0
0.989049 0.660515 0 0 0 0
0.986397 0.964515 0 0 0 0
0.989445 0.652515 0 0 0 0
0.984669 0.972515 0 0 0 0
0.99107 0.644515 0 0 0 0
0.98943 0.980515 0 0 0 0
0.93806 0.987996 0 0 0 0
0.94606 0.982366 0 0 0 0
0.93006 0.990091 0 0 0 0
0.95406 0.99089 0 0 0 0
0.92206 0.978254 0 0 0 0
0.96206 0.989015 0 0 0 0
0.91406 0.984979 0 0 0 0
0.97006 0.986959 0 0 0 0
0.90606 0.991356 0 0 0 0
0.97806 0.981847 0 0 0 0
0.89806 0.988549 0 0 0 0
0.98606 0.988459 0 0 0 0
0.89006 0.984725 0 0 0 0
0.886417 0.933555 0 0 0 0
0.890141 0.941555 0 0 0 0
0.892951 0.925555 0 0 0 0
0.890719 0.949555 0 0 0 0
0.880511 0.917555 0 0 0 0
0.889145 0.957555 0 0 0 0
0.887868 0.909555 0 0 0 0
0.886096 0.965555 0 0 0 0
0.887189 0.901555 0 0 0 0
0.882403 0.973555 0 0 0 0
0.889731 0.893555 0 0 0 0
0.884786 0.981555 0 0 0 0
0.89523 0.885555 0 0 0 0
0.0856 0.16714 0 0 0 0
0.0776 0.167445 0 0 0 0
0.0936 0.171681 0 0 0 0
0.0696 0.164796 0 0 0 0
0.1016 0.172271 0 0 0 0
0.0616 0.17479 0 0 0 0
0.1096 0.161845 0 0 0 0
0.0536 0.175047 0 0 0 0
0.1176 0.166662 0 0 0 0
0.0456 0.173024 0 0 0 0
0.1256 0.169351 0 0 0 0
0.0376 0.171259 0 0 0 0
0.1336 0.165927 0 0 0 0
0.140162 0.45343 0 0 0 0
0.131271 0.44543 0 0 0 0
0.122465 0.46143 0 0 0 0
0.127155 0.43743 0 0 0 0
0.132802 0.46943 0 0 0 0
0.135045 0.42943 0 0 0 0
0.132393 0.47743 0 0 0 0
0.13595 0.42143 0 0 0 0
0.136162 0.48543 0 0 0 0
0.13254 0.41343 0 0 0 0
0.132396 0.49343 0 0 0 0
0.129948 0.40543 0 0 0 0
0.126589 0.50143 0 0 0 0
0.134916 0.39743 0 0 0 0
0.139063 0.50943 0 0 0 0
0.138614 0.38943 0 0 0 0
0.138085 0.51743 0 0 0 0
0.132383 0.38143 0 0 0 0
0.130658 0.52543 0 0 0 0
0.134458 0.37343 0 0 0 0
0.140692 0.53343 0 0 0 0
0.132901 0.36543 0 0 0 0
0.134041 0.54143 0 0 0 0
0.133043 0.35743 0 0 0 0
0.136189 0.54943 0 0 0 0
0.135586 0.34943 0 0 0 0
0.120993 0.55743 0 0 0 0
0.142073 0.34143 0 0 0 0
0.138413 0.56543 0 0 0 0
0.126961 0.33343 0 0 0 0
0.128729 0.57343 0 0 0 0
0.136698 0.32543 0 0 0 0
0.128828 0.58143 0 0 0 0
0.140007 0.31743 0 0 0 0
0.13797 0.58943 0 0 0 0
0.127743 0.30943 0 0 0 0
0.13206 0.59743 0 0 0 0
0.141981 0.30143 0 0 0 0
0.130764 0.60543 0 0 0 0
0.12894 0.29343 0 0 0 0
0.131874 0.61343 0 0 0 0
0.132978 0.28543 0 0 0 0
0.139589 0.62143 0 0 0 0
0.130813 0.27743 0 0 0 0
0.134567 0.62943 0 0 0 0
0.124002 0.26943 0 0 0 0
0.129274 0.63743 0 0 0 0
0.133578 0.26143 0 0 0 0
0.142065 0.64543 0 0 0 0
0.131282 0.25343 0 0 0 0
0.125268 0.65343 0 0 0 0
0.142198 0.24543 0 0 0 0
0.133809 0.66143 0 0 0 0
0.134451 0.23743 0 0 0 0
0.125372 0.66943 0 0 0 0
0.139369 0.22943 0 0 0 0
0.133343 0.67743 0 0 0 0
0.135009 0.22143 0 0 0 0
0.140099 0.68543 0 0 0 0
0.123965 0.21343 0 0 0 0
0.121219 0.69343 0 0 0 0
0.131524 0.20543 0 0 0 0
0.139886 0.70143 0 0 0 0
0.132763 0.19743 0 0 0 0
0.130274 0.70943 0 0 0 0
0.128882 0.18943 0 0 0 0
0.136789 0.71743 0 0 0 0
0.126184 0.18143 0 0 0 0
0.133621 0.72543 0 0 0 0
0.138068 0.17343 0 0 0 0
0.136897 0.73343 0 0 0 0
0.08195 0.741372 0 0 0 0
0.08995 0.731717 0 0 0 0
0.07395 0.736369 0 0 0 0
0.09795 0.735649 0 0 0 0
0.06595 0.736353 0 0 0 0
0.10595 0.734464 0 0 0 0
0.05795 0.736006 0 0 0 0
0.11395 0.740904 0 0 0 0
0.04995 0.738819 0 0 0 0
0.12195 0.74118 0 0 0 0
0.04195 0.739552 0 0 0 0
0.12995 0.734787 0 0 0 0
0.03395 0.734021 0 0 0 0
0.0308316 0.454345 0 0 0 0
0.0301379 0.462345 0 0 0 0
0.0320599 0.446345 0 0 0 0
0.0277041 0.470345 0 0 0 0
0.0414147 0.438345 0 0 0 0
0.0317907 0.478345 0 0 0 0
0.0360299 0.430345 0 0 0 0
0.0242629 0.486345 0 0 0 0
0.0251508 0.422345 0 0 0 0
0.0331804 0.494345 0 0 0 0
0.0324116 0.414345 0 0 0 0
0.0297232 0.502345 0 0 0 0
0.0287479 0.406345 0 0 0 0
0.0338233 0.510345 0 0 0 0
0.0263196 0.398345 0 0 0 0
0.0275847 0.518345 0 0 0 0
0.0386968 0.390345 0 0 0 0
0.0239727 0.526345 0 0 0 0
0.0341293 0.382345 0 0 0 0
0.0248586 0.534345 0 0 0 0
0.037804 0.374345 0 0 0 0
0.0218181 0.542345 0 0 0 0
0.0319321 0.366345 0 0 0 0
0.0327674 0.550345 0 0 0 0
0.026435 0.358345 0 0 0 0
0.0307105 0.558345 0 0 0 0
0.0308037 0.350345 0 0 0 0
0.0277567 0.566345 0 0 0 0
0.0218177 0.342345 0 0 0 0
0.0364236 0.574345 0 0 0 0
0.0332889 0.334345 0 0 0 0
0.027178 0.582345 0 0 0 0
0.0218385 0.326345 0 0 0 0
0.0302853 0.590345 0 0 0 0
0.0320139 0.318345 0 0 0 0
0.0314756 0.598345 0 0 0 0
0.0330663 0.310345 0 0 0 0
0.0350907 0.606345 0 0 0 0
0.0288344 0.302345 0 0 0 0
0.0340383 0.614345 0 0 0 0
0.0273202 0.294345 0 0 0 0
0.0332644 0.622345 0 0 0 0
0.0300337 0.286345 0 0 0 0
0.0317666 0.630345 0 0 0 0
0.0250674 0.278345 0 0 0 0
0.0318139 0.638345 0 0 0 0
0.0349362 0.270345 0 0 0 0
0.0250905 0.646345 0 0 0 0
0.0277909 0.262345 0 0 0 0
0.0312933 0.654345 0 0 0 0
0.0291832 0.254345 0 0 0 0
0.0305781 0.662345 0 0 0 0
0.0273708 0.246345 0 0 0 0
0.0332512 0.670345 0 0 0 0
0.0336795 0.238345 0 0 0 0
0.0215577 0.678345 0 0 0 0
0.0398912 0.230345 0 0 0 0
0.033788 0.686345 0 0 0 0
0.0201036 0.222345 0 0 0 0
0.0289697 0.694345 0 0 0 0
0.0298459 0.214345 0 0 0 0
0.0353885 0.702345 0 0 0 0
0.0282416 0.206345 0 0 0 0
0.0221435 0.710345 0 0 0 0
0.0240088 0.198345 0 0 0 0
0.0276468 0.718345 0 0 0 0
0.0266665 0.190345 0 0 0 0
0.0315726 0.726345 0 0 0 0
0.0298329 0.182345 0 0 0 0
0.0288693 0.734345 0 0 0 0
0.0351393 0.174345 0 0 0 0
0.362839 0.140318 0 0 0 0
0.354671 0.140744 0 0 0 0
0.372135 0.144103 0 0 0 0
0.346539 0.141304 0 0 0 0
0.378311 0.136242 0 0 0 0
0.339689 0.146651 0 0 0 0
0.385955 0.133859 0 0 0 0
0.33054 0.143417 0 0 0 0
0.392403 0.127016 0 0 0 0
0.323618 0.148494 0 0 0 0
0.401271 0.129203 0 0 0 0
0.315576 0.149389 0 0 0 0
0.408534 0.125396 0 0 0 0
0.307944 0.151816 0 0 0 0
0.417117 0.12652 0 0 0 0
0.301734 0.159551 0 0 0 0
0.422678 0.116365 0 0 0 0
0.292722 0.156825 0 0 0 0
0.431561 0.118608 0 0 0 0
0.283927 0.154913 0 0 0 0
0.440309 0.120346 0 0 0 0
0.278414 0.165246 0 0 0 0
0.445248 0.107869 0 0 0 0
0.268745 0.160072 0 0 0 0
0.456816 0.120132 0 0 0 0
0.261035 0.162206 0 0 0 0
0.462871 0.111819 0 0 0 0
0.253263 0.164109 0 0 0 0
0.472274 0.116 0 0 0 0
0.245958 0.167757 0 0 0 0
0.476395 0.100472 0 0 0 0
0.238221 0.169791 0 0 0 0
0.485465 0.103411 0 0 0 0
0.22987 0.169534 0 0 0 0
0.494367 0.105726 0 0 0 0
0.222207 0.171847 0 0 0 0
0.500326 0.0970555 0 0 0 0
0.213628 0.17074 0 0 0 0
0.509097 0.0988782 0 0 0 0
0.207771 0.17979 0 0 0 0
0.51672 0.0964178 0 0 0 0
0.200052 0.181891 0 0 0 0
0.524465 0.0944136 0 0 0 0
0.191999 0.182745 0 0 0 0
0.533839 0.0984884 0 0 0 0
0.184515 0.185725 0 0 0 0
0.538901 0.0864695 0 0 0 0
0.175807 0.184137 0 0 0 0
0.548641 0.091912 0 0 0 0
0.166206 0.179216 0 0 0 0
0.554665 0.0834815 0 0 0 0
0.161014 0.19075 0 0 0 0
0.561679 0.0787477 0 0 0 0
0.551837 0.0444986 0 0 0 0
0.565283 0.0491753 0 0 0 0
0.556762 0.0348951 0 0 0 0
0.552868 0.0607873 0 0 0 0
0.541008 0.0308373 0 0 0 0
0.564834 0.065861 0 0 0 0
0.546987 0.020951 0 0 0 0
0.569161 0.0729835 0 0 0 0
0.543348 0.0136444 0 0 0 0
0.563791 0.0827061 0 0 0 0
0.55304 0.00276268 0 0 0 0
0.338382 0.0596543 0 0 0 0
0.345112 0.0538599 0 0 0 0
0.330363 0.0606352 0 0 0 0
0.353559 0.0544747 0 0 0 0
0.322851 0.0635113 0 0 0 0
0.361036 0.0514694 0 0 0 0
0.313409 0.0591827 0 0 0 0
0.368649 0.0489734 0 0 0 0
0.306363 0.0637959 0 0 0 0
0.37648 0.0472913 0 0 0 0
0.299251 0.0681651 0 0 0 0
0.385965 0.0517783 0 0 0 0
0.292163 0.0726213 0 0 0 0
0.392849 0.0465603 0 0 0 0
0.283135 0.0698363 0 0 0 0
0.400667 0.044829 0 0 0 0
0.276213 0.0749138 0 0 0 0
0.4081 0.0416582 0 0 0 0
0.269951 0.0824543 0 0 0 0
0.415036 0.0366345 0 0 0 0
0.260432 0.077836 0 0 0 0
0.420559 0.0263379 0 0 0 0
0.252799 0.0802601 0 0 0 0
0.429408 0.0284538 0 0 0 0
0.245084 0.0823764 0 0 0 0
0.439215 0.0341432 0 0 0 0
0.236472 0.0811461 0 0 0 0
0.446543 0.0305818 0 0 0 0
0.230516 0.0898275 0 0 0 0
0.45193 0.0197775 0 0 0 0
0.221464 0.086954 0 0 0 0
0.463912 0.033584 0 0 0 0
0.215452 0.0954264 0 0 0 0
0.47058 0.0275618 0 0 0 0
0.206043 0.0912235 0 0 0 0
0.477295 0.0217115 0 0 0 0
0.198359 0.0934564 0 0 0 0
0.484747 0.0186142 0 0 0 0
0.191408 0.098421 0 0 0 0
0.493722 0.0211968 0 0 0 0
0.182862 0.0974368 0 0 0 0
0.498885 0.00955672 0 0 0 0
0.174838 0.0984009 0 0 0 0
0.508634 0.01503 0 0 0 0
0.167201 0.100809 0 0 0 0
0.517604 0.0175991 0 0 0 0
0.160061 0.105072 0 0 0 0
0.524085 0.0108774 0 0 0 0
0.151344 0.10345 0 0 0 0
0.532258 0.0104696 0 0 0 0
0.144199 0.107695 0 0 0 0
0.538096 0.0013467 0 0 0 0
0.137096 0.112095 0 0 0 0
0.14396 0.155132 0 0 0 0
0.134307 0.149441 0 0 0 0
0.14824 0.162267 0 0 0 0
0.140915 0.139383 0 0 0 0
0.141392 0.172389 0 0 0 0
0.140352 0.131251 0 0 0 0
0.147895 0.178926 0 0 0 0
0.137028 0.12386 0 0 0 0
0.155419 0.185189 0 0 0 0
0.13605 0.115839 0 0 0 0
0.155259 0.193515 0 0 0 0
0.735479 0.030668 0 0 0 0
0.727512 0.0298799 0 0 0 0
0.742701 0.036854 0 0 0 0
0.719808 0.0271865 0 0 0 0
0.752052 0.0276184 0 0 0 0
0.712094 0.0245607 0 0 0 0
0.758797 0.037254 0 0 0 0
0.703788 0.026228 0 0 0 0
0.768267 0.0271598 0 0 0 0
0.695911 0.0247888 0 0 0 0
0.775027 0.0366921 0 0 0 0
0.687723 0.0256048 0 0 0 0
0.782216 0.0431098 0 0 0 0
0.681102 0.0150682 0 0 0 0
0.790796 0.0394645 0 0 0 0
0.67134 0.027273 0 0 0 0
0.798641 0.0411317 0 0 0 0
0.663609 0.0247775 0 0 0 0
0.80603 0.0461096 0 0 0 0
0.656024 0.0212233 0 0 0 0
0.815447 0.0363927 0 0 0 0
0.648243 0.0190851 0 0 0 0
0.823782 0.0345214 0 0 0 0
0.639571 0.0234053 0 0 0 0
0.830459 0.0446534 0 0 0 0
0.63283 0.0137343 0 0 0 0
0.838851 0.0423612 0 0 0 0
0.623838 0.0203703 0 0 0 0
0.84647 0.0456716 0 0 0 0
0.61553 0.0220519 0 0 0 0
0.85263 0.0595464 0 0 0 0
0.609595 0.00654483 0 0 0 0
0.863339 0.0404731 0 0 0 0
0.601151 0.0092164 0 0 0 0
0.870754 0.0452596 0 0 0 0
0.592533 0.0131357 0 0 0 0
0.879345 0.041533 0 0 0 0
0.585951 0.00231798 0 0 0 0
0.885482 0.0555761 0 0 0 0
0.577313 0.00638792 0 0 0 0
0.893575 0.0554509 0 0 0 0
0.8867 0.0897566 0 0 0 0
0.887406 0.081778 0 0 0 0
0.888018 0.0980158 0 0 0 0
0.893626 0.0745639 0 0 0 0
0.890099 0.106381 0 0 0 0
0.902791 0.0677582 0 0 0 0
0.882847 0.113452 0 0 0 0
0.896358 0.0587896 0 0 0 0
0.885939 0.121957 0 0 0 0
0.724981 0.106378 0 0 0 0
0.732441 0.110838 0 0 0 0
0.718174 0.09719 0 0 0 0
0.740662 0.109789 0 0 0 0
0.709345 0.102641 0 0 0 0
0.749283 0.105836 0 0 0 0
0.701312 0.10233 0 0 0 0
0.755738 0.117577 0 0 0 0
0.692887 0.104857 0 0 0 0
0.764461 0.112891 0 0 0 0
0.684748 0.105318 0 0 0 0
0.77254 0.112869 0 0 0 0
0.677479 0.0994752 0 0 0 0
0.780208 0.115821 0 0 0 0
0.669733 0.0970826 0 0 0 0
0.788656 0.113131 0 0 0 0
0.661829 0.0958376 0 0 0 0
0.796514 0.11471 0 0 0 0
0.653274 0.0993066 0 0 0 0
0.804409 0.116015 0 0 0 0
0.645946 0.0938892 0 0 0 0
0.812781 0.113872 0 0 0 0
0.638465 0.08958 0 0 0 0
0.819578 0.123134 0 0 0 0
0.630612 0.087969 0 0 0 0
0.828547 0.116664 0 0 0 0
0.621755 0.0936226 0 0 0 0
0.835608 0.124015 0 0 0 0
0.614097 0.0905977 0 0 0 0
0.843931 0.12223 0 0 0 0
0.607197 0.082086 0 0 0 0
0.851272 0.12755 0 0 0 0
0.598989 0.0830362 0 0 0 0
0.859357 0.127484 0 0 0 0
0.59003 0.0894367 0 0 0 0
0.866882 0.13147 0 0 0 0
0.583228 0.0802058 0 0 0 0
0.875505 0.127512 0 0 0 0
0.574035 0.0883009 0 0 0 0
0.883305 0.12951 0 0 0 0
0.565904 0.0886984 0 0 0 0
0.564831 0.0453114 0 0 0 0
0.577298 0.0551167 0 0 0 0
0.573192 0.0383942 0 0 0 0
0.568868 0.0620243 0 0 0 0
0.57622 0.0307376 0 0 0 0
0.56512 0.0695812 0 0 0 0
0.566288 0.0212838 0 0 0 0
0.560656 0.0770386 0 0 0 0
0.577354 0.0147418 0 0 0 0
0.83257 0.131574 0 0 0 0
0.84057 0.12942 0 0 0 0
0.82457 0.125189 0 0 0 0
0.84857 0.122129 0 0 0 0
0.81657 0.129185 0 0 0 0
0.85657 0.126763 0 0 0 0
0.80857 0.129691 0 0 0 0
0.86457 0.129177 0 0 0 0
0.80057 0.124031 0 0 0 0
0.87257 0.122176 0 0 0 0
0.79257 0.132284 0 0 0 0
0.88057 0.125419 0 0 0 0
0.78457 0.128631 0 0 0 0
0.781346 0.22642 0 0 0 0
0.773062 0.21842 0 0 0 0
0.778891 0.23442 0 0 0 0
0.779409 0.21042 0 0 0 0
0.77933 0.24242 0 0 0 0
0.776329 0.20242 0 0 0 0
0.786526 0.25042 0 0 0 0
0.77982 0.19442 0 0 0 0
0.7806 0.25842 0 0 0 0
0.781045 0.18642 0 0 0 0
0.775538 0.26642 0 0 0 0
0.778821 0.17842 0 0 0 0
0.78639 0.27442 0 0 0 0
0.778419 0.17042 0 0 0 0
0.776461 0.28242 0 0 0 0
0.774246 0.16242 0 0 0 0
0.778596 0.29042 0 0 0 0
0.779388 0.15442 0 0 0 0
0.783304 0.29842 0 0 0 0
0.781985 0.14642 0 0 0 0
0.783067 0.30642 0 0 0 0
0.780761 0.13842 0 0 0 0
0.780841 0.31442 0 0 0 0
0.779269 0.13042 0 0 0 0
0.776519 0.32242 0 0 0 0
0.83408 0.314902 0 0 0 0
0.82608 0.320098 0 0 0 0
0.84208 0.33057 0 0 0 0
0.81808 0.321759 0 0 0 0
0.85008 0.333348 0 0 0 0
0.81008 0.324517 0 0 0 0
0.85808 0.318827 0 0 0 0
0.80208 0.318259 0 0 0 0
0.86608 0.32673 0 0 0 0
0.79408 0.324561 0 0 0 0
0.87408 0.317588 0 0 0 0
0.78608 0.320052 0 0 0 0
0.88208 0.333755 0 0 0 0
0.880718 0.226506 0 0 0 0
0.887845 0.234398 0 0 0 0
0.881888 0.218487 0 0 0 0
0.889689 0.24237 0 0 0 0
0.890369 0.210356 0 0 0 0
0.88625 0.250424 0 0 0 0
0.885195 0.202435 0 0 0 0
0.887226 0.25841 0 0 0 0
0.894451 0.194292 0 0 0 0
0.892018 0.266338 0 0 0 0
0.88624 0.186417 0 0 0 0
0.893907 0.27431 0 0 0 0
0.87999 0.178511 0 0 0 0
0.888081 0.2824 0 0 0 0
0.886244 0.170415 0 0 0 0
0.882943 0.290479 0 0 0 0
0.880924 0.162495 0 0 0 0
0.887783 0.298406 0 0 0 0
0.894844 0.154281 0 0 0 0
0.886715 0.306423 0 0 0 0
0.886602 0.146406 0 0 0 0
0.890456 0.314367 0 0 0 0
0.885188 0.138427 0 0 0 0
0.878843 0.322546 0 0 0 0
0.884593 0.130435 0 0 0 0
0.76012 0.330001 0 0 0 0
0.76812 0.326232 0 0 0 0
0.75212 0.329469 0 0 0 0
0.77612 0.334041 0 0 0 0
0.74412 0.328909 0 0 0 0
0.78412 0.334886 0 0 0 0
0.73612 0.321186 0 0 0 0
0.79212 0.321328 0 0 0 0
0.72812 0.327104 0 0 0 0
0.80012 0.339223 0 0 0 0
0.72012 0.324388 0 0 0 0
0.80812 0.330769 0 0 0 0
0.71212 0.333383 0 0 0 0
0.81612 0.334629 0 0 0 0
0.70412 0.332472 0 0 0 0
0.82412 0.330396 0 0 0 0
0.69612 0.325655 0 0 0 0
0.83212 0.329882 0 0 0 0
0.68812 0.327601 0 0 0 0
0.84012 0.328931 0 0 0 0
0.68012 0.322574 0 0 0 0
0.84812 0.325713 0 0 0 0
0.67212 0.330188 0 0 0 0
0.85612 0.334242 0 0 0 0
0.66412 0.327706 0 0 0 0
0.86412 0.325082 0 0 0 0
0.65612 0.331596 0 0 0 0
0.87212 0.324674 0 0 0 0
0.64812 0.321924 0 0 0 0
0.88012 0.330864 0 0 0 0
0.64012 0.332591 0 0 0 0
0.88812 0.324015 0 0 0 0
0.63212 0.326551 0 0 0 0
0.89612 0.338029 0 0 0 0
0.62412 0.333751 0 0 0 0
0.90412 0.325164 0 0 0 0
0.61612 0.334064 0 0 0 0
0.91212 0.328828 0 0 0 0
0.60812 0.321153 0 0 0 0
0.92012 0.328565 0 0 0 0
0.60012 0.321475 0 0 0 0
0.92812 0.335534 0 0 0 0
0.59212 0.326297 0 0 0 0
0.93612 0.33243 0 0 0 0
0.58412 0.326612 0 0 0 0
0.94412 0.329912 0 0 0 0
0.57612 0.333585 0 0 0 0
0.95212 0.334714 0 0 0 0
0.56812 0.336901 0 0 0 0
0.561307 0.37536 0 0 0 0
0.565179 0.36736 0 0 0 0
0.569405 0.38336 0 0 0 0
0.56941 0.35936 0 0 0 0
0.568924 0.39136 0 0 0 0
0.567669 0.35136 0 0 0 0
0.559784 0.39936 0 0 0 0
0.558865 0.34336 0 0 0 0
0.563821 0.40736 0 0 0 0
0.566696 0.33536 0 0 0 0
0.569652 0.41536 0 0 0 0
0.76012 0.425299 0 0 0 0
0.75212 0.41535 0 0 0 0
0.76812 0.415854 0 0 0 0
0.74412 0.422351 0 0 0 0
0.77612 0.430944 0 0 0 0
0.73612 0.420853 0 0 0 0
0.78412 0.419668 0 0 0 0
0.72812 0.419355 0 0 0 0
0.79212 0.421361 0 0 0 0
0.72012 0.423238 0 0 0 0
0.80012 0.420698 0 0 0 0
0.71212 0.418549 0 0 0 0
0.80812 0.419937 0 0 0 0
0.70412 0.416888 0 0 0 0
0.81612 0.418744 0 0 0 0
0.69612 0.423432 0 0 0 0
0.82412 0.42685 0 0 0 0
0.68812 0.41799 0 0 0 0
0.83212 0.416127 0 0 0 0
0.68012 0.423869 0 0 0 0
0.84012 0.414476 0 0 0 0
0.67212 0.422259 0 0 0 0
0.84812 0.421229 0 0 0 0
0.66412 0.419243 0 0 0 0
0.85612 0.424564 0 0 0 0
0.65612 0.423877 0 0 0 0
0.86412 0.421603 0 0 0 0
0.64812 0.420791 0 0 0 0
0.87212 0.423249 0 0 0 0
0.64012 0.420788 0 0 0 0
0.88012 0.416267 0 0 0 0
0.63212 0.426658 0 0 0 0
0.88812 0.426308 0 0 0 0
0.62412 0.423387 0 0 0 0
0.89612 0.421451 0 0 0 0
0.61612 0.423875 0 0 0 0
0.90412 0.42241 0 0 0 0
0.60812 0.425867 0 0 0 0
0.91212 0.421956 0 0 0 0
0.60012 0.416156 0 0 0 0
0.92012 0.422647 0 0 0 0
0.59212 0.425625 0 0 0 0
0.92812 0.422833 0 0 0 0
0.58412 0.419676 0 0 0 0
0.93612 0.422326 0 0 0 0
0.57612 0.422193 0 0 0 0
0.94412 0.408613 0 0 0 0
0.56812 0.42568 0 0 0 0
0.95212 0.421278 0 0 0 0
0.949417 0.37536 0 0 0 0
0.951309 0.38336 0 0 0 0
0.952233 0.36736 0 0 0 0
0.951024 0.39136 0 0 0 0
0.953183 0.35936 0 0 0 0
0.952617 0.39936 0 0 0 0
0.945742 0.35136 0 0 0 0
0.954126 0.40736 0 0 0 0
0.950384 0.34336 0 0 0 0
0.952289 0.41536 0 0 0 0
0.951089 0.33536 0 0 0 0
