ply
format ascii 1.0
comment Generated by InputGen
element vertex 1212
property float x
property float y
property float z
property float nx
property float ny
property float nz
end_header
0.318295 0.899916 0 0 0 0
0.321421 0.911433 0 0 0 0
0.313429 0.894895 0 0 0 0
0.32773 0.911068 0 0 0 0
0.302032 0.914244 0 0 0 0
0.332134 0.917815 0 0 0 0
0.302614 0.88889 0 0 0 0
0.344804 0.893713 0 0 0 0
0.297481 0.884868 0 0 0 0
0.347695 0.906105 0 0 0 0
0.291234 0.884998 0 0 0 0
0.353374 0.908093 0 0 0 0
0.286629 0.879003 0 0 0 0
0.356854 0.918288 0 0 0 0
0.277707 0.889118 0 0 0 0
0.366344 0.906052 0 0 0 0
0.275531 0.874056 0 0 0 0
0.374017 0.900599 0 0 0 0
0.266198 0.885704 0 0 0 0
0.382368 0.892617 0 0 0 0
0.258384 0.891684 0 0 0 0
0.378348 0.930801 0 0 0 0
0.256572 0.875264 0 0 0 0
0.385908 0.925766 0 0 0 0
0.24978 0.877431 0 0 0 0
0.397778 0.90465 0 0 0 0
0.245892 0.86876 0 0 0 0
0.401394 0.914339 0 0 0 0
0.238177 0.874369 0 0 0 0
0.400226 0.941879 0 0 0 0
0.228882 0.885878 0 0 0 0
0.41108 0.924553 0 0 0 0
0.226356 0.872122 0 0 0 0
0.41752 0.9237 0 0 0 0
0.218406 0.878609 0 0 0 0
0.425784 0.91604 0 0 0 0
0.209283 0.889473 0 0 0 0
0.427875 0.93142 0 0 0 0
0.207707 0.872173 0 0 0 0
0.435747 0.925225 0 0 0 0
0.197429 0.887351 0 0 0 0
0.442993 0.921362 0 0 0 0
0.198039 0.861892 0 0 0 0
0.448908 0.922472 0 0 0 0
0.195296 0.848946 0 0 0 0
0.454707 0.924012 0 0 0 0
0.183117 0.871217 0 0 0 0
0.458009 0.934868 0 0 0 0
0.178988 0.863443 0 0 0 0
0.466532 0.926244 0 0 0 0
0.172777 0.863441 0 0 0 0
0.47208 0.928719 0 0 0 0
0.167826 0.858735 0 0 0 0
0.474265 0.943747 0 0 0 0
0.165484 0.844293 0 0 0 0
0.483075 0.934051 0 0 0 0
0.159938 0.84181 0 0 0 0
0.483095 0.95716 0 0 0 0
0.152581 0.846084 0 0 0 0
0.492109 0.9467 0 0 0 0
0.146261 0.846491 0 0 0 0
0.498202 0.947143 0 0 0 0
0.140111 0.846259 0 0 0 0
0.506939 0.937718 0 0 0 0
0.135574 0.840009 0 0 0 0
0.508597 0.954712 0 0 0 0
0.128757 0.842269 0 0 0 0
0.512686 0.962636 0 0 0 0
0.127376 0.824242 0 0 0 0
0.520705 0.955888 0 0 0 0
0.115443 0.845591 0 0 0 0
0.530523 0.942432 0 0 0 0
0.113421 0.829955 0 0 0 0
0.535432 0.947291 0 0 0 0
0.105349 0.8369 0 0 0 0
0.539703 0.954535 0 0 0 0
0.0970509 0.844686 0 0 0 0
0.54806 0.946529 0 0 0 0
0.095293 0.828064 0 0 0 0
0.553283 0.950217 0 0 0 0
0.0856839 0.840744 0 0 0 0
0.558762 0.952953 0 0 0 0
0.0788873 0.842927 0 0 0 0
0.561017 0.967719 0 0 0 0
0.0766955 0.827924 0 0 0 0
0.0726969 0.782257 0 0 0 0
0.0788659 0.79012 0 0 0 0
0.0988669 0.783053 0 0 0 0
0.0792048 0.796422 0 0 0 0
0.104467 0.778341 0 0 0 0
0.0939953 0.806594 0 0 0 0
0.0783808 0.765144 0 0 0 0
0.0797493 0.80899 0 0 0 0
0.0830413 0.760181 0 0 0 0
0.0793355 0.815091 0 0 0 0
0.0986498 0.758149 0 0 0 0
0.0760512 0.820423 0 0 0 0
0.0943806 0.750794 0 0 0 0
0.0553606 0.821094 0 0 0 0
0.0936055 0.744376 0 0 0 0
0.331834 0.800279 0 0 0 0
0.325805 0.799595 0 0 0 0
0.338911 0.797047 0 0 0 0
0.315445 0.815077 0 0 0 0
0.343494 0.803126 0 0 0 0
0.314089 0.796955 0 0 0 0
0.346381 0.815534 0 0 0 0
0.312067 0.781319 0 0 0 0
0.354377 0.808877 0 0 0 0
0.304242 0.787341 0 0 0 0
0.356076 0.825719 0 0 0 0
0.296058 0.794701 0 0 0 0
0.366879 0.808581 0 0 0 0
0.290489 0.792304 0 0 0 0
0.373178 0.808254 0 0 0 0
0.290023 0.770861 0 0 0 0
0.378339 0.812177 0 0 0 0
0.276699 0.797406 0 0 0 0
0.379451 0.831211 0 0 0 0
0.270886 0.795918 0 0 0 0
0.387001 0.826217 0 0 0 0
0.266475 0.789198 0 0 0 0
0.39695 0.812265 0 0 0 0
0.263416 0.777432 0 0 0 0
0.403388 0.81142 0 0 0 0
0.253763 0.790275 0 0 0 0
0.410917 0.806505 0 0 0 0
0.253302 0.76881 0 0 0 0
0.414959 0.814601 0 0 0 0
0.236905 0.806828 0 0 0 0
0.418937 0.822937 0 0 0 0
0.239189 0.775117 0 0 0 0
0.421794 0.835459 0 0 0 0
0.233017 0.77497 0 0 0 0
0.434602 0.810839 0 0 0 0
0.226196 0.777245 0 0 0 0
0.434838 0.83314 0 0 0 0
0.224498 0.760397 0 0 0 0
0.435282 0.85467 0 0 0 0
0.216134 0.768431 0 0 0 0
0.448368 0.82901 0 0 0 0
0.207826 0.776257 0 0 0 0
0.452675 0.836118 0 0 0 0
0.200051 0.782092 0 0 0 0
0.457748 0.840369 0 0 0 0
0.199663 0.760354 0 0 0 0
0.466099 0.832386 0 0 0 0
0.192518 0.76384 0 0 0 0
0.46855 0.84642 0 0 0 0
0.188688 0.754949 0 0 0 0
0.473926 0.849541 0 0 0 0
0.178152 0.77109 0 0 0 0
0.480171 0.849415 0 0 0 0
0.173311 0.765975 0 0 0 0
0.488857 0.840179 0 0 0 0
0.1713 0.750298 0 0 0 0
0.49779 0.830023 0 0 0 0
0.164819 0.751302 0 0 0 0
0.502011 0.837453 0 0 0 0
0.157516 0.755375 0 0 0 0
0.508504 0.836404 0 0 0 0
0.148165 0.767093 0 0 0 0
0.512191 0.845827 0 0 0 0
0.145169 0.755091 0 0 0 0
0.514093 0.861909 0 0 0 0
0.13955 0.752878 0 0 0 0
0.521729 0.856595 0 0 0 0
0.131991 0.757907 0 0 0 0
0.528644 0.853968 0 0 0 0
0.127976 0.749707 0 0 0 0
0.534534 0.855168 0 0 0 0
0.121484 0.750756 0 0 0 0
0.541743 0.851445 0 0 0 0
0.114973 0.751871 0 0 0 0
0.544394 0.864738 0 0 0 0
0.116062 0.724623 0 0 0 0
0.551312 0.862098 0 0 0 0
0.102406 0.752407 0 0 0 0
0.55959 0.854388 0 0 0 0
0.100762 0.735363 0 0 0 0
0.565058 0.857161 0 0 0 0
0.729137 0.831337 0 0 0 0
0.720485 0.82223 0 0 0 0
0.734482 0.828102 0 0 0 0
0.71584 0.828079 0 0 0 0
0.735635 0.809225 0 0 0 0
0.712125 0.837395 0 0 0 0
0.744769 0.820131 0 0 0 0
0.702219 0.823611 0 0 0 0
0.74747 0.807032 0 0 0 0
0.696985 0.827259 0 0 0 0
0.757672 0.82192 0 0 0 0
0.688597 0.819136 0 0 0 0
0.762494 0.816734 0 0 0 0
0.682081 0.818002 0 0 0 0
0.770416 0.823116 0 0 0 0
0.678871 0.829201 0 0 0 0
0.778323 0.829444 0 0 0 0
0.672115 0.827172 0 0 0 0
0.778964 0.808655 0 0 0 0
0.666797 0.830507 0 0 0 0
0.786424 0.813316 0 0 0 0
0.662364 0.837142 0 0 0 0
0.792581 0.81311 0 0 0 0
0.656625 0.838906 0 0 0 0
0.796252 0.803631 0 0 0 0
0.654 0.852293 0 0 0 0
0.802771 0.804776 0 0 0 0
0.645389 0.84334 0 0 0 0
0.812209 0.816815 0 0 0 0
0.638846 0.842102 0 0 0 0
0.814202 0.801073 0 0 0 0
0.633942 0.846981 0 0 0 0
0.820175 0.80018 0 0 0 0
0.628885 0.851292 0 0 0 0
0.825515 0.796929 0 0 0 0
0.620055 0.84152 0 0 0 0
0.832328 0.799173 0 0 0 0
0.611912 0.834313 0 0 0 0
0.835491 0.787796 0 0 0 0
0.610668 0.852851 0 0 0 0
0.840268 0.782441 0 0 0 0
0.601317 0.841136 0 0 0 0
0.852736 0.805788 0 0 0 0
0.600405 0.860913 0 0 0 0
0.854575 0.789469 0 0 0 0
0.595067 0.864173 0 0 0 0
0.860712 0.789192 0 0 0 0
0.591743 0.874949 0 0 0 0
0.870539 0.802682 0 0 0 0
0.581049 0.858223 0 0 0 0
0.869191 0.774473 0 0 0 0
0.575959 0.862408 0 0 0 0
0.880788 0.79457 0 0 0 0
0.568054 0.856092 0 0 0 0
0.883016 0.779704 0 0 0 0
0.725622 0.91632 0 0 0 0
0.719053 0.914988 0 0 0 0
0.735352 0.929448 0 0 0 0
0.71331 0.916736 0 0 0 0
0.738733 0.918887 0 0 0 0
0.710175 0.928218 0 0 0 0
0.744351 0.916673 0 0 0 0
0.703112 0.92504 0 0 0 0
0.752671 0.924538 0 0 0 0
0.695285 0.919014 0 0 0 0
0.755707 0.91269 0 0 0 0
0.691227 0.927051 0 0 0 0
0.758986 0.901743 0 0 0 0
0.689147 0.942469 0 0 0 0
0.766766 0.907598 0 0 0 0
0.682379 0.940391 0 0 0 0
0.774116 0.911844 0 0 0 0
0.679209 0.951743 0 0 0 0
0.776897 0.899043 0 0 0 0
0.672897 0.951368 0 0 0 0
0.784283 0.903425 0 0 0 0
0.657143 0.91576 0 0 0 0
0.788363 0.895469 0 0 0 0
0.658391 0.943598 0 0 0 0
0.792505 0.887746 0 0 0 0
0.651448 0.940868 0 0 0 0
0.803208 0.904506 0 0 0 0
0.646519 0.945654 0 0 0 0
0.804141 0.884809 0 0 0 0
0.636722 0.932275 0 0 0 0
0.812692 0.893536 0 0 0 0
0.631684 0.936656 0 0 0 0
0.817814 0.889473 0 0 0 0
0.631614 0.959576 0 0 0 0
0.822494 0.883757 0 0 0 0
0.622251 0.947816 0 0 0 0
0.8354 0.908735 0 0 0 0
0.6152 0.944683 0 0 0 0
0.836973 0.891425 0 0 0 0
0.610572 0.950594 0 0 0 0
0.838498 0.873937 0 0 0 0
0.608348 0.965472 0 0 0 0
0.848695 0.888809 0 0 0 0
0.605544 0.978189 0 0 0 0
0.855372 0.890544 0 0 0 0
0.589197 0.940371 0 0 0 0
0.85565 0.868402 0 0 0 0
0.585819 0.950944 0 0 0 0
0.861949 0.868727 0 0 0 0
0.580815 0.955449 0 0 0 0
0.869628 0.874203 0 0 0 0
0.573905 0.952846 0 0 0 0
0.875875 0.874337 0 0 0 0
0.566889 0.949842 0 0 0 0
0.879678 0.865349 0 0 0 0
0.911368 0.70779 0 0 0 0
0.892404 0.71379 0 0 0 0
0.875813 0.70179 0 0 0 0
0.88766 0.71979 0 0 0 0
0.890279 0.69579 0 0 0 0
0.882959 0.72579 0 0 0 0
0.891446 0.68979 0 0 0 0
0.876304 0.73179 0 0 0 0
0.888072 0.68379 0 0 0 0
0.890304 0.73779 0 0 0 0
0.898129 0.67779 0 0 0 0
0.886301 0.74379 0 0 0 0
0.906712 0.67179 0 0 0 0
0.87842 0.74979 0 0 0 0
0.885324 0.66579 0 0 0 0
0.903419 0.75579 0 0 0 0
0.884089 0.65979 0 0 0 0
0.886769 0.76179 0 0 0 0
0.883899 0.65379 0 0 0 0
0.896677 0.76779 0 0 0 0
0.893303 0.64779 0 0 0 0
0.88737 0.77379 0 0 0 0
0.888751 0.64179 0 0 0 0
0.93806 0.635748 0 0 0 0
0.93206 0.639199 0 0 0 0
0.94406 0.64048 0 0 0 0
0.92606 0.640701 0 0 0 0
0.95006 0.641583 0 0 0 0
0.92006 0.637949 0 0 0 0
0.95606 0.62462 0 0 0 0
0.91406 0.633254 0 0 0 0
0.96206 0.639083 0 0 0 0
0.90806 0.643265 0 0 0 0
0.96806 0.645776 0 0 0 0
0.90206 0.638926 0 0 0 0
0.97406 0.642429 0 0 0 0
0.89606 0.637711 0 0 0 0
0.98006 0.656912 0 0 0 0
0.89006 0.627745 0 0 0 0
0.98606 0.634582 0 0 0 0
0.985485 0.812515 0 0 0 0
0.99384 0.806515 0 0 0 0
0.985245 0.818515 0 0 0 0
1.00206 0.800515 0 0 0 0
0.981879 0.824515 0 0 0 0
0.98639 0.794515 0 0 0 0
0.988406 0.830515 0 0 0 0
1.00081 0.788515 0 0 0 0
0.977808 0.836515 0 0 0 0
0.991171 0.782515 0 0 0 0
0.996408 0.842515 0 0 0 0
0.99773 0.776515 0 0 0 0
0.993609 0.848515 0 0 0 0
0.986525 0.770515 0 0 0 0
0.972926 0.854515 0 0 0 0
0.98524 0.764515 0 0 0 0
0.989237 0.860515 0 0 0 0
0.983882 0.758515 0 0 0 0
0.986644 0.866515 0 0 0 0
0.992839 0.752515 0 0 0 0
0.995319 0.872515 0 0 0 0
0.998454 0.746515 0 0 0 0
0.985977 0.878515 0 0 0 0
0.981427 0.740515 0 0 0 0
0.996583 0.884515 0 0 0 0
0.979432 0.734515 0 0 0 0
1.00422 0.890515 0 0 0 0
0.970943 0.728515 0 0 0 0
0.976781 0.896515 0 0 0 0
0.992728 0.722515 0 0 0 0
0.997382 0.902515 0 0 0 0
0.989758 0.716515 0 0 0 0
0.992614 0.908515 0 0 0 0
0.97687 0.710515 0 0 0 0
0.977017 0.914515 0 0 0 0
0.97928 0.704515 0 0 0 0
0.99642 0.920515 0 0 0 0
0.995574 0.698515 0 0 0 0
1.00024 0.926515 0 0 0 0
1.00089 0.692515 0 0 0 0
0.996267 0.932515 0 0 0 0
0.984219 0.686515 0 0 0 0
0.985825 0.938515 0 0 0 0
0.988052 0.680515 0 0 0 0
0.995608 0.944515 0 0 0 0
0.988534 0.674515 0 0 0 0
0.989866 0.950515 0 0 0 0
0.987297 0.668515 0 0 0 0
0.998847 0.956515 0 0 0 0
0.974856 0.662515 0 0 0 0
0.971986 0.962515 0 0 0 0
0.993631 0.656515 0 0 0 0
0.974237 0.968515 0 0 0 0
0.996038 0.650515 0 0 0 0
0.986125 0.974515 0 0 0 0
0.999504 0.644515 0 0 0 0
0.988062 0.980515 0 0 0 0
0.965442 0.638515 0 0 0 0
0.989472 0.986515 0 0 0 0
0.93806 0.974996 0 0 0 0
0.94406 0.999402 0 0 0 0
0.93206 0.98749 0 0 0 0
0.95006 0.983375 0 0 0 0
0.92606 0.979448 0 0 0 0
0.95606 0.995554 0 0 0 0
0.92006 0.993565 0 0 0 0
0.96206 0.983266 0 0 0 0
0.91406 0.96407 0 0 0 0
0.96806 0.973504 0 0 0 0
0.90806 1.00474 0 0 0 0
0.97406 0.967491 0 0 0 0
0.90206 0.98225 0 0 0 0
0.98006 0.973879 0 0 0 0
0.89606 0.988587 0 0 0 0
0.98606 0.984472 0 0 0 0
0.89006 0.989899 0 0 0 0
0.896344 0.933555 0 0 0 0
0.883433 0.939555 0 0 0 0
0.893029 0.927555 0 0 0 0
0.89514 0.945555 0 0 0 0
0.898904 0.921555 0 0 0 0
0.903793 0.951555 0 0 0 0
0.893479 0.915555 0 0 0 0
0.865518 0.957555 0 0 0 0
0.891087 0.909555 0 0 0 0
0.889297 0.963555 0 0 0 0
0.901995 0.903555 0 0 0 0
0.888879 0.969555 0 0 0 0
0.875187 0.897555 0 0 0 0
0.878382 0.975555 0 0 0 0
0.88751 0.891555 0 0 0 0
0.888706 0.981555 0 0 0 0
0.881739 0.885555 0 0 0 0
0.865315 0.987555 0 0 0 0
0.900137 0.879555 0 0 0 0
0.0856 0.182083 0 0 0 0
0.0796 0.169445 0 0 0 0
0.0916 0.175866 0 0 0 0
0.0736 0.158728 0 0 0 0
0.0976 0.155036 0 0 0 0
0.0676 0.179492 0 0 0 0
0.1036 0.172127 0 0 0 0
0.0616 0.169278 0 0 0 0
0.1096 0.156263 0 0 0 0
0.0556 0.17486 0 0 0 0
0.1156 0.151746 0 0 0 0
0.0496 0.171082 0 0 0 0
0.1216 0.150971 0 0 0 0
0.0436 0.16144 0 0 0 0
0.1276 0.159768 0 0 0 0
0.0376 0.161737 0 0 0 0
0.1336 0.149679 0 0 0 0
0.143941 0.45343 0 0 0 0
0.128898 0.44743 0 0 0 0
0.126623 0.45943 0 0 0 0
0.126984 0.44143 0 0 0 0
0.132171 0.46543 0 0 0 0
0.134025 0.43543 0 0 0 0
0.14362 0.47143 0 0 0 0
0.148454 0.42943 0 0 0 0
0.111469 0.47743 0 0 0 0
0.135771 0.42343 0 0 0 0
0.129343 0.48343 0 0 0 0
0.140707 0.41743 0 0 0 0
0.131443 0.48943 0 0 0 0
0.149382 0.41143 0 0 0 0
0.129713 0.49543 0 0 0 0
0.144086 0.40543 0 0 0 0
0.14983 0.50143 0 0 0 0
0.131439 0.39943 0 0 0 0
0.137345 0.50743 0 0 0 0
0.12828 0.39343 0 0 0 0
0.137751 0.51343 0 0 0 0
0.135726 0.38743 0 0 0 0
0.119092 0.51943 0 0 0 0
0.139302 0.38143 0 0 0 0
0.131291 0.52543 0 0 0 0
0.150576 0.37543 0 0 0 0
0.137988 0.53143 0 0 0 0
0.130944 0.36943 0 0 0 0
0.125314 0.53743 0 0 0 0
0.13142 0.36343 0 0 0 0
0.141689 0.54343 0 0 0 0
0.109357 0.35743 0 0 0 0
0.133873 0.54943 0 0 0 0
0.12244 0.35143 0 0 0 0
0.127949 0.55543 0 0 0 0
0.153273 0.34543 0 0 0 0
0.153008 0.56143 0 0 0 0
0.121089 0.33943 0 0 0 0
0.12283 0.56743 0 0 0 0
0.133538 0.33343 0 0 0 0
0.1368 0.57343 0 0 0 0
0.124023 0.32743 0 0 0 0
0.141639 0.57943 0 0 0 0
0.130297 0.32143 0 0 0 0
0.145836 0.58543 0 0 0 0
0.133459 0.31543 0 0 0 0
0.135517 0.59143 0 0 0 0
0.144323 0.30943 0 0 0 0
0.124899 0.59743 0 0 0 0
0.130452 0.30343 0 0 0 0
0.120388 0.60343 0 0 0 0
0.150527 0.29743 0 0 0 0
0.14164 0.60943 0 0 0 0
0.141774 0.29143 0 0 0 0
0.129241 0.61543 0 0 0 0
0.130695 0.28543 0 0 0 0
0.140749 0.62143 0 0 0 0
0.143732 0.27943 0 0 0 0
0.13468 0.62743 0 0 0 0
0.1475 0.27343 0 0 0 0
0.141153 0.63343 0 0 0 0
0.148073 0.26743 0 0 0 0
0.160908 0.63943 0 0 0 0
0.139319 0.26143 0 0 0 0
0.141731 0.64543 0 0 0 0
0.128275 0.25543 0 0 0 0
0.133387 0.65143 0 0 0 0
0.129822 0.24943 0 0 0 0
0.139032 0.65743 0 0 0 0
0.145518 0.24343 0 0 0 0
0.124445 0.66343 0 0 0 0
0.128081 0.23743 0 0 0 0
0.117159 0.66943 0 0 0 0
0.126298 0.23143 0 0 0 0
0.13487 0.67543 0 0 0 0
0.142842 0.22543 0 0 0 0
0.143027 0.68143 0 0 0 0
0.124252 0.21943 0 0 0 0
0.141084 0.68743 0 0 0 0
0.129331 0.21343 0 0 0 0
0.152461 0.69343 0 0 0 0
0.129563 0.20743 0 0 0 0
0.13092 0.69943 0 0 0 0
0.141907 0.20143 0 0 0 0
0.137545 0.70543 0 0 0 0
0.127022 0.19543 0 0 0 0
0.131 0.71143 0 0 0 0
0.147711 0.18943 0 0 0 0
0.141382 0.71743 0 0 0 0
0.119276 0.18343 0 0 0 0
0.130659 0.72343 0 0 0 0
0.137982 0.17743 0 0 0 0
0.129716 0.72943 0 0 0 0
0.109771 0.17143 0 0 0 0
0.106629 0.73543 0 0 0 0
0.08195 0.717446 0 0 0 0
0.08795 0.731804 0 0 0 0
0.07595 0.727961 0 0 0 0
0.09395 0.73918 0 0 0 0
0.06995 0.730958 0 0 0 0
0.09995 0.746927 0 0 0 0
0.06395 0.750347 0 0 0 0
0.10595 0.748965 0 0 0 0
0.05795 0.749446 0 0 0 0
0.11195 0.75114 0 0 0 0
0.05195 0.729404 0 0 0 0
0.11795 0.725406 0 0 0 0
0.04595 0.739057 0 0 0 0
0.12395 0.762238 0 0 0 0
0.03995 0.748602 0 0 0 0
0.12995 0.721879 0 0 0 0
0.03395 0.735757 0 0 0 0
0.0110889 0.454345 0 0 0 0
0.0353152 0.460345 0 0 0 0
0.0243704 0.448345 0 0 0 0
0.0361481 0.466345 0 0 0 0
0.0290452 0.442345 0 0 0 0
0.0392419 0.472345 0 0 0 0
0.044801 0.436345 0 0 0 0
0.0464234 0.478345 0 0 0 0
0.0238248 0.430345 0 0 0 0
0.0142899 0.484345 0 0 0 0
0.0328331 0.424345 0 0 0 0
0.0467848 0.490345 0 0 0 0
0.0215509 0.418345 0 0 0 0
0.0223363 0.496345 0 0 0 0
0.0232028 0.412345 0 0 0 0
0.0266713 0.502345 0 0 0 0
0.0400278 0.406345 0 0 0 0
0.0423995 0.508345 0 0 0 0
0.0193197 0.400345 0 0 0 0
0.04535 0.514345 0 0 0 0
0.0264695 0.394345 0 0 0 0
0.0309704 0.520345 0 0 0 0
0.0173455 0.388345 0 0 0 0
0.0357833 0.526345 0 0 0 0
0.0274869 0.382345 0 0 0 0
0.0218951 0.532345 0 0 0 0
0.0222111 0.376345 0 0 0 0
0.0224359 0.538345 0 0 0 0
0.0471485 0.370345 0 0 0 0
0.0192569 0.544345 0 0 0 0
0.0205655 0.364345 0 0 0 0
0.0342275 0.550345 0 0 0 0
0.0316837 0.358345 0 0 0 0
0.0332992 0.556345 0 0 0 0
0.0266836 0.352345 0 0 0 0
0.0273013 0.562345 0 0 0 0
0.0420073 0.346345 0 0 0 0
0.0258552 0.568345 0 0 0 0
0.0366971 0.340345 0 0 0 0
0.035562 0.574345 0 0 0 0
0.0163056 0.334345 0 0 0 0
0.0442489 0.580345 0 0 0 0
0.0274328 0.328345 0 0 0 0
0.0214599 0.586345 0 0 0 0
0.0316948 0.322345 0 0 0 0
0.0246111 0.592345 0 0 0 0
0.0218564 0.316345 0 0 0 0
0.0291602 0.598345 0 0 0 0
0.0502586 0.310345 0 0 0 0
0.0311509 0.604345 0 0 0 0
0.0349427 0.304345 0 0 0 0
0.03436 0.610345 0 0 0 0
0.0150771 0.298345 0 0 0 0
0.0349109 0.616345 0 0 0 0
0.0437484 0.292345 0 0 0 0
0.0399292 0.622345 0 0 0 0
0.0323143 0.286345 0 0 0 0
0.0446945 0.628345 0 0 0 0
0.0337318 0.280345 0 0 0 0
0.0304063 0.634345 0 0 0 0
0.00981139 0.274345 0 0 0 0
0.016951 0.640345 0 0 0 0
0.0378745 0.268345 0 0 0 0
0.0436157 0.646345 0 0 0 0
0.0390615 0.262345 0 0 0 0
0.0408565 0.652345 0 0 0 0
0.0343762 0.256345 0 0 0 0
0.019301 0.658345 0 0 0 0
0.0210348 0.250345 0 0 0 0
0.0412489 0.664345 0 0 0 0
0.0232661 0.244345 0 0 0 0
0.0340666 0.670345 0 0 0 0
0.0368322 0.238345 0 0 0 0
0.0331729 0.676345 0 0 0 0
0.0366709 0.232345 0 0 0 0
0.0299298 0.682345 0 0 0 0
0.0222368 0.226345 0 0 0 0
0.022564 0.688345 0 0 0 0
0.0224351 0.220345 0 0 0 0
0.0317141 0.694345 0 0 0 0
0.00600351 0.214345 0 0 0 0
0.0224044 0.700345 0 0 0 0
0.0136411 0.208345 0 0 0 0
0.0506055 0.706345 0 0 0 0
0.022714 0.202345 0 0 0 0
0.0293568 0.712345 0 0 0 0
0.0230313 0.196345 0 0 0 0
0.0390524 0.718345 0 0 0 0
0.0264224 0.190345 0 0 0 0
0.0228701 0.724345 0 0 0 0
0.0103325 0.184345 0 0 0 0
0.0374498 0.730345 0 0 0 0
0.0321995 0.178345 0 0 0 0
0.0407594 0.736345 0 0 0 0
0.0490084 0.172345 0 0 0 0
0.360382 0.131149 0 0 0 0
0.355658 0.136702 0 0 0 0
0.366602 0.131179 0 0 0 0
0.349138 0.135551 0 0 0 0
0.374968 0.139222 0 0 0 0
0.349438 0.159854 0 0 0 0
0.377549 0.125669 0 0 0 0
0.341778 0.154446 0 0 0 0
0.385411 0.13183 0 0 0 0
0.334782 0.151521 0 0 0 0
0.388271 0.11932 0 0 0 0
0.328864 0.152617 0 0 0 0
0.396798 0.127963 0 0 0 0
0.325135 0.161883 0 0 0 0
0.405115 0.135821 0 0 0 0
0.317471 0.15646 0 0 0 0
0.408177 0.124066 0 0 0 0
0.311321 0.156691 0 0 0 0
0.4122 0.115895 0 0 0 0
0.306367 0.161385 0 0 0 0
0.418288 0.115434 0 0 0 0
0.304534 0.177726 0 0 0 0
0.426305 0.122172 0 0 0 0
0.2932 0.158611 0 0 0 0
0.431587 0.118702 0 0 0 0
0.288303 0.163518 0 0 0 0
0.437544 0.117751 0 0 0 0
0.281057 0.159657 0 0 0 0
0.445549 0.124448 0 0 0 0
0.275965 0.163836 0 0 0 0
0.454698 0.135409 0 0 0 0
0.266642 0.152222 0 0 0 0
0.452409 0.103684 0 0 0 0
0.259078 0.147174 0 0 0 0
0.462321 0.117492 0 0 0 0
0.253164 0.148284 0 0 0 0
0.459832 0.0850192 0 0 0 0
0.256534 0.184047 0 0 0 0
0.466823 0.0879285 0 0 0 0
0.247847 0.174809 0 0 0 0
0.479041 0.110348 0 0 0 0
0.238544 0.16327 0 0 0 0
0.486849 0.116305 0 0 0 0
0.234192 0.170212 0 0 0 0
0.493318 0.117266 0 0 0 0
0.229391 0.175476 0 0 0 0
0.498317 0.112738 0 0 0 0
0.222413 0.172617 0 0 0 0
0.49789 0.0879609 0 0 0 0
0.215433 0.169749 0 0 0 0
0.505454 0.093011 0 0 0 0
0.212195 0.180845 0 0 0 0
0.515904 0.108827 0 0 0 0
0.203842 0.172855 0 0 0 0
0.515435 0.083893 0 0 0 0
0.195747 0.165824 0 0 0 0
0.527317 0.105057 0 0 0 0
0.192481 0.176817 0 0 0 0
0.530775 0.0947794 0 0 0 0
0.18891 0.186672 0 0 0 0
0.534579 0.0857938 0 0 0 0
0.183155 0.188377 0 0 0 0
0.546811 0.108265 0 0 0 0
0.179144 0.196593 0 0 0 0
0.548612 0.0918021 0 0 0 0
0.168678 0.180715 0 0 0 0
0.550286 0.0748666 0 0 0 0
0.166461 0.195621 0 0 0 0
0.559089 0.0845387 0 0 0 0
0.163089 0.20622 0 0 0 0
0.567877 0.094153 0 0 0 0
0.542988 0.0468714 0 0 0 0
0.534687 0.0553097 0 0 0 0
0.54424 0.0403239 0 0 0 0
0.561445 0.0543459 0 0 0 0
0.548931 0.0328537 0 0 0 0
0.558471 0.0613555 0 0 0 0
0.5371 0.0298145 0 0 0 0
0.570745 0.064276 0 0 0 0
0.539801 0.0228782 0 0 0 0
0.570637 0.070517 0 0 0 0
0.546196 0.0149513 0 0 0 0
0.54871 0.0826091 0 0 0 0
0.544742 0.00912916 0 0 0 0
0.334809 0.046321 0 0 0 0
0.342509 0.0518753 0 0 0 0
0.335841 0.0733533 0 0 0 0
0.348826 0.0522658 0 0 0 0
0.327051 0.063729 0 0 0 0
0.355772 0.0550087 0 0 0 0
0.324553 0.07759 0 0 0 0
0.359954 0.0474316 0 0 0 0
0.313824 0.0607317 0 0 0 0
0.364126 0.0398229 0 0 0 0
0.308476 0.063956 0 0 0 0
0.370307 0.0397068 0 0 0 0
0.306016 0.0779571 0 0 0 0
0.381142 0.0569625 0 0 0 0
0.297207 0.068261 0 0 0 0
0.380912 0.032919 0 0 0 0
0.290647 0.066963 0 0 0 0
0.390324 0.0448648 0 0 0 0
0.282976 0.0615163 0 0 0 0
0.396676 0.0453888 0 0 0 0
0.282904 0.0844281 0 0 0 0
0.399647 0.0332936 0 0 0 0
0.276498 0.0837047 0 0 0 0
0.405639 0.0324743 0 0 0 0
0.268731 0.0779006 0 0 0 0
0.412963 0.0366261 0 0 0 0
0.261297 0.0733374 0 0 0 0
0.424975 0.0582734 0 0 0 0
0.259395 0.0894232 0 0 0 0
0.423646 0.0301289 0 0 0 0
0.251341 0.0825444 0 0 0 0
0.430963 0.0342544 0 0 0 0
0.247732 0.0922576 0 0 0 0
0.437212 0.034396 0 0 0 0
0.239357 0.0841848 0 0 0 0
0.440542 0.0236389 0 0 0 0
0.236997 0.09856 0 0 0 0
0.450802 0.0387487 0 0 0 0
0.225967 0.0805791 0 0 0 0
0.45191 0.0197028 0 0 0 0
0.223468 0.0944321 0 0 0 0
0.459116 0.0234122 0 0 0 0
0.216524 0.0917005 0 0 0 0
0.465246 0.0231072 0 0 0 0
0.20982 0.0898646 0 0 0 0
0.469167 0.0145593 0 0 0 0
0.210417 0.115275 0 0 0 0
0.474784 0.0123386 0 0 0 0
0.204059 0.114729 0 0 0 0
0.484127 0.0240252 0 0 0 0
0.190333 0.0866843 0 0 0 0
0.487992 0.0152688 0 0 0 0
0.190504 0.110504 0 0 0 0
0.494797 0.0174831 0 0 0 0
0.180842 0.0976278 0 0 0 0
0.49782 0.00558451 0 0 0 0
0.173766 0.0944024 0 0 0 0
0.508108 0.0207965 0 0 0 0
0.167677 0.0948582 0 0 0 0
0.513053 0.016068 0 0 0 0
0.158675 0.0844452 0 0 0 0
0.517001 0.00761915 0 0 0 0
0.161687 0.118869 0 0 0 0
0.52419 0.0112675 0 0 0 0
0.150811 0.101461 0 0 0 0
0.530316 0.01095 0 0 0 0
0.146987 0.11037 0 0 0 0
0.53488 0.00479756 0 0 0 0
0.134416 0.0866392 0 0 0 0
0.538583 -0.00456252 0 0 0 0
0.133308 0.105684 0 0 0 0
0.161905 0.150314 0 0 0 0
0.147899 0.147862 0 0 0 0
0.144006 0.161332 0 0 0 0
0.131214 0.14613 0 0 0 0
0.146751 0.166808 0 0 0 0
0.143024 0.136746 0 0 0 0
0.134192 0.176393 0 0 0 0
0.12621 0.135049 0 0 0 0
0.147039 0.179156 0 0 0 0
0.135762 0.126271 0 0 0 0
0.153106 0.183739 0 0 0 0
0.132053 0.121054 0 0 0 0
0.151732 0.190321 0 0 0 0
0.133502 0.114453 0 0 0 0
0.163574 0.193353 0 0 0 0
0.737036 0.0193943 0 0 0 0
0.729805 0.0278968 0 0 0 0
0.740966 0.0347962 0 0 0 0
0.722898 0.034048 0 0 0 0
0.745047 0.0491031 0 0 0 0
0.719908 0.0118409 0 0 0 0
0.755976 0.0138196 0 0 0 0
0.71101 0.0324114 0 0 0 0
0.759991 0.0286093 0 0 0 0
0.705591 0.0277935 0 0 0 0
0.76613 0.0280165 0 0 0 0
0.700904 0.0178754 0 0 0 0
0.768643 0.0536774 0 0 0 0
0.695897 0.0102697 0 0 0 0
0.778826 0.0237984 0 0 0 0
0.688491 0.0200386 0 0 0 0
0.783172 0.0361923 0 0 0 0
0.680103 0.0369249 0 0 0 0
0.786912 0.0529652 0 0 0 0
0.677938 0.008739 0 0 0 0
0.794103 0.044752 0 0 0 0
0.672181 0.00656613 0 0 0 0
0.801172 0.0374291 0 0 0 0
0.663827 0.0232009 0 0 0 0
0.807853 0.0329079 0 0 0 0
0.654489 0.0469617 0 0 0 0
0.814114 0.0314252 0 0 0 0
0.652202 0.0196582 0 0 0 0
0.817986 0.0472532 0 0 0 0
0.646055 0.0203079 0 0 0 0
0.822277 0.0600402 0 0 0 0
0.637154 0.0409123 0 0 0 0
0.831218 0.0391575 0 0 0 0
0.635006 0.0125971 0 0 0 0
0.836083 0.0477852 0 0 0 0
0.625119 0.040335 0 0 0 0
0.840946 0.0564331 0 0 0 0
0.623303 0.00962534 0 0 0 0
0.848196 0.0477947 0 0 0 0
0.617574 0.0072489 0 0 0 0
0.854539 0.0457232 0 0 0 0
0.611689 0.00600601 0 0 0 0
0.858969 0.0574995 0 0 0 0
0.605456 0.00728019 0 0 0 0
0.869628 0.0241734 0 0 0 0
0.597887 0.0182334 0 0 0 0
0.871186 0.0567548 0 0 0 0
0.593072 0.00923412 0 0 0 0
0.878856 0.045071 0 0 0 0
0.587104 0.00859263 0 0 0 0
0.883644 0.0542672 0 0 0 0
0.579494 0.01984 0 0 0 0
0.891776 0.0392334 0 0 0 0
0.892628 0.0905786 0 0 0 0
0.89118 0.0843204 0 0 0 0
0.881621 0.0951097 0 0 0 0
0.905006 0.0801801 0 0 0 0
0.905798 0.10452 0 0 0 0
0.885805 0.0714602 0 0 0 0
0.870479 0.105679 0 0 0 0
0.893776 0.0665081 0 0 0 0
0.905296 0.116565 0 0 0 0
0.892142 0.0602241 0 0 0 0
0.887365 0.120136 0 0 0 0
0.894948 0.0545558 0 0 0 0
0.882525 0.125522 0 0 0 0
0.725024 0.106064 0 0 0 0
0.731136 0.10567 0 0 0 0
0.719162 0.104657 0 0 0 0
0.7376 0.102719 0 0 0 0
0.711308 0.117671 0 0 0 0
0.742827 0.108732 0 0 0 0
0.708032 0.0975315 0 0 0 0
0.748744 0.109745 0 0 0 0
0.703115 0.0892704 0 0 0 0
0.755089 0.107659 0 0 0 0
0.696578 0.0927523 0 0 0 0
0.760232 0.114274 0 0 0 0
0.690901 0.090001 0 0 0 0
0.764459 0.127531 0 0 0 0
0.683981 0.0962472 0 0 0 0
0.7746 0.0979518 0 0 0 0
0.674833 0.118637 0 0 0 0
0.777416 0.121419 0 0 0 0
0.66876 0.118755 0 0 0 0
0.785227 0.108721 0 0 0 0
0.664529 0.105528 0 0 0 0
0.790814 0.112121 0 0 0 0
0.659781 0.096049 0 0 0 0
0.797482 0.107698 0 0 0 0
0.656081 0.0789798 0 0 0 0
0.801995 0.118878 0 0 0 0
0.644622 0.118101 0 0 0 0
0.807088 0.125859 0 0 0 0
0.638782 0.11653 0 0 0 0
0.812889 0.127709 0 0 0 0
0.633333 0.112126 0 0 0 0
0.820557 0.116041 0 0 0 0
0.628293 0.104762 0 0 0 0
0.824711 0.129825 0 0 0 0
0.625095 0.0840552 0 0 0 0
0.830632 0.130808 0 0 0 0
0.619709 0.0792004 0 0 0 0
0.838053 0.120931 0 0 0 0
0.612598 0.0868295 0 0 0 0
0.842554 0.132199 0 0 0 0
0.606146 0.0896932 0 0 0 0
0.852318 0.105355 0 0 0 0
0.598742 0.0994465 0 0 0 0
0.859499 0.097212 0 0 0 0
0.594106 0.0891589 0 0 0 0
0.86047 0.134043 0 0 0 0
0.58656 0.0999437 0 0 0 0
0.867767 0.125066 0 0 0 0
0.582405 0.0861721 0 0 0 0
0.873295 0.128895 0 0 0 0
0.576266 0.0867668 0 0 0 0
0.877707 0.140811 0 0 0 0
0.569644 0.0908536 0 0 0 0
0.571898 0.0462913 0 0 0 0
0.568734 0.0519101 0 0 0 0
0.578477 0.0411463 0 0 0 0
0.583151 0.0599666 0 0 0 0
0.568147 0.0336564 0 0 0 0
0.567928 0.0639131 0 0 0 0
0.574138 0.0284297 0 0 0 0
0.584596 0.0722818 0 0 0 0
0.577149 0.0227899 0 0 0 0
0.556648 0.0744638 0 0 0 0
0.5855 0.0178904 0 0 0 0
0.570058 0.0823807 0 0 0 0
0.584943 0.0117559 0 0 0 0
0.83257 0.128128 0 0 0 0
0.83857 0.128647 0 0 0 0
0.82657 0.137797 0 0 0 0
0.84457 0.119862 0 0 0 0
0.82057 0.133656 0 0 0 0
0.85057 0.117487 0 0 0 0
0.81457 0.131523 0 0 0 0
0.85657 0.113084 0 0 0 0
0.80857 0.122631 0 0 0 0
0.86257 0.132274 0 0 0 0
0.80257 0.118652 0 0 0 0
0.86857 0.11982 0 0 0 0
0.79657 0.142382 0 0 0 0
0.87457 0.121888 0 0 0 0
0.79057 0.153034 0 0 0 0
0.88057 0.115669 0 0 0 0
0.78457 0.12376 0 0 0 0
0.774105 0.22642 0 0 0 0
0.776375 0.22042 0 0 0 0
0.776302 0.23242 0 0 0 0
0.788351 0.21442 0 0 0 0
0.764469 0.23842 0 0 0 0
0.776803 0.20842 0 0 0 0
0.776237 0.24442 0 0 0 0
0.77536 0.20242 0 0 0 0
0.786844 0.25042 0 0 0 0
0.767194 0.19642 0 0 0 0
0.771998 0.25642 0 0 0 0
0.770041 0.19042 0 0 0 0
0.785288 0.26242 0 0 0 0
0.787878 0.18442 0 0 0 0
0.794463 0.26842 0 0 0 0
0.791593 0.17842 0 0 0 0
0.767346 0.27442 0 0 0 0
0.786325 0.17242 0 0 0 0
0.782755 0.28042 0 0 0 0
0.778864 0.16642 0 0 0 0
0.793364 0.28642 0 0 0 0
0.794873 0.16042 0 0 0 0
0.767172 0.29242 0 0 0 0
0.776536 0.15442 0 0 0 0
0.778137 0.29842 0 0 0 0
0.770514 0.14842 0 0 0 0
0.79717 0.30442 0 0 0 0
0.789678 0.14242 0 0 0 0
0.780233 0.31042 0 0 0 0
0.779169 0.13642 0 0 0 0
0.777782 0.31642 0 0 0 0
0.785473 0.13042 0 0 0 0
0.778182 0.32242 0 0 0 0
0.83408 0.321589 0 0 0 0
0.82808 0.329028 0 0 0 0
0.84008 0.339459 0 0 0 0
0.82208 0.329214 0 0 0 0
0.84608 0.324193 0 0 0 0
0.81608 0.298191 0 0 0 0
0.85208 0.325811 0 0 0 0
0.81008 0.329567 0 0 0 0
0.85808 0.328878 0 0 0 0
0.80408 0.325919 0 0 0 0
0.86408 0.323265 0 0 0 0
0.79808 0.325866 0 0 0 0
0.87008 0.311747 0 0 0 0
0.79208 0.316937 0 0 0 0
0.87608 0.318206 0 0 0 0
0.78608 0.338986 0 0 0 0
0.88208 0.326228 0 0 0 0
0.889641 0.226369 0 0 0 0
0.891856 0.232336 0 0 0 0
0.884979 0.22044 0 0 0 0
0.876978 0.238564 0 0 0 0
0.887651 0.214398 0 0 0 0
0.889964 0.244367 0 0 0 0
0.877224 0.208557 0 0 0 0
0.887257 0.250409 0 0 0 0
0.885027 0.202437 0 0 0 0
0.883476 0.256467 0 0 0 0
0.870798 0.196654 0 0 0 0
0.887708 0.262403 0 0 0 0
0.881279 0.190493 0 0 0 0
0.888813 0.268387 0 0 0 0
0.896191 0.184264 0 0 0 0
0.912522 0.274025 0 0 0 0
0.880141 0.178509 0 0 0 0
0.894482 0.280302 0 0 0 0
0.872962 0.172618 0 0 0 0
0.891921 0.286341 0 0 0 0
0.871683 0.166637 0 0 0 0
0.888894 0.292388 0 0 0 0
0.875174 0.160583 0 0 0 0
0.887647 0.298408 0 0 0 0
0.887673 0.154391 0 0 0 0
0.889402 0.304382 0 0 0 0
0.900467 0.148195 0 0 0 0
0.880639 0.310517 0 0 0 0
0.882762 0.142465 0 0 0 0
0.90054 0.316213 0 0 0 0
0.875218 0.136579 0 0 0 0
0.886338 0.322431 0 0 0 0
0.889671 0.130358 0 0 0 0
0.76012 0.340944 0 0 0 0
0.76612 0.323153 0 0 0 0
0.75412 0.333867 0 0 0 0
0.77212 0.322109 0 0 0 0
0.74812 0.31813 0 0 0 0
0.77812 0.337226 0 0 0 0
0.74212 0.336567 0 0 0 0
0.78412 0.319516 0 0 0 0
0.73612 0.324985 0 0 0 0
0.79012 0.348249 0 0 0 0
0.73012 0.321272 0 0 0 0
0.79612 0.318379 0 0 0 0
0.72412 0.32405 0 0 0 0
0.80212 0.335786 0 0 0 0
0.71812 0.330382 0 0 0 0
0.80812 0.313985 0 0 0 0
0.71212 0.327017 0 0 0 0
0.81412 0.333857 0 0 0 0
0.70612 0.336093 0 0 0 0
0.82012 0.310105 0 0 0 0
0.70012 0.342077 0 0 0 0
0.82612 0.333617 0 0 0 0
0.69412 0.331905 0 0 0 0
0.83212 0.335823 0 0 0 0
0.68812 0.333283 0 0 0 0
0.83812 0.331175 0 0 0 0
0.68212 0.312655 0 0 0 0
0.84412 0.323048 0 0 0 0
0.67612 0.324222 0 0 0 0
0.85012 0.324863 0 0 0 0
0.67012 0.330143 0 0 0 0
0.85612 0.324044 0 0 0 0
0.66412 0.31658 0 0 0 0
0.86212 0.348551 0 0 0 0
0.65812 0.332264 0 0 0 0
0.86812 0.331462 0 0 0 0
0.65212 0.331044 0 0 0 0
0.87412 0.311191 0 0 0 0
0.64612 0.344849 0 0 0 0
0.88012 0.325907 0 0 0 0
0.64012 0.313098 0 0 0 0
0.88612 0.320194 0 0 0 0
0.63412 0.323903 0 0 0 0
0.89212 0.32095 0 0 0 0
0.62812 0.327272 0 0 0 0
0.89812 0.318426 0 0 0 0
0.62212 0.326538 0 0 0 0
0.90412 0.326284 0 0 0 0
0.61612 0.316774 0 0 0 0
0.91012 0.316965 0 0 0 0
0.61012 0.333671 0 0 0 0
0.91612 0.317093 0 0 0 0
0.60412 0.319994 0 0 0 0
0.92212 0.334516 0 0 0 0
0.59812 0.336948 0 0 0 0
0.92812 0.333157 0 0 0 0
0.59212 0.334551 0 0 0 0
0.93412 0.330867 0 0 0 0
0.58612 0.346544 0 0 0 0
0.94012 0.343928 0 0 0 0
0.58012 0.314912 0 0 0 0
0.94612 0.340269 0 0 0 0
0.57412 0.323806 0 0 0 0
0.95212 0.340758 0 0 0 0
0.56812 0.325282 0 0 0 0
0.575239 0.37536 0 0 0 0
0.553481 0.36936 0 0 0 0
0.556516 0.38136 0 0 0 0
0.582542 0.36336 0 0 0 0
0.566162 0.38736 0 0 0 0
0.581703 0.35736 0 0 0 0
0.579195 0.39336 0 0 0 0
0.568845 0.35136 0 0 0 0
0.56531 0.39936 0 0 0 0
0.567539 0.34536 0 0 0 0
0.566535 0.40536 0 0 0 0
0.576972 0.33936 0 0 0 0
0.566501 0.41136 0 0 0 0
0.589707 0.33336 0 0 0 0
0.556799 0.41736 0 0 0 0
0.76012 0.424491 0 0 0 0
0.75412 0.402749 0 0 0 0
0.76612 0.411409 0 0 0 0
0.74812 0.418309 0 0 0 0
0.77212 0.406396 0 0 0 0
0.74212 0.415918 0 0 0 0
0.77812 0.431293 0 0 0 0
0.73612 0.427155 0 0 0 0
0.78412 0.424204 0 0 0 0
0.73012 0.414721 0 0 0 0
0.79012 0.428715 0 0 0 0
0.72412 0.420872 0 0 0 0
0.79612 0.429187 0 0 0 0
0.71812 0.429122 0 0 0 0
0.80212 0.411058 0 0 0 0
0.71212 0.420541 0 0 0 0
0.80812 0.408891 0 0 0 0
0.70612 0.426768 0 0 0 0
0.81412 0.421184 0 0 0 0
0.70012 0.435722 0 0 0 0
0.82012 0.43192 0 0 0 0
0.69412 0.419615 0 0 0 0
0.82612 0.412647 0 0 0 0
0.68812 0.415823 0 0 0 0
0.83212 0.417199 0 0 0 0
0.68212 0.433546 0 0 0 0
0.83812 0.411132 0 0 0 0
0.67612 0.423187 0 0 0 0
0.84412 0.41914 0 0 0 0
0.67012 0.418227 0 0 0 0
0.85012 0.420147 0 0 0 0
0.66412 0.430331 0 0 0 0
0.85612 0.41652 0 0 0 0
0.65812 0.416998 0 0 0 0
0.86212 0.421863 0 0 0 0
0.65212 0.428323 0 0 0 0
0.86812 0.425465 0 0 0 0
0.64612 0.402709 0 0 0 0
0.87412 0.416592 0 0 0 0
0.64012 0.422536 0 0 0 0
0.88012 0.417959 0 0 0 0
0.63412 0.428313 0 0 0 0
0.88612 0.428352 0 0 0 0
0.62812 0.430759 0 0 0 0
0.89212 0.407123 0 0 0 0
0.62212 0.419642 0 0 0 0
0.89812 0.434531 0 0 0 0
0.61612 0.410256 0 0 0 0
0.90412 0.40515 0 0 0 0
0.61012 0.433641 0 0 0 0
0.91012 0.437403 0 0 0 0
0.60412 0.417909 0 0 0 0
0.91612 0.420504 0 0 0 0
0.59812 0.423065 0 0 0 0
0.92212 0.421624 0 0 0 0
0.59212 0.445271 0 0 0 0
0.92812 0.406386 0 0 0 0
0.58612 0.427091 0 0 0 0
0.93412 0.429946 0 0 0 0
0.58012 0.419192 0 0 0 0
0.94012 0.397505 0 0 0 0
0.57412 0.435029 0 0 0 0
0.94612 0.419258 0 0 0 0
0.56812 0.442546 0 0 0 0
0.95212 0.417095 0 0 0 0
0.962242 0.37536 0 0 0 0
0.955504 0.38136 0 0 0 0
0.963835 0.36936 0 0 0 0
0.950863 0.38736 0 0 0 0
0.952778 0.36336 0 0 0 0
0.959251 0.39336 0 0 0 0
0.968943 0.35736 0 0 0 0
0.958195 0.39936 0 0 0 0
0.955859 0.35136 0 0 0 0
0.957045 0.40536 0 0 0 0
0.946482 0.34536 0 0 0 0
0.945158 0.41136 0 0 0 0
0.953515 0.33936 0 0 0 0
0.940789 0.41736 0 0 0 0
0.932551 0.33336 0 0 0 0
