ply
format ascii 1.0
comment Generated by InputGen
element vertex 1476
property float x
property float y
property float z
property float nx
property float ny
property float nz
end_header
35.0019 -8.23732 0 0 0 0
35.684 -8.85076 0 0 0 0
34.5046 -8.313 0 0 0 0
35.92 -7.79976 0 0 0 0
34.3845 -9.79655 0 0 0 0
36.825 -9.24568 0 0 0 0
33.9388 -10.0651 0 0 0 0
37.196 -8.69811 0 0 0 0
33.848 -11.6582 0 0 0 0
37.6804 -8.57429 0 0 0 0
32.6903 -9.26923 0 0 0 0
37.7991 -7.08522 0 0 0 0
31.9964 -8.61156 0 0 0 0
38.6862 -8.46409 0 0 0 0
32.4195 -12.1224 0 0 0 0
38.832 -7.07654 0 0 0 0
31.3382 -10.0188 0 0 0 0
39.1432 -6.30596 0 0 0 0
30.8334 -10.0667 0 0 0 0
39.9477 -7.37644 0 0 0 0
30.2128 -9.68246 0 0 0 0
40.3024 -6.76853 0 0 0 0
30.267 -11.8166 0 0 0 0
40.9906 -7.40489 0 0 0 0
28.9109 -8.6874 0 0 0 0
41.732 -8.24034 0 0 0 0
29.0962 -11.3107 0 0 0 0
42.2222 -8.13769 0 0 0 0
28.2816 -10.2026 0 0 0 0
41.6228 -3.96901 0 0 0 0
27.7429 -10.1241 0 0 0 0
42.7687 -6.31358 0 0 0 0
27.6905 -11.8604 0 0 0 0
43.0439 -5.40896 0 0 0 0
26.7847 -10.4116 0 0 0 0
43.5311 -5.29529 0 0 0 0
26.1565 -9.99906 0 0 0 0
44.3542 -6.43541 0 0 0 0
26.0097 -11.3831 0 0 0 0
44.6518 -5.61411 0 0 0 0
25.7748 -12.4381 0 0 0 0
45.2096 -5.76374 0 0 0 0
25.2413 -12.3791 0 0 0 0
45.7611 -5.89035 0 0 0 0
24.8295 -12.7738 0 0 0 0
46.0437 -5.01307 0 0 0 0
23.9803 -11.5365 0 0 0 0
46.9839 -6.58999 0 0 0 0
23.612 -12.0941 0 0 0 0
47.0423 -4.87607 0 0 0 0
22.5538 -10.0767 0 0 0 0
47.6732 -5.29905 0 0 0 0
21.9733 -9.84176 0 0 0 0
47.5213 -2.80022 0 0 0 0
21.706 -10.7762 0 0 0 0
48.7282 -5.37248 0 0 0 0
21.5756 -12.2213 0 0 0 0
49.1535 -5.0278 0 0 0 0
20.6296 -10.6227 0 0 0 0
49.3062 -3.6661 0 0 0 0
20.5607 -12.2975 0 0 0 0
49.717 -3.26734 0 0 0 0
20.154 -12.7115 0 0 0 0
50.688 -4.95935 0 0 0 0
19.4465 -12.0029 0 0 0 0
51.1479 -4.74393 0 0 0 0
18.7888 -11.4802 0 0 0 0
51.6011 -4.50332 0 0 0 0
18.3774 -11.8766 0 0 0 0
52.0257 -4.15615 0 0 0 0
18.0448 -12.5672 0 0 0 0
52.3832 -3.55825 0 0 0 0
17.7436 -13.3749 0 0 0 0
52.625 -2.5291 0 0 0 0
16.912 -12.2032 0 0 0 0
53.4654 -3.73354 0 0 0 0
16.8728 -13.9889 0 0 0 0
54.0502 -3.98434 0 0 0 0
16.2483 -13.5901 0 0 0 0
54.5418 -3.88704 0 0 0 0
16.1455 -15.138 0 0 0 0
54.8517 -3.11182 0 0 0 0
15.086 -13.116 0 0 0 0
55.7104 -4.38448 0 0 0 0
14.5679 -13.1143 0 0 0 0
55.8775 -3.07616 0 0 0 0
14.166 -13.5462 0 0 0 0
56.4156 -3.15255 0 0 0 0
13.9524 -14.6809 0 0 0 0
57.0754 -3.68328 0 0 0 0
12.9186 -12.7546 0 0 0 0
57.2177 -2.28253 0 0 0 0
12.6836 -13.8092 0 0 0 0
57.1983 -0.278337 0 0 0 0
11.8487 -12.6251 0 0 0 0
58.2874 -2.41105 0 0 0 0
11.753 -14.1998 0 0 0 0
59.0406 -3.28994 0 0 0 0
11.0004 -13.3233 0 0 0 0
59.4919 -3.04234 0 0 0 0
11.4046 -16.7635 0 0 0 0
59.6857 -1.83391 0 0 0 0
10.1532 -14.025 0 0 0 0
9.81465 -20.2302 0 0 0 0
10.6682 -19.4839 0 0 0 0
10.4328 -20.5822 0 0 0 0
9.93498 -19.1627 0 0 0 0
11.3347 -20.8582 0 0 0 0
11.8278 -18.1379 0 0 0 0
11.6998 -21.278 0 0 0 0
10.1007 -18.083 0 0 0 0
11.2956 -21.9039 0 0 0 0
11.0101 -17.3217 0 0 0 0
12.2349 -22.1699 0 0 0 0
10.6434 -16.9023 0 0 0 0
12.0677 -22.7323 0 0 0 0
9.69936 -16.6376 0 0 0 0
12.1401 -23.2306 0 0 0 0
8.65842 -16.3989 0 0 0 0
10.7685 -24.1157 0 0 0 0
10.8607 -15.2912 0 0 0 0
12.6938 -24.1175 0 0 0 0
36.4675 -18.687 0 0 0 0
35.6173 -17.4458 0 0 0 0
37.1611 -19.3434 0 0 0 0
35.2163 -17.8811 0 0 0 0
37.0085 -16.8421 0 0 0 0
35.0858 -19.3257 0 0 0 0
37.3525 -16.1943 0 0 0 0
34.1099 -17.6157 0 0 0 0
38.4437 -18.3347 0 0 0 0
33.9157 -18.8226 0 0 0 0
38.999 -18.4752 0 0 0 0
33.3262 -18.5543 0 0 0 0
39.3519 -17.8604 0 0 0 0
33.0219 -19.3504 0 0 0 0
39.7576 -17.4427 0 0 0 0
32.8391 -20.6001 0 0 0 0
40.6337 -18.7803 0 0 0 0
31.8022 -18.6625 0 0 0 0
40.8266 -17.5685 0 0 0 0
30.954 -17.4285 0 0 0 0
40.9277 -16.014 0 0 0 0
31.091 -19.8719 0 0 0 0
41.6328 -16.7136 0 0 0 0
30.7834 -20.6557 0 0 0 0
41.8093 -15.4406 0 0 0 0
29.9526 -19.4868 0 0 0 0
42.6789 -16.7541 0 0 0 0
29.7322 -20.5962 0 0 0 0
42.8819 -15.5798 0 0 0 0
29.0388 -19.9403 0 0 0 0
43.2443 -15.0003 0 0 0 0
28.6777 -20.5245 0 0 0 0
43.9592 -15.7366 0 0 0 0
28.0177 -19.9932 0 0 0 0
44.5435 -15.9854 0 0 0 0
27.7682 -20.9937 0 0 0 0
45.3031 -16.8882 0 0 0 0
27.31 -21.2156 0 0 0 0
45.3957 -15.3021 0 0 0 0
26.5065 -20.149 0 0 0 0
46.1215 -16.0789 0 0 0 0
26.3485 -21.491 0 0 0 0
46.1779 -14.3575 0 0 0 0
25.6206 -20.7065 0 0 0 0
47.0493 -15.678 0 0 0 0
25.4367 -21.9521 0 0 0 0
47.2804 -14.6086 0 0 0 0
24.8429 -21.6677 0 0 0 0
48.0167 -15.4245 0 0 0 0
24.4594 -22.1681 0 0 0 0
48.0319 -13.5496 0 0 0 0
23.5524 -20.7152 0 0 0 0
48.3823 -12.9253 0 0 0 0
22.673 -19.3649 0 0 0 0
49.3157 -14.4768 0 0 0 0
23.3265 -23.7356 0 0 0 0
49.6899 -13.9415 0 0 0 0
22.1646 -21.3315 0 0 0 0
50.705 -15.798 0 0 0 0
21.7479 -21.708 0 0 0 0
50.8114 -14.2633 0 0 0 0
21.2604 -21.8205 0 0 0 0
50.9942 -13.0137 0 0 0 0
21.0253 -22.8751 0 0 0 0
51.6192 -13.4146 0 0 0 0
20.5405 -22.9974 0 0 0 0
52.708 -15.5462 0 0 0 0
19.8909 -22.5051 0 0 0 0
52.7192 -13.6561 0 0 0 0
19.1989 -21.8544 0 0 0 0
52.9779 -12.6897 0 0 0 0
18.5939 -21.5283 0 0 0 0
53.8733 -14.0995 0 0 0 0
18.4034 -22.7492 0 0 0 0
54.1545 -13.217 0 0 0 0
18.1206 -23.6255 0 0 0 0
54.5034 -12.5872 0 0 0 0
16.8375 -20.7689 0 0 0 0
55.0254 -12.6036 0 0 0 0
16.8887 -22.8919 0 0 0 0
55.3539 -11.8977 0 0 0 0
16.1784 -22.1726 0 0 0 0
56.3673 -13.7481 0 0 0 0
16.5642 -25.5445 0 0 0 0
56.7124 -13.1042 0 0 0 0
15.5767 -23.791 0 0 0 0
57.0188 -12.3156 0 0 0 0
14.9025 -23.2067 0 0 0 0
57.5492 -12.3634 0 0 0 0
14.2439 -22.6807 0 0 0 0
58.1406 -12.6385 0 0 0 0
14.1943 -24.4272 0 0 0 0
58.4011 -11.6791 0 0 0 0
13.1536 -22.4752 0 0 0 0
59.0461 -12.1544 0 0 0 0
12.8977 -23.452 0 0 0 0
59.3612 -11.3983 0 0 0 0
12.4159 -23.5859 0 0 0 0
60.2629 -12.8316 0 0 0 0
76.2171 -17.0187 0 0 0 0
75.7646 -16.7755 0 0 0 0
77.0062 -16.0056 0 0 0 0
75.4587 -15.9853 0 0 0 0
77.102 -17.5799 0 0 0 0
74.7328 -16.7624 0 0 0 0
77.6992 -17.2827 0 0 0 0
74.6284 -15.2202 0 0 0 0
78.327 -16.8717 0 0 0 0
74.3034 -14.5012 0 0 0 0
78.6579 -17.5686 0 0 0 0
73.5693 -15.3091 0 0 0 0
79.5413 -16.2038 0 0 0 0
72.9018 -15.8685 0 0 0 0
79.5204 -18.2135 0 0 0 0
72.45 -15.6228 0 0 0 0
79.9977 -18.364 0 0 0 0
72.0017 -15.3639 0 0 0 0
80.8737 -17.0267 0 0 0 0
72.0156 -13.3804 0 0 0 0
81.1767 -17.8275 0 0 0 0
71.3556 -13.9115 0 0 0 0
81.6601 -17.9554 0 0 0 0
70.8137 -14.0022 0 0 0 0
82.406 -17.1034 0 0 0 0
70.5381 -13.0989 0 0 0 0
82.7334 -17.8134 0 0 0 0
70.0581 -12.9585 0 0 0 0
82.9377 -18.9828 0 0 0 0
68.415 -17.1587 0 0 0 0
83.1627 -20.075 0 0 0 0
68.8311 -13.674 0 0 0 0
83.3741 -21.2178 0 0 0 0
68.3029 -13.7134 0 0 0 0
85.1433 -16.5472 0 0 0 0
67.7288 -13.9242 0 0 0 0
85.0523 -18.8183 0 0 0 0
67.3787 -13.2989 0 0 0 0
85.7393 -18.1866 0 0 0 0
66.6354 -14.141 0 0 0 0
85.9018 -19.5117 0 0 0 0
66.2856 -13.5145 0 0 0 0
86.3164 -19.8965 0 0 0 0
65.6042 -14.1256 0 0 0 0
87.2794 -18.2342 0 0 0 0
65.0926 -14.1032 0 0 0 0
87.6848 -18.6532 0 0 0 0
64.6281 -13.9048 0 0 0 0
87.5421 -21.1176 0 0 0 0
64.3928 -12.8511 0 0 0 0
88.9636 -17.7443 0 0 0 0
64.2259 -11.5422 0 0 0 0
89.5567 -17.4627 0 0 0 0
63.2646 -13.1981 0 0 0 0
89.841 -18.3335 0 0 0 0
62.7202 -13.2978 0 0 0 0
89.8256 -20.323 0 0 0 0
62.4085 -12.5291 0 0 0 0
90.3346 -20.3549 0 0 0 0
62.0614 -11.8927 0 0 0 0
90.7795 -20.6264 0 0 0 0
61.1783 -13.2567 0 0 0 0
91.5963 -19.51 0 0 0 0
61.3611 -10.6426 0 0 0 0
91.7592 -20.8337 0 0 0 0
60.0478 -13.6122 0 0 0 0
92.521 -19.9228 0 0 0 0
76.4593 -6.15479 0 0 0 0
76.0294 -5.82743 0 0 0 0
76.8971 -6.45272 0 0 0 0
75.343 -6.45722 0 0 0 0
77.4131 -6.45893 0 0 0 0
74.977 -5.89114 0 0 0 0
77.4519 -8.24596 0 0 0 0
74.4968 -5.75143 0 0 0 0
78.266 -7.13946 0 0 0 0
73.623 -7.0806 0 0 0 0
78.9943 -6.35335 0 0 0 0
73.6665 -4.98655 0 0 0 0
79.3514 -6.9523 0 0 0 0
72.6065 -7.01052 0 0 0 0
79.6052 -7.93711 0 0 0 0
72.4084 -5.81828 0 0 0 0
80.1677 -7.76975 0 0 0 0
71.8959 -5.79899 0 0 0 0
81.0244 -6.50423 0 0 0 0
71.5551 -5.139 0 0 0 0
80.9266 -8.80117 0 0 0 0
71.0836 -4.96683 0 0 0 0
81.9123 -7.05437 0 0 0 0
70.865 -3.85084 0 0 0 0
82.5762 -6.50851 0 0 0 0
69.9683 -5.26533 0 0 0 0
82.6243 -8.26076 0 0 0 0
70.0578 -2.99941 0 0 0 0
83.2411 -7.89065 0 0 0 0
68.972 -5.12005 0 0 0 0
83.7997 -7.73792 0 0 0 0
68.7171 -4.13926 0 0 0 0
84.0076 -8.89372 0 0 0 0
67.9007 -5.25454 0 0 0 0
85.0371 -6.9836 0 0 0 0
67.6396 -4.29713 0 0 0 0
85.1338 -8.55435 0 0 0 0
66.8867 -5.17489 0 0 0 0
85.3919 -9.52286 0 0 0 0
66.6848 -3.99683 0 0 0 0
86.3441 -7.90139 0 0 0 0
66.0137 -4.56938 0 0 0 0
86.2456 -10.2006 0 0 0 0
65.7895 -3.47433 0 0 0 0
87.0797 -9.01952 0 0 0 0
65.4743 -2.71862 0 0 0 0
87.862 -8.03206 0 0 0 0
65.0357 -2.42393 0 0 0 0
87.928 -9.71733 0 0 0 0
64.002 -4.34959 0 0 0 0
88.9042 -8.00592 0 0 0 0
63.9249 -2.70572 0 0 0 0
88.9823 -9.64659 0 0 0 0
63.827 -1.13933 0 0 0 0
89.3402 -10.2424 0 0 0 0
62.4594 -4.31125 0 0 0 0
89.9678 -9.83204 0 0 0 0
62.041 -3.94109 0 0 0 0
90.3039 -10.5097 0 0 0 0
61.9859 -2.21477 0 0 0 0
90.7971 -10.6008 0 0 0 0
61.7773 -1.06121 0 0 0 0
91.8693 -8.53143 0 0 0 0
60.7856 -2.83059 0 0 0 0
91.9316 -10.2307 0 0 0 0
60.3043 -2.69486 0 0 0 0
92.4383 -10.2715 0 0 0 0
92.417 -27.7229 0 0 0 0
93.2625 -27.2229 0 0 0 0
93.6519 -28.2229 0 0 0 0
93.3078 -26.7229 0 0 0 0
91.3193 -28.7229 0 0 0 0
91.6346 -26.2229 0 0 0 0
93.9728 -29.2229 0 0 0 0
90.8043 -25.7229 0 0 0 0
92.6765 -29.7229 0 0 0 0
94.0553 -25.2229 0 0 0 0
91.6499 -30.2229 0 0 0 0
93.0729 -24.7229 0 0 0 0
90.8055 -30.7229 0 0 0 0
92.174 -24.2229 0 0 0 0
93.8313 -31.2229 0 0 0 0
91.23 -23.7229 0 0 0 0
94.2693 -31.7229 0 0 0 0
93.2966 -23.2229 0 0 0 0
92.5786 -32.2229 0 0 0 0
91.2794 -22.7229 0 0 0 0
91.6162 -32.7229 0 0 0 0
93.2183 -22.2229 0 0 0 0
93.151 -33.2229 0 0 0 0
91.8653 -21.7229 0 0 0 0
93.4724 -33.7229 0 0 0 0
92.6564 -21.2229 0 0 0 0
93.5469 -34.2229 0 0 0 0
93.5493 -20.7229 0 0 0 0
93.3509 -34.7229 0 0 0 0
97.9225 -33.1675 0 0 0 0
97.4225 -34.5175 0 0 0 0
98.4225 -34.5977 0 0 0 0
96.9225 -34.246 0 0 0 0
98.9225 -35.1064 0 0 0 0
96.4225 -35.6855 0 0 0 0
99.4225 -35.6135 0 0 0 0
95.9225 -35.6206 0 0 0 0
99.9225 -34.3351 0 0 0 0
95.4225 -35.6433 0 0 0 0
100.422 -35.2082 0 0 0 0
94.9225 -34.0305 0 0 0 0
100.922 -34.1487 0 0 0 0
94.4225 -35.1555 0 0 0 0
101.422 -35.1433 0 0 0 0
93.9225 -33.2649 0 0 0 0
101.922 -33.433 0 0 0 0
93.4225 -34.5299 0 0 0 0
102.422 -34.5665 0 0 0 0
92.9225 -34.0658 0 0 0 0
102.922 -34.5117 0 0 0 0
102.878 -17.09 0 0 0 0
101.839 -17.59 0 0 0 0
103.752 -16.59 0 0 0 0
103.507 -18.09 0 0 0 0
102.67 -16.09 0 0 0 0
104.531 -18.59 0 0 0 0
103.04 -15.59 0 0 0 0
100.75 -19.09 0 0 0 0
103.305 -15.09 0 0 0 0
103.479 -19.59 0 0 0 0
102.334 -14.59 0 0 0 0
101.907 -20.09 0 0 0 0
103.301 -14.09 0 0 0 0
102.317 -20.59 0 0 0 0
105.201 -13.59 0 0 0 0
102.99 -21.09 0 0 0 0
104.064 -13.09 0 0 0 0
101.238 -21.59 0 0 0 0
102.218 -12.59 0 0 0 0
103.232 -22.09 0 0 0 0
103.462 -12.09 0 0 0 0
102.817 -22.59 0 0 0 0
103.932 -11.59 0 0 0 0
102.811 -23.09 0 0 0 0
102.526 -11.09 0 0 0 0
102.49 -23.59 0 0 0 0
102.527 -10.59 0 0 0 0
103.521 -24.09 0 0 0 0
102.952 -10.09 0 0 0 0
102.387 -24.59 0 0 0 0
102.28 -9.59001 0 0 0 0
104.017 -25.09 0 0 0 0
102.14 -9.09001 0 0 0 0
100.867 -25.59 0 0 0 0
104.323 -8.59001 0 0 0 0
102.7 -26.09 0 0 0 0
104.059 -8.09001 0 0 0 0
105.149 -26.59 0 0 0 0
103.78 -7.59001 0 0 0 0
103.562 -27.09 0 0 0 0
102.201 -7.09001 0 0 0 0
102.618 -27.59 0 0 0 0
103.95 -6.59001 0 0 0 0
102.196 -28.09 0 0 0 0
101.789 -6.09001 0 0 0 0
102.525 -28.59 0 0 0 0
102.137 -5.59001 0 0 0 0
103.472 -29.09 0 0 0 0
101.759 -5.09001 0 0 0 0
103.059 -29.59 0 0 0 0
104.098 -4.59001 0 0 0 0
104.311 -30.09 0 0 0 0
102.659 -4.09001 0 0 0 0
102.535 -30.59 0 0 0 0
102.476 -3.59001 0 0 0 0
102.547 -31.09 0 0 0 0
102.857 -3.09001 0 0 0 0
104.472 -31.59 0 0 0 0
102.333 -2.59001 0 0 0 0
104.294 -32.09 0 0 0 0
102.906 -2.09001 0 0 0 0
103.765 -32.59 0 0 0 0
102.111 -1.59001 0 0 0 0
103.279 -33.09 0 0 0 0
104.095 -1.09001 0 0 0 0
101.611 -33.59 0 0 0 0
103.359 -0.590005 0 0 0 0
103.905 -34.09 0 0 0 0
103.491 -0.0900052 0 0 0 0
102.447 -34.59 0 0 0 0
101.983 0.409995 0 0 0 0
97.9225 0.630588 0 0 0 0
98.4225 -0.483356 0 0 0 0
97.4225 1.347 0 0 0 0
98.9225 0.356469 0 0 0 0
96.9225 -0.198395 0 0 0 0
99.4225 -0.0211268 0 0 0 0
96.4225 2.05274 0 0 0 0
99.9225 0.200873 0 0 0 0
95.9225 1.01417 0 0 0 0
100.422 0.193916 0 0 0 0
95.4225 -0.377259 0 0 0 0
100.922 -0.418637 0 0 0 0
94.9225 -0.0190591 0 0 0 0
101.422 1.80048 0 0 0 0
94.4225 0.990757 0 0 0 0
101.922 -0.290325 0 0 0 0
93.9225 2.09868 0 0 0 0
102.422 0.0309535 0 0 0 0
93.4225 2.01499 0 0 0 0
102.922 0.918813 0 0 0 0
92.9225 0.482216 0 0 0 0
92.6312 -4.80067 0 0 0 0
92.8914 -4.30067 0 0 0 0
93.8889 -5.30067 0 0 0 0
92.8858 -3.80067 0 0 0 0
92.2888 -5.80067 0 0 0 0
94.1842 -3.30067 0 0 0 0
93.0441 -6.30067 0 0 0 0
92.3628 -2.80067 0 0 0 0
92.0544 -6.80067 0 0 0 0
93.5881 -2.30067 0 0 0 0
91.9296 -7.30067 0 0 0 0
94.5397 -1.80067 0 0 0 0
91.8527 -7.80067 0 0 0 0
92.8877 -1.30067 0 0 0 0
92.6456 -8.30067 0 0 0 0
93.3999 -0.800666 0 0 0 0
93.9472 -8.80067 0 0 0 0
91.7058 -0.300666 0 0 0 0
93.1936 -9.30067 0 0 0 0
94.077 0.199334 0 0 0 0
93.1588 -9.80067 0 0 0 0
91.5733 0.699334 0 0 0 0
92.1669 -10.3007 0 0 0 0
11.3708 -81.9416 0 0 0 0
10.8708 -83.0049 0 0 0 0
11.8708 -82.7382 0 0 0 0
10.3708 -82.2179 0 0 0 0
12.3708 -81.2741 0 0 0 0
9.87079 -82.9486 0 0 0 0
12.8708 -82.2992 0 0 0 0
9.37079 -83.0586 0 0 0 0
13.3708 -81.7316 0 0 0 0
8.87079 -82.7763 0 0 0 0
13.8708 -84.0853 0 0 0 0
8.37079 -81.1754 0 0 0 0
14.3708 -81.4213 0 0 0 0
7.87079 -82.19 0 0 0 0
14.8708 -83.4972 0 0 0 0
7.37079 -82.5705 0 0 0 0
15.3708 -79.9665 0 0 0 0
6.87079 -80.9797 0 0 0 0
15.8708 -82.7279 0 0 0 0
15.9435 -53.5486 0 0 0 0
18.1157 -54.0486 0 0 0 0
17.124 -53.0486 0 0 0 0
14.6098 -54.5486 0 0 0 0
15.3536 -52.5486 0 0 0 0
16.2489 -55.0486 0 0 0 0
16.9073 -52.0486 0 0 0 0
17.3833 -55.5486 0 0 0 0
15.6336 -51.5486 0 0 0 0
17.6407 -56.0486 0 0 0 0
16.738 -51.0486 0 0 0 0
17.9524 -56.5486 0 0 0 0
16.4678 -50.5486 0 0 0 0
17.0185 -57.0486 0 0 0 0
17.1518 -50.0486 0 0 0 0
17.3008 -57.5486 0 0 0 0
16.2662 -49.5486 0 0 0 0
15.7719 -58.0486 0 0 0 0
15.3787 -49.0486 0 0 0 0
17.9287 -58.5486 0 0 0 0
16.4811 -48.5486 0 0 0 0
13.6585 -59.0486 0 0 0 0
17.8062 -48.0486 0 0 0 0
15.096 -59.5486 0 0 0 0
16.856 -47.5486 0 0 0 0
17.0707 -60.0486 0 0 0 0
15.4275 -47.0486 0 0 0 0
15.4692 -60.5486 0 0 0 0
17.4285 -46.5486 0 0 0 0
14.7626 -61.0486 0 0 0 0
13.6634 -46.0486 0 0 0 0
17.4307 -61.5486 0 0 0 0
16.6889 -45.5486 0 0 0 0
15.2871 -62.0486 0 0 0 0
16.4665 -45.0486 0 0 0 0
16.9509 -62.5486 0 0 0 0
15.9238 -44.5486 0 0 0 0
15.3315 -63.0486 0 0 0 0
15.4596 -44.0486 0 0 0 0
18.2326 -63.5486 0 0 0 0
17.5737 -43.5486 0 0 0 0
17.0699 -64.0486 0 0 0 0
15.2608 -43.0486 0 0 0 0
17.8273 -64.5486 0 0 0 0
17.0699 -42.5486 0 0 0 0
16.2311 -65.0486 0 0 0 0
16.01 -42.0486 0 0 0 0
16.9204 -65.5486 0 0 0 0
17.6818 -41.5486 0 0 0 0
15.6082 -66.0486 0 0 0 0
15.8879 -41.0486 0 0 0 0
16.4308 -66.5486 0 0 0 0
16.9467 -40.5486 0 0 0 0
16.0621 -67.0486 0 0 0 0
17.269 -40.0486 0 0 0 0
15.0509 -67.5486 0 0 0 0
15.5873 -39.5486 0 0 0 0
14.7631 -68.0486 0 0 0 0
14.3093 -39.0486 0 0 0 0
15.9517 -68.5486 0 0 0 0
16.6399 -38.5486 0 0 0 0
17.5762 -69.0486 0 0 0 0
14.681 -38.0486 0 0 0 0
15.9083 -69.5486 0 0 0 0
17.4899 -37.5486 0 0 0 0
14.0197 -70.0486 0 0 0 0
17.1875 -37.0486 0 0 0 0
15.2885 -70.5486 0 0 0 0
15.7175 -36.5486 0 0 0 0
16.0961 -71.0486 0 0 0 0
15.3826 -36.0486 0 0 0 0
13.7959 -71.5486 0 0 0 0
16.4407 -35.5486 0 0 0 0
15.9387 -72.0486 0 0 0 0
16.6107 -35.0486 0 0 0 0
16.3056 -72.5486 0 0 0 0
17.3353 -34.5486 0 0 0 0
18.234 -73.0486 0 0 0 0
17.3254 -34.0486 0 0 0 0
16.1901 -73.5486 0 0 0 0
17.2338 -33.5486 0 0 0 0
17.1851 -74.0486 0 0 0 0
15.8651 -33.0486 0 0 0 0
16.6233 -74.5486 0 0 0 0
17.1406 -32.5486 0 0 0 0
17.0066 -75.0486 0 0 0 0
15.2911 -32.0486 0 0 0 0
17.8055 -75.5486 0 0 0 0
14.4465 -31.5486 0 0 0 0
16.4106 -76.0486 0 0 0 0
16.8396 -31.0486 0 0 0 0
17.4349 -76.5486 0 0 0 0
15.7041 -30.5486 0 0 0 0
15.3042 -77.0486 0 0 0 0
15.6836 -30.0486 0 0 0 0
14.6721 -77.5486 0 0 0 0
18.1133 -29.5486 0 0 0 0
16.6655 -78.0486 0 0 0 0
15.2839 -29.0486 0 0 0 0
13.5341 -78.5486 0 0 0 0
14.5808 -28.5486 0 0 0 0
17.0879 -79.0486 0 0 0 0
16.908 -28.0486 0 0 0 0
15.9868 -79.5486 0 0 0 0
16.3338 -27.5486 0 0 0 0
15.9715 -80.0486 0 0 0 0
15.4337 -27.0486 0 0 0 0
17.6387 -80.5486 0 0 0 0
15.5011 -26.5486 0 0 0 0
17.7332 -81.0486 0 0 0 0
16.6497 -26.0486 0 0 0 0
16.87 -81.5486 0 0 0 0
15.7108 -25.5486 0 0 0 0
17.6402 -82.0486 0 0 0 0
15.2202 -25.0486 0 0 0 0
11.001 -22.3017 0 0 0 0
11.501 -23.7753 0 0 0 0
10.501 -24.9821 0 0 0 0
12.001 -25.1744 0 0 0 0
10.001 -24.3399 0 0 0 0
12.501 -23.9752 0 0 0 0
9.50101 -25.4502 0 0 0 0
13.001 -23.8286 0 0 0 0
9.00101 -24.6896 0 0 0 0
13.501 -25.6739 0 0 0 0
8.50101 -25.9561 0 0 0 0
14.001 -24.9853 0 0 0 0
8.00101 -25.5083 0 0 0 0
14.501 -22.7609 0 0 0 0
7.50101 -25.0376 0 0 0 0
15.001 -24.8184 0 0 0 0
7.00101 -25.1924 0 0 0 0
15.501 -24.8067 0 0 0 0
6.50101 -23.5331 0 0 0 0
16.001 -25.88 0 0 0 0
6.00101 -24.0938 0 0 0 0
5.51978 -53.4562 0 0 0 0
6.84398 -52.9562 0 0 0 0
5.23843 -53.9562 0 0 0 0
5.84744 -52.4562 0 0 0 0
5.94596 -54.4562 0 0 0 0
5.88032 -51.9562 0 0 0 0
5.2223 -54.9562 0 0 0 0
6.36803 -51.4562 0 0 0 0
4.24987 -55.4562 0 0 0 0
5.43265 -50.9562 0 0 0 0
4.76059 -55.9562 0 0 0 0
5.01036 -50.4562 0 0 0 0
6.91318 -56.4562 0 0 0 0
6.30155 -49.9562 0 0 0 0
6.77499 -56.9562 0 0 0 0
7.04005 -49.4562 0 0 0 0
5.52824 -57.4562 0 0 0 0
7.0281 -48.9562 0 0 0 0
6.5184 -57.9562 0 0 0 0
5.6375 -48.4562 0 0 0 0
5.9391 -58.4562 0 0 0 0
4.94517 -47.9562 0 0 0 0
6.82329 -58.9562 0 0 0 0
5.64066 -47.4562 0 0 0 0
5.58778 -59.4562 0 0 0 0
4.2996 -46.9562 0 0 0 0
5.57771 -59.9562 0 0 0 0
4.42389 -46.4562 0 0 0 0
4.65784 -60.4562 0 0 0 0
4.34971 -45.9562 0 0 0 0
6.16409 -60.9562 0 0 0 0
6.10658 -45.4562 0 0 0 0
6.64942 -61.4562 0 0 0 0
7.24479 -44.9562 0 0 0 0
6.34296 -61.9562 0 0 0 0
5.0698 -44.4562 0 0 0 0
2.08813 -62.4562 0 0 0 0
5.06261 -43.9562 0 0 0 0
8.5657 -62.9562 0 0 0 0
5.09043 -43.4562 0 0 0 0
3.91755 -63.4562 0 0 0 0
5.15657 -42.9562 0 0 0 0
5.98525 -63.9562 0 0 0 0
6.19114 -42.4562 0 0 0 0
2.86274 -64.4562 0 0 0 0
4.7249 -41.9562 0 0 0 0
6.15981 -64.9562 0 0 0 0
7.43874 -41.4562 0 0 0 0
6.75175 -65.4562 0 0 0 0
6.75006 -40.9562 0 0 0 0
5.40992 -65.9562 0 0 0 0
5.57793 -40.4562 0 0 0 0
4.27324 -66.4562 0 0 0 0
5.87654 -39.9562 0 0 0 0
4.95509 -66.9562 0 0 0 0
6.31829 -39.4562 0 0 0 0
3.48307 -67.4562 0 0 0 0
4.583 -38.9562 0 0 0 0
5.76352 -67.9562 0 0 0 0
6.32923 -38.4562 0 0 0 0
6.40295 -68.4562 0 0 0 0
5.34526 -37.9562 0 0 0 0
4.29987 -68.9562 0 0 0 0
5.38469 -37.4562 0 0 0 0
4.09444 -69.4562 0 0 0 0
4.40413 -36.9562 0 0 0 0
4.84683 -69.9562 0 0 0 0
5.09319 -36.4562 0 0 0 0
5.13188 -70.4562 0 0 0 0
6.05888 -35.9562 0 0 0 0
5.40592 -70.9562 0 0 0 0
6.84671 -35.4562 0 0 0 0
7.84889 -71.4562 0 0 0 0
5.69709 -34.9562 0 0 0 0
5.93108 -71.9562 0 0 0 0
5.68323 -34.4562 0 0 0 0
5.45872 -72.4562 0 0 0 0
5.90714 -33.9562 0 0 0 0
6.59665 -72.9562 0 0 0 0
5.77945 -33.4562 0 0 0 0
2.3678 -73.4562 0 0 0 0
6.11251 -32.9562 0 0 0 0
4.45141 -73.9562 0 0 0 0
5.90325 -32.4562 0 0 0 0
7.12631 -74.4562 0 0 0 0
6.83685 -31.9562 0 0 0 0
6.33835 -74.9562 0 0 0 0
4.95256 -31.4562 0 0 0 0
3.53887 -75.4562 0 0 0 0
5.96873 -30.9562 0 0 0 0
5.88235 -75.9562 0 0 0 0
7.18879 -30.4562 0 0 0 0
5.70684 -76.4562 0 0 0 0
6.04432 -29.9562 0 0 0 0
5.86807 -76.9562 0 0 0 0
5.46544 -29.4562 0 0 0 0
4.52603 -77.4562 0 0 0 0
5.95005 -28.9562 0 0 0 0
6.19827 -77.9562 0 0 0 0
6.36895 -28.4562 0 0 0 0
5.9831 -78.4562 0 0 0 0
6.65301 -27.9562 0 0 0 0
4.56246 -78.9562 0 0 0 0
2.65126 -27.4562 0 0 0 0
6.29267 -79.4562 0 0 0 0
5.71653 -26.9562 0 0 0 0
6.37367 -79.9562 0 0 0 0
4.47621 -26.4562 0 0 0 0
6.48796 -80.4562 0 0 0 0
4.03807 -25.9562 0 0 0 0
7.83094 -80.9562 0 0 0 0
4.35803 -25.4562 0 0 0 0
6.42978 -81.4562 0 0 0 0
5.2503 -24.9562 0 0 0 0
6.65786 -81.9562 0 0 0 0
39.7038 -84.6507 0 0 0 0
38.886 -85.7707 0 0 0 0
40.4108 -83.9439 0 0 0 0
38.5673 -85.0284 0 0 0 0
40.3622 -86.0572 0 0 0 0
38.0682 -84.9592 0 0 0 0
40.7281 -86.6236 0 0 0 0
37.1889 -86.309 0 0 0 0
41.6322 -85.1813 0 0 0 0
36.8255 -85.7335 0 0 0 0
42.0997 -85.3681 0 0 0 0
36.158 -86.2926 0 0 0 0
42.7053 -85.04 0 0 0 0
36.1264 -84.4787 0 0 0 0
42.5234 -87.6506 0 0 0 0
35.5998 -84.5123 0 0 0 0
43.0718 -87.536 0 0 0 0
35.385 -83.3821 0 0 0 0
43.8752 -86.4696 0 0 0 0
34.1736 -85.9712 0 0 0 0
44.3353 -86.6841 0 0 0 0
33.6787 -85.8865 0 0 0 0
44.6154 -87.5707 0 0 0 0
33.9897 -82.7936 0 0 0 0
44.9246 -88.3485 0 0 0 0
32.9108 -84.8883 0 0 0 0
45.7066 -87.3619 0 0 0 0
32.7923 -83.399 0 0 0 0
46.6539 -85.7585 0 0 0 0
32.5287 -82.4509 0 0 0 0
46.8271 -87.0439 0 0 0 0
31.5398 -84.2096 0 0 0 0
47.0004 -88.3291 0 0 0 0
31.8464 -81.1332 0 0 0 0
47.656 -87.8142 0 0 0 0
30.6101 -83.8156 0 0 0 0
48.1088 -88.0561 0 0 0 0
30.0836 -83.8486 0 0 0 0
48.8532 -87.2099 0 0 0 0
29.9032 -82.5901 0 0 0 0
48.6837 -89.7744 0 0 0 0
28.52 -85.8204 0 0 0 0
49.3819 -89.1005 0 0 0 0
28.7375 -83.0768 0 0 0 0
49.744 -89.6809 0 0 0 0
28.1402 -83.374 0 0 0 0
50.3475 -89.3605 0 0 0 0
28.3568 -80.6339 0 0 0 0
51.4306 -87.2502 0 0 0 0
27.272 -82.7505 0 0 0 0
51.9239 -87.3411 0 0 0 0
26.9063 -82.1834 0 0 0 0
52.3955 -87.5126 0 0 0 0
26.2088 -82.8547 0 0 0 0
52.3624 -89.5681 0 0 0 0
25.7274 -82.7193 0 0 0 0
52.9991 -89.1237 0 0 0 0
25.361 -82.155 0 0 0 0
53.4577 -89.3441 0 0 0 0
24.9608 -81.7169 0 0 0 0
54.7106 -86.6001 0 0 0 0
24.3847 -81.9348 0 0 0 0
54.6145 -88.8904 0 0 0 0
24.1359 -80.9316 0 0 0 0
54.6999 -90.5036 0 0 0 0
23.7565 -80.4156 0 0 0 0
55.5695 -89.1901 0 0 0 0
22.8031 -82.042 0 0 0 0
56.0332 -89.3916 0 0 0 0
22.74 -80.3455 0 0 0 0
56.2007 -90.6981 0 0 0 0
21.7518 -82.1018 0 0 0 0
56.7427 -90.6074 0 0 0 0
21.7699 -80.1023 0 0 0 0
57.1222 -91.1228 0 0 0 0
21.0553 -80.8375 0 0 0 0
57.5508 -91.455 0 0 0 0
20.7492 -80.0481 0 0 0 0
58.4227 -90.133 0 0 0 0
20.3349 -79.6624 0 0 0 0
59.1279 -89.433 0 0 0 0
19.1517 -82.1461 0 0 0 0
59.0539 -91.6412 0 0 0 0
19.6404 -78.3906 0 0 0 0
59.4109 -92.2404 0 0 0 0
58.1764 -94.9258 0 0 0 0
59.7661 -94.8341 0 0 0 0
59.1222 -95.6968 0 0 0 0
60.3115 -94.4626 0 0 0 0
59.3834 -96.2845 0 0 0 0
58.0349 -93.3349 0 0 0 0
59.9808 -96.9622 0 0 0 0
58.8773 -93.043 0 0 0 0
58.0806 -96.9706 0 0 0 0
60.0734 -92.8459 0 0 0 0
58.0544 -97.4813 0 0 0 0
59.0805 -92.0622 0 0 0 0
59.3036 -98.3336 0 0 0 0
59.6293 -91.6916 0 0 0 0
57.8485 -98.4614 0 0 0 0
60.1044 -91.3013 0 0 0 0
57.3915 -98.8565 0 0 0 0
36.9192 -93.9727 0 0 0 0
37.4639 -93.8715 0 0 0 0
36.2339 -94.5983 0 0 0 0
38.2296 -92.9457 0 0 0 0
36.2299 -92.6815 0 0 0 0
38.3218 -94.5335 0 0 0 0
35.5266 -93.3744 0 0 0 0
39.0556 -93.7269 0 0 0 0
35.2415 -92.5066 0 0 0 0
39.5745 -93.7221 0 0 0 0
34.9953 -91.4937 0 0 0 0
39.724 -95.0961 0 0 0 0
33.9607 -93.4228 0 0 0 0
40.8284 -92.9061 0 0 0 0
33.6251 -92.7434 0 0 0 0
40.3992 -96.4399 0 0 0 0
33.4585 -91.4333 0 0 0 0
40.6754 -97.3411 0 0 0 0
32.343 -93.6647 0 0 0 0
41.7488 -95.267 0 0 0 0
31.9296 -93.2756 0 0 0 0
42.5788 -94.1011 0 0 0 0
31.3199 -93.6192 0 0 0 0
42.7623 -95.3482 0 0 0 0
31.1151 -92.4516 0 0 0 0
43.1644 -95.7794 0 0 0 0
30.8978 -91.3309 0 0 0 0
43.5302 -96.3458 0 0 0 0
30.6624 -90.2776 0 0 0 0
44.5219 -94.5768 0 0 0 0
30.1308 -90.3294 0 0 0 0
44.6418 -96.061 0 0 0 0
29.1779 -91.9541 0 0 0 0
45.4761 -94.8792 0 0 0 0
28.775 -91.5258 0 0 0 0
45.5461 -96.55 0 0 0 0
28.2417 -91.5841 0 0 0 0
46.5288 -94.8143 0 0 0 0
27.7851 -91.3564 0 0 0 0
46.4651 -96.9841 0 0 0 0
26.8924 -92.7561 0 0 0 0
46.9589 -97.073 0 0 0 0
26.4057 -92.6407 0 0 0 0
47.5941 -96.634 0 0 0 0
26.5668 -90.1075 0 0 0 0
47.8786 -97.5042 0 0 0 0
25.8756 -90.7553 0 0 0 0
48.3001 -97.8629 0 0 0 0
25.4518 -90.405 0 0 0 0
48.9218 -97.4748 0 0 0 0
25.3837 -88.7273 0 0 0 0
49.7183 -96.4341 0 0 0 0
24.611 -89.6795 0 0 0 0
49.9632 -97.4517 0 0 0 0
23.6268 -91.4205 0 0 0 0
51.0365 -95.378 0 0 0 0
23.6177 -89.5226 0 0 0 0
51.2227 -96.6149 0 0 0 0
22.9046 -90.252 0 0 0 0
51.7668 -96.5162 0 0 0 0
22.1275 -91.2204 0 0 0 0
52.0512 -97.3865 0 0 0 0
21.8398 -90.3623 0 0 0 0
52.289 -98.431 0 0 0 0
21.5682 -89.4441 0 0 0 0
53.3785 -96.2969 0 0 0 0
21.3678 -88.26 0 0 0 0
53.5795 -97.4786 0 0 0 0
20.2533 -90.4875 0 0 0 0
54.311 -96.6803 0 0 0 0
20.3192 -88.3099 0 0 0 0
54.0525 -99.5769 0 0 0 0
19.5073 -89.4082 0 0 0 0
54.4965 -99.8518 0 0 0 0
18.7472 -90.3128 0 0 0 0
55.6309 -97.5501 0 0 0 0
18.4899 -89.3414 0 0 0 0
55.7898 -98.8887 0 0 0 0
18.3337 -87.9923 0 0 0 0
56.1294 -99.5533 0 0 0 0
17.4803 -89.2457 0 0 0 0
56.9777 -98.3192 0 0 0 0
17.6189 -86.7965 0 0 0 0
56.9346 -100.412 0 0 0 0
16.4626 -89.1798 0 0 0 0
57.9918 -98.3981 0 0 0 0
16.7268 -86.2619 0 0 0 0
17.0552 -83.7685 0 0 0 0
17.5095 -84.4079 0 0 0 0
16.9396 -83.2199 0 0 0 0
16.5148 -84.659 0 0 0 0
17.2017 -82.7725 0 0 0 0
18.3006 -85.6551 0 0 0 0
16.7452 -82.1325 0 0 0 0
17.1454 -85.8632 0 0 0 0
20.0902 -82.5112 0 0 0 0
16.867 -86.3063 0 0 0 0
18.3192 -81.519 0 0 0 0
16.0895 -86.6156 0 0 0 0
18.1596 -80.9586 0 0 0 0
15.5781 -86.9962 0 0 0 0
17.2173 -80.1885 0 0 0 0
14.9072 -87.3341 0 0 0 0
17.25 -79.6796 0 0 0 0
77.5317 -97.7617 0 0 0 0
76.7605 -95.8311 0 0 0 0
77.8964 -96.747 0 0 0 0
76.3814 -96.7411 0 0 0 0
78.3641 -96.4782 0 0 0 0
75.6745 -95.2762 0 0 0 0
78.9051 -96.7412 0 0 0 0
75.1412 -95.0694 0 0 0 0
79.0181 -93.9029 0 0 0 0
75.0157 -97.8174 0 0 0 0
79.9819 -97.2292 0 0 0 0
74.2841 -96.1734 0 0 0 0
80.402 -96.6157 0 0 0 0
73.7611 -96.0412 0 0 0 0
80.7157 -95.2315 0 0 0 0
73.4932 -97.757 0 0 0 0
81.3651 -96.2793 0 0 0 0
72.9352 -97.3712 0 0 0 0
81.7491 -95.4048 0 0 0 0
72.4156 -97.2638 0 0 0 0
82.1127 -94.3826 0 0 0 0
71.8359 -96.7207 0 0 0 0
82.6096 -94.3251 0 0 0 0
71.3783 -97.0618 0 0 0 0
82.9741 -93.3091 0 0 0 0
71.0761 -98.5295 0 0 0 0
83.5844 -94.0742 0 0 0 0
70.571 -98.5266 0 0 0 0
84.4197 -96.4689 0 0 0 0
69.9065 -97.3696 0 0 0 0
84.7318 -95.0733 0 0 0 0
69.4899 -98.008 0 0 0 0
85.2809 -95.3945 0 0 0 0
68.8389 -96.9481 0 0 0 0
85.7239 -94.9474 0 0 0 0
68.3297 -96.9161 0 0 0 0
86.1896 -94.6646 0 0 0 0
67.8252 -96.9175 0 0 0 0
86.5394 -93.5421 0 0 0 0
67.4511 -97.8645 0 0 0 0
87.2188 -94.8074 0 0 0 0
66.8679 -97.2958 0 0 0 0
87.8389 -95.6433 0 0 0 0
66.2783 -96.681 0 0 0 0
88.0301 -93.3715 0 0 0 0
65.9238 -97.7692 0 0 0 0
88.7737 -95.1024 0 0 0 0
65.3403 -97.1987 0 0 0 0
89.3218 -95.4163 0 0 0 0
65.0761 -98.9418 0 0 0 0
90.0136 -96.7719 0 0 0 0
64.6681 -99.6426 0 0 0 0
90.3291 -95.4008 0 0 0 0
63.9224 -97.8968 0 0 0 0
91.0213 -96.7587 0 0 0 0
63.4854 -98.3875 0 0 0 0
91.1906 -94.3286 0 0 0 0
63.0036 -98.5534 0 0 0 0
91.6521 -94.0154 0 0 0 0
62.6806 -99.8705 0 0 0 0
92.1487 -93.9559 0 0 0 0
62.0985 -99.3099 0 0 0 0
92.6838 -94.1763 0 0 0 0
61.5522 -99.0089 0 0 0 0
93.3839 -95.5918 0 0 0 0
92.8957 -90.4487 0 0 0 0
92.4388 -91.0165 0 0 0 0
92.3353 -90.0213 0 0 0 0
92.3028 -91.54 0 0 0 0
92.6397 -89.4745 0 0 0 0
92.6986 -91.9901 0 0 0 0
92.5747 -88.9788 0 0 0 0
93.7019 -92.3563 0 0 0 0
92.8381 -88.4377 0 0 0 0
92.7073 -92.9984 0 0 0 0
93.3398 -87.8637 0 0 0 0
92.1072 -93.5859 0 0 0 0
94.6692 -87.1754 0 0 0 0
93.0998 -93.9537 0 0 0 0
92.7219 -86.9395 0 0 0 0
76.3703 -89.3469 0 0 0 0
76.8923 -89.4723 0 0 0 0
76.0182 -90.4529 0 0 0 0
77.4045 -89.5256 0 0 0 0
75.3111 -88.9868 0 0 0 0
77.7072 -88.0619 0 0 0 0
74.9388 -89.946 0 0 0 0
78.2907 -88.633 0 0 0 0
74.2157 -88.364 0 0 0 0
78.7011 -87.9495 0 0 0 0
73.5998 -87.5587 0 0 0 0
79.3044 -88.6631 0 0 0 0
73.5782 -91.0593 0 0 0 0
79.7566 -88.2829 0 0 0 0
72.9205 -89.9512 0 0 0 0
80.2958 -88.5323 0 0 0 0
72.1568 -88.0748 0 0 0 0
80.7726 -88.3301 0 0 0 0
71.9775 -90.4323 0 0 0 0
81.1929 -87.7184 0 0 0 0
71.3369 -89.4483 0 0 0 0
81.6911 -87.6711 0 0 0 0
70.7179 -88.6207 0 0 0 0
82.2426 -88.0096 0 0 0 0
70.1915 -88.4634 0 0 0 0
82.792 -88.333 0 0 0 0
70.0338 -90.978 0 0 0 0
83.2257 -87.8181 0 0 0 0
69.2288 -88.8024 0 0 0 0
83.6671 -87.3598 0 0 0 0
68.8867 -89.9805 0 0 0 0
84.1707 -87.3509 0 0 0 0
68.469 -90.6114 0 0 0 0
84.4975 -86.0619 0 0 0 0
67.8486 -89.7734 0 0 0 0
85.385 -88.8349 0 0 0 0
67.4924 -90.8494 0 0 0 0
85.8263 -88.3758 0 0 0 0
66.8968 -90.1915 0 0 0 0
86.0244 -86.154 0 0 0 0
66.2879 -89.4369 0 0 0 0
86.6959 -87.3619 0 0 0 0
66.0978 -91.7161 0 0 0 0
87.1774 -87.194 0 0 0 0
65.2535 -89.256 0 0 0 0
87.5547 -86.2707 0 0 0 0
64.7148 -89.0102 0 0 0 0
88.3581 -88.4342 0 0 0 0
64.2037 -88.9644 0 0 0 0
88.6485 -86.8817 0 0 0 0
64.1403 -92.1614 0 0 0 0
89.4226 -88.8326 0 0 0 0
63.7528 -93.0108 0 0 0 0
89.5642 -86.2021 0 0 0 0
62.7511 -89.4107 0 0 0 0
90.1904 -87.0816 0 0 0 0
62.3926 -90.4699 0 0 0 0
90.8306 -88.063 0 0 0 0
61.6686 -88.8816 0 0 0 0
90.8481 -84.5331 0 0 0 0
61.5389 -91.5991 0 0 0 0
91.769 -87.5481 0 0 0 0
60.8955 -90.5942 0 0 0 0
92.222 -87.1734 0 0 0 0
60.2903 -89.866 0 0 0 0
59.3378 -95.0805 0 0 0 0
61.0505 -94.3394 0 0 0 0
60.0808 -95.4827 0 0 0 0
59.6609 -94.0264 0 0 0 0
61.0722 -95.8506 0 0 0 0
60.8279 -93.3606 0 0 0 0
61.6064 -96.2816 0 0 0 0
59.6352 -93.0205 0 0 0 0
62.3155 -96.6885 0 0 0 0
61.1963 -92.3003 0 0 0 0
61.0759 -97.3643 0 0 0 0
60.4214 -91.9025 0 0 0 0
62.9694 -97.6077 0 0 0 0
61.0644 -91.309 0 0 0 0
61.5252 -98.3117 0 0 0 0
87.2117 -90.3983 0 0 0 0
87.7117 -86.6513 0 0 0 0
86.7117 -86.2877 0 0 0 0
88.2117 -87.4698 0 0 0 0
86.2117 -87.2569 0 0 0 0
88.7117 -86.3825 0 0 0 0
85.7117 -88.0291 0 0 0 0
89.2117 -85.4749 0 0 0 0
85.2117 -86.9976 0 0 0 0
89.7117 -85.9774 0 0 0 0
84.7117 -86.209 0 0 0 0
90.2117 -84.8032 0 0 0 0
84.2117 -84.8218 0 0 0 0
90.7117 -86.8115 0 0 0 0
83.7117 -88.305 0 0 0 0
91.2117 -85.7311 0 0 0 0
83.2117 -87.6908 0 0 0 0
91.7117 -87.0619 0 0 0 0
82.7117 -87.5871 0 0 0 0
92.2117 -88.3102 0 0 0 0
82.2117 -85.6703 0 0 0 0
83.1896 -76.5976 0 0 0 0
82.6249 -77.0976 0 0 0 0
82.4267 -76.0976 0 0 0 0
82.0028 -77.5976 0 0 0 0
80.4449 -75.5976 0 0 0 0
80.6533 -78.0976 0 0 0 0
80.9263 -75.0976 0 0 0 0
82.0118 -78.5976 0 0 0 0
83.2794 -74.5976 0 0 0 0
83.0944 -79.0976 0 0 0 0
80.5842 -74.0976 0 0 0 0
80.5543 -79.5976 0 0 0 0
80.304 -73.5976 0 0 0 0
80.877 -80.0976 0 0 0 0
79.5082 -73.0976 0 0 0 0
80.5393 -80.5976 0 0 0 0
79.6828 -72.5976 0 0 0 0
82.6788 -81.0976 0 0 0 0
82.7787 -72.0976 0 0 0 0
82.423 -81.5976 0 0 0 0
81.8268 -71.5976 0 0 0 0
82.7107 -82.0976 0 0 0 0
82.1627 -71.0976 0 0 0 0
81.2873 -82.5976 0 0 0 0
82.6469 -70.5976 0 0 0 0
82.2557 -83.0976 0 0 0 0
80.7005 -70.0976 0 0 0 0
82.1624 -83.5976 0 0 0 0
82.7722 -69.5976 0 0 0 0
80.6857 -84.0976 0 0 0 0
81.0727 -69.0976 0 0 0 0
83.756 -84.5976 0 0 0 0
82.8901 -68.5976 0 0 0 0
80.7874 -85.0976 0 0 0 0
82.2121 -68.0976 0 0 0 0
81.6182 -85.5976 0 0 0 0
79.7049 -67.5976 0 0 0 0
81.8079 -86.0976 0 0 0 0
82.4058 -67.0976 0 0 0 0
82.8474 -86.5976 0 0 0 0
82.5803 -66.5976 0 0 0 0
87.3654 -66.2809 0 0 0 0
86.8654 -67.2055 0 0 0 0
87.8654 -66.9965 0 0 0 0
86.3654 -64.9885 0 0 0 0
88.3654 -65.4845 0 0 0 0
85.8654 -67.1807 0 0 0 0
88.8654 -64.5759 0 0 0 0
85.3654 -66.4522 0 0 0 0
89.3654 -67.3892 0 0 0 0
84.8654 -66.49 0 0 0 0
89.8654 -68.3603 0 0 0 0
84.3654 -66.7684 0 0 0 0
90.3654 -65.5868 0 0 0 0
83.8654 -65.8023 0 0 0 0
90.8654 -66.398 0 0 0 0
83.3654 -65.9139 0 0 0 0
91.3654 -67.2095 0 0 0 0
82.8654 -66.755 0 0 0 0
91.8654 -67.3221 0 0 0 0
82.3654 -65.9389 0 0 0 0
92.3654 -65.5779 0 0 0 0
91.5508 -76.5804 0 0 0 0
91.6659 -76.0821 0 0 0 0
94.0252 -77.1184 0 0 0 0
90.5478 -75.5649 0 0 0 0
92.9854 -77.6025 0 0 0 0
92.1108 -75.0888 0 0 0 0
94.0207 -78.1185 0 0 0 0
92.5877 -74.5961 0 0 0 0
92.4744 -78.5948 0 0 0 0
93.0689 -74.1034 0 0 0 0
91.4903 -79.0798 0 0 0 0
91.1361 -73.5737 0 0 0 0
91.9854 -79.5874 0 0 0 0
92.4261 -73.0934 0 0 0 0
94.1901 -80.1213 0 0 0 0
94.2336 -72.6211 0 0 0 0
92.5853 -80.5968 0 0 0 0
91.707 -72.0823 0 0 0 0
92.6666 -81.0981 0 0 0 0
93.564 -71.6107 0 0 0 0
92.9702 -81.6028 0 0 0 0
92.5028 -71.0944 0 0 0 0
90.9615 -82.072 0 0 0 0
92.523 -70.5946 0 0 0 0
92.4499 -82.5949 0 0 0 0
93.2589 -70.1059 0 0 0 0
93.8722 -83.1168 0 0 0 0
90.3612 -69.5614 0 0 0 0
92.6864 -83.5987 0 0 0 0
93.8473 -69.1148 0 0 0 0
91.9785 -84.0879 0 0 0 0
92.0728 -68.5875 0 0 0 0
90.4495 -84.5645 0 0 0 0
93.2993 -68.1062 0 0 0 0
93.6425 -85.1135 0 0 0 0
93.7327 -67.6128 0 0 0 0
92.6915 -85.599 0 0 0 0
89.5912 -67.0493 0 0 0 0
94.3007 -86.1237 0 0 0 0
91.3969 -66.5769 0 0 0 0
92.6682 -86.5987 0 0 0 0
79.8558 -66.0325 0 0 0 0
80.3558 -65.5657 0 0 0 0
79.3558 -65.9539 0 0 0 0
80.8558 -66.4521 0 0 0 0
78.8558 -66.2011 0 0 0 0
81.3558 -66.3524 0 0 0 0
78.3558 -67.0925 0 0 0 0
81.8558 -65.6466 0 0 0 0
77.8558 -67.0526 0 0 0 0
82.3558 -65.946 0 0 0 0
77.3558 -65.4897 0 0 0 0
82.8558 -65.2206 0 0 0 0
76.8558 -66.2874 0 0 0 0
83.3558 -66.559 0 0 0 0
76.3558 -67.8976 0 0 0 0
83.8558 -68.4736 0 0 0 0
75.8558 -65.9839 0 0 0 0
84.3558 -67.522 0 0 0 0
75.3558 -67.1651 0 0 0 0
84.8558 -67.5356 0 0 0 0
74.8558 -67.4534 0 0 0 0
85.3558 -64.5483 0 0 0 0
74.3558 -67.0529 0 0 0 0
85.8558 -66.6723 0 0 0 0
73.8558 -63.6077 0 0 0 0
86.3558 -67.0827 0 0 0 0
73.3558 -66.3346 0 0 0 0
86.8558 -66.0519 0 0 0 0
72.8558 -65.9692 0 0 0 0
87.3558 -65.8093 0 0 0 0
72.3558 -67.5255 0 0 0 0
87.8558 -66.5809 0 0 0 0
71.8558 -66.1733 0 0 0 0
88.3558 -64.0581 0 0 0 0
71.3558 -64.3182 0 0 0 0
88.8558 -63.455 0 0 0 0
70.8558 -66.8129 0 0 0 0
89.3558 -67.039 0 0 0 0
70.3558 -66.6556 0 0 0 0
89.8558 -68.4255 0 0 0 0
69.8558 -66.4603 0 0 0 0
90.3558 -68.2315 0 0 0 0
69.3558 -66.196 0 0 0 0
90.8558 -66.6721 0 0 0 0
68.8558 -65.6766 0 0 0 0
91.3558 -65.1379 0 0 0 0
68.3558 -66.9616 0 0 0 0
91.8558 -66.63 0 0 0 0
67.8558 -65.7267 0 0 0 0
92.3558 -66.4368 0 0 0 0
67.3558 -66.5357 0 0 0 0
92.8558 -66.0449 0 0 0 0
66.8558 -66.6588 0 0 0 0
93.3558 -68.7451 0 0 0 0
66.3558 -67.8826 0 0 0 0
93.8558 -66.8714 0 0 0 0
65.8558 -64.8757 0 0 0 0
94.3558 -63.7774 0 0 0 0
65.3558 -64.2475 0 0 0 0
94.8558 -66.9373 0 0 0 0
64.8558 -64.684 0 0 0 0
95.3558 -66.4761 0 0 0 0
64.3558 -66.2748 0 0 0 0
95.8558 -67.026 0 0 0 0
63.8558 -67.6484 0 0 0 0
96.3558 -67.9666 0 0 0 0
63.3558 -65.3443 0 0 0 0
96.8558 -66.5103 0 0 0 0
62.8558 -65.6424 0 0 0 0
97.3558 -66.6115 0 0 0 0
62.3558 -66.9431 0 0 0 0
97.8558 -64.978 0 0 0 0
61.8558 -67.5299 0 0 0 0
98.3558 -66.3267 0 0 0 0
61.3558 -66.0372 0 0 0 0
98.8558 -66.8204 0 0 0 0
60.8558 -67.2674 0 0 0 0
99.3558 -66.371 0 0 0 0
60.3558 -66.6087 0 0 0 0
58.9997 -61.4754 0 0 0 0
60.9618 -61.9754 0 0 0 0
60.5967 -60.9754 0 0 0 0
58.7302 -62.4754 0 0 0 0
58.85 -60.4754 0 0 0 0
59.2265 -62.9754 0 0 0 0
59.803 -59.9754 0 0 0 0
60.8577 -63.4754 0 0 0 0
60.0931 -59.4754 0 0 0 0
58.5783 -63.9754 0 0 0 0
59.7086 -58.9754 0 0 0 0
60.3938 -64.4754 0 0 0 0
60.4009 -58.4754 0 0 0 0
59.9922 -64.9754 0 0 0 0
60.2532 -57.9754 0 0 0 0
59.8005 -65.4754 0 0 0 0
60.7362 -57.4754 0 0 0 0
61.9957 -65.9754 0 0 0 0
59.8471 -56.9754 0 0 0 0
79.8558 -57.4495 0 0 0 0
79.3558 -57.5669 0 0 0 0
80.3558 -56.1368 0 0 0 0
78.8558 -57.1544 0 0 0 0
80.8558 -56.9069 0 0 0 0
78.3558 -56.833 0 0 0 0
81.3558 -56.6954 0 0 0 0
77.8558 -56.2455 0 0 0 0
81.8558 -56.862 0 0 0 0
77.3558 -56.4381 0 0 0 0
82.3558 -56.6512 0 0 0 0
76.8558 -57.2276 0 0 0 0
82.8558 -55.0168 0 0 0 0
76.3558 -56.5536 0 0 0 0
83.3558 -55.8908 0 0 0 0
75.8558 -58.3736 0 0 0 0
83.8558 -56.2411 0 0 0 0
75.3558 -55.5422 0 0 0 0
84.3558 -55.9091 0 0 0 0
74.8558 -56.5823 0 0 0 0
84.8558 -56.3841 0 0 0 0
74.3558 -57.0747 0 0 0 0
85.3558 -56.7214 0 0 0 0
73.8558 -56.8251 0 0 0 0
85.8558 -57.2502 0 0 0 0
73.3558 -58.312 0 0 0 0
86.3558 -57.7844 0 0 0 0
72.8558 -56.5166 0 0 0 0
86.8558 -56.042 0 0 0 0
72.3558 -55.5608 0 0 0 0
87.3558 -56.5865 0 0 0 0
71.8558 -57.849 0 0 0 0
87.8558 -57.6078 0 0 0 0
71.3558 -57.6232 0 0 0 0
88.3558 -56.4114 0 0 0 0
70.8558 -55.0934 0 0 0 0
88.8558 -57.0667 0 0 0 0
70.3558 -57.0111 0 0 0 0
89.3558 -56.1977 0 0 0 0
69.8558 -56.828 0 0 0 0
89.8558 -55.7724 0 0 0 0
69.3558 -56.382 0 0 0 0
90.3558 -57.2866 0 0 0 0
68.8558 -55.4575 0 0 0 0
90.8558 -56.5429 0 0 0 0
68.3558 -55.603 0 0 0 0
91.3558 -58.6941 0 0 0 0
67.8558 -57.9636 0 0 0 0
91.8558 -55.8565 0 0 0 0
67.3558 -57.2793 0 0 0 0
92.3558 -53.9862 0 0 0 0
66.8558 -55.5976 0 0 0 0
92.8558 -57.6262 0 0 0 0
66.3558 -58.6897 0 0 0 0
93.3558 -58.1101 0 0 0 0
65.8558 -58.2333 0 0 0 0
93.8558 -56.1971 0 0 0 0
65.3558 -57.0187 0 0 0 0
94.3558 -56.1274 0 0 0 0
64.8558 -56.447 0 0 0 0
94.8558 -54.9946 0 0 0 0
64.3558 -55.1689 0 0 0 0
95.3558 -58.0405 0 0 0 0
63.8558 -56.2878 0 0 0 0
95.8558 -57.4056 0 0 0 0
63.3558 -56.0024 0 0 0 0
96.3558 -55.8186 0 0 0 0
62.8558 -56.5445 0 0 0 0
96.8558 -55.5588 0 0 0 0
62.3558 -56.0075 0 0 0 0
97.3558 -56.6437 0 0 0 0
61.8558 -55.8938 0 0 0 0
97.8558 -55.5728 0 0 0 0
61.3558 -58.8953 0 0 0 0
98.3558 -58.6137 0 0 0 0
60.8558 -55.897 0 0 0 0
98.8558 -55.2594 0 0 0 0
60.3558 -56.7763 0 0 0 0
99.3558 -56.7474 0 0 0 0
100.219 -61.4754 0 0 0 0
101.005 -60.9754 0 0 0 0
99.0618 -61.9754 0 0 0 0
98.1318 -60.4754 0 0 0 0
99.0899 -62.4754 0 0 0 0
100.133 -59.9754 0 0 0 0
100.113 -62.9754 0 0 0 0
100.233 -59.4754 0 0 0 0
98.5925 -63.4754 0 0 0 0
99.6386 -58.9754 0 0 0 0
99.3696 -63.9754 0 0 0 0
101.073 -58.4754 0 0 0 0
100.349 -64.4754 0 0 0 0
101.186 -57.9754 0 0 0 0
98.6289 -64.9754 0 0 0 0
99.5328 -57.4754 0 0 0 0
99.9661 -65.4754 0 0 0 0
100.567 -56.9754 0 0 0 0
100.519 -65.9754 0 0 0 0
