ply
format ascii 1.0
comment PCL generated
element vertex 200
property float x
property float y
property float z
property uchar red
property uchar green
property uchar blue
element face 50
property list uchar int vertex_indices
end_header
0.38339 0.5244 0.018336 60 97 52 
0.023583 0.5232 0.018343 60 97 52 
0.023583 0.52436 0.2165 60 97 52 
0.38339 0.52556 0.21649 60 97 52 
0.89126 0.23605 0.87061 44 77 106 
0.94294 0.27399 0.58874 44 77 106 
0.96531 0.24353 0.58874 44 77 106 
0.91363 0.20559 0.87061 44 77 106 
0.83792 0.28572 0.2347 124 83 45 
0.83836 0.14746 0.2347 124 83 45 
0.84231 0.14746 0.64642 124 83 45 
0.84187 0.28572 0.64642 124 83 45 
0.85937 0.1976 0.45327 79 51 85 
0.85646 0.19734 0.38787 79 51 85 
0.85274 0.24016 0.38787 79 51 85 
0.85564 0.24041 0.45327 79 51 85 
0.54893 0.07109 0.027898 60 97 52 
0.39443 0.070575 0.027901 60 97 52 
0.39443 0.071985 0.26821 60 97 52 
0.54893 0.0725 0.2682 60 97 52 
0.97316 0.17893 0.57296 79 51 85 
0.9715 0.1788 0.038877 79 51 85 
0.95585 0.37751 0.038877 79 51 85 
0.95751 0.37764 0.57296 79 51 85 
0.39571 0.14054 0.037918 60 97 52 
0.01643 0.13927 0.037926 60 97 52 
0.01643 0.14039 0.22856 60 97 52 
0.39571 0.14166 0.22856 60 97 52 
0.83836 0.28392 0.57515 102 56 43 
0.83862 0.15148 0.57509 102 56 43 
0.90669 0.15148 0.86761 102 56 43 
0.90644 0.28392 0.86766 102 56 43 
0.025739 0.53027 0.040375 124 83 45 
0.026668 0.24018 0.040366 124 83 45 
0.027672 0.24018 0.14518 124 83 45 
0.026743 0.53027 0.14519 124 83 45 
0.87885 0.52582 0.19925 120 44 48 
0.42291 0.52738 0.20179 120 44 48 
0.42291 0.3227 0.32723 120 44 48 
0.87885 0.32115 0.32469 120 44 48 
0.84427 0.13916 0.21978 107 63 89 
0.20713 0.13612 0.2253 107 63 89 
0.20713 0.32653 0.32991 107 63 89 
0.84427 0.32956 0.32439 107 63 89 
0.97091 0.15395 0.63693 60 97 52 
0.57233 0.15262 0.63694 60 97 52 
0.57233 0.14904 0.027727 60 97 52 
0.97091 0.15037 0.027719 60 97 52 
0.70087 0.53046 0.20558 57 57 57 
0.12628 0.53239 0.20899 57 57 57 
0.12628 0.3223 0.32739 57 57 57 
0.70087 0.32038 0.32398 57 57 57 
0.46721 0.2114 0.26573 120 44 48 
0.46764 0.06857 0.26658 120 44 48 
0.55324 0.06857 0.224 120 44 48 
0.55282 0.2114 0.22315 120 44 48 
0.12971 0.52831 0.20008 124 83 45 
0.13093 0.14732 0.20007 124 83 45 
0.13221 0.14732 0.33396 124 83 45 
0.13099 0.52831 0.33397 124 83 45 
0.96939 0.24641 0.57934 62 44 120 
0.96978 0.15944 0.57943 62 44 120 
0.90428 0.15944 0.86722 62 44 120 
0.90389 0.24641 0.86714 62 44 120 
0.9683 0.15531 0.57366 46 120 44 
0.84126 0.14865 0.57522 46 120 44 
0.84126 0.21358 0.85242 46 120 44 
0.9683 0.22025 0.85086 46 120 44 
0.83931 0.52262 0.21993 61 97 52 
0.84629 0.2923 0.23462 61 97 52 
0.96354 0.2923 0.17889 61 97 52 
0.95656 0.52262 0.1642 61 97 52 
0.55461 0.59369 0.0089464 60 97 52 
0.39914 0.59317 0.0089495 60 97 52 
0.39914 0.59459 0.25094 60 97 52 
0.55461 0.59511 0.25093 60 97 52 
0.89922 0.51988 0.0023898 60 97 52 
0.55284 0.51873 0.0023965 60 97 52 
0.55284 0.51993 0.20815 60 97 52 
0.89922 0.52109 0.20814 60 97 52 
0.13028 0.16108 0.23193 60 97 52 
0.019715 0.16072 0.23193 60 97 52 
0.019715 0.16017 0.13971 60 97 52 
0.13028 0.16054 0.13971 60 97 52 
0.48201 0.59963 0.25391 97 83 52 
0.48074 0.44954 0.25628 97 83 52 
0.39405 0.44954 0.21014 97 83 52 
0.39531 0.59963 0.20777 97 83 52 
0.516 0.39785 0.37437 97 52 62 
0.51698 0.39944 0.26701 97 52 62 
0.48584 0.41869 0.26701 97 52 62 
0.48486 0.41711 0.37437 97 52 62 
0.97087 0.28283 0.20921 60 97 52 
0.83736 0.28239 0.20921 60 97 52 
0.83736 0.28488 0.63448 60 97 52 
0.97087 0.28533 0.63448 60 97 52 
0.54129 0.35998 0.37495 44 77 106 
0.54092 0.35974 0.28133 44 77 106 
0.51343 0.40136 0.28133 44 77 106 
0.5138 0.40161 0.37495 44 77 106 
0.65792 0.13422 0.21652 90 106 44 
0.12869 0.13161 0.22107 90 106 44 
0.12869 0.32435 0.33171 90 106 44 
0.65792 0.32697 0.32715 90 106 44 
0.55206 0.59087 0.010128 124 83 45 
0.55229 0.52101 0.010126 124 83 45 
0.55422 0.52101 0.21156 124 83 45 
0.55399 0.59087 0.21156 124 83 45 
0.39644 0.14623 0.03322 124 83 45 
0.39669 0.065978 0.033217 124 83 45 
0.39856 0.065978 0.22836 124 83 45 
0.3983 0.14623 0.22836 124 83 45 
0.96997 0.224 0.85076 106 75 44 
0.83855 0.22387 0.85073 106 75 44 
0.83855 0.28557 0.57277 106 75 44 
0.96997 0.2857 0.5728 106 75 44 
0.54027 0.1481 0.041535 124 83 45 
0.54028 0.03981 0.042171 124 83 45 
0.75105 0.03981 0.040164 124 83 45 
0.75105 0.1481 0.039529 124 83 45 
0.022392 0.19581 0.065932 124 83 45 
0.022574 0.13902 0.06593 124 83 45 
0.024042 0.13902 0.21926 124 83 45 
0.02386 0.19581 0.21926 124 83 45 
0.79562 0.51281 0.13761 60 97 52 
0.72294 0.51257 0.13761 60 97 52 
0.72294 0.51277 0.17221 60 97 52 
0.79562 0.51301 0.17221 60 97 52 
0.39791 0.59796 0.013174 124 83 45 
0.39816 0.52045 0.013172 124 83 45 
0.40005 0.52045 0.21055 124 83 45 
0.3998 0.59796 0.21056 124 83 45 
0.13015 0.53048 0.1992 124 45 123 
0.12954 0.16164 0.20037 124 45 123 
0.020256 0.16164 0.14293 124 45 123 
0.020871 0.53048 0.14176 124 45 123 
0.54533 0.14573 0.047689 124 83 45 
0.54556 0.072204 0.047687 124 83 45 
0.54728 0.072204 0.22715 124 83 45 
0.54705 0.14573 0.22715 124 83 45 
0.42119 0.38288 0.372 45 94 124 
0.41327 0.39346 0.31418 45 94 124 
0.44725 0.41891 0.31418 45 94 124 
0.45517 0.40834 0.372 45 94 124 
0.84389 0.42594 0.23138 124 83 45 
0.84425 0.31537 0.23138 124 83 45 
0.84513 0.31537 0.32324 124 83 45 
0.84477 0.42594 0.32325 124 83 45 
0.92351 0.23501 0.85084 78 51 85 
0.96589 0.19349 0.5885 78 51 85 
0.92935 0.15618 0.5885 78 51 85 
0.88696 0.19771 0.85084 78 51 85 
0.88862 0.23641 0.85032 51 82 85 
0.84341 0.19019 0.59833 51 82 85 
0.87767 0.15669 0.59833 51 82 85 
0.92287 0.20291 0.85032 51 82 85 
0.11302 0.4429 0.1905 124 83 45 
0.11312 0.41116 0.1905 124 83 45 
0.1146 0.41116 0.34505 124 83 45 
0.1145 0.4429 0.34505 124 83 45 
0.87433 0.20319 0.8556 83 85 51 
0.84072 0.24491 0.58459 83 85 51 
0.88316 0.27911 0.58459 83 85 51 
0.91677 0.23739 0.8556 83 85 51 
0.48624 0.25335 0.35756 102 55 43 
0.48969 0.24608 0.28491 102 55 43 
0.52414 0.26243 0.28491 102 55 43 
0.52069 0.26971 0.35756 102 55 43 
0.94547 0.46636 0.17509 73 43 102 
0.95109 0.46864 0.0057332 73 43 102 
0.93478 0.50886 0.0057332 73 43 102 
0.92916 0.50658 0.17509 73 43 102 
0.393 0.22441 0.2282 124 45 123 
0.39476 0.066553 0.22485 124 45 123 
0.472 0.066553 0.26547 124 45 123 
0.47024 0.22441 0.26882 124 45 123 
0.49909 0.4146 0.26944 60 97 52 
0.44593 0.41442 0.26944 60 97 52 
0.44593 0.41503 0.3728 60 97 52 
0.49909 0.41521 0.37279 60 97 52 
0.45781 0.3635 0.41511 43 102 76 
0.46023 0.2988 0.41134 43 102 76 
0.39509 0.2988 0.36944 43 102 76 
0.39267 0.3635 0.37321 43 102 76 
0.77838 0.15607 0.14051 60 97 52 
0.70874 0.15584 0.14051 60 97 52 
0.70874 0.15604 0.17517 60 97 52 
0.77838 0.15628 0.17517 60 97 52 
0.90787 0.15521 0.63643 60 97 52 
0.90787 0.15533 0.21213 60 97 52 
0.83741 0.15118 0.21213 60 97 52 
0.83742 0.15107 0.63643 60 97 52 
0.96817 0.28415 0.38565 124 83 45 
0.96859 0.15392 0.38565 124 83 45 
0.97108 0.15392 0.64606 124 83 45 
0.97066 0.28415 0.64606 124 83 45 
0.93679 0.50173 0.17232 107 63 90 
0.93895 0.50631 0.0052186 107 63 90 
0.90204 0.52372 0.0052186 107 63 90 
0.89988 0.51914 0.17232 107 63 90 
4 0 1 2 3
4 4 5 6 7
4 8 9 10 11
4 12 13 14 15
4 16 17 18 19
4 20 21 22 23
4 24 25 26 27
4 28 29 30 31
4 32 33 34 35
4 36 37 38 39
4 40 41 42 43
4 44 45 46 47
4 48 49 50 51
4 52 53 54 55
4 56 57 58 59
4 60 61 62 63
4 64 65 66 67
4 68 69 70 71
4 72 73 74 75
4 76 77 78 79
4 80 81 82 83
4 84 85 86 87
4 88 89 90 91
4 92 93 94 95
4 96 97 98 99
4 100 101 102 103
4 104 105 106 107
4 108 109 110 111
4 112 113 114 115
4 116 117 118 119
4 120 121 122 123
4 124 125 126 127
4 128 129 130 131
4 132 133 134 135
4 136 137 138 139
4 140 141 142 143
4 144 145 146 147
4 148 149 150 151
4 152 153 154 155
4 156 157 158 159
4 160 161 162 163
4 164 165 166 167
4 168 169 170 171
4 172 173 174 175
4 176 177 178 179
4 180 181 182 183
4 184 185 186 187
4 188 189 190 191
4 192 193 194 195
4 196 197 198 199
