ply
format ascii 1.0
comment PCL generated
element vertex 476
property float x
property float y
property float z
property uchar red
property uchar green
property uchar blue
element face 119
property list uchar int vertex_indices
end_header
0.46043 0.14633 0.45679 60 97 52 
0.43255 0.14633 0.4568 60 97 52 
0.43255 0.2444 0.45705 60 97 52 
0.46043 0.2444 0.45704 60 97 52 
0.45902 0.14204 0.54836 60 97 52 
0.43333 0.14204 0.54837 60 97 52 
0.43333 0.24427 0.54864 60 97 52 
0.45902 0.24427 0.54863 60 97 52 
0.46062 0.24784 0.36545 60 97 52 
0.43216 0.24784 0.36546 60 97 52 
0.43216 0.14653 0.3652 60 97 52 
0.46062 0.14653 0.36519 60 97 52 
0.45914 0.24415 0.27372 60 97 52 
0.43082 0.24415 0.27373 60 97 52 
0.43082 0.14655 0.27348 60 97 52 
0.45914 0.14655 0.27347 60 97 52 
0.46028 0.20735 0.34155 44 77 106 
0.46028 0.20761 0.27835 44 77 106 
0.43408 0.20744 0.27835 44 77 106 
0.43408 0.20718 0.34155 44 77 106 
0.45986 0.10759 0.50362 60 97 52 
0.4346 0.10759 0.50363 60 97 52 
0.4346 0.06712 0.50352 60 97 52 
0.45986 0.06712 0.50351 60 97 52 
0.46063 0.11142 0.68612 60 97 52 
0.43148 0.11142 0.68613 60 97 52 
0.43148 0.067616 0.68602 60 97 52 
0.46063 0.067616 0.68601 60 97 52 
0.4611 0.11089 0.59501 60 97 52 
0.43161 0.11089 0.59502 60 97 52 
0.43161 0.067086 0.59491 60 97 52 
0.4611 0.067086 0.5949 60 97 52 
0.4603 0.052221 0.41074 60 97 52 
0.43508 0.052221 0.41075 60 97 52 
0.43508 0.11173 0.41091 60 97 52 
0.4603 0.11173 0.4109 60 97 52 
0.50523 0.37885 0.3596 44 77 106 
0.50523 0.37917 0.18776 44 77 106 
0.48446 0.37899 0.18776 44 77 106 
0.48446 0.37867 0.3596 44 77 106 
0.48532 0.40611 0.85461 124 83 45 
0.48529 0.40611 0.16019 124 83 45 
0.48559 0.36907 0.16019 124 83 45 
0.48562 0.36907 0.85461 124 83 45 
0.48025 0.42737 0.4462 44 77 106 
0.48024 0.42792 0.15056 44 77 106 
0.5058 0.42813 0.15056 44 77 106 
0.5058 0.42759 0.4462 44 77 106 
0.50494 0.43094 0.35586 60 97 52 
0.46727 0.43094 0.35587 60 97 52 
0.46727 0.46627 0.35597 60 97 52 
0.50494 0.46627 0.35595 60 97 52 
0.44294 0.45692 0.35677 44 77 106 
0.44294 0.45726 0.27573 44 77 106 
0.50234 0.45762 0.27573 44 77 106 
0.50234 0.45729 0.35677 44 77 106 
0.50278 0.45851 0.90254 44 77 106 
0.50276 0.45995 0.12647 44 77 106 
0.21073 0.45751 0.12647 44 77 106 
0.21074 0.45608 0.90254 44 77 106 
0.4869 0.4852 0.31861 60 97 52 
0.44072 0.4852 0.31863 60 97 52 
0.44072 0.45849 0.31856 60 97 52 
0.4869 0.45849 0.31854 60 97 52 
0.53713 0.46543 0.56542 44 77 106 
0.53713 0.46624 0.12451 44 77 106 
0.26485 0.46397 0.12451 44 77 106 
0.26486 0.46315 0.56542 44 77 106 
0.50413 0.46157 0.40245 44 77 106 
0.50413 0.46165 0.35483 44 77 106 
0.45844 0.46127 0.35483 44 77 106 
0.45844 0.46118 0.40245 44 77 106 
0.44144 0.48454 0.34091 44 77 106 
0.44144 0.48459 0.31727 44 77 106 
0.48665 0.48496 0.31727 44 77 106 
0.48665 0.48492 0.34091 44 77 106 
0.49786 0.46129 0.31152 124 83 45 
0.49786 0.46129 0.22821 124 83 45 
0.49813 0.42795 0.22821 124 83 45 
0.49813 0.42795 0.31152 124 83 45 
0.5054 0.42975 0.265 60 97 52 
0.46085 0.42975 0.26502 60 97 52 
0.46085 0.46658 0.26511 60 97 52 
0.5054 0.46658 0.26509 60 97 52 
0.50279 0.45628 0.266 44 77 106 
0.50279 0.45635 0.22976 44 77 106 
0.46992 0.45607 0.22976 44 77 106 
0.46992 0.45601 0.266 44 77 106 
0.43218 0.46635 0.23598 79 51 85 
0.43216 0.46635 0.1643 79 51 85 
0.4336 0.45777 0.1643 79 51 85 
0.43362 0.45778 0.23598 79 51 85 
0.50114 0.45627 0.2742 60 97 52 
0.46171 0.45627 0.27422 60 97 52 
0.46171 0.46366 0.27424 60 97 52 
0.50114 0.46366 0.27422 60 97 52 
0.48758 0.45847 0.22785 60 97 52 
0.43962 0.45847 0.22787 60 97 52 
0.43962 0.48231 0.22793 60 97 52 
0.48758 0.48231 0.22791 60 97 52 
0.43973 0.48434 0.25019 44 77 106 
0.43973 0.48438 0.22674 44 77 106 
0.4868 0.48478 0.22674 44 77 106 
0.4868 0.48473 0.25019 44 77 106 
0.48532 0.37844 0.46748 44 77 106 
0.48532 0.37863 0.36521 44 77 106 
0.50536 0.37879 0.36521 44 77 106 
0.50536 0.37861 0.46748 44 77 106 
0.50469 0.42451 0.40161 60 97 52 
0.46157 0.42451 0.40163 60 97 52 
0.46157 0.46632 0.40173 60 97 52 
0.50469 0.46632 0.40172 60 97 52 
0.50444 0.42787 0.44727 60 97 52 
0.47156 0.42787 0.44728 60 97 52 
0.47156 0.46598 0.44738 60 97 52 
0.50444 0.46598 0.44737 60 97 52 
0.49753 0.46003 0.48747 124 83 45 
0.49753 0.46003 0.36451 124 83 45 
0.49782 0.42377 0.36451 124 83 45 
0.49783 0.42377 0.48747 124 83 45 
0.48645 0.48536 0.41048 60 97 52 
0.43729 0.48536 0.4105 60 97 52 
0.43729 0.45896 0.41043 60 97 52 
0.48645 0.45896 0.41041 60 97 52 
0.4859 0.48332 0.5021 60 97 52 
0.4385 0.48332 0.50212 60 97 52 
0.4385 0.45882 0.50205 60 97 52 
0.4859 0.45882 0.50203 60 97 52 
0.42888 0.46597 0.53877 60 97 52 
0.35584 0.46597 0.5388 60 97 52 
0.35584 0.45327 0.53876 60 97 52 
0.42888 0.45327 0.53873 60 97 52 
0.48526 0.48432 0.52483 44 77 106 
0.48526 0.48436 0.50078 44 77 106 
0.43827 0.48397 0.50078 44 77 106 
0.43827 0.48392 0.52483 44 77 106 
0.48566 0.48475 0.59361 60 97 52 
0.43832 0.48475 0.59362 60 97 52 
0.43832 0.45774 0.59356 60 97 52 
0.48566 0.45774 0.59354 60 97 52 
0.42867 0.46605 0.62964 102 56 43 
0.35299 0.46603 0.62956 102 56 43 
0.35299 0.44897 0.63249 102 56 43 
0.42867 0.44898 0.63257 102 56 43 
0.48495 0.48534 0.6851 60 97 52 
0.43807 0.48534 0.68512 60 97 52 
0.43807 0.45888 0.68505 60 97 52 
0.48495 0.45888 0.68503 60 97 52 
0.54332 0.46984 0.13846 60 97 52 
0.48584 0.46984 0.13848 60 97 52 
0.48584 0.34651 0.13816 60 97 52 
0.54332 0.34651 0.13814 60 97 52 
0.50432 0.37724 0.15692 120 44 48 
0.48476 0.37714 0.15693 120 44 48 
0.48476 0.3817 0.18825 120 44 48 
0.50432 0.3818 0.18824 120 44 48 
0.50572 0.42778 0.17336 60 97 52 
0.46489 0.42778 0.17337 60 97 52 
0.46489 0.46623 0.17347 60 97 52 
0.50572 0.46623 0.17345 60 97 52 
0.49828 0.46019 0.21659 124 83 45 
0.49828 0.46019 0.14871 124 83 45 
0.49853 0.42921 0.14871 124 83 45 
0.49853 0.42921 0.21659 124 83 45 
0.5058 0.45677 0.17563 107 63 89 
0.43309 0.4562 0.1756 107 63 89 
0.43309 0.45935 0.11971 107 63 89 
0.5058 0.45992 0.11974 107 63 89 
0.48451 0.48489 0.15745 124 83 45 
0.4845 0.48489 0.13584 124 83 45 
0.48472 0.45857 0.13584 124 83 45 
0.48472 0.45857 0.15745 124 83 45 
0.48792 0.48156 0.1365 60 97 52 
0.44583 0.48156 0.13652 60 97 52 
0.44583 0.45845 0.13646 60 97 52 
0.48792 0.45845 0.13644 60 97 52 
0.50547 0.46496 0.17238 57 57 57 
0.46135 0.4646 0.17233 57 57 57 
0.46135 0.45728 0.22031 57 57 57 
0.50547 0.45764 0.22036 57 57 57 
0.44121 0.4845 0.15751 44 77 106 
0.44121 0.48454 0.1357 44 77 106 
0.48708 0.48492 0.1357 44 77 106 
0.48708 0.48488 0.15751 44 77 106 
0.48443 0.48528 0.77646 60 97 52 
0.43751 0.48528 0.77648 60 97 52 
0.43751 0.45766 0.77641 60 97 52 
0.48443 0.45766 0.77639 60 97 52 
0.50414 0.42773 0.49296 60 97 52 
0.46072 0.42773 0.49298 60 97 52 
0.46072 0.46646 0.49308 60 97 52 
0.50414 0.46646 0.49306 60 97 52 
0.50525 0.43034 0.31029 60 97 52 
0.46373 0.43034 0.31031 60 97 52 
0.46373 0.46646 0.3104 60 97 52 
0.50525 0.46646 0.31038 60 97 52 
0.50321 0.42857 0.67634 60 97 52 
0.46335 0.42857 0.67636 60 97 52 
0.46335 0.4664 0.67645 60 97 52 
0.50321 0.4664 0.67644 60 97 52 
0.50643 0.34715 0.18377 60 97 52 
0.48488 0.34715 0.18378 60 97 52 
0.48488 0.3806 0.18386 60 97 52 
0.50643 0.3806 0.18385 60 97 52 
0.50555 0.43082 0.21881 60 97 52 
0.46216 0.43082 0.21883 60 97 52 
0.46216 0.46639 0.21892 60 97 52 
0.50555 0.46639 0.2189 60 97 52 
0.47066 0.46249 0.21452 120 44 48 
0.47068 0.46253 0.19007 120 44 48 
0.4665 0.46432 0.19007 120 44 48 
0.46648 0.46428 0.21452 120 44 48 
0.40627 0.48389 0.4835 44 77 106 
0.40627 0.48394 0.45454 44 77 106 
0.30281 0.48308 0.45454 44 77 106 
0.30281 0.48302 0.4835 44 77 106 
0.40665 0.44912 0.45616 60 97 52 
0.3028 0.44912 0.4562 60 97 52 
0.3028 0.48476 0.45629 60 97 52 
0.40665 0.48476 0.45625 60 97 52 
0.40653 0.46105 0.59204 44 77 106 
0.40653 0.46122 0.50165 44 77 106 
0.24968 0.45991 0.50165 44 77 106 
0.24968 0.45974 0.59204 44 77 106 
0.40655 0.45739 0.54616 60 97 52 
0.35474 0.45738 0.54618 60 97 52 
0.35474 0.48491 0.54712 60 97 52 
0.40655 0.48491 0.54709 60 97 52 
0.40902 0.48481 0.36476 60 97 52 
0.27502 0.48481 0.36481 60 97 52 
0.27502 0.40806 0.36461 60 97 52 
0.40902 0.40806 0.36456 60 97 52 
0.40407 0.4839 0.40647 44 77 106 
0.40407 0.48398 0.36253 44 77 106 
0.3056 0.48316 0.36253 44 77 106 
0.30561 0.48308 0.40647 44 77 106 
0.40876 0.45976 0.35593 107 63 89 
0.37548 0.45949 0.35591 107 63 89 
0.37548 0.46249 0.31917 107 63 89 
0.40876 0.46277 0.31919 107 63 89 
0.40619 0.48493 0.27331 60 97 52 
0.35212 0.48493 0.27333 60 97 52 
0.35212 0.45709 0.27326 60 97 52 
0.40619 0.45709 0.27324 60 97 52 
0.4061 0.48423 0.3164 44 77 106 
0.4061 0.48431 0.27223 44 77 106 
0.30329 0.48345 0.27223 44 77 106 
0.30329 0.48337 0.3164 44 77 106 
0.35129 0.46715 0.28153 57 57 57 
0.28863 0.46659 0.28144 57 57 57 
0.28863 0.4559 0.35453 57 57 57 
0.35129 0.45646 0.35461 57 57 57 
0.3488 0.45743 0.27377 60 97 52 
0.30364 0.45743 0.27379 60 97 52 
0.30364 0.48464 0.27386 60 97 52 
0.3488 0.48464 0.27384 60 97 52 
0.33791 0.46583 0.35558 60 97 52 
0.29692 0.46583 0.3556 60 97 52 
0.29692 0.45285 0.35556 60 97 52 
0.33791 0.45285 0.35555 60 97 52 
0.27611 0.45505 0.30909 44 77 106 
0.2761 0.45518 0.23741 44 77 106 
0.30682 0.45544 0.23741 44 77 106 
0.30682 0.45531 0.30909 44 77 106 
0.40524 0.4603 0.63919 60 97 52 
0.30493 0.4603 0.63923 60 97 52 
0.30493 0.48466 0.63929 60 97 52 
0.40524 0.48466 0.63925 60 97 52 
0.4045 0.48365 0.58763 44 77 106 
0.4045 0.48373 0.54531 44 77 106 
0.30202 0.48287 0.54531 44 77 106 
0.30202 0.4828 0.58763 44 77 106 
0.36619 0.4846 0.54776 60 97 52 
0.30527 0.4846 0.54778 60 97 52 
0.30527 0.46148 0.54773 60 97 52 
0.36619 0.46148 0.5477 60 97 52 
0.42055 0.46072 0.73107 60 97 52 
0.30625 0.46072 0.73111 60 97 52 
0.30625 0.48443 0.73117 60 97 52 
0.42055 0.48443 0.73113 60 97 52 
0.40566 0.48392 0.18147 60 97 52 
0.3678 0.48392 0.18149 60 97 52 
0.3678 0.45738 0.18142 60 97 52 
0.40566 0.45738 0.18141 60 97 52 
0.40387 0.48425 0.21805 44 77 106 
0.40387 0.48432 0.18087 44 77 106 
0.33296 0.48373 0.18087 44 77 106 
0.33296 0.48366 0.21805 44 77 106 
0.3478 0.48472 0.18217 60 97 52 
0.30579 0.48472 0.18219 60 97 52 
0.30579 0.45741 0.18212 60 97 52 
0.3478 0.45741 0.1821 60 97 52 
0.30836 0.45905 0.27985 44 77 106 
0.30859 0.46218 0.22855 44 77 106 
0.27451 0.46468 0.22855 44 77 106 
0.27428 0.46155 0.27985 44 77 106 
0.28279 0.48279 0.50239 60 97 52 
0.23447 0.48279 0.50241 60 97 52 
0.23447 0.44322 0.50231 60 97 52 
0.28279 0.44322 0.50229 60 97 52 
0.20692 0.51203 0.81087 124 83 45 
0.20688 0.51203 0.12717 124 83 45 
0.20759 0.42489 0.12717 124 83 45 
0.20762 0.42489 0.81087 124 83 45 
0.12646 0.49572 0.81083 44 77 106 
0.12645 0.49704 0.096179 44 77 106 
0.20798 0.49772 0.096179 44 77 106 
0.20799 0.4964 0.81083 44 77 106 
0.16958 0.51231 0.54217 44 77 106 
0.16958 0.51264 0.36546 44 77 106 
0.20415 0.51293 0.36546 44 77 106 
0.20415 0.5126 0.54217 44 77 106 
0.28309 0.48436 0.41036 60 97 52 
0.23507 0.48436 0.41038 60 97 52 
0.23507 0.45624 0.41031 60 97 52 
0.28309 0.45624 0.41029 60 97 52 
0.28257 0.48402 0.59334 60 97 52 
0.23381 0.48402 0.59336 60 97 52 
0.23381 0.45165 0.59328 60 97 52 
0.28257 0.45165 0.59326 60 97 52 
0.16923 0.51175 0.77166 44 77 106 
0.16922 0.51215 0.55901 44 77 106 
0.20643 0.51246 0.55901 44 77 106 
0.20643 0.51206 0.77166 44 77 106 
0.28219 0.48213 0.6849 60 97 52 
0.2339 0.48212 0.68492 60 97 52 
0.2339 0.44991 0.68484 60 97 52 
0.28219 0.44991 0.68482 60 97 52 
0.28416 0.48348 0.22759 60 97 52 
0.23468 0.48348 0.22761 60 97 52 
0.23468 0.452 0.22753 60 97 52 
0.28416 0.452 0.22751 60 97 52 
0.23909 0.48291 0.2508 44 77 106 
0.23909 0.48295 0.22716 44 77 106 
0.28419 0.48333 0.22716 44 77 106 
0.28419 0.48329 0.2508 44 77 106 
0.20618 0.51418 0.3487 124 83 45 
0.20617 0.51418 0.19072 124 83 45 
0.20675 0.44296 0.19072 124 83 45 
0.20676 0.44296 0.3487 124 83 45 
0.17319 0.51195 0.26064 44 77 106 
0.17319 0.51209 0.18663 44 77 106 
0.2074 0.51237 0.18663 44 77 106 
0.2074 0.51224 0.26064 44 77 106 
0.28219 0.48287 0.77655 60 97 52 
0.23308 0.48287 0.77657 60 97 52 
0.23308 0.45188 0.77649 60 97 52 
0.28219 0.45188 0.77647 60 97 52 
0.089617 0.50851 0.61148 124 83 45 
0.089595 0.50851 0.18779 124 83 45 
0.090589 0.38538 0.18779 124 83 45 
0.090611 0.38538 0.61148 124 83 45 
0.12885 0.51507 0.77074 124 83 45 
0.12882 0.51507 0.0996 124 83 45 
0.12899 0.49424 0.0996 124 83 45 
0.12902 0.49424 0.77074 124 83 45 
0.083859 0.51065 0.77231 44 77 106 
0.083854 0.51128 0.42904 44 77 106 
0.12895 0.51166 0.42904 44 77 106 
0.12896 0.51102 0.77231 44 77 106 
0.091107 0.4526 0.50118 60 97 52 
0.068025 0.4526 0.50119 60 97 52 
0.068025 0.49312 0.50129 60 97 52 
0.091107 0.49312 0.50128 60 97 52 
0.085147 0.50853 0.67485 44 77 106 
0.085144 0.50892 0.4654 44 77 106 
0.12769 0.50928 0.4654 44 77 106 
0.12769 0.50889 0.67485 44 77 106 
0.090038 0.45204 0.59305 60 97 52 
0.068492 0.45204 0.59306 60 97 52 
0.068492 0.49583 0.59317 60 97 52 
0.090038 0.49583 0.59316 60 97 52 
0.064281 0.4933 0.68824 62 44 120 
0.06428 0.45331 0.68823 62 44 120 
0.091447 0.45331 0.6837 62 44 120 
0.091449 0.4933 0.68371 62 44 120 
0.08539 0.50931 0.26485 44 77 106 
0.085389 0.50951 0.15321 44 77 106 
0.12307 0.50983 0.15321 44 77 106 
0.12307 0.50962 0.26485 44 77 106 
0.1006 0.50735 0.22007 46 120 44 
0.10055 0.50755 0.1303 46 120 44 
0.13023 0.51434 0.1303 46 120 44 
0.13028 0.51414 0.22007 46 120 44 
0.010283 0.21806 0.49915 44 77 106 
0.010279 0.21851 0.25534 44 77 106 
0.12877 0.2195 0.25534 44 77 106 
0.12878 0.21905 0.49915 44 77 106 
0.00397 0.21675 0.87949 44 77 106 
0.0039668 0.21712 0.67505 44 77 106 
0.069987 0.21768 0.67505 44 77 106 
0.06999 0.2173 0.87949 44 77 106 
0.54466 0.43378 0.094124 124 83 45 
0.54465 0.43378 0.0098602 124 83 45 
0.5454 0.34109 0.0098602 124 83 45 
0.5454 0.34109 0.094124 124 83 45 
0.48671 0.37377 0.057531 61 97 52 
0.48668 0.37377 0.01043 61 97 52 
0.48708 0.32447 0.01043 61 97 52 
0.48711 0.32447 0.057531 61 97 52 
0.52545 0.46824 0.066902 44 77 106 
0.52545 0.46833 0.015589 44 77 106 
0.5464 0.46851 0.015589 44 77 106 
0.54641 0.46841 0.066902 44 77 106 
0.54619 0.50764 0.067971 60 97 52 
0.4817 0.50764 0.067997 60 97 52 
0.4817 0.43767 0.067818 60 97 52 
0.54619 0.43767 0.067792 60 97 52 
0.46097 0.50924 0.10227 44 77 106 
0.46097 0.5093 0.070969 44 77 106 
0.55812 0.51011 0.070969 44 77 106 
0.55812 0.51006 0.10227 44 77 106 
0.54046 0.50483 0.1144 44 77 106 
0.54046 0.50487 0.095976 44 77 106 
0.46714 0.50426 0.095976 44 77 106 
0.46714 0.50422 0.1144 44 77 106 
0.48261 0.50589 0.068278 124 83 45 
0.48261 0.50589 0.056424 124 83 45 
0.48293 0.46644 0.056424 124 83 45 
0.48293 0.46644 0.068278 124 83 45 
0.48755 0.50191 0.057151 124 83 45 
0.48755 0.50191 0.041245 124 83 45 
0.48784 0.4668 0.041245 124 83 45 
0.48784 0.4668 0.057151 124 83 45 
0.48158 0.49435 0.042686 124 83 45 
0.48157 0.49435 0.0066949 124 83 45 
0.48179 0.46723 0.0066949 124 83 45 
0.48179 0.46723 0.042686 124 83 45 
0.31427 0.47807 0.0040175 60 97 52 
0.21048 0.47807 0.00406 60 97 52 
0.21048 0.42889 0.0039344 60 97 52 
0.31427 0.42889 0.0038919 60 97 52 
0.42663 0.50913 0.094028 44 77 106 
0.42663 0.50918 0.067676 44 77 106 
0.3573 0.5086 0.067676 44 77 106 
0.3573 0.50855 0.094028 44 77 106 
0.34371 0.50854 0.096877 44 77 106 
0.34371 0.5086 0.062201 44 77 106 
0.12847 0.50681 0.062201 44 77 106 
0.12847 0.50674 0.096877 44 77 106 
0.48423 0.44042 0.067566 124 83 45 
0.48422 0.44042 0.0072171 124 83 45 
0.4845 0.40639 0.0072171 124 83 45 
0.4845 0.40639 0.067566 124 83 45 
0.49432 0.46533 0.069291 124 83 45 
0.49432 0.46533 0.0066632 124 83 45 
0.49444 0.44974 0.0066632 124 83 45 
0.49445 0.44974 0.069291 124 83 45 
0.48097 0.46676 0.069228 44 77 106 
0.48096 0.46687 0.0065793 44 77 106 
0.49728 0.46701 0.0065793 44 77 106 
0.49728 0.46689 0.069228 44 77 106 
0.46982 0.46657 0.041308 44 77 106 
0.46982 0.46664 0.0061413 44 77 106 
0.42976 0.4663 0.0061413 44 77 106 
0.42976 0.46624 0.041308 44 77 106 
0.17725 0.47854 0.0034504 60 97 52 
0.10471 0.47854 0.0034801 60 97 52 
0.10471 0.43445 0.0033675 60 97 52 
0.17725 0.43445 0.0033378 60 97 52 
0.1728 0.4705 0.037954 44 77 106 
0.1728 0.47056 0.0056969 44 77 106 
0.15488 0.47041 0.0056969 44 77 106 
0.15488 0.47035 0.037954 44 77 106 
0.12953 0.4306 0.038143 44 77 106 
0.12953 0.43066 0.0033385 44 77 106 
0.098878 0.43041 0.0033385 44 77 106 
0.098879 0.43034 0.038143 44 77 106 
0.099104 0.46719 0.07961 124 83 45 
0.099103 0.46719 0.062469 124 83 45 
0.099759 0.38586 0.062469 124 83 45 
0.09976 0.38586 0.07961 124 83 45 
0.099789 0.48179 0.040264 124 83 45 
0.099787 0.48179 0.0052862 124 83 45 
0.10021 0.4299 0.0052862 124 83 45 
0.10021 0.4299 0.040264 124 83 45 
4 0 1 2 3
4 4 5 6 7
4 8 9 10 11
4 12 13 14 15
4 16 17 18 19
4 20 21 22 23
4 24 25 26 27
4 28 29 30 31
4 32 33 34 35
4 36 37 38 39
4 40 41 42 43
4 44 45 46 47
4 48 49 50 51
4 52 53 54 55
4 56 57 58 59
4 60 61 62 63
4 64 65 66 67
4 68 69 70 71
4 72 73 74 75
4 76 77 78 79
4 80 81 82 83
4 84 85 86 87
4 88 89 90 91
4 92 93 94 95
4 96 97 98 99
4 100 101 102 103
4 104 105 106 107
4 108 109 110 111
4 112 113 114 115
4 116 117 118 119
4 120 121 122 123
4 124 125 126 127
4 128 129 130 131
4 132 133 134 135
4 136 137 138 139
4 140 141 142 143
4 144 145 146 147
4 148 149 150 151
4 152 153 154 155
4 156 157 158 159
4 160 161 162 163
4 164 165 166 167
4 168 169 170 171
4 172 173 174 175
4 176 177 178 179
4 180 181 182 183
4 184 185 186 187
4 188 189 190 191
4 192 193 194 195
4 196 197 198 199
4 200 201 202 203
4 204 205 206 207
4 208 209 210 211
4 212 213 214 215
4 216 217 218 219
4 220 221 222 223
4 224 225 226 227
4 228 229 230 231
4 232 233 234 235
4 236 237 238 239
4 240 241 242 243
4 244 245 246 247
4 248 249 250 251
4 252 253 254 255
4 256 257 258 259
4 260 261 262 263
4 264 265 266 267
4 268 269 270 271
4 272 273 274 275
4 276 277 278 279
4 280 281 282 283
4 284 285 286 287
4 288 289 290 291
4 292 293 294 295
4 296 297 298 299
4 300 301 302 303
4 304 305 306 307
4 308 309 310 311
4 312 313 314 315
4 316 317 318 319
4 320 321 322 323
4 324 325 326 327
4 328 329 330 331
4 332 333 334 335
4 336 337 338 339
4 340 341 342 343
4 344 345 346 347
4 348 349 350 351
4 352 353 354 355
4 356 357 358 359
4 360 361 362 363
4 364 365 366 367
4 368 369 370 371
4 372 373 374 375
4 376 377 378 379
4 380 381 382 383
4 384 385 386 387
4 388 389 390 391
4 392 393 394 395
4 396 397 398 399
4 400 401 402 403
4 404 405 406 407
4 408 409 410 411
4 412 413 414 415
4 416 417 418 419
4 420 421 422 423
4 424 425 426 427
4 428 429 430 431
4 432 433 434 435
4 436 437 438 439
4 440 441 442 443
4 444 445 446 447
4 448 449 450 451
4 452 453 454 455
4 456 457 458 459
4 460 461 462 463
4 464 465 466 467
4 468 469 470 471
4 472 473 474 475
