ply
format ascii 1.0
comment PCL generated
element vertex 824
property float x
property float y
property float z
property uchar red
property uchar green
property uchar blue
element face 57
property list uchar int vertex_indices
end_header
0.6757 0.47593 0.88717 0 0 0 
0.60463 0.54972 0.88598 0 0 0 
0.53375 0.62373 0.88083 0 0 0 
0.51831 0.64031 0.87509 0 0 0 
0.4963 0.66424 0.86406 0 0 0 
0.49461 0.66653 0.85869 0 0 0 
0.49109 0.67163 0.84422 0 0 0 
0.49081 0.67655 0.79787 0 0 0 
0.49753 0.67217 0.77218 0 0 0 
0.52356 0.64615 0.76249 0 0 0 
0.71223 0.44802 0.78761 0 0 0 
0.7165 0.43518 0.8716 0 0 0 
0.71617 0.43489 0.87789 0 0 0 
0.71294 0.4381 0.87928 0 0 0 
0.7008 0.45033 0.88283 0 0 0 
0.49275 0.1743 0.75283 0 0 0 
0.75164 0.19472 0.77788 0 0 0 
0.75635 0.28497 0.77832 0 0 0 
0.75704 0.42357 0.77837 0 0 0 
0.75862 0.66079 0.77849 0 0 0 
0.74468 0.68769 0.77714 0 0 0 
0.68353 0.70094 0.77122 0 0 0 
0.38863 0.72081 0.74268 0 0 0 
0.3346 0.72267 0.73746 0 0 0 
0.28789 0.72191 0.73294 0 0 0 
0.27277 0.71771 0.73147 0 0 0 
0.27116 0.71175 0.73132 0 0 0 
0.2659 0.6768 0.73082 0 0 0 
0.26503 0.29648 0.73078 0 0 0 
0.26569 0.2634 0.73085 0 0 0 
0.27061 0.17411 0.73134 0 0 0 
0.27746 0.16785 0.73201 0 0 0 
0.28234 0.16712 0.73248 0 0 0 
0.33221 0.16426 0.7373 0 0 0 
0.76959 0.20485 0.27478 0 0 0 
0.77001 0.20743 0.2704 0 0 0 
0.77024 0.21149 0.26795 0 0 0 
0.77128 0.24268 0.25705 0 0 0 
0.77153 0.27327 0.25426 0 0 0 
0.77188 0.35237 0.25017 0 0 0 
0.7722 0.45158 0.24631 0 0 0 
0.77224 0.46428 0.24581 0 0 0 
0.77167 0.64287 0.25061 0 0 0 
0.77105 0.66724 0.25691 0 0 0 
0.76973 0.69019 0.27034 0 0 0 
0.75519 0.69667 0.42057 0 0 0 
0.73574 0.70641 0.62161 0 0 0 
0.72716 0.70811 0.71022 0 0 0 
0.72597 0.70551 0.72254 0 0 0 
0.72556 0.70429 0.72681 0 0 0 
0.72438 0.69997 0.73906 0 0 0 
0.71995 0.67678 0.78499 0 0 0 
0.71243 0.44829 0.86411 0 0 0 
0.71267 0.44087 0.86162 0 0 0 
0.72143 0.20926 0.77247 0 0 0 
0.7222 0.19382 0.76463 0 0 0 
0.72358 0.18499 0.75041 0 0 0 
0.72594 0.18114 0.72606 0 0 0 
0.73559 0.17451 0.62636 0 0 0 
0.75709 0.1853 0.40402 0 0 0 
0.76713 0.19347 0.30022 0 0 0 
0.27592 0.70375 0.74864 0 0 0 
0.28351 0.43312 0.85489 0 0 0 
0.27071 0.17036 0.75404 0 0 0 
0.26979 0.15822 0.74613 0 0 0 
0.25028 0.16891 0.54773 0 0 0 
0.23265 0.17835 0.36841 0 0 0 
0.22472 0.19498 0.28644 0 0 0 
0.22373 0.19974 0.27587 0 0 0 
0.22207 0.27959 0.25037 0 0 0 
0.22336 0.462 0.24353 0 0 0 
0.22596 0.63616 0.25085 0 0 0 
0.22705 0.67924 0.25719 0 0 0 
0.22999 0.69501 0.28526 0 0 0 
0.23169 0.69844 0.30199 0 0 0 
0.2454 0.71244 0.43917 0 0 0 
0.25479 0.72221 0.53296 0 0 0 
0.27362 0.72407 0.72315 0 0 0 
0.27433 0.72228 0.73061 0 0 0 
0.69171 0.70876 0.7607 0 0 0 
0.69444 0.70874 0.76054 0 0 0 
0.7099 0.70848 0.75736 0 0 0 
0.75155 0.70739 0.74217 0 0 0 
0.77944 0.68109 0.29171 0 0 0 
0.78066 0.67982 0.27002 0 0 0 
0.76039 0.67931 0.25953 0 0 0 
0.7438 0.67896 0.252 0 0 0 
0.51393 0.67787 0.2133 0 0 0 
0.45503 0.67859 0.2205 0 0 0 
0.2514 0.68129 0.24945 0 0 0 
0.2364 0.68191 0.25888 0 0 0 
0.27279 0.70539 0.66628 0 0 0 
0.2794 0.70895 0.72813 0 0 0 
0.29005 0.70968 0.74173 0 0 0 
0.31055 0.70975 0.74465 0 0 0 
0.49205 0.70984 0.76194 0 0 0 
0.5789 0.70946 0.76285 0 0 0 
0.22198 0.20962 0.25233 0 0 0 
0.25227 0.17435 0.74754 0 0 0 
0.27789 0.1739 0.75648 0 0 0 
0.42985 0.17438 0.76569 0 0 0 
0.52017 0.17473 0.7703 0 0 0 
0.71115 0.17579 0.77562 0 0 0 
0.72615 0.17671 0.76438 0 0 0 
0.73372 0.18155 0.69757 0 0 0 
0.76962 0.20972 0.30845 0 0 0 
0.77073 0.21058 0.29662 0 0 0 
0.73546 0.21371 0.24928 0 0 0 
0.53846 0.2131 0.237 0 0 0 
0.42904 0.21232 0.23646 0 0 0 
0.39882 0.21207 0.23683 0 0 0 
0.3749 0.21178 0.23834 0 0 0 
0.24677 0.21027 0.24593 0 0 0 
0.71946 0.4387 0.85416 0 0 0 
0.72403 0.44258 0.82229 0 0 0 
0.72182 0.44022 0.80747 0 0 0 
0.71845 0.43668 0.78958 0 0 0 
0.69519 0.41422 0.78577 0 0 0 
0.68451 0.40392 0.78486 0 0 0 
0.59438 0.31702 0.77846 0 0 0 
0.5082 0.23395 0.77248 0 0 0 
0.50318 0.2291 0.77232 0 0 0 
0.50056 0.22665 0.7765 0 0 0 
0.49499 0.22152 0.79066 0 0 0 
0.49157 0.22001 0.90098 0 0 0 
0.66886 0.39055 0.88957 0 0 0 
0.71246 0.43209 0.86193 0 0 0 
0.50471 0.2384 0.90919 0 0 0 
0.42618 0.30677 0.90646 0 0 0 
0.34996 0.37298 0.90043 0 0 0 
0.28463 0.42963 0.89302 0 0 0 
0.26857 0.44247 0.86717 0 0 0 
0.27032 0.43949 0.83484 0 0 0 
0.2868 0.42298 0.78729 0 0 0 
0.29855 0.41173 0.76518 0 0 0 
0.30861 0.4027 0.75943 0 0 0 
0.33979 0.37541 0.75725 0 0 0 
0.501 0.2353 0.76848 0 0 0 
0.5105 0.22713 0.77103 0 0 0 
0.50987 0.23222 0.87191 0 0 0 
0.77536 0.42305 0.26345 0 0 0 
0.77402 0.64813 0.25034 0 0 0 
0.73641 0.69109 0.24728 0 0 0 
0.6952 0.69231 0.24658 0 0 0 
0.35303 0.69062 0.24151 0 0 0 
0.25458 0.66944 0.24126 0 0 0 
0.23851 0.30296 0.26233 0 0 0 
0.24783 0.19305 0.26886 0 0 0 
0.28594 0.18682 0.2698 0 0 0 
0.50187 0.19142 0.27279 0 0 0 
0.75459 0.19136 0.27661 0 0 0 
0.75926 0.19971 0.27619 0 0 0 
0.77305 0.23425 0.27439 0 0 0 
0.77507 0.25331 0.27332 0 0 0 
0.77498 0.29724 0.27076 0 0 0 
0.2553 0.63961 0.24377 0 0 0 
0.33651 0.3857 0.211 0 0 0 
0.26478 0.23337 0.26072 0 0 0 
0.23969 0.19621 0.27723 0 0 0 
0.22835 0.19592 0.28378 0 0 0 
0.099892 0.32696 0.35055 0 0 0 
0.1161 0.50114 0.3316 0 0 0 
0.22286 0.69419 0.25945 0 0 0 
0.48963 0.64838 0.18315 0 0 0 
0.47891 0.64281 0.23375 0 0 0 
0.42031 0.58741 0.24153 0 0 0 
0.41473 0.58212 0.24211 0 0 0 
0.3094 0.48095 0.23894 0 0 0 
0.30065 0.47244 0.23748 0 0 0 
0.29979 0.4713 0.23412 0 0 0 
0.29296 0.46144 0.1984 0 0 0 
0.28138 0.44356 0.12511 0 0 0 
0.2917 0.45314 0.12197 0 0 0 
0.32735 0.48684 0.11717 0 0 0 
0.47388 0.62767 0.12247 0 0 0 
0.48748 0.64172 0.13358 0 0 0 
0.49007 0.64478 0.13986 0 0 0 
0.49334 0.65023 0.1649 0 0 0 
0.51353 0.14465 0.35974 0 0 0 
0.51824 0.093955 0.409 0 0 0 
0.51725 0.038077 0.4696 0 0 0 
0.50931 0.0064967 0.51135 0 0 0 
0.48742 0.029633 0.50894 0 0 0 
0.40195 0.11973 0.49975 0 0 0 
0.3726 0.15938 0.4873 0 0 0 
0.37247 0.16729 0.47899 0 0 0 
0.37878 0.17083 0.4688 0 0 0 
0.44751 0.1796 0.38958 0 0 0 
0.45972 0.18086 0.37583 0 0 0 
0.47716 0.18068 0.35829 0 0 0 
0.4849 0.18005 0.35109 0 0 0 
0.49072 0.17907 0.34622 0 0 0 
0.50886 0.16902 0.33849 0 0 0 
0.50537 0.15301 0.64156 0 0 0 
0.50396 0.14349 0.63398 0 0 0 
0.50298 0.082956 0.57742 0 0 0 
0.50366 0.059975 0.55483 0 0 0 
0.52284 0.026511 0.50292 0 0 0 
0.58567 0.096971 0.50419 0 0 0 
0.62436 0.14094 0.50552 0 0 0 
0.63566 0.15435 0.50646 0 0 0 
0.64654 0.17598 0.51564 0 0 0 
0.64186 0.18075 0.52508 0 0 0 
0.63536 0.18311 0.53414 0 0 0 
0.60301 0.18004 0.56508 0 0 0 
0.55104 0.17458 0.61428 0 0 0 
0.54948 0.17441 0.61575 0 0 0 
0.51033 0.16639 0.6491 0 0 0 
0.51115 0.027707 0.53227 0 0 0 
0.50233 0.15301 0.65155 0 0 0 
0.49614 0.15713 0.64907 0 0 0 
0.47728 0.16101 0.63261 0 0 0 
0.3948 0.16752 0.54984 0 0 0 
0.35655 0.16051 0.50114 0 0 0 
0.35637 0.15399 0.49423 0 0 0 
0.44907 0.05357 0.49152 0 0 0 
0.48816 0.020601 0.50002 0 0 0 
0.49975 0.017534 0.50944 0 0 0 
0.6523 0.17154 0.50722 0 0 0 
0.51846 0.020533 0.51743 0 0 0 
0.50946 0.02717 0.50039 0 0 0 
0.50482 0.15561 0.35967 0 0 0 
0.50759 0.16414 0.35376 0 0 0 
0.51574 0.18203 0.34396 0 0 0 
0.56905 0.18952 0.39547 0 0 0 
0.6132 0.1879 0.44639 0 0 0 
0.64773 0.18408 0.48891 0 0 0 
0.65199 0.17582 0.50237 0 0 0 
0.40333 0.70912 0.42579 0 0 0 
0.37507 0.71642 0.4604 0 0 0 
0.37319 0.72574 0.47225 0 0 0 
0.37195 0.73326 0.48155 0 0 0 
0.37333 0.74453 0.49242 0 0 0 
0.409 0.79021 0.50805 0 0 0 
0.48423 0.87471 0.52822 0 0 0 
0.49302 0.88298 0.52885 0 0 0 
0.49935 0.87703 0.51642 0 0 0 
0.4991 0.87089 0.51003 0 0 0 
0.49151 0.74591 0.38216 0 0 0 
0.47963 0.7144 0.35935 0 0 0 
0.64974 0.7147 0.49543 0 0 0 
0.56779 0.79333 0.48865 0 0 0 
0.52784 0.82998 0.48393 0 0 0 
0.49131 0.85688 0.47409 0 0 0 
0.48384 0.81966 0.4364 0 0 0 
0.48697 0.7437 0.37571 0 0 0 
0.48978 0.72181 0.35991 0 0 0 
0.50289 0.71158 0.36296 0 0 0 
0.5258 0.70116 0.37452 0 0 0 
0.63509 0.70442 0.47389 0 0 0 
0.63794 0.70489 0.4768 0 0 0 
0.64907 0.71099 0.49174 0 0 0 
0.75401 0.59423 0.63149 0 0 0 
0.76525 0.60404 0.62996 0 0 0 
0.82982 0.59248 0.64583 0 0 0 
0.83097 0.58597 0.6484 0 0 0 
0.83328 0.56596 0.65609 0 0 0 
0.84158 0.48516 0.68692 0 0 0 
0.83836 0.45348 0.69784 0 0 0 
0.81212 0.40983 0.70894 0 0 0 
0.77853 0.41316 0.70166 0 0 0 
0.76149 0.41536 0.69778 0 0 0 
0.74768 0.43217 0.68918 0 0 0 
0.74968 0.55174 0.64613 0 0 0 
0.75293 0.5878 0.63363 0 0 0 
0.86129 0.25048 0.51107 0 0 0 
0.86052 0.26767 0.62032 0 0 0 
0.85027 0.27278 0.64153 0 0 0 
0.76854 0.28674 0.63921 0 0 0 
0.75434 0.28898 0.63761 0 0 0 
0.75257 0.28539 0.61267 0 0 0 
0.75373 0.28319 0.59983 0 0 0 
0.77106 0.25639 0.44765 0 0 0 
0.78528 0.25338 0.44437 0 0 0 
0.80905 0.25095 0.45547 0 0 0 
0.83126 0.24879 0.46653 0 0 0 
0.7803 0.31782 0.35627 0 0 0 
0.77887 0.51544 0.30384 0 0 0 
0.85657 0.45654 0.3116 0 0 0 
0.86888 0.44287 0.31399 0 0 0 
0.8755 0.40222 0.32413 0 0 0 
0.87309 0.38343 0.32937 0 0 0 
0.84417 0.29927 0.3547 0 0 0 
0.78973 0.31003 0.35738 0 0 0 
0.87366 0.57 0.36541 0 0 0 
0.79496 0.58312 0.36318 0 0 0 
0.78303 0.57534 0.35884 0 0 0 
0.77947 0.55138 0.34871 0 0 0 
0.78228 0.49614 0.3264 0 0 0 
0.79662 0.47224 0.31801 0 0 0 
0.85639 0.42703 0.3053 0 0 0 
0.87458 0.4327 0.30937 0 0 0 
0.87842 0.45564 0.31912 0 0 0 
0.88428 0.49445 0.33555 0 0 0 
0.87882 0.54063 0.3539 0 0 0 
0.76126 0.27149 0.62386 0 0 0 
0.74933 0.32521 0.6492 0 0 0 
0.7463 0.38843 0.67931 0 0 0 
0.75235 0.40463 0.6872 0 0 0 
0.76138 0.40835 0.68921 0 0 0 
0.83208 0.43014 0.70147 0 0 0 
0.84203 0.43135 0.70231 0 0 0 
0.8517 0.33963 0.65877 0 0 0 
0.84359 0.27721 0.62876 0 0 0 
0.83388 0.27037 0.62523 0 0 0 
0.78396 0.56303 0.34819 0 0 0 
0.88427 0.55726 0.34734 0 0 0 
0.88542 0.57968 0.38808 0 0 0 
0.88414 0.59046 0.40749 0 0 0 
0.87003 0.6192 0.45823 0 0 0 
0.85328 0.62893 0.47426 0 0 0 
0.83945 0.63506 0.48406 0 0 0 
0.83634 0.63591 0.48529 0 0 0 
0.78214 0.6393 0.48625 0 0 0 
0.77669 0.63595 0.47965 0 0 0 
0.77081 0.62321 0.456 0 0 0 
0.76853 0.61663 0.44385 0 0 0 
0.77449 0.58094 0.37976 0 0 0 
0.79479 0.25478 0.46823 0 0 0 
0.84668 0.24638 0.49095 0 0 0 
0.87242 0.24254 0.50155 0 0 0 
0.88352 0.24855 0.49002 0 0 0 
0.88017 0.2658 0.45348 0 0 0 
0.86141 0.29862 0.38271 0 0 0 
0.85201 0.30621 0.36586 0 0 0 
0.81055 0.30812 0.35778 0 0 0 
0.79512 0.30336 0.36628 0 0 0 
0.78693 0.30019 0.37213 0 0 0 
0.78344 0.29743 0.37757 0 0 0 
0.7786 0.29055 0.39155 0 0 0 
0.77753 0.2884 0.39595 0 0 0 
0.77402 0.26506 0.44461 0 0 0 
0.77595 0.26098 0.45338 0 0 0 
0.86454 0.62814 0.51464 0 0 0 
0.85819 0.63861 0.47504 0 0 0 
0.77256 0.63805 0.46866 0 0 0 
0.76854 0.63388 0.48379 0 0 0 
0.76378 0.62676 0.50983 0 0 0 
0.75858 0.60934 0.57417 0 0 0 
0.75814 0.60596 0.5867 0 0 0 
0.75974 0.59933 0.61155 0 0 0 
0.82393 0.59681 0.62727 0 0 0 
0.84163 0.5969 0.62869 0 0 0 
0.85651 0.60702 0.59247 0 0 0 
0.85784 0.60821 0.5882 0 0 0 
0.85939 0.60968 0.58285 0 0 0 
0.86297 0.61674 0.55695 0 0 0 
0.86668 0.23994 0.53306 0 0 0 
0.86032 0.2567 0.59875 0 0 0 
0.85556 0.29909 0.64771 0 0 0 
0.85266 0.33798 0.67739 0 0 0 
0.85019 0.38423 0.70268 0 0 0 
0.85032 0.43343 0.70099 0 0 0 
0.85087 0.49208 0.69494 0 0 0 
0.8511 0.51575 0.69243 0 0 0 
0.85213 0.53397 0.68171 0 0 0 
0.85498 0.57545 0.65195 0 0 0 
0.85708 0.59749 0.63019 0 0 0 
0.85775 0.60204 0.62324 0 0 0 
0.8612 0.61997 0.58743 0 0 0 
0.86788 0.63533 0.51826 0 0 0 
0.87125 0.64136 0.48338 0 0 0 
0.87465 0.62718 0.44834 0 0 0 
0.87862 0.605 0.4075 0 0 0 
0.88232 0.56943 0.36949 0 0 0 
0.88703 0.51072 0.3211 0 0 0 
0.88771 0.40882 0.31474 0 0 0 
0.88469 0.34165 0.34633 0 0 0 
0.88404 0.3312 0.35308 0 0 0 
0.88076 0.29616 0.38721 0 0 0 
0.87823 0.2698 0.41354 0 0 0 
0.87456 0.2532 0.45153 0 0 0 
0.87038 0.24348 0.49487 0 0 0 
0.10862 0.32574 0.34232 0 0 0 
0.10724 0.44052 0.31593 0 0 0 
0.1083 0.49057 0.32116 0 0 0 
0.10881 0.51206 0.32398 0 0 0 
0.11074 0.53942 0.34055 0 0 0 
0.11608 0.60837 0.38694 0 0 0 
0.11721 0.61935 0.39716 0 0 0 
0.12183 0.6298 0.4428 0 0 0 
0.12471 0.63558 0.47126 0 0 0 
0.1287 0.64171 0.51092 0 0 0 
0.13355 0.63439 0.56076 0 0 0 
0.1399 0.58748 0.63009 0 0 0 
0.14279 0.55555 0.66275 0 0 0 
0.14477 0.52542 0.6861 0 0 0 
0.14477 0.49923 0.68897 0 0 0 
0.14473 0.4343 0.69566 0 0 0 
0.14368 0.36917 0.69209 0 0 0 
0.14209 0.34229 0.67893 0 0 0 
0.13811 0.30221 0.64304 0 0 0 
0.13325 0.26894 0.59758 0 0 0 
0.12866 0.2444 0.55382 0 0 0 
0.12681 0.24499 0.53505 0 0 0 
0.1236 0.24608 0.50247 0 0 0 
0.12027 0.24745 0.46866 0 0 0 
0.118 0.25416 0.44503 0 0 0 
0.11231 0.28408 0.38416 0 0 0 
0.24134 0.48114 0.67191 0 0 0 
0.15723 0.3998 0.70211 0 0 0 
0.14755 0.4213 0.69738 0 0 0 
0.14097 0.44903 0.69067 0 0 0 
0.14689 0.52752 0.66918 0 0 0 
0.16482 0.56464 0.65749 0 0 0 
0.2321 0.5601 0.65185 0 0 0 
0.23567 0.55396 0.65312 0 0 0 
0.24044 0.54164 0.65591 0 0 0 
0.24273 0.51714 0.66219 0 0 0 
0.24436 0.49332 0.66836 0 0 0 
0.24288 0.48474 0.6708 0 0 0 
0.1162 0.4634 0.28975 0 0 0 
0.18579 0.45531 0.29065 0 0 0 
0.21139 0.45598 0.29359 0 0 0 
0.2139 0.46371 0.29939 0 0 0 
0.21936 0.57317 0.3785 0 0 0 
0.21954 0.61003 0.40498 0 0 0 
0.21309 0.6171 0.40943 0 0 0 
0.19903 0.63238 0.41905 0 0 0 
0.17674 0.64331 0.42475 0 0 0 
0.15925 0.63861 0.41969 0 0 0 
0.15232 0.6361 0.41723 0 0 0 
0.12722 0.60384 0.39165 0 0 0 
0.10839 0.5702 0.36568 0 0 0 
0.10262 0.54013 0.34353 0 0 0 
0.10924 0.47816 0.29968 0 0 0 
0.15384 0.62502 0.59325 0 0 0 
0.22644 0.62254 0.60317 0 0 0 
0.23664 0.6223 0.57198 0 0 0 
0.23682 0.6223 0.56806 0 0 0 
0.22918 0.6228 0.49289 0 0 0 
0.22353 0.62313 0.44832 0 0 0 
0.21532 0.62356 0.39712 0 0 0 
0.15059 0.62558 0.45094 0 0 0 
0.14408 0.62575 0.46601 0 0 0 
0.13961 0.62585 0.48189 0 0 0 
0.13376 0.62587 0.53821 0 0 0 
0.13602 0.62577 0.5465 0 0 0 
0.14231 0.6255 0.56321 0 0 0 
0.15083 0.62515 0.58548 0 0 0 
0.13531 0.39593 0.31186 0 0 0 
0.19613 0.41525 0.29842 0 0 0 
0.2092 0.41124 0.30086 0 0 0 
0.21048 0.41069 0.3012 0 0 0 
0.21101 0.40877 0.30245 0 0 0 
0.21624 0.38245 0.31957 0 0 0 
0.21182 0.31582 0.36315 0 0 0 
0.20999 0.29657 0.37574 0 0 0 
0.19243 0.28676 0.38239 0 0 0 
0.14368 0.27127 0.39317 0 0 0 
0.13944 0.27417 0.39133 0 0 0 
0.13479 0.28266 0.38584 0 0 0 
0.11289 0.32946 0.35557 0 0 0 
0.10825 0.3393 0.34921 0 0 0 
0.10989 0.34593 0.34486 0 0 0 
0.12361 0.38863 0.31678 0 0 0 
0.14338 0.23741 0.54555 0 0 0 
0.14013 0.27374 0.59483 0 0 0 
0.16511 0.32305 0.64992 0 0 0 
0.18658 0.35043 0.67745 0 0 0 
0.2261 0.36813 0.68496 0 0 0 
0.24107 0.36685 0.67725 0 0 0 
0.24652 0.36334 0.67043 0 0 0 
0.24683 0.35863 0.66408 0 0 0 
0.23566 0.22954 0.49809 0 0 0 
0.1583 0.32812 0.66627 0 0 0 
0.1566 0.39843 0.67807 0 0 0 
0.17938 0.47605 0.68952 0 0 0 
0.19579 0.4912 0.69099 0 0 0 
0.24156 0.49654 0.68896 0 0 0 
0.24674 0.47147 0.68446 0 0 0 
0.24738 0.37785 0.66886 0 0 0 
0.23995 0.29423 0.65543 0 0 0 
0.15861 0.32614 0.66592 0 0 0 
0.22919 0.2532 0.5183 0 0 0 
0.22303 0.26667 0.45888 0 0 0 
0.21545 0.28016 0.39926 0 0 0 
0.21244 0.28478 0.37879 0 0 0 
0.18966 0.28349 0.38216 0 0 0 
0.16074 0.27989 0.39501 0 0 0 
0.14053 0.27596 0.41015 0 0 0 
0.13682 0.25648 0.4948 0 0 0 
0.14321 0.25125 0.51824 0 0 0 
0.1524 0.24758 0.53518 0 0 0 
0.15575 0.24733 0.5366 0 0 0 
0.18576 0.24733 0.5396 0 0 0 
0.19718 0.24748 0.54006 0 0 0 
0.21445 0.24859 0.53693 0 0 0 
0.10041 0.52979 0.54595 0 0 0 
0.091631 0.50977 0.52405 0 0 0 
0.064279 0.34426 0.4919 0 0 0 
0.06358 0.33655 0.4923 0 0 0 
0.065403 0.32769 0.5014 0 0 0 
0.073817 0.32649 0.52951 0 0 0 
0.079168 0.33012 0.54584 0 0 0 
0.086787 0.34589 0.5654 0 0 0 
0.090873 0.35449 0.57584 0 0 0 
0.13386 0.46032 0.6803 0 0 0 
0.13373 0.48594 0.67093 0 0 0 
0.13304 0.51277 0.65926 0 0 0 
0.13238 0.53324 0.64993 0 0 0 
0.12998 0.53861 0.64017 0 0 0 
0.098472 0.53706 0.56183 0 0 0 
0.017351 0.52773 0.56533 0 0 0 
0.0099355 0.49242 0.58188 0 0 0 
0.0069082 0.47641 0.58939 0 0 0 
0.014349 0.43595 0.60852 0 0 0 
0.019961 0.41744 0.61731 0 0 0 
0.098768 0.41964 0.61713 0 0 0 
0.11819 0.43506 0.61008 0 0 0 
0.11721 0.45745 0.59953 0 0 0 
0.113 0.51842 0.57077 0 0 0 
0.10401 0.53527 0.56273 0 0 0 
0.024471 0.49905 0.5261 0 0 0 
0.017383 0.43439 0.59976 0 0 0 
0.017663 0.41605 0.59697 0 0 0 
0.017802 0.40872 0.59558 0 0 0 
0.018209 0.38861 0.5915 0 0 0 
0.020028 0.36029 0.57287 0 0 0 
0.025161 0.32829 0.52 0 0 0 
0.026297 0.32705 0.50827 0 0 0 
0.028696 0.33483 0.48343 0 0 0 
0.030199 0.34202 0.46785 0 0 0 
0.033234 0.36167 0.43636 0 0 0 
0.035181 0.37449 0.41616 0 0 0 
0.035371 0.38032 0.41416 0 0 0 
0.035594 0.38727 0.41181 0 0 0 
0.035785 0.39908 0.40977 0 0 0 
0.03542 0.42216 0.4134 0 0 0 
0.033543 0.464 0.43255 0 0 0 
0.031384 0.49333 0.45468 0 0 0 
0.027024 0.50295 0.49969 0 0 0 
0.015635 0.4573 0.5987 0 0 0 
0.030832 0.40483 0.60905 0 0 0 
0.035263 0.39547 0.60605 0 0 0 
0.052549 0.35992 0.59336 0 0 0 
0.089106 0.33958 0.51088 0 0 0 
0.095999 0.33908 0.49195 0 0 0 
0.1029 0.38144 0.42953 0 0 0 
0.1008 0.4002 0.41642 0 0 0 
0.099158 0.41198 0.40909 0 0 0 
0.094046 0.41935 0.41604 0 0 0 
0.026637 0.51359 0.51056 0 0 0 
0.01592 0.52388 0.53035 0 0 0 
0.0069404 0.51946 0.56016 0 0 0 
0.043802 0.53596 0.44329 0 0 0 
0.060551 0.53605 0.44375 0 0 0 
0.084421 0.53606 0.44605 0 0 0 
0.09833 0.53561 0.45391 0 0 0 
0.10667 0.52863 0.55212 0 0 0 
0.10378 0.52799 0.56065 0 0 0 
0.030393 0.52553 0.58734 0 0 0 
0.017117 0.52833 0.54684 0 0 0 
0.016788 0.52964 0.52857 0 0 0 
0.020214 0.53327 0.47826 0 0 0 
0.022456 0.53418 0.46587 0 0 0 
0.027297 0.535 0.45497 0 0 0 
0.95281 0.53813 0.53384 0 0 0 
0.9478 0.54494 0.54002 0 0 0 
0.90202 0.56345 0.53023 0 0 0 
0.893 0.56244 0.52126 0 0 0 
0.89178 0.55759 0.51292 0 0 0 
0.8909 0.55361 0.50616 0 0 0 
0.88741 0.53192 0.47044 0 0 0 
0.8865 0.51756 0.44793 0 0 0 
0.8905 0.49236 0.41309 0 0 0 
0.89411 0.48329 0.40233 0 0 0 
0.89856 0.47924 0.39989 0 0 0 
0.90633 0.47254 0.39615 0 0 0 
0.91886 0.46369 0.3931 0 0 0 
0.96368 0.43239 0.38273 0 0 0 
0.95355 0.53596 0.53118 0 0 0 
0.95768 0.49209 0.60195 0 0 0 
0.95676 0.39923 0.61204 0 0 0 
0.95779 0.38878 0.60146 0 0 0 
0.96095 0.36379 0.5689 0 0 0 
0.96415 0.34285 0.53592 0 0 0 
0.96844 0.33509 0.49172 0 0 0 
0.97093 0.34389 0.46584 0 0 0 
0.97461 0.37014 0.42774 0 0 0 
0.97566 0.38014 0.41679 0 0 0 
0.97707 0.42173 0.40198 0 0 0 
0.9773 0.44351 0.39941 0 0 0 
0.97704 0.46716 0.40201 0 0 0 
0.97645 0.49561 0.40792 0 0 0 
0.97496 0.51289 0.42325 0 0 0 
0.96847 0.55182 0.49007 0 0 0 
0.96837 0.55212 0.49111 0 0 0 
0.965 0.5502 0.52593 0 0 0 
0.96079 0.53229 0.5696 0 0 0 
0.95887 0.51417 0.58951 0 0 0 
0.39918 0.48308 0.96927 0 0 0 
0.41166 0.52108 0.96413 0 0 0 
0.46687 0.55101 0.95857 0 0 0 
0.5022 0.54984 0.95755 0 0 0 
0.56546 0.54115 0.95653 0 0 0 
0.60809 0.52181 0.95753 0 0 0 
0.61408 0.46087 0.96492 0 0 0 
0.61359 0.45197 0.96604 0 0 0 
0.59179 0.38719 0.97483 0 0 0 
0.57507 0.37241 0.97723 0 0 0 
0.56384 0.36335 0.97873 0 0 0 
0.55431 0.35567 0.98 0 0 0 
0.48759 0.34045 0.9841 0 0 0 
0.45941 0.34384 0.98461 0 0 0 
0.44463 0.35112 0.9842 0 0 0 
0.43576 0.35705 0.98375 0 0 0 
0.42552 0.3717 0.98227 0 0 0 
0.41603 0.40744 0.97813 0 0 0 
0.40027 0.47657 0.97005 0 0 0 
0.53673 0.38463 0.9983 0 0 0 
0.58866 0.41504 0.99286 0 0 0 
0.60903 0.38859 0.91044 0 0 0 
0.58949 0.37257 0.90291 0 0 0 
0.51684 0.32922 0.90882 0 0 0 
0.51403 0.32781 0.90961 0 0 0 
0.50793 0.32484 0.91151 0 0 0 
0.49333 0.33939 0.96137 0 0 0 
0.49563 0.35021 0.98094 0 0 0 
0.50359 0.35757 0.98576 0 0 0 
0.58318 0.49539 0.89041 0 0 0 
0.53253 0.53777 0.88748 0 0 0 
0.51678 0.55019 0.89606 0 0 0 
0.50786 0.55673 0.907 0 0 0 
0.50586 0.55773 0.91529 0 0 0 
0.50414 0.55705 0.94156 0 0 0 
0.50387 0.55658 0.95021 0 0 0 
0.5208 0.54209 0.95514 0 0 0 
0.60149 0.47625 0.93898 0 0 0 
0.60787 0.47127 0.9349 0 0 0 
0.61287 0.4686 0.91627 0 0 0 
0.6145 0.46818 0.90464 0 0 0 
0.60081 0.48041 0.89417 0 0 0 
0.4375 0.35966 0.96766 0 0 0 
0.27741 0.42665 0.87888 0 0 0 
0.27142 0.42964 0.86298 0 0 0 
0.26612 0.43246 0.8444 0 0 0 
0.26589 0.43427 0.7994 0 0 0 
0.2787 0.43034 0.76906 0 0 0 
0.28572 0.42775 0.76398 0 0 0 
0.29731 0.42323 0.76163 0 0 0 
0.50037 0.33713 0.90389 0 0 0 
0.50333 0.3358 0.90787 0 0 0 
0.50461 0.33486 0.91902 0 0 0 
0.49795 0.33656 0.94375 0 0 0 
0.49431 0.33779 0.94946 0 0 0 
0.48159 0.34243 0.9602 0 0 0 
0.51018 0.65811 0.86242 0 0 0 
0.48555 0.65155 0.86243 0 0 0 
0.45002 0.62641 0.86335 0 0 0 
0.35628 0.52736 0.8677 0 0 0 
0.31143 0.45365 0.87131 0 0 0 
0.30244 0.43885 0.87203 0 0 0 
0.32544 0.41536 0.87374 0 0 0 
0.47491 0.27716 0.88404 0 0 0 
0.51962 0.23667 0.88707 0 0 0 
0.53043 0.23936 0.88707 0 0 0 
0.60555 0.31144 0.88402 0 0 0 
0.70687 0.42704 0.87883 0 0 0 
0.69432 0.45221 0.87717 0 0 0 
0.63594 0.53769 0.87132 0 0 0 
0.57538 0.60835 0.8663 0 0 0 
0.53489 0.63987 0.86385 0 0 0 
0.37582 0.53215 0.89079 0 0 0 
0.28492 0.44411 0.88672 0 0 0 
0.28299 0.44859 0.80135 0 0 0 
0.28983 0.45784 0.7663 0 0 0 
0.29454 0.46271 0.76237 0 0 0 
0.35421 0.52114 0.75633 0 0 0 
0.43164 0.59579 0.76424 0 0 0 
0.44821 0.61176 0.76605 0 0 0 
0.50628 0.66767 0.77304 0 0 0 
0.51944 0.67895 0.79322 0 0 0 
0.51988 0.67443 0.85967 0 0 0 
0.51755 0.6716 0.86737 0 0 0 
0.5068 0.66098 0.86984 0 0 0 
0.44513 0.60001 0.88373 0 0 0 
0.4174 0.57279 0.88754 0 0 0 
0.47393 0.63448 0.11827 0 0 0 
0.31536 0.4863 0.12449 0 0 0 
0.30984 0.45762 0.12608 0 0 0 
0.30695 0.44154 0.12697 0 0 0 
0.33233 0.39331 0.13015 0 0 0 
0.35467 0.36587 0.13209 0 0 0 
0.40334 0.31311 0.13589 0 0 0 
0.47969 0.238 0.14141 0 0 0 
0.52249 0.26071 0.14074 0 0 0 
0.54274 0.27329 0.14031 0 0 0 
0.55598 0.28193 0.14001 0 0 0 
0.56656 0.29133 0.13962 0 0 0 
0.70937 0.42526 0.13399 0 0 0 
0.70782 0.43981 0.13312 0 0 0 
0.70046 0.44808 0.13253 0 0 0 
0.50809 0.64754 0.11803 0 0 0 
0.50045 0.6459 0.11801 0 0 0 
0.59008 0.41481 0.11504 0 0 0 
0.60398 0.45663 0.11056 0 0 0 
0.60913 0.47392 0.10445 0 0 0 
0.61017 0.47878 0.099813 0 0 0 
0.60889 0.48358 0.078699 0 0 0 
0.59464 0.46577 0.020911 0 0 0 
0.58431 0.43911 0.013237 0 0 0 
0.56094 0.36839 0.021712 0 0 0 
0.55418 0.34704 0.026358 0 0 0 
0.552 0.33631 0.037415 0 0 0 
0.56858 0.35758 0.10335 0 0 0 
0.5759 0.37574 0.11062 0 0 0 
0.58057 0.38831 0.11284 0 0 0 
0.46084 0.3563 0.11535 0 0 0 
0.54594 0.35551 0.10905 0 0 0 
0.55387 0.35514 0.1033 0 0 0 
0.55693 0.35477 0.097191 0 0 0 
0.55669 0.35128 0.037134 0 0 0 
0.55593 0.35082 0.02916 0 0 0 
0.53665 0.35043 0.020806 0 0 0 
0.47892 0.35055 0.017817 0 0 0 
0.45861 0.35217 0.043969 0 0 0 
0.45156 0.3529 0.055967 0 0 0 
0.43469 0.35546 0.098567 0 0 0 
0.43211 0.35627 0.11223 0 0 0 
0.43449 0.35631 0.11321 0 0 0 
0.30159 0.44036 0.14481 0 0 0 
0.39834 0.4714 0.018177 0 0 0 
0.3989 0.47139 0.017611 0 0 0 
0.4043 0.46445 0.018459 0 0 0 
0.472 0.36449 0.040934 0 0 0 
0.48242 0.23983 0.14416 0 0 0 
0.48244 0.23758 0.1462 0 0 0 
0.47454 0.24205 0.15014 0 0 0 
0.47051 0.24452 0.15198 0 0 0 
0.46107 0.25132 0.15536 0 0 0 
0.32187 0.4051 0.1564 0 0 0 
0.31648 0.41187 0.1557 0 0 0 
0.30773 0.42364 0.15384 0 0 0 
0.30338 0.4313 0.15127 0 0 0 
0.3008 0.43834 0.14746 0 0 0 
0.41075 0.52574 0.02639 0 0 0 
0.39139 0.46634 0.029552 0 0 0 
0.40908 0.41029 0.033079 0 0 0 
0.41394 0.39576 0.033997 0 0 0 
0.42896 0.37187 0.035613 0 0 0 
0.43612 0.36167 0.036314 0 0 0 
0.46557 0.35247 0.037294 0 0 0 
0.4692 0.35191 0.037381 0 0 0 
0.53482 0.35519 0.038181 0 0 0 
0.54328 0.36494 0.037742 0 0 0 
0.56659 0.39904 0.036111 0 0 0 
0.60011 0.48496 0.031622 0 0 0 
0.58521 0.51427 0.029692 0 0 0 
0.5761 0.52695 0.028818 0 0 0 
0.55013 0.54709 0.027254 0 0 0 
0.51727 0.55407 0.026352 0 0 0 
0.49437 0.55776 0.025792 0 0 0 
0.48993 0.55714 0.025761 0 0 0 
0.72098 0.43607 0.13703 0 0 0 
0.7239 0.44032 0.15272 0 0 0 
0.72139 0.44005 0.17564 0 0 0 
0.71689 0.43889 0.20963 0 0 0 
0.71484 0.43751 0.2159 0 0 0 
0.70694 0.43216 0.23984 0 0 0 
0.7025 0.42809 0.24179 0 0 0 
0.61672 0.346 0.24241 0 0 0 
0.55283 0.28481 0.24244 0 0 0 
0.52829 0.26114 0.2406 0 0 0 
0.50279 0.23653 0.2385 0 0 0 
0.49471 0.22018 0.14577 0 0 0 
0.49452 0.21968 0.14224 0 0 0 
0.49836 0.22265 0.13468 0 0 0 
0.50773 0.23017 0.11893 0 0 0 
0.5168 0.23843 0.1144 0 0 0 
0.69054 0.40568 0.12373 0 0 0 
0.72357 0.44263 0.24437 0 0 0 
0.72488 0.4372 0.14847 0 0 0 
0.72368 0.43758 0.13043 0 0 0 
0.70118 0.45859 0.10818 0 0 0 
0.53144 0.62466 0.11441 0 0 0 
0.49449 0.66092 0.11821 0 0 0 
0.48664 0.6695 0.13931 0 0 0 
0.48881 0.66962 0.19098 0 0 0 
0.49554 0.6644 0.22226 0 0 0 
0.49863 0.6619 0.23408 0 0 0 
0.504 0.65677 0.23659 0 0 0 
0.70893 0.45704 0.24664 0 0 0 
0.71843 0.4477 0.24537 0 0 0 
0.27669 0.45819 0.14109 0 0 0 
0.30447 0.42879 0.14145 0 0 0 
0.51051 0.21094 0.14251 0 0 0 
0.50587 0.21107 0.18919 0 0 0 
0.50294 0.21183 0.21215 0 0 0 
0.49331 0.21954 0.23623 0 0 0 
0.48835 0.22472 0.23689 0 0 0 
0.37257 0.34712 0.23648 0 0 0 
0.33526 0.38673 0.23471 0 0 0 
0.27376 0.45204 0.23165 0 0 0 
0.2705 0.45573 0.22927 0 0 0 
0.26763 0.45914 0.22548 0 0 0 
0.26753 0.46016 0.21653 0 0 0 
0.26878 0.46266 0.1792 0 0 0 
0.27552 0.45931 0.14226 0 0 0 
0.54291 0.72191 0.61982 0 0 0 
0.60479 0.71591 0.55322 0 0 0 
0.64066 0.71758 0.50826 0 0 0 
0.64538 0.71874 0.50117 0 0 0 
0.64893 0.72448 0.48981 0 0 0 
0.64655 0.72699 0.48956 0 0 0 
0.58279 0.79323 0.48379 0 0 0 
0.55255 0.82334 0.48268 0 0 0 
0.4986 0.87365 0.48492 0 0 0 
0.48823 0.84859 0.52835 0 0 0 
0.49138 0.81696 0.56375 0 0 0 
0.49585 0.78718 0.59528 0 0 0 
0.50515 0.74559 0.63565 0 0 0 
0.51113 0.73268 0.64448 0 0 0 
0.37421 0.75994 0.49083 0 0 0 
0.35512 0.73369 0.49619 0 0 0 
0.35208 0.72422 0.50189 0 0 0 
0.35236 0.72386 0.50251 0 0 0 
0.36921 0.71531 0.52694 0 0 0 
0.48559 0.72162 0.63558 0 0 0 
0.50541 0.73288 0.64472 0 0 0 
0.50951 0.76164 0.62231 0 0 0 
0.4989 0.85127 0.52948 0 0 0 
0.49195 0.87327 0.50241 0 0 0 
0.47571 0.8771 0.48291 0 0 0 
15 0 1 2 3 4 5 6 7 8 9 10 11 12 13 14
19 15 16 17 18 19 20 21 22 23 24 25 26 27 28 29 30 31 32 33
27 34 35 36 37 38 39 40 41 42 43 44 45 46 47 48 49 50 51 52 53 54 55 56 57 58 59 60
18 61 62 63 64 65 66 67 68 69 70 71 72 73 74 75 76 77 78
18 79 80 81 82 83 84 85 86 87 88 89 90 91 92 93 94 95 96
16 97 98 99 100 101 102 103 104 105 106 107 108 109 110 111 112
14 113 114 115 116 117 118 119 120 121 122 123 124 125 126
13 127 128 129 130 131 132 133 134 135 136 137 138 139
15 140 141 142 143 144 145 146 147 148 149 150 151 152 153 154
8 155 156 157 158 159 160 161 162
15 163 164 165 166 167 168 169 170 171 172 173 174 175 176 177
15 178 179 180 181 182 183 184 185 186 187 188 189 190 191 192
15 193 194 195 196 197 198 199 200 201 202 203 204 205 206 207
10 208 209 210 211 212 213 214 215 216 217
10 218 219 220 221 222 223 224 225 226 227
12 228 229 230 231 232 233 234 235 236 237 238 239
12 240 241 242 243 244 245 246 247 248 249 250 251
13 252 253 254 255 256 257 258 259 260 261 262 263 264
11 265 266 267 268 269 270 271 272 273 274 275
8 276 277 278 279 280 281 282 283
11 284 285 286 287 288 289 290 291 292 293 294
10 295 296 297 298 299 300 301 302 303 304
13 305 306 307 308 309 310 311 312 313 314 315 316 317
15 318 319 320 321 322 323 324 325 326 327 328 329 330 331 332
14 333 334 335 336 337 338 339 340 341 342 343 344 345 346
26 347 348 349 350 351 352 353 354 355 356 357 358 359 360 361 362 363 364 365 366 367 368 369 370 371 372
26 373 374 375 376 377 378 379 380 381 382 383 384 385 386 387 388 389 390 391 392 393 394 395 396 397 398
12 399 400 401 402 403 404 405 406 407 408 409 410
15 411 412 413 414 415 416 417 418 419 420 421 422 423 424 425
14 426 427 428 429 430 431 432 433 434 435 436 437 438 439
16 440 441 442 443 444 445 446 447 448 449 450 451 452 453 454 455
9 456 457 458 459 460 461 462 463 464
9 465 466 467 468 469 470 471 472 473
14 474 475 476 477 478 479 480 481 482 483 484 485 486 487
14 488 489 490 491 492 493 494 495 496 497 498 499 500 501
11 502 503 504 505 506 507 508 509 510 511 512
19 513 514 515 516 517 518 519 520 521 522 523 524 525 526 527 528 529 530 531
13 532 533 534 535 536 537 538 539 540 541 542 543 544
12 545 546 547 548 549 550 551 552 553 554 555 556
15 557 558 559 560 561 562 563 564 565 566 567 568 569 570 571
19 572 573 574 575 576 577 578 579 580 581 582 583 584 585 586 587 588 589 590
19 591 592 593 594 595 596 597 598 599 600 601 602 603 604 605 606 607 608 609
10 610 611 612 613 614 615 616 617 618 619
13 620 621 622 623 624 625 626 627 628 629 630 631 632
14 633 634 635 636 637 638 639 640 641 642 643 644 645 646
16 647 648 649 650 651 652 653 654 655 656 657 658 659 660 661 662
15 663 664 665 666 667 668 669 670 671 672 673 674 675 676 677
17 678 679 680 681 682 683 684 685 686 687 688 689 690 691 692 693 694
13 695 696 697 698 699 700 701 702 703 704 705 706 707
13 708 709 710 711 712 713 714 715 716 717 718 719 720
15 721 722 723 724 725 726 727 728 729 730 731 732 733 734 735
18 736 737 738 739 740 741 742 743 744 745 746 747 748 749 750 751 752 753
17 754 755 756 757 758 759 760 761 762 763 764 765 766 767 768 769 770
13 771 772 773 774 775 776 777 778 779 780 781 782 783
15 784 785 786 787 788 789 790 791 792 793 794 795 796 797 798
14 799 800 801 802 803 804 805 806 807 808 809 810 811 812
11 813 814 815 816 817 818 819 820 821 822 823
