ply
format ascii 1.0
comment PCL generated
element vertex 1024
property float x
property float y
property float z
property uchar red
property uchar green
property uchar blue
element face 256
property list uchar int vertex_indices
end_header
0.75544 0.70799 0.77792 0 0 0 
0.75545 0.18284 0.77776 0 0 0 
0.24816 0.18284 0.72783 0 0 0 
0.24814 0.70799 0.72799 0 0 0 
0.27321 0.71669 0.74639 0 0 0 
0.27319 0.15584 0.7464 0 0 0 
0.22481 0.15584 0.25206 0 0 0 
0.22483 0.71669 0.25206 0 0 0 
0.47355 0.59819 0.9798 0 0 0 
0.55166 0.66504 0.74987 0 0 0 
0.73771 0.44764 0.74987 0 0 0 
0.6596 0.3808 0.9798 0 0 0 
0.33525 0.56982 0.77611 0 0 0 
0.30225 0.63762 0.24592 0 0 0 
0.69032 0.8265 0.24592 0 0 0 
0.72331 0.7587 0.77611 0 0 0 
0.714 0.43949 0.88771 0 0 0 
0.71389 0.43939 0.74772 0 0 0 
0.48854 0.68341 0.74772 0 0 0 
0.48865 0.6835 0.88771 0 0 0 
0.27794 0.43849 0.89225 0 0 0 
0.28286 0.43376 0.72982 0 0 0 
0.49868 0.658 0.72982 0 0 0 
0.49377 0.66273 0.89225 0 0 0 
0.48332 0.63975 0.77147 0 0 0 
0.365 0.62456 0.79144 0 0 0 
0.365 0.54938 0.73425 0 0 0 
0.48332 0.56457 0.71428 0 0 0 
0.49331 0.24835 0.83021 0 0 0 
0.49342 0.24684 0.75518 0 0 0 
0.56528 0.25238 0.75518 0 0 0 
0.56517 0.25389 0.83021 0 0 0 
0.57303 0.3705 0.77352 0 0 0 
0.56686 0.37238 0.73959 0 0 0 
0.58449 0.43006 0.73959 0 0 0 
0.59066 0.42817 0.77352 0 0 0 
0.26438 0.3639 0.66067 0 0 0 
0.2421 0.23083 0.66889 0 0 0 
0.27413 0.23083 0.75562 0 0 0 
0.29641 0.3639 0.7474 0 0 0 
0.51182 0.2296 0.89329 0 0 0 
0.51271 0.23067 0.72649 0 0 0 
0.27252 0.43081 0.72649 0 0 0 
0.27163 0.42974 0.89329 0 0 0 
0.26034 0.40749 0.75363 0 0 0 
0.26809 0.41661 0.71816 0 0 0 
0.32612 0.36728 0.71816 0 0 0 
0.31837 0.35816 0.75363 0 0 0 
0.54844 0.53034 0.77728 0 0 0 
0.54492 0.50528 0.77592 0 0 0 
0.55862 0.50528 0.74024 0 0 0 
0.56214 0.53034 0.74159 0 0 0 
0.3021 0.46449 0.73926 0 0 0 
0.28019 0.45408 0.65556 0 0 0 
0.24354 0.5312 0.65556 0 0 0 
0.26545 0.54161 0.73926 0 0 0 
0.50327 0.49033 0.76396 0 0 0 
0.41542 0.49272 0.76198 0 0 0 
0.41542 0.47 0.73455 0 0 0 
0.50327 0.46761 0.73653 0 0 0 
0.75646 0.18496 0.76404 0 0 0 
0.22998 0.17017 0.76309 0 0 0 
0.22998 0.20401 0.23984 0 0 0 
0.75646 0.2188 0.2408 0 0 0 
0.23746 0.60895 0.64442 0 0 0 
0.20322 0.44475 0.68062 0 0 0 
0.30705 0.44475 0.77886 0 0 0 
0.3413 0.60895 0.74266 0 0 0 
0.38807 0.45861 0.7403 0 0 0 
0.36831 0.46773 0.7494 0 0 0 
0.36831 0.48573 0.73136 0 0 0 
0.38807 0.47662 0.72226 0 0 0 
0.4993 0.21699 0.89115 0 0 0 
0.50063 0.21575 0.74523 0 0 0 
0.71321 0.44244 0.74523 0 0 0 
0.71189 0.44368 0.89115 0 0 0 
0.71896 0.70705 0.78061 0 0 0 
0.71941 0.17464 0.78065 0 0 0 
0.77187 0.17464 0.24755 0 0 0 
0.77142 0.70705 0.24751 0 0 0 
0.51646 0.50232 0.76469 0 0 0 
0.51242 0.51073 0.74057 0 0 0 
0.48173 0.49597 0.74057 0 0 0 
0.48577 0.48757 0.76469 0 0 0 
0.54061 0.30382 0.76794 0 0 0 
0.50079 0.29198 0.78022 0 0 0 
0.50079 0.2523 0.74193 0 0 0 
0.54061 0.26414 0.72966 0 0 0 
0.26543 0.42195 0.85069 0 0 0 
0.25128 0.43484 0.72336 0 0 0 
0.29522 0.48309 0.72336 0 0 0 
0.30937 0.4702 0.85069 0 0 0 
0.75014 0.71886 0.7393 0 0 0 
0.67138 0.69277 0.71724 0 0 0 
0.67138 0.63683 0.78338 0 0 0 
0.75014 0.66292 0.80545 0 0 0 
0.38084 0.37114 0.76567 0 0 0 
0.37595 0.34379 0.7643 0 0 0 
0.38365 0.34379 0.73678 0 0 0 
0.38854 0.37114 0.73815 0 0 0 
0.44179 0.37442 0.7638 0 0 0 
0.44669 0.36176 0.76974 0 0 0 
0.46774 0.36176 0.75237 0 0 0 
0.46284 0.37442 0.74643 0 0 0 
0.30962 0.42335 0.79561 0 0 0 
0.33568 0.36878 0.77144 0 0 0 
0.28858 0.36878 0.72066 0 0 0 
0.26252 0.42335 0.74483 0 0 0 
0.22695 0.69553 0.25453 0 0 0 
0.22694 0.19172 0.25546 0 0 0 
0.78846 0.19172 0.26406 0 0 0 
0.78847 0.69553 0.26313 0 0 0 
0.48065 0.21786 0.27235 0 0 0 
0.48923 0.22524 0.12123 0 0 0 
0.34764 0.39012 0.12123 0 0 0 
0.33905 0.38275 0.27235 0 0 0 
0.37805 0.31634 0.27594 0 0 0 
0.37038 0.32865 0.22578 0 0 0 
0.41366 0.35561 0.22578 0 0 0 
0.42132 0.3433 0.27594 0 0 0 
0.28386 0.45049 0.27039 0 0 0 
0.28449 0.44983 0.11888 0 0 0 
0.53884 0.69381 0.11888 0 0 0 
0.53821 0.69447 0.27039 0 0 0 
0.46496 0.27276 0.27305 0 0 0 
0.46073 0.26836 0.13124 0 0 0 
0.25684 0.46416 0.13124 0 0 0 
0.26107 0.46857 0.27305 0 0 0 
0.48143 0.21453 0.28052 0 0 0 
0.48381 0.21203 0.12791 0 0 0 
0.72121 0.43787 0.12791 0 0 0 
0.71883 0.44037 0.28052 0 0 0 
0.38219 0.5142 0.27385 0 0 0 
0.37962 0.5104 0.24354 0 0 0 
0.31508 0.55404 0.24354 0 0 0 
0.31765 0.55784 0.27385 0 0 0 
0.50044 0.61075 0.24492 0 0 0 
0.45311 0.61594 0.23992 0 0 0 
0.45311 0.64842 0.27368 0 0 0 
0.50044 0.64323 0.27867 0 0 0 
0.56295 0.26394 0.27381 0 0 0 
0.56346 0.2652 0.23739 0 0 0 
0.48732 0.29608 0.23739 0 0 0 
0.48681 0.29482 0.27381 0 0 0 
0.71922 0.22777 0.29527 0 0 0 
0.60893 0.22842 0.29473 0 0 0 
0.60893 0.20003 0.26046 0 0 0 
0.71922 0.19938 0.261 0 0 0 
0.66612 0.39494 0.27984 0 0 0 
0.62595 0.39286 0.28093 0 0 0 
0.62595 0.36756 0.23239 0 0 0 
0.66612 0.36964 0.23131 0 0 0 
0.47735 0.20093 0.29747 0 0 0 
0.40018 0.18896 0.28307 0 0 0 
0.40018 0.23686 0.24324 0 0 0 
0.47735 0.24883 0.25764 0 0 0 
0.46902 0.55584 0.22479 0 0 0 
0.49534 0.44532 0.25023 0 0 0 
0.45758 0.44532 0.28931 0 0 0 
0.43126 0.55584 0.26387 0 0 0 
0.62649 0.35354 0.28031 0 0 0 
0.63986 0.35911 0.23792 0 0 0 
0.58706 0.48588 0.23792 0 0 0 
0.57369 0.48031 0.28031 0 0 0 
0.72376 0.43934 0.26471 0 0 0 
0.72263 0.43821 0.1062 0 0 0 
0.50214 0.65958 0.1062 0 0 0 
0.50328 0.66071 0.26471 0 0 0 
0.33477 0.70583 0.26443 0 0 0 
0.22732 0.69449 0.28988 0 0 0 
0.22732 0.63284 0.26241 0 0 0 
0.33477 0.64418 0.23696 0 0 0 
0.69511 0.45082 0.27363 0 0 0 
0.68628 0.38062 0.27062 0 0 0 
0.7192 0.38062 0.17398 0 0 0 
0.72803 0.45082 0.17699 0 0 0 
0.26431 0.34578 0.25249 0 0 0 
0.21383 0.35502 0.25434 0 0 0 
0.21383 0.34263 0.31617 0 0 0 
0.26431 0.33339 0.31432 0 0 0 
0.42104 0.50766 0.24456 0 0 0 
0.33028 0.50642 0.24335 0 0 0 
0.33028 0.48544 0.26496 0 0 0 
0.42104 0.48669 0.26616 0 0 0 
0.59134 0.52632 0.26353 0 0 0 
0.58543 0.52382 0.24196 0 0 0 
0.5741 0.55066 0.24196 0 0 0 
0.58001 0.55316 0.26353 0 0 0 
0.47012 0.19196 0.64206 0 0 0 
0.4737 0.14571 0.63341 0 0 0 
0.52512 0.14571 0.65465 0 0 0 
0.52154 0.19196 0.66331 0 0 0 
0.53489 0.21403 0.35446 0 0 0 
0.53 0.16585 0.35896 0 0 0 
0.57263 0.16585 0.40527 0 0 0 
0.57752 0.21403 0.40077 0 0 0 
0.47782 0.030354 0.52391 0 0 0 
0.55824 0.11748 0.33777 0 0 0 
0.41722 0.24765 0.33777 0 0 0 
0.33679 0.16052 0.52391 0 0 0 
0.58015 0.21055 0.43121 0 0 0 
0.5546 0.1011 0.4733 0 0 0 
0.62749 0.1011 0.51753 0 0 0 
0.65304 0.21055 0.47544 0 0 0 
0.39638 0.20185 0.49172 0 0 0 
0.40177 0.13938 0.4756 0 0 0 
0.33919 0.13938 0.45467 0 0 0 
0.3338 0.20185 0.47079 0 0 0 
0.49448 0.21753 0.41349 0 0 0 
0.50227 0.22072 0.3356 0 0 0 
0.52927 0.15473 0.3356 0 0 0 
0.52148 0.15154 0.41349 0 0 0 
0.51757 0.030418 0.52012 0 0 0 
0.4155 0.13903 0.27454 0 0 0 
0.54009 0.25611 0.27454 0 0 0 
0.64216 0.1475 0.52012 0 0 0 
0.53402 0.21062 0.67208 0 0 0 
0.44996 0.038581 0.59693 0 0 0 
0.59848 0.038581 0.43082 0 0 0 
0.68253 0.21063 0.50596 0 0 0 
0.54022 0.14467 0.67355 0 0 0 
0.52971 0.12683 0.58383 0 0 0 
0.45764 0.16927 0.58383 0 0 0 
0.46815 0.18711 0.67355 0 0 0 
0.72841 0.19197 0.57884 0 0 0 
0.60086 0.1867 0.58049 0 0 0 
0.60086 0.20636 0.64323 0 0 0 
0.72841 0.21163 0.64158 0 0 0 
0.71134 0.20718 0.62148 0 0 0 
0.72887 0.19814 0.42285 0 0 0 
0.77096 0.27969 0.42285 0 0 0 
0.75343 0.28874 0.62148 0 0 0 
0.35261 0.17199 0.58452 0 0 0 
0.3372 0.19315 0.52961 0 0 0 
0.36361 0.21238 0.52961 0 0 0 
0.37902 0.19122 0.58452 0 0 0 
0.42502 0.19136 0.54028 0 0 0 
0.42744 0.17336 0.54511 0 0 0 
0.45345 0.17336 0.53207 0 0 0 
0.45103 0.19136 0.52724 0 0 0 
0.37696 0.20812 0.59137 0 0 0 
0.33739 0.17306 0.47456 0 0 0 
0.44139 0.055676 0.47456 0 0 0 
0.48095 0.090727 0.59137 0 0 0 
0.39252 0.73842 0.41654 0 0 0 
0.39721 0.67414 0.40902 0 0 0 
0.43614 0.67414 0.43332 0 0 0 
0.43145 0.73842 0.44084 0 0 0 
0.48869 0.75497 0.43218 0 0 0 
0.48701 0.7526 0.37514 0 0 0 
0.58816 0.68101 0.37514 0 0 0 
0.58983 0.68338 0.43218 0 0 0 
0.44031 0.78999 0.64505 0 0 0 
0.50934 0.86478 0.48527 0 0 0 
0.65597 0.72944 0.48527 0 0 0 
0.58694 0.65465 0.64505 0 0 0 
0.59797 0.87837 0.6146 0 0 0 
0.50823 0.68037 0.69818 0 0 0 
0.3348 0.68037 0.51195 0 0 0 
0.42453 0.87837 0.42838 0 0 0 
0.3259 0.72344 0.49818 0 0 0 
0.33558 0.6752 0.49034 0 0 0 
0.39259 0.6752 0.56073 0 0 0 
0.38292 0.72344 0.56857 0 0 0 
0.73706 0.70118 0.38365 0 0 0 
0.72734 0.66984 0.37273 0 0 0 
0.75577 0.66984 0.34742 0 0 0 
0.76549 0.70118 0.35833 0 0 0 
0.45348 0.71813 0.40578 0 0 0 
0.44543 0.66656 0.3968 0 0 0 
0.53207 0.66656 0.31914 0 0 0 
0.54012 0.71813 0.32812 0 0 0 
0.41883 0.70588 0.58762 0 0 0 
0.28208 0.67276 0.56734 0 0 0 
0.28208 0.71396 0.50006 0 0 0 
0.41883 0.74707 0.52033 0 0 0 
0.53801 0.69088 0.64583 0 0 0 
0.45546 0.68484 0.63337 0 0 0 
0.45546 0.75459 0.59956 0 0 0 
0.53801 0.76063 0.61201 0 0 0 
0.42776 0.68234 0.49093 0 0 0 
0.41122 0.68636 0.39855 0 0 0 
0.4217 0.72944 0.39855 0 0 0 
0.43824 0.72542 0.49093 0 0 0 
0.58939 0.72295 0.53061 0 0 0 
0.58042 0.67937 0.53762 0 0 0 
0.60402 0.67937 0.56782 0 0 0 
0.61298 0.72295 0.56081 0 0 0 
0.43846 0.84872 0.41886 0 0 0 
0.50529 0.69417 0.34573 0 0 0 
0.64166 0.69417 0.47034 0 0 0 
0.57483 0.84872 0.54347 0 0 0 
0.50441 0.70612 0.34579 0 0 0 
0.33723 0.63308 0.4278 0 0 0 
0.33723 0.79708 0.57386 0 0 0 
0.50441 0.87012 0.49185 0 0 0 
0.88213 0.62187 0.5529 0 0 0 
0.73736 0.63828 0.55031 0 0 0 
0.73736 0.61135 0.38008 0 0 0 
0.88213 0.59494 0.38268 0 0 0 
0.72343 0.57995 0.6069 0 0 0 
0.71388 0.61119 0.47493 0 0 0 
0.81173 0.6411 0.47493 0 0 0 
0.82128 0.60985 0.6069 0 0 0 
0.89266 0.40076 0.31108 0 0 0 
0.76481 0.40395 0.2999 0 0 0 
0.76481 0.55357 0.34263 0 0 0 
0.89266 0.55038 0.35381 0 0 0 
0.84628 0.40622 0.70444 0 0 0 
0.73096 0.40302 0.68632 0 0 0 
0.73096 0.55236 0.65988 0 0 0 
0.84627 0.55557 0.678 0 0 0 
0.88659 0.41384 0.30963 0 0 0 
0.75268 0.41199 0.30668 0 0 0 
0.75268 0.27165 0.39485 0 0 0 
0.88659 0.2735 0.3978 0 0 0 
0.86279 0.53876 0.68202 0 0 0 
0.72546 0.53209 0.67666 0 0 0 
0.72546 0.62754 0.55794 0 0 0 
0.86279 0.63421 0.56331 0 0 0 
0.75071 0.35334 0.36949 0 0 0 
0.75933 0.37235 0.31808 0 0 0 
0.83105 0.33984 0.31808 0 0 0 
0.82243 0.32083 0.36949 0 0 0 
0.8782 0.29666 0.38036 0 0 0 
0.74666 0.29747 0.38074 0 0 0 
0.74666 0.24466 0.49343 0 0 0 
0.8782 0.24385 0.49306 0 0 0 
0.88993 0.49366 0.32192 0 0 0 
0.74875 0.50031 0.31317 0 0 0 
0.74875 0.60912 0.39595 0 0 0 
0.88993 0.60247 0.4047 0 0 0 
0.86984 0.2636 0.57854 0 0 0 
0.74874 0.26587 0.57828 0 0 0 
0.74874 0.25114 0.44788 0 0 0 
0.86984 0.24887 0.44813 0 0 0 
0.86148 0.45126 0.70621 0 0 0 
0.74017 0.45423 0.69747 0 0 0 
0.74017 0.3209 0.65212 0 0 0 
0.86148 0.31792 0.66086 0 0 0 
0.88059 0.33796 0.34655 0 0 0 
0.77253 0.33743 0.34484 0 0 0 
0.77253 0.45705 0.30788 0 0 0 
0.88059 0.45758 0.30959 0 0 0 
0.86338 0.29623 0.64111 0 0 0 
0.75154 0.30019 0.63938 0 0 0 
0.75154 0.25851 0.54393 0 0 0 
0.86338 0.25456 0.54566 0 0 0 
0.85946 0.282 0.6168 0 0 0 
0.73397 0.28831 0.60963 0 0 0 
0.73397 0.36413 0.67639 0 0 0 
0.85946 0.35782 0.68355 0 0 0 
0.85502 0.55324 0.34379 0 0 0 
0.75896 0.5533 0.34376 0 0 0 
0.75896 0.63015 0.46657 0 0 0 
0.85502 0.63009 0.46661 0 0 0 
0.75283 0.51552 0.7032 0 0 0 
0.76361 0.50275 0.67702 0 0 0 
0.73554 0.47908 0.67702 0 0 0 
0.72476 0.49185 0.7032 0 0 0 
0.72444 0.44365 0.74536 0 0 0 
0.69504 0.35671 0.7183 0 0 0 
0.75129 0.35671 0.65717 0 0 0 
0.78069 0.44365 0.68423 0 0 0 
0.77494 0.62798 0.57511 0 0 0 
0.77317 0.58644 0.5717 0 0 0 
0.73929 0.58644 0.58938 0 0 0 
0.74107 0.62798 0.59279 0 0 0 
0.74861 0.50049 0.33679 0 0 0 
0.76004 0.457 0.3178 0 0 0 
0.79023 0.457 0.33596 0 0 0 
0.7788 0.50049 0.35495 0 0 0 
0.87067 0.57904 0.64483 0 0 0 
0.78307 0.56602 0.63757 0 0 0 
0.78307 0.62769 0.52698 0 0 0 
0.87067 0.64071 0.53424 0 0 0 
0.90034 0.36498 0.37006 0 0 0 
0.88453 0.3107 0.39009 0 0 0 
0.82119 0.3107 0.34011 0 0 0 
0.83699 0.36498 0.32008 0 0 0 
0.82541 0.57192 0.66932 0 0 0 
0.82274 0.57051 0.59342 0 0 0 
0.87367 0.47354 0.59342 0 0 0 
0.87634 0.47494 0.66932 0 0 0 
0.87822 0.63544 0.32376 0 0 0 
0.87192 0.26436 0.32354 0 0 0 
0.85917 0.26436 0.68965 0 0 0 
0.86547 0.63544 0.68987 0 0 0 
0.89116 0.44771 0.46172 0 0 0 
0.93164 0.33702 0.44277 0 0 0 
0.8739 0.33702 0.31948 0 0 0 
0.83343 0.44771 0.33843 0 0 0 
0.87879 0.51048 0.64974 0 0 0 
0.82449 0.50316 0.6553 0 0 0 
0.82449 0.52706 0.68673 0 0 0 
0.87879 0.53437 0.68117 0 0 0 
0.8839 0.31379 0.45831 0 0 0 
0.84136 0.31902 0.47142 0 0 0 
0.84136 0.24778 0.49984 0 0 0 
0.8839 0.24255 0.48674 0 0 0 
0.87711 0.61917 0.53165 0 0 0 
0.83539 0.63724 0.54252 0 0 0 
0.83539 0.60554 0.59517 0 0 0 
0.87711 0.58748 0.5843 0 0 0 
0.87235 0.33352 0.62375 0 0 0 
0.88264 0.30034 0.63545 0 0 0 
0.84108 0.30034 0.67198 0 0 0 
0.83079 0.33352 0.66028 0 0 0 
0.88069 0.27165 0.4574 0 0 0 
0.85187 0.26975 0.45401 0 0 0 
0.85187 0.30453 0.43462 0 0 0 
0.88069 0.30642 0.43801 0 0 0 
0.76791 0.49517 0.45044 0 0 0 
0.72679 0.49942 0.44877 0 0 0 
0.72679 0.52017 0.50157 0 0 0 
0.76791 0.51592 0.50324 0 0 0 
0.75567 0.35343 0.58907 0 0 0 
0.73372 0.35891 0.59422 0 0 0 
0.73372 0.41848 0.53091 0 0 0 
0.75567 0.41301 0.52576 0 0 0 
0.76393 0.4351 0.47472 0 0 0 
0.76857 0.34463 0.477 0 0 0 
0.7319 0.34463 0.55162 0 0 0 
0.72726 0.4351 0.54934 0 0 0 
0.76886 0.35212 0.49607 0 0 0 
0.76704 0.35621 0.42804 0 0 0 
0.73418 0.34153 0.42804 0 0 0 
0.73601 0.33744 0.49607 0 0 0 
0.75836 0.42604 0.60501 0 0 0 
0.75883 0.42785 0.53214 0 0 0 
0.71851 0.43817 0.53214 0 0 0 
0.71805 0.43636 0.60501 0 0 0 
0.75162 0.35214 0.41228 0 0 0 
0.74173 0.34389 0.37606 0 0 0 
0.7638 0.31743 0.37606 0 0 0 
0.77368 0.32568 0.41228 0 0 0 
0.76098 0.36862 0.60018 0 0 0 
0.76147 0.3683 0.55773 0 0 0 
0.73111 0.32209 0.55773 0 0 0 
0.73062 0.32241 0.60018 0 0 0 
0.76729 0.42159 0.42368 0 0 0 
0.73608 0.3955 0.33895 0 0 0 
0.75688 0.37062 0.33895 0 0 0 
0.78809 0.39671 0.42368 0 0 0 
0.74832 0.51793 0.6191 0 0 0 
0.72416 0.51568 0.61276 0 0 0 
0.72416 0.47277 0.62803 0 0 0 
0.74832 0.47502 0.63437 0 0 0 
0.74385 0.49567 0.66385 0 0 0 
0.74924 0.44919 0.66769 0 0 0 
0.71659 0.44919 0.71353 0 0 0 
0.7112 0.49567 0.70969 0 0 0 
0.14487 0.63568 0.70271 0 0 0 
0.14486 0.24915 0.70271 0 0 0 
0.1072 0.24915 0.31798 0 0 0 
0.10721 0.63568 0.31798 0 0 0 
0.26011 0.46558 0.68379 0 0 0 
0.14514 0.46362 0.69658 0 0 0 
0.14514 0.34039 0.6777 0 0 0 
0.26011 0.34235 0.66491 0 0 0 
0.10681 0.51452 0.32763 0 0 0 
0.10608 0.42475 0.32028 0 0 0 
0.2412 0.42475 0.30691 0 0 0 
0.24193 0.51452 0.31425 0 0 0 
0.19727 0.53184 0.68961 0 0 0 
0.11686 0.50156 0.66144 0 0 0 
0.11686 0.59161 0.56463 0 0 0 
0.19727 0.62189 0.5928 0 0 0 
0.25337 0.61042 0.38494 0 0 0 
0.12121 0.61038 0.38494 0 0 0 
0.12121 0.63451 0.5721 0 0 0 
0.25337 0.63455 0.5721 0 0 0 
0.10593 0.41416 0.31625 0 0 0 
0.10833 0.35066 0.31367 0 0 0 
0.13715 0.35066 0.34052 0 0 0 
0.13474 0.41416 0.34309 0 0 0 
0.23796 0.36449 0.30981 0 0 0 
0.10688 0.36886 0.31393 0 0 0 
0.10688 0.26476 0.42454 0 0 0 
0.23796 0.26038 0.42042 0 0 0 
0.23693 0.30735 0.34694 0 0 0 
0.12908 0.32169 0.35322 0 0 0 
0.12908 0.24443 0.52962 0 0 0 
0.23693 0.23009 0.52334 0 0 0 
0.25279 0.28163 0.60109 0 0 0 
0.13416 0.27279 0.60265 0 0 0 
0.13416 0.24714 0.45733 0 0 0 
0.25279 0.25598 0.45577 0 0 0 
0.20224 0.55537 0.32542 0 0 0 
0.10955 0.53581 0.34085 0 0 0 
0.10955 0.60831 0.43274 0 0 0 
0.20224 0.62787 0.41731 0 0 0 
0.15945 0.38124 0.68443 0 0 0 
0.16588 0.37475 0.64633 0 0 0 
0.13274 0.34192 0.64633 0 0 0 
0.12631 0.34841 0.68443 0 0 0 
0.2449 0.27621 0.57893 0 0 0 
0.14903 0.27075 0.58328 0 0 0 
0.14903 0.34092 0.6713 0 0 0 
0.2449 0.34638 0.66694 0 0 0 
0.22809 0.62267 0.41681 0 0 0 
0.11707 0.62325 0.41614 0 0 0 
0.11707 0.50281 0.31184 0 0 0 
0.22809 0.50223 0.31251 0 0 0 
0.23985 0.4048 0.67807 0 0 0 
0.15829 0.41023 0.69693 0 0 0 
0.15829 0.51309 0.66735 0 0 0 
0.23985 0.50767 0.64848 0 0 0 
0.24202 0.60125 0.30361 0 0 0 
0.22992 0.46365 0.29177 0 0 0 
0.098421 0.46365 0.42614 0 0 0 
0.11052 0.60125 0.43798 0 0 0 
0.2557 0.4044 0.68288 0 0 0 
0.1652 0.40555 0.68033 0 0 0 
0.1652 0.31553 0.63961 0 0 0 
0.2557 0.31438 0.64216 0 0 0 
0.20999 0.55564 0.62985 0 0 0 
0.15161 0.57617 0.60547 0 0 0 
0.15161 0.59316 0.61978 0 0 0 
0.20999 0.57263 0.64416 0 0 0 
0.19376 0.62059 0.57499 0 0 0 
0.19433 0.59334 0.57185 0 0 0 
0.15205 0.59334 0.56412 0 0 0 
0.15148 0.62059 0.56726 0 0 0 
0.25962 0.58716 0.61674 0 0 0 
0.16154 0.59432 0.63001 0 0 0 
0.16154 0.468 0.69815 0 0 0 
0.25962 0.46084 0.68488 0 0 0 
0.25317 0.25502 0.53924 0 0 0 
0.16374 0.26512 0.53436 0 0 0 
0.16374 0.30873 0.62459 0 0 0 
0.25317 0.29863 0.62947 0 0 0 
0.14722 0.45013 0.32167 0 0 0 
0.15646 0.34531 0.34375 0 0 0 
0.22463 0.34531 0.31521 0 0 0 
0.21538 0.45013 0.29313 0 0 0 
0.22023 0.59061 0.3619 0 0 0 
0.14064 0.58666 0.35795 0 0 0 
0.14064 0.56433 0.38031 0 0 0 
0.22023 0.56828 0.38426 0 0 0 
0.24779 0.60974 0.59905 0 0 0 
0.16922 0.59873 0.59611 0 0 0 
0.16922 0.62859 0.48445 0 0 0 
0.24779 0.6396 0.48739 0 0 0 
0.27115 0.53719 0.65395 0 0 0 
0.29996 0.58588 0.50591 0 0 0 
0.19493 0.64802 0.50591 0 0 0 
0.16612 0.59933 0.65395 0 0 0 
0.24595 0.24961 0.53897 0 0 0 
0.24667 0.25404 0.45677 0 0 0 
0.195 0.26241 0.45677 0 0 0 
0.19428 0.25797 0.53897 0 0 0 
0.2824 0.34977 0.45539 0 0 0 
0.23891 0.37274 0.34006 0 0 0 
0.18443 0.26961 0.34006 0 0 0 
0.22792 0.24663 0.45539 0 0 0 
0.24076 0.25423 0.66794 0 0 0 
0.24314 0.25397 0.5159 0 0 0 
0.26054 0.40809 0.5159 0 0 0 
0.25816 0.40836 0.66794 0 0 0 
0.28139 0.54934 0.6386 0 0 0 
0.26206 0.52813 0.57049 0 0 0 
0.22434 0.5625 0.57049 0 0 0 
0.24368 0.58372 0.6386 0 0 0 
0.22882 0.50684 0.66718 0 0 0 
0.26309 0.42035 0.69115 0 0 0 
0.29587 0.42035 0.6443 0 0 0 
0.26159 0.50684 0.62032 0 0 0 
0.26867 0.37127 0.55406 0 0 0 
0.23844 0.37204 0.55482 0 0 0 
0.23844 0.2871 0.64108 0 0 0 
0.26867 0.28633 0.64032 0 0 0 
0.21667 0.66014 0.44478 0 0 0 
0.21721 0.6173 0.44653 0 0 0 
0.2435 0.6173 0.43837 0 0 0 
0.24295 0.66014 0.43662 0 0 0 
0.27622 0.35089 0.70091 0 0 0 
0.2406 0.3468 0.69609 0 0 0 
0.2406 0.37782 0.66974 0 0 0 
0.27622 0.38191 0.67456 0 0 0 
0.14572 0.37619 0.55668 0 0 0 
0.1427 0.38065 0.49574 0 0 0 
0.11143 0.35944 0.49574 0 0 0 
0.11445 0.35497 0.55668 0 0 0 
0.14384 0.4905 0.56952 0 0 0 
0.14931 0.49755 0.53282 0 0 0 
0.10433 0.53242 0.53282 0 0 0 
0.09886 0.52537 0.56952 0 0 0 
0.135 0.47055 0.47912 0 0 0 
0.10811 0.46912 0.47374 0 0 0 
0.10811 0.51434 0.46173 0 0 0 
0.135 0.51577 0.46711 0 0 0 
0.13814 0.56482 0.4927 0 0 0 
0.0094376 0.53832 0.50969 0 0 0 
0.0094376 0.47948 0.41788 0 0 0 
0.13814 0.50598 0.4009 0 0 0 
0.12115 0.44884 0.39249 0 0 0 
0.02487 0.44933 0.39178 0 0 0 
0.02487 0.53259 0.44864 0 0 0 
0.12115 0.53211 0.44935 0 0 0 
0.14332 0.34061 0.56998 0 0 0 
0.13936 0.32749 0.46181 0 0 0 
0.079556 0.34553 0.46181 0 0 0 
0.083514 0.35865 0.56998 0 0 0 
0.13758 0.54102 0.51688 0 0 0 
0.04326 0.54709 0.51502 0 0 0 
0.04326 0.52099 0.43021 0 0 0 
0.13758 0.51493 0.43208 0 0 0 
0.14651 0.55823 0.53078 0 0 0 
0.12963 0.58703 0.45277 0 0 0 
0.076196 0.55571 0.45277 0 0 0 
0.093075 0.52691 0.53078 0 0 0 
0.13796 0.56299 0.55195 0 0 0 
0.040154 0.55497 0.53919 0 0 0 
0.040154 0.44951 0.60546 0 0 0 
0.13796 0.45753 0.61823 0 0 0 
0.14222 0.36526 0.49582 0 0 0 
0.11222 0.37135 0.50479 0 0 0 
0.11222 0.32146 0.53868 0 0 0 
0.14222 0.31536 0.52971 0 0 0 
0.12053 0.53635 0.52011 0 0 0 
0.037972 0.53792 0.52068 0 0 0 
0.037972 0.51402 0.58634 0 0 0 
0.12053 0.51245 0.58577 0 0 0 
0.13336 0.3737 0.43325 0 0 0 
0.034423 0.37068 0.42453 0 0 0 
0.034423 0.44301 0.39947 0 0 0 
0.13336 0.44603 0.40819 0 0 0 
0.093068 0.37497 0.54673 0 0 0 
0.08466 0.36603 0.44907 0 0 0 
0.11076 0.34148 0.44907 0 0 0 
0.11917 0.35041 0.54673 0 0 0 
0.268 0.46479 0.56406 0 0 0 
0.23817 0.46615 0.56984 0 0 0 
0.23817 0.4919 0.56376 0 0 0 
0.268 0.49053 0.55798 0 0 0 
0.25365 0.52698 0.44619 0 0 0 
0.22619 0.52755 0.44811 0 0 0 
0.22619 0.47236 0.4647 0 0 0 
0.25365 0.47178 0.46278 0 0 0 
0.26301 0.5105 0.46139 0 0 0 
0.23528 0.51605 0.46308 0 0 0 
0.23528 0.50406 0.5025 0 0 0 
0.26301 0.49852 0.50082 0 0 0 
0.23126 0.45123 0.51105 0 0 0 
0.21775 0.41879 0.49855 0 0 0 
0.2504 0.41879 0.46328 0 0 0 
0.2639 0.45123 0.47578 0 0 0 
0.26229 0.28149 0.43611 0 0 0 
0.2294 0.28152 0.43609 0 0 0 
0.2294 0.32228 0.50802 0 0 0 
0.26229 0.32224 0.50804 0 0 0 
0.24284 0.30167 0.42761 0 0 0 
0.22362 0.30245 0.42883 0 0 0 
0.22362 0.3358 0.40746 0 0 0 
0.24284 0.33501 0.40623 0 0 0 
0.015973 0.53751 0.60275 0 0 0 
0.019509 0.37166 0.60303 0 0 0 
0.034397 0.37166 0.41982 0 0 0 
0.030861 0.53751 0.41953 0 0 0 
0.1141 0.39216 0.60796 0 0 0 
0.021933 0.3964 0.60492 0 0 0 
0.021933 0.33706 0.52203 0 0 0 
0.1141 0.33282 0.52506 0 0 0 
0.061143 0.35319 0.43866 0 0 0 
0.014882 0.36594 0.44255 0 0 0 
0.014882 0.33707 0.5372 0 0 0 
0.061143 0.32433 0.53331 0 0 0 
0.062155 0.32492 0.5017 0 0 0 
0.03856 0.35341 0.43346 0 0 0 
0.063388 0.37397 0.43346 0 0 0 
0.086984 0.34548 0.5017 0 0 0 
0.099552 0.38173 0.40576 0 0 0 
0.021674 0.38263 0.41377 0 0 0 
0.021674 0.47764 0.40307 0 0 0 
0.099552 0.47674 0.39506 0 0 0 
0.039997 0.49035 0.48211 0 0 0 
0.039238 0.37754 0.48228 0 0 0 
0.02418 0.37754 0.41332 0 0 0 
0.024939 0.49035 0.41316 0 0 0 
0.062448 0.38188 0.4327 0 0 0 
0.022415 0.3842 0.43627 0 0 0 
0.022415 0.35084 0.45802 0 0 0 
0.062448 0.34852 0.45446 0 0 0 
0.03306 0.37209 0.5809 0 0 0 
0.059186 0.3633 0.48075 0 0 0 
0.04745 0.3284 0.48075 0 0 0 
0.021324 0.33718 0.5809 0 0 0 
0.081596 0.39711 0.60956 0 0 0 
0.0099496 0.39512 0.5983 0 0 0 
0.0099496 0.5066 0.57856 0 0 0 
0.081596 0.50859 0.58982 0 0 0 
0.11206 0.44658 0.61284 0 0 0 
0.033859 0.45056 0.60094 0 0 0 
0.033859 0.37586 0.576 0 0 0 
0.11206 0.37188 0.58791 0 0 0 
0.017577 0.41579 0.5481 0 0 0 
0.008609 0.38227 0.55908 0 0 0 
0.061381 0.38227 0.60217 0 0 0 
0.07035 0.41579 0.59119 0 0 0 
0.038309 0.46242 0.49468 0 0 0 
0.015912 0.46911 0.4893 0 0 0 
0.015912 0.44345 0.45736 0 0 0 
0.038309 0.43676 0.46273 0 0 0 
0.9259 0.45019 0.40082 0 0 0 
0.86789 0.45175 0.40579 0 0 0 
0.86789 0.3888 0.42562 0 0 0 
0.9259 0.38724 0.42064 0 0 0 
0.9192 0.34449 0.47333 0 0 0 
0.86171 0.33902 0.4677 0 0 0 
0.86171 0.36677 0.44076 0 0 0 
0.9192 0.37223 0.44639 0 0 0 
0.95849 0.33488 0.51275 0 0 0 
0.88138 0.33838 0.51085 0 0 0 
0.88138 0.38085 0.58893 0 0 0 
0.95849 0.37735 0.59084 0 0 0 
0.85103 0.48857 0.59287 0 0 0 
0.85207 0.3785 0.58569 0 0 0 
0.94589 0.3785 0.59918 0 0 0 
0.94486 0.48857 0.60637 0 0 0 
0.87414 0.43536 0.60661 0 0 0 
0.86143 0.42637 0.56405 0 0 0 
0.89402 0.38034 0.56405 0 0 0 
0.90673 0.38934 0.60661 0 0 0 
0.95145 0.46279 0.60423 0 0 0 
0.86591 0.4712 0.61314 0 0 0 
0.86591 0.56375 0.52574 0 0 0 
0.95145 0.55533 0.51684 0 0 0 
0.8781 0.53051 0.59577 0 0 0 
0.84223 0.5329 0.59549 0 0 0 
0.84223 0.52793 0.5538 0 0 0 
0.8781 0.52553 0.55409 0 0 0 
0.9403 0.49524 0.41467 0 0 0 
0.85668 0.51576 0.404 0 0 0 
0.85668 0.566 0.50065 0 0 0 
0.9403 0.54548 0.51131 0 0 0 
0.9716 0.42846 0.40896 0 0 0 
0.89726 0.43474 0.38869 0 0 0 
0.89726 0.51707 0.41418 0 0 0 
0.9716 0.5108 0.43445 0 0 0 
0.96126 0.4738 0.39978 0 0 0 
0.8685 0.46437 0.41077 0 0 0 
0.8685 0.56308 0.49544 0 0 0 
0.96126 0.57251 0.48445 0 0 0 
0.87525 0.49864 0.62011 0 0 0 
0.89235 0.49176 0.52937 0 0 0 
0.85522 0.39948 0.52937 0 0 0 
0.83812 0.40637 0.62011 0 0 0 
0.95984 0.55537 0.54094 0 0 0 
0.84874 0.54002 0.54416 0 0 0 
0.84874 0.52342 0.46507 0 0 0 
0.95984 0.53877 0.46185 0 0 0 
0.96994 0.3486 0.46628 0 0 0 
0.8966 0.3583 0.47428 0 0 0 
0.8966 0.41264 0.40841 0 0 0 
0.96994 0.40294 0.40041 0 0 0 
0.88842 0.34494 0.54534 0 0 0 
0.88838 0.34601 0.43931 0 0 0 
0.96139 0.34906 0.43931 0 0 0 
0.96143 0.348 0.54534 0 0 0 
0.86293 0.36631 0.53301 0 0 0 
0.86534 0.33813 0.53786 0 0 0 
0.88168 0.33813 0.52974 0 0 0 
0.87926 0.36631 0.52489 0 0 0 
0.89254 0.47681 0.57296 0 0 0 
0.89704 0.37002 0.5639 0 0 0 
0.96102 0.37002 0.59571 0 0 0 
0.95652 0.47681 0.60476 0 0 0 
0.96094 0.53745 0.52148 0 0 0 
0.97161 0.494 0.53986 0 0 0 
0.92659 0.494 0.56601 0 0 0 
0.91592 0.53745 0.54764 0 0 0 
0.96311 0.54148 0.60192 0 0 0 
0.95813 0.33515 0.60155 0 0 0 
0.97298 0.33515 0.40473 0 0 0 
0.97796 0.54148 0.40511 0 0 0 
0.97876 0.4362 0.52587 0 0 0 
0.9717 0.33222 0.52751 0 0 0 
0.941 0.33222 0.39518 0 0 0 
0.94806 0.4362 0.39354 0 0 0 
0.97513 0.36131 0.54083 0 0 0 
0.93841 0.36089 0.54437 0 0 0 
0.93841 0.39029 0.54786 0 0 0 
0.97513 0.39071 0.54431 0 0 0 
0.96855 0.46993 0.59134 0 0 0 
0.96613 0.43896 0.58714 0 0 0 
0.94242 0.43896 0.6008 0 0 0 
0.94484 0.46993 0.605 0 0 0 
0.85165 0.45801 0.50588 0 0 0 
0.84736 0.44833 0.46067 0 0 0 
0.86963 0.43846 0.46067 0 0 0 
0.87392 0.44814 0.50588 0 0 0 
0.99107 0.48196 0.44469 0 0 0 
0.96094 0.47822 0.44192 0 0 0 
0.96094 0.46061 0.46565 0 0 0 
0.99107 0.46435 0.46842 0 0 0 
0.61343 0.52295 0.95799 0 0 0 
0.41553 0.52439 0.97132 0 0 0 
0.41553 0.3539 0.9898 0 0 0 
0.61343 0.35245 0.97647 0 0 0 
0.59922 0.48265 0.98563 0 0 0 
0.60091 0.3833 0.98539 0 0 0 
0.59223 0.3833 0.92465 0 0 0 
0.59053 0.48265 0.92489 0 0 0 
0.5482 0.34364 0.99677 0 0 0 
0.54829 0.34457 0.89747 0 0 0 
0.45874 0.35292 0.89747 0 0 0 
0.45865 0.35198 0.99677 0 0 0 
0.61676 0.43293 0.96108 0 0 0 
0.60619 0.43889 0.89125 0 0 0 
0.55657 0.35093 0.89125 0 0 0 
0.56713 0.34497 0.96108 0 0 0 
0.58518 0.36555 0.94213 0 0 0 
0.54626 0.36123 0.94732 0 0 0 
0.54626 0.40186 0.98119 0 0 0 
0.58518 0.40619 0.97601 0 0 0 
0.56013 0.51876 0.95759 0 0 0 
0.56466 0.52823 0.88452 0 0 0 
0.50542 0.55655 0.88452 0 0 0 
0.50089 0.54707 0.95759 0 0 0 
0.43207 0.55142 0.91824 0 0 0 
0.393 0.45764 0.95671 0 0 0 
0.44637 0.45764 1.0109 0 0 0 
0.48544 0.55142 0.97245 0 0 0 
0.39989 0.48503 0.97713 0 0 0 
0.40295 0.38266 0.97744 0 0 0 
0.41261 0.38266 0.88185 0 0 0 
0.40956 0.48503 0.88154 0 0 0 
0.40265 0.44085 0.96278 0 0 0 
0.39381 0.43782 0.89355 0 0 0 
0.41746 0.36876 0.89355 0 0 0 
0.42631 0.37179 0.96278 0 0 0 
0.55944 0.47491 0.99706 0 0 0 
0.55439 0.36983 0.99508 0 0 0 
0.60374 0.36983 0.86856 0 0 0 
0.6088 0.47491 0.87053 0 0 0 
0.57641 0.48881 0.93571 0 0 0 
0.48736 0.51859 0.96535 0 0 0 
0.48736 0.55868 0.92506 0 0 0 
0.57641 0.5289 0.89542 0 0 0 
0.52797 0.63588 0.84937 0 0 0 
0.53922 0.46663 0.84305 0 0 0 
0.60155 0.46663 0.95406 0 0 0 
0.59029 0.63588 0.96038 0 0 0 
0.48257 0.56209 0.954 0 0 0 
0.48611 0.55878 0.85457 0 0 0 
0.39932 0.4658 0.85457 0 0 0 
0.39578 0.46911 0.954 0 0 0 
0.40047 0.38774 0.93879 0 0 0 
0.40064 0.38805 0.87662 0 0 0 
0.47457 0.3477 0.87662 0 0 0 
0.4744 0.34739 0.93879 0 0 0 
0.58141 0.38983 0.89463 0 0 0 
0.50905 0.35859 0.86938 0 0 0 
0.50905 0.32609 0.90959 0 0 0 
0.58141 0.35734 0.93484 0 0 0 
0.5356 0.53957 0.89749 0 0 0 
0.4879 0.5426 0.89574 0 0 0 
0.4879 0.52737 0.86932 0 0 0 
0.5356 0.52434 0.87106 0 0 0 
0.51134 0.3505 0.91447 0 0 0 
0.51492 0.24055 0.91111 0 0 0 
0.4807 0.24055 0.87455 0 0 0 
0.47711 0.3505 0.8779 0 0 0 
0.7028 0.23943 0.89246 0 0 0 
0.31192 0.23894 0.88632 0 0 0 
0.31192 0.65189 0.85345 0 0 0 
0.7028 0.65238 0.85959 0 0 0 
0.44007 0.52385 0.8884 0 0 0 
0.44219 0.51678 0.85422 0 0 0 
0.5091 0.5369 0.85422 0 0 0 
0.50697 0.54397 0.8884 0 0 0 
0.68174 0.56678 0.8265 0 0 0 
0.68822 0.46171 0.84622 0 0 0 
0.52339 0.46171 0.90038 0 0 0 
0.51691 0.56678 0.88066 0 0 0 
0.66498 0.38098 0.8988 0 0 0 
0.56223 0.38262 0.89863 0 0 0 
0.56223 0.37943 0.86755 0 0 0 
0.66498 0.37779 0.86771 0 0 0 
0.43932 0.47638 0.9903 0 0 0 
0.43405 0.4441 0.98508 0 0 0 
0.45422 0.4441 0.96473 0 0 0 
0.45949 0.47638 0.96995 0 0 0 
0.43078 0.44896 0.98838 0 0 0 
0.42718 0.45228 0.95491 0 0 0 
0.48328 0.51292 0.95491 0 0 0 
0.48688 0.50959 0.98838 0 0 0 
0.58478 0.33932 0.89539 0 0 0 
0.60483 0.32414 0.82661 0 0 0 
0.53391 0.23046 0.82661 0 0 0 
0.51385 0.24565 0.89539 0 0 0 
0.48566 0.4394 0.86171 0 0 0 
0.46885 0.38257 0.87362 0 0 0 
0.48615 0.38257 0.89803 0 0 0 
0.50295 0.4394 0.88612 0 0 0 
0.45675 0.64814 0.86882 0 0 0 
0.46343 0.59217 0.8702 0 0 0 
0.47522 0.59217 0.81287 0 0 0 
0.46854 0.64814 0.8115 0 0 0 
0.45682 0.3333 0.90599 0 0 0 
0.46894 0.34038 0.87599 0 0 0 
0.45921 0.35705 0.87599 0 0 0 
0.44709 0.34997 0.90599 0 0 0 
0.39011 0.40333 0.87766 0 0 0 
0.32458 0.4011 0.87898 0 0 0 
0.32458 0.38108 0.84531 0 0 0 
0.39011 0.38332 0.84399 0 0 0 
0.52011 0.62798 0.83912 0 0 0 
0.47004 0.63714 0.84096 0 0 0 
0.47004 0.63182 0.8675 0 0 0 
0.52011 0.62266 0.86567 0 0 0 
0.67425 0.43299 0.88435 0 0 0 
0.63233 0.44119 0.87959 0 0 0 
0.63233 0.42813 0.85709 0 0 0 
0.67425 0.41993 0.86186 0 0 0 
0.69053 0.63431 0.13436 0 0 0 
0.69052 0.25557 0.13506 0 0 0 
0.29191 0.25557 0.12896 0 0 0 
0.29193 0.63431 0.12826 0 0 0 
0.6153 0.47499 0.14543 0 0 0 
0.61281 0.47607 0.02222 0 0 0 
0.55782 0.34894 0.02222 0 0 0 
0.56031 0.34786 0.14543 0 0 0 
0.59839 0.45048 0.1394 0 0 0 
0.61678 0.46308 0.037181 0 0 0 
0.5585 0.54819 0.037181 0 0 0 
0.54011 0.5356 0.1394 0 0 0 
0.58411 0.50273 0.13088 0 0 0 
0.58858 0.50993 0.050619 0 0 0 
0.52646 0.54844 0.050619 0 0 0 
0.522 0.54124 0.13088 0 0 0 
0.45927 0.34815 0.12109 0 0 0 
0.45932 0.3476 0.035086 0 0 0 
0.55504 0.35631 0.035086 0 0 0 
0.55499 0.35686 0.12109 0 0 0 
0.46325 0.55089 0.12733 0 0 0 
0.46341 0.55213 0.030095 0 0 0 
0.5499 0.54102 0.030095 0 0 0 
0.54974 0.53978 0.12733 0 0 0 
0.3977 0.49196 0.12703 0 0 0 
0.40518 0.48392 0.027661 0 0 0 
0.47655 0.55033 0.027661 0 0 0 
0.46907 0.55837 0.12703 0 0 0 
0.42456 0.49843 0.14661 0 0 0 
0.40687 0.50226 0.045864 0 0 0 
0.38679 0.40949 0.045864 0 0 0 
0.40449 0.40566 0.14661 0 0 0 
0.50939 0.3398 0.12192 0 0 0 
0.5057 0.33173 0.026937 0 0 0 
0.40018 0.38009 0.026937 0 0 0 
0.40387 0.38816 0.12192 0 0 0 
0.43959 0.37508 0.11805 0 0 0 
0.44423 0.38354 0.060927 0 0 0 
0.40564 0.40472 0.060927 0 0 0 
0.401 0.39626 0.11805 0 0 0 
0.57224 0.53303 0.09309 0 0 0 
0.4827 0.54709 0.10291 0 0 0 
0.4827 0.51663 0.14652 0 0 0 
0.57224 0.50257 0.1367 0 0 0 
0.42121 0.39867 0.05352 0 0 0 
0.42207 0.34495 0.052781 0 0 0 
0.47017 0.34495 0.10872 0 0 0 
0.46931 0.39867 0.10946 0 0 0 
0.45084 0.52842 0.081209 0 0 0 
0.40856 0.51464 0.069237 0 0 0 
0.40856 0.49359 0.093469 0 0 0 
0.45084 0.50736 0.10544 0 0 0 
0.4331 0.37446 0.11096 0 0 0 
0.42223 0.3694 0.06045 0 0 0 
0.39119 0.43605 0.06045 0 0 0 
0.40206 0.44111 0.11096 0 0 0 
0.61097 0.47535 0.057548 0 0 0 
0.6038 0.39804 0.064889 0 0 0 
0.56086 0.39804 0.022939 0 0 0 
0.56803 0.47535 0.015598 0 0 0 
0.61588 0.43771 0.065134 0 0 0 
0.46201 0.43309 0.058249 0 0 0 
0.46201 0.50238 0.011781 0 0 0 
0.61588 0.507 0.018667 0 0 0 
0.60375 0.55016 0.033222 0 0 0 
0.60374 0.33487 0.033619 0 0 0 
0.38563 0.33487 0.030281 0 0 0 
0.38564 0.55016 0.029884 0 0 0 
0.52588 0.665 0.12379 0 0 0 
0.52718 0.60703 0.12549 0 0 0 
0.4808 0.60703 0.16114 0 0 0 
0.47949 0.665 0.15944 0 0 0 
0.36397 0.48683 0.13569 0 0 0 
0.36955 0.48849 0.11209 0 0 0 
0.38005 0.45334 0.11209 0 0 0 
0.37446 0.45167 0.13569 0 0 0 
0.56317 0.52697 0.16 0 0 0 
0.56699 0.52597 0.12776 0 0 0 
0.58329 0.58885 0.12776 0 0 0 
0.57947 0.58984 0.16 0 0 0 
0.70033 0.42606 0.13786 0 0 0 
0.70069 0.4261 0.11386 0 0 0 
0.69734 0.45572 0.11386 0 0 0 
0.69699 0.45568 0.13786 0 0 0 
0.53197 0.24333 0.12543 0 0 0 
0.46653 0.22085 0.15336 0 0 0 
0.46653 0.25459 0.18052 0 0 0 
0.53197 0.27707 0.15259 0 0 0 
0.53342 0.8524 0.51581 0 0 0 
0.52764 0.81616 0.51966 0 0 0 
0.49231 0.81616 0.46664 0 0 0 
0.49809 0.8524 0.46279 0 0 0 
0.5128 0.02172 0.51501 0 0 0 
0.4323 0.053925 0.48515 0 0 0 
0.4323 0.17812 0.61911 0 0 0 
0.5128 0.14592 0.64897 0 0 0 
0.50118 0.012987 0.536 0 0 0 
0.49641 0.015676 0.47504 0 0 0 
0.52775 0.071356 0.47504 0 0 0 
0.53253 0.068667 0.536 0 0 0 
0.41122 0.21557 0.62776 0 0 0 
0.37235 0.17466 0.52293 0 0 0 
0.47373 0.078298 0.52293 0 0 0 
0.51261 0.1192 0.62776 0 0 0 
0.45126 0.81058 0.48396 0 0 0 
0.43422 0.80564 0.47818 0 0 0 
0.43422 0.78217 0.49825 0 0 0 
0.45126 0.78712 0.50403 0 0 0 
4 0 1 2 3
4 4 5 6 7
4 8 9 10 11
4 12 13 14 15
4 16 17 18 19
4 20 21 22 23
4 24 25 26 27
4 28 29 30 31
4 32 33 34 35
4 36 37 38 39
4 40 41 42 43
4 44 45 46 47
4 48 49 50 51
4 52 53 54 55
4 56 57 58 59
4 60 61 62 63
4 64 65 66 67
4 68 69 70 71
4 72 73 74 75
4 76 77 78 79
4 80 81 82 83
4 84 85 86 87
4 88 89 90 91
4 92 93 94 95
4 96 97 98 99
4 100 101 102 103
4 104 105 106 107
4 108 109 110 111
4 112 113 114 115
4 116 117 118 119
4 120 121 122 123
4 124 125 126 127
4 128 129 130 131
4 132 133 134 135
4 136 137 138 139
4 140 141 142 143
4 144 145 146 147
4 148 149 150 151
4 152 153 154 155
4 156 157 158 159
4 160 161 162 163
4 164 165 166 167
4 168 169 170 171
4 172 173 174 175
4 176 177 178 179
4 180 181 182 183
4 184 185 186 187
4 188 189 190 191
4 192 193 194 195
4 196 197 198 199
4 200 201 202 203
4 204 205 206 207
4 208 209 210 211
4 212 213 214 215
4 216 217 218 219
4 220 221 222 223
4 224 225 226 227
4 228 229 230 231
4 232 233 234 235
4 236 237 238 239
4 240 241 242 243
4 244 245 246 247
4 248 249 250 251
4 252 253 254 255
4 256 257 258 259
4 260 261 262 263
4 264 265 266 267
4 268 269 270 271
4 272 273 274 275
4 276 277 278 279
4 280 281 282 283
4 284 285 286 287
4 288 289 290 291
4 292 293 294 295
4 296 297 298 299
4 300 301 302 303
4 304 305 306 307
4 308 309 310 311
4 312 313 314 315
4 316 317 318 319
4 320 321 322 323
4 324 325 326 327
4 328 329 330 331
4 332 333 334 335
4 336 337 338 339
4 340 341 342 343
4 344 345 346 347
4 348 349 350 351
4 352 353 354 355
4 356 357 358 359
4 360 361 362 363
4 364 365 366 367
4 368 369 370 371
4 372 373 374 375
4 376 377 378 379
4 380 381 382 383
4 384 385 386 387
4 388 389 390 391
4 392 393 394 395
4 396 397 398 399
4 400 401 402 403
4 404 405 406 407
4 408 409 410 411
4 412 413 414 415
4 416 417 418 419
4 420 421 422 423
4 424 425 426 427
4 428 429 430 431
4 432 433 434 435
4 436 437 438 439
4 440 441 442 443
4 444 445 446 447
4 448 449 450 451
4 452 453 454 455
4 456 457 458 459
4 460 461 462 463
4 464 465 466 467
4 468 469 470 471
4 472 473 474 475
4 476 477 478 479
4 480 481 482 483
4 484 485 486 487
4 488 489 490 491
4 492 493 494 495
4 496 497 498 499
4 500 501 502 503
4 504 505 506 507
4 508 509 510 511
4 512 513 514 515
4 516 517 518 519
4 520 521 522 523
4 524 525 526 527
4 528 529 530 531
4 532 533 534 535
4 536 537 538 539
4 540 541 542 543
4 544 545 546 547
4 548 549 550 551
4 552 553 554 555
4 556 557 558 559
4 560 561 562 563
4 564 565 566 567
4 568 569 570 571
4 572 573 574 575
4 576 577 578 579
4 580 581 582 583
4 584 585 586 587
4 588 589 590 591
4 592 593 594 595
4 596 597 598 599
4 600 601 602 603
4 604 605 606 607
4 608 609 610 611
4 612 613 614 615
4 616 617 618 619
4 620 621 622 623
4 624 625 626 627
4 628 629 630 631
4 632 633 634 635
4 636 637 638 639
4 640 641 642 643
4 644 645 646 647
4 648 649 650 651
4 652 653 654 655
4 656 657 658 659
4 660 661 662 663
4 664 665 666 667
4 668 669 670 671
4 672 673 674 675
4 676 677 678 679
4 680 681 682 683
4 684 685 686 687
4 688 689 690 691
4 692 693 694 695
4 696 697 698 699
4 700 701 702 703
4 704 705 706 707
4 708 709 710 711
4 712 713 714 715
4 716 717 718 719
4 720 721 722 723
4 724 725 726 727
4 728 729 730 731
4 732 733 734 735
4 736 737 738 739
4 740 741 742 743
4 744 745 746 747
4 748 749 750 751
4 752 753 754 755
4 756 757 758 759
4 760 761 762 763
4 764 765 766 767
4 768 769 770 771
4 772 773 774 775
4 776 777 778 779
4 780 781 782 783
4 784 785 786 787
4 788 789 790 791
4 792 793 794 795
4 796 797 798 799
4 800 801 802 803
4 804 805 806 807
4 808 809 810 811
4 812 813 814 815
4 816 817 818 819
4 820 821 822 823
4 824 825 826 827
4 828 829 830 831
4 832 833 834 835
4 836 837 838 839
4 840 841 842 843
4 844 845 846 847
4 848 849 850 851
4 852 853 854 855
4 856 857 858 859
4 860 861 862 863
4 864 865 866 867
4 868 869 870 871
4 872 873 874 875
4 876 877 878 879
4 880 881 882 883
4 884 885 886 887
4 888 889 890 891
4 892 893 894 895
4 896 897 898 899
4 900 901 902 903
4 904 905 906 907
4 908 909 910 911
4 912 913 914 915
4 916 917 918 919
4 920 921 922 923
4 924 925 926 927
4 928 929 930 931
4 932 933 934 935
4 936 937 938 939
4 940 941 942 943
4 944 945 946 947
4 948 949 950 951
4 952 953 954 955
4 956 957 958 959
4 960 961 962 963
4 964 965 966 967
4 968 969 970 971
4 972 973 974 975
4 976 977 978 979
4 980 981 982 983
4 984 985 986 987
4 988 989 990 991
4 992 993 994 995
4 996 997 998 999
4 1000 1001 1002 1003
4 1004 1005 1006 1007
4 1008 1009 1010 1011
4 1012 1013 1014 1015
4 1016 1017 1018 1019
4 1020 1021 1022 1023
