ply
format ascii 1.0
comment PCL generated
element vertex 228
property float x
property float y
property float z
property uchar red
property uchar green
property uchar blue
element face 57
property list uchar int vertex_indices
end_header
0.71573 0.43442 0.88717 0 0 0 
0.72197 0.44044 0.76249 0 0 0 
0.49259 0.67826 0.76249 0 0 0 
0.48634 0.67224 0.88717 0 0 0 
0.26503 0.72267 0.73073 0 0 0 
0.26502 0.16426 0.73081 0 0 0 
0.75861 0.16426 0.77856 0 0 0 
0.75862 0.72267 0.77848 0 0 0 
0.71228 0.70811 0.86409 0 0 0 
0.71259 0.17451 0.86412 0 0 0 
0.77241 0.17451 0.24583 0 0 0 
0.7721 0.70811 0.2458 0 0 0 
0.28662 0.72407 0.85458 0 0 0 
0.28058 0.15822 0.85518 0 0 0 
0.22011 0.15822 0.24385 0 0 0 
0.22615 0.72407 0.24326 0 0 0 
0.78066 0.70844 0.76291 0 0 0 
0.2364 0.71117 0.76275 0 0 0 
0.2364 0.67926 0.21322 0 0 0 
0.78066 0.67653 0.21337 0 0 0 
0.77073 0.17623 0.77566 0 0 0 
0.22198 0.17213 0.77536 0 0 0 
0.22198 0.21077 0.23635 0 0 0 
0.77073 0.21488 0.23665 0 0 0 
0.72339 0.44324 0.90098 0 0 0 
0.72443 0.44216 0.77232 0 0 0 
0.49261 0.21893 0.77232 0 0 0 
0.49157 0.22001 0.90098 0 0 0 
0.26951 0.44355 0.90919 0 0 0 
0.26612 0.43966 0.75725 0 0 0 
0.51019 0.22678 0.75725 0 0 0 
0.51357 0.23066 0.90919 0 0 0 
0.77536 0.69238 0.24779 0 0 0 
0.23851 0.69191 0.23971 0 0 0 
0.23851 0.18677 0.26908 0 0 0 
0.77536 0.18724 0.27716 0 0 0 
0.32915 0.69419 0.19822 0 0 0 
0.34104 0.19592 0.21886 0 0 0 
0.10302 0.19592 0.35597 0 0 0 
0.091128 0.69419 0.33533 0 0 0 
0.27596 0.44922 0.24211 0 0 0 
0.28175 0.44317 0.11717 0 0 0 
0.49555 0.64792 0.11717 0 0 0 
0.48976 0.65397 0.24211 0 0 0 
0.50931 0.0064967 0.51135 0 0 0 
0.59027 0.091417 0.33849 0 0 0 
0.43827 0.23632 0.33849 0 0 0 
0.35732 0.1514 0.51135 0 0 0 
0.51828 0.18311 0.65669 0 0 0 
0.44385 0.026511 0.5856 0 0 0 
0.57551 0.026511 0.44778 0 0 0 
0.64993 0.18311 0.51888 0 0 0 
0.56906 0.082609 0.65155 0 0 0 
0.49137 0.0089527 0.49152 0 0 0 
0.35188 0.15609 0.49152 0 0 0 
0.42958 0.22975 0.65155 0 0 0 
0.51752 0.019536 0.51743 0 0 0 
0.43546 0.097244 0.34396 0 0 0 
0.57916 0.24901 0.34396 0 0 0 
0.66123 0.1713 0.51743 0 0 0 
0.49935 0.7237 0.35074 0 0 0 
0.37195 0.66364 0.40632 0 0 0 
0.37195 0.82592 0.58166 0 0 0 
0.49935 0.88597 0.52608 0 0 0 
0.5908 0.85688 0.56208 0 0 0 
0.65535 0.70116 0.48909 0 0 0 
0.49834 0.70116 0.35024 0 0 0 
0.43379 0.85688 0.42323 0 0 0 
0.84158 0.41153 0.71365 0 0 0 
0.74768 0.40609 0.69865 0 0 0 
0.74768 0.60302 0.62715 0 0 0 
0.84158 0.60847 0.64216 0 0 0 
0.86476 0.27024 0.64153 0 0 0 
0.85952 0.24037 0.44437 0 0 0 
0.7481 0.2599 0.44437 0 0 0 
0.75334 0.28976 0.64153 0 0 0 
0.8755 0.29848 0.35172 0 0 0 
0.77887 0.30092 0.36091 0 0 0 
0.77887 0.51544 0.30384 0 0 0 
0.8755 0.51299 0.29466 0 0 0 
0.88428 0.42609 0.30761 0 0 0 
0.77947 0.42963 0.29894 0 0 0 
0.77947 0.58365 0.36189 0 0 0 
0.88428 0.5801 0.37056 0 0 0 
0.8517 0.27019 0.62562 0 0 0 
0.7463 0.27127 0.62336 0 0 0 
0.7463 0.43232 0.70027 0 0 0 
0.8517 0.43125 0.70252 0 0 0 
0.88542 0.55722 0.34736 0 0 0 
0.76853 0.56195 0.34475 0 0 0 
0.76853 0.63985 0.48594 0 0 0 
0.88542 0.63512 0.48856 0 0 0 
0.88352 0.24296 0.50175 0 0 0 
0.77402 0.2388 0.49977 0 0 0 
0.77402 0.30673 0.35712 0 0 0 
0.88352 0.3109 0.3591 0 0 0 
0.86454 0.59747 0.62884 0 0 0 
0.75814 0.59483 0.62813 0 0 0 
0.75814 0.63769 0.46856 0 0 0 
0.86454 0.64033 0.46927 0 0 0 
0.85004 0.64136 0.70267 0 0 0 
0.85027 0.23994 0.70269 0 0 0 
0.88781 0.23994 0.31475 0 0 0 
0.88757 0.64136 0.31473 0 0 0 
0.10939 0.64171 0.31571 0 0 0 
0.10515 0.2444 0.31613 0 0 0 
0.14271 0.2444 0.69586 0 0 0 
0.14695 0.64171 0.69544 0 0 0 
0.24436 0.56263 0.64993 0 0 0 
0.14097 0.56524 0.65975 0 0 0 
0.14097 0.40021 0.70366 0 0 0 
0.24436 0.3976 0.69383 0 0 0 
0.21954 0.45377 0.29279 0 0 0 
0.10262 0.45911 0.28536 0 0 0 
0.10262 0.64669 0.42004 0 0 0 
0.21954 0.64135 0.42747 0 0 0 
0.23682 0.6222 0.60317 0 0 0 
0.23684 0.62284 0.39712 0 0 0 
0.13377 0.62631 0.39712 0 0 0 
0.13375 0.62567 0.60317 0 0 0 
0.21624 0.41512 0.29823 0 0 0 
0.10825 0.41579 0.29926 0 0 0 
0.10825 0.27148 0.3935 0 0 0 
0.21624 0.27082 0.39248 0 0 0 
0.24683 0.37214 0.68192 0 0 0 
0.14013 0.35152 0.69754 0 0 0 
0.14013 0.21107 0.51207 0 0 0 
0.24683 0.2317 0.49646 0 0 0 
0.24738 0.4966 0.6886 0 0 0 
0.1566 0.49567 0.69423 0 0 0 
0.1566 0.29337 0.6606 0 0 0 
0.24738 0.29431 0.65497 0 0 0 
0.22919 0.28514 0.37888 0 0 0 
0.13682 0.28315 0.37842 0 0 0 
0.13682 0.24617 0.53976 0 0 0 
0.22919 0.24817 0.54022 0 0 0 
0.14147 0.53861 0.67799 0 0 0 
0.12084 0.32649 0.68425 0 0 0 
0.06255 0.32649 0.49243 0 0 0 
0.083182 0.53861 0.48616 0 0 0 
0.11819 0.53714 0.56201 0 0 0 
0.0069082 0.53667 0.56101 0 0 0 
0.0069082 0.41738 0.61719 0 0 0 
0.11819 0.41785 0.61819 0 0 0 
0.017343 0.50295 0.59975 0 0 0 
0.017445 0.32705 0.59976 0 0 0 
0.035826 0.32705 0.40978 0 0 0 
0.035724 0.50295 0.40977 0 0 0 
-0.0087883 0.515 0.60905 0 0 0 
0.053988 0.53757 0.40909 0 0 0 
0.12201 0.34844 0.40909 0 0 0 
0.059235 0.32586 0.60905 0 0 0 
0.10667 0.53643 0.44333 0 0 0 
0.016788 0.53575 0.44328 0 0 0 
0.016788 0.52543 0.58733 0 0 0 
0.10667 0.5261 0.58738 0 0 0 
0.96368 0.43239 0.38273 0 0 0 
0.8865 0.4617 0.36337 0 0 0 
0.8865 0.56934 0.52634 0 0 0 
0.96368 0.54003 0.5457 0 0 0 
0.95667 0.55212 0.61203 0 0 0 
0.95679 0.33509 0.61204 0 0 0 
0.97737 0.33509 0.39941 0 0 0 
0.97724 0.55212 0.3994 0 0 0 
0.61408 0.55042 0.95377 0 0 0 
0.39918 0.55129 0.96078 0 0 0 
0.39918 0.34081 0.98699 0 0 0 
0.61408 0.33993 0.97998 0 0 0 
0.48534 0.35196 0.9983 0 0 0 
0.50598 0.31949 0.90291 0 0 0 
0.61065 0.38603 0.90291 0 0 0 
0.59001 0.4185 0.9983 0 0 0 
0.61251 0.46578 0.95514 0 0 0 
0.61518 0.46899 0.88748 0 0 0 
0.50627 0.55962 0.88748 0 0 0 
0.5036 0.55641 0.95514 0 0 0 
0.26368 0.42871 0.96766 0 0 0 
0.26638 0.43552 0.76163 0 0 0 
0.50667 0.34007 0.76163 0 0 0 
0.50397 0.33325 0.96766 0 0 0 
0.70687 0.23683 0.88989 0 0 0 
0.30244 0.23648 0.8838 0 0 0 
0.30244 0.65793 0.85929 0 0 0 
0.70687 0.65829 0.86538 0 0 0 
0.28507 0.44396 0.89079 0 0 0 
0.28007 0.4491 0.75633 0 0 0 
0.51807 0.68036 0.75633 0 0 0 
0.52307 0.67522 0.89079 0 0 0 
0.70937 0.2382 0.14487 0 0 0 
0.30695 0.23785 0.13881 0 0 0 
0.30695 0.64736 0.115 0 0 0 
0.70937 0.64772 0.12106 0 0 0 
0.56166 0.33296 0.11504 0 0 0 
0.54898 0.33736 0.013237 0 0 0 
0.60074 0.48641 0.013237 0 0 0 
0.61341 0.48201 0.11504 0 0 0 
0.55693 0.35016 0.01784 0 0 0 
0.43211 0.35078 0.017804 0 0 0 
0.43211 0.35645 0.11535 0 0 0 
0.55693 0.35582 0.11538 0 0 0 
0.28508 0.4714 0.13325 0 0 0 
0.3918 0.23758 0.23829 0 0 0 
0.52993 0.23758 0.097947 0 0 0 
0.4232 0.4714 -0.0070906 0 0 0 
0.60011 0.55785 0.027383 0 0 0 
0.39139 0.55767 0.024242 0 0 0 
0.39139 0.35184 0.03621 0 0 0 
0.60011 0.35203 0.039351 0 0 0 
0.48988 0.22452 0.24244 0 0 0 
0.49581 0.21833 0.1144 0 0 0 
0.72568 0.43847 0.1144 0 0 0 
0.71974 0.44467 0.24244 0 0 0 
0.48897 0.67188 0.24664 0 0 0 
0.48597 0.6688 0.10818 0 0 0 
0.72401 0.4363 0.10818 0 0 0 
0.72701 0.43938 0.24664 0 0 0 
0.5057 0.20639 0.23689 0 0 0 
0.51058 0.21101 0.14109 0 0 0 
0.27072 0.4645 0.14109 0 0 0 
0.26584 0.45988 0.23689 0 0 0 
0.43421 0.80698 0.64448 0 0 0 
0.49951 0.87458 0.48268 0 0 0 
0.65285 0.72647 0.48268 0 0 0 
0.58755 0.65887 0.64448 0 0 0 
0.5717 0.8771 0.57731 0 0 0 
0.49733 0.71531 0.65294 0 0 0 
0.34668 0.71531 0.50478 0 0 0 
0.42104 0.8771 0.42916 0 0 0 
4 0 1 2 3
4 4 5 6 7
4 8 9 10 11
4 12 13 14 15
4 16 17 18 19
4 20 21 22 23
4 24 25 26 27
4 28 29 30 31
4 32 33 34 35
4 36 37 38 39
4 40 41 42 43
4 44 45 46 47
4 48 49 50 51
4 52 53 54 55
4 56 57 58 59
4 60 61 62 63
4 64 65 66 67
4 68 69 70 71
4 72 73 74 75
4 76 77 78 79
4 80 81 82 83
4 84 85 86 87
4 88 89 90 91
4 92 93 94 95
4 96 97 98 99
4 100 101 102 103
4 104 105 106 107
4 108 109 110 111
4 112 113 114 115
4 116 117 118 119
4 120 121 122 123
4 124 125 126 127
4 128 129 130 131
4 132 133 134 135
4 136 137 138 139
4 140 141 142 143
4 144 145 146 147
4 148 149 150 151
4 152 153 154 155
4 156 157 158 159
4 160 161 162 163
4 164 165 166 167
4 168 169 170 171
4 172 173 174 175
4 176 177 178 179
4 180 181 182 183
4 184 185 186 187
4 188 189 190 191
4 192 193 194 195
4 196 197 198 199
4 200 201 202 203
4 204 205 206 207
4 208 209 210 211
4 212 213 214 215
4 216 217 218 219
4 220 221 222 223
4 224 225 226 227
