ply
format ascii 1.0
comment PCL generated
element vertex 1076
property float x
property float y
property float z
property uchar red
property uchar green
property uchar blue
element face 269
property list uchar int vertex_indices
end_header
0.75775 0.70649 0.75779 0 0 0 
0.75387 0.18335 0.79212 0 0 0 
0.24753 0.18335 0.73486 0 0 0 
0.25142 0.70649 0.70052 0 0 0 
0.23277 0.71649 0.25198 0 0 0 
0.24313 0.15598 0.25142 0 0 0 
0.27031 0.15598 0.74674 0 0 0 
0.25995 0.71649 0.74731 0 0 0 
0.47443 0.59663 0.98135 0 0 0 
0.54639 0.66091 0.74734 0 0 0 
0.73664 0.44791 0.74734 0 0 0 
0.66468 0.38364 0.98135 0 0 0 
0.45606 0.6681 0.74511 0 0 0 
0.46386 0.62991 0.73036 0 0 0 
0.52042 0.62991 0.76028 0 0 0 
0.51261 0.6681 0.77503 0 0 0 
0.71337 0.43891 0.88779 0 0 0 
0.71187 0.43752 0.75934 0 0 0 
0.48661 0.68161 0.75934 0 0 0 
0.48812 0.683 0.88779 0 0 0 
0.27013 0.44592 0.88921 0 0 0 
0.28905 0.42796 0.72911 0 0 0 
0.50337 0.65367 0.72911 0 0 0 
0.48446 0.67163 0.88921 0 0 0 
0.36703 0.64284 0.74099 0 0 0 
0.36849 0.55342 0.73392 0 0 0 
0.48668 0.55342 0.75832 0 0 0 
0.48522 0.64284 0.76539 0 0 0 
0.65164 0.51487 0.8193 0 0 0 
0.65861 0.51836 0.74727 0 0 0 
0.69262 0.4504 0.74727 0 0 0 
0.68565 0.44691 0.8193 0 0 0 
0.56527 0.25021 0.75461 0 0 0 
0.49313 0.25176 0.75437 0 0 0 
0.49313 0.26349 0.82997 0 0 0 
0.56527 0.26194 0.83021 0 0 0 
0.58159 0.43149 0.77254 0 0 0 
0.58095 0.36863 0.77238 0 0 0 
0.58808 0.36863 0.74265 0 0 0 
0.58872 0.43149 0.7428 0 0 0 
0.28948 0.3655 0.74973 0 0 0 
0.26027 0.23322 0.75715 0 0 0 
0.23769 0.23322 0.66828 0 0 0 
0.2669 0.3655 0.66086 0 0 0 
0.52872 0.25555 0.8885 0 0 0 
0.50347 0.21944 0.73741 0 0 0 
0.24894 0.39735 0.73741 0 0 0 
0.27418 0.43346 0.8885 0 0 0 
0.32801 0.36222 0.75585 0 0 0 
0.26449 0.38114 0.76952 0 0 0 
0.26449 0.4164 0.72072 0 0 0 
0.32801 0.39748 0.70705 0 0 0 
0.56398 0.52397 0.77901 0 0 0 
0.56127 0.53048 0.74126 0 0 0 
0.54041 0.52179 0.74126 0 0 0 
0.54312 0.51528 0.77901 0 0 0 
0.29876 0.46208 0.74051 0 0 0 
0.30438 0.4676 0.65756 0 0 0 
0.24463 0.52844 0.65756 0 0 0 
0.23901 0.52292 0.74051 0 0 0 
0.50293 0.49749 0.75811 0 0 0 
0.41484 0.4983 0.75225 0 0 0 
0.41484 0.4658 0.74775 0 0 0 
0.50293 0.46499 0.75361 0 0 0 
0.23066 0.18561 0.76287 0 0 0 
0.23067 0.18532 0.2408 0 0 0 
0.75636 0.20626 0.2408 0 0 0 
0.75635 0.20654 0.76287 0 0 0 
0.24014 0.60941 0.64404 0 0 0 
0.20841 0.44285 0.67554 0 0 0 
0.30781 0.44285 0.77568 0 0 0 
0.33954 0.60941 0.74419 0 0 0 
0.38956 0.4583 0.73693 0 0 0 
0.36886 0.46151 0.7437 0 0 0 
0.36886 0.48633 0.73191 0 0 0 
0.38956 0.48312 0.72514 0 0 0 
0.50236 0.21422 0.89107 0 0 0 
0.50588 0.21106 0.74549 0 0 0 
0.71377 0.44198 0.74549 0 0 0 
0.71026 0.44514 0.89107 0 0 0 
0.71792 0.70705 0.78051 0 0 0 
0.71856 0.17464 0.78056 0 0 0 
0.76571 0.17464 0.24703 0 0 0 
0.76507 0.70705 0.24697 0 0 0 
0.51351 0.49415 0.74177 0 0 0 
0.4824 0.49458 0.74168 0 0 0 
0.4824 0.49919 0.76418 0 0 0 
0.51351 0.49877 0.76427 0 0 0 
0.54373 0.30071 0.77487 0 0 0 
0.54681 0.29768 0.73973 0 0 0 
0.50459 0.25487 0.73973 0 0 0 
0.50152 0.2579 0.77487 0 0 0 
0.30939 0.46947 0.85077 0 0 0 
0.29538 0.48276 0.72331 0 0 0 
0.25071 0.43566 0.72331 0 0 0 
0.26472 0.42238 0.85077 0 0 0 
0.74936 0.72048 0.74195 0 0 0 
0.6726 0.69977 0.71958 0 0 0 
0.6726 0.63371 0.78072 0 0 0 
0.74936 0.65442 0.80309 0 0 0 
0.38958 0.36756 0.73946 0 0 0 
0.37583 0.37023 0.74423 0 0 0 
0.37583 0.34818 0.75661 0 0 0 
0.38958 0.3455 0.75184 0 0 0 
0.44553 0.37414 0.76677 0 0 0 
0.45149 0.36046 0.77106 0 0 0 
0.46698 0.36046 0.74951 0 0 0 
0.46101 0.37414 0.74522 0 0 0 
0.3272 0.35964 0.72999 0 0 0 
0.27274 0.37734 0.71363 0 0 0 
0.27274 0.42527 0.76547 0 0 0 
0.3272 0.40757 0.78184 0 0 0 
0.78831 0.69563 0.25972 0 0 0 
0.22701 0.69565 0.25766 0 0 0 
0.22701 0.19177 0.25432 0 0 0 
0.78831 0.19176 0.25638 0 0 0 
0.49282 0.22858 0.26989 0 0 0 
0.47857 0.21522 0.12525 0 0 0 
0.32992 0.37375 0.12525 0 0 0 
0.34417 0.38711 0.26989 0 0 0 
0.41772 0.34889 0.27543 0 0 0 
0.39799 0.35909 0.22286 0 0 0 
0.37851 0.32143 0.22286 0 0 0 
0.39824 0.31122 0.27543 0 0 0 
0.25222 0.69632 0.75226 0 0 0 
0.25205 0.69009 0.24647 0 0 0 
0.75546 0.67629 0.24647 0 0 0 
0.75563 0.68252 0.75226 0 0 0 
0.28157 0.45288 0.26924 0 0 0 
0.2925 0.44146 0.11926 0 0 0 
0.54714 0.68517 0.11926 0 0 0 
0.5362 0.6966 0.26924 0 0 0 
0.45507 0.26567 0.27229 0 0 0 
0.43243 0.24843 0.13156 0 0 0 
0.26315 0.47077 0.13156 0 0 0 
0.2858 0.48801 0.27229 0 0 0 
0.48275 0.21341 0.28055 0 0 0 
0.48592 0.21021 0.12793 0 0 0 
0.71802 0.44089 0.12793 0 0 0 
0.71485 0.44408 0.28055 0 0 0 
0.38389 0.5128 0.26389 0 0 0 
0.31355 0.53728 0.24406 0 0 0 
0.31355 0.55137 0.26145 0 0 0 
0.38389 0.52689 0.28128 0 0 0 
0.5013 0.60898 0.25061 0 0 0 
0.45446 0.60773 0.25334 0 0 0 
0.45446 0.65565 0.27535 0 0 0 
0.5013 0.65691 0.27262 0 0 0 
0.5605 0.25583 0.2693 0 0 0 
0.49114 0.28269 0.2858 0 0 0 
0.49114 0.30511 0.24931 0 0 0 
0.5605 0.27825 0.23281 0 0 0 
0.72048 0.22266 0.2992 0 0 0 
0.61075 0.2314 0.29302 0 0 0 
0.61075 0.2055 0.25645 0 0 0 
0.72048 0.19677 0.26264 0 0 0 
0.62333 0.39774 0.2365 0 0 0 
0.63489 0.3678 0.22977 0 0 0 
0.66151 0.3678 0.27545 0 0 0 
0.64995 0.39774 0.28218 0 0 0 
0.47245 0.20898 0.30593 0 0 0 
0.40291 0.18514 0.27964 0 0 0 
0.40291 0.23118 0.2379 0 0 0 
0.47245 0.25502 0.26419 0 0 0 
0.47482 0.55416 0.22531 0 0 0 
0.49089 0.44323 0.24893 0 0 0 
0.44665 0.44323 0.27904 0 0 0 
0.43057 0.55416 0.25543 0 0 0 
0.57832 0.48205 0.27985 0 0 0 
0.5811 0.48337 0.23587 0 0 0 
0.63979 0.35947 0.23587 0 0 0 
0.637 0.35815 0.27985 0 0 0 
0.72583 0.44772 0.26394 0 0 0 
0.73543 0.45971 0.11566 0 0 0 
0.50341 0.64525 0.11566 0 0 0 
0.49382 0.63326 0.26394 0 0 0 
0.33503 0.70607 0.26499 0 0 0 
0.22844 0.69245 0.29339 0 0 0 
0.22844 0.63144 0.26413 0 0 0 
0.33503 0.64505 0.23573 0 0 0 
0.69835 0.45061 0.27418 0 0 0 
0.699 0.38033 0.27436 0 0 0 
0.72614 0.38033 0.17628 0 0 0 
0.72549 0.45061 0.1761 0 0 0 
0.2648 0.34606 0.25357 0 0 0 
0.2131 0.34569 0.25357 0 0 0 
0.2131 0.34646 0.31698 0 0 0 
0.2648 0.34683 0.31698 0 0 0 
0.42115 0.49797 0.24074 0 0 0 
0.33059 0.50019 0.24146 0 0 0 
0.33059 0.49099 0.26967 0 0 0 
0.42115 0.48876 0.26894 0 0 0 
0.37303 0.29404 0.27455 0 0 0 
0.37108 0.2964 0.2596 0 0 0 
0.3586 0.28609 0.2596 0 0 0 
0.36056 0.28372 0.27455 0 0 0 
0.58863 0.54196 0.26358 0 0 0 
0.57061 0.54213 0.26367 0 0 0 
0.57061 0.55322 0.24255 0 0 0 
0.58863 0.55304 0.24245 0 0 0 
0.47092 0.19222 0.64044 0 0 0 
0.47235 0.14576 0.63659 0 0 0 
0.52415 0.14576 0.65574 0 0 0 
0.52273 0.19222 0.65959 0 0 0 
0.53297 0.21226 0.35581 0 0 0 
0.54022 0.16709 0.35106 0 0 0 
0.57456 0.16709 0.40337 0 0 0 
0.56731 0.21226 0.40813 0 0 0 
0.47788 0.030839 0.51509 0 0 0 
0.55887 0.11548 0.33819 0 0 0 
0.42317 0.24534 0.33819 0 0 0 
0.34217 0.16069 0.51509 0 0 0 
0.58532 0.20644 0.42457 0 0 0 
0.55303 0.10043 0.4678 0 0 0 
0.6222 0.10043 0.51946 0 0 0 
0.65449 0.20644 0.47622 0 0 0 
0.4026 0.14181 0.46799 0 0 0 
0.33541 0.14943 0.44961 0 0 0 
0.33541 0.20353 0.47203 0 0 0 
0.4026 0.19591 0.49042 0 0 0 
0.49456 0.2197 0.41345 0 0 0 
0.48304 0.20607 0.33981 0 0 0 
0.53259 0.1642 0.33981 0 0 0 
0.54411 0.17783 0.41345 0 0 0 
0.52973 0.02504 0.52078 0 0 0 
0.43034 0.096811 0.26599 0 0 0 
0.53405 0.24044 0.26599 0 0 0 
0.63344 0.16867 0.52078 0 0 0 
0.46661 0.071073 0.66052 0 0 0 
0.54426 0.020654 0.47705 0 0 0 
0.66609 0.20827 0.47705 0 0 0 
0.58844 0.25869 0.66052 0 0 0 
0.52539 0.12123 0.58753 0 0 0 
0.46594 0.12535 0.58463 0 0 0 
0.46594 0.18643 0.67141 0 0 0 
0.52539 0.18232 0.6743 0 0 0 
0.72819 0.18602 0.58054 0 0 0 
0.60052 0.17752 0.58768 0 0 0 
0.60052 0.21764 0.63542 0 0 0 
0.72819 0.22614 0.62828 0 0 0 
0.71647 0.20437 0.62153 0 0 0 
0.72605 0.19979 0.42265 0 0 0 
0.76545 0.28225 0.42265 0 0 0 
0.75587 0.28682 0.62153 0 0 0 
0.36858 0.1761 0.58536 0 0 0 
0.3372 0.16462 0.5779 0 0 0 
0.3372 0.1962 0.52929 0 0 0 
0.36858 0.20767 0.53675 0 0 0 
0.63157 0.21595 0.50085 0 0 0 
0.63028 0.21805 0.46847 0 0 0 
0.5776 0.18587 0.46847 0 0 0 
0.57889 0.18376 0.50085 0 0 0 
0.44545 0.17118 0.41782 0 0 0 
0.37628 0.16597 0.40946 0 0 0 
0.37628 0.20286 0.38649 0 0 0 
0.44545 0.20807 0.39486 0 0 0 
0.42581 0.19181 0.54185 0 0 0 
0.42786 0.17361 0.54553 0 0 0 
0.45317 0.17361 0.53145 0 0 0 
0.45113 0.19181 0.52777 0 0 0 
0.45594 0.068895 0.59147 0 0 0 
0.46143 0.074096 0.47107 0 0 0 
0.35857 0.18273 0.47107 0 0 0 
0.35308 0.17753 0.59147 0 0 0 
0.38154 0.15505 0.5629 0 0 0 
0.38401 0.1557 0.546 0 0 0 
0.37205 0.20131 0.546 0 0 0 
0.36958 0.20067 0.5629 0 0 0 
0.4219 0.7366 0.41727 0 0 0 
0.42609 0.67541 0.41947 0 0 0 
0.41653 0.67541 0.43763 0 0 0 
0.41235 0.7366 0.43543 0 0 0 
0.48016 0.73196 0.43236 0 0 0 
0.48473 0.74289 0.37805 0 0 0 
0.59645 0.6961 0.37805 0 0 0 
0.59188 0.68518 0.43236 0 0 0 
0.43986 0.78536 0.64523 0 0 0 
0.50346 0.85987 0.4812 0 0 0 
0.65516 0.73039 0.4812 0 0 0 
0.59156 0.65588 0.64523 0 0 0 
0.59236 0.88314 0.61875 0 0 0 
0.5115 0.67966 0.69522 0 0 0 
0.33665 0.67966 0.51032 0 0 0 
0.41751 0.88314 0.43385 0 0 0 
0.3755 0.72708 0.57092 0 0 0 
0.37545 0.67547 0.57094 0 0 0 
0.33558 0.67547 0.49107 0 0 0 
0.33563 0.72708 0.49105 0 0 0 
0.76682 0.69914 0.35871 0 0 0 
0.7534 0.67014 0.34552 0 0 0 
0.727 0.67014 0.37238 0 0 0 
0.74042 0.69914 0.38557 0 0 0 
0.53822 0.67171 0.31827 0 0 0 
0.44014 0.64254 0.36078 0 0 0 
0.44014 0.69983 0.40008 0 0 0 
0.53822 0.72899 0.35756 0 0 0 
0.41789 0.71132 0.58876 0 0 0 
0.284 0.67041 0.5685 0 0 0 
0.284 0.70556 0.49755 0 0 0 
0.41789 0.74647 0.51782 0 0 0 
0.53764 0.7003 0.65342 0 0 0 
0.45486 0.69815 0.65085 0 0 0 
0.45486 0.7569 0.60149 0 0 0 
0.53764 0.75905 0.60406 0 0 0 
0.43298 0.68568 0.49112 0 0 0 
0.4172 0.68197 0.39852 0 0 0 
0.40733 0.72398 0.39852 0 0 0 
0.42311 0.72768 0.49112 0 0 0 
0.58162 0.72247 0.53512 0 0 0 
0.57934 0.67934 0.53925 0 0 0 
0.61283 0.67934 0.55773 0 0 0 
0.6151 0.72247 0.55361 0 0 0 
0.22267 0.67302 0.32942 0 0 0 
0.22157 0.67755 0.27589 0 0 0 
0.25993 0.6869 0.27589 0 0 0 
0.26104 0.68237 0.32942 0 0 0 
0.62322 0.79999 0.54183 0 0 0 
0.48211 0.85654 0.48318 0 0 0 
0.48211 0.72156 0.35303 0 0 0 
0.62322 0.66501 0.41168 0 0 0 
0.50415 0.70511 0.34674 0 0 0 
0.33698 0.6334 0.429 0 0 0 
0.33698 0.7988 0.5732 0 0 0 
0.50415 0.87051 0.49094 0 0 0 
0.744 0.65018 0.54926 0 0 0 
0.73624 0.61638 0.37918 0 0 0 
0.87766 0.58391 0.37918 0 0 0 
0.88543 0.61771 0.54926 0 0 0 
0.82014 0.61965 0.60675 0 0 0 
0.81632 0.62879 0.47435 0 0 0 
0.72023 0.58857 0.47435 0 0 0 
0.72405 0.57944 0.60675 0 0 0 
0.89305 0.40255 0.30238 0 0 0 
0.76455 0.40335 0.29929 0 0 0 
0.76455 0.5543 0.3386 0 0 0 
0.89305 0.5535 0.34169 0 0 0 
0.84232 0.55144 0.70107 0 0 0 
0.84102 0.40393 0.7052 0 0 0 
0.72725 0.40393 0.66948 0 0 0 
0.72855 0.55144 0.66534 0 0 0 
0.88679 0.41848 0.31749 0 0 0 
0.75255 0.41844 0.31741 0 0 0 
0.75255 0.27426 0.39813 0 0 0 
0.88679 0.2743 0.3982 0 0 0 
0.86103 0.62055 0.55302 0 0 0 
0.72419 0.63135 0.56095 0 0 0 
0.72419 0.54142 0.68349 0 0 0 
0.86103 0.53062 0.67557 0 0 0 
0.82068 0.32268 0.37187 0 0 0 
0.76176 0.31261 0.35525 0 0 0 
0.76176 0.37048 0.32022 0 0 0 
0.82068 0.38054 0.33684 0 0 0 
0.87589 0.30166 0.38187 0 0 0 
0.7456 0.32495 0.40751 0 0 0 
0.7456 0.23503 0.48916 0 0 0 
0.87589 0.21174 0.46351 0 0 0 
0.88067 0.58985 0.42169 0 0 0 
0.75515 0.61488 0.38825 0 0 0 
0.75515 0.50533 0.30624 0 0 0 
0.88067 0.4803 0.33968 0 0 0 
0.86905 0.26574 0.57735 0 0 0 
0.75062 0.27993 0.57337 0 0 0 
0.75062 0.2458 0.45169 0 0 0 
0.86905 0.23161 0.45567 0 0 0 
0.86114 0.44947 0.70837 0 0 0 
0.73995 0.4504 0.70642 0 0 0 
0.73995 0.3227 0.64542 0 0 0 
0.86114 0.32177 0.64736 0 0 0 
0.8812 0.45861 0.3329 0 0 0 
0.8778 0.33662 0.34929 0 0 0 
0.77118 0.33662 0.32717 0 0 0 
0.77458 0.45861 0.31078 0 0 0 
0.86312 0.26522 0.54418 0 0 0 
0.75163 0.27354 0.54258 0 0 0 
0.75163 0.29188 0.63779 0 0 0 
0.86312 0.28357 0.63939 0 0 0 
0.85901 0.27798 0.62305 0 0 0 
0.73371 0.28465 0.61223 0 0 0 
0.73371 0.36929 0.66444 0 0 0 
0.85901 0.36262 0.67525 0 0 0 
0.85521 0.55617 0.34203 0 0 0 
0.75924 0.55916 0.34024 0 0 0 
0.75924 0.63383 0.46468 0 0 0 
0.85521 0.63085 0.46647 0 0 0 
0.76426 0.50786 0.67797 0 0 0 
0.7629 0.48291 0.67559 0 0 0 
0.72151 0.48291 0.69921 0 0 0 
0.72287 0.50786 0.7016 0 0 0 
0.72014 0.44396 0.74072 0 0 0 
0.70867 0.35043 0.72878 0 0 0 
0.76818 0.35043 0.67166 0 0 0 
0.77965 0.44396 0.68361 0 0 0 
0.77415 0.62807 0.57373 0 0 0 
0.77141 0.58685 0.56873 0 0 0 
0.7379 0.58685 0.58712 0 0 0 
0.74064 0.62807 0.59211 0 0 0 
0.78709 0.45847 0.33071 0 0 0 
0.7543 0.45927 0.32767 0 0 0 
0.7543 0.50378 0.33938 0 0 0 
0.78709 0.50298 0.34242 0 0 0 
0.86665 0.58331 0.64015 0 0 0 
0.7811 0.59122 0.6414 0 0 0 
0.7811 0.60962 0.52511 0 0 0 
0.86665 0.60171 0.52386 0 0 0 
0.88889 0.32095 0.39094 0 0 0 
0.84137 0.30031 0.37359 0 0 0 
0.84137 0.34889 0.31584 0 0 0 
0.88889 0.36952 0.33319 0 0 0 
0.89249 0.56483 0.63118 0 0 0 
0.87692 0.46721 0.60761 0 0 0 
0.81553 0.46721 0.64816 0 0 0 
0.83111 0.56483 0.67173 0 0 0 
0.88167 0.63514 0.68979 0 0 0 
0.88553 0.63497 0.32339 0 0 0 
0.86868 0.2644 0.32339 0 0 0 
0.86482 0.26458 0.68979 0 0 0 
0.85661 0.45163 0.32697 0 0 0 
0.87187 0.3379 0.32249 0 0 0 
0.90983 0.3379 0.45184 0 0 0 
0.89457 0.45163 0.45632 0 0 0 
0.88046 0.52704 0.65688 0 0 0 
0.87676 0.50181 0.64982 0 0 0 
0.82054 0.50181 0.67926 0 0 0 
0.82424 0.52704 0.68633 0 0 0 
0.88209 0.31564 0.46302 0 0 0 
0.84019 0.31327 0.45738 0 0 0 
0.84019 0.24256 0.4871 0 0 0 
0.88209 0.24493 0.49274 0 0 0 
0.87231 0.62223 0.59246 0 0 0 
0.87358 0.62055 0.53026 0 0 0 
0.84056 0.59561 0.53026 0 0 0 
0.83929 0.59729 0.59246 0 0 0 
0.87325 0.32405 0.62311 0 0 0 
0.83302 0.3353 0.6281 0 0 0 
0.83302 0.31967 0.66332 0 0 0 
0.87325 0.30842 0.65833 0 0 0 
0.8461 0.29244 0.45729 0 0 0 
0.84494 0.28919 0.44052 0 0 0 
0.88178 0.27609 0.44052 0 0 0 
0.88294 0.27934 0.45729 0 0 0 
0.76789 0.49458 0.4507 0 0 0 
0.72672 0.49842 0.44916 0 0 0 
0.72672 0.51956 0.50178 0 0 0 
0.76789 0.51572 0.50332 0 0 0 
0.75271 0.35774 0.59312 0 0 0 
0.73312 0.35535 0.59027 0 0 0 
0.73312 0.42154 0.53475 0 0 0 
0.75271 0.42393 0.5376 0 0 0 
0.74689 0.43529 0.47388 0 0 0 
0.73982 0.34492 0.47325 0 0 0 
0.73286 0.34492 0.55106 0 0 0 
0.73994 0.43529 0.55169 0 0 0 
0.76459 0.36188 0.49221 0 0 0 
0.77041 0.34848 0.42966 0 0 0 
0.73737 0.33411 0.42966 0 0 0 
0.73155 0.3475 0.49221 0 0 0 
0.7445 0.41522 0.60349 0 0 0 
0.75627 0.42764 0.53074 0 0 0 
0.73193 0.45071 0.53074 0 0 0 
0.72015 0.43829 0.60349 0 0 0 
0.7434 0.35258 0.37552 0 0 0 
0.75258 0.31846 0.37237 0 0 0 
0.76529 0.31846 0.4094 0 0 0 
0.75611 0.35258 0.41255 0 0 0 
0.76216 0.36794 0.60005 0 0 0 
0.76107 0.36862 0.55774 0 0 0 
0.73201 0.3215 0.55774 0 0 0 
0.7331 0.32082 0.60005 0 0 0 
0.76674 0.42674 0.42205 0 0 0 
0.73452 0.39265 0.33923 0 0 0 
0.75796 0.3705 0.33923 0 0 0 
0.79019 0.40459 0.42205 0 0 0 
0.7499 0.5141 0.61264 0 0 0 
0.7235 0.51128 0.60804 0 0 0 
0.7235 0.47437 0.63069 0 0 0 
0.7499 0.47719 0.63529 0 0 0 
0.74577 0.49572 0.66513 0 0 0 
0.74771 0.44912 0.66615 0 0 0 
0.72164 0.44912 0.71575 0 0 0 
0.71969 0.49572 0.71473 0 0 0 
0.09824 0.63565 0.31888 0 0 0 
0.10969 0.24925 0.31764 0 0 0 
0.15145 0.24925 0.70197 0 0 0 
0.14 0.63565 0.70321 0 0 0 
0.2602 0.46336 0.69666 0 0 0 
0.1452 0.46502 0.68759 0 0 0 
0.1452 0.34274 0.66521 0 0 0 
0.2602 0.34108 0.67427 0 0 0 
0.24066 0.51422 0.31129 0 0 0 
0.10609 0.51474 0.31453 0 0 0 
0.10609 0.42644 0.3288 0 0 0 
0.24066 0.42592 0.32556 0 0 0 
0.196 0.53129 0.68996 0 0 0 
0.12122 0.49588 0.65341 0 0 0 
0.12122 0.59075 0.56152 0 0 0 
0.196 0.62616 0.59807 0 0 0 
0.25998 0.62423 0.56969 0 0 0 
0.24772 0.58235 0.38881 0 0 0 
0.11806 0.62033 0.38881 0 0 0 
0.13032 0.6622 0.56969 0 0 0 
0.11655 0.41067 0.30906 0 0 0 
0.13983 0.3489 0.32899 0 0 0 
0.12779 0.3489 0.34306 0 0 0 
0.1045 0.41067 0.32313 0 0 0 
0.23597 0.35008 0.29895 0 0 0 
0.10576 0.36476 0.31086 0 0 0 
0.10576 0.26909 0.42885 0 0 0 
0.23597 0.25441 0.41694 0 0 0 
0.22775 0.30715 0.34566 0 0 0 
0.12701 0.34432 0.36951 0 0 0 
0.12701 0.24292 0.52754 0 0 0 
0.22775 0.20574 0.50369 0 0 0 
0.24928 0.25729 0.60139 0 0 0 
0.24611 0.24578 0.45461 0 0 0 
0.13474 0.27639 0.45461 0 0 0 
0.1379 0.2879 0.60139 0 0 0 
0.19859 0.55438 0.32461 0 0 0 
0.10658 0.53226 0.34799 0 0 0 
0.10658 0.61535 0.42661 0 0 0 
0.19859 0.63747 0.40323 0 0 0 
0.14772 0.38121 0.68434 0 0 0 
0.15652 0.37883 0.64758 0 0 0 
0.14512 0.33666 0.64758 0 0 0 
0.13631 0.33904 0.68434 0 0 0 
0.23943 0.28439 0.5712 0 0 0 
0.15029 0.26378 0.5892 0 0 0 
0.15029 0.3383 0.67456 0 0 0 
0.23943 0.35891 0.65656 0 0 0 
0.22204 0.62637 0.41414 0 0 0 
0.12101 0.59349 0.44009 0 0 0 
0.12101 0.49542 0.31587 0 0 0 
0.22204 0.52829 0.28991 0 0 0 
0.20167 0.51616 0.63458 0 0 0 
0.23449 0.4111 0.67284 0 0 0 
0.18563 0.4111 0.71474 0 0 0 
0.15282 0.51616 0.67648 0 0 0 
0.22325 0.60167 0.28858 0 0 0 
0.22638 0.46301 0.29076 0 0 0 
0.11839 0.46301 0.4453 0 0 0 
0.11527 0.60167 0.44312 0 0 0 
0.2553 0.31246 0.64554 0 0 0 
0.16588 0.31706 0.63711 0 0 0 
0.16588 0.40399 0.68457 0 0 0 
0.2553 0.39938 0.693 0 0 0 
0.20521 0.55195 0.65001 0 0 0 
0.15191 0.56821 0.65774 0 0 0 
0.15191 0.58935 0.61331 0 0 0 
0.20521 0.57309 0.60557 0 0 0 
0.19815 0.60724 0.56334 0 0 0 
0.15151 0.61732 0.56084 0 0 0 
0.15151 0.62094 0.57546 0 0 0 
0.19815 0.61085 0.57796 0 0 0 
0.26024 0.591 0.62658 0 0 0 
0.16249 0.59627 0.63987 0 0 0 
0.16249 0.46443 0.69226 0 0 0 
0.26024 0.45915 0.67897 0 0 0 
0.25312 0.26093 0.5355 0 0 0 
0.16307 0.27268 0.53202 0 0 0 
0.16307 0.30022 0.62522 0 0 0 
0.25312 0.28847 0.62869 0 0 0 
0.14735 0.45045 0.31989 0 0 0 
0.15443 0.34525 0.34177 0 0 0 
0.22471 0.34525 0.31906 0 0 0 
0.21764 0.45045 0.29717 0 0 0 
0.21968 0.57003 0.3613 0 0 0 
0.14072 0.5719 0.36125 0 0 0 
0.14072 0.57264 0.38679 0 0 0 
0.21968 0.57077 0.38685 0 0 0 
0.181 0.58699 0.59443 0 0 0 
0.1687 0.61938 0.48357 0 0 0 
0.2372 0.6454 0.48357 0 0 0 
0.2495 0.61301 0.59443 0 0 0 
0.27323 0.53985 0.65458 0 0 0 
0.29498 0.57003 0.50352 0 0 0 
0.19381 0.64296 0.50352 0 0 0 
0.17206 0.61279 0.65458 0 0 0 
0.24727 0.25841 0.53854 0 0 0 
0.24674 0.25432 0.45674 0 0 0 
0.1949 0.26098 0.45674 0 0 0 
0.19543 0.26507 0.53854 0 0 0 
0.28843 0.33466 0.45238 0 0 0 
0.24103 0.37047 0.33983 0 0 0 
0.17551 0.28375 0.33983 0 0 0 
0.2229 0.24794 0.45238 0 0 0 
0.2462 0.2553 0.6678 0 0 0 
0.25153 0.25507 0.51593 0 0 0 
0.25813 0.40833 0.51593 0 0 0 
0.2528 0.40856 0.6678 0 0 0 
0.27157 0.53692 0.64041 0 0 0 
0.26565 0.5319 0.56857 0 0 0 
0.23181 0.57178 0.56857 0 0 0 
0.23772 0.5768 0.64041 0 0 0 
0.27095 0.4198 0.68697 0 0 0 
0.27662 0.42147 0.63227 0 0 0 
0.25131 0.50698 0.63227 0 0 0 
0.24564 0.5053 0.68697 0 0 0 
0.26762 0.37447 0.55808 0 0 0 
0.23954 0.37181 0.55518 0 0 0 
0.23954 0.28308 0.63654 0 0 0 
0.26762 0.28575 0.63944 0 0 0 
0.21697 0.66018 0.44572 0 0 0 
0.2172 0.61733 0.44647 0 0 0 
0.24353 0.61733 0.43846 0 0 0 
0.2433 0.66018 0.43771 0 0 0 
0.27608 0.38312 0.67554 0 0 0 
0.24093 0.38363 0.67765 0 0 0 
0.24093 0.34738 0.68636 0 0 0 
0.27608 0.34687 0.68425 0 0 0 
0.12353 0.35104 0.55492 0 0 0 
0.1399 0.37161 0.4935 0 0 0 
0.12138 0.38635 0.4935 0 0 0 
0.10501 0.36578 0.55492 0 0 0 
0.13768 0.4848 0.56886 0 0 0 
0.14629 0.493 0.53228 0 0 0 
0.10699 0.53423 0.53228 0 0 0 
0.098389 0.52603 0.56886 0 0 0 
0.1352 0.47154 0.48136 0 0 0 
0.10879 0.46812 0.47295 0 0 0 
0.10879 0.51165 0.45524 0 0 0 
0.1352 0.51507 0.46364 0 0 0 
0.13673 0.4881 0.41228 0 0 0 
0.0098179 0.49345 0.40887 0 0 0 
0.0098179 0.55208 0.50086 0 0 0 
0.13673 0.54674 0.50427 0 0 0 
0.12002 0.54149 0.43231 0 0 0 
0.024742 0.53699 0.44173 0 0 0 
0.024742 0.44452 0.39748 0 0 0 
0.12002 0.44902 0.38806 0 0 0 
0.13898 0.32993 0.55914 0 0 0 
0.080814 0.33072 0.55937 0 0 0 
0.080814 0.35779 0.46778 0 0 0 
0.13898 0.357 0.46754 0 0 0 
0.13734 0.54337 0.51586 0 0 0 
0.043122 0.54226 0.51622 0 0 0 
0.043122 0.51479 0.43201 0 0 0 
0.13734 0.5159 0.43165 0 0 0 
0.12006 0.58242 0.45275 0 0 0 
0.13487 0.52715 0.46333 0 0 0 
0.091185 0.52715 0.52451 0 0 0 
0.076376 0.58242 0.51393 0 0 0 
0.13647 0.55229 0.53933 0 0 0 
0.038913 0.55578 0.54354 0 0 0 
0.038913 0.46272 0.62076 0 0 0 
0.13647 0.45923 0.61656 0 0 0 
0.14153 0.35774 0.48873 0 0 0 
0.11299 0.36921 0.49829 0 0 0 
0.11299 0.33068 0.54454 0 0 0 
0.14153 0.3192 0.53497 0 0 0 
0.1176 0.54026 0.58585 0 0 0 
0.11876 0.5325 0.51771 0 0 0 
0.036957 0.52024 0.51771 0 0 0 
0.035793 0.52799 0.58585 0 0 0 
0.133 0.38712 0.44644 0 0 0 
0.033904 0.37811 0.43674 0 0 0 
0.033904 0.43088 0.38772 0 0 0 
0.133 0.43988 0.39742 0 0 0 
0.11248 0.3792 0.5455 0 0 0 
0.091421 0.37097 0.44921 0 0 0 
0.10288 0.34163 0.44921 0 0 0 
0.12394 0.34986 0.5455 0 0 0 
0.26292 0.46088 0.56296 0 0 0 
0.23769 0.46847 0.57382 0 0 0 
0.23769 0.48918 0.55933 0 0 0 
0.26292 0.48159 0.54847 0 0 0 
0.25853 0.52777 0.45241 0 0 0 
0.25459 0.47152 0.46431 0 0 0 
0.22757 0.47152 0.45536 0 0 0 
0.23151 0.52777 0.44346 0 0 0 
0.25754 0.49805 0.50117 0 0 0 
0.26013 0.50519 0.46132 0 0 0 
0.23717 0.51351 0.46132 0 0 0 
0.23458 0.50637 0.50117 0 0 0 
0.26192 0.45204 0.47304 0 0 0 
0.26059 0.41957 0.4719 0 0 0 
0.22879 0.41957 0.50882 0 0 0 
0.23011 0.45204 0.50997 0 0 0 
0.27284 0.29593 0.50944 0 0 0 
0.25821 0.27823 0.43231 0 0 0 
0.22344 0.30699 0.43231 0 0 0 
0.23807 0.32468 0.50944 0 0 0 
0.24039 0.32991 0.43109 0 0 0 
0.23202 0.33473 0.40331 0 0 0 
0.21728 0.30913 0.40331 0 0 0 
0.22565 0.30431 0.43109 0 0 0 
0.029775 0.53773 0.60271 0 0 0 
0.028103 0.37128 0.60276 0 0 0 
0.022534 0.37128 0.42037 0 0 0 
0.024206 0.53773 0.42032 0 0 0 
0.1111 0.39019 0.6113 0 0 0 
0.023182 0.40505 0.5971 0 0 0 
0.023182 0.33519 0.52407 0 0 0 
0.1111 0.32034 0.53828 0 0 0 
0.051175 0.32104 0.53506 0 0 0 
0.065511 0.34359 0.44069 0 0 0 
0.023184 0.3705 0.44069 0 0 0 
0.0088481 0.34795 0.53506 0 0 0 
0.089426 0.36876 0.48562 0 0 0 
0.075143 0.32728 0.50466 0 0 0 
0.022442 0.32728 0.46511 0 0 0 
0.036725 0.36876 0.44608 0 0 0 
0.024229 0.47808 0.41062 0 0 0 
0.025971 0.38262 0.41621 0 0 0 
0.09833 0.38262 0.39366 0 0 0 
0.096587 0.47808 0.38807 0 0 0 
0.041711 0.48911 0.48196 0 0 0 
0.030824 0.37791 0.48317 0 0 0 
0.023049 0.37791 0.4131 0 0 0 
0.033936 0.48911 0.41189 0 0 0 
0.062492 0.38094 0.43149 0 0 0 
0.023232 0.38525 0.4368 0 0 0 
0.023232 0.35412 0.46204 0 0 0 
0.062492 0.34982 0.45673 0 0 0 
0.027722 0.37433 0.58305 0 0 0 
0.022279 0.37039 0.47936 0 0 0 
0.048949 0.33359 0.47936 0 0 0 
0.054392 0.33753 0.58305 0 0 0 
0.082201 0.50839 0.58657 0 0 0 
0.0099386 0.50657 0.57857 0 0 0 
0.0099387 0.3966 0.60355 0 0 0 
0.082201 0.39842 0.61156 0 0 0 
0.032078 0.44893 0.58827 0 0 0 
0.036977 0.37525 0.57106 0 0 0 
0.11544 0.37525 0.59339 0 0 0 
0.11054 0.44893 0.6106 0 0 0 
0.067571 0.38492 0.59387 0 0 0 
0.015226 0.38523 0.59411 0 0 0 
0.015226 0.4182 0.55163 0 0 0 
0.067571 0.41789 0.55139 0 0 0 
0.038083 0.46082 0.49549 0 0 0 
0.014843 0.46664 0.49172 0 0 0 
0.014843 0.44399 0.45676 0 0 0 
0.038083 0.43817 0.46053 0 0 0 
0.86518 0.45131 0.41489 0 0 0 
0.86989 0.38911 0.43108 0 0 0 
0.92503 0.38911 0.41505 0 0 0 
0.92032 0.45131 0.39887 0 0 0 
0.91802 0.34156 0.47337 0 0 0 
0.86182 0.3392 0.46509 0 0 0 
0.86182 0.3723 0.45566 0 0 0 
0.91802 0.37466 0.46394 0 0 0 
0.95518 0.38756 0.58462 0 0 0 
0.88182 0.37879 0.59104 0 0 0 
0.88182 0.32617 0.51925 0 0 0 
0.95518 0.33493 0.51283 0 0 0 
0.94369 0.48021 0.62167 0 0 0 
0.85089 0.48704 0.5982 0 0 0 
0.85089 0.38481 0.56847 0 0 0 
0.94369 0.37799 0.59193 0 0 0 
0.89586 0.38217 0.60646 0 0 0 
0.89574 0.38212 0.56393 0 0 0 
0.87322 0.43474 0.56393 0 0 0 
0.87335 0.43479 0.60646 0 0 0 
0.94877 0.45572 0.59024 0 0 0 
0.86807 0.46862 0.60958 0 0 0 
0.86807 0.56973 0.54215 0 0 0 
0.94877 0.55683 0.52281 0 0 0 
0.87457 0.53683 0.59502 0 0 0 
0.8729 0.51855 0.59561 0 0 0 
0.85711 0.51855 0.55097 0 0 0 
0.85879 0.53683 0.55038 0 0 0 
0.94307 0.49391 0.41548 0 0 0 
0.86044 0.48939 0.41874 0 0 0 
0.86044 0.55272 0.50646 0 0 0 
0.94307 0.55724 0.5032 0 0 0 
0.97183 0.43101 0.40445 0 0 0 
0.89252 0.43137 0.40242 0 0 0 
0.89252 0.51539 0.41746 0 0 0 
0.97183 0.51503 0.41948 0 0 0 
0.97092 0.56068 0.43071 0 0 0 
0.94046 0.4666 0.38749 0 0 0 
0.84466 0.4666 0.45502 0 0 0 
0.87513 0.56068 0.49824 0 0 0 
0.87349 0.40361 0.61957 0 0 0 
0.87489 0.40394 0.53036 0 0 0 
0.8543 0.49036 0.53036 0 0 0 
0.8529 0.49003 0.61957 0 0 0 
0.9573 0.56608 0.53438 0 0 0 
0.84868 0.5365 0.54622 0 0 0 
0.84868 0.50704 0.47267 0 0 0 
0.9573 0.53662 0.46082 0 0 0 
0.96817 0.35251 0.47092 0 0 0 
0.89594 0.34473 0.46077 0 0 0 
0.89594 0.41189 0.40927 0 0 0 
0.96817 0.41967 0.41943 0 0 0 
0.96131 0.35136 0.5454 0 0 0 
0.88858 0.34636 0.54578 0 0 0 
0.88858 0.33826 0.44077 0 0 0 
0.96131 0.34325 0.44039 0 0 0 
0.88025 0.36656 0.52588 0 0 0 
0.86487 0.36725 0.52816 0 0 0 
0.86487 0.33993 0.53646 0 0 0 
0.88025 0.33923 0.53418 0 0 0 
0.89401 0.47656 0.56919 0 0 0 
0.89639 0.37014 0.56482 0 0 0 
0.95998 0.37014 0.59952 0 0 0 
0.95759 0.47656 0.60389 0 0 0 
0.9538 0.53515 0.51809 0 0 0 
0.965 0.49098 0.53053 0 0 0 
0.92881 0.49098 0.56313 0 0 0 
0.91761 0.53515 0.55069 0 0 0 
0.96109 0.54139 0.60198 0 0 0 
0.95394 0.33515 0.60117 0 0 0 
0.97637 0.33515 0.40493 0 0 0 
0.98352 0.54139 0.40575 0 0 0 
0.97928 0.43617 0.5259 0 0 0 
0.97892 0.3325 0.52601 0 0 0 
0.93986 0.3325 0.39584 0 0 0 
0.94023 0.43617 0.39573 0 0 0 
0.97223 0.3609 0.54428 0 0 0 
0.94042 0.37232 0.55487 0 0 0 
0.94042 0.38681 0.53923 0 0 0 
0.97223 0.3754 0.52865 0 0 0 
0.96797 0.47008 0.58992 0 0 0 
0.96884 0.43969 0.59171 0 0 0 
0.94379 0.43969 0.60378 0 0 0 
0.94292 0.47008 0.60199 0 0 0 
0.85204 0.45841 0.5061 0 0 0 
0.84593 0.44663 0.46181 0 0 0 
0.86742 0.43548 0.46181 0 0 0 
0.87353 0.44726 0.5061 0 0 0 
0.99088 0.48295 0.44542 0 0 0 
0.95817 0.48219 0.45022 0 0 0 
0.95817 0.46355 0.44726 0 0 0 
0.99088 0.46432 0.44247 0 0 0 
0.61349 0.52388 0.96664 0 0 0 
0.41567 0.52485 0.97545 0 0 0 
0.41567 0.35438 0.9942 0 0 0 
0.61349 0.35341 0.98539 0 0 0 
0.57954 0.4823 0.93012 0 0 0 
0.57849 0.38322 0.9307 0 0 0 
0.60564 0.38322 0.98068 0 0 0 
0.6067 0.4823 0.9801 0 0 0 
0.54714 0.3513 0.99484 0 0 0 
0.54506 0.36192 0.89811 0 0 0 
0.46013 0.34526 0.89811 0 0 0 
0.46221 0.33465 0.99484 0 0 0 
0.56446 0.34755 0.95709 0 0 0 
0.57854 0.3427 0.89185 0 0 0 
0.61093 0.43663 0.89185 0 0 0 
0.59685 0.44149 0.95709 0 0 0 
0.58564 0.36372 0.94799 0 0 0 
0.547 0.3573 0.9621 0 0 0 
0.547 0.40236 0.98258 0 0 0 
0.58564 0.40878 0.96847 0 0 0 
0.51474 0.56247 0.95782 0 0 0 
0.51664 0.56439 0.88443 0 0 0 
0.55856 0.52294 0.88443 0 0 0 
0.55665 0.52102 0.95782 0 0 0 
0.39771 0.47158 0.98542 0 0 0 
0.39335 0.47623 0.94299 0 0 0 
0.48027 0.55781 0.94299 0 0 0 
0.48462 0.55317 0.98542 0 0 0 
0.40507 0.47078 0.98102 0 0 0 
0.41869 0.38707 0.96992 0 0 0 
0.39318 0.38707 0.93861 0 0 0 
0.37956 0.47078 0.94971 0 0 0 
0.42403 0.37122 0.96335 0 0 0 
0.42863 0.37338 0.89327 0 0 0 
0.39774 0.43944 0.89327 0 0 0 
0.39314 0.43728 0.96335 0 0 0 
0.57233 0.47509 1.0002 0 0 0 
0.57015 0.36957 0.99967 0 0 0 
0.5995 0.36957 0.86713 0 0 0 
0.60168 0.47509 0.86761 0 0 0 
0.57775 0.4918 0.94014 0 0 0 
0.48613 0.51816 0.96256 0 0 0 
0.48613 0.55416 0.92024 0 0 0 
0.57775 0.5278 0.89782 0 0 0 
0.53285 0.63656 0.84715 0 0 0 
0.55114 0.46705 0.83869 0 0 0 
0.60402 0.46705 0.95295 0 0 0 
0.58573 0.63656 0.96142 0 0 0 
0.46455 0.51461 0.95452 0 0 0 
0.46517 0.51449 0.9189 0 0 0 
0.47229 0.54971 0.9189 0 0 0 
0.47167 0.54983 0.95452 0 0 0 
0.40821 0.48346 0.94494 0 0 0 
0.39493 0.38367 0.94191 0 0 0 
0.40871 0.38367 0.88148 0 0 0 
0.422 0.48346 0.88451 0 0 0 
0.47694 0.35247 0.93853 0 0 0 
0.46782 0.33471 0.8834 0 0 0 
0.39296 0.37314 0.8834 0 0 0 
0.40208 0.3909 0.93853 0 0 0 
0.48739 0.55781 0.93172 0 0 0 
0.47656 0.56723 0.85683 0 0 0 
0.39319 0.47138 0.85683 0 0 0 
0.40403 0.46195 0.93172 0 0 0 
0.5837 0.38671 0.8919 0 0 0 
0.50828 0.35937 0.8702 0 0 0 
0.50828 0.32724 0.91068 0 0 0 
0.5837 0.35459 0.93238 0 0 0 
0.53607 0.53097 0.89634 0 0 0 
0.48864 0.52896 0.89592 0 0 0 
0.48864 0.53383 0.87284 0 0 0 
0.53607 0.53584 0.87327 0 0 0 
0.50768 0.35011 0.91742 0 0 0 
0.5129 0.24046 0.91288 0 0 0 
0.48009 0.24046 0.87517 0 0 0 
0.47487 0.35011 0.87972 0 0 0 
0.70092 0.23787 0.87903 0 0 0 
0.31253 0.24057 0.90559 0 0 0 
0.31253 0.65266 0.86374 0 0 0 
0.70092 0.64996 0.83717 0 0 0 
0.4404 0.52651 0.88813 0 0 0 
0.4411 0.52258 0.85402 0 0 0 
0.5089 0.53457 0.85402 0 0 0 
0.50821 0.53851 0.88813 0 0 0 
0.6879 0.46312 0.85558 0 0 0 
0.5171 0.49635 0.90611 0 0 0 
0.5171 0.56862 0.85857 0 0 0 
0.6879 0.53538 0.80804 0 0 0 
0.66423 0.37549 0.89987 0 0 0 
0.56223 0.38316 0.89873 0 0 0 
0.56223 0.37849 0.86746 0 0 0 
0.66423 0.37083 0.8686 0 0 0 
0.43628 0.47378 0.98641 0 0 0 
0.44453 0.44165 0.98983 0 0 0 
0.45483 0.44165 0.96498 0 0 0 
0.44658 0.47378 0.96155 0 0 0 
0.48622 0.51102 0.98643 0 0 0 
0.49361 0.50048 0.95633 0 0 0 
0.42716 0.45389 0.95633 0 0 0 
0.41977 0.46443 0.98643 0 0 0 
0.52471 0.23731 0.89767 0 0 0 
0.52828 0.23499 0.82576 0 0 0 
0.59283 0.33476 0.82576 0 0 0 
0.58926 0.33708 0.89767 0 0 0 
0.47634 0.38182 0.89642 0 0 0 
0.47026 0.38356 0.86761 0 0 0 
0.48727 0.44285 0.86761 0 0 0 
0.49335 0.4411 0.89642 0 0 0 
0.49003 0.65409 0.8208 0 0 0 
0.44818 0.64036 0.8052 0 0 0 
0.44818 0.59214 0.84763 0 0 0 
0.49003 0.60587 0.86324 0 0 0 
0.46145 0.35931 0.90517 0 0 0 
0.46189 0.35896 0.87495 0 0 0 
0.44759 0.34038 0.87495 0 0 0 
0.44715 0.34072 0.90517 0 0 0 
0.38896 0.39987 0.87982 0 0 0 
0.32484 0.40645 0.87505 0 0 0 
0.32484 0.38376 0.84372 0 0 0 
0.38896 0.37718 0.84849 0 0 0 
0.51959 0.63856 0.84433 0 0 0 
0.46928 0.6425 0.84998 0 0 0 
0.46928 0.62404 0.86284 0 0 0 
0.51959 0.6201 0.85719 0 0 0 
0.67181 0.43169 0.88511 0 0 0 
0.63025 0.42368 0.87982 0 0 0 
0.63025 0.4354 0.86206 0 0 0 
0.67181 0.44342 0.86735 0 0 0 
0.65665 0.63456 0.14067 0 0 0 
0.65591 0.25645 0.15401 0 0 0 
0.29167 0.25645 0.13386 0 0 0 
0.29241 0.63456 0.12052 0 0 0 
0.63111 0.48381 0.048938 0 0 0 
0.58413 0.34786 0.028033 0 0 0 
0.54643 0.34786 0.11278 0 0 0 
0.5934 0.48381 0.13368 0 0 0 
0.54148 0.53687 0.13106 0 0 0 
0.57097 0.45048 0.1462 0 0 0 
0.61931 0.45048 0.052018 0 0 0 
0.58981 0.53687 0.036881 0 0 0 
0.58584 0.50486 0.13132 0 0 0 
0.591 0.51413 0.051083 0 0 0 
0.52679 0.54989 0.051083 0 0 0 
0.52163 0.54062 0.13132 0 0 0 
0.46897 0.32477 0.11778 0 0 0 
0.4612 0.34769 0.039626 0 0 0 
0.5507 0.37802 0.039626 0 0 0 
0.55847 0.3551 0.11778 0 0 0 
0.54412 0.51878 0.1273 0 0 0 
0.55349 0.54401 0.032341 0 0 0 
0.47183 0.57434 0.032341 0 0 0 
0.46246 0.54911 0.12729 0 0 0 
0.39236 0.50839 0.12699 0 0 0 
0.39766 0.49928 0.025958 0 0 0 
0.47845 0.54633 0.025958 0 0 0 
0.47314 0.55544 0.12699 0 0 0 
0.39945 0.40791 0.1469 0 0 0 
0.3985 0.40797 0.044736 0 0 0 
0.40453 0.49882 0.044736 0 0 0 
0.40547 0.49876 0.1469 0 0 0 
0.51039 0.34189 0.12192 0 0 0 
0.50876 0.33841 0.026417 0 0 0 
0.40354 0.38751 0.026417 0 0 0 
0.40517 0.391 0.12192 0 0 0 
0.43695 0.37214 0.11783 0 0 0 
0.44536 0.38531 0.061497 0 0 0 
0.40824 0.40902 0.061497 0 0 0 
0.39983 0.39584 0.11783 0 0 0 
0.57253 0.51734 0.092689 0 0 0 
0.4806 0.53523 0.098084 0 0 0 
0.4806 0.5217 0.14296 0 0 0 
0.57253 0.50381 0.13757 0 0 0 
0.46052 0.34647 0.10748 0 0 0 
0.44745 0.33968 0.051792 0 0 0 
0.41906 0.39437 0.051792 0 0 0 
0.43212 0.40115 0.10748 0 0 0 
0.45275 0.50982 0.10554 0 0 0 
0.40791 0.50035 0.10199 0 0 0 
0.40791 0.51106 0.073422 0 0 0 
0.45275 0.52053 0.076976 0 0 0 
0.39888 0.43962 0.11147 0 0 0 
0.39577 0.43826 0.059176 0 0 0 
0.42523 0.37099 0.059176 0 0 0 
0.42833 0.37235 0.11147 0 0 0 
0.60795 0.47662 0.042744 0 0 0 
0.60769 0.39705 0.043694 0 0 0 
0.56006 0.39705 0.030338 0 0 0 
0.56032 0.47662 0.029387 0 0 0 
0.61601 0.43933 0.066744 0 0 0 
0.46311 0.45393 0.075571 0 0 0 
0.46311 0.49336 0.010361 0 0 0 
0.61601 0.47876 0.001534 0 0 0 
0.38627 0.55014 0.031932 0 0 0 
0.38632 0.33482 0.032905 0 0 0 
0.60289 0.33482 0.02084 0 0 0 
0.60283 0.55014 0.019867 0 0 0 
0.69389 0.48758 0.23983 0 0 0 
0.6758 0.47736 0.11785 0 0 0 
0.70487 0.42588 0.11785 0 0 0 
0.72297 0.43609 0.23983 0 0 0 
0.69058 0.36174 0.14388 0 0 0 
0.48221 0.36096 0.1377 0 0 0 
0.48221 0.51498 0.11816 0 0 0 
0.69058 0.51576 0.12434 0 0 0 
0.63383 0.53574 0.23423 0 0 0 
0.62673 0.52919 0.10416 0 0 0 
0.5045 0.6617 0.10416 0 0 0 
0.5116 0.66825 0.23423 0 0 0 
0.53237 0.60641 0.13333 0 0 0 
0.48223 0.60605 0.13522 0 0 0 
0.48223 0.66498 0.14658 0 0 0 
0.53237 0.66535 0.14469 0 0 0 
0.36534 0.48924 0.12778 0 0 0 
0.36875 0.45031 0.13151 0 0 0 
0.38031 0.45031 0.12098 0 0 0 
0.3769 0.48924 0.11725 0 0 0 
0.57072 0.58909 0.12978 0 0 0 
0.57638 0.52787 0.12809 0 0 0 
0.58548 0.52787 0.15847 0 0 0 
0.57982 0.58909 0.16017 0 0 0 
0.70407 0.4511 0.13769 0 0 0 
0.70549 0.44934 0.11514 0 0 0 
0.6894 0.43632 0.11514 0 0 0 
0.68798 0.43808 0.13769 0 0 0 
0.46997 0.26408 0.18397 0 0 0 
0.46331 0.22489 0.177 0 0 0 
0.52169 0.22489 0.12121 0 0 0 
0.52835 0.26408 0.12818 0 0 0 
0.53322 0.85716 0.48822 0 0 0 
0.4873 0.8394 0.46606 0 0 0 
0.4873 0.8087 0.49064 0 0 0 
0.53322 0.82646 0.51281 0 0 0 
0.51012 0.020515 0.51978 0 0 0 
0.4348 0.050948 0.48594 0 0 0 
0.4348 0.18649 0.60785 0 0 0 
0.51012 0.15605 0.64168 0 0 0 
0.50384 0.012472 0.53606 0 0 0 
0.49302 0.017487 0.4752 0 0 0 
0.51963 0.074895 0.4752 0 0 0 
0.53045 0.06988 0.53606 0 0 0 
0.39033 0.20143 0.63027 0 0 0 
0.37309 0.17611 0.5224 0 0 0 
0.49273 0.094676 0.5224 0 0 0 
0.50997 0.12 0.63027 0 0 0 
0.45077 0.81125 0.48474 0 0 0 
0.43465 0.8055 0.47801 0 0 0 
0.43465 0.78202 0.49807 0 0 0 
0.45077 0.78777 0.5048 0 0 0 
0.49093 0.045318 0.53014 0 0 0 
0.4514 0.037512 0.5215 0 0 0 
0.4514 0.072024 0.4903 0 0 0 
0.49093 0.079831 0.49894 0 0 0 
4 0 1 2 3
4 4 5 6 7
4 8 9 10 11
4 12 13 14 15
4 16 17 18 19
4 20 21 22 23
4 24 25 26 27
4 28 29 30 31
4 32 33 34 35
4 36 37 38 39
4 40 41 42 43
4 44 45 46 47
4 48 49 50 51
4 52 53 54 55
4 56 57 58 59
4 60 61 62 63
4 64 65 66 67
4 68 69 70 71
4 72 73 74 75
4 76 77 78 79
4 80 81 82 83
4 84 85 86 87
4 88 89 90 91
4 92 93 94 95
4 96 97 98 99
4 100 101 102 103
4 104 105 106 107
4 108 109 110 111
4 112 113 114 115
4 116 117 118 119
4 120 121 122 123
4 124 125 126 127
4 128 129 130 131
4 132 133 134 135
4 136 137 138 139
4 140 141 142 143
4 144 145 146 147
4 148 149 150 151
4 152 153 154 155
4 156 157 158 159
4 160 161 162 163
4 164 165 166 167
4 168 169 170 171
4 172 173 174 175
4 176 177 178 179
4 180 181 182 183
4 184 185 186 187
4 188 189 190 191
4 192 193 194 195
4 196 197 198 199
4 200 201 202 203
4 204 205 206 207
4 208 209 210 211
4 212 213 214 215
4 216 217 218 219
4 220 221 222 223
4 224 225 226 227
4 228 229 230 231
4 232 233 234 235
4 236 237 238 239
4 240 241 242 243
4 244 245 246 247
4 248 249 250 251
4 252 253 254 255
4 256 257 258 259
4 260 261 262 263
4 264 265 266 267
4 268 269 270 271
4 272 273 274 275
4 276 277 278 279
4 280 281 282 283
4 284 285 286 287
4 288 289 290 291
4 292 293 294 295
4 296 297 298 299
4 300 301 302 303
4 304 305 306 307
4 308 309 310 311
4 312 313 314 315
4 316 317 318 319
4 320 321 322 323
4 324 325 326 327
4 328 329 330 331
4 332 333 334 335
4 336 337 338 339
4 340 341 342 343
4 344 345 346 347
4 348 349 350 351
4 352 353 354 355
4 356 357 358 359
4 360 361 362 363
4 364 365 366 367
4 368 369 370 371
4 372 373 374 375
4 376 377 378 379
4 380 381 382 383
4 384 385 386 387
4 388 389 390 391
4 392 393 394 395
4 396 397 398 399
4 400 401 402 403
4 404 405 406 407
4 408 409 410 411
4 412 413 414 415
4 416 417 418 419
4 420 421 422 423
4 424 425 426 427
4 428 429 430 431
4 432 433 434 435
4 436 437 438 439
4 440 441 442 443
4 444 445 446 447
4 448 449 450 451
4 452 453 454 455
4 456 457 458 459
4 460 461 462 463
4 464 465 466 467
4 468 469 470 471
4 472 473 474 475
4 476 477 478 479
4 480 481 482 483
4 484 485 486 487
4 488 489 490 491
4 492 493 494 495
4 496 497 498 499
4 500 501 502 503
4 504 505 506 507
4 508 509 510 511
4 512 513 514 515
4 516 517 518 519
4 520 521 522 523
4 524 525 526 527
4 528 529 530 531
4 532 533 534 535
4 536 537 538 539
4 540 541 542 543
4 544 545 546 547
4 548 549 550 551
4 552 553 554 555
4 556 557 558 559
4 560 561 562 563
4 564 565 566 567
4 568 569 570 571
4 572 573 574 575
4 576 577 578 579
4 580 581 582 583
4 584 585 586 587
4 588 589 590 591
4 592 593 594 595
4 596 597 598 599
4 600 601 602 603
4 604 605 606 607
4 608 609 610 611
4 612 613 614 615
4 616 617 618 619
4 620 621 622 623
4 624 625 626 627
4 628 629 630 631
4 632 633 634 635
4 636 637 638 639
4 640 641 642 643
4 644 645 646 647
4 648 649 650 651
4 652 653 654 655
4 656 657 658 659
4 660 661 662 663
4 664 665 666 667
4 668 669 670 671
4 672 673 674 675
4 676 677 678 679
4 680 681 682 683
4 684 685 686 687
4 688 689 690 691
4 692 693 694 695
4 696 697 698 699
4 700 701 702 703
4 704 705 706 707
4 708 709 710 711
4 712 713 714 715
4 716 717 718 719
4 720 721 722 723
4 724 725 726 727
4 728 729 730 731
4 732 733 734 735
4 736 737 738 739
4 740 741 742 743
4 744 745 746 747
4 748 749 750 751
4 752 753 754 755
4 756 757 758 759
4 760 761 762 763
4 764 765 766 767
4 768 769 770 771
4 772 773 774 775
4 776 777 778 779
4 780 781 782 783
4 784 785 786 787
4 788 789 790 791
4 792 793 794 795
4 796 797 798 799
4 800 801 802 803
4 804 805 806 807
4 808 809 810 811
4 812 813 814 815
4 816 817 818 819
4 820 821 822 823
4 824 825 826 827
4 828 829 830 831
4 832 833 834 835
4 836 837 838 839
4 840 841 842 843
4 844 845 846 847
4 848 849 850 851
4 852 853 854 855
4 856 857 858 859
4 860 861 862 863
4 864 865 866 867
4 868 869 870 871
4 872 873 874 875
4 876 877 878 879
4 880 881 882 883
4 884 885 886 887
4 888 889 890 891
4 892 893 894 895
4 896 897 898 899
4 900 901 902 903
4 904 905 906 907
4 908 909 910 911
4 912 913 914 915
4 916 917 918 919
4 920 921 922 923
4 924 925 926 927
4 928 929 930 931
4 932 933 934 935
4 936 937 938 939
4 940 941 942 943
4 944 945 946 947
4 948 949 950 951
4 952 953 954 955
4 956 957 958 959
4 960 961 962 963
4 964 965 966 967
4 968 969 970 971
4 972 973 974 975
4 976 977 978 979
4 980 981 982 983
4 984 985 986 987
4 988 989 990 991
4 992 993 994 995
4 996 997 998 999
4 1000 1001 1002 1003
4 1004 1005 1006 1007
4 1008 1009 1010 1011
4 1012 1013 1014 1015
4 1016 1017 1018 1019
4 1020 1021 1022 1023
4 1024 1025 1026 1027
4 1028 1029 1030 1031
4 1032 1033 1034 1035
4 1036 1037 1038 1039
4 1040 1041 1042 1043
4 1044 1045 1046 1047
4 1048 1049 1050 1051
4 1052 1053 1054 1055
4 1056 1057 1058 1059
4 1060 1061 1062 1063
4 1064 1065 1066 1067
4 1068 1069 1070 1071
4 1072 1073 1074 1075
