ply
format ascii 1.0
comment Generated by InputGen
element vertex 690
property float x
property float y
property float z
property float nx
property float ny
property float nz
end_header
0.504545 -0.00456039 0 0 0 0
0.494545 0.00490374 0 0 0 0
0.514545 -0.00654913 0 0 0 0
0.484545 0.00348637 0 0 0 0
0.524545 -0.00319246 0 0 0 0
0.474545 -0.00522813 0 0 0 0
0.534545 0.00358813 0 0 0 0
0.464545 0.00621965 0 0 0 0
0.544545 -0.00353929 0 0 0 0
0.454545 -0.00157641 0 0 0 0
0.554545 -0.00416756 0 0 0 0
0.444545 0.00702444 0 0 0 0
0.564545 0.00318181 0 0 0 0
0.434545 0.00550431 0 0 0 0
0.574545 0.00204005 0 0 0 0
0.424545 -0.00539374 0 0 0 0
0.584545 -0.00386738 0 0 0 0
0.414545 -0.000437572 0 0 0 0
0.594545 0.000884634 0 0 0 0
0.404545 0.00237423 0 0 0 0
0.604545 -0.00100599 0 0 0 0
0.394545 0.000599486 0 0 0 0
0.614545 -0.00472122 0 0 0 0
0.384545 0.00531693 0 0 0 0
0.624545 0.00086979 0 0 0 0
0.374545 -0.00330555 0 0 0 0
0.634545 -0.00511584 0 0 0 0
0.364545 0.00329267 0 0 0 0
0.644545 -0.00421139 0 0 0 0
0.354545 0.00457609 0 0 0 0
0.654545 0.00758052 0 0 0 0
0.344545 0.00745891 0 0 0 0
0.664545 0.00625528 0 0 0 0
0.334545 -0.0037199 0 0 0 0
0.674545 -0.00216226 0 0 0 0
0.324545 -0.00667749 0 0 0 0
0.684545 -0.00630407 0 0 0 0
0.314545 1.51834e-05 0 0 0 0
0.694545 -0.00554733 0 0 0 0
0.304545 0.00404572 0 0 0 0
0.704545 -0.00421052 0 0 0 0
0.294545 -0.00142643 0 0 0 0
0.714545 -0.000446905 0 0 0 0
0.284545 0.00337578 0 0 0 0
0.724545 0.00799627 0 0 0 0
0.274545 0.0033793 0 0 0 0
0.734545 0.00305055 0 0 0 0
0.264545 0.00623995 0 0 0 0
0.744545 -0.00727524 0 0 0 0
0.254545 0.00331681 0 0 0 0
0.754545 0.0053111 0 0 0 0
0.244545 -0.00515655 0 0 0 0
0.764545 -0.00716802 0 0 0 0
0.234545 -0.00306422 0 0 0 0
0.774545 -0.00662224 0 0 0 0
0.224545 0.00406058 0 0 0 0
0.784545 -0.00423039 0 0 0 0
0.214545 0.00585998 0 0 0 0
0.794545 0.000701525 0 0 0 0
0.204545 -0.00619336 0 0 0 0
0.804545 0.000175485 0 0 0 0
0.194545 0.00619542 0 0 0 0
0.814545 0.00644844 0 0 0 0
0.184545 0.00764881 0 0 0 0
0.824545 0.00645173 0 0 0 0
0.174545 -0.00766243 0 0 0 0
0.834545 0.00709976 0 0 0 0
0.164545 0.0069133 0 0 0 0
0.844545 0.00184291 0 0 0 0
0.154545 -0.00748854 0 0 0 0
0.854545 0.00271265 0 0 0 0
0.144545 0.00694062 0 0 0 0
0.864545 -0.00612975 0 0 0 0
0.134545 0.00786839 0 0 0 0
0.874545 -0.00278601 0 0 0 0
0.124545 0.00314605 0 0 0 0
0.884545 0.00295734 0 0 0 0
0.114545 -0.00125529 0 0 0 0
0.894545 -0.000549207 0 0 0 0
0.104545 -0.00692824 0 0 0 0
0.904545 -0.00235868 0 0 0 0
0.094545 0.00245891 0 0 0 0
0.914545 0.00122373 0 0 0 0
0.084545 -0.00648288 0 0 0 0
0.924545 -0.00623636 0 0 0 0
0.074545 -0.00519408 0 0 0 0
0.934545 0.0038014 0 0 0 0
0.064545 0.00470275 0 0 0 0
0.944545 -0.000589176 0 0 0 0
0.054545 0.00132109 0 0 0 0
0.954545 0.00241203 0 0 0 0
0.044545 -0.00375086 0 0 0 0
0.964545 0.00789341 0 0 0 0
0.034545 0.00131375 0 0 0 0
0.974545 -0.00764129 0 0 0 0
0.024545 0.00631595 0 0 0 0
0.984545 -0.00566078 0 0 0 0
0.014545 -0.00141898 0 0 0 0
0.994545 0.005448 0 0 0 0
1.00328 0.5 0 0 0 0
0.993317 0.49 0 0 0 0
1.00163 0.51 0 0 0 0
0.995694 0.48 0 0 0 0
0.993567 0.52 0 0 0 0
1.00375 0.47 0 0 0 0
1.00539 0.53 0 0 0 0
1.00343 0.46 0 0 0 0
1.00798 0.54 0 0 0 0
1.00005 0.45 0 0 0 0
0.995326 0.55 0 0 0 0
1.00341 0.44 0 0 0 0
0.997376 0.56 0 0 0 0
1.00358 0.43 0 0 0 0
1.00113 0.57 0 0 0 0
0.99316 0.42 0 0 0 0
0.993114 0.58 0 0 0 0
0.999884 0.41 0 0 0 0
1.0064 0.59 0 0 0 0
0.995001 0.4 0 0 0 0
1.00531 0.6 0 0 0 0
1.00726 0.39 0 0 0 0
1.00002 0.61 0 0 0 0
0.995229 0.38 0 0 0 0
1.00699 0.62 0 0 0 0
0.997949 0.37 0 0 0 0
1.00599 0.63 0 0 0 0
1.00256 0.36 0 0 0 0
0.995755 0.64 0 0 0 0
1.0044 0.35 0 0 0 0
0.994438 0.65 0 0 0 0
1.00635 0.34 0 0 0 0
1.00174 0.66 0 0 0 0
0.994946 0.33 0 0 0 0
0.997817 0.67 0 0 0 0
1.00393 0.32 0 0 0 0
1.0072 0.68 0 0 0 0
0.998101 0.31 0 0 0 0
0.99326 0.69 0 0 0 0
1.00561 0.3 0 0 0 0
1.00056 0.7 0 0 0 0
1.00383 0.29 0 0 0 0
0.997161 0.71 0 0 0 0
1.00344 0.28 0 0 0 0
1.00363 0.72 0 0 0 0
0.996399 0.27 0 0 0 0
1.00195 0.73 0 0 0 0
1.00427 0.26 0 0 0 0
1.00218 0.74 0 0 0 0
0.996161 0.25 0 0 0 0
0.992028 0.75 0 0 0 0
0.996216 0.24 0 0 0 0
0.998551 0.76 0 0 0 0
0.996407 0.23 0 0 0 0
0.998091 0.77 0 0 0 0
0.999776 0.22 0 0 0 0
0.99609 0.78 0 0 0 0
1.00678 0.21 0 0 0 0
1.00134 0.79 0 0 0 0
0.9946 0.2 0 0 0 0
0.993878 0.8 0 0 0 0
0.998679 0.19 0 0 0 0
1.0065 0.81 0 0 0 0
1.00508 0.18 0 0 0 0
0.997537 0.82 0 0 0 0
1.00166 0.17 0 0 0 0
0.99791 0.83 0 0 0 0
1.00432 0.16 0 0 0 0
0.996258 0.84 0 0 0 0
1.00102 0.15 0 0 0 0
1.00229 0.85 0 0 0 0
0.995681 0.14 0 0 0 0
1.00604 0.86 0 0 0 0
1.00403 0.13 0 0 0 0
1.0021 0.87 0 0 0 0
0.99604 0.12 0 0 0 0
1.00669 0.88 0 0 0 0
1.0061 0.11 0 0 0 0
1.00063 0.89 0 0 0 0
1.00631 0.1 0 0 0 0
1.00208 0.9 0 0 0 0
0.992279 0.09 0 0 0 0
1.00161 0.91 0 0 0 0
1.0041 0.08 0 0 0 0
0.995674 0.92 0 0 0 0
1.00794 0.07 0 0 0 0
1.00245 0.93 0 0 0 0
1.00543 0.06 0 0 0 0
1.00253 0.94 0 0 0 0
0.999155 0.05 0 0 0 0
0.993119 0.95 0 0 0 0
0.995279 0.04 0 0 0 0
0.993309 0.96 0 0 0 0
1.00136 0.03 0 0 0 0
0.998782 0.97 0 0 0 0
0.994143 0.02 0 0 0 0
0.995634 0.98 0 0 0 0
0.994556 0.01 0 0 0 0
0.996281 0.99 0 0 0 0
1.00491 0 0 0 0 0
1.00336 1 0 0 0 0
0.504545 0.999268 0 0 0 0
0.514545 0.994641 0 0 0 0
0.494545 1.0003 0 0 0 0
0.524545 0.998802 0 0 0 0
0.484545 0.992543 0 0 0 0
0.534545 0.992662 0 0 0 0
0.474545 0.993353 0 0 0 0
0.544545 0.996426 0 0 0 0
0.464545 0.996632 0 0 0 0
0.554545 1.00024 0 0 0 0
0.454545 1.0008 0 0 0 0
0.564545 0.999551 0 0 0 0
0.444545 0.996272 0 0 0 0
0.574545 1.00489 0 0 0 0
0.434545 0.994375 0 0 0 0
0.584545 1.00209 0 0 0 0
0.424545 1.00666 0 0 0 0
0.594545 0.996015 0 0 0 0
0.414545 0.993676 0 0 0 0
0.604545 1.00525 0 0 0 0
0.404545 1.00221 0 0 0 0
0.614545 1.00519 0 0 0 0
0.394545 1.00725 0 0 0 0
0.624545 1.00134 0 0 0 0
0.384545 1.00325 0 0 0 0
0.634545 0.992894 0 0 0 0
0.374545 1.00445 0 0 0 0
0.644545 0.994862 0 0 0 0
0.364545 1.0045 0 0 0 0
0.654545 0.995959 0 0 0 0
0.354545 1.00213 0 0 0 0
0.664545 1.0014 0 0 0 0
0.344545 0.995622 0 0 0 0
0.674545 1.00543 0 0 0 0
0.334545 1.00171 0 0 0 0
0.684545 0.997366 0 0 0 0
0.324545 0.998345 0 0 0 0
0.694545 1.00234 0 0 0 0
0.314545 1.0051 0 0 0 0
0.704545 0.996978 0 0 0 0
0.304545 1.00259 0 0 0 0
0.714545 1.00021 0 0 0 0
0.294545 1.00549 0 0 0 0
0.724545 0.996405 0 0 0 0
0.284545 0.99943 0 0 0 0
0.734545 0.996745 0 0 0 0
0.274545 0.999788 0 0 0 0
0.744545 0.995086 0 0 0 0
0.264545 1.00429 0 0 0 0
0.754545 0.999013 0 0 0 0
0.254545 1.00592 0 0 0 0
0.764545 0.99696 0 0 0 0
0.244545 1.00059 0 0 0 0
0.774545 0.996893 0 0 0 0
0.234545 1.00168 0 0 0 0
0.784545 0.998303 0 0 0 0
0.224545 0.995254 0 0 0 0
0.794545 1.00328 0 0 0 0
0.214545 0.996338 0 0 0 0
0.804545 0.995217 0 0 0 0
0.204545 1.00226 0 0 0 0
0.814545 0.997412 0 0 0 0
0.194545 0.995555 0 0 0 0
0.824545 1.00762 0 0 0 0
0.184545 0.996389 0 0 0 0
0.834545 0.997419 0 0 0 0
0.174545 1.00392 0 0 0 0
0.844545 1.00019 0 0 0 0
0.164545 0.999596 0 0 0 0
0.854545 1.00382 0 0 0 0
0.154545 0.995363 0 0 0 0
0.864545 1.00368 0 0 0 0
0.144545 0.99775 0 0 0 0
0.874545 1.00604 0 0 0 0
0.134545 1.00443 0 0 0 0
0.884545 0.994375 0 0 0 0
0.124545 0.993821 0 0 0 0
0.894545 0.993165 0 0 0 0
0.114545 1.0044 0 0 0 0
0.904545 0.997016 0 0 0 0
0.104545 1.0029 0 0 0 0
0.914545 0.998656 0 0 0 0
0.094545 1.00026 0 0 0 0
0.924545 1.00376 0 0 0 0
0.084545 0.996503 0 0 0 0
0.934545 0.99235 0 0 0 0
0.074545 0.993038 0 0 0 0
0.944545 1.00077 0 0 0 0
0.064545 1.00283 0 0 0 0
0.954545 0.995013 0 0 0 0
0.054545 1.00065 0 0 0 0
0.964545 0.999806 0 0 0 0
0.044545 0.995125 0 0 0 0
0.974545 1.00606 0 0 0 0
0.034545 1.0072 0 0 0 0
0.984545 0.996626 0 0 0 0
0.024545 1.00015 0 0 0 0
0.994545 0.997131 0 0 0 0
0.014545 0.99304 0 0 0 0
0.00658602 0.5 0 0 0 0
0.00464109 0.51 0 0 0 0
0.00166841 0.49 0 0 0 0
0.0121523 0.52 0 0 0 0
0.00326677 0.48 0 0 0 0
0.016819 0.53 0 0 0 0
0.0126972 0.47 0 0 0 0
0.00797571 0.54 0 0 0 0
0.00196242 0.46 0 0 0 0
0.00958427 0.55 0 0 0 0
0.00555374 0.45 0 0 0 0
0.0152497 0.56 0 0 0 0
0.00510381 0.44 0 0 0 0
0.0119268 0.57 0 0 0 0
0.0142373 0.43 0 0 0 0
0.00867887 0.58 0 0 0 0
0.00134625 0.42 0 0 0 0
0.00333732 0.59 0 0 0 0
0.00313419 0.41 0 0 0 0
0.00343278 0.6 0 0 0 0
0.00363899 0.4 0 0 0 0
0.010489 0.61 0 0 0 0
0.00713051 0.39 0 0 0 0
0.00400412 0.62 0 0 0 0
0.0156129 0.38 0 0 0 0
0.00507766 0.63 0 0 0 0
0.0160647 0.37 0 0 0 0
0.00521642 0.64 0 0 0 0
0.0057249 0.36 0 0 0 0
0.002159 0.65 0 0 0 0
0.0062206 0.35 0 0 0 0
0.0144194 0.66 0 0 0 0
0.0102727 0.34 0 0 0 0
0.013075 0.67 0 0 0 0
0.00662904 0.33 0 0 0 0
0.0149151 0.68 0 0 0 0
0.00843191 0.32 0 0 0 0
0.00383004 0.69 0 0 0 0
0.00237311 0.31 0 0 0 0
0.0102243 0.7 0 0 0 0
0.00337993 0.3 0 0 0 0
0.00625588 0.71 0 0 0 0
0.00369454 0.29 0 0 0 0
0.0149911 0.72 0 0 0 0
0.0137505 0.28 0 0 0 0
0.0156195 0.73 0 0 0 0
0.0133709 0.27 0 0 0 0
0.00909034 0.74 0 0 0 0
0.0127226 0.26 0 0 0 0
0.0133628 0.75 0 0 0 0
0.0157912 0.25 0 0 0 0
0.0125997 0.76 0 0 0 0
0.00481087 0.24 0 0 0 0
0.00444954 0.77 0 0 0 0
0.0112169 0.23 0 0 0 0
0.00823736 0.78 0 0 0 0
0.0160308 0.22 0 0 0 0
0.0167688 0.79 0 0 0 0
0.0103105 0.21 0 0 0 0
0.0104213 0.8 0 0 0 0
0.00974679 0.2 0 0 0 0
0.00404066 0.81 0 0 0 0
0.0159977 0.19 0 0 0 0
0.0148995 0.82 0 0 0 0
0.0018455 0.18 0 0 0 0
0.0137789 0.83 0 0 0 0
0.0136773 0.17 0 0 0 0
0.00389557 0.84 0 0 0 0
0.0142081 0.16 0 0 0 0
0.00850356 0.85 0 0 0 0
0.00809592 0.15 0 0 0 0
0.0132277 0.86 0 0 0 0
0.00647214 0.14 0 0 0 0
0.00570069 0.87 0 0 0 0
0.00139293 0.13 0 0 0 0
0.0046575 0.88 0 0 0 0
0.0101064 0.12 0 0 0 0
0.0155181 0.89 0 0 0 0
0.00484577 0.11 0 0 0 0
0.0145604 0.9 0 0 0 0
0.00517527 0.1 0 0 0 0
0.00353616 0.91 0 0 0 0
0.0165571 0.09 0 0 0 0
0.00395212 0.92 0 0 0 0
0.00821282 0.08 0 0 0 0
0.010939 0.93 0 0 0 0
0.00563573 0.07 0 0 0 0
0.00398693 0.94 0 0 0 0
0.00210183 0.06 0 0 0 0
0.00195014 0.95 0 0 0 0
0.013945 0.05 0 0 0 0
0.0158638 0.96 0 0 0 0
0.00695955 0.04 0 0 0 0
0.00774288 0.97 0 0 0 0
0.00320497 0.03 0 0 0 0
0.011754 0.98 0 0 0 0
0.0018997 0.02 0 0 0 0
0.00627271 0.99 0 0 0 0
0.011864 0.01 0 0 0 0
0.00942564 1 0 0 0 0
0.016482 0 0 0 0 0
0.15909 0.201689 0 0 0 0
0.14909 0.19788 0 0 0 0
0.16909 0.202457 0 0 0 0
0.13909 0.198799 0 0 0 0
0.17909 0.198096 0 0 0 0
0.12909 0.202485 0 0 0 0
0.18909 0.194312 0 0 0 0
0.11909 0.189001 0 0 0 0
0.19909 0.186768 0 0 0 0
0.10909 0.194964 0 0 0 0
0.20909 0.188332 0 0 0 0
0.09909 0.189607 0 0 0 0
0.21909 0.199876 0 0 0 0
0.08909 0.19343 0 0 0 0
0.22909 0.199484 0 0 0 0
0.07909 0.197201 0 0 0 0
0.23909 0.201618 0 0 0 0
0.06909 0.188793 0 0 0 0
0.24909 0.201856 0 0 0 0
0.05909 0.200842 0 0 0 0
0.25909 0.18964 0 0 0 0
0.04909 0.193658 0 0 0 0
0.26909 0.18899 0 0 0 0
0.03909 0.191568 0 0 0 0
0.27909 0.201558 0 0 0 0
0.02909 0.191549 0 0 0 0
0.28909 0.200227 0 0 0 0
0.01909 0.193628 0 0 0 0
0.29909 0.194407 0 0 0 0
0.00909 0.187341 0 0 0 0
0.30909 0.187962 0 0 0 0
0.30277 0.309095 0 0 0 0
0.31355 0.299095 0 0 0 0
0.309826 0.319095 0 0 0 0
0.302272 0.289095 0 0 0 0
0.305051 0.329095 0 0 0 0
0.309067 0.279095 0 0 0 0
0.313005 0.339095 0 0 0 0
0.313874 0.269095 0 0 0 0
0.30994 0.349095 0 0 0 0
0.306959 0.259095 0 0 0 0
0.304058 0.359095 0 0 0 0
0.316154 0.249095 0 0 0 0
0.311143 0.369095 0 0 0 0
0.316321 0.239095 0 0 0 0
0.314085 0.379095 0 0 0 0
0.315559 0.229095 0 0 0 0
0.302941 0.389095 0 0 0 0
0.31641 0.219095 0 0 0 0
0.312247 0.399095 0 0 0 0
0.308108 0.209095 0 0 0 0
0.313018 0.409095 0 0 0 0
0.31286 0.199095 0 0 0 0
0.312321 0.419095 0 0 0 0
0.318847 0.55547 0 0 0 0
0.315523 0.54547 0 0 0 0
0.3185 0.56547 0 0 0 0
0.314516 0.53547 0 0 0 0
0.306746 0.57547 0 0 0 0
0.16091 0.589704 0 0 0 0
0.17091 0.584589 0 0 0 0
0.15091 0.581691 0 0 0 0
0.18091 0.586368 0 0 0 0
0.14091 0.583384 0 0 0 0
0.19091 0.583526 0 0 0 0
0.13091 0.578734 0 0 0 0
0.20091 0.576137 0 0 0 0
0.12091 0.584352 0 0 0 0
0.21091 0.589011 0 0 0 0
0.11091 0.584414 0 0 0 0
0.22091 0.591376 0 0 0 0
0.10091 0.587491 0 0 0 0
0.23091 0.57617 0 0 0 0
0.09091 0.59074 0 0 0 0
0.24091 0.580923 0 0 0 0
0.08091 0.577485 0 0 0 0
0.25091 0.583003 0 0 0 0
0.07091 0.582405 0 0 0 0
0.26091 0.579733 0 0 0 0
0.06091 0.588624 0 0 0 0
0.27091 0.576338 0 0 0 0
0.05091 0.587233 0 0 0 0
0.28091 0.588489 0 0 0 0
0.04091 0.586672 0 0 0 0
0.29091 0.581559 0 0 0 0
0.03091 0.577238 0 0 0 0
0.30091 0.582575 0 0 0 0
0.02091 0.579728 0 0 0 0
0.31091 0.575813 0 0 0 0
0.01091 0.586667 0 0 0 0
0.73091 0.547521 0 0 0 0
0.74091 0.547128 0 0 0 0
0.72091 0.556763 0 0 0 0
0.75091 0.553872 0 0 0 0
0.71091 0.553059 0 0 0 0
0.76091 0.54611 0 0 0 0
0.70091 0.545485 0 0 0 0
0.77091 0.54854 0 0 0 0
0.69091 0.550862 0 0 0 0
0.78091 0.55046 0 0 0 0
0.68091 0.550135 0 0 0 0
0.79091 0.556781 0 0 0 0
0.67091 0.550253 0 0 0 0
0.80091 0.555419 0 0 0 0
0.66091 0.548051 0 0 0 0
0.81091 0.551448 0 0 0 0
0.65091 0.54279 0 0 0 0
0.82091 0.547556 0 0 0 0
0.64091 0.544242 0 0 0 0
0.83091 0.556837 0 0 0 0
0.63091 0.552933 0 0 0 0
0.84091 0.556025 0 0 0 0
0.62091 0.546278 0 0 0 0
0.85091 0.543469 0 0 0 0
0.61091 0.554234 0 0 0 0
0.86091 0.547301 0 0 0 0
0.60091 0.553166 0 0 0 0
0.87091 0.54362 0 0 0 0
0.59091 0.551057 0 0 0 0
0.88091 0.550845 0 0 0 0
0.58091 0.555261 0 0 0 0
0.89091 0.547647 0 0 0 0
0.57091 0.55486 0 0 0 0
0.90091 0.556446 0 0 0 0
0.56091 0.55274 0 0 0 0
0.91091 0.553168 0 0 0 0
0.55091 0.545027 0 0 0 0
0.92091 0.55372 0 0 0 0
0.54091 0.549364 0 0 0 0
0.93091 0.541143 0 0 0 0
0.53091 0.547578 0 0 0 0
0.94091 0.542671 0 0 0 0
0.52091 0.545666 0 0 0 0
0.95091 0.553796 0 0 0 0
0.51091 0.545524 0 0 0 0
0.96091 0.543586 0 0 0 0
0.50091 0.550523 0 0 0 0
0.97091 0.545979 0 0 0 0
0.49091 0.547882 0 0 0 0
0.98091 0.553324 0 0 0 0
0.48091 0.548261 0 0 0 0
0.99091 0.544159 0 0 0 0
0.47091 0.556451 0 0 0 0
0.474502 0.703635 0 0 0 0
0.471373 0.693635 0 0 0 0
0.473213 0.713635 0 0 0 0
0.469598 0.683635 0 0 0 0
0.460766 0.723635 0 0 0 0
0.462918 0.673635 0 0 0 0
0.460904 0.733635 0 0 0 0
0.466634 0.663635 0 0 0 0
0.463468 0.743635 0 0 0 0
0.470185 0.653635 0 0 0 0
0.469562 0.753635 0 0 0 0
0.463208 0.643635 0 0 0 0
0.468084 0.763635 0 0 0 0
0.467723 0.633635 0 0 0 0
0.459591 0.773635 0 0 0 0
0.471608 0.623635 0 0 0 0
0.471123 0.783635 0 0 0 0
0.473918 0.613635 0 0 0 0
0.459811 0.793635 0 0 0 0
0.473289 0.603635 0 0 0 0
0.460649 0.803635 0 0 0 0
0.462544 0.593635 0 0 0 0
0.473163 0.813635 0 0 0 0
0.471716 0.583635 0 0 0 0
0.472778 0.823635 0 0 0 0
0.468369 0.573635 0 0 0 0
0.466696 0.833635 0 0 0 0
0.473071 0.563635 0 0 0 0
0.469434 0.843635 0 0 0 0
0.472931 0.553635 0 0 0 0
0.472256 0.853635 0 0 0 0
0.305048 0.84818 0 0 0 0
0.311982 0.83818 0 0 0 0
0.318669 0.85818 0 0 0 0
0.30868 0.82818 0 0 0 0
0.309536 0.86818 0 0 0 0
0.307882 0.81818 0 0 0 0
0.308682 0.87818 0 0 0 0
0.304758 0.80818 0 0 0 0
0.31018 0.88818 0 0 0 0
0.306626 0.79818 0 0 0 0
0.3087 0.89818 0 0 0 0
0.317087 0.78818 0 0 0 0
0.307617 0.90818 0 0 0 0
0.307126 0.77818 0 0 0 0
0.307514 0.91818 0 0 0 0
0.306272 0.76818 0 0 0 0
0.314952 0.92818 0 0 0 0
0.311949 0.75818 0 0 0 0
0.313877 0.93818 0 0 0 0
0.312411 0.74818 0 0 0 0
0.310015 0.94818 0 0 0 0
0.316418 0.73818 0 0 0 0
0.318042 0.95818 0 0 0 0
0.313219 0.72818 0 0 0 0
0.309973 0.96818 0 0 0 0
0.312312 0.71818 0 0 0 0
0.307564 0.97818 0 0 0 0
0.309574 0.70818 0 0 0 0
0.311232 0.98818 0 0 0 0
0.813635 0.683013 0 0 0 0
0.823635 0.681867 0 0 0 0
0.803635 0.676398 0 0 0 0
0.833635 0.677342 0 0 0 0
0.793635 0.687087 0 0 0 0
0.843635 0.680137 0 0 0 0
0.783635 0.686055 0 0 0 0
0.853635 0.682197 0 0 0 0
0.773635 0.679261 0 0 0 0
0.863635 0.677463 0 0 0 0
0.763635 0.685226 0 0 0 0
0.873635 0.680715 0 0 0 0
0.753635 0.686048 0 0 0 0
0.883635 0.690245 0 0 0 0
0.743635 0.680171 0 0 0 0
0.893635 0.688345 0 0 0 0
0.733635 0.688251 0 0 0 0
0.903635 0.684467 0 0 0 0
0.723635 0.688028 0 0 0 0
0.913635 0.67871 0 0 0 0
0.713635 0.684872 0 0 0 0
0.923635 0.676903 0 0 0 0
0.703635 0.683235 0 0 0 0
0.933635 0.684447 0 0 0 0
0.693635 0.678432 0 0 0 0
0.943635 0.67755 0 0 0 0
0.683635 0.679192 0 0 0 0
0.953635 0.6793 0 0 0 0
0.673635 0.688489 0 0 0 0
0.963635 0.68132 0 0 0 0
0.663635 0.681432 0 0 0 0
0.973635 0.684651 0 0 0 0
0.653635 0.682418 0 0 0 0
0.983635 0.690939 0 0 0 0
0.643635 0.681412 0 0 0 0
0.638557 0.769095 0 0 0 0
0.649007 0.759095 0 0 0 0
0.643902 0.779095 0 0 0 0
0.644925 0.749095 0 0 0 0
0.642522 0.789095 0 0 0 0
0.647372 0.739095 0 0 0 0
0.640152 0.799095 0 0 0 0
0.639753 0.729095 0 0 0 0
0.646748 0.809095 0 0 0 0
0.645897 0.719095 0 0 0 0
0.639571 0.819095 0 0 0 0
0.641674 0.709095 0 0 0 0
0.635873 0.829095 0 0 0 0
0.638944 0.699095 0 0 0 0
0.63815 0.839095 0 0 0 0
0.6478 0.689095 0 0 0 0
0.637128 0.849095 0 0 0 0
0.81909 0.860697 0 0 0 0
0.80909 0.848373 0 0 0 0
0.82909 0.850017 0 0 0 0
0.79909 0.851697 0 0 0 0
0.83909 0.860002 0 0 0 0
0.78909 0.852194 0 0 0 0
0.84909 0.855363 0 0 0 0
0.77909 0.851305 0 0 0 0
0.85909 0.861087 0 0 0 0
0.76909 0.855235 0 0 0 0
0.86909 0.853353 0 0 0 0
0.75909 0.859859 0 0 0 0
0.87909 0.848706 0 0 0 0
0.74909 0.856634 0 0 0 0
0.88909 0.862395 0 0 0 0
0.73909 0.859203 0 0 0 0
0.89909 0.852666 0 0 0 0
0.72909 0.853865 0 0 0 0
0.90909 0.850398 0 0 0 0
0.71909 0.853216 0 0 0 0
0.91909 0.854489 0 0 0 0
0.70909 0.852765 0 0 0 0
0.92909 0.852258 0 0 0 0
0.69909 0.855573 0 0 0 0
0.93909 0.855915 0 0 0 0
0.68909 0.85124 0 0 0 0
0.94909 0.847546 0 0 0 0
0.67909 0.846705 0 0 0 0
0.95909 0.849104 0 0 0 0
0.66909 0.852316 0 0 0 0
0.96909 0.854915 0 0 0 0
0.65909 0.859066 0 0 0 0
0.97909 0.855059 0 0 0 0
0.64909 0.852317 0 0 0 0
0.98909 0.861268 0 0 0 0
