ply
format ascii 1.0
comment Aron generated
element vertex 690
property float x
property float y
property float z
property float nx
property float ny
property float nz
end_header
0.504545 -0.00456039 0 0.997864 -0.0653224 0
0.494545 0.00490374 0 0.99951 -0.031307 0
0.514545 -0.00654913 0 0.999514 -0.0311886 0
0.484545 0.00348637 0 0.993378 -0.114895 0
0.524545 -0.00319246 0 0.999596 -0.0284355 0
0.474545 -0.00522813 0 0.992265 -0.12414 0
0.534545 0.00358813 0 0.999579 0.0290229 0
0.464545 0.00621965 0 0.999862 -0.0166071 0
0.544545 -0.00353929 0 0.998368 0.0571058 0
0.454545 -0.00157641 0 0.998982 0.0451032 0
0.554545 -0.00416756 0 0.998565 0.0535461 0
0.444545 0.00702444 0 0.999938 0.0111132 0
0.564545 0.00318181 0 0.999942 0.0107625 0
0.434545 0.00550431 0 0.999996 -0.00277592 0
0.574545 0.00204005 0 0.999267 -0.0382877 0
0.424545 -0.00539374 0 0.999775 0.0212281 0
0.584545 -0.00386738 0 0.999937 0.0112639 0
0.414545 -0.000437572 0 0.999706 0.0242425 0
0.594545 0.000884634 0 0.999339 -0.0363422 0
0.404545 0.00237423 0 0.999453 0.0330855 0
0.604545 -0.00100599 0 0.996856 -0.0792328 0
0.394545 0.000599486 0 0.999436 -0.0335936 0
0.614545 -0.00472122 0 0.999856 0.0169634 0
0.384545 0.00531693 0 0.994137 -0.108132 0
0.624545 0.00086979 0 0.995812 0.0914197 0
0.374545 -0.00330555 0 0.999898 -0.0143154 0
0.634545 -0.00511584 0 0.998805 0.0488817 0
0.364545 0.00329267 0 0.997967 0.0637385 0
0.644545 -0.00421139 0 0.999865 0.0164219 0
0.354545 0.00457609 0 0.998209 0.0598266 0
0.654545 0.00758052 0 0.999885 -0.0151767 0
0.344545 0.00745891 0 0.999196 0.0400803 0
0.664545 0.00625528 0 0.998144 -0.0609045 0
0.334545 -0.0037199 0 0.999737 0.0229387 0
0.674545 -0.00216226 0 0.999451 -0.0331225 0
0.324545 -0.00667749 0 0.999369 0.0355223 0
0.684545 -0.00630407 0 1 0.00047542 0
0.314545 1.51834e-05 0 0.999996 0.00293421 0
0.694545 -0.00554733 0 0.999912 -0.0132772 0
0.304545 0.00404572 0 0.998066 -0.0621679 0
0.704545 -0.00421052 0 0.999965 -0.00834018 0
0.294545 -0.00142643 0 0.99257 -0.121676 0
0.714545 -0.000446905 0 0.995126 0.0986101 0
0.284545 0.00337578 0 0.999017 -0.0443287 0
0.724545 0.00799627 0 0.998843 0.0480946 0
0.274545 0.0033793 0 0.99891 0.0466789 0
0.734545 0.00305055 0 0.999565 -0.0295042 0
0.264545 0.00623995 0 0.999311 0.037123 0
0.744545 -0.00727524 0 0.996749 -0.080565 0
0.254545 0.00331681 0 0.999923 -0.012425 0
0.754545 0.0053111 0 0.996095 -0.0882827 0
0.244545 -0.00515655 0 0.997436 0.0715631 0
0.764545 -0.00716802 0 0.997055 -0.0766912 0
0.234545 -0.00306422 0 0.9998 0.0199938 0
0.774545 -0.00662224 0 0.998639 0.0521589 0
0.224545 0.00406058 0 0.999272 -0.0381432 0
0.784545 -0.00423039 0 0.990165 0.139905 0
0.214545 0.00585998 0 0.999981 -0.00616465 0
0.794545 0.000701525 0 0.990486 0.137611 0
0.204545 -0.00619336 0 0.996936 -0.0782215 0
0.804545 0.000175485 0 0.984769 0.17387 0
0.194545 0.00619542 0 0.999201 0.0399738 0
0.814545 0.00644844 0 0.992103 0.125423 0
0.184545 0.00764881 0 0.999597 0.028396 0
0.824545 0.00645173 0 0.999983 0.00590495 0
0.174545 -0.00766243 0 0.999338 -0.036389 0
0.834545 0.00709976 0 0.997106 -0.0760287 0
0.164545 0.0069133 0 0.997257 -0.0740189 0
0.844545 0.00184291 0 0.996937 -0.0782103 0
0.154545 -0.00748854 0 0.999693 0.0247772 0
0.854545 0.00271265 0 0.993813 -0.111069 0
0.144545 0.00694062 0 0.998199 0.0599852 0
0.864545 -0.00612975 0 0.994637 -0.103432 0
0.134545 0.00786839 0 0.999909 -0.0134841 0
0.874545 -0.00278601 0 0.998375 -0.0569796 0
0.124545 0.00314605 0 0.993937 0.109951 0
0.884545 0.00295734 0 0.998934 -0.0461588 0
0.114545 -0.00125529 0 0.995501 0.0947567 0
0.894545 -0.000549207 0 0.999954 0.00964105 0
0.104545 -0.00692824 0 0.993743 0.111691 0
0.904545 -0.00235868 0 0.999062 0.0432967 0
0.094545 0.00245891 0 0.998749 0.0500098 0
0.914545 0.00122373 0 0.99967 0.0256955 0
0.084545 -0.00648288 0 0.999969 0.00794262 0
0.924545 -0.00623636 0 0.99827 0.0587932 0
0.074545 -0.00519408 0 0.998809 -0.0487903 0
0.934545 0.0038014 0 0.999824 0.0187718 0
0.064545 0.00470275 0 0.996668 -0.0815658 0
0.944545 -0.000589176 0 0.999829 -0.0184994 0
0.054545 0.00132109 0 0.997243 -0.0742 0
0.954545 0.00241203 0 0.992516 0.122118 0
0.044545 -0.00375086 0 0.98214 -0.188152 0
0.964545 0.00789341 0 0.960503 0.27827 0
0.034545 0.00131375 0 0.92515 -0.379601 0
0.974545 -0.00764129 0 0.983409 0.181401 0
0.024545 0.00631595 0 0.817982 -0.575243 0
0.984545 -0.00566078 0 0.901584 0.432603 0
0.014545 -0.00141898 0 0.805493 -0.592606 0
0.994545 0.005448 0 -0.530978 -0.847386 -0
1.00328 0.5 0 0.0175722 -0.999846 0
0.993317 0.49 0 0.00834597 -0.999965 0
1.00163 0.51 0 0.162553 -0.9867 0
0.995694 0.48 0 0.0770812 -0.997025 0
0.993567 0.52 0 0.178877 -0.983872 0
1.00375 0.47 0 0.0492029 -0.998789 0
1.00539 0.53 0 0.142122 -0.989849 0
1.00343 0.46 0 0.00402515 -0.999992 0
1.00798 0.54 0 0.170559 -0.985347 0
1.00005 0.45 0 0.0323874 -0.999475 0
0.995326 0.55 0 -0.037886 -0.999282 -0
1.00341 0.44 0 -0.054089 -0.998536 -0
0.997376 0.56 0 -0.316585 -0.948564 -0
1.00358 0.43 0 -0.0387421 -0.999249 -0
1.00113 0.57 0 -0.245042 -0.969513 -0
0.99316 0.42 0 -0.0566422 -0.998395 -0
0.993114 0.58 0 -0.409158 -0.912464 -0
0.999884 0.41 0 -0.0423805 -0.999102 -0
1.0064 0.59 0 -0.203041 -0.97917 -0
0.995001 0.4 0 -0.0162974 -0.999867 -0
1.00531 0.6 0 -0.0519153 -0.998652 -0
1.00726 0.39 0 0.0481075 -0.998842 0
1.00002 0.61 0 0.0333843 -0.999443 0
0.995229 0.38 0 0.122659 -0.992449 0
1.00699 0.62 0 0.0278458 -0.999612 0
0.997949 0.37 0 0.0288322 -0.999584 0
1.00599 0.63 0 0.113521 -0.993536 0
1.00256 0.36 0 0.0499481 -0.998752 0
0.995755 0.64 0 0.169043 -0.985609 0
1.0044 0.35 0 -0.0222145 -0.999753 -0
0.994438 0.65 0 0.282979 -0.959126 0
1.00635 0.34 0 0.0607211 -0.998155 0
1.00174 0.66 0 0.264538 -0.964375 0
0.994946 0.33 0 0.0302646 -0.999542 0
0.997817 0.67 0 0.234044 -0.972226 0
1.00393 0.32 0 0.00557181 -0.999985 0
1.0072 0.68 0 -0.0214111 -0.999771 -0
0.998101 0.31 0 -0.0371809 -0.999309 -0
0.99326 0.69 0 -0.201314 -0.979527 -0
1.00561 0.3 0 0.00105535 -1 0
1.00056 0.7 0 -0.179331 -0.983789 -0
1.00383 0.29 0 0.000257108 -1 0
0.997161 0.71 0 -0.19718 -0.980367 -0
1.00344 0.28 0 -0.079595 -0.996827 -0
1.00363 0.72 0 -0.110319 -0.993896 -0
0.996399 0.27 0 -0.0842121 -0.996448 -0
1.00195 0.73 0 -0.0725558 -0.997364 -0
1.00427 0.26 0 -0.101448 -0.994841 -0
1.00218 0.74 0 0.0590341 -0.998256 0
0.996161 0.25 0 -0.0138675 -0.999904 -0
0.992028 0.75 0 0.0292915 -0.999571 0
0.996216 0.24 0 -0.0238588 -0.999715 -0
0.998551 0.76 0 0.0801779 -0.996781 0
0.996407 0.23 0 0.00808247 -0.999967 0
0.998091 0.77 0 -0.0147269 -0.999892 -0
0.999776 0.22 0 0.0313007 -0.99951 0
0.99609 0.78 0 -0.0309528 -0.999521 -0
1.00678 0.21 0 0.0812107 -0.996697 0
1.00134 0.79 0 -0.0585436 -0.998285 -0
0.9946 0.2 0 0.0860901 -0.996287 0
0.993878 0.8 0 0.00347908 -0.999994 0
0.998679 0.19 0 0.0553414 -0.998468 0
1.0065 0.81 0 -0.0239106 -0.999714 -0
1.00508 0.18 0 -0.0190568 -0.999818 -0
0.997537 0.82 0 0.213563 -0.976929 0
1.00166 0.17 0 -0.00664308 -0.999978 -0
0.99791 0.83 0 0.190256 -0.981735 0
1.00432 0.16 0 0.00399384 -0.999992 0
0.996258 0.84 0 0.133439 -0.991057 0
1.00102 0.15 0 -0.001949 -0.999998 -0
1.00229 0.85 0 0.0038294 -0.999993 0
0.995681 0.14 0 0.00840981 -0.999965 0
1.00604 0.86 0 -0.183803 -0.982963 -0
1.00403 0.13 0 -0.0360281 -0.999351 -0
1.0021 0.87 0 -0.261833 -0.965113 -0
0.99604 0.12 0 -0.00489938 -0.999988 -0
1.00669 0.88 0 -0.143818 -0.989604 -0
1.0061 0.11 0 0.0711725 -0.997464 0
1.00063 0.89 0 -0.162305 -0.986741 -0
1.00631 0.1 0 0.0928756 -0.995678 0
1.00208 0.9 0 -0.0122921 -0.999924 -0
0.992279 0.09 0 0.0169229 -0.999857 0
1.00161 0.91 0 0.0860426 -0.996292 0
1.0041 0.08 0 -0.0189679 -0.99982 -0
0.995674 0.92 0 0.124977 -0.99216 0
1.00794 0.07 0 -0.0668264 -0.997765 -0
1.00245 0.93 0 0.0738846 -0.997267 0
1.00543 0.06 0 -0.0871242 -0.996197 -0
1.00253 0.94 0 0.081485 -0.996675 0
0.999155 0.05 0 -0.0875153 -0.996163 -0
0.993119 0.95 0 0.104739 -0.9945 0
0.995279 0.04 0 -0.223273 -0.974756 -0
0.993309 0.96 0 0.20056 -0.979681 0
1.00136 0.03 0 -0.318246 -0.948008 -0
0.998782 0.97 0 0.262835 -0.964841 0
0.994143 0.02 0 -0.446485 -0.894791 -0
0.995634 0.98 0 0.406677 -0.913572 0
0.994556 0.01 0 -0.530978 -0.847386 -0
0.996281 0.99 0 0.508416 -0.861112 0
1.00491 0 0 -0.475681 -0.879618 -0
1.00336 1 0 0.781823 -0.623501 0
0.504545 0.999268 0 0.999977 0.00676754 0
0.514545 0.994641 0 0.999201 0.0399693 0
0.494545 1.0003 0 0.999596 -0.0284149 0
0.524545 0.998802 0 0.999411 0.0343149 0
0.484545 0.992543 0 0.999978 0.00668962 0
0.534545 0.992662 0 0.998889 0.0471319 0
0.474545 0.993353 0 0.999964 0.00853233 0
0.544545 0.996426 0 0.996313 0.085789 0
0.464545 0.996632 0 0.999024 -0.0441704 0
0.554545 1.00024 0 0.997355 0.0726809 0
0.454545 1.0008 0 0.999603 -0.028164 0
0.564545 0.999551 0 0.996125 0.0879474 0
0.444545 0.996272 0 0.995892 -0.0905499 0
0.574545 1.00489 0 0.992873 0.11918 0
0.434545 0.994375 0 0.993128 -0.117032 0
0.584545 1.00209 0 0.998034 0.0626701 0
0.424545 1.00666 0 0.995261 -0.097242 0
0.594545 0.996015 0 0.99944 -0.033456 0
0.414545 0.993676 0 0.9953 -0.0968415 0
0.604545 1.00525 0 0.996776 -0.0802383 0
0.404545 1.00221 0 0.992917 -0.118811 0
0.614545 1.00519 0 0.993449 -0.114276 0
0.394545 1.00725 0 0.996752 -0.0805335 0
0.624545 1.00134 0 0.998102 -0.0615806 0
0.384545 1.00325 0 0.999504 0.0314806 0
0.634545 0.992894 0 0.999997 0.00225255 0
0.374545 1.00445 0 0.999989 -0.00466602 0
0.644545 0.994862 0 0.998807 -0.0488287 0
0.364545 1.0045 0 0.996545 0.0830554 0
0.654545 0.995959 0 0.9999 0.0141694 0
0.354545 1.00213 0 0.992361 0.123365 0
0.664545 1.0014 0 0.999077 0.0429477 0
0.344545 0.995622 0 0.950212 0.311603 0
0.674545 1.00543 0 0.997182 0.0750242 0
0.334545 1.00171 0 0.964023 0.265818 0
0.684545 0.997366 0 0.999927 0.0120707 0
0.324545 0.998345 0 0.986172 0.165726 0
0.694545 1.00234 0 0.999263 -0.0383916 0
0.314545 1.0051 0 0.999948 0.0101704 0
0.704545 0.996978 0 0.995715 -0.0924763 0
0.304545 1.00259 0 0.984858 -0.173361 0
0.714545 1.00021 0 0.997232 -0.0743545 0
0.294545 1.00549 0 0.986809 -0.161891 0
0.724545 0.996405 0 0.999505 -0.0314504 0
0.284545 0.99943 0 0.980609 -0.195977 0
0.734545 0.996745 0 0.999088 -0.0426947 0
0.274545 0.999788 0 0.978725 -0.205177 0
0.744545 0.995086 0 0.999998 -0.0020598 0
0.264545 1.00429 0 0.999623 -0.0274565 0
0.754545 0.999013 0 0.999432 0.0337054 0
0.254545 1.00592 0 0.996578 0.0826589 0
0.764545 0.99696 0 0.999489 0.0319674 0
0.244545 1.00059 0 0.999362 0.0357122 0
0.774545 0.996893 0 0.99977 0.0214585 0
0.234545 1.00168 0 0.996774 0.0802586 0
0.784545 0.998303 0 0.996704 0.081128 0
0.224545 0.995254 0 0.994105 0.108423 0
0.794545 1.00328 0 0.999251 0.0387067 0
0.214545 0.996338 0 0.999005 0.0446068 0
0.804545 0.995217 0 0.99897 0.0453708 0
0.204545 1.00226 0 0.999977 -0.00682962 0
0.814545 0.997412 0 0.998345 0.0575146 0
0.194545 0.995555 0 0.999986 0.00528817 0
0.824545 1.00762 0 0.99842 0.0561898 0
0.184545 0.996389 0 0.999854 -0.0171111 0
0.834545 0.997419 0 0.99745 0.0713711 0
0.174545 1.00392 0 0.99932 -0.0368774 0
0.844545 1.00019 0 0.999232 0.0391884 0
0.164545 0.999596 0 0.999742 0.0227139 0
0.854545 1.00382 0 0.998053 -0.0623648 0
0.154545 0.995363 0 0.9989 -0.0468863 0
0.864545 1.00368 0 0.993877 -0.110497 0
0.144545 0.99775 0 0.999046 -0.0436804 0
0.874545 1.00604 0 0.998215 -0.0597254 0
0.134545 1.00443 0 0.999866 -0.0163786 0
0.884545 0.994375 0 0.998892 -0.0470716 0
0.124545 0.993821 0 0.999769 -0.0214981 0
0.894545 0.993165 0 0.994991 -0.0999634 0
0.114545 1.0044 0 0.999785 0.0207241 0
0.904545 0.997016 0 0.998795 -0.0490752 0
0.104545 1.0029 0 0.999771 0.0213978 0
0.914545 0.998656 0 0.999445 -0.0333006 0
0.094545 1.00026 0 0.999552 0.0299328 0
0.924545 1.00376 0 0.998823 0.0484987 0
0.084545 0.996503 0 0.999727 0.0233568 0
0.934545 0.99235 0 0.996418 0.0845606 0
0.074545 0.993038 0 0.99995 0.00999525 0
0.944545 1.00077 0 0.999673 0.025587 0
0.064545 1.00283 0 0.999708 -0.0241768 0
0.954545 0.995013 0 0.997075 -0.0764276 0
0.054545 1.00065 0 0.996968 0.0778143 0
0.964545 0.999806 0 0.969742 -0.244134 0
0.044545 0.995125 0 0.974484 0.224458 0
0.974545 1.00606 0 0.965404 -0.260757 0
0.034545 1.0072 0 0.976178 0.216973 0
0.984545 0.996626 0 0.77286 -0.634577 0
0.024545 1.00015 0 0.890959 0.454085 0
0.994545 0.997131 0 0.508416 -0.861112 0
0.014545 0.99304 0 -0.63473 -0.772734 -0
0.00658602 0.5 0 -0.0987018 -0.995117 -0
0.00464109 0.51 0 -0.0644594 -0.99792 -0
0.00166841 0.49 0 -0.107658 -0.994188 -0
0.0121523 0.52 0 -0.144923 -0.989443 -0
0.00326677 0.48 0 -0.0402939 -0.999188 -0
0.016819 0.53 0 -0.20263 -0.979255 -0
0.0126972 0.47 0 0.0681099 -0.997678 0
0.00797571 0.54 0 -0.118141 -0.992997 -0
0.00196242 0.46 0 0.022026 -0.999757 0
0.00958427 0.55 0 -0.135489 -0.990779 -0
0.00555374 0.45 0 0.0104484 -0.999945 0
0.0152497 0.56 0 -0.101945 -0.99479 -0
0.00510381 0.44 0 -0.0342342 -0.999414 -0
0.0119268 0.57 0 -0.0228687 -0.999739 -0
0.0142373 0.43 0 -0.0441576 -0.999025 -0
0.00867887 0.58 0 0.0685652 -0.997647 0
0.00134625 0.42 0 0.0774409 -0.996997 0
0.00333732 0.59 0 0.21677 -0.976223 0
0.00313419 0.41 0 0.106575 -0.994305 0
0.00343278 0.6 0 0.284032 -0.958815 0
0.00363899 0.4 0 0.0711151 -0.997468 0
0.010489 0.61 0 0.308346 -0.951274 0
0.00713051 0.39 0 0.0327145 -0.999465 0
0.00400412 0.62 0 0.117287 -0.993098 0
0.0156129 0.38 0 0.0988273 -0.995105 0
0.00507766 0.63 0 -0.0544269 -0.998518 -0
0.0160647 0.37 0 0.0384481 -0.999261 0
0.00521642 0.64 0 -0.121966 -0.992534 -0
0.0057249 0.36 0 -0.00441018 -0.99999 -0
0.002159 0.65 0 -0.0546481 -0.998506 -0
0.0062206 0.35 0 -0.093012 -0.995665 -0
0.0144194 0.66 0 -0.0884046 -0.996085 -0
0.0102727 0.34 0 -0.140888 -0.990026 -0
0.013075 0.67 0 -0.0407114 -0.999171 -0
0.00662904 0.33 0 -0.110579 -0.993867 -0
0.0149151 0.68 0 -0.0586233 -0.99828 -0
0.00843191 0.32 0 0.00995279 -0.999951 0
0.00383004 0.69 0 -0.0642859 -0.997932 -0
0.00237311 0.31 0 0.0477935 -0.998857 0
0.0102243 0.7 0 0.0198755 -0.999803 0
0.00337993 0.3 0 0.0716797 -0.997428 0
0.00625588 0.71 0 -0.019806 -0.999804 -0
0.00369454 0.29 0 0.137458 -0.990508 0
0.0149911 0.72 0 -0.0448136 -0.998995 -0
0.0137505 0.28 0 0.0942834 -0.995545 0
0.0156195 0.73 0 -0.031753 -0.999496 -0
0.0133709 0.27 0 0.108384 -0.994109 0
0.00909034 0.74 0 0.0345575 -0.999403 0
0.0127226 0.26 0 0.0993948 -0.995048 0
0.0133628 0.75 0 -0.00514104 -0.999987 -0
0.0157912 0.25 0 0.0352508 -0.999379 0
0.0125997 0.76 0 0.0437845 -0.999041 0
0.00481087 0.24 0 0.00738767 -0.999973 0
0.00444954 0.77 0 0.0688255 -0.997629 0
0.0112169 0.23 0 0.114251 -0.993452 0
0.00823736 0.78 0 -0.00579284 -0.999983 -0
0.0160308 0.22 0 0.213073 -0.977036 0
0.0167688 0.79 0 -0.0173612 -0.999849 -0
0.0103105 0.21 0 0.176626 -0.984278 0
0.0104213 0.8 0 0.0105258 -0.999945 0
0.00974679 0.2 0 0.149403 -0.988776 0
0.00404066 0.81 0 -0.00369978 -0.999993 -0
0.0159977 0.19 0 -0.13693 -0.990581 -0
0.0148995 0.82 0 0.0131656 -0.999913 0
0.0018455 0.18 0 -0.193511 -0.981098 -0
0.0137789 0.83 0 0.0657386 -0.997837 0
0.0136773 0.17 0 -0.281046 -0.959694 -0
0.00389557 0.84 0 0.0462926 -0.998928 0
0.0142081 0.16 0 -0.281336 -0.959609 -0
0.00850356 0.85 0 -0.0144665 -0.999895 -0
0.00809592 0.15 0 -0.16012 -0.987098 -0
0.0132277 0.86 0 -0.00428088 -0.999991 -0
0.00647214 0.14 0 -0.0458883 -0.998947 -0
0.00570069 0.87 0 0.00663918 -0.999978 0
0.00139293 0.13 0 -0.0350262 -0.999386 -0
0.0046575 0.88 0 0.00450215 -0.99999 0
0.0101064 0.12 0 0.00253294 -0.999997 0
0.0155181 0.89 0 0.0212581 -0.999774 0
0.00484577 0.11 0 0.0336039 -0.999435 0
0.0145604 0.9 0 0.0597394 -0.998214 0
0.00517527 0.1 0 0.00429957 -0.999991 0
0.00353616 0.91 0 0.062601 -0.998039 0
0.0165571 0.09 0 0.0539742 -0.998542 0
0.00395212 0.92 0 0.0177114 -0.999843 0
0.00821282 0.08 0 -0.00368695 -0.999993 -0
0.010939 0.93 0 0.0547183 -0.998502 0
0.00563573 0.07 0 -0.0205661 -0.999789 -0
0.00398693 0.94 0 -0.0293241 -0.99957 -0
0.00210183 0.06 0 -0.0808176 -0.996729 -0
0.00195014 0.95 0 -0.0901872 -0.995925 -0
0.013945 0.05 0 0.0322302 -0.999481 0
0.0158638 0.96 0 -0.196228 -0.980558 -0
0.00695955 0.04 0 0.195191 -0.980765 0
0.00774288 0.97 0 -0.29566 -0.955293 -0
0.00320497 0.03 0 0.247764 -0.96882 0
0.011754 0.98 0 -0.517234 -0.855844 -0
0.0018997 0.02 0 0.423015 -0.906123 0
0.00627271 0.99 0 -0.63473 -0.772734 -0
0.011864 0.01 0 0.677746 -0.735296 0
0.00942564 1 0 0.797982 0.602682 0
0.016482 0 0 0.896469 -0.443106 0
0.15909 0.201689 0 0.998466 -0.0553714 0
0.14909 0.19788 0 0.998923 0.0463932 0
0.16909 0.202457 0 0.985066 -0.172176 0
0.13909 0.198799 0 0.991494 0.130149 0
0.17909 0.198096 0 0.994252 -0.107064 0
0.12909 0.202485 0 0.989147 0.146931 0
0.18909 0.194312 0 0.997827 -0.0658885 0
0.11909 0.189001 0 0.995275 0.0971005 0
0.19909 0.186768 0 0.999805 -0.0197448 0
0.10909 0.194964 0 0.995009 0.099781 0
0.20909 0.188332 0 0.998431 0.0560007 0
0.09909 0.189607 0 0.999484 0.0321171 0
0.21909 0.199876 0 0.998624 0.0524344 0
0.08909 0.19343 0 0.999976 0.00691381 0
0.22909 0.199484 0 0.999615 0.0277385 0
0.07909 0.197201 0 0.999178 -0.0405291 0
0.23909 0.201618 0 0.996935 0.0782295 0
0.06909 0.188793 0 0.999976 0.00695591 0
0.24909 0.201856 0 0.99939 0.0349179 0
0.05909 0.200842 0 0.992487 -0.122353 0
0.25909 0.18964 0 0.998434 -0.055943 0
0.04909 0.193658 0 0.996003 0.0893162 0
0.26909 0.18899 0 0.999916 -0.0129521 0
0.03909 0.191568 0 0.998048 0.0624564 0
0.27909 0.201558 0 0.980063 0.198688 0
0.02909 0.191549 0 -0.588374 -0.808589 -0
0.28909 0.200227 0 0.890703 0.454585 0
0.01909 0.193628 0 0.0223129 -0.999751 0
0.29909 0.194407 0 0.81001 0.586417 0
0.00909 0.187341 0 -0.109737 -0.993961 -0
0.30909 0.187962 0 0.835704 0.54918 0
0.30277 0.309095 0 0.0037782 -0.999993 0
0.31355 0.299095 0 0.000265523 -1 0
0.309826 0.319095 0 -0.00691363 -0.999976 -0
0.302272 0.289095 0 0.0913947 -0.995815 0
0.305051 0.329095 0 -0.0430362 -0.999074 -0
0.309067 0.279095 0 0.110213 -0.993908 0
0.313005 0.339095 0 -0.0357694 -0.99936 -0
0.313874 0.269095 0 0.144534 -0.9895 0
0.30994 0.349095 0 -0.0292494 -0.999572 -0
0.306959 0.259095 0 0.115042 -0.993361 0
0.304058 0.359095 0 -0.0121927 -0.999926 -0
0.316154 0.249095 0 0.10039 -0.994948 0
0.311143 0.369095 0 -0.0448135 -0.998995 -0
0.316321 0.239095 0 -0.119539 -0.99283 -0
0.314085 0.379095 0 -0.0252797 -0.99968 -0
0.315559 0.229095 0 -0.210979 -0.977491 -0
0.302941 0.389095 0 -0.0654819 -0.997854 -0
0.31641 0.219095 0 -0.259108 -0.965849 -0
0.312247 0.399095 0 -0.0985162 -0.995135 -0
0.308108 0.209095 0 -0.574153 -0.818748 -0
0.313018 0.409095 0 -0.0350116 -0.999387 -0
0.31286 0.199095 0 -0.705726 -0.708485 -0
0.312321 0.419095 0 -0.0688911 -0.997624 -0
0.318847 0.55547 0 0.399591 -0.916694 0
0.315523 0.54547 0 0.399591 -0.916694 0
0.3185 0.56547 0 0.672671 -0.739942 0
0.314516 0.53547 0 0.262469 -0.96494 0
0.306746 0.57547 0 0.807284 -0.590163 0
0.16091 0.589704 0 0.999879 -0.0155522 0
0.17091 0.584589 0 0.999352 0.0359933 0
0.15091 0.581691 0 0.999416 0.0341566 0
0.18091 0.586368 0 0.99892 0.0464595 0
0.14091 0.583384 0 0.99987 0.0161036 0
0.19091 0.583526 0 0.999485 -0.0320831 0
0.13091 0.578734 0 0.999128 -0.0417579 0
0.20091 0.576137 0 0.996915 -0.0784867 0
0.12091 0.584352 0 0.999912 0.0132703 0
0.21091 0.589011 0 0.999248 -0.0387849 0
0.11091 0.584414 0 0.999781 -0.0209508 0
0.22091 0.591376 0 0.998497 -0.054801 0
0.10091 0.587491 0 0.9991 -0.0424244 0
0.23091 0.57617 0 0.997545 -0.0700342 0
0.09091 0.59074 0 0.998414 -0.0563021 0
0.24091 0.580923 0 0.999965 -0.00840911 0
0.08091 0.577485 0 0.999799 -0.0200662 0
0.25091 0.583003 0 0.997587 -0.0694282 0
0.07091 0.582405 0 0.998942 0.0459964 0
0.26091 0.579733 0 0.998756 -0.049873 0
0.06091 0.588624 0 0.996486 0.0837584 0
0.27091 0.576338 0 0.997353 -0.072716 0
0.05091 0.587233 0 0.999959 -0.00910862 0
0.28091 0.588489 0 0.992465 -0.122525 0
0.04091 0.586672 0 0.995938 -0.0900471 0
0.29091 0.581559 0 0.934611 -0.355671 0
0.03091 0.577238 0 0.754428 0.656383 0
0.30091 0.582575 0 0.807284 -0.590163 0
0.02091 0.579728 0 0.026325 -0.999653 0
0.31091 0.575813 0 0.672671 -0.739942 0
0.01091 0.586667 0 0.1125 -0.993652 0
0.73091 0.547521 0 0.99965 -0.0264616 0
0.74091 0.547128 0 0.999895 -0.0144595 0
0.72091 0.556763 0 0.999869 -0.0161807 0
0.75091 0.553872 0 0.999985 -0.00554272 0
0.71091 0.553059 0 0.999858 0.0168308 0
0.76091 0.54611 0 0.999122 0.0418906 0
0.70091 0.545485 0 0.999986 0.00536565 0
0.77091 0.54854 0 0.996346 0.0854132 0
0.69091 0.550862 0 0.996965 0.0778541 0
0.78091 0.55046 0 0.999339 0.0363497 0
0.68091 0.550135 0 0.991778 0.127969 0
0.79091 0.556781 0 0.998928 0.046281 0
0.67091 0.550253 0 0.999246 0.0388202 0
0.80091 0.555419 0 0.995863 0.0908635 0
0.66091 0.548051 0 0.999852 0.0171828 0
0.81091 0.551448 0 0.999841 -0.0178534 0
0.65091 0.54279 0 0.999986 -0.00528448 0
0.82091 0.547556 0 0.996897 -0.0787164 0
0.64091 0.544242 0 0.998653 -0.0518933 0
0.83091 0.556837 0 0.98978 -0.1426 0
0.63091 0.552933 0 0.997305 -0.0733709 0
0.84091 0.556025 0 0.995498 -0.0947822 0
0.62091 0.546278 0 0.992523 -0.122056 0
0.85091 0.543469 0 0.997658 -0.0684061 0
0.61091 0.554234 0 0.989981 -0.141202 0
0.86091 0.547301 0 0.999993 -0.00366434 0
0.60091 0.553166 0 0.995795 -0.0916117 0
0.87091 0.54362 0 0.999996 -0.00268231 0
0.59091 0.551057 0 0.99989 0.014836 0
0.88091 0.550845 0 0.9972 0.0747839 0
0.58091 0.555261 0 0.999773 0.021309 0
0.89091 0.547647 0 0.997951 0.0639855 0
0.57091 0.55486 0 0.996133 0.0878543 0
0.90091 0.556446 0 0.999686 -0.0250418 0
0.56091 0.55274 0 0.994613 0.103658 0
0.91091 0.553168 0 0.999997 0.00244695 0
0.55091 0.545027 0 0.993365 0.115004 0
0.92091 0.55372 0 0.996233 -0.0867177 0
0.54091 0.549364 0 0.995089 0.0989831 0
0.93091 0.541143 0 0.995456 -0.0952186 0
0.53091 0.547578 0 0.998017 0.0629403 0
0.94091 0.542671 0 0.997226 -0.074429 0
0.52091 0.545666 0 0.999822 -0.0188741 0
0.95091 0.553796 0 0.995578 0.0939375 0
0.51091 0.545524 0 0.991198 -0.132391 0
0.96091 0.543586 0 0.999934 0.0114591 0
0.50091 0.550523 0 0.95465 -0.29773 0
0.97091 0.545979 0 0.999956 -0.00933366 0
0.49091 0.547882 0 0.923862 -0.382727 0
0.98091 0.553324 0 0.804268 0.594267 0
0.48091 0.548261 0 0.779978 -0.625807 0
0.99091 0.544159 0 0.0882163 -0.996101 0
0.47091 0.556451 0 0.532262 -0.846579 0
0.474502 0.703635 0 0.06004 -0.998196 0
0.471373 0.693635 0 0.0508905 -0.998704 0
0.473213 0.713635 0 0.0461149 -0.998936 0
0.469598 0.683635 0 -0.0433757 -0.999059 -0
0.460766 0.723635 0 0.0780123 -0.996952 0
0.462918 0.673635 0 -0.102724 -0.99471 -0
0.460904 0.733635 0 0.121796 -0.992555 0
0.466634 0.663635 0 -0.0478929 -0.998852 -0
0.463468 0.743635 0 0.0547679 -0.998499 0
0.470185 0.653635 0 0.0380491 -0.999276 0
0.469562 0.753635 0 0.0357632 -0.99936 0
0.463208 0.643635 0 0.0932152 -0.995646 0
0.468084 0.763635 0 -0.00226328 -0.999997 -0
0.467723 0.633635 0 0.0604986 -0.998168 0
0.459591 0.773635 0 -0.0417892 -0.999126 -0
0.471608 0.623635 0 0.0417448 -0.999128 0
0.471123 0.783635 0 -0.0585459 -0.998285 -0
0.473918 0.613635 0 0.0165126 -0.999864 0
0.459811 0.793635 0 -0.0325511 -0.99947 -0
0.473289 0.603635 0 0.0461167 -0.998936 0
0.460649 0.803635 0 -0.0743199 -0.997235 -0
0.462544 0.593635 0 0.0594523 -0.998231 0
0.473163 0.813635 0 -0.12287 -0.992423 -0
0.471716 0.583635 0 0.194529 -0.980897 0
0.472778 0.823635 0 -0.0909035 -0.99586 -0
0.468369 0.573635 0 0.255705 -0.966755 0
0.466696 0.833635 0 -0.177457 -0.984129 -0
0.473071 0.563635 0 0.532262 -0.846579 0
0.469434 0.843635 0 -0.121677 -0.99257 -0
0.472931 0.553635 0 0.779978 -0.625807 0
0.472256 0.853635 0 0.0531362 -0.998587 0
0.305048 0.84818 0 -0.0542831 -0.998526 -0
0.311982 0.83818 0 -0.0674109 -0.997725 -0
0.318669 0.85818 0 -0.00948998 -0.999955 -0
0.30868 0.82818 0 -0.0186808 -0.999826 -0
0.309536 0.86818 0 0.0230451 -0.999734 0
0.307882 0.81818 0 -0.0437932 -0.999041 -0
0.308682 0.87818 0 0.04951 -0.998774 0
0.304758 0.80818 0 0.00853118 -0.999964 0
0.31018 0.88818 0 -0.00564502 -0.999984 -0
0.306626 0.79818 0 0.00530792 -0.999986 0
0.3087 0.89818 0 0.0117725 -0.999931 0
0.317087 0.78818 0 0.0519816 -0.998648 0
0.307617 0.90818 0 -0.0432245 -0.999065 -0
0.307126 0.77818 0 0.0968763 -0.995296 0
0.307514 0.91818 0 -0.0915766 -0.995798 -0
0.306272 0.76818 0 0.100539 -0.994933 0
0.314952 0.92818 0 -0.064452 -0.997921 -0
0.311949 0.75818 0 0.0619894 -0.998077 0
0.313877 0.93818 0 -0.0314436 -0.999506 -0
0.312411 0.74818 0 0.00663785 -0.999978 0
0.310015 0.94818 0 -0.014769 -0.999891 -0
0.316418 0.73818 0 0.06656 -0.997782 0
0.318042 0.95818 0 -0.142377 -0.989813 -0
0.313219 0.72818 0 0.0413198 -0.999146 0
0.309973 0.96818 0 0.108995 -0.994042 0
0.312312 0.71818 0 -0.0442932 -0.999019 -0
0.307564 0.97818 0 0.131496 -0.991317 0
0.309574 0.70818 0 -0.098768 -0.995111 -0
0.311232 0.98818 0 0.995735 -0.0922652 0
0.813635 0.683013 0 0.999428 -0.0338063 0
0.823635 0.681867 0 0.996784 -0.080134 0
0.803635 0.676398 0 0.997869 -0.0652469 0
0.833635 0.677342 0 0.999055 -0.0434713 0
0.793635 0.687087 0 0.996839 -0.0794428 0
0.843635 0.680137 0 0.997202 0.074753 0
0.783635 0.686055 0 0.999793 -0.0203387 0
0.853635 0.682197 0 0.996342 0.0854542 0
0.773635 0.679261 0 0.998761 -0.0497635 0
0.863635 0.677463 0 0.994539 0.104366 0
0.763635 0.685226 0 0.997048 -0.0767774 0
0.873635 0.680715 0 0.997215 0.0745799 0
0.753635 0.686048 0 0.999862 -0.0166018 0
0.883635 0.690245 0 0.999996 -0.00284694 0
0.743635 0.680171 0 0.999755 -0.0221535 0
0.893635 0.688345 0 0.999994 -0.0034301 0
0.733635 0.688251 0 0.999979 0.00644538 0
0.903635 0.684467 0 0.999096 -0.0425011 0
0.723635 0.688028 0 0.997212 0.0746214 0
0.913635 0.67871 0 0.994944 -0.100429 0
0.713635 0.684872 0 0.999533 0.0305615 0
0.923635 0.676903 0 0.99283 -0.119536 0
0.703635 0.683235 0 0.99949 0.0319227 0
0.933635 0.684447 0 0.999278 -0.038003 0
0.693635 0.678432 0 0.999708 0.0241683 0
0.943635 0.67755 0 0.996763 0.0803952 0
0.683635 0.679192 0 0.998523 -0.0543317 0
0.953635 0.6793 0 0.997967 0.0637357 0
0.673635 0.688489 0 0.961766 -0.273874 0
0.963635 0.68132 0 0.999422 0.0339973 0
0.663635 0.681432 0 0.929606 -0.368554 0
0.973635 0.684651 0 0.999915 0.0130004 0
0.653635 0.682418 0 0.760699 -0.649105 0
0.983635 0.690939 0 -0.519553 -0.854438 -0
0.643635 0.681412 0 0.615835 -0.787875 0
0.638557 0.769095 0 0.00614774 -0.999981 0
0.649007 0.759095 0 0.0476618 -0.998864 0
0.643902 0.779095 0 0.0671359 -0.997744 0
0.644925 0.749095 0 0.00567653 -0.999984 0
0.642522 0.789095 0 0.0881975 -0.996103 0
0.647372 0.739095 0 -0.0375169 -0.999296 -0
0.640152 0.799095 0 0.0950092 -0.995476 0
0.639753 0.729095 0 0.0374679 -0.999298 0
0.646748 0.809095 0 -0.17666 -0.984272 -0
0.645897 0.719095 0 0.132386 -0.991198 0
0.639571 0.819095 0 -0.231667 -0.972795 -0
0.641674 0.709095 0 0.200063 -0.979783 0
0.635873 0.829095 0 -0.313936 -0.949444 -0
0.638944 0.699095 0 0.445185 -0.895438 0
0.63815 0.839095 0 -0.433889 -0.900966 -0
0.6478 0.689095 0 0.760699 -0.649105 0
0.637128 0.849095 0 -0.625158 -0.780498 -0
0.81909 0.860697 0 0.993599 0.112962 0
0.80909 0.848373 0 0.998596 0.0529695 0
0.82909 0.850017 0 0.996896 0.0787265 0
0.79909 0.851697 0 1 -0.000446099 0
0.83909 0.860002 0 0.999866 0.0163582 0
0.78909 0.852194 0 0.997854 -0.0654759 0
0.84909 0.855363 0 0.998732 0.0503455 0
0.77909 0.851305 0 0.997728 -0.0673756 0
0.85909 0.861087 0 0.99936 -0.0357608 0
0.76909 0.855235 0 0.994593 -0.103854 0
0.86909 0.853353 0 0.999415 -0.0341986 0
0.75909 0.859859 0 0.998861 -0.0477227 0
0.87909 0.848706 0 0.997056 -0.0766797 0
0.74909 0.856634 0 0.99997 -0.00774958 0
0.88909 0.862395 0 0.99831 -0.0581189 0
0.73909 0.859203 0 0.99994 0.0109534 0
0.89909 0.852666 0 0.999139 -0.0414869 0
0.72909 0.853865 0 0.997458 0.0712641 0
0.90909 0.850398 0 0.999458 -0.0329342 0
0.71909 0.853216 0 0.991736 0.128296 0
0.91909 0.854489 0 0.998298 -0.0583129 0
0.70909 0.852765 0 0.995363 0.0961897 0
0.92909 0.852258 0 0.99714 -0.0755814 0
0.69909 0.855573 0 0.999421 0.0340196 0
0.93909 0.855915 0 0.999914 0.0131146 0
0.68909 0.85124 0 0.999998 -0.00219542 0
0.94909 0.847546 0 0.999899 -0.0141924 0
0.67909 0.846705 0 0.956767 0.290856 0
0.95909 0.849104 0 0.998219 -0.0596527 0
0.66909 0.852316 0 0.936305 0.351189 0
0.96909 0.854915 0 0.990431 0.13801 0
0.65909 0.859066 0 0.942867 0.333169 0
0.97909 0.855059 0 0.975978 0.217871 0
0.64909 0.852317 0 0.831215 0.555951 0
0.98909 0.861268 0 -0.369344 -0.929293 -0
