ply
format ascii 1.0
comment PCL generated
element vertex 8
property float x
property float y
property float z
property uchar red
property uchar green
property uchar blue
element face 1
property list uchar int vertex_indices
end_header
0.054988 0.031414 0.16946 0 0 0 
0.042076 0.031379 0.17204 0 0 0 
0.044004 0.031375 0.15959 0 0 0 
0.046808 0.031383 0.15894 0 0 0 
0.055542 0.031409 0.16139 0 0 0 
0.055607 0.03141 0.16142 0 0 0 
0.057338 0.031417 0.16521 0 0 0 
0.057699 0.031419 0.16654 0 0 0 
8 0 1 2 3 4 5 6 7
