ply
format ascii 1.0
comment PCL generated
element vertex 1288
property float x
property float y
property float z
property uchar red
property uchar green
property uchar blue
element face 322
property list uchar int vertex_indices
end_header
0.080494 0.13241 0.60833 0 0 0 
0.080494 0.1324 0.048729 0 0 0 
0.22192 0.13228 0.048729 0 0 0 
0.22192 0.13229 0.60833 0 0 0 
0.21642 0.12661 0.68767 0 0 0 
0.21642 0.12661 0.6083 0 0 0 
0.21634 0.0374 0.6083 0 0 0 
0.21634 0.0374 0.68767 0 0 0 
0.11674 0.14727 0.21105 0 0 0 
0.11674 0.14727 0.048576 0 0 0 
0.059678 0.14732 0.048576 0 0 0 
0.059678 0.14732 0.21105 0 0 0 
0.24269 0.1323 0.17447 0 0 0 
0.24269 0.1323 0.07738 0 0 0 
0.27115 0.1322 0.07738 0 0 0 
0.27115 0.1322 0.17447 0 0 0 
0.080497 0.11039 0.26203 0 0 0 
0.080497 0.049388 0.26203 0 0 0 
0.059902 0.049388 0.26203 0 0 0 
0.059902 0.11039 0.26202 0 0 0 
0.24275 0.14716 0.20766 0 0 0 
0.24275 0.14716 0.048601 0 0 0 
0.18729 0.14721 0.048601 0 0 0 
0.18729 0.14721 0.20766 0 0 0 
0.24349 0.1539 0.048624 0 0 0 
0.24349 0.012548 0.048627 0 0 0 
0.31167 0.012548 0.048594 0 0 0 
0.31167 0.1539 0.048591 0 0 0 
0.22638 0.012469 0.052012 0 0 0 
0.22638 0.012468 0.0003322 0 0 0 
0.096107 0.012943 0.0003322 0 0 0 
0.096107 0.012944 0.052012 0 0 0 
0.078825 0.031161 0.60794 0 0 0 
0.078825 0.031149 0.049169 0 0 0 
0.22182 0.031024 0.049169 0 0 0 
0.22182 0.031036 0.60794 0 0 0 
0.076063 0.00031881 0.013751 0 0 0 
0.041472 0.00031888 0.013763 0 0 0 
0.041472 0.01178 0.013699 0 0 0 
0.076063 0.01178 0.013687 0 0 0 
0.22189 0.1323 0.60758 0 0 0 
0.22189 0.1323 0.22851 0 0 0 
0.2218 0.030998 0.22851 0 0 0 
0.2218 0.030998 0.60758 0 0 0 
0.11663 0.019326 0.13248 0 0 0 
0.0012523 0.01759 0.13257 0 0 0 
0.0012522 0.011293 0.00019189 0 0 0 
0.11663 0.013029 0.00010927 0 0 0 
0.0001652 0.15488 0.048555 0 0 0 
0.00016489 0.15488 2.3872e-05 0 0 0 
4.0934e-05 0.01356 2.3872e-05 0 0 0 
4.1243e-05 0.01356 0.048555 0 0 0 
0.18719 0.017525 0.21104 0 0 0 
0.18719 0.017523 0.049362 0 0 0 
0.24261 0.017527 0.049362 0 0 0 
0.24261 0.017529 0.21104 0 0 0 
0.21637 0.036671 0.68552 0 0 0 
0.17509 0.036707 0.68552 0 0 0 
0.17509 0.036792 0.61067 0 0 0 
0.21637 0.036756 0.61067 0 0 0 
0.04072 0.16313 0.013718 0 0 0 
0.013716 0.16313 0.013731 0 0 0 
0.013716 0.15415 0.0137 0 0 0 
0.04072 0.15415 0.013687 0 0 0 
0.24274 0.14715 0.26197 0 0 0 
0.24274 0.14715 0.048659 0 0 0 
0.24263 0.017539 0.048659 0 0 0 
0.24263 0.017539 0.26197 0 0 0 
0.19944 0.11447 0.74532 0 0 0 
0.19944 0.11447 0.68886 0 0 0 
0.10584 0.11481 0.68886 0 0 0 
0.10584 0.11481 0.74532 0 0 0 
0.034688 0.13233 0.17621 0 0 0 
0.034627 0.13233 0.050564 0 0 0 
0.034538 0.031416 0.050564 0 0 0 
0.034599 0.031416 0.17621 0 0 0 
0.080524 0.13243 0.60803 0 0 0 
0.080522 0.13243 0.24755 0 0 0 
0.080433 0.031133 0.24755 0 0 0 
0.080435 0.031133 0.60803 0 0 0 
0.17225 0.1177 0.68643 0 0 0 
0.17225 0.11769 0.25907 0 0 0 
0.12872 0.11773 0.25907 0 0 0 
0.12872 0.11773 0.68643 0 0 0 
0.2219 0.11931 0.25961 0 0 0 
0.2219 0.11931 0.21104 0 0 0 
0.24269 0.11917 0.21104 0 0 0 
0.24269 0.11917 0.25961 0 0 0 
0.31145 0.15393 7.4904e-05 0 0 0 
0.1035 0.15412 7.5111e-05 0 0 0 
0.1035 0.15406 0.048626 0 0 0 
0.31145 0.15388 0.048626 0 0 0 
0.17498 0.045643 0.68336 0 0 0 
0.17498 0.045637 0.26013 0 0 0 
0.12923 0.045804 0.26013 0 0 0 
0.12923 0.04581 0.68336 0 0 0 
0.24261 0.043531 0.21106 0 0 0 
0.20263 0.043531 0.2111 0 0 0 
0.20263 0.017526 0.21101 0 0 0 
0.24261 0.017526 0.21098 0 0 0 
0.14398 0.091979 0.78588 0 0 0 
0.14411 0.09149 0.77984 0 0 0 
0.15011 0.093134 0.77984 0 0 0 
0.14998 0.093622 0.78588 0 0 0 
0.035078 0.031447 0.12585 0 0 0 
0.035078 0.031446 0.061623 0 0 0 
0.059608 0.031357 0.061623 0 0 0 
0.059608 0.031358 0.12585 0 0 0 
0.27114 0.13218 0.17445 0 0 0 
0.27114 0.13218 0.048609 0 0 0 
0.27105 0.030956 0.048609 0 0 0 
0.27105 0.030956 0.17445 0 0 0 
0.14864 0.084447 0.96783 0 0 0 
0.14965 0.083659 0.95704 0 0 0 
0.14521 0.078007 0.95704 0 0 0 
0.1442 0.078795 0.96783 0 0 0 
0.086217 0.12675 0.68859 0 0 0 
0.086216 0.12675 0.60863 0 0 0 
0.086138 0.036795 0.60863 0 0 0 
0.086138 0.036795 0.68859 0 0 0 
0.059708 0.14528 0.061195 0 0 0 
0.059694 0.13243 0.061195 0 0 0 
0.059684 0.13243 0.065554 0 0 0 
0.059698 0.14528 0.065554 0 0 0 
0.1565 0.089613 0.87317 0 0 0 
0.15633 0.089492 0.86763 0 0 0 
0.15955 0.084968 0.86763 0 0 0 
0.15972 0.085088 0.87317 0 0 0 
0.097264 0.16035 0.053084 0 0 0 
0.074129 0.16037 0.053084 0 0 0 
0.074129 0.16046 0.0239 0 0 0 
0.097264 0.16044 0.0239 0 0 0 
0.23391 0.012596 0.048585 0 0 0 
0.23391 0.012595 4.0054e-05 0 0 0 
0.31157 0.012527 4.0054e-05 0 0 0 
0.31157 0.012528 0.048585 0 0 0 
0.1705 0.045743 0.36552 0 0 0 
0.17048 0.045743 0.31429 0 0 0 
0.1706 0.031139 0.31429 0 0 0 
0.17062 0.03114 0.36552 0 0 0 
0.1318 0.13234 0.48454 0 0 0 
0.1318 0.11771 0.48454 0 0 0 
0.13184 0.11771 0.57262 0 0 0 
0.13184 0.13234 0.57262 0 0 0 
0.12633 0.019036 0.0004199 0 0 0 
0.1155 0.019065 0.00041998 0 0 0 
0.1155 0.019049 0.0062007 0 0 0 
0.12633 0.01902 0.0062006 0 0 0 
0.11664 0.028777 0.095649 0 0 0 
0.11663 0.028777 0.051695 0 0 0 
0.11661 0.019952 0.051695 0 0 0 
0.11663 0.019952 0.095649 0 0 0 
0.14002 0.072455 0.87802 0 0 0 
0.13982 0.072342 0.87282 0 0 0 
0.13791 0.075809 0.87282 0 0 0 
0.13811 0.075921 0.87802 0 0 0 
0.18721 0.028569 0.19188 0 0 0 
0.1872 0.028569 0.18299 0 0 0 
0.18717 0.019724 0.18299 0 0 0 
0.18718 0.019724 0.19188 0 0 0 
0.059608 0.017695 0.21017 0 0 0 
0.059608 0.017694 0.1312 0 0 0 
0.11661 0.017644 0.1312 0 0 0 
0.11661 0.017645 0.21017 0 0 0 
0.080393 0.044586 0.2558 0 0 0 
0.080393 0.044604 0.21424 0 0 0 
0.061308 0.044617 0.21424 0 0 0 
0.061308 0.0446 0.2558 0 0 0 
0.13349 0.042213 0.53813 0 0 0 
0.13348 0.042213 0.49841 0 0 0 
0.13347 0.031129 0.49841 0 0 0 
0.13348 0.031129 0.53813 0 0 0 
0.12728 7.5695e-05 0.01623 0 0 0 
0.12112 0.00021502 0.016218 0 0 0 
0.12112 0.00050272 0.019575 0 0 0 
0.12728 0.0003634 0.019587 0 0 0 
0.1942 0.15445 0.013709 0 0 0 
0.1704 0.15445 0.013705 0 0 0 
0.1704 0.16481 0.013742 0 0 0 
0.1942 0.16481 0.013745 0 0 0 
0.00016241 0.15417 0.048631 0 0 0 
0.00016241 0.15417 7.4049e-05 0 0 0 
0.078329 0.15417 7.4049e-05 0 0 0 
0.078329 0.15418 0.048631 0 0 0 
0.29772 0.012144 0.013624 0 0 0 
0.27515 0.012144 0.013625 0 0 0 
0.27515 7.125e-05 0.013849 0 0 0 
0.29772 7.1241e-05 0.013849 0 0 0 
0.17477 0.10183 0.76602 0 0 0 
0.17477 0.06117 0.76602 0 0 0 
0.12419 0.06117 0.76604 0 0 0 
0.12419 0.10183 0.76604 0 0 0 
0.1271 0.036778 0.68677 0 0 0 
0.1271 0.036777 0.61139 0 0 0 
0.088392 0.036811 0.61139 0 0 0 
0.088392 0.036812 0.68677 0 0 0 
0.26037 0.15412 0.013708 0 0 0 
0.23623 0.15412 0.013711 0 0 0 
0.23623 0.16442 0.01373 0 0 0 
0.26037 0.16442 0.013727 0 0 0 
0.059706 0.14735 0.26086 0 0 0 
0.059706 0.14735 0.16348 0 0 0 
0.059594 0.019971 0.16348 0 0 0 
0.059595 0.019971 0.26086 0 0 0 
0.18732 0.14719 0.17017 0 0 0 
0.18727 0.14719 0.073572 0 0 0 
0.18726 0.13229 0.073572 0 0 0 
0.18731 0.13229 0.17017 0 0 0 
0.17147 0.13179 0.4861 0 0 0 
0.17153 0.13179 0.45566 0 0 0 
0.17142 0.11767 0.45566 0 0 0 
0.17136 0.11767 0.4861 0 0 0 
0.059573 0.03128 0.092283 0 0 0 
0.059548 0.03128 0.082685 0 0 0 
0.059602 0.021522 0.082685 0 0 0 
0.059627 0.021523 0.092283 0 0 0 
0.20732 0.13298 0.60689 0 0 0 
0.20212 0.13234 0.60602 0 0 0 
0.20212 0.129 0.60848 0 0 0 
0.20732 0.12964 0.60935 0 0 0 
0.17147 0.13119 0.33573 0 0 0 
0.1715 0.13119 0.25931 0 0 0 
0.17145 0.11767 0.25931 0 0 0 
0.17142 0.11767 0.33573 0 0 0 
0.11768 0.15124 0.048611 0 0 0 
0.11768 0.13314 0.048609 0 0 0 
0.13478 0.13314 0.048594 0 0 0 
0.13478 0.15124 0.048596 0 0 0 
0.12168 0.072805 0.7606 0 0 0 
0.12169 0.058492 0.76062 0 0 0 
0.11118 0.058492 0.76066 0 0 0 
0.11118 0.072805 0.76064 0 0 0 
0.1055 0.065621 0.68861 0 0 0 
0.1055 0.03682 0.68857 0 0 0 
0.086979 0.03682 0.68854 0 0 0 
0.086979 0.065621 0.68858 0 0 0 
0.064118 0.1541 0.048618 0 0 0 
0.064118 0.013664 0.04862 0 0 0 
0.00013473 0.013664 0.048601 0 0 0 
0.00013473 0.1541 0.048598 0 0 0 
0.099003 0.10971 0.69294 0 0 0 
0.098954 0.053897 0.69294 0 0 0 
0.09919 0.053897 0.74569 0 0 0 
0.099239 0.10971 0.74569 0 0 0 
0.18788 0.14722 0.059532 0 0 0 
0.18743 0.14725 0.048574 0 0 0 
0.18685 0.13833 0.048574 0 0 0 
0.1873 0.1383 0.059532 0 0 0 
0.1545 0.068137 0.85537 0 0 0 
0.14571 0.067634 0.85548 0 0 0 
0.14571 0.066592 0.8509 0 0 0 
0.1545 0.067095 0.85079 0 0 0 
0.11671 0.14731 0.082931 0 0 0 
0.11671 0.14731 0.053488 0 0 0 
0.11675 0.1331 0.053488 0 0 0 
0.11675 0.1331 0.082931 0 0 0 
0.31172 0.15303 0.048618 0 0 0 
0.31172 0.15303 0.00016855 0 0 0 
0.3116 0.01791 0.00016855 0 0 0 
0.3116 0.01791 0.048618 0 0 0 
0.091074 0.001836 0.019574 0 0 0 
0.048105 0.0018362 0.019524 0 0 0 
0.048105 0.012745 0.019576 0 0 0 
0.091074 0.012745 0.019625 0 0 0 
0.19749 0.048753 0.74563 0 0 0 
0.19749 0.048752 0.68159 0 0 0 
0.10445 0.048745 0.68159 0 0 0 
0.10445 0.048746 0.74563 0 0 0 
0.17054 0.045462 0.49429 0 0 0 
0.1705 0.045462 0.41998 0 0 0 
0.17061 0.031034 0.41998 0 0 0 
0.17064 0.031034 0.49429 0 0 0 
0.1907 0.16562 0.019556 0 0 0 
0.1907 0.15519 0.019539 0 0 0 
0.18621 0.15519 0.019547 0 0 0 
0.18621 0.16562 0.019565 0 0 0 
0.13186 0.12152 0.60721 0 0 0 
0.13075 0.12154 0.60707 0 0 0 
0.13075 0.12929 0.60829 0 0 0 
0.13186 0.12927 0.60843 0 0 0 
0.11661 0.012716 0.013255 0 0 0 
0.097242 0.012722 0.013372 0 0 0 
0.097242 0.0019613 0.013929 0 0 0 
0.11661 0.0019552 0.013811 0 0 0 
0.15449 0.067567 0.80363 0 0 0 
0.15445 0.067763 0.79601 0 0 0 
0.14923 0.066548 0.79601 0 0 0 
0.14927 0.066352 0.80363 0 0 0 
0.10617 0.005717 0.053899 0 0 0 
0.10734 0.0058224 0.019539 0 0 0 
0.10658 0.014408 0.019539 0 0 0 
0.1054 0.014302 0.053899 0 0 0 
0.23117 0.0048626 0.053269 0 0 0 
0.23314 0.0052421 0.038454 0 0 0 
0.23154 0.013514 0.038454 0 0 0 
0.22957 0.013134 0.053269 0 0 0 
0.17148 0.13232 0.42336 0 0 0 
0.1715 0.13232 0.33944 0 0 0 
0.17145 0.11769 0.33944 0 0 0 
0.17143 0.11769 0.42336 0 0 0 
0.26777 0.13222 0.065264 0 0 0 
0.26777 0.13223 0.051163 0 0 0 
0.24635 0.13229 0.051163 0 0 0 
0.24635 0.13227 0.065264 0 0 0 
0.31615 0.064831 0.019596 0 0 0 
0.31615 0.055199 0.019577 0 0 0 
0.32446 0.055199 0.019479 0 0 0 
0.32446 0.064831 0.019498 0 0 0 
0.24262 0.031 0.17336 0 0 0 
0.24262 0.030998 0.055354 0 0 0 
0.27106 0.031 0.055354 0 0 0 
0.27106 0.031002 0.17336 0 0 0 
0.14757 0.064573 0.83151 0 0 0 
0.14757 0.064571 0.76895 0 0 0 
0.13472 0.076782 0.76895 0 0 0 
0.13473 0.076784 0.83151 0 0 0 
0.086208 0.12671 0.68858 0 0 0 
0.086208 0.12671 0.60834 0 0 0 
0.12841 0.12671 0.60834 0 0 0 
0.12841 0.12671 0.68858 0 0 0 
0.080426 0.041818 0.24196 0 0 0 
0.080429 0.041818 0.21922 0 0 0 
0.080475 0.031174 0.21922 0 0 0 
0.080472 0.031174 0.24196 0 0 0 
0.03458 0.12964 0.17618 0 0 0 
0.03458 0.039265 0.17619 0 0 0 
0.059648 0.039265 0.17619 0 0 0 
0.059648 0.12964 0.17619 0 0 0 
0.12877 0.12384 0.6423 0 0 0 
0.12876 0.12384 0.63749 0 0 0 
0.12874 0.12104 0.63749 0 0 0 
0.12875 0.12104 0.6423 0 0 0 
0.13337 0.032208 0.41597 0 0 0 
0.13344 0.032207 0.38631 0 0 0 
0.13367 0.045743 0.38631 0 0 0 
0.1336 0.045744 0.41597 0 0 0 
0.11665 0.029298 0.15494 0 0 0 
0.11667 0.029298 0.12197 0 0 0 
0.11658 0.017614 0.12197 0 0 0 
0.11655 0.017614 0.15494 0 0 0 
0.20249 0.11267 0.68856 0 0 0 
0.20249 0.053738 0.68856 0 0 0 
0.20252 0.053738 0.73947 0 0 0 
0.20251 0.11267 0.73947 0 0 0 
0.079255 0.11925 0.26201 0 0 0 
0.063071 0.1193 0.26201 0 0 0 
0.063071 0.11948 0.23985 0 0 0 
0.079255 0.11943 0.23985 0 0 0 
0.18744 0.052445 0.74509 0 0 0 
0.13967 0.052604 0.74503 0 0 0 
0.13967 0.060499 0.76714 0 0 0 
0.18744 0.06034 0.7672 0 0 0 
0.2709 0.13223 0.17444 0 0 0 
0.2709 0.034157 0.17444 0 0 0 
0.24269 0.034157 0.17446 0 0 0 
0.24269 0.13223 0.17445 0 0 0 
0.30801 0.068451 0.048453 0 0 0 
0.30859 0.064652 0.047902 0 0 0 
0.31318 0.064652 0.05276 0 0 0 
0.3126 0.068451 0.05331 0 0 0 
0.13181 0.12911 0.43304 0 0 0 
0.13181 0.12911 0.42552 0 0 0 
0.13182 0.11883 0.42552 0 0 0 
0.13182 0.11883 0.43304 0 0 0 
0.13355 0.045411 0.37864 0 0 0 
0.13363 0.045409 0.34895 0 0 0 
0.13326 0.03105 0.34895 0 0 0 
0.13319 0.031052 0.37864 0 0 0 
0.1371 0.084786 0.86982 0 0 0 
0.1371 0.084787 0.84276 0 0 0 
0.14672 0.093732 0.84276 0 0 0 
0.14672 0.093731 0.86982 0 0 0 
0.059596 0.030043 0.17011 0 0 0 
0.05959 0.030043 0.16068 0 0 0 
0.059601 0.018901 0.16068 0 0 0 
0.059607 0.018901 0.17011 0 0 0 
0.059268 0.147 0.04854 0 0 0 
0.05935 0.13371 0.048535 0 0 0 
0.059902 0.13371 0.057802 0 0 0 
0.05982 0.147 0.057807 0 0 0 
0.20552 0.15842 0.04862 0 0 0 
0.20552 0.14748 0.048617 0 0 0 
0.22817 0.14748 0.048588 0 0 0 
0.22817 0.15842 0.048591 0 0 0 
0.22469 0.16073 0.047989 0 0 0 
0.22474 0.16084 0.030666 0 0 0 
0.24281 0.15199 0.030666 0 0 0 
0.24276 0.15188 0.047989 0 0 0 
0.17153 0.13222 0.5694 0 0 0 
0.17149 0.13222 0.53359 0 0 0 
0.17144 0.11782 0.53359 0 0 0 
0.17148 0.11782 0.5694 0 0 0 
0.034654 0.13244 0.17618 0 0 0 
0.034654 0.13244 0.049002 0 0 0 
0.059712 0.13244 0.049002 0 0 0 
0.059712 0.13245 0.17618 0 0 0 
0.14625 0.082054 0.992 0 0 0 
0.14639 0.083086 0.98069 0 0 0 
0.15185 0.082378 0.98069 0 0 0 
0.15171 0.081346 0.992 0 0 0 
0.22669 0.013263 0.04849 0 0 0 
0.21106 0.014101 0.048681 0 0 0 
0.21106 0.012824 0.054287 0 0 0 
0.22669 0.011985 0.054096 0 0 0 
0.13544 0.08135 0.78855 0 0 0 
0.1353 0.081344 0.77513 0 0 0 
0.1355 0.076481 0.77513 0 0 0 
0.13563 0.076486 0.78855 0 0 0 
0.23993 0.11921 0.21115 0 0 0 
0.22412 0.11921 0.21111 0 0 0 
0.22412 0.14718 0.21092 0 0 0 
0.23993 0.14718 0.21096 0 0 0 
0.13326 0.03109 0.59362 0 0 0 
0.13342 0.031086 0.56133 0 0 0 
0.13368 0.04441 0.56133 0 0 0 
0.13352 0.044413 0.59362 0 0 0 
0.18741 0.14721 0.1926 0 0 0 
0.18746 0.14721 0.17916 0 0 0 
0.18725 0.13563 0.17916 0 0 0 
0.1872 0.13563 0.1926 0 0 0 
0.059699 0.14722 0.12374 0 0 0 
0.059702 0.14722 0.089323 0 0 0 
0.059698 0.13395 0.089323 0 0 0 
0.059696 0.13395 0.12374 0 0 0 
0.1525 0.083221 0.97379 0 0 0 
0.15255 0.083222 0.96122 0 0 0 
0.15273 0.076631 0.96122 0 0 0 
0.15268 0.07663 0.97379 0 0 0 
0.1084 0.16623 0.019561 0 0 0 
0.099449 0.16619 0.019562 0 0 0 
0.099449 0.16603 0.013797 0 0 0 
0.1084 0.16608 0.013796 0 0 0 
0.059575 0.024652 0.07817 0 0 0 
0.059575 0.024652 0.07486 0 0 0 
0.0596 0.018166 0.07486 0 0 0 
0.0596 0.018166 0.07817 0 0 0 
0.089365 0.16632 0.015224 0 0 0 
0.053667 0.16645 0.013947 0 0 0 
0.053667 0.15422 0.012634 0 0 0 
0.089365 0.15408 0.013911 0 0 0 
0.17152 0.13234 0.52331 0 0 0 
0.17162 0.13234 0.4903 0 0 0 
0.17144 0.1177 0.4903 0 0 0 
0.17134 0.1177 0.52331 0 0 0 
0.20066 0.14587 0.21096 0 0 0 
0.18748 0.14587 0.21085 0 0 0 
0.18748 0.13227 0.21128 0 0 0 
0.20066 0.13227 0.21139 0 0 0 
0.11384 0.10281 0.75887 0 0 0 
0.11389 0.10277 0.75595 0 0 0 
0.11154 0.10019 0.75595 0 0 0 
0.11149 0.10023 0.75887 0 0 0 
0.033871 0.16464 0.019602 0 0 0 
0.033871 0.15788 0.019583 0 0 0 
0.020248 0.15788 0.01954 0 0 0 
0.020248 0.16464 0.019558 0 0 0 
0.098868 0.0056001 0.042679 0 0 0 
0.075858 0.0056014 0.042679 0 0 0 
0.075858 0.0055964 0.020746 0 0 0 
0.098868 0.0055951 0.020746 0 0 0 
0.16484 0.15495 0.013567 0 0 0 
0.15294 0.15497 0.013272 0 0 0 
0.15294 0.16621 0.013973 0 0 0 
0.16484 0.16619 0.014269 0 0 0 
0.049898 0.031412 0.15282 0 0 0 
0.049898 0.03141 0.14797 0 0 0 
0.038387 0.031418 0.14797 0 0 0 
0.038387 0.03142 0.15282 0 0 0 
0.22748 0.16011 0.046139 0 0 0 
0.22748 0.16013 0.041966 0 0 0 
0.23305 0.16008 0.041966 0 0 0 
0.23305 0.16006 0.046139 0 0 0 
0.26457 0.16613 0.018819 0 0 0 
0.23564 0.16616 0.01946 0 0 0 
0.23564 0.15434 0.019937 0 0 0 
0.26457 0.15432 0.019297 0 0 0 
0.14598 0.0012976 0.019548 0 0 0 
0.11027 0.0012976 0.019565 0 0 0 
0.11027 0.011956 0.019576 0 0 0 
0.14598 0.011956 0.019559 0 0 0 
0.15296 0.093831 0.8652 0 0 0 
0.14586 0.093081 0.86505 0 0 0 
0.14586 0.089317 0.88421 0 0 0 
0.15296 0.090066 0.88436 0 0 0 
0.19535 0.058775 0.75436 0 0 0 
0.19537 0.058758 0.74951 0 0 0 
0.19189 0.055279 0.74951 0 0 0 
0.19188 0.055296 0.75436 0 0 0 
0.12869 0.044657 0.65233 0 0 0 
0.12866 0.044656 0.64159 0 0 0 
0.12868 0.040387 0.64159 0 0 0 
0.12871 0.040387 0.65233 0 0 0 
0.19024 0.10634 0.75085 0 0 0 
0.19017 0.10627 0.74568 0 0 0 
0.1956 0.10101 0.74568 0 0 0 
0.19567 0.10109 0.75085 0 0 0 
0.17128 0.1306 0.60971 0 0 0 
0.16987 0.12999 0.5988 0 0 0 
0.17293 0.12298 0.5988 0 0 0 
0.17433 0.12359 0.60971 0 0 0 
0.1057 0.073822 0.75256 0 0 0 
0.1058 0.07017 0.75256 0 0 0 
0.10556 0.07017 0.74567 0 0 0 
0.10546 0.073822 0.74568 0 0 0 
0.13349 0.043477 0.48034 0 0 0 
0.13349 0.031577 0.48034 0 0 0 
0.13348 0.031577 0.49041 0 0 0 
0.13348 0.043477 0.49041 0 0 0 
0.21542 0.071094 0.68858 0 0 0 
0.18479 0.071094 0.68863 0 0 0 
0.18479 0.036724 0.68856 0 0 0 
0.21542 0.036724 0.68851 0 0 0 
0.19995 0.00013495 0.015339 0 0 0 
0.19177 0.00016372 0.01534 0 0 0 
0.19177 0.00014005 0.017637 0 0 0 
0.19995 0.00011128 0.017637 0 0 0 
0.31935 0.064303 0.038378 0 0 0 
0.31207 0.064319 0.038378 0 0 0 
0.31207 0.064293 0.047956 0 0 0 
0.31935 0.064276 0.047956 0 0 0 
0.24108 0.044444 0.26002 0 0 0 
0.24108 0.04445 0.22541 0 0 0 
0.22333 0.044459 0.22541 0 0 0 
0.22333 0.044453 0.26002 0 0 0 
0.1402 0.088106 0.77996 0 0 0 
0.1404 0.087929 0.77106 0 0 0 
0.13523 0.081892 0.77106 0 0 0 
0.13502 0.082069 0.77996 0 0 0 
0.18708 0.028222 0.17894 0 0 0 
0.18714 0.028223 0.16522 0 0 0 
0.18733 0.017562 0.16522 0 0 0 
0.18726 0.017561 0.17894 0 0 0 
0.18011 0.098739 0.7606 0 0 0 
0.18011 0.085025 0.76067 0 0 0 
0.19179 0.085025 0.76052 0 0 0 
0.19179 0.098739 0.76045 0 0 0 
0.13348 0.043901 0.43914 0 0 0 
0.13349 0.043901 0.43277 0 0 0 
0.13347 0.042211 0.43277 0 0 0 
0.13346 0.042212 0.43914 0 0 0 
0.046657 0.031408 0.14382 0 0 0 
0.036621 0.031406 0.14382 0 0 0 
0.036621 0.031429 0.13464 0 0 0 
0.046657 0.031431 0.13464 0 0 0 
0.12194 0.16595 0.021349 0 0 0 
0.12292 0.15629 0.019026 0 0 0 
0.1018 0.15629 0.010184 0 0 0 
0.10083 0.16595 0.012508 0 0 0 
0.21402 0.10424 0.68858 0 0 0 
0.21402 0.077915 0.68845 0 0 0 
0.20251 0.077915 0.68859 0 0 0 
0.20251 0.10424 0.68872 0 0 0 
0.059701 0.1194 0.23434 0 0 0 
0.059701 0.11943 0.22066 0 0 0 
0.068631 0.1194 0.22066 0 0 0 
0.06863 0.11937 0.23434 0 0 0 
0.17537 0.12664 0.68706 0 0 0 
0.17537 0.12664 0.61051 0 0 0 
0.21494 0.12661 0.61051 0 0 0 
0.21494 0.12661 0.68706 0 0 0 
0.19613 0.096778 0.75462 0 0 0 
0.19613 0.096778 0.74566 0 0 0 
0.19612 0.078601 0.74566 0 0 0 
0.19612 0.078601 0.75462 0 0 0 
0.13172 0.12936 0.44252 0 0 0 
0.13184 0.12936 0.43315 0 0 0 
0.13193 0.12226 0.43315 0 0 0 
0.13181 0.12226 0.44252 0 0 0 
0.3226 0.16301 0.013708 0 0 0 
0.3226 0.12374 0.013709 0 0 0 
0.27195 0.12374 0.013694 0 0 0 
0.27195 0.16301 0.013693 0 0 0 
0.23312 0.15397 0.028989 0 0 0 
0.23328 0.15398 0.021225 0 0 0 
0.23296 0.15889 0.021225 0 0 0 
0.23281 0.15888 0.028989 0 0 0 
0.13363 0.10161 0.76432 0 0 0 
0.13364 0.10182 0.75616 0 0 0 
0.12536 0.10206 0.75616 0 0 0 
0.12535 0.10185 0.76432 0 0 0 
0.2254 0.16008 0.019605 0 0 0 
0.21197 0.16008 0.019675 0 0 0 
0.21197 0.16286 0.019578 0 0 0 
0.2254 0.16286 0.019508 0 0 0 
0.28322 0.0025914 0.019536 0 0 0 
0.28001 0.0025915 0.019532 0 0 0 
0.28001 0.0082814 0.019552 0 0 0 
0.28322 0.0082814 0.019557 0 0 0 
0.18392 0.00017004 0.014242 0 0 0 
0.15818 0.00014499 0.013882 0 0 0 
0.15818 0.012937 0.012992 0 0 0 
0.18392 0.012962 0.013352 0 0 0 
0.059703 0.14299 0.12841 0 0 0 
0.059703 0.13574 0.12841 0 0 0 
0.059688 0.13574 0.13594 0 0 0 
0.059688 0.14299 0.13594 0 0 0 
0.17052 0.045741 0.554 0 0 0 
0.1705 0.045741 0.5115 0 0 0 
0.17062 0.031062 0.5115 0 0 0 
0.17064 0.031063 0.554 0 0 0 
0.10745 0.068877 0.74585 0 0 0 
0.10745 0.051457 0.74583 0 0 0 
0.099052 0.051457 0.74542 0 0 0 
0.099051 0.068877 0.74544 0 0 0 
0.11666 0.030385 0.18538 0 0 0 
0.11663 0.030385 0.16299 0 0 0 
0.1166 0.018246 0.16299 0 0 0 
0.11662 0.018246 0.18538 0 0 0 
0.20777 0.11403 0.68853 0 0 0 
0.20777 0.1095 0.68854 0 0 0 
0.21552 0.1095 0.68859 0 0 0 
0.21552 0.11403 0.68858 0 0 0 
0.15029 0.068262 0.88082 0 0 0 
0.15003 0.067166 0.87087 0 0 0 
0.14282 0.068898 0.87087 0 0 0 
0.14308 0.069994 0.88082 0 0 0 
0.3115 0.094325 0.030546 0 0 0 
0.30866 0.092661 0.020668 0 0 0 
0.30957 0.091107 0.020668 0 0 0 
0.31241 0.092771 0.030546 0 0 0 
0.1027 0.014108 0.053848 0 0 0 
0.072494 0.014108 0.053878 0 0 0 
0.072494 0.0056097 0.053936 0 0 0 
0.1027 0.0056095 0.053906 0 0 0 
0.22252 0.16011 0.043871 0 0 0 
0.22252 0.16012 0.02399 0 0 0 
0.20099 0.16013 0.02399 0 0 0 
0.20099 0.16012 0.043871 0 0 0 
0.13193 0.1177 0.38311 0 0 0 
0.13199 0.1177 0.34889 0 0 0 
0.13173 0.13235 0.34889 0 0 0 
0.13167 0.13235 0.38311 0 0 0 
0.2228 0.15392 0.013109 0 0 0 
0.20947 0.15391 0.013456 0 0 0 
0.20947 0.16502 0.013963 0 0 0 
0.2228 0.16504 0.013615 0 0 0 
0.042076 0.031379 0.17204 0 0 0 
0.042076 0.031369 0.15894 0 0 0 
0.057699 0.031414 0.15894 0 0 0 
0.057699 0.031424 0.17204 0 0 0 
0.15397 0.08212 0.89039 0 0 0 
0.15392 0.076172 0.89028 0 0 0 
0.15765 0.076172 0.88886 0 0 0 
0.1577 0.08212 0.88898 0 0 0 
0.059614 0.028627 0.12888 0 0 0 
0.05961 0.018607 0.12887 0 0 0 
0.059594 0.018607 0.13913 0 0 0 
0.059598 0.028627 0.13913 0 0 0 
0.15136 0.093363 0.82032 0 0 0 
0.14801 0.093001 0.82025 0 0 0 
0.14801 0.093526 0.81726 0 0 0 
0.15136 0.093887 0.81733 0 0 0 
0.1373 0.085118 0.83942 0 0 0 
0.13733 0.085076 0.81758 0 0 0 
0.14532 0.092502 0.81758 0 0 0 
0.14528 0.092544 0.83942 0 0 0 
0.16313 0.082193 0.84937 0 0 0 
0.16296 0.08204 0.80413 0 0 0 
0.15202 0.0939 0.80413 0 0 0 
0.15218 0.094053 0.84937 0 0 0 
0.17058 0.045705 0.40627 0 0 0 
0.17059 0.045705 0.39925 0 0 0 
0.17057 0.038251 0.39925 0 0 0 
0.17056 0.038251 0.40627 0 0 0 
0.14928 0.083584 0.89058 0 0 0 
0.14369 0.083444 0.89001 0 0 0 
0.14369 0.086446 0.88927 0 0 0 
0.14928 0.086586 0.88984 0 0 0 
0.2297 0.15817 0.05396 0 0 0 
0.22446 0.15814 0.054223 0 0 0 
0.22446 0.1523 0.053639 0 0 0 
0.2297 0.15233 0.053377 0 0 0 
0.17057 0.04572 0.60833 0 0 0 
0.17057 0.04572 0.57077 0 0 0 
0.17056 0.031427 0.57077 0 0 0 
0.17056 0.031427 0.60833 0 0 0 
0.1706 0.042334 0.38552 0 0 0 
0.17067 0.042339 0.38032 0 0 0 
0.1704 0.045705 0.38032 0 0 0 
0.17033 0.0457 0.38552 0 0 0 
0.18028 0.00014038 0.019096 0 0 0 
0.17229 0.00016807 0.018833 0 0 0 
0.17229 0.0074925 0.019604 0 0 0 
0.18028 0.0074648 0.019867 0 0 0 
0.15225 0.066729 0.78134 0 0 0 
0.15225 0.066687 0.77557 0 0 0 
0.14612 0.066614 0.77557 0 0 0 
0.14612 0.066656 0.78134 0 0 0 
0.18721 0.028673 0.12945 0 0 0 
0.18719 0.028673 0.10538 0 0 0 
0.18718 0.02072 0.10538 0 0 0 
0.18719 0.02072 0.12945 0 0 0 
0.22725 0.0052106 0.053914 0 0 0 
0.22423 0.0052106 0.053917 0 0 0 
0.22423 0.010221 0.053903 0 0 0 
0.22725 0.010221 0.0539 0 0 0 
0.1548 0.091593 0.77507 0 0 0 
0.15563 0.092131 0.76605 0 0 0 
0.16347 0.079929 0.76605 0 0 0 
0.16264 0.079391 0.77507 0 0 0 
0.069707 0.012927 0.053584 0 0 0 
0.070175 0.0078313 0.053492 0 0 0 
0.067746 0.0078313 0.041177 0 0 0 
0.067277 0.012927 0.04127 0 0 0 
0.1869 0.1322 0.055181 0 0 0 
0.1819 0.13004 0.052828 0 0 0 
0.1819 0.13528 0.048018 0 0 0 
0.1869 0.13744 0.050371 0 0 0 
0.13189 0.13202 0.34143 0 0 0 
0.13184 0.13202 0.29529 0 0 0 
0.1318 0.11811 0.29529 0 0 0 
0.13186 0.1181 0.34143 0 0 0 
0.086214 0.12674 0.68845 0 0 0 
0.086213 0.087416 0.68855 0 0 0 
0.10785 0.087416 0.68869 0 0 0 
0.10785 0.12674 0.68859 0 0 0 
0.15408 0.067655 0.81491 0 0 0 
0.15408 0.067661 0.80675 0 0 0 
0.15896 0.072356 0.80675 0 0 0 
0.15896 0.07235 0.81491 0 0 0 
0.059659 0.14517 0.21094 0 0 0 
0.05966 0.12215 0.2109 0 0 0 
0.087314 0.12215 0.21107 0 0 0 
0.087314 0.14517 0.2111 0 0 0 
0.24332 0.011974 0.013681 0 0 0 
0.22559 0.011974 0.0137 0 0 0 
0.22559 0.00013022 0.013767 0 0 0 
0.24332 0.00013011 0.013747 0 0 0 
0.11673 0.10618 0.75589 0 0 0 
0.11673 0.10619 0.74935 0 0 0 
0.12398 0.10621 0.74935 0 0 0 
0.12398 0.10619 0.75589 0 0 0 
0.13183 0.13101 0.47091 0 0 0 
0.13185 0.13101 0.45348 0 0 0 
0.13183 0.11812 0.45348 0 0 0 
0.13182 0.11812 0.47091 0 0 0 
0.15265 0.082538 0.90584 0 0 0 
0.15265 0.082538 0.90097 0 0 0 
0.15264 0.076708 0.90097 0 0 0 
0.15263 0.076708 0.90584 0 0 0 
0.32239 0.066958 0.013722 0 0 0 
0.31188 0.066958 0.013728 0 0 0 
0.31188 0.092906 0.013709 0 0 0 
0.32239 0.092906 0.013703 0 0 0 
0.22181 0.10733 0.26201 0 0 0 
0.22181 0.044454 0.26201 0 0 0 
0.2388 0.044454 0.262 0 0 0 
0.2388 0.10733 0.262 0 0 0 
0.1376 0.086283 0.80209 0 0 0 
0.13822 0.086026 0.79196 0 0 0 
0.13552 0.079542 0.79196 0 0 0 
0.1349 0.079799 0.80209 0 0 0 
0.21253 0.012342 0.013685 0 0 0 
0.19521 0.012342 0.01365 0 0 0 
0.19521 0.00013242 0.013786 0 0 0 
0.21253 0.0001328 0.01382 0 0 0 
0.12989 0.041834 0.64092 0 0 0 
0.12939 0.042074 0.63366 0 0 0 
0.12659 0.036235 0.63366 0 0 0 
0.12709 0.035996 0.64092 0 0 0 
0.15352 0.012502 0.019579 0 0 0 
0.15352 0.0022127 0.019594 0 0 0 
0.16627 0.0022127 0.019573 0 0 0 
0.16627 0.012502 0.019558 0 0 0 
0.32456 0.044651 0.019108 0 0 0 
0.32458 0.021014 0.019439 0 0 0 
0.31349 0.021014 0.019891 0 0 0 
0.31348 0.044651 0.019559 0 0 0 
0.11673 0.14324 0.10014 0 0 0 
0.11674 0.14324 0.095013 0 0 0 
0.11672 0.1389 0.095013 0 0 0 
0.11671 0.1389 0.10014 0 0 0 
0.16515 0.16623 0.018585 0 0 0 
0.15107 0.16631 0.019432 0 0 0 
0.15107 0.15906 0.020139 0 0 0 
0.16515 0.15897 0.019292 0 0 0 
0.2283 0.004766 0.053924 0 0 0 
0.2283 0.0046951 0.023091 0 0 0 
0.19518 0.0048158 0.023091 0 0 0 
0.19518 0.0048867 0.053924 0 0 0 
0.13355 0.044166 0.47323 0 0 0 
0.13372 0.044161 0.44833 0 0 0 
0.13331 0.031052 0.44833 0 0 0 
0.13315 0.031057 0.47323 0 0 0 
0.18728 0.13721 0.20339 0 0 0 
0.18727 0.13248 0.20339 0 0 0 
0.18728 0.13248 0.20886 0 0 0 
0.18729 0.13721 0.20886 0 0 0 
0.13178 0.12344 0.28758 0 0 0 
0.13152 0.12345 0.26668 0 0 0 
0.13186 0.1305 0.26668 0 0 0 
0.13213 0.13049 0.28758 0 0 0 
0.11663 0.02321 0.1973 0 0 0 
0.11665 0.02321 0.19376 0 0 0 
0.11662 0.018527 0.19376 0 0 0 
0.1166 0.018527 0.1973 0 0 0 
0.31987 0.097865 0.043323 0 0 0 
0.31991 0.097865 0.039793 0 0 0 
0.31995 0.094149 0.039793 0 0 0 
0.31991 0.094149 0.043323 0 0 0 
0.27818 0.16303 0.019541 0 0 0 
0.27818 0.16006 0.019549 0 0 0 
0.27379 0.16006 0.019572 0 0 0 
0.27379 0.16303 0.019564 0 0 0 
0.12236 0.099107 0.76062 0 0 0 
0.11101 0.099107 0.76063 0 0 0 
0.11101 0.086017 0.76062 0 0 0 
0.12236 0.086017 0.76061 0 0 0 
0.20218 0.12368 0.68859 0 0 0 
0.20219 0.11337 0.68858 0 0 0 
0.18867 0.11337 0.68856 0 0 0 
0.18867 0.12368 0.68857 0 0 0 
0.15313 0.034473 0.25713 0 0 0 
0.13403 0.034473 0.25712 0 0 0 
0.13403 0.045484 0.25711 0 0 0 
0.15313 0.045484 0.25712 0 0 0 
0.059498 0.024774 0.048631 0 0 0 
0.05946 0.01907 0.048632 0 0 0 
0.059611 0.01907 0.055699 0 0 0 
0.05965 0.024774 0.055699 0 0 0 
0.12357 0.046862 0.68878 0 0 0 
0.11402 0.046868 0.6887 0 0 0 
0.11402 0.036776 0.68796 0 0 0 
0.12357 0.03677 0.68804 0 0 0 
0.13417 0.010961 0.0084524 0 0 0 
0.13463 0.006485 0.0079886 0 0 0 
0.13601 0.006485 0.0093488 0 0 0 
0.13556 0.010961 0.0098126 0 0 0 
0.13348 0.045161 0.30724 0 0 0 
0.13349 0.045161 0.29091 0 0 0 
0.1335 0.035305 0.29091 0 0 0 
0.13349 0.035305 0.30724 0 0 0 
0.11669 0.1466 0.16463 0 0 0 
0.1167 0.1466 0.12184 0 0 0 
0.1168 0.13239 0.12184 0 0 0 
0.11679 0.13239 0.16463 0 0 0 
0.11301 0.031121 0.60826 0 0 0 
0.094744 0.031122 0.60823 0 0 0 
0.094744 0.035111 0.60832 0 0 0 
0.11301 0.035111 0.60835 0 0 0 
0.23369 0.0066133 0.030489 0 0 0 
0.23524 0.0086709 0.019571 0 0 0 
0.2329 0.010429 0.019571 0 0 0 
0.23135 0.0083718 0.030489 0 0 0 
0.14576 0.10181 0.75716 0 0 0 
0.13781 0.10161 0.75641 0 0 0 
0.13781 0.10581 0.75526 0 0 0 
0.14576 0.10602 0.756 0 0 0 
0.11664 0.14728 0.21104 0 0 0 
0.11671 0.14728 0.17408 0 0 0 
0.11679 0.13261 0.17408 0 0 0 
0.11672 0.13261 0.21104 0 0 0 
0.067115 0.15411 0.019666 0 0 0 
0.063359 0.15411 0.019702 0 0 0 
0.063359 0.16484 0.019539 0 0 0 
0.067115 0.16483 0.019503 0 0 0 
0.17856 0.10621 0.74566 0 0 0 
0.16306 0.10623 0.74566 0 0 0 
0.16306 0.10614 0.75395 0 0 0 
0.17856 0.10611 0.75395 0 0 0 
0.16075 0.077352 0.8781 0 0 0 
0.16069 0.07358 0.87811 0 0 0 
0.15976 0.07358 0.87187 0 0 0 
0.15982 0.077352 0.87186 0 0 0 
0.059619 0.026838 0.1554 0 0 0 
0.059612 0.026838 0.15241 0 0 0 
0.059579 0.019719 0.15241 0 0 0 
0.059585 0.019719 0.1554 0 0 0 
0.21884 0.1135 0.6085 0 0 0 
0.21882 0.10705 0.60832 0 0 0 
0.22191 0.10705 0.60795 0 0 0 
0.22193 0.1135 0.60813 0 0 0 
0.15974 0.071237 0.86282 0 0 0 
0.15955 0.071298 0.84022 0 0 0 
0.16299 0.082073 0.84022 0 0 0 
0.16318 0.082012 0.86282 0 0 0 
0.18717 0.028912 0.085818 0 0 0 
0.18717 0.020719 0.085818 0 0 0 
0.18721 0.020719 0.091111 0 0 0 
0.18721 0.028912 0.091111 0 0 0 
0.17699 0.15406 0.048482 0 0 0 
0.1389 0.15406 0.048506 0 0 0 
0.1389 0.13464 0.04867 0 0 0 
0.17699 0.13464 0.048646 0 0 0 
0.042783 0.011144 0.01955 0 0 0 
0.013006 0.011144 0.019556 0 0 0 
0.013006 0.00083095 0.019563 0 0 0 
0.042783 0.00083095 0.019557 0 0 0 
0.087213 0.00022841 0.015526 0 0 0 
0.077058 0.00022896 0.015526 0 0 0 
0.077058 0.00024059 0.018725 0 0 0 
0.087213 0.00024003 0.018725 0 0 0 
0.17058 0.042744 0.29115 0 0 0 
0.1706 0.042744 0.28293 0 0 0 
0.17055 0.034335 0.28293 0 0 0 
0.17053 0.034335 0.29115 0 0 0 
0.12894 0.044875 0.62474 0 0 0 
0.12873 0.044885 0.60899 0 0 0 
0.12836 0.036748 0.60899 0 0 0 
0.12858 0.036738 0.62474 0 0 0 
0.068221 0.02728 0.211 0 0 0 
0.068221 0.020071 0.21103 0 0 0 
0.062965 0.020071 0.21105 0 0 0 
0.062965 0.02728 0.21102 0 0 0 
0.17048 0.045731 0.277 0 0 0 
0.17044 0.045731 0.26319 0 0 0 
0.17058 0.031413 0.26319 0 0 0 
0.17063 0.031413 0.277 0 0 0 
0.19193 0.15402 0.04843 0 0 0 
0.18369 0.15401 0.048331 0 0 0 
0.18369 0.14853 0.048628 0 0 0 
0.19193 0.14853 0.048727 0 0 0 
0.19808 0.027096 0.21103 0 0 0 
0.19014 0.027096 0.21104 0 0 0 
0.19014 0.01881 0.21101 0 0 0 
0.19808 0.01881 0.21099 0 0 0 
0.31031 0.1507 0.023761 0 0 0 
0.31154 0.1523 0.019098 0 0 0 
0.31515 0.14951 0.019098 0 0 0 
0.31392 0.14792 0.023761 0 0 0 
0.12871 0.043533 0.66227 0 0 0 
0.12869 0.043533 0.65783 0 0 0 
0.12865 0.03839 0.65783 0 0 0 
0.12867 0.03839 0.66227 0 0 0 
0.037759 0.010238 0.013729 0 0 0 
0.037758 0.00034244 0.013826 0 0 0 
0.033741 0.00034244 0.013782 0 0 0 
0.033742 0.010238 0.013686 0 0 0 
0.12873 0.1255 0.6227 0 0 0 
0.12874 0.1255 0.6115 0 0 0 
0.12876 0.11818 0.6115 0 0 0 
0.12876 0.11818 0.6227 0 0 0 
0.11726 0.11271 0.74569 0 0 0 
0.11726 0.10771 0.74569 0 0 0 
0.12127 0.10771 0.74565 0 0 0 
0.12127 0.11271 0.74565 0 0 0 
0.12875 0.1246 0.6779 0 0 0 
0.12875 0.12047 0.6779 0 0 0 
0.12876 0.12047 0.68571 0 0 0 
0.12876 0.1246 0.68571 0 0 0 
0.16872 0.042854 0.25712 0 0 0 
0.16243 0.042854 0.25712 0 0 0 
0.16243 0.037215 0.25712 0 0 0 
0.16872 0.037215 0.25713 0 0 0 
0.14616 0.083191 0.9778 0 0 0 
0.14585 0.079559 0.97784 0 0 0 
0.14517 0.079559 0.97303 0 0 0 
0.14548 0.083191 0.97299 0 0 0 
0.13347 0.045312 0.34399 0 0 0 
0.13346 0.045312 0.33085 0 0 0 
0.13349 0.033863 0.33085 0 0 0 
0.1335 0.033863 0.34399 0 0 0 
0.16193 0.083479 0.78783 0 0 0 
0.16176 0.08333 0.78295 0 0 0 
0.15571 0.090116 0.78295 0 0 0 
0.15588 0.090266 0.78783 0 0 0 
0.14573 0.076024 0.95289 0 0 0 
0.1462 0.076115 0.94955 0 0 0 
0.14542 0.080082 0.94955 0 0 0 
0.14495 0.079991 0.95289 0 0 0 
0.13184 0.12102 0.41457 0 0 0 
0.13184 0.11853 0.41457 0 0 0 
0.13183 0.11853 0.42048 0 0 0 
0.13183 0.12102 0.42048 0 0 0 
0.13341 0.053955 0.75051 0 0 0 
0.1268 0.05401 0.75051 0 0 0 
0.1268 0.053836 0.74565 0 0 0 
0.13341 0.053781 0.74565 0 0 0 
0.32066 0.060118 0.013713 0 0 0 
0.31366 0.060118 0.013712 0 0 0 
0.31366 0.049104 0.013708 0 0 0 
0.32066 0.049104 0.013709 0 0 0 
0.1706 0.045012 0.30838 0 0 0 
0.1706 0.045012 0.29907 0 0 0 
0.17056 0.041381 0.29907 0 0 0 
0.17057 0.041381 0.30838 0 0 0 
0.22305 0.16001 0.052847 0 0 0 
0.21472 0.16006 0.052847 0 0 0 
0.21472 0.16008 0.049742 0 0 0 
0.22305 0.16004 0.049741 0 0 0 
0.28175 0.16606 0.017411 0 0 0 
0.27822 0.1665 0.01731 0 0 0 
0.27822 0.16569 0.013751 0 0 0 
0.28175 0.16525 0.013852 0 0 0 
0.18723 0.017574 0.061481 0 0 0 
0.18725 0.017575 0.055906 0 0 0 
0.18718 0.021069 0.055906 0 0 0 
0.18716 0.021069 0.061481 0 0 0 
0.17477 0.11765 0.67241 0 0 0 
0.17483 0.11765 0.65316 0 0 0 
0.17537 0.12563 0.65316 0 0 0 
0.17531 0.12563 0.67241 0 0 0 
0.061234 0.16621 0.018565 0 0 0 
0.061234 0.1662 0.015162 0 0 0 
0.057373 0.16623 0.015162 0 0 0 
0.057373 0.16624 0.018565 0 0 0 
0.082321 0.017828 0.211 0 0 0 
0.074908 0.017828 0.211 0 0 0 
0.074908 0.0253 0.21104 0 0 0 
0.082321 0.0253 0.21104 0 0 0 
0.17147 0.12705 0.59134 0 0 0 
0.17151 0.12705 0.58498 0 0 0 
0.17145 0.11812 0.58498 0 0 0 
0.17141 0.11812 0.59134 0 0 0 
0.25169 0.0056265 0.019539 0 0 0 
0.24812 0.0056266 0.019522 0 0 0 
0.24812 0.010571 0.019551 0 0 0 
0.25169 0.010571 0.019567 0 0 0 
0.11979 0.030135 0.048608 0 0 0 
0.11979 0.015028 0.04861 0 0 0 
0.16085 0.015028 0.048598 0 0 0 
0.16085 0.030135 0.048596 0 0 0 
0.32453 0.13036 0.019203 0 0 0 
0.32454 0.11562 0.019437 0 0 0 
0.31484 0.11562 0.019844 0 0 0 
0.31483 0.13036 0.019611 0 0 0 
0.13184 0.12874 0.39138 0 0 0 
0.13184 0.12873 0.38736 0 0 0 
0.13182 0.12149 0.38736 0 0 0 
0.13182 0.12149 0.39138 0 0 0 
0.27355 0.0096988 0.01956 0 0 0 
0.26208 0.0096989 0.019549 0 0 0 
0.26208 7.2482e-05 0.019537 0 0 0 
0.27355 7.2468e-05 0.019548 0 0 0 
0.13818 0.081473 0.88689 0 0 0 
0.13807 0.077433 0.88704 0 0 0 
0.14204 0.077433 0.88981 0 0 0 
0.14215 0.081473 0.88966 0 0 0 
0.32135 0.1137 0.0137 0 0 0 
0.32135 0.10208 0.013705 0 0 0 
0.31201 0.10208 0.013734 0 0 0 
0.31201 0.1137 0.013729 0 0 0 
0.31847 0.0895 0.037141 0 0 0 
0.31083 0.0895 0.037141 0 0 0 
0.31083 0.082986 0.037136 0 0 0 
0.31847 0.082986 0.037135 0 0 0 
0.084196 0.15412 0.0095252 0 0 0 
0.084196 0.15411 0.0020957 0 0 0 
0.090048 0.15409 0.0020957 0 0 0 
0.090048 0.1541 0.0095252 0 0 0 
0.25969 0.0093818 0.01369 0 0 0 
0.2509 0.0093819 0.013696 0 0 0 
0.2509 0.0023701 0.013716 0 0 0 
0.25969 0.0023701 0.013709 0 0 0 
0.145 0.080585 0.9166 0 0 0 
0.14458 0.080916 0.9067 0 0 0 
0.14688 0.083797 0.9067 0 0 0 
0.1473 0.083466 0.9166 0 0 0 
0.16362 0.07847 0.84297 0 0 0 
0.16358 0.078499 0.82255 0 0 0 
0.1522 0.065314 0.82255 0 0 0 
0.15224 0.065285 0.84297 0 0 0 
0.080552 0.13078 0.21688 0 0 0 
0.08051 0.12159 0.21688 0 0 0 
0.080453 0.12159 0.22303 0 0 0 
0.080495 0.13078 0.22303 0 0 0 
0.13686 0.07477 0.85508 0 0 0 
0.1368 0.074713 0.84866 0 0 0 
0.14572 0.066234 0.84866 0 0 0 
0.14578 0.066291 0.85508 0 0 0 
0.088379 0.0038518 0.013713 0 0 0 
0.081736 0.0038517 0.013725 0 0 0 
0.081736 0.0021247 0.013709 0 0 0 
0.088379 0.0021249 0.013696 0 0 0 
0.1286 0.036811 0.6765 0 0 0 
0.12852 0.036813 0.66922 0 0 0 
0.12882 0.045748 0.66922 0 0 0 
0.12889 0.045746 0.6765 0 0 0 
0.13349 0.045664 0.31543 0 0 0 
0.13348 0.039061 0.31543 0 0 0 
0.1335 0.039061 0.3262 0 0 0 
0.1335 0.045664 0.3262 0 0 0 
0.17508 0.044407 0.62334 0 0 0 
0.17509 0.044407 0.61776 0 0 0 
0.17512 0.038532 0.61776 0 0 0 
0.17512 0.038532 0.62334 0 0 0 
0.1288 0.1267 0.65128 0 0 0 
0.12882 0.11906 0.65128 0 0 0 
0.12851 0.11906 0.64598 0 0 0 
0.12849 0.1267 0.64598 0 0 0 
0.16126 0.075293 0.78836 0 0 0 
0.16192 0.074521 0.77198 0 0 0 
0.15044 0.064711 0.77198 0 0 0 
0.14978 0.065483 0.78836 0 0 0 
0.059739 0.14421 0.14823 0 0 0 
0.059714 0.14421 0.14153 0 0 0 
0.059645 0.13546 0.14153 0 0 0 
0.059671 0.13546 0.14823 0 0 0 
0.053818 0.031823 0.17621 0 0 0 
0.045838 0.031826 0.17631 0 0 0 
0.045838 0.03561 0.1762 0 0 0 
0.053818 0.035607 0.17611 0 0 0 
0.080537 0.13044 0.23984 0 0 0 
0.080537 0.13044 0.22732 0 0 0 
0.080502 0.12058 0.22732 0 0 0 
0.080502 0.12058 0.23984 0 0 0 
0.13344 0.03487 0.43857 0 0 0 
0.13349 0.034869 0.43306 0 0 0 
0.13354 0.038163 0.43306 0 0 0 
0.13349 0.038164 0.43857 0 0 0 
0.19447 0.1589 0.023795 0 0 0 
0.19432 0.15483 0.023808 0 0 0 
0.19397 0.15483 0.01955 0 0 0 
0.19413 0.1589 0.019538 0 0 0 
0.17511 0.043995 0.68531 0 0 0 
0.17511 0.043995 0.68154 0 0 0 
0.17508 0.038151 0.68154 0 0 0 
0.17509 0.038151 0.68531 0 0 0 
0.090107 0.017627 0.21058 0 0 0 
0.085613 0.017623 0.21065 0 0 0 
0.085613 0.027695 0.21117 0 0 0 
0.090107 0.027698 0.2111 0 0 0 
0.15536 0.10617 0.75547 0 0 0 
0.15536 0.10617 0.74817 0 0 0 
0.14627 0.10618 0.74817 0 0 0 
0.14627 0.10618 0.75547 0 0 0 
0.11547 0.014142 0.0083443 0 0 0 
0.11547 0.0051524 0.0083402 0 0 0 
0.12363 0.0051524 0.0083019 0 0 0 
0.12363 0.014142 0.0083059 0 0 0 
0.08031 0.033038 0.21099 0 0 0 
0.060666 0.033038 0.21099 0 0 0 
0.060666 0.044627 0.21108 0 0 0 
0.08031 0.044627 0.21109 0 0 0 
0.069459 0.014145 0.023612 0 0 0 
0.068755 0.0081662 0.024185 0 0 0 
0.067507 0.0081662 0.02265 0 0 0 
0.068211 0.014145 0.022077 0 0 0 
0.13923 0.0068893 0.013774 0 0 0 
0.13923 0.0022066 0.013725 0 0 0 
0.14112 0.0022066 0.013678 0 0 0 
0.14112 0.0068893 0.013727 0 0 0 
0.14931 0.083163 0.93363 0 0 0 
0.14931 0.0832 0.92874 0 0 0 
0.1463 0.083248 0.92874 0 0 0 
0.1463 0.083211 0.93363 0 0 0 
0.15247 0.076051 0.94322 0 0 0 
0.15244 0.076053 0.93331 0 0 0 
0.15273 0.080745 0.93331 0 0 0 
0.15276 0.080744 0.94322 0 0 0 
0.21679 0.1433 0.21103 0 0 0 
0.21243 0.1433 0.21104 0 0 0 
0.21243 0.14202 0.21102 0 0 0 
0.21679 0.14202 0.211 0 0 0 
0.068032 0.0091772 0.034297 0 0 0 
0.068018 0.0091773 0.031846 0 0 0 
0.067998 0.0057361 0.031846 0 0 0 
0.068012 0.005736 0.034297 0 0 0 
0.18719 0.030312 0.13419 0 0 0 
0.18717 0.022352 0.13419 0 0 0 
0.1872 0.022352 0.14405 0 0 0 
0.18721 0.030312 0.14404 0 0 0 
0.29617 0.0066842 0.019551 0 0 0 
0.28868 0.006684 0.019577 0 0 0 
0.28868 0.0024857 0.019557 0 0 0 
0.29617 0.0024858 0.01953 0 0 0 
0.080475 0.0056079 0.047478 0 0 0 
0.073192 0.0056566 0.047477 0 0 0 
0.073192 0.0056288 0.044073 0 0 0 
0.080475 0.00558 0.044073 0 0 0 
0.14428 0.15595 0.019543 0 0 0 
0.13926 0.15595 0.019556 0 0 0 
0.13926 0.15935 0.01959 0 0 0 
0.14428 0.15935 0.019578 0 0 0 
0.13346 0.043389 0.26912 0 0 0 
0.13343 0.034753 0.26912 0 0 0 
0.13349 0.034753 0.27659 0 0 0 
0.13353 0.043389 0.27659 0 0 0 
0.12648 0.012807 0.013129 0 0 0 
0.12112 0.012656 0.013519 0 0 0 
0.12112 0.010192 0.012566 0 0 0 
0.12648 0.010343 0.012176 0 0 0 
0.13187 0.12986 0.5769 0 0 0 
0.13182 0.1199 0.5769 0 0 0 
0.13179 0.1199 0.5808 0 0 0 
0.13183 0.12986 0.5808 0 0 0 
0.059419 0.031401 0.13873 0 0 0 
0.05217 0.031442 0.13873 0 0 0 
0.05217 0.031422 0.13536 0 0 0 
0.059419 0.03138 0.13536 0 0 0 
0.15139 0.081379 0.99671 0 0 0 
0.14709 0.080865 0.99638 0 0 0 
0.14709 0.078807 0.99966 0 0 0 
0.15139 0.079321 0.99998 0 0 0 
0.31389 0.011117 0.013678 0 0 0 
0.30308 0.011117 0.013662 0 0 0 
0.30308 0.0043334 0.01373 0 0 0 
0.31389 0.0043336 0.013746 0 0 0 
0.1335 0.035269 0.32349 0 0 0 
0.13348 0.035269 0.31632 0 0 0 
0.13345 0.03131 0.31632 0 0 0 
0.13346 0.03131 0.32349 0 0 0 
0.30537 0.16404 0.019542 0 0 0 
0.29613 0.16404 0.019536 0 0 0 
0.29613 0.15691 0.019572 0 0 0 
0.30537 0.15691 0.019579 0 0 0 
0.20522 0.008013 0.053923 0 0 0 
0.19933 0.0080128 0.053906 0 0 0 
0.19933 0.012441 0.053862 0 0 0 
0.20522 0.012441 0.053879 0 0 0 
0.10574 0.10087 0.75467 0 0 0 
0.10573 0.10087 0.74613 0 0 0 
0.10563 0.082681 0.74613 0 0 0 
0.10564 0.082681 0.75467 0 0 0 
0.17617 0.087433 0.76433 0 0 0 
0.17639 0.087456 0.76056 0 0 0 
0.17594 0.091744 0.76056 0 0 0 
0.17573 0.091722 0.76433 0 0 0 
0.23968 0.14707 0.069261 0 0 0 
0.24098 0.14804 0.064015 0 0 0 
0.24353 0.14459 0.064015 0 0 0 
0.24223 0.14363 0.069261 0 0 0 
0.059669 0.14574 0.15711 0 0 0 
0.059667 0.14574 0.15331 0 0 0 
0.059711 0.1409 0.15331 0 0 0 
0.059713 0.1409 0.15711 0 0 0 
0.1508 0.093318 0.80548 0 0 0 
0.14747 0.093413 0.80548 0 0 0 
0.14747 0.093166 0.79765 0 0 0 
0.1508 0.093071 0.79765 0 0 0 
0.15842 0.12266 0.25742 0 0 0 
0.14897 0.12266 0.25741 0 0 0 
0.14897 0.1297 0.25744 0 0 0 
0.15842 0.1297 0.25745 0 0 0 
0.13299 0.15991 0.013718 0 0 0 
0.13299 0.15578 0.013718 0 0 0 
0.14554 0.15578 0.013711 0 0 0 
0.14554 0.15991 0.01371 0 0 0 
0.11796 0.076564 0.76062 0 0 0 
0.11277 0.076564 0.76062 0 0 0 
0.11277 0.080528 0.76062 0 0 0 
0.11796 0.080528 0.76061 0 0 0 
0.20246 0.064176 0.74565 0 0 0 
0.20246 0.062101 0.74564 0 0 0 
0.19707 0.062101 0.74566 0 0 0 
0.19707 0.064176 0.74567 0 0 0 
0.18921 0.1026 0.75605 0 0 0 
0.18651 0.10228 0.75582 0 0 0 
0.18651 0.09877 0.76067 0 0 0 
0.18921 0.099097 0.76091 0 0 0 
0.17147 0.13086 0.57426 0 0 0 
0.17154 0.12154 0.57427 0 0 0 
0.17148 0.12154 0.57759 0 0 0 
0.17141 0.13086 0.57758 0 0 0 
0.11666 0.030677 0.10321 0 0 0 
0.11665 0.024816 0.10321 0 0 0 
0.11664 0.024816 0.10594 0 0 0 
0.11665 0.030677 0.10594 0 0 0 
0.18721 0.030239 0.079954 0 0 0 
0.18727 0.030236 0.073134 0 0 0 
0.18718 0.027792 0.073134 0 0 0 
0.18712 0.027794 0.079954 0 0 0 
0.12643 0.058257 0.76407 0 0 0 
0.12643 0.05826 0.7588 0 0 0 
0.13291 0.058297 0.7588 0 0 0 
0.13291 0.058294 0.76407 0 0 0 
0.31988 0.082613 0.042577 0 0 0 
0.31987 0.078129 0.042577 0 0 0 
0.31991 0.078129 0.048436 0 0 0 
0.31992 0.082613 0.048436 0 0 0 
0.14833 0.11242 0.74577 0 0 0 
0.13825 0.11242 0.74563 0 0 0 
0.13825 0.10758 0.7455 0 0 0 
0.14833 0.10758 0.74564 0 0 0 
0.32315 0.092894 0.019576 0 0 0 
0.32315 0.087567 0.019583 0 0 0 
0.32091 0.087567 0.019539 0 0 0 
0.32092 0.092894 0.019533 0 0 0 
0.07556 0.11936 0.21862 0 0 0 
0.069928 0.11937 0.21862 0 0 0 
0.069928 0.11938 0.2146 0 0 0 
0.07556 0.11937 0.2146 0 0 0 
0.093012 0.0081982 0.013914 0 0 0 
0.084803 0.0081773 0.013682 0 0 0 
0.084803 0.012781 0.013268 0 0 0 
0.093012 0.012801 0.013499 0 0 0 
0.15767 0.071067 0.86429 0 0 0 
0.15764 0.071095 0.85678 0 0 0 
0.15412 0.067589 0.85678 0 0 0 
0.15414 0.067561 0.86429 0 0 0 
0.32501 0.0017263 0.019563 0 0 0 
0.32443 0.0023092 0.014675 0 0 0 
0.32257 0.00043967 0.014675 0 0 0 
0.32316 -0.00014326 0.019563 0 0 0 
0.31991 0.097411 0.020257 0 0 0 
0.3199 0.095228 0.020257 0 0 0 
0.31989 0.095228 0.027649 0 0 0 
0.31989 0.097411 0.027649 0 0 0 
4 0 1 2 3
4 4 5 6 7
4 8 9 10 11
4 12 13 14 15
4 16 17 18 19
4 20 21 22 23
4 24 25 26 27
4 28 29 30 31
4 32 33 34 35
4 36 37 38 39
4 40 41 42 43
4 44 45 46 47
4 48 49 50 51
4 52 53 54 55
4 56 57 58 59
4 60 61 62 63
4 64 65 66 67
4 68 69 70 71
4 72 73 74 75
4 76 77 78 79
4 80 81 82 83
4 84 85 86 87
4 88 89 90 91
4 92 93 94 95
4 96 97 98 99
4 100 101 102 103
4 104 105 106 107
4 108 109 110 111
4 112 113 114 115
4 116 117 118 119
4 120 121 122 123
4 124 125 126 127
4 128 129 130 131
4 132 133 134 135
4 136 137 138 139
4 140 141 142 143
4 144 145 146 147
4 148 149 150 151
4 152 153 154 155
4 156 157 158 159
4 160 161 162 163
4 164 165 166 167
4 168 169 170 171
4 172 173 174 175
4 176 177 178 179
4 180 181 182 183
4 184 185 186 187
4 188 189 190 191
4 192 193 194 195
4 196 197 198 199
4 200 201 202 203
4 204 205 206 207
4 208 209 210 211
4 212 213 214 215
4 216 217 218 219
4 220 221 222 223
4 224 225 226 227
4 228 229 230 231
4 232 233 234 235
4 236 237 238 239
4 240 241 242 243
4 244 245 246 247
4 248 249 250 251
4 252 253 254 255
4 256 257 258 259
4 260 261 262 263
4 264 265 266 267
4 268 269 270 271
4 272 273 274 275
4 276 277 278 279
4 280 281 282 283
4 284 285 286 287
4 288 289 290 291
4 292 293 294 295
4 296 297 298 299
4 300 301 302 303
4 304 305 306 307
4 308 309 310 311
4 312 313 314 315
4 316 317 318 319
4 320 321 322 323
4 324 325 326 327
4 328 329 330 331
4 332 333 334 335
4 336 337 338 339
4 340 341 342 343
4 344 345 346 347
4 348 349 350 351
4 352 353 354 355
4 356 357 358 359
4 360 361 362 363
4 364 365 366 367
4 368 369 370 371
4 372 373 374 375
4 376 377 378 379
4 380 381 382 383
4 384 385 386 387
4 388 389 390 391
4 392 393 394 395
4 396 397 398 399
4 400 401 402 403
4 404 405 406 407
4 408 409 410 411
4 412 413 414 415
4 416 417 418 419
4 420 421 422 423
4 424 425 426 427
4 428 429 430 431
4 432 433 434 435
4 436 437 438 439
4 440 441 442 443
4 444 445 446 447
4 448 449 450 451
4 452 453 454 455
4 456 457 458 459
4 460 461 462 463
4 464 465 466 467
4 468 469 470 471
4 472 473 474 475
4 476 477 478 479
4 480 481 482 483
4 484 485 486 487
4 488 489 490 491
4 492 493 494 495
4 496 497 498 499
4 500 501 502 503
4 504 505 506 507
4 508 509 510 511
4 512 513 514 515
4 516 517 518 519
4 520 521 522 523
4 524 525 526 527
4 528 529 530 531
4 532 533 534 535
4 536 537 538 539
4 540 541 542 543
4 544 545 546 547
4 548 549 550 551
4 552 553 554 555
4 556 557 558 559
4 560 561 562 563
4 564 565 566 567
4 568 569 570 571
4 572 573 574 575
4 576 577 578 579
4 580 581 582 583
4 584 585 586 587
4 588 589 590 591
4 592 593 594 595
4 596 597 598 599
4 600 601 602 603
4 604 605 606 607
4 608 609 610 611
4 612 613 614 615
4 616 617 618 619
4 620 621 622 623
4 624 625 626 627
4 628 629 630 631
4 632 633 634 635
4 636 637 638 639
4 640 641 642 643
4 644 645 646 647
4 648 649 650 651
4 652 653 654 655
4 656 657 658 659
4 660 661 662 663
4 664 665 666 667
4 668 669 670 671
4 672 673 674 675
4 676 677 678 679
4 680 681 682 683
4 684 685 686 687
4 688 689 690 691
4 692 693 694 695
4 696 697 698 699
4 700 701 702 703
4 704 705 706 707
4 708 709 710 711
4 712 713 714 715
4 716 717 718 719
4 720 721 722 723
4 724 725 726 727
4 728 729 730 731
4 732 733 734 735
4 736 737 738 739
4 740 741 742 743
4 744 745 746 747
4 748 749 750 751
4 752 753 754 755
4 756 757 758 759
4 760 761 762 763
4 764 765 766 767
4 768 769 770 771
4 772 773 774 775
4 776 777 778 779
4 780 781 782 783
4 784 785 786 787
4 788 789 790 791
4 792 793 794 795
4 796 797 798 799
4 800 801 802 803
4 804 805 806 807
4 808 809 810 811
4 812 813 814 815
4 816 817 818 819
4 820 821 822 823
4 824 825 826 827
4 828 829 830 831
4 832 833 834 835
4 836 837 838 839
4 840 841 842 843
4 844 845 846 847
4 848 849 850 851
4 852 853 854 855
4 856 857 858 859
4 860 861 862 863
4 864 865 866 867
4 868 869 870 871
4 872 873 874 875
4 876 877 878 879
4 880 881 882 883
4 884 885 886 887
4 888 889 890 891
4 892 893 894 895
4 896 897 898 899
4 900 901 902 903
4 904 905 906 907
4 908 909 910 911
4 912 913 914 915
4 916 917 918 919
4 920 921 922 923
4 924 925 926 927
4 928 929 930 931
4 932 933 934 935
4 936 937 938 939
4 940 941 942 943
4 944 945 946 947
4 948 949 950 951
4 952 953 954 955
4 956 957 958 959
4 960 961 962 963
4 964 965 966 967
4 968 969 970 971
4 972 973 974 975
4 976 977 978 979
4 980 981 982 983
4 984 985 986 987
4 988 989 990 991
4 992 993 994 995
4 996 997 998 999
4 1000 1001 1002 1003
4 1004 1005 1006 1007
4 1008 1009 1010 1011
4 1012 1013 1014 1015
4 1016 1017 1018 1019
4 1020 1021 1022 1023
4 1024 1025 1026 1027
4 1028 1029 1030 1031
4 1032 1033 1034 1035
4 1036 1037 1038 1039
4 1040 1041 1042 1043
4 1044 1045 1046 1047
4 1048 1049 1050 1051
4 1052 1053 1054 1055
4 1056 1057 1058 1059
4 1060 1061 1062 1063
4 1064 1065 1066 1067
4 1068 1069 1070 1071
4 1072 1073 1074 1075
4 1076 1077 1078 1079
4 1080 1081 1082 1083
4 1084 1085 1086 1087
4 1088 1089 1090 1091
4 1092 1093 1094 1095
4 1096 1097 1098 1099
4 1100 1101 1102 1103
4 1104 1105 1106 1107
4 1108 1109 1110 1111
4 1112 1113 1114 1115
4 1116 1117 1118 1119
4 1120 1121 1122 1123
4 1124 1125 1126 1127
4 1128 1129 1130 1131
4 1132 1133 1134 1135
4 1136 1137 1138 1139
4 1140 1141 1142 1143
4 1144 1145 1146 1147
4 1148 1149 1150 1151
4 1152 1153 1154 1155
4 1156 1157 1158 1159
4 1160 1161 1162 1163
4 1164 1165 1166 1167
4 1168 1169 1170 1171
4 1172 1173 1174 1175
4 1176 1177 1178 1179
4 1180 1181 1182 1183
4 1184 1185 1186 1187
4 1188 1189 1190 1191
4 1192 1193 1194 1195
4 1196 1197 1198 1199
4 1200 1201 1202 1203
4 1204 1205 1206 1207
4 1208 1209 1210 1211
4 1212 1213 1214 1215
4 1216 1217 1218 1219
4 1220 1221 1222 1223
4 1224 1225 1226 1227
4 1228 1229 1230 1231
4 1232 1233 1234 1235
4 1236 1237 1238 1239
4 1240 1241 1242 1243
4 1244 1245 1246 1247
4 1248 1249 1250 1251
4 1252 1253 1254 1255
4 1256 1257 1258 1259
4 1260 1261 1262 1263
4 1264 1265 1266 1267
4 1268 1269 1270 1271
4 1272 1273 1274 1275
4 1276 1277 1278 1279
4 1280 1281 1282 1283
4 1284 1285 1286 1287
