ply
format ascii 1.0
comment PCL generated
element vertex 464
property float x
property float y
property float z
property uchar red
property uchar green
property uchar blue
element face 116
property list uchar int vertex_indices
end_header
0.92543 0.27913 0.59169 44 77 106 
0.92593 0.2313 0.59166 44 77 106 
0.93483 0.2313 0.73476 44 77 106 
0.93432 0.27913 0.7348 44 77 106 
0.6562 0.28556 0.23719 44 77 106 
0.65773 0.14589 0.23717 44 77 106 
0.66336 0.14589 0.64886 44 77 106 
0.66182 0.28556 0.64888 44 77 106 
0.65878 0.23852 0.38808 44 77 106 
0.65926 0.19482 0.38807 44 77 106 
0.66022 0.19482 0.4586 44 77 106 
0.65974 0.23852 0.45861 44 77 106 
0.54658 0.30342 0.26938 60 97 52 
0.54659 0.3024 0.026928 60 97 52 
0.39063 0.30069 0.026928 60 97 52 
0.39062 0.30171 0.26938 60 97 52 
0.6512 0.4817 0.029459 44 77 106 
0.65484 0.15078 0.029409 44 77 106 
0.66233 0.15078 0.57726 44 77 106 
0.65869 0.4817 0.57731 44 77 106 
0.3933 0.30156 0.22826 60 97 52 
0.3933 0.30076 0.037218 60 97 52 
0.014138 0.2966 0.037218 60 97 52 
0.014129 0.2974 0.22826 60 97 52 
0.85211 0.2838 0.57211 124 83 45 
0.85351 0.15193 0.57202 124 83 45 
0.86001 0.15193 0.67626 124 83 45 
0.85861 0.2838 0.67635 124 83 45 
0.87701 0.52619 0.19911 79 51 85 
0.42185 0.52759 0.20139 79 51 85 
0.42185 0.32271 0.32702 79 51 85 
0.87701 0.32132 0.32474 79 51 85 
0.84335 0.14268 0.22025 102 56 43 
0.21069 0.13746 0.22979 102 56 43 
0.21069 0.32516 0.33243 102 56 43 
0.84335 0.33038 0.32289 102 56 43 
0.54362 0.30493 0.63687 60 97 52 
0.54365 0.30237 0.027067 60 97 52 
0.96981 0.30705 0.027067 60 97 52 
0.96979 0.3096 0.63687 60 97 52 
0.70196 0.53053 0.2057 120 44 48 
0.12628 0.53239 0.20901 120 44 48 
0.12628 0.32186 0.3275 120 44 48 
0.70196 0.31999 0.32419 120 44 48 
0.46653 0.209 0.26614 107 63 89 
0.46707 0.068575 0.26723 107 63 89 
0.5532 0.068575 0.2239 107 63 89 
0.55266 0.209 0.22281 107 63 89 
0.96954 0.2458 0.57804 57 57 57 
0.97053 0.15872 0.57826 57 57 57 
0.90458 0.15872 0.86729 57 57 57 
0.90359 0.2458 0.86707 57 57 57 
0.84059 0.30909 0.85137 60 97 52 
0.8406 0.30792 0.5731 60 97 52 
0.96679 0.3093 0.5731 60 97 52 
0.96678 0.31047 0.85137 60 97 52 
0.9726 0.45473 0.16325 120 44 48 
0.97328 0.28506 0.16457 120 44 48 
0.84411 0.28506 0.23032 120 44 48 
0.84344 0.45473 0.229 120 44 48 
0.018217 0.29746 0.23135 60 97 52 
0.018221 0.29708 0.13914 60 97 52 
0.12871 0.29829 0.13914 60 97 52 
0.12871 0.29867 0.23135 60 97 52 
0.65951 0.16923 0.38605 44 77 106 
0.65973 0.1489 0.38604 44 77 106 
0.66068 0.1489 0.4556 44 77 106 
0.66046 0.16923 0.4556 44 77 106 
0.43525 0.5996 0.34261 62 44 120 
0.43535 0.4367 0.34242 62 44 120 
0.34828 0.4367 0.29634 62 44 120 
0.34818 0.5996 0.29654 62 44 120 
0.48529 0.4183 0.37461 46 120 44 
0.48537 0.41844 0.26693 46 120 44 
0.51663 0.39836 0.26693 46 120 44 
0.51654 0.39822 0.37461 46 120 44 
0.97233 0.30963 0.63593 60 97 52 
0.97235 0.30783 0.20746 60 97 52 
0.83699 0.30634 0.20746 60 97 52 
0.83697 0.30814 0.63593 60 97 52 
0.54166 0.36073 0.37528 61 97 52 
0.5413 0.36048 0.28169 61 97 52 
0.51304 0.40101 0.28169 61 97 52 
0.51341 0.40126 0.37528 61 97 52 
0.50279 0.42144 0.37134 120 44 48 
0.43452 0.42166 0.37176 120 44 48 
0.43452 0.33181 0.41893 120 44 48 
0.50279 0.33159 0.41851 120 44 48 
0.64725 0.14033 0.035244 97 83 52 
0.64726 0.0039666 0.035843 97 83 52 
0.27778 0.0039666 0.040893 97 83 52 
0.27777 0.14033 0.040295 97 83 52 
0.65824 0.32844 0.32491 97 52 62 
0.12828 0.32388 0.3329 97 52 62 
0.12828 0.1321 0.2235 97 52 62 
0.65824 0.13666 0.2155 97 52 62 
0.80453 0.53295 0.0022894 44 77 106 
0.72084 0.53494 0.014911 44 77 106 
0.72084 0.51864 0.017475 44 77 106 
0.80453 0.51665 0.004854 44 77 106 
0.85895 0.25178 0.58696 90 106 44 
0.83999 0.25152 0.58713 90 106 44 
0.83999 0.282 0.63476 90 106 44 
0.85895 0.28227 0.63459 90 106 44 
0.86752 0.30604 0.053816 60 97 52 
0.86752 0.30591 0.024426 60 97 52 
0.92729 0.30657 0.024426 60 97 52 
0.92729 0.30669 0.053816 60 97 52 
0.65835 0.28146 0.39173 44 77 106 
0.65866 0.25405 0.39172 44 77 106 
0.65955 0.25405 0.45739 44 77 106 
0.65925 0.28146 0.45739 44 77 106 
0.96971 0.3105 0.85128 60 97 52 
0.96972 0.30933 0.57258 60 97 52 
0.83693 0.30788 0.57258 60 97 52 
0.83692 0.30905 0.85128 60 97 52 
0.56025 0.051909 0.036822 97 83 52 
0.56025 0.03942 0.036876 97 83 52 
0.61329 0.03942 0.036151 97 83 52 
0.61329 0.051909 0.036097 97 83 52 
0.83887 0.30739 0.45224 60 97 52 
0.83887 0.30711 0.38445 60 97 52 
0.85497 0.30729 0.38445 60 97 52 
0.85496 0.30757 0.45224 60 97 52 
0.96956 0.30882 0.45095 60 97 52 
0.96956 0.30855 0.38536 60 97 52 
0.95143 0.30835 0.38536 60 97 52 
0.95142 0.30862 0.45095 60 97 52 
0.76472 0.12122 0.033652 106 75 44 
0.52512 0.12117 0.036164 106 75 44 
0.52512 0.02577 0.03438 106 75 44 
0.76472 0.025817 0.031868 106 75 44 
0.41007 0.38962 0.37524 124 83 45 
0.41208 0.3872 0.26894 124 83 45 
0.44851 0.41752 0.26894 124 83 45 
0.44649 0.41994 0.37524 124 83 45 
0.65966 0.28126 0.48703 44 77 106 
0.66 0.25004 0.48703 44 77 106 
0.66077 0.25004 0.54313 44 77 106 
0.66042 0.28126 0.54313 44 77 106 
0.65383 0.48163 0.22171 44 77 106 
0.65568 0.31332 0.22168 44 77 106 
0.65711 0.31332 0.32611 44 77 106 
0.65526 0.48163 0.32614 44 77 106 
0.51574 0.26494 0.36019 124 45 123 
0.51571 0.26496 0.2997 124 45 123 
0.53641 0.29588 0.2997 124 45 123 
0.53644 0.29585 0.36019 124 45 123 
0.92299 0.23442 0.85084 45 94 124 
0.96534 0.19292 0.5885 45 94 124 
0.92934 0.15619 0.5885 45 94 124 
0.88699 0.19769 0.85084 45 94 124 
0.92698 0.30837 0.45557 60 97 52 
0.92698 0.3081 0.39068 60 97 52 
0.88439 0.30763 0.39068 60 97 52 
0.88439 0.30791 0.45557 60 97 52 
0.88077 0.23017 0.83161 78 51 85 
0.84277 0.19118 0.58476 78 51 85 
0.8814 0.15353 0.58476 78 51 85 
0.9194 0.19252 0.83161 78 51 85 
0.48167 0.38515 0.33851 51 82 85 
0.48402 0.38568 0.29666 51 82 85 
0.47727 0.41554 0.29666 51 82 85 
0.47492 0.41501 0.33851 51 82 85 
0.4136 0.27111 0.37207 83 85 51 
0.41741 0.27271 0.30095 83 85 51 
0.39934 0.31557 0.30095 83 85 51 
0.39553 0.31396 0.37207 83 85 51 
0.74182 0.070327 0.057638 102 55 43 
0.57647 0.022705 0.031248 102 55 43 
0.57647 0.040164 -0.00025749 102 55 43 
0.74182 0.087786 0.026133 102 55 43 
0.46863 0.3234 0.41827 73 43 102 
0.42156 0.32831 0.40839 73 43 102 
0.42156 0.24834 0.36868 73 43 102 
0.46863 0.24344 0.37855 73 43 102 
0.6604 0.19806 0.47456 44 77 106 
0.66093 0.15034 0.47455 44 77 106 
0.66203 0.15034 0.55509 44 77 106 
0.6615 0.19806 0.5551 44 77 106 
0.8812 0.3089 0.70158 60 97 52 
0.88121 0.30846 0.59653 60 97 52 
0.91654 0.30885 0.59653 60 97 52 
0.91654 0.30929 0.70158 60 97 52 
0.9689 0.30925 0.55353 60 97 52 
0.9689 0.30896 0.48479 60 97 52 
0.92054 0.30843 0.48479 60 97 52 
0.92054 0.30871 0.55353 60 97 52 
0.39785 0.53266 0.19871 43 102 76 
0.14351 0.53196 0.19833 43 102 76 
0.14351 0.52158 0.21731 43 102 76 
0.39785 0.52228 0.21769 43 102 76 
0.884 0.20163 0.85486 107 63 90 
0.84048 0.24443 0.58441 107 63 90 
0.87737 0.28195 0.58441 107 63 90 
0.9209 0.23915 0.85486 107 63 90 
0.33955 0.30072 0.16723 60 97 52 
0.33955 0.30051 0.11821 60 97 52 
0.3159 0.30025 0.11821 60 97 52 
0.31589 0.30046 0.16723 60 97 52 
0.79115 0.14741 0.21656 63 70 107 
0.54781 0.14805 0.21742 63 70 107 
0.54781 0.14152 0.22225 63 70 107 
0.79115 0.14088 0.22138 63 70 107 
0.46629 0.33883 0.41439 85 107 63 
0.40581 0.33127 0.39583 85 107 63 
0.40581 0.41752 0.36069 85 107 63 
0.46629 0.42509 0.37925 85 107 63 
0.79453 0.51999 0.13428 63 70 107 
0.71923 0.52018 0.13453 63 70 107 
0.71923 0.5077 0.14409 63 70 107 
0.79453 0.50751 0.14384 63 70 107 
0.57623 0.037319 0.040772 60 97 52 
0.57576 0.038572 0.033415 60 97 52 
0.73605 0.099786 0.033415 60 97 52 
0.73653 0.098533 0.040772 60 97 52 
0.85039 0.19103 0.49093 44 77 106 
0.85079 0.15257 0.49114 44 77 106 
0.83878 0.15257 0.51382 44 77 106 
0.83839 0.19103 0.51361 44 77 106 
0.48559 0.24777 0.37669 124 83 45 
0.48538 0.24816 0.29043 124 83 45 
0.52122 0.26795 0.29043 124 83 45 
0.52143 0.26756 0.37669 124 83 45 
0.92577 0.51247 0.1719 90 106 44 
0.55433 0.50722 0.17512 90 106 44 
0.55433 0.52502 0.20415 90 106 44 
0.92577 0.53027 0.20093 90 106 44 
0.93308 0.50689 0.16567 83 85 51 
0.93094 0.50606 0.0057814 83 85 51 
0.94191 0.47756 0.0057814 83 85 51 
0.94405 0.47838 0.16567 83 85 51 
0.66154 0.18879 0.55007 44 77 106 
0.66197 0.14943 0.55007 44 77 106 
0.66091 0.14943 0.47231 44 77 106 
0.66047 0.18879 0.47232 44 77 106 
0.39448 0.22434 0.22536 79 51 85 
0.39461 0.066888 0.22513 79 51 85 
0.47107 0.066888 0.26734 79 51 85 
0.47095 0.22434 0.26757 79 51 85 
0.65955 0.17004 0.38983 44 77 106 
0.65977 0.14996 0.38983 44 77 106 
0.66065 0.14996 0.45366 44 77 106 
0.66043 0.17004 0.45367 44 77 106 
0.65464 0.17201 0.032075 44 77 106 
0.65516 0.12543 0.032068 44 77 106 
0.65624 0.12543 0.11127 44 77 106 
0.65573 0.17201 0.11128 44 77 106 
0.86129 0.18625 0.58597 102 56 43 
0.83889 0.18622 0.58595 102 56 43 
0.83889 0.15187 0.63535 102 56 43 
0.86129 0.15189 0.63536 102 56 43 
0.39563 0.37885 0.36901 120 44 48 
0.39277 0.3015 0.37327 120 44 48 
0.45533 0.3015 0.41517 120 44 48 
0.45819 0.37885 0.4109 120 44 48 
0.77714 0.30555 0.17535 60 97 52 
0.77714 0.30541 0.13989 60 97 52 
0.7076 0.30464 0.13989 60 97 52 
0.7076 0.30479 0.17535 60 97 52 
0.41536 0.39498 0.37316 107 63 89 
0.41863 0.39303 0.28947 107 63 89 
0.40348 0.36754 0.28947 107 63 89 
0.4002 0.36949 0.37316 107 63 89 
0.39265 0.5234 0.20402 57 57 57 
0.39254 0.52351 0.024784 57 57 57 
0.40955 0.54096 0.024784 57 57 57 
0.40966 0.54085 0.20402 57 57 57 
0.12376 0.38493 0.19551 120 44 48 
0.12502 0.16348 0.19469 120 44 48 
0.13752 0.16348 0.2138 120 44 48 
0.13626 0.38493 0.21463 120 44 48 
0.9666 0.30956 0.63469 60 97 52 
0.96662 0.30778 0.21107 60 97 52 
0.83572 0.30635 0.21107 60 97 52 
0.8357 0.30812 0.63469 60 97 52 
0.39619 0.33111 0.38672 62 44 120 
0.40761 0.2533 0.36449 62 44 120 
0.47036 0.2533 0.39672 62 44 120 
0.45895 0.33111 0.41895 62 44 120 
0.65577 0.28148 0.20254 44 77 106 
0.6572 0.15093 0.20252 44 77 106 
0.66331 0.15093 0.64941 44 77 106 
0.66187 0.28148 0.64943 44 77 106 
0.65212 0.48353 0.098443 44 77 106 
0.65435 0.28072 0.098412 44 77 106 
0.65547 0.28072 0.18004 44 77 106 
0.65324 0.48353 0.18007 44 77 106 
0.45459 0.25054 0.33391 46 120 44 
0.45483 0.24947 0.29676 46 120 44 
0.48005 0.25512 0.29676 46 120 44 
0.4798 0.2562 0.33391 46 120 44 
0.58577 0.50982 0.16813 61 97 52 
0.58537 0.50958 0.11568 61 97 52 
0.57769 0.52234 0.11568 61 97 52 
0.57809 0.52258 0.16813 61 97 52 
0.43834 0.25265 0.35958 61 97 52 
0.43767 0.25201 0.28805 61 97 52 
0.40679 0.28452 0.28805 61 97 52 
0.40747 0.28516 0.35958 61 97 52 
0.97875 0.28771 0.17157 124 83 45 
0.97813 0.2886 0.048312 124 83 45 
0.96938 0.28259 0.048312 124 83 45 
0.96999 0.2817 0.17157 124 83 45 
0.88509 0.30895 0.70116 60 97 52 
0.88509 0.30879 0.66503 60 97 52 
0.92046 0.30918 0.66503 60 97 52 
0.92046 0.30933 0.70116 60 97 52 
0.87884 0.30819 0.5368 60 97 52 
0.87884 0.30798 0.48659 60 97 52 
0.83935 0.30754 0.48659 60 97 52 
0.83935 0.30775 0.5368 60 97 52 
0.49388 0.30188 0.040928 60 97 52 
0.49388 0.30183 0.027508 60 97 52 
0.44653 0.30131 0.027508 60 97 52 
0.44653 0.30136 0.040928 60 97 52 
0.02395 0.29721 0.15593 60 97 52 
0.023954 0.29682 0.063766 60 97 52 
-0.00061313 0.29655 0.063766 60 97 52 
-0.00061737 0.29694 0.15593 60 97 52 
0.86443 0.52547 0.19478 97 83 52 
0.56006 0.52339 0.19423 97 83 52 
0.56006 0.51917 0.21005 97 83 52 
0.86443 0.52125 0.2106 97 83 52 
0.54329 0.60162 0.0040674 43 102 76 
0.47056 0.60134 0.0039367 43 102 76 
0.47056 0.59095 0.026255 43 102 76 
0.54329 0.59123 0.026385 43 102 76 
0.96571 0.49136 0.16056 97 52 62 
0.96663 0.31301 0.16197 97 52 62 
0.9434 0.31301 0.17716 97 52 62 
0.94247 0.49136 0.17574 97 52 62 
0.83824 0.30738 0.45111 60 97 52 
0.83824 0.30709 0.38155 60 97 52 
0.84815 0.3072 0.38155 60 97 52 
0.84815 0.30749 0.45111 60 97 52 
0.96855 0.28044 0.57308 120 44 48 
0.96934 0.15353 0.57261 120 44 48 
0.97668 0.15353 0.58496 120 44 48 
0.97589 0.28044 0.58543 120 44 48 
0.19963 0.29887 0.09172 60 97 52 
0.19963 0.29867 0.045569 60 97 52 
0.24721 0.2992 0.045569 60 97 52 
0.24721 0.29939 0.09172 60 97 52 
0.89855 0.30807 0.45768 60 97 52 
0.89855 0.30779 0.39179 60 97 52 
0.91412 0.30797 0.39179 60 97 52 
0.91411 0.30824 0.45768 60 97 52 
0.46239 0.24594 0.36132 44 77 106 
0.46227 0.24564 0.28533 44 77 106 
0.43205 0.25729 0.28533 44 77 106 
0.43216 0.25759 0.36132 44 77 106 
0.83848 0.30776 0.54081 60 97 52 
0.83848 0.3075 0.47843 60 97 52 
0.86928 0.30784 0.47843 60 97 52 
0.86928 0.3081 0.54081 60 97 52 
0.40034 0.51987 0.19461 97 52 62 
0.12559 0.51712 0.19857 97 52 62 
0.12559 0.53083 0.2081 97 52 62 
0.40034 0.53358 0.20415 97 52 62 
0.83961 0.18007 0.63537 90 106 44 
0.83987 0.15136 0.63556 90 106 44 
0.87551 0.15136 0.58637 90 106 44 
0.87525 0.18007 0.58618 90 106 44 
0.83782 0.30738 0.45075 60 97 52 
0.83782 0.3071 0.38393 60 97 52 
0.85671 0.3073 0.38393 60 97 52 
0.85671 0.30758 0.45075 60 97 52 
0.39246 0.35283 0.37422 106 75 44 
0.39302 0.29886 0.3745 106 75 44 
0.40081 0.29886 0.3589 106 75 44 
0.40025 0.35283 0.35861 106 75 44 
0.60358 0.30361 0.16593 60 97 52 
0.60358 0.3034 0.11547 60 97 52 
0.57825 0.30312 0.11547 60 97 52 
0.57825 0.30333 0.16593 60 97 52 
0.91182 0.28378 0.54673 124 83 45 
0.91203 0.25402 0.54696 124 83 45 
0.92509 0.25402 0.53546 124 83 45 
0.92489 0.28378 0.53523 124 83 45 
0.041788 0.29733 0.13764 60 97 52 
0.041792 0.29698 0.054235 60 97 52 
0.095456 0.29757 0.054235 60 97 52 
0.095453 0.29792 0.13764 60 97 52 
0.65888 0.23797 0.39496 44 77 106 
0.65906 0.22167 0.39496 44 77 106 
0.65993 0.22167 0.45921 44 77 106 
0.65975 0.23797 0.45921 44 77 106 
0.9011 0.52165 0.17784 44 77 106 
0.90118 0.52183 0.0052118 44 77 106 
0.93694 0.50458 0.0052118 44 77 106 
0.93685 0.5044 0.17784 44 77 106 
0.48002 0.59797 0.24926 120 44 48 
0.48011 0.57604 0.24944 120 44 48 
0.55673 0.57604 0.20828 120 44 48 
0.55664 0.59797 0.20811 120 44 48 
0.5509 0.59847 0.20029 124 45 123 
0.5509 0.52446 0.20028 124 45 123 
0.56025 0.52446 0.20392 124 45 123 
0.56025 0.59847 0.20393 124 45 123 
0.65914 0.21395 0.39486 44 77 106 
0.65933 0.19642 0.39486 44 77 106 
0.66022 0.19642 0.45967 44 77 106 
0.66002 0.21395 0.45967 44 77 106 
0.61117 0.1465 0.16704 45 94 124 
0.61047 0.14619 0.11424 45 94 124 
0.60561 0.15718 0.11424 45 94 124 
0.6063 0.15749 0.16704 45 94 124 
0.53738 0.33317 0.39464 78 51 85 
0.46907 0.32403 0.41578 78 51 85 
0.46907 0.24155 0.38012 78 51 85 
0.53738 0.25069 0.35898 78 51 85 
0.87432 0.24124 0.5239 51 82 85 
0.84113 0.24109 0.52383 51 82 85 
0.84113 0.23246 0.54437 51 82 85 
0.87432 0.23261 0.54443 51 82 85 
0.45675 0.30287 0.37436 60 97 52 
0.45675 0.30248 0.28163 60 97 52 
0.50027 0.30296 0.28163 60 97 52 
0.50026 0.30335 0.37436 60 97 52 
0.92582 0.27563 0.48289 97 83 52 
0.89224 0.27541 0.48283 97 83 52 
0.89224 0.26362 0.52348 97 83 52 
0.92582 0.26384 0.52354 97 83 52 
0.0038479 0.209 0.064089 44 77 106 
0.003981 0.19694 0.06409 44 77 106 
0.0032751 0.19694 0.12299 44 77 106 
0.003142 0.209 0.12298 44 77 106 
0.4519 0.41813 0.37426 83 85 51 
0.45282 0.41593 0.27368 83 85 51 
0.41875 0.40162 0.27368 83 85 51 
0.41783 0.40382 0.37426 83 85 51 
0.5513 0.60023 0.2122 45 94 124 
0.54877 0.59888 0.0098014 45 94 124 
0.56008 0.57762 0.0098014 45 94 124 
0.56262 0.57897 0.2122 45 94 124 
0.9177 0.192 0.54944 102 55 43 
0.91716 0.1531 0.545 102 55 43 
0.88842 0.1531 0.54851 102 55 43 
0.88896 0.192 0.55294 102 55 43 
0.84216 0.15856 0.22896 102 56 43 
0.81769 0.15836 0.22933 102 56 43 
0.81769 0.3051 0.30956 102 56 43 
0.84216 0.3053 0.3092 102 56 43 
0.96377 0.17406 0.62988 73 43 102 
0.96389 0.15457 0.62981 73 43 102 
0.93413 0.15457 0.5843 73 43 102 
0.93402 0.17406 0.58437 73 43 102 
0.53749 0.2945 0.37467 43 102 76 
0.53517 0.29507 0.31387 43 102 76 
0.544 0.3314 0.31387 43 102 76 
0.54632 0.33084 0.37467 43 102 76 
0.75852 0.51864 0.012694 107 63 90 
0.61219 0.51894 0.014346 107 63 90 
0.61219 0.53465 0.011526 107 63 90 
0.75852 0.53435 0.0098739 107 63 90 
0.40539 0.2813 0.37645 63 70 107 
0.40917 0.2845 0.35757 63 70 107 
0.43187 0.25767 0.35757 63 70 107 
0.42808 0.25446 0.37645 63 70 107 
0.65572 0.17126 0.10998 44 77 106 
0.65622 0.1255 0.10997 44 77 106 
0.6553 0.1255 0.043013 44 77 106 
0.6548 0.17126 0.04302 44 77 106 
4 0 1 2 3
4 4 5 6 7
4 8 9 10 11
4 12 13 14 15
4 16 17 18 19
4 20 21 22 23
4 24 25 26 27
4 28 29 30 31
4 32 33 34 35
4 36 37 38 39
4 40 41 42 43
4 44 45 46 47
4 48 49 50 51
4 52 53 54 55
4 56 57 58 59
4 60 61 62 63
4 64 65 66 67
4 68 69 70 71
4 72 73 74 75
4 76 77 78 79
4 80 81 82 83
4 84 85 86 87
4 88 89 90 91
4 92 93 94 95
4 96 97 98 99
4 100 101 102 103
4 104 105 106 107
4 108 109 110 111
4 112 113 114 115
4 116 117 118 119
4 120 121 122 123
4 124 125 126 127
4 128 129 130 131
4 132 133 134 135
4 136 137 138 139
4 140 141 142 143
4 144 145 146 147
4 148 149 150 151
4 152 153 154 155
4 156 157 158 159
4 160 161 162 163
4 164 165 166 167
4 168 169 170 171
4 172 173 174 175
4 176 177 178 179
4 180 181 182 183
4 184 185 186 187
4 188 189 190 191
4 192 193 194 195
4 196 197 198 199
4 200 201 202 203
4 204 205 206 207
4 208 209 210 211
4 212 213 214 215
4 216 217 218 219
4 220 221 222 223
4 224 225 226 227
4 228 229 230 231
4 232 233 234 235
4 236 237 238 239
4 240 241 242 243
4 244 245 246 247
4 248 249 250 251
4 252 253 254 255
4 256 257 258 259
4 260 261 262 263
4 264 265 266 267
4 268 269 270 271
4 272 273 274 275
4 276 277 278 279
4 280 281 282 283
4 284 285 286 287
4 288 289 290 291
4 292 293 294 295
4 296 297 298 299
4 300 301 302 303
4 304 305 306 307
4 308 309 310 311
4 312 313 314 315
4 316 317 318 319
4 320 321 322 323
4 324 325 326 327
4 328 329 330 331
4 332 333 334 335
4 336 337 338 339
4 340 341 342 343
4 344 345 346 347
4 348 349 350 351
4 352 353 354 355
4 356 357 358 359
4 360 361 362 363
4 364 365 366 367
4 368 369 370 371
4 372 373 374 375
4 376 377 378 379
4 380 381 382 383
4 384 385 386 387
4 388 389 390 391
4 392 393 394 395
4 396 397 398 399
4 400 401 402 403
4 404 405 406 407
4 408 409 410 411
4 412 413 414 415
4 416 417 418 419
4 420 421 422 423
4 424 425 426 427
4 428 429 430 431
4 432 433 434 435
4 436 437 438 439
4 440 441 442 443
4 444 445 446 447
4 448 449 450 451
4 452 453 454 455
4 456 457 458 459
4 460 461 462 463
