ply
format ascii 1.0
comment PCL generated
element vertex 468
property float x
property float y
property float z
property uchar red
property uchar green
property uchar blue
element face 117
property list uchar int vertex_indices
end_header
0.56257 0.59402 0.2526 0 0 0 
0.56257 0.59382 0.004586 0 0 0 
0.38933 0.59551 0.004586 0 0 0 
0.38933 0.59571 0.2526 0 0 0 
0.86612 0.30426 0.33369 0 0 0 
0.12612 0.3058 0.33635 0 0 0 
0.12612 0.53628 0.20339 0 0 0 
0.86612 0.53475 0.20073 0 0 0 
0.39773 0.5226 0.21671 0 0 0 
0.39773 0.52244 0.015929 0 0 0 
0.022663 0.52608 0.015929 0 0 0 
0.022664 0.52624 0.21671 0 0 0 
0.97002 0.29406 0.64615 0 0 0 
0.96981 0.29406 0.037354 0 0 0 
0.96826 0.1351 0.037354 0 0 0 
0.96848 0.1351 0.64615 0 0 0 
0.61085 0.52328 0.17038 0 0 0 
0.58558 0.52333 0.17028 0 0 0 
0.58558 0.50893 0.16233 0 0 0 
0.61085 0.50888 0.16243 0 0 0 
0.84337 0.14785 0.84232 0 0 0 
0.84315 0.14785 0.21773 0 0 0 
0.84639 0.48098 0.21773 0 0 0 
0.84661 0.48097 0.84232 0 0 0 
0.92718 0.51797 0.20882 0 0 0 
0.92718 0.51781 0.0012042 0 0 0 
0.55288 0.52145 0.0012042 0 0 0 
0.55288 0.52161 0.20882 0 0 0 
0.13314 0.52827 0.33409 0 0 0 
0.13309 0.52827 0.19672 0 0 0 
0.12941 0.14947 0.19672 0 0 0 
0.12946 0.14947 0.33409 0 0 0 
0.50848 0.33088 0.42079 0 0 0 
0.42687 0.33105 0.42108 0 0 0 
0.42687 0.42046 0.3695 0 0 0 
0.50848 0.42029 0.36921 0 0 0 
0.84203 0.13249 0.22057 0 0 0 
0.12788 0.134 0.21782 0 0 0 
0.12788 0.35169 0.33799 0 0 0 
0.84203 0.35018 0.34074 0 0 0 
0.55154 0.070862 0.28136 0 0 0 
0.55153 0.070659 0.027652 0 0 0 
0.39101 0.072221 0.027652 0 0 0 
0.39101 0.072423 0.28136 0 0 0 
0.95904 0.50067 0.64179 0 0 0 
0.95882 0.50067 0.025379 0 0 0 
0.95537 0.14648 0.025379 0 0 0 
0.95559 0.14648 0.64179 0 0 0 
0.40772 0.13955 0.23276 0 0 0 
0.40772 0.1394 0.036634 0 0 0 
0.015972 0.14321 0.036634 0 0 0 
0.015974 0.14336 0.23276 0 0 0 
0.39693 0.59909 0.2053 0 0 0 
0.39644 0.44157 0.20608 0 0 0 
0.47568 0.44157 0.25616 0 0 0 
0.47617 0.59909 0.25538 0 0 0 
0.5448 0.15598 0.8026 0 0 0 
0.54479 0.15536 0.027386 0 0 0 
0.99311 0.151 0.027386 0 0 0 
0.99312 0.15162 0.8026 0 0 0 
0.13171 0.15947 0.17037 0 0 0 
0.018646 0.15947 0.17041 0 0 0 
0.018646 0.52877 0.17006 0 0 0 
0.13171 0.52877 0.17002 0 0 0 
0.92547 0.28318 0.54574 0 0 0 
0.92545 0.28318 0.48236 0 0 0 
0.92516 0.25277 0.48236 0 0 0 
0.92518 0.25277 0.54574 0 0 0 
0.9742 0.28167 0.77367 0 0 0 
0.97419 0.28124 0.23279 0 0 0 
0.83713 0.28257 0.23279 0 0 0 
0.83714 0.283 0.77367 0 0 0 
0.96172 0.1701 0.59585 0 0 0 
0.88864 0.17077 0.59569 0 0 0 
0.88864 0.23196 0.85899 0 0 0 
0.96172 0.23129 0.85914 0 0 0 
0.39322 0.33042 0.38399 0 0 0 
0.41409 0.24607 0.35248 0 0 0 
0.4885 0.24607 0.40176 0 0 0 
0.46764 0.33042 0.43326 0 0 0 
0.53979 0.3708 0.38467 0 0 0 
0.54574 0.38079 0.27036 0 0 0 
0.49773 0.40939 0.27036 0 0 0 
0.49178 0.39941 0.38467 0 0 0 
0.54922 0.2173 0.22538 0 0 0 
0.54896 0.06933 0.22489 0 0 0 
0.465 0.06933 0.2682 0 0 0 
0.46526 0.2173 0.2687 0 0 0 
0.89238 0.25757 0.83675 0 0 0 
0.82056 0.19179 0.58901 0 0 0 
0.86699 0.14109 0.58901 0 0 0 
0.93881 0.20687 0.83675 0 0 0 
0.39808 0.14351 0.22826 0 0 0 
0.39801 0.14351 0.032175 0 0 0 
0.39726 0.066443 0.032175 0 0 0 
0.39733 0.066442 0.22826 0 0 0 
0.91441 0.22263 0.55727 0 0 0 
0.84948 0.22277 0.5575 0 0 0 
0.84948 0.25826 0.53703 0 0 0 
0.91441 0.25813 0.53679 0 0 0 
0.45206 0.40937 0.3466 0 0 0 
0.45192 0.40937 0.31394 0 0 0 
0.45146 0.36206 0.31394 0 0 0 
0.4516 0.36206 0.3466 0 0 0 
0.92483 0.5154 0.18216 0 0 0 
0.92424 0.51502 0.0073582 0 0 0 
0.94378 0.48524 0.0073582 0 0 0 
0.94436 0.48562 0.18216 0 0 0 
0.55366 0.5981 0.21575 0 0 0 
0.55358 0.5981 0.0080841 0 0 0 
0.55283 0.5209 0.0080841 0 0 0 
0.55291 0.5209 0.21575 0 0 0 
0.54632 0.14963 0.2274 0 0 0 
0.54625 0.14963 0.042082 0 0 0 
0.54549 0.071415 0.042082 0 0 0 
0.54556 0.071414 0.2274 0 0 0 
0.85101 0.5056 0.14248 0 0 0 
0.67778 0.50711 0.14201 0 0 0 
0.67778 0.52443 0.19693 0 0 0 
0.85101 0.52292 0.19741 0 0 0 
0.94905 0.22451 0.84957 0 0 0 
0.85625 0.22538 0.84976 0 0 0 
0.85625 0.28395 0.57944 0 0 0 
0.94905 0.28308 0.57925 0 0 0 
0.54074 0.37431 0.37841 0 0 0 
0.54072 0.37431 0.31054 0 0 0 
0.5399 0.28967 0.31054 0 0 0 
0.53992 0.28967 0.37841 0 0 0 
0.028156 0.54562 0.14725 0 0 0 
0.028104 0.54562 0.028345 0 0 0 
0.025163 0.24128 0.028345 0 0 0 
0.025215 0.24128 0.14725 0 0 0 
0.40019 0.6016 0.20974 0 0 0 
0.40012 0.6016 0.018619 0 0 0 
0.39934 0.52074 0.018619 0 0 0 
0.3994 0.52074 0.20974 0 0 0 
0.46695 0.40316 0.41695 0 0 0 
0.46648 0.25769 0.41767 0 0 0 
0.39433 0.25769 0.3715 0 0 0 
0.39479 0.40316 0.37077 0 0 0 
0.48947 0.24881 0.37438 0 0 0 
0.48939 0.24892 0.28373 0 0 0 
0.52833 0.27446 0.28373 0 0 0 
0.52841 0.27435 0.37438 0 0 0 
0.014902 0.1629 0.23234 0 0 0 
0.014901 0.16277 0.062865 0 0 0 
0.12717 0.16167 0.062865 0 0 0 
0.12717 0.16181 0.23234 0 0 0 
0.13216 0.43926 0.34572 0 0 0 
0.13215 0.43914 0.19376 0 0 0 
0.10969 0.43936 0.19376 0 0 0 
0.10969 0.43948 0.34572 0 0 0 
0.4637 0.23637 0.37737 0 0 0 
0.46858 0.24456 0.28361 0 0 0 
0.40685 0.28134 0.28361 0 0 0 
0.40197 0.27315 0.37737 0 0 0 
0.87753 0.27885 0.87072 0 0 0 
0.87741 0.27886 0.58161 0 0 0 
0.87673 0.20889 0.58161 0 0 0 
0.87685 0.20889 0.87072 0 0 0 
0.44192 0.41425 0.37772 0 0 0 
0.44192 0.41416 0.26622 0 0 0 
0.50606 0.41354 0.26622 0 0 0 
0.50606 0.41363 0.37772 0 0 0 
0.42752 0.39413 0.2973 0 0 0 
0.42677 0.29 0.2969 0 0 0 
0.3866 0.29 0.37077 0 0 0 
0.38735 0.39413 0.37118 0 0 0 
0.8614 0.12824 0.054473 0 0 0 
0.8614 0.12821 0.025143 0 0 0 
0.93223 0.12753 0.025143 0 0 0 
0.93223 0.12755 0.054473 0 0 0 
0.39318 0.21485 0.22509 0 0 0 
0.39282 0.066784 0.22578 0 0 0 
0.47222 0.066784 0.26798 0 0 0 
0.47259 0.21485 0.26729 0 0 0 
0.50934 0.24959 0.37515 0 0 0 
0.50934 0.24951 0.28264 0 0 0 
0.43741 0.25021 0.28264 0 0 0 
0.43741 0.25029 0.37515 0 0 0 
0.97682 0.28487 0.19897 0 0 0 
0.84814 0.28487 0.19902 0 0 0 
0.84814 0.5216 0.19879 0 0 0 
0.97682 0.5216 0.19874 0 0 0 
0.74424 0.098649 0.053128 0 0 0 
0.51921 0.098956 0.052413 0 0 0 
0.51921 0.020996 0.018919 0 0 0 
0.74424 0.020689 0.019634 0 0 0 
0.87705 0.24321 0.83678 0 0 0 
0.94899 0.28715 0.59454 0 0 0 
0.97829 0.23917 0.59454 0 0 0 
0.90635 0.19523 0.83678 0 0 0 
0.89403 0.20554 0.58116 0 0 0 
0.89193 0.18183 0.57454 0 0 0 
0.92224 0.18183 0.56493 0 0 0 
0.92433 0.20554 0.57155 0 0 0 
0.97063 0.27843 0.57729 0 0 0 
0.96956 0.16052 0.57705 0 0 0 
0.90848 0.16052 0.84497 0 0 0 
0.90955 0.27843 0.84521 0 0 0 
0.74711 0.1477 0.038957 0 0 0 
0.28094 0.1477 0.039126 0 0 0 
0.28094 0.0024884 0.039241 0 0 0 
0.74711 0.0024883 0.039072 0 0 0 
0.48009 0.40912 0.33757 0 0 0 
0.47991 0.40912 0.29589 0 0 0 
0.47968 0.38548 0.29589 0 0 0 
0.47986 0.38548 0.33757 0 0 0 
0.41239 0.13247 0.15595 0 0 0 
0.41221 0.097259 0.15613 0 0 0 
0.39319 0.097259 0.13792 0 0 0 
0.39337 0.13247 0.13773 0 0 0 
0.11384 0.43549 0.34589 0 0 0 
0.11379 0.43549 0.18945 0 0 0 
0.11356 0.41193 0.18945 0 0 0 
0.11361 0.41193 0.34589 0 0 0 
0.91569 0.15026 0.060949 0 0 0 
0.91563 0.12766 0.061057 0 0 0 
0.86772 0.12766 0.03377 0 0 0 
0.86778 0.15026 0.033662 0 0 0 
0.021308 0.21619 0.15743 0 0 0 
0.020981 0.21639 0.064244 0 0 0 
0.0051009 0.1895 0.064244 0 0 0 
0.0054282 0.18931 0.15743 0 0 0 
0.83993 0.19974 0.5567 0 0 0 
0.83993 0.19968 0.48215 0 0 0 
0.88675 0.19922 0.48215 0 0 0 
0.88675 0.19928 0.5567 0 0 0 
0.96993 0.23727 0.55391 0 0 0 
0.96993 0.23721 0.4849 0 0 0 
0.91321 0.23776 0.4849 0 0 0 
0.91321 0.23782 0.55391 0 0 0 
0.98192 0.28778 0.10236 0 0 0 
0.98192 0.28774 0.04567 0 0 0 
0.96958 0.28786 0.04567 0 0 0 
0.96958 0.2879 0.10236 0 0 0 
0.43746 0.24356 0.29824 0 0 0 
0.39577 0.24375 0.29805 0 0 0 
0.39577 0.30873 0.36174 0 0 0 
0.43746 0.30854 0.36194 0 0 0 
0.9681 0.15364 0.58098 0 0 0 
0.846 0.15476 0.58073 0 0 0 
0.846 0.21433 0.8487 0 0 0 
0.9681 0.21321 0.84895 0 0 0 
0.01948 0.19235 0.060723 0 0 0 
0.019185 0.15568 0.060873 0 0 0 
0.025592 0.15568 0.07345 0 0 0 
0.025887 0.19235 0.0733 0 0 0 
0.72354 0.52781 0.16965 0 0 0 
0.71522 0.5191 0.14099 0 0 0 
0.73265 0.50245 0.14099 0 0 0 
0.74097 0.51116 0.16965 0 0 0 
0.60781 0.50942 0.12286 0 0 0 
0.58205 0.50955 0.12299 0 0 0 
0.58205 0.52259 0.1097 0 0 0 
0.60781 0.52245 0.10957 0 0 0 
0.40142 0.3854 0.37692 0 0 0 
0.40133 0.38554 0.27175 0 0 0 
0.45224 0.41893 0.27175 0 0 0 
0.45233 0.41879 0.37692 0 0 0 
0.85057 0.53293 0.021096 0 0 0 
0.85049 0.51967 0.021162 0 0 0 
0.83216 0.51967 -0.0025025 0 0 0 
0.83225 0.53293 -0.0025689 0 0 0 
0.57685 0.52372 0.1691 0 0 0 
0.57668 0.52361 0.1169 0 0 0 
0.58674 0.50827 0.1169 0 0 0 
0.58691 0.50838 0.1691 0 0 0 
0.95111 0.47845 0.0054251 0 0 0 
0.90462 0.47845 0.005442 0 0 0 
0.90462 0.52732 0.0054032 0 0 0 
0.95111 0.52732 0.0053863 0 0 0 
0.7899 0.5247 0.16698 0 0 0 
0.79966 0.51836 0.13673 0 0 0 
0.789 0.50195 0.13673 0 0 0 
0.77924 0.5083 0.16698 0 0 0 
0.53775 0.36945 0.37789 0 0 0 
0.53364 0.36675 0.36293 0 0 0 
0.50416 0.41164 0.36293 0 0 0 
0.50827 0.41434 0.37789 0 0 0 
0.92266 0.26457 0.54694 0 0 0 
0.92266 0.26452 0.48736 0 0 0 
0.88612 0.26488 0.48736 0 0 0 
0.88612 0.26493 0.54694 0 0 0 
0.87345 0.21677 0.5382 0 0 0 
0.8734 0.21685 0.47705 0 0 0 
0.83808 0.19368 0.47705 0 0 0 
0.83813 0.19361 0.5382 0 0 0 
0.81292 0.53382 0.0097154 0 0 0 
0.67022 0.53382 0.0097672 0 0 0 
0.67022 0.52018 0.009778 0 0 0 
0.81292 0.52018 0.0097263 0 0 0 
0.51731 0.26259 0.37601 0 0 0 
0.51707 0.26274 0.30526 0 0 0 
0.54323 0.30703 0.30526 0 0 0 
0.54348 0.30688 0.37601 0 0 0 
0.87344 0.21857 0.54945 0 0 0 
0.84806 0.21862 0.54935 0 0 0 
0.84806 0.19972 0.53892 0 0 0 
0.87344 0.19967 0.53902 0 0 0 
0.91899 0.17821 0.52792 0 0 0 
0.92384 0.16832 0.48645 0 0 0 
0.8983 0.1558 0.48645 0 0 0 
0.89346 0.16569 0.52792 0 0 0 
0.85726 0.20456 0.44874 0 0 0 
0.85713 0.20456 0.39655 0 0 0 
0.85701 0.19566 0.39655 0 0 0 
0.85714 0.19565 0.44874 0 0 0 
0.92959 0.28406 0.52473 0 0 0 
0.92944 0.28415 0.48251 0 0 0 
0.9111 0.2531 0.48251 0 0 0 
0.91125 0.25301 0.52473 0 0 0 
0.92621 0.149 0.38313 0 0 0 
0.89726 0.14913 0.383 0 0 0 
0.89726 0.16813 0.40098 0 0 0 
0.92621 0.168 0.40112 0 0 0 
0.64981 0.53405 0.010724 0 0 0 
0.55778 0.53471 0.011134 0 0 0 
0.55778 0.51388 0.044702 0 0 0 
0.64981 0.51321 0.044291 0 0 0 
0.91201 0.14762 0.45748 0 0 0 
0.91528 0.15312 0.39452 0 0 0 
0.88247 0.17267 0.39452 0 0 0 
0.8792 0.16717 0.45748 0 0 0 
0.86925 0.27296 0.62319 0 0 0 
0.84028 0.27318 0.62306 0 0 0 
0.84028 0.25584 0.593 0 0 0 
0.86925 0.25562 0.59313 0 0 0 
0.94762 0.26456 0.63144 0 0 0 
0.94966 0.26798 0.59227 0 0 0 
0.93018 0.27959 0.59227 0 0 0 
0.92814 0.27617 0.63144 0 0 0 
0.85209 0.14906 0.026677 0 0 0 
0.78742 0.14906 0.0267 0 0 0 
0.78742 0.097494 0.026741 0 0 0 
0.85209 0.097494 0.026718 0 0 0 
0.57641 0.14516 0.16907 0 0 0 
0.57621 0.14528 0.11234 0 0 0 
0.583 0.15677 0.11234 0 0 0 
0.58319 0.15665 0.16907 0 0 0 
0.85808 0.23875 0.39646 0 0 0 
0.85789 0.19627 0.39669 0 0 0 
0.84143 0.19627 0.38278 0 0 0 
0.84162 0.23875 0.38256 0 0 0 
0.134 0.41282 0.3423 0 0 0 
0.134 0.4127 0.19121 0 0 0 
0.1119 0.41291 0.19121 0 0 0 
0.1119 0.41303 0.3423 0 0 0 
0.92168 0.15352 0.55775 0 0 0 
0.92165 0.15352 0.47098 0 0 0 
0.9221 0.20029 0.47098 0 0 0 
0.92214 0.20029 0.55775 0 0 0 
0.79521 0.50658 0.14261 0 0 0 
0.72372 0.50676 0.14292 0 0 0 
0.72372 0.522 0.13413 0 0 0 
0.79521 0.52182 0.13382 0 0 0 
0.87895 0.24875 0.55437 0 0 0 
0.87858 0.2033 0.55423 0 0 0 
0.86913 0.2033 0.57825 0 0 0 
0.8695 0.24875 0.57839 0 0 0 
0.51843 0.070497 0.026436 0 0 0 
0.51836 0.02967 0.026603 0 0 0 
0.55254 0.02967 0.040499 0 0 0 
0.55261 0.070497 0.040333 0 0 0 
0.89049 0.274 0.54649 0 0 0 
0.89345 0.27897 0.48962 0 0 0 
0.93455 0.25448 0.48962 0 0 0 
0.93159 0.24952 0.54649 0 0 0 
0.0037646 0.21908 0.12567 0 0 0 
0.0037431 0.21908 0.065067 0 0 0 
0.0035279 0.19695 0.065067 0 0 0 
0.0035494 0.19695 0.12567 0 0 0 
0.84966 0.18401 0.62363 0 0 0 
0.84947 0.15195 0.62349 0 0 0 
0.87322 0.15195 0.58938 0 0 0 
0.87341 0.18401 0.58952 0 0 0 
0.21927 0.52494 0.14183 0 0 0 
0.21911 0.52504 0.095107 0 0 0 
0.21131 0.51184 0.095107 0 0 0 
0.21148 0.51175 0.14183 0 0 0 
0.20738 0.12792 0.048263 0 0 0 
0.023386 0.12832 0.047559 0 0 0 
0.023386 0.14621 0.057616 0 0 0 
0.20738 0.14582 0.05832 0 0 0 
0.95737 0.17386 0.62072 0 0 0 
0.95727 0.16018 0.62078 0 0 0 
0.94194 0.16018 0.59725 0 0 0 
0.94203 0.17386 0.59719 0 0 0 
0.40112 0.59541 0.035789 0 0 0 
0.40055 0.52726 0.036041 0 0 0 
0.38988 0.52726 0.011651 0 0 0 
0.39046 0.59541 0.011399 0 0 0 
0.8968 0.14941 0.054562 0 0 0 
0.89679 0.14941 0.028225 0 0 0 
0.89662 0.13134 0.028225 0 0 0 
0.89663 0.13134 0.054562 0 0 0 
0.92727 0.26272 0.45641 0 0 0 
0.92727 0.26267 0.39539 0 0 0 
0.88544 0.26308 0.39539 0 0 0 
0.88544 0.26312 0.45641 0 0 0 
0.91598 0.15753 0.55006 0 0 0 
0.87863 0.15753 0.55008 0 0 0 
0.87863 0.2278 0.55002 0 0 0 
0.91598 0.2278 0.55001 0 0 0 
0.5305 0.35965 0.36859 0 0 0 
0.53015 0.2572 0.36816 0 0 0 
0.46285 0.2572 0.42213 0 0 0 
0.4632 0.35965 0.42257 0 0 0 
0.77881 0.14644 0.020597 0 0 0 
0.77871 0.088834 0.020399 0 0 0 
0.74401 0.088834 0.039089 0 0 0 
0.74411 0.14644 0.039287 0 0 0 
0.94237 0.4256 0.062731 0 0 0 
0.94234 0.42564 0.038911 0 0 0 
0.95029 0.43156 0.038911 0 0 0 
0.95031 0.43152 0.062731 0 0 0 
0.85695 0.24017 0.45074 0 0 0 
0.83952 0.24017 0.45075 0 0 0 
0.83952 0.19786 0.45078 0 0 0 
0.85695 0.19785 0.45077 0 0 0 
0.96545 0.19964 0.53616 0 0 0 
0.93775 0.19976 0.53604 0 0 0 
0.93775 0.2148 0.55078 0 0 0 
0.96545 0.21468 0.55091 0 0 0 
0.85895 0.18185 0.587 0 0 0 
0.84016 0.18199 0.58708 0 0 0 
0.84016 0.1609 0.62529 0 0 0 
0.85895 0.16075 0.62521 0 0 0 
0.0038502 0.19609 0.15698 0 0 0 
0.0038495 0.19602 0.064197 0 0 0 
0.031146 0.19575 0.064197 0 0 0 
0.031146 0.19583 0.15698 0 0 0 
0.39245 0.34295 0.37482 0 0 0 
0.39563 0.34196 0.3549 0 0 0 
0.40382 0.36826 0.3549 0 0 0 
0.40065 0.36925 0.37482 0 0 0 
0.50423 0.24299 0.37266 0 0 0 
0.45389 0.2431 0.37247 0 0 0 
0.45389 0.3364 0.42398 0 0 0 
0.50423 0.3363 0.42418 0 0 0 
0.87729 0.17824 0.51573 0 0 0 
0.87921 0.18146 0.47883 0 0 0 
0.90343 0.16703 0.47883 0 0 0 
0.90151 0.16381 0.51573 0 0 0 
0.81594 0.5082 0.20308 0 0 0 
0.73505 0.5082 0.20311 0 0 0 
0.73505 0.52423 0.20309 0 0 0 
0.81594 0.52423 0.20306 0 0 0 
0.96527 0.23456 0.54197 0 0 0 
0.96525 0.2153 0.54192 0 0 0 
0.92699 0.2153 0.55572 0 0 0 
0.92701 0.23456 0.55576 0 0 0 
0.7613 0.16244 0.15975 0 0 0 
0.7058 0.16287 0.1595 0 0 0 
0.7058 0.1485 0.13459 0 0 0 
0.7613 0.14807 0.13484 0 0 0 
0.35458 0.51306 0.16541 0 0 0 
0.35441 0.51317 0.116 0 0 0 
0.36081 0.52401 0.116 0 0 0 
0.36099 0.52391 0.16541 0 0 0 
0.84254 0.27757 0.62712 0 0 0 
0.83167 0.26157 0.5868 0 0 0 
0.85605 0.24501 0.5868 0 0 0 
0.86692 0.26101 0.62712 0 0 0 
0.34817 0.14137 0.16799 0 0 0 
0.34821 0.14141 0.11622 0 0 0 
0.33607 0.15312 0.11622 0 0 0 
0.33603 0.15308 0.16799 0 0 0 
4 0 1 2 3
4 4 5 6 7
4 8 9 10 11
4 12 13 14 15
4 16 17 18 19
4 20 21 22 23
4 24 25 26 27
4 28 29 30 31
4 32 33 34 35
4 36 37 38 39
4 40 41 42 43
4 44 45 46 47
4 48 49 50 51
4 52 53 54 55
4 56 57 58 59
4 60 61 62 63
4 64 65 66 67
4 68 69 70 71
4 72 73 74 75
4 76 77 78 79
4 80 81 82 83
4 84 85 86 87
4 88 89 90 91
4 92 93 94 95
4 96 97 98 99
4 100 101 102 103
4 104 105 106 107
4 108 109 110 111
4 112 113 114 115
4 116 117 118 119
4 120 121 122 123
4 124 125 126 127
4 128 129 130 131
4 132 133 134 135
4 136 137 138 139
4 140 141 142 143
4 144 145 146 147
4 148 149 150 151
4 152 153 154 155
4 156 157 158 159
4 160 161 162 163
4 164 165 166 167
4 168 169 170 171
4 172 173 174 175
4 176 177 178 179
4 180 181 182 183
4 184 185 186 187
4 188 189 190 191
4 192 193 194 195
4 196 197 198 199
4 200 201 202 203
4 204 205 206 207
4 208 209 210 211
4 212 213 214 215
4 216 217 218 219
4 220 221 222 223
4 224 225 226 227
4 228 229 230 231
4 232 233 234 235
4 236 237 238 239
4 240 241 242 243
4 244 245 246 247
4 248 249 250 251
4 252 253 254 255
4 256 257 258 259
4 260 261 262 263
4 264 265 266 267
4 268 269 270 271
4 272 273 274 275
4 276 277 278 279
4 280 281 282 283
4 284 285 286 287
4 288 289 290 291
4 292 293 294 295
4 296 297 298 299
4 300 301 302 303
4 304 305 306 307
4 308 309 310 311
4 312 313 314 315
4 316 317 318 319
4 320 321 322 323
4 324 325 326 327
4 328 329 330 331
4 332 333 334 335
4 336 337 338 339
4 340 341 342 343
4 344 345 346 347
4 348 349 350 351
4 352 353 354 355
4 356 357 358 359
4 360 361 362 363
4 364 365 366 367
4 368 369 370 371
4 372 373 374 375
4 376 377 378 379
4 380 381 382 383
4 384 385 386 387
4 388 389 390 391
4 392 393 394 395
4 396 397 398 399
4 400 401 402 403
4 404 405 406 407
4 408 409 410 411
4 412 413 414 415
4 416 417 418 419
4 420 421 422 423
4 424 425 426 427
4 428 429 430 431
4 432 433 434 435
4 436 437 438 439
4 440 441 442 443
4 444 445 446 447
4 448 449 450 451
4 452 453 454 455
4 456 457 458 459
4 460 461 462 463
4 464 465 466 467
