ply
format ascii 1.0
comment PCL generated
element vertex 1260
property float x
property float y
property float z
property uchar red
property uchar green
property uchar blue
element face 315
property list uchar int vertex_indices
end_header
0.3998 0.095672 0.62946 0 0 0 
0.4003 0.095541 0.13312 0 0 0 
0.45314 0.29469 0.13312 0 0 0 
0.45265 0.29482 0.62946 0 0 0 
0.43718 0.15271 0.50428 0 0 0 
0.40192 0.15271 0.50426 0 0 0 
0.40192 0.10566 0.50434 0 0 0 
0.43718 0.10566 0.50436 0 0 0 
0.47644 0.28251 0.45719 0 0 0 
0.42394 0.28251 0.45716 0 0 0 
0.42394 0.18204 0.45734 0 0 0 
0.47644 0.18204 0.45737 0 0 0 
0.46819 0.23766 0.49809 0 0 0 
0.46791 0.23691 0.47607 0 0 0 
0.45491 0.24164 0.47607 0 0 0 
0.45519 0.24239 0.49809 0 0 0 
0.43482 0.15238 0.59536 0 0 0 
0.40164 0.15238 0.59534 0 0 0 
0.40164 0.10478 0.59542 0 0 0 
0.43482 0.10478 0.59544 0 0 0 
0.47486 0.27723 0.54873 0 0 0 
0.42559 0.27723 0.5487 0 0 0 
0.42559 0.18173 0.54887 0 0 0 
0.47486 0.18173 0.5489 0 0 0 
0.39301 0.15156 0.67674 0 0 0 
0.39201 0.094606 0.68038 0 0 0 
0.43503 0.094606 0.69229 0 0 0 
0.43604 0.15156 0.68865 0 0 0 
0.40046 0.11629 0.68481 0 0 0 
0.4005 0.11627 0.6405 0 0 0 
0.40823 0.14542 0.6405 0 0 0 
0.40819 0.14543 0.68481 0 0 0 
0.47386 0.28065 0.64032 0 0 0 
0.42433 0.28065 0.64029 0 0 0 
0.42433 0.18439 0.64045 0 0 0 
0.47386 0.18439 0.64048 0 0 0 
0.43692 0.15415 0.41199 0 0 0 
0.39771 0.15415 0.41196 0 0 0 
0.39771 0.10666 0.41204 0 0 0 
0.43692 0.10666 0.41207 0 0 0 
0.41715 0.10672 0.36525 0 0 0 
0.40014 0.10672 0.36524 0 0 0 
0.40014 0.11397 0.36523 0 0 0 
0.41715 0.11397 0.36524 0 0 0 
0.47763 0.28348 0.36569 0 0 0 
0.42263 0.28348 0.36566 0 0 0 
0.42263 0.18388 0.36583 0 0 0 
0.47763 0.18388 0.36587 0 0 0 
0.45981 0.21686 0.36487 0 0 0 
0.45261 0.18253 0.36195 0 0 0 
0.44403 0.18253 0.38314 0 0 0 
0.45123 0.21686 0.38606 0 0 0 
0.46816 0.23722 0.40824 0 0 0 
0.46816 0.23721 0.38023 0 0 0 
0.44957 0.24453 0.38023 0 0 0 
0.44958 0.24454 0.40824 0 0 0 
0.47588 0.27778 0.36285 0 0 0 
0.48124 0.25706 0.366 0 0 0 
0.47445 0.25706 0.37756 0 0 0 
0.46909 0.27778 0.37442 0 0 0 
0.40517 0.15221 0.31879 0 0 0 
0.4052 0.11915 0.3185 0 0 0 
0.43447 0.11915 0.32171 0 0 0 
0.43444 0.15221 0.322 0 0 0 
0.47685 0.27784 0.27373 0 0 0 
0.4216 0.27783 0.2737 0 0 0 
0.4216 0.1744 0.27388 0 0 0 
0.47685 0.1744 0.27391 0 0 0 
0.47415 0.2702 0.29886 0 0 0 
0.47418 0.27019 0.27276 0 0 0 
0.45026 0.18003 0.27276 0 0 0 
0.45023 0.18004 0.29886 0 0 0 
0.46842 0.2384 0.33841 0 0 0 
0.46841 0.23837 0.28256 0 0 0 
0.4439 0.24488 0.28256 0 0 0 
0.44391 0.24491 0.33841 0 0 0 
0.3944 0.14257 0.76739 0 0 0 
0.39381 0.098906 0.76826 0 0 0 
0.41206 0.098906 0.7808 0 0 0 
0.41266 0.14257 0.77993 0 0 0 
0.40099 0.12394 0.76861 0 0 0 
0.40101 0.12393 0.75151 0 0 0 
0.40609 0.1431 0.75151 0 0 0 
0.40608 0.1431 0.76861 0 0 0 
0.40564 0.14395 0.73433 0 0 0 
0.40565 0.14394 0.72106 0 0 0 
0.4098 0.15169 0.72106 0 0 0 
0.40979 0.1517 0.73433 0 0 0 
0.47174 0.27591 0.73175 0 0 0 
0.43194 0.27591 0.73173 0 0 0 
0.43194 0.18076 0.73189 0 0 0 
0.47174 0.18076 0.73191 0 0 0 
0.4519 0.2669 0.78253 0 0 0 
0.44846 0.26781 0.76714 0 0 0 
0.45185 0.28057 0.76714 0 0 0 
0.45529 0.27966 0.78253 0 0 0 
0.48026 0.28123 0.18276 0 0 0 
0.425 0.28123 0.18272 0 0 0 
0.425 0.18763 0.18288 0 0 0 
0.48026 0.18763 0.18292 0 0 0 
0.46894 0.23732 0.22432 0 0 0 
0.46893 0.2373 0.18356 0 0 0 
0.4499 0.24235 0.18356 0 0 0 
0.44991 0.24237 0.22432 0 0 0 
0.4559 0.26499 0.21945 0 0 0 
0.45421 0.25376 0.21798 0 0 0 
0.45972 0.25376 0.21167 0 0 0 
0.4614 0.26499 0.21314 0 0 0 
0.47378 0.27306 0.20088 0 0 0 
0.45471 0.27946 0.20456 0 0 0 
0.45471 0.27005 0.2209 0 0 0 
0.47378 0.26366 0.21722 0 0 0 
0.47955 0.31104 0.40967 0 0 0 
0.47936 0.29867 0.41044 0 0 0 
0.48877 0.29867 0.41276 0 0 0 
0.48896 0.31104 0.41199 0 0 0 
0.48853 0.31097 0.31907 0 0 0 
0.48262 0.31099 0.31924 0 0 0 
0.48262 0.29873 0.3206 0 0 0 
0.48853 0.29871 0.32043 0 0 0 
0.43391 0.15015 0.7784 0 0 0 
0.40908 0.15015 0.77838 0 0 0 
0.40908 0.10718 0.77846 0 0 0 
0.43391 0.10718 0.77847 0 0 0 
0.49225 0.30227 0.23332 0 0 0 
0.47904 0.30171 0.23095 0 0 0 
0.47904 0.32297 0.22588 0 0 0 
0.49225 0.32354 0.22825 0 0 0 
0.48947 0.29955 0.14227 0 0 0 
0.48947 0.29955 0.13887 0 0 0 
0.49447 0.31839 0.13887 0 0 0 
0.49447 0.31839 0.14227 0 0 0 
0.56209 0.38746 0.56708 0 0 0 
0.5625 0.38735 0.154 0 0 0 
0.55379 0.35456 0.154 0 0 0 
0.55338 0.35467 0.56708 0 0 0 
0.5608 0.38494 0.32047 0 0 0 
0.54777 0.38494 0.32047 0 0 0 
0.54777 0.37683 0.32048 0 0 0 
0.5608 0.37683 0.32049 0 0 0 
0.54673 0.39131 0.59704 0 0 0 
0.54667 0.39108 0.1647 0 0 0 
0.56753 0.38555 0.1647 0 0 0 
0.56759 0.38577 0.59704 0 0 0 
0.54104 0.36362 0.85306 0 0 0 
0.54172 0.36344 0.16112 0 0 0 
0.55601 0.41729 0.16112 0 0 0 
0.55533 0.41748 0.85306 0 0 0 
0.57631 0.42787 0.61794 0 0 0 
0.5768 0.42774 0.11777 0 0 0 
0.58798 0.46986 0.11777 0 0 0 
0.58748 0.46999 0.61794 0 0 0 
0.59255 0.44115 0.35533 0 0 0 
0.56184 0.44115 0.35531 0 0 0 
0.56184 0.4779 0.35525 0 0 0 
0.59255 0.4779 0.35527 0 0 0 
0.599 0.46842 0.90249 0 0 0 
0.59889 0.468 0.10735 0 0 0 
0.30443 0.54614 0.10735 0 0 0 
0.30454 0.54655 0.90249 0 0 0 
0.59322 0.43655 0.31792 0 0 0 
0.53389 0.43655 0.31789 0 0 0 
0.53389 0.50512 0.31777 0 0 0 
0.59322 0.50512 0.3178 0 0 0 
0.53598 0.50435 0.34107 0 0 0 
0.53598 0.50433 0.3167 0 0 0 
0.58336 0.49176 0.3167 0 0 0 
0.58336 0.49177 0.34107 0 0 0 
0.56462 0.39301 0.23537 0 0 0 
0.55698 0.3547 0.23967 0 0 0 
0.54476 0.3547 0.21795 0 0 0 
0.5524 0.39301 0.21365 0 0 0 
0.55908 0.36314 0.27465 0 0 0 
0.55884 0.36178 0.24838 0 0 0 
0.51806 0.36906 0.24838 0 0 0 
0.5183 0.37042 0.27465 0 0 0 
0.56248 0.3834 0.27883 0 0 0 
0.51926 0.38698 0.27349 0 0 0 
0.51926 0.36682 0.25999 0 0 0 
0.56248 0.36324 0.26532 0 0 0 
0.53881 0.38587 0.26756 0 0 0 
0.54543 0.36322 0.26108 0 0 0 
0.56157 0.36322 0.27759 0 0 0 
0.55494 0.38587 0.28407 0 0 0 
0.54331 0.42045 0.21325 0 0 0 
0.52101 0.42212 0.2141 0 0 0 
0.52101 0.41567 0.22687 0 0 0 
0.54331 0.41399 0.22602 0 0 0 
0.54057 0.43751 0.22846 0 0 0 
0.52451 0.43751 0.22845 0 0 0 
0.52451 0.42996 0.22846 0 0 0 
0.54057 0.42996 0.22847 0 0 0 
0.54996 0.43964 0.26355 0 0 0 
0.54994 0.43956 0.12055 0 0 0 
0.58304 0.43078 0.12055 0 0 0 
0.58306 0.43085 0.26355 0 0 0 
0.59017 0.44496 0.22825 0 0 0 
0.53352 0.44496 0.22822 0 0 0 
0.53352 0.50422 0.22812 0 0 0 
0.59017 0.50422 0.22815 0 0 0 
0.56663 0.47228 0.22499 0 0 0 
0.56597 0.43868 0.22257 0 0 0 
0.59086 0.43868 0.21575 0 0 0 
0.59153 0.47228 0.21816 0 0 0 
0.58119 0.49284 0.24171 0 0 0 
0.58182 0.49245 0.22717 0 0 0 
0.57088 0.47454 0.22717 0 0 0 
0.57025 0.47493 0.24171 0 0 0 
0.58288 0.4929 0.25024 0 0 0 
0.58288 0.49289 0.22661 0 0 0 
0.53857 0.50465 0.22661 0 0 0 
0.53857 0.50466 0.25024 0 0 0 
0.56639 0.38667 0.41295 0 0 0 
0.54613 0.38667 0.41294 0 0 0 
0.54613 0.35695 0.41299 0 0 0 
0.56639 0.35695 0.413 0 0 0 
0.59263 0.43713 0.44712 0 0 0 
0.56401 0.43713 0.4471 0 0 0 
0.56401 0.47519 0.44704 0 0 0 
0.59263 0.47519 0.44706 0 0 0 
0.58973 0.46509 0.41094 0 0 0 
0.48538 0.46509 0.41088 0 0 0 
0.48538 0.50532 0.41081 0 0 0 
0.58973 0.50532 0.41088 0 0 0 
0.53787 0.5061 0.4265 0 0 0 
0.5384 0.50752 0.40943 0 0 0 
0.57325 0.4944 0.40943 0 0 0 
0.57272 0.49298 0.4265 0 0 0 
0.59281 0.45527 0.53844 0 0 0 
0.56385 0.45526 0.53884 0 0 0 
0.56385 0.47426 0.53936 0 0 0 
0.59281 0.47427 0.53896 0 0 0 
0.59332 0.43084 0.50001 0 0 0 
0.52608 0.43084 0.49997 0 0 0 
0.52608 0.50397 0.49985 0 0 0 
0.59332 0.50397 0.49989 0 0 0 
0.537 0.50387 0.52468 0 0 0 
0.537 0.50386 0.50031 0 0 0 
0.57895 0.49272 0.50031 0 0 0 
0.57896 0.49273 0.52468 0 0 0 
0.56002 0.38857 0.59839 0 0 0 
0.55382 0.35616 0.59701 0 0 0 
0.55701 0.35616 0.58268 0 0 0 
0.56321 0.38857 0.58406 0 0 0 
0.5626 0.38725 0.62874 0 0 0 
0.56269 0.36033 0.62941 0 0 0 
0.54355 0.36033 0.63193 0 0 0 
0.54346 0.38725 0.63125 0 0 0 
0.56305 0.38327 0.64098 0 0 0 
0.56145 0.38385 0.63157 0 0 0 
0.55322 0.36113 0.63157 0 0 0 
0.55481 0.36055 0.64098 0 0 0 
0.54711 0.38828 0.67798 0 0 0 
0.54757 0.39057 0.63093 0 0 0 
0.56192 0.38772 0.63093 0 0 0 
0.56147 0.38544 0.67798 0 0 0 
0.59118 0.44563 0.62969 0 0 0 
0.56442 0.44562 0.62992 0 0 0 
0.56442 0.47425 0.63101 0 0 0 
0.59118 0.47426 0.63078 0 0 0 
0.59238 0.45326 0.59337 0 0 0 
0.52568 0.45326 0.59333 0 0 0 
0.52568 0.50549 0.59324 0 0 0 
0.59238 0.50549 0.59328 0 0 0 
0.55309 0.35906 0.73265 0 0 0 
0.55424 0.35866 0.72285 0 0 0 
0.56113 0.37815 0.72285 0 0 0 
0.55998 0.37855 0.73265 0 0 0 
0.59197 0.47212 0.72199 0 0 0 
0.59196 0.44658 0.72156 0 0 0 
0.56656 0.44658 0.72207 0 0 0 
0.56657 0.47212 0.7225 0 0 0 
0.52653 0.48123 0.69229 0 0 0 
0.52655 0.4812 0.67067 0 0 0 
0.54888 0.50558 0.67067 0 0 0 
0.54886 0.5056 0.69229 0 0 0 
0.59261 0.42944 0.68243 0 0 0 
0.53133 0.42944 0.68222 0 0 0 
0.53133 0.50505 0.68289 0 0 0 
0.59261 0.50504 0.6831 0 0 0 
0.62731 0.4965 0.13802 0 0 0 
0.53771 0.4965 0.13797 0 0 0 
0.53771 0.35021 0.13822 0 0 0 
0.62731 0.35021 0.13827 0 0 0 
0.55913 0.37473 0.1729 0 0 0 
0.52864 0.36944 0.17809 0 0 0 
0.52864 0.36224 0.17075 0 0 0 
0.55913 0.36753 0.16556 0 0 0 
0.5649 0.38613 0.18387 0 0 0 
0.54022 0.38613 0.18386 0 0 0 
0.54022 0.35641 0.18391 0 0 0 
0.5649 0.35641 0.18392 0 0 0 
0.55668 0.4107 0.13981 0 0 0 
0.55991 0.4087 0.12506 0 0 0 
0.55222 0.39631 0.12506 0 0 0 
0.54899 0.39831 0.13981 0 0 0 
0.528 0.41599 0.18344 0 0 0 
0.52816 0.41639 0.16444 0 0 0 
0.50298 0.42613 0.16444 0 0 0 
0.50283 0.42573 0.18344 0 0 0 
0.54743 0.45375 0.18333 0 0 0 
0.50431 0.45375 0.18331 0 0 0 
0.50431 0.41951 0.18337 0 0 0 
0.54743 0.41951 0.18339 0 0 0 
0.54801 0.43105 0.15401 0 0 0 
0.53725 0.43352 0.15302 0 0 0 
0.53725 0.43648 0.16041 0 0 0 
0.54801 0.43402 0.1614 0 0 0 
0.59478 0.43226 0.17299 0 0 0 
0.55285 0.43226 0.17296 0 0 0 
0.55285 0.47938 0.17288 0 0 0 
0.59478 0.47938 0.17291 0 0 0 
0.57419 0.45427 0.16688 0 0 0 
0.5638 0.45818 0.17178 0 0 0 
0.5638 0.43902 0.18705 0 0 0 
0.57419 0.43511 0.18214 0 0 0 
0.57427 0.46732 0.1577 0 0 0 
0.57429 0.46731 0.13572 0 0 0 
0.58106 0.49285 0.13572 0 0 0 
0.58104 0.49285 0.1577 0 0 0 
0.58438 0.49181 0.15947 0 0 0 
0.58438 0.49179 0.12033 0 0 0 
0.54086 0.50333 0.12033 0 0 0 
0.54087 0.50335 0.15947 0 0 0 
0.55253 0.35531 0.77769 0 0 0 
0.5539 0.35489 0.76847 0 0 0 
0.56194 0.38103 0.76847 0 0 0 
0.56056 0.38145 0.77769 0 0 0 
0.57809 0.42907 0.78984 0 0 0 
0.57834 0.42904 0.76676 0 0 0 
0.57939 0.43838 0.76676 0 0 0 
0.57914 0.43841 0.78984 0 0 0 
0.59107 0.47451 0.81365 0 0 0 
0.59107 0.43123 0.81374 0 0 0 
0.56644 0.43123 0.81455 0 0 0 
0.56644 0.47451 0.81446 0 0 0 
0.58963 0.44396 0.7757 0 0 0 
0.5084 0.44396 0.77565 0 0 0 
0.5084 0.50615 0.77554 0 0 0 
0.58963 0.50615 0.77559 0 0 0 
0.56717 0.38321 0.36486 0 0 0 
0.55001 0.38282 0.36479 0 0 0 
0.55001 0.37656 0.40223 0 0 0 
0.56717 0.37696 0.40229 0 0 0 
0.5784 0.42744 0.65666 0 0 0 
0.57907 0.42755 0.63819 0 0 0 
0.57775 0.43545 0.63819 0 0 0 
0.57708 0.43534 0.65666 0 0 0 
0.5562 0.35793 0.13111 0 0 0 
0.5567 0.35773 0.11829 0 0 0 
0.56562 0.38002 0.11829 0 0 0 
0.56513 0.38022 0.13111 0 0 0 
0.5053 0.49157 0.45672 0 0 0 
0.39218 0.49157 0.45665 0 0 0 
0.39218 0.54951 0.45655 0 0 0 
0.5053 0.54951 0.45662 0 0 0 
0.50654 0.47442 0.54803 0 0 0 
0.40315 0.47442 0.54797 0 0 0 
0.40315 0.54899 0.54784 0 0 0 
0.50654 0.54899 0.5479 0 0 0 
0.51269 0.50782 0.56719 0 0 0 
0.49753 0.47365 0.57908 0 0 0 
0.46876 0.47365 0.54242 0 0 0 
0.48392 0.50782 0.53052 0 0 0 
0.41553 0.54547 0.4838 0 0 0 
0.41552 0.54546 0.45454 0 0 0 
0.45158 0.53589 0.45454 0 0 0 
0.45158 0.53591 0.4838 0 0 0 
0.39766 0.52 0.49176 0 0 0 
0.39466 0.51931 0.46533 0 0 0 
0.39114 0.53464 0.46533 0 0 0 
0.39414 0.53533 0.49176 0 0 0 
0.3978 0.53312 0.51759 0 0 0 
0.40127 0.52616 0.47876 0 0 0 
0.38951 0.52028 0.47876 0 0 0 
0.38603 0.52724 0.51759 0 0 0 
0.39768 0.52171 0.50274 0 0 0 
0.3361 0.52171 0.50271 0 0 0 
0.3361 0.57198 0.50262 0 0 0 
0.39768 0.57198 0.50266 0 0 0 
0.50713 0.45973 0.36438 0 0 0 
0.37974 0.45973 0.36395 0 0 0 
0.37974 0.5473 0.36473 0 0 0 
0.50713 0.5473 0.36516 0 0 0 
0.44095 0.53862 0.40472 0 0 0 
0.44104 0.53887 0.36965 0 0 0 
0.47295 0.52726 0.36965 0 0 0 
0.47286 0.527 0.40472 0 0 0 
0.45127 0.50851 0.45012 0 0 0 
0.45131 0.50852 0.36408 0 0 0 
0.44903 0.5363 0.36408 0 0 0 
0.44899 0.53629 0.45012 0 0 0 
0.50686 0.48956 0.27398 0 0 0 
0.39335 0.48956 0.27392 0 0 0 
0.39335 0.54804 0.27382 0 0 0 
0.50686 0.54804 0.27388 0 0 0 
0.46115 0.53054 0.29587 0 0 0 
0.46149 0.53176 0.27684 0 0 0 
0.48697 0.52452 0.27684 0 0 0 
0.48663 0.52331 0.29587 0 0 0 
0.43463 0.47973 0.35618 0 0 0 
0.43537 0.47917 0.34466 0 0 0 
0.45015 0.499 0.34466 0 0 0 
0.44941 0.49955 0.35618 0 0 0 
0.44932 0.52122 0.31657 0 0 0 
0.44934 0.52122 0.28281 0 0 0 
0.45058 0.53856 0.28281 0 0 0 
0.45056 0.53856 0.31657 0 0 0 
0.41102 0.54897 0.29595 0 0 0 
0.41116 0.54939 0.27279 0 0 0 
0.43829 0.54022 0.27279 0 0 0 
0.43815 0.53981 0.29595 0 0 0 
0.50568 0.48728 0.63183 0 0 0 
0.377 0.49017 0.62227 0 0 0 
0.377 0.54966 0.64021 0 0 0 
0.50568 0.54677 0.64978 0 0 0 
0.49983 0.5017 0.63548 0 0 0 
0.46929 0.50207 0.63716 0 0 0 
0.46929 0.47572 0.643 0 0 0 
0.49983 0.47535 0.64132 0 0 0 
0.44519 0.53444 0.68396 0 0 0 
0.44519 0.53442 0.64579 0 0 0 
0.48779 0.52312 0.64579 0 0 0 
0.48779 0.52314 0.68396 0 0 0 
0.39815 0.53423 0.67232 0 0 0 
0.39509 0.51879 0.67143 0 0 0 
0.3936 0.51879 0.67656 0 0 0 
0.39665 0.53423 0.67745 0 0 0 
0.45914 0.51666 0.62742 0 0 0 
0.42642 0.5174 0.62856 0 0 0 
0.42642 0.49315 0.64438 0 0 0 
0.45914 0.49241 0.64324 0 0 0 
0.46022 0.52854 0.59042 0 0 0 
0.46198 0.53519 0.5545 0 0 0 
0.40935 0.54914 0.5545 0 0 0 
0.40759 0.5425 0.59042 0 0 0 
0.50601 0.4979 0.73145 0 0 0 
0.3931 0.4979 0.73138 0 0 0 
0.3931 0.54945 0.73129 0 0 0 
0.50601 0.54945 0.73136 0 0 0 
0.49564 0.52194 0.76954 0 0 0 
0.49563 0.52192 0.72868 0 0 0 
0.44472 0.53543 0.72868 0 0 0 
0.44472 0.53545 0.76954 0 0 0 
0.51372 0.48706 0.18169 0 0 0 
0.41041 0.48706 0.18162 0 0 0 
0.41041 0.54548 0.18152 0 0 0 
0.51372 0.54548 0.18159 0 0 0 
0.41185 0.54539 0.2149 0 0 0 
0.41184 0.54538 0.18073 0 0 0 
0.49387 0.52361 0.18073 0 0 0 
0.49388 0.52363 0.2149 0 0 0 
0.45389 0.51572 0.27142 0 0 0 
0.45393 0.5157 0.23397 0 0 0 
0.43428 0.47901 0.23397 0 0 0 
0.43424 0.47904 0.27142 0 0 0 
0.44597 0.51772 0.22589 0 0 0 
0.44601 0.51771 0.18918 0 0 0 
0.45093 0.53626 0.18918 0 0 0 
0.4509 0.53626 0.22589 0 0 0 
0.41484 0.5233 0.24663 0 0 0 
0.36575 0.52491 0.24598 0 0 0 
0.36575 0.53952 0.28255 0 0 0 
0.41484 0.53791 0.2832 0 0 0 
0.30239 0.55463 0.55 0 0 0 
0.30217 0.53369 0.54827 0 0 0 
0.33094 0.53369 0.54473 0 0 0 
0.33116 0.55463 0.54646 0 0 0 
0.32568 0.61188 0.80954 0 0 0 
0.32633 0.61171 0.15028 0 0 0 
0.30559 0.53355 0.15028 0 0 0 
0.30494 0.53373 0.80954 0 0 0 
0.45593 0.56538 0.81103 0 0 0 
0.45455 0.56129 0.058228 0 0 0 
0.19267 0.6496 0.058228 0 0 0 
0.19405 0.65368 0.81103 0 0 0 
0.32706 0.59247 0.52934 0 0 0 
0.29924 0.59743 0.52585 0 0 0 
0.29924 0.6131 0.54814 0 0 0 
0.32706 0.60814 0.55162 0 0 0 
0.30481 0.51433 0.43273 0 0 0 
0.30646 0.51321 0.41036 0 0 0 
0.31523 0.52613 0.41036 0 0 0 
0.31358 0.52725 0.43273 0 0 0 
0.31644 0.53501 0.41297 0 0 0 
0.29992 0.53486 0.41454 0 0 0 
0.29992 0.51963 0.41307 0 0 0 
0.31644 0.51978 0.4115 0 0 0 
0.38946 0.53535 0.41057 0 0 0 
0.33628 0.53535 0.41054 0 0 0 
0.33628 0.56863 0.41048 0 0 0 
0.38946 0.56863 0.41051 0 0 0 
0.29712 0.59411 0.41064 0 0 0 
0.27853 0.59088 0.41476 0 0 0 
0.27853 0.58681 0.41159 0 0 0 
0.29712 0.59004 0.40746 0 0 0 
0.39011 0.5573 0.43334 0 0 0 
0.39011 0.55728 0.40905 0 0 0 
0.34173 0.57012 0.40905 0 0 0 
0.34173 0.57013 0.43334 0 0 0 
0.28361 0.61998 0.44784 0 0 0 
0.28391 0.59087 0.4508 0 0 0 
0.32384 0.59087 0.44669 0 0 0 
0.32353 0.61998 0.44374 0 0 0 
0.38735 0.57154 0.59377 0 0 0 
0.30455 0.57154 0.59372 0 0 0 
0.30455 0.53016 0.5938 0 0 0 
0.38735 0.53016 0.59385 0 0 0 
0.38265 0.55686 0.62094 0 0 0 
0.38312 0.55821 0.614 0 0 0 
0.35624 0.5675 0.614 0 0 0 
0.35577 0.56615 0.62094 0 0 0 
0.28374 0.60634 0.64516 0 0 0 
0.28852 0.60316 0.62414 0 0 0 
0.2981 0.61758 0.62414 0 0 0 
0.29331 0.62076 0.64516 0 0 0 
0.28355 0.6064 0.59904 0 0 0 
0.28479 0.60526 0.58309 0 0 0 
0.29828 0.62005 0.58309 0 0 0 
0.29703 0.62119 0.59904 0 0 0 
0.30349 0.62026 0.63469 0 0 0 
0.30547 0.60392 0.63021 0 0 0 
0.29061 0.60392 0.62364 0 0 0 
0.28863 0.62026 0.62812 0 0 0 
0.38678 0.5378 0.68517 0 0 0 
0.33542 0.5378 0.68514 0 0 0 
0.33542 0.56883 0.68508 0 0 0 
0.38678 0.56883 0.68512 0 0 0 
0.38976 0.55571 0.69208 0 0 0 
0.36548 0.56135 0.6942 0 0 0 
0.36548 0.5636 0.68821 0 0 0 
0.38976 0.55796 0.68609 0 0 0 
0.3242 0.59707 0.72168 0 0 0 
0.28593 0.59707 0.72166 0 0 0 
0.28593 0.61934 0.72162 0 0 0 
0.3242 0.61934 0.72164 0 0 0 
0.28895 0.6046 0.70277 0 0 0 
0.28917 0.60451 0.66751 0 0 0 
0.29581 0.62046 0.66751 0 0 0 
0.29559 0.62055 0.70277 0 0 0 
0.2892 0.60872 0.73351 0 0 0 
0.28921 0.60871 0.72341 0 0 0 
0.29518 0.61985 0.72341 0 0 0 
0.29517 0.61986 0.73351 0 0 0 
0.38879 0.56724 0.22791 0 0 0 
0.33556 0.56724 0.22788 0 0 0 
0.33556 0.49955 0.22799 0 0 0 
0.38879 0.49955 0.22803 0 0 0 
0.31002 0.54953 0.24084 0 0 0 
0.31354 0.5512 0.22197 0 0 0 
0.32164 0.53414 0.22197 0 0 0 
0.31813 0.53247 0.24084 0 0 0 
0.38136 0.53311 0.24968 0 0 0 
0.3764 0.53668 0.21645 0 0 0 
0.3878 0.5525 0.21645 0 0 0 
0.39276 0.54893 0.24968 0 0 0 
0.37099 0.53102 0.22764 0 0 0 
0.36649 0.53202 0.20498 0 0 0 
0.36954 0.54573 0.20498 0 0 0 
0.37404 0.54473 0.22764 0 0 0 
0.35246 0.56704 0.25129 0 0 0 
0.35281 0.56818 0.22711 0 0 0 
0.39072 0.55645 0.22711 0 0 0 
0.39037 0.55532 0.25129 0 0 0 
0.28985 0.60524 0.31783 0 0 0 
0.28992 0.60522 0.23972 0 0 0 
0.29381 0.61985 0.23972 0 0 0 
0.29373 0.61987 0.31783 0 0 0 
0.33711 0.51937 0.32543 0 0 0 
0.33658 0.49219 0.32348 0 0 0 
0.36415 0.49219 0.31592 0 0 0 
0.36468 0.51937 0.31788 0 0 0 
0.337 0.55031 0.36484 0 0 0 
0.29893 0.55031 0.36482 0 0 0 
0.29893 0.51995 0.36487 0 0 0 
0.337 0.51995 0.3649 0 0 0 
0.31899 0.54928 0.3663 0 0 0 
0.32026 0.5473 0.33494 0 0 0 
0.30424 0.53703 0.33494 0 0 0 
0.30297 0.53901 0.3663 0 0 0 
0.3792 0.54847 0.31822 0 0 0 
0.33739 0.54856 0.31769 0 0 0 
0.33739 0.57216 0.32146 0 0 0 
0.3792 0.57207 0.322 0 0 0 
0.36438 0.56556 0.33906 0 0 0 
0.36418 0.56495 0.31723 0 0 0 
0.34236 0.5719 0.31723 0 0 0 
0.34256 0.57251 0.33906 0 0 0 
0.38585 0.53981 0.77672 0 0 0 
0.33166 0.53981 0.77668 0 0 0 
0.33166 0.57005 0.77663 0 0 0 
0.38585 0.57005 0.77666 0 0 0 
0.32032 0.53547 0.13884 0 0 0 
0.30841 0.53713 0.13492 0 0 0 
0.30841 0.55112 0.1408 0 0 0 
0.32032 0.54947 0.14473 0 0 0 
0.27021 0.55722 0.12895 0 0 0 
0.25247 0.56064 0.12803 0 0 0 
0.25247 0.56368 0.13935 0 0 0 
0.27021 0.56026 0.14027 0 0 0 
0.3726 0.5646 0.1767 0 0 0 
0.34274 0.56443 0.17844 0 0 0 
0.34274 0.54576 0.17662 0 0 0 
0.3726 0.54593 0.17489 0 0 0 
0.37953 0.57594 0.17024 0 0 0 
0.37856 0.57854 0.15525 0 0 0 
0.34518 0.56613 0.15525 0 0 0 
0.34614 0.56353 0.17024 0 0 0 
0.39035 0.55821 0.15343 0 0 0 
0.35898 0.56507 0.14913 0 0 0 
0.35898 0.57446 0.16411 0 0 0 
0.39035 0.5676 0.16841 0 0 0 
0.31571 0.6186 0.17042 0 0 0 
0.30904 0.5987 0.16406 0 0 0 
0.29005 0.5987 0.18395 0 0 0 
0.29671 0.6186 0.19031 0 0 0 
0.32709 0.5902 0.1694 0 0 0 
0.29124 0.59852 0.17253 0 0 0 
0.29124 0.61587 0.12641 0 0 0 
0.32709 0.60755 0.12328 0 0 0 
0.32061 0.61067 0.16684 0 0 0 
0.29456 0.61913 0.17592 0 0 0 
0.29456 0.60717 0.18706 0 0 0 
0.32061 0.59871 0.17798 0 0 0 
0.31106 0.58731 0.45298 0 0 0 
0.28812 0.59276 0.45688 0 0 0 
0.28812 0.58863 0.46266 0 0 0 
0.31106 0.58317 0.45875 0 0 0 
0.33483 0.54922 0.64122 0 0 0 
0.30973 0.54873 0.64406 0 0 0 
0.30973 0.52784 0.64042 0 0 0 
0.33483 0.52834 0.63758 0 0 0 
0.31515 0.54573 0.67732 0 0 0 
0.31515 0.54572 0.66151 0 0 0 
0.319 0.5447 0.66151 0 0 0 
0.319 0.54471 0.67732 0 0 0 
0.32678 0.5937 0.40062 0 0 0 
0.29234 0.5937 0.4006 0 0 0 
0.29234 0.61885 0.40056 0 0 0 
0.32678 0.61885 0.40058 0 0 0 
0.33936 0.51267 0.22212 0 0 0 
0.33937 0.51266 0.20969 0 0 0 
0.34154 0.52085 0.20969 0 0 0 
0.34153 0.52085 0.22212 0 0 0 
0.30645 0.5367 0.1848 0 0 0 
0.30619 0.51379 0.1829 0 0 0 
0.32935 0.51379 0.17973 0 0 0 
0.32961 0.5367 0.18164 0 0 0 
0.32227 0.53324 0.30708 0 0 0 
0.33126 0.54287 0.27289 0 0 0 
0.31247 0.56042 0.27289 0 0 0 
0.30347 0.55079 0.30708 0 0 0 
0.32238 0.59033 0.76732 0 0 0 
0.28812 0.59033 0.7673 0 0 0 
0.28812 0.61994 0.76725 0 0 0 
0.32238 0.61994 0.76727 0 0 0 
0.14649 0.40259 0.40827 0 0 0 
0.14671 0.40253 0.18612 0 0 0 
0.2111 0.64519 0.18612 0 0 0 
0.21088 0.64525 0.40827 0 0 0 
0.18419 0.64911 0.41171 0 0 0 
0.18358 0.60137 0.40903 0 0 0 
0.23671 0.60137 0.39708 0 0 0 
0.23731 0.64911 0.39977 0 0 0 
0.25857 0.60838 0.40892 0 0 0 
0.25857 0.58057 0.40899 0 0 0 
0.23144 0.58057 0.40906 0 0 0 
0.23144 0.60838 0.409 0 0 0 
0.25628 0.60148 0.44685 0 0 0 
0.20267 0.60148 0.44682 0 0 0 
0.20267 0.64616 0.44674 0 0 0 
0.25628 0.64616 0.44677 0 0 0 
0.24868 0.61569 0.77256 0 0 0 
0.24934 0.61551 0.10816 0 0 0 
0.2549 0.63646 0.10816 0 0 0 
0.25424 0.63663 0.77256 0 0 0 
0.20623 0.63704 0.50204 0 0 0 
0.17486 0.63704 0.50202 0 0 0 
0.17486 0.59288 0.50209 0 0 0 
0.20623 0.59288 0.50211 0 0 0 
0.21259 0.6496 0.50463 0 0 0 
0.22514 0.64436 0.45641 0 0 0 
0.20101 0.58661 0.45641 0 0 0 
0.18847 0.59185 0.50463 0 0 0 
0.24772 0.64843 0.53774 0 0 0 
0.20437 0.64843 0.53772 0 0 0 
0.20437 0.62156 0.53776 0 0 0 
0.24772 0.62156 0.53779 0 0 0 
0.18105 0.64392 0.32231 0 0 0 
0.17983 0.58219 0.31787 0 0 0 
0.23059 0.58219 0.30396 0 0 0 
0.23181 0.64392 0.30841 0 0 0 
0.24981 0.57378 0.31798 0 0 0 
0.2368 0.57378 0.31797 0 0 0 
0.2368 0.58802 0.31794 0 0 0 
0.24981 0.58802 0.31795 0 0 0 
0.24461 0.64887 0.35506 0 0 0 
0.24462 0.62224 0.3548 0 0 0 
0.20698 0.62224 0.35297 0 0 0 
0.20697 0.64887 0.35323 0 0 0 
0.18956 0.55523 0.5922 0 0 0 
0.1896 0.55522 0.54695 0 0 0 
0.21327 0.64441 0.54695 0 0 0 
0.21322 0.64442 0.5922 0 0 0 
0.17518 0.64702 0.59904 0 0 0 
0.17415 0.5912 0.59528 0 0 0 
0.22346 0.5912 0.5817 0 0 0 
0.2245 0.64702 0.58546 0 0 0 
0.25211 0.64712 0.62934 0 0 0 
0.20472 0.64712 0.62931 0 0 0 
0.20472 0.62316 0.62935 0 0 0 
0.25211 0.62316 0.62938 0 0 0 
0.19365 0.56755 0.71938 0 0 0 
0.19095 0.56875 0.68404 0 0 0 
0.18188 0.54827 0.68404 0 0 0 
0.18458 0.54707 0.71938 0 0 0 
0.20298 0.63695 0.68621 0 0 0 
0.17502 0.63695 0.68619 0 0 0 
0.17502 0.59471 0.68627 0 0 0 
0.20298 0.59471 0.68628 0 0 0 
0.21421 0.64026 0.67233 0 0 0 
0.2099 0.60381 0.66914 0 0 0 
0.19911 0.60381 0.6837 0 0 0 
0.20342 0.64026 0.6869 0 0 0 
0.24372 0.62169 0.7222 0 0 0 
0.20673 0.62169 0.72218 0 0 0 
0.20673 0.64628 0.72214 0 0 0 
0.24372 0.64628 0.72216 0 0 0 
0.21188 0.64156 0.735 0 0 0 
0.20722 0.62607 0.73256 0 0 0 
0.21543 0.62607 0.71692 0 0 0 
0.22009 0.64156 0.71936 0 0 0 
0.20048 0.61123 0.22576 0 0 0 
0.18139 0.61123 0.22575 0 0 0 
0.18139 0.59676 0.22577 0 0 0 
0.20048 0.59676 0.22578 0 0 0 
0.19952 0.58877 0.67403 0 0 0 
0.19953 0.58876 0.65668 0 0 0 
0.20226 0.59902 0.65668 0 0 0 
0.20224 0.59902 0.67403 0 0 0 
0.22945 0.64795 0.76784 0 0 0 
0.19923 0.64795 0.76782 0 0 0 
0.19923 0.61407 0.76788 0 0 0 
0.22945 0.61407 0.7679 0 0 0 
0.17334 0.55559 0.45419 0 0 0 
0.14248 0.55559 0.45417 0 0 0 
0.14248 0.46763 0.45432 0 0 0 
0.17334 0.46763 0.45434 0 0 0 
0.17003 0.50991 0.52441 0 0 0 
0.17005 0.50991 0.51053 0 0 0 
0.17308 0.52132 0.51053 0 0 0 
0.17306 0.52133 0.52441 0 0 0 
0.14886 0.45195 0.43128 0 0 0 
0.1479 0.45242 0.42001 0 0 0 
0.15813 0.47327 0.42001 0 0 0 
0.15908 0.4728 0.43128 0 0 0 
0.1627 0.48143 0.36267 0 0 0 
0.14171 0.48144 0.36248 0 0 0 
0.14171 0.50122 0.36376 0 0 0 
0.1627 0.50121 0.36396 0 0 0 
0.14841 0.55713 0.36918 0 0 0 
0.14759 0.51566 0.3662 0 0 0 
0.17978 0.51566 0.35738 0 0 0 
0.1806 0.55713 0.36036 0 0 0 
0.17984 0.56178 0.54754 0 0 0 
0.13227 0.56178 0.54751 0 0 0 
0.13227 0.46707 0.54768 0 0 0 
0.17984 0.46707 0.5477 0 0 0 
0.15408 0.47122 0.27186 0 0 0 
0.13477 0.47122 0.27185 0 0 0 
0.13477 0.48217 0.27183 0 0 0 
0.15408 0.48217 0.27184 0 0 0 
0.15197 0.5063 0.30913 0 0 0 
0.15217 0.5073 0.28647 0 0 0 
0.14429 0.50888 0.28647 0 0 0 
0.14409 0.50788 0.30913 0 0 0 
0.14451 0.55579 0.27685 0 0 0 
0.14381 0.50655 0.27419 0 0 0 
0.16446 0.50655 0.26878 0 0 0 
0.16516 0.55579 0.27144 0 0 0 
0.15422 0.56339 0.64465 0 0 0 
0.1527 0.51978 0.6377 0 0 0 
0.18055 0.51978 0.63161 0 0 0 
0.18207 0.56339 0.63856 0 0 0 
0.14961 0.56359 0.73642 0 0 0 
0.14868 0.51634 0.73302 0 0 0 
0.18823 0.51634 0.72219 0 0 0 
0.18916 0.56359 0.72558 0 0 0 
0.15898 0.46701 0.84583 0 0 0 
0.15906 0.46698 0.81422 0 0 0 
0.17272 0.5075 0.81422 0 0 0 
0.17264 0.50752 0.84583 0 0 0 
0.034651 0.32205 0.54801 0 0 0 
0.034566 0.32208 0.50583 0 0 0 
0.031273 0.31216 0.50583 0 0 0 
0.031358 0.31213 0.54801 0 0 0 
0.14186 0.36557 0.8796 0 0 0 
0.14178 0.36525 0.25835 0 0 0 
0.03887 0.39256 0.25835 0 0 0 
0.038956 0.39288 0.8796 0 0 0 
0.14501 0.43263 0.50056 0 0 0 
0.12448 0.43263 0.50055 0 0 0 
0.12448 0.39992 0.50081 0 0 0 
0.14501 0.39992 0.50082 0 0 0 
0.011584 0.30909 0.441 0 0 0 
0.011575 0.30906 0.37493 0 0 0 
0.028753 0.3045 0.37493 0 0 0 
0.028762 0.30453 0.441 0 0 0 
0.14156 0.41003 0.40893 0 0 0 
0.12103 0.41003 0.40889 0 0 0 
0.12103 0.44048 0.40851 0 0 0 
0.14156 0.44048 0.40856 0 0 0 
0.021541 0.30634 0.59516 0 0 0 
0.021538 0.30633 0.57395 0 0 0 
0.012996 0.3086 0.57395 0 0 0 
0.012999 0.30861 0.59516 0 0 0 
0.030115 0.36198 0.63965 0 0 0 
0.030138 0.36197 0.62951 0 0 0 
0.038562 0.38714 0.62951 0 0 0 
0.038539 0.38714 0.63965 0 0 0 
0.13431 0.41829 0.59202 0 0 0 
0.12119 0.41829 0.59201 0 0 0 
0.12119 0.43013 0.59199 0 0 0 
0.13431 0.43013 0.592 0 0 0 
0.11252 0.41063 0.68556 0 0 0 
0.11252 0.41063 0.68313 0 0 0 
0.12933 0.41641 0.68313 0 0 0 
0.12933 0.41641 0.68556 0 0 0 
0.12731 0.4213 0.31721 0 0 0 
0.12731 0.39544 0.31723 0 0 0 
0.13559 0.39544 0.31728 0 0 0 
0.13559 0.4213 0.31726 0 0 0 
0.13787 0.40591 0.37262 0 0 0 
0.13789 0.4059 0.35631 0 0 0 
0.14093 0.41737 0.35631 0 0 0 
0.14092 0.41737 0.37262 0 0 0 
0.13719 0.40268 0.78122 0 0 0 
0.13729 0.40265 0.75417 0 0 0 
0.14155 0.41519 0.75417 0 0 0 
0.14145 0.41523 0.78122 0 0 0 
0.14488 0.42507 0.85319 0 0 0 
0.14508 0.42501 0.79634 0 0 0 
0.1537 0.45071 0.79634 0 0 0 
0.15351 0.45078 0.85319 0 0 0 
0.0071573 0.30568 0.26532 0 0 0 
0.015179 0.31007 0.2462 0 0 0 
0.01994 0.30136 0.2462 0 0 0 
0.011918 0.29698 0.26532 0 0 0 
0.030815 0.31176 0.24503 0 0 0 
0.030827 0.31176 0.23225 0 0 0 
0.033873 0.32324 0.23225 0 0 0 
0.03386 0.32324 0.24503 0 0 0 
0.0343 0.36699 0.26271 0 0 0 
0.034318 0.36698 0.2447 0 0 0 
0.037076 0.37738 0.2447 0 0 0 
0.037058 0.37738 0.26271 0 0 0 
0.13761 0.40558 0.48036 0 0 0 
0.13816 0.40545 0.45825 0 0 0 
0.14292 0.42639 0.45825 0 0 0 
0.14236 0.42651 0.48036 0 0 0 
0.028527 0.30375 0.29204 0 0 0 
0.028547 0.30375 0.27253 0 0 0 
0.032678 0.31932 0.27253 0 0 0 
0.032658 0.31932 0.29204 0 0 0 
0.56405 0.062057 0.052843 0 0 0 
0.56404 0.062033 0.0057753 0 0 0 
0.41298 0.10212 0.0057753 0 0 0 
0.41299 0.10214 0.052843 0 0 0 
0.46648 0.074289 0.039075 0 0 0 
0.46648 0.074267 0.02651 0 0 0 
0.47742 0.075957 0.02651 0 0 0 
0.47742 0.07598 0.039075 0 0 0 
0.45626 0.094427 0.095326 0 0 0 
0.45634 0.094406 0.014763 0 0 0 
0.49549 0.24195 0.014763 0 0 0 
0.49541 0.24197 0.095326 0 0 0 
0.59397 0.33519 0.094136 0 0 0 
0.59401 0.33518 0.050808 0 0 0 
0.61106 0.39942 0.050808 0 0 0 
0.61101 0.39943 0.094136 0 0 0 
0.62039 0.31965 0.090193 0 0 0 
0.61811 0.30576 0.088405 0 0 0 
0.60514 0.30576 0.10495 0 0 0 
0.60742 0.31965 0.10674 0 0 0 
0.6185 0.30682 0.018242 0 0 0 
0.59607 0.31136 0.023237 0 0 0 
0.59607 0.32073 0.014715 0 0 0 
0.6185 0.31618 0.0097201 0 0 0 
0.62381 0.2449 0.026068 0 0 0 
0.6238 0.24489 0.01649 0 0 0 
0.61931 0.24856 0.01649 0 0 0 
0.61931 0.24857 0.026068 0 0 0 
0.59842 0.25558 0.0079608 0 0 0 
0.58067 0.25935 0.012328 0 0 0 
0.58067 0.249 0.021264 0 0 0 
0.59842 0.24523 0.016897 0 0 0 
0.63087 0.29397 0.0077799 0 0 0 
0.59223 0.29397 0.0078562 0 0 0 
0.59223 0.26398 0.0080378 0 0 0 
0.63087 0.26398 0.0079615 0 0 0 
0.62115 0.30154 0.076109 0 0 0 
0.59705 0.30271 0.079147 0 0 0 
0.59705 0.28908 0.084411 0 0 0 
0.62115 0.28791 0.081374 0 0 0 
0.60916 0.29844 0.047402 0 0 0 
0.60916 0.29844 0.029232 0 0 0 
0.60525 0.30701 0.029232 0 0 0 
0.60525 0.30702 0.047402 0 0 0 
0.53357 0.33834 0.06704 0 0 0 
0.53363 0.33832 0.0082014 0 0 0 
0.54635 0.38625 0.0082014 0 0 0 
0.54629 0.38627 0.06704 0 0 0 
0.58443 0.34751 0.13527 0 0 0 
0.58456 0.34775 0.11682 0 0 0 
0.58854 0.34556 0.11682 0 0 0 
0.58841 0.34532 0.13527 0 0 0 
0.51327 0.31928 0.044776 0 0 0 
0.51207 0.32107 0.013415 0 0 0 
0.52208 0.32781 0.013415 0 0 0 
0.52329 0.32602 0.044776 0 0 0 
0.63676 0.35206 0.020705 0 0 0 
0.59603 0.35265 0.023142 0 0 0 
0.59603 0.39558 0.012716 0 0 0 
0.63676 0.39499 0.010279 0 0 0 
0.63666 0.37017 0.10431 0 0 0 
0.61133 0.36894 0.10767 0 0 0 
0.61133 0.39084 0.11569 0 0 0 
0.63666 0.39207 0.11233 0 0 0 
0.6216 0.38897 0.091002 0 0 0 
0.62691 0.37209 0.08812 0 0 0 
0.63076 0.37209 0.09521 0 0 0 
0.62545 0.38897 0.098092 0 0 0 
0.64247 0.36919 0.10723 0 0 0 
0.64247 0.36919 0.094187 0 0 0 
0.63731 0.38476 0.094187 0 0 0 
0.63731 0.38476 0.10723 0 0 0 
0.64893 0.36333 0.077574 0 0 0 
0.63186 0.35944 0.084553 0 0 0 
0.63186 0.39504 0.10436 0 0 0 
0.64893 0.39893 0.097383 0 0 0 
0.6423 0.39112 0.091782 0 0 0 
0.6375 0.36911 0.088848 0 0 0 
0.62633 0.36911 0.1071 0 0 0 
0.63112 0.39112 0.11004 0 0 0 
0.62516 0.38271 0.085657 0 0 0 
0.61347 0.38443 0.08411 0 0 0 
0.61347 0.39781 0.099029 0 0 0 
0.62516 0.39608 0.10058 0 0 0 
0.59638 0.35316 0.068278 0 0 0 
0.59637 0.35313 0.020338 0 0 0 
0.57238 0.3595 0.020338 0 0 0 
0.57238 0.35952 0.068278 0 0 0 
0.60263 0.36578 0.021619 0 0 0 
0.60265 0.36577 0.0097043 0 0 0 
0.59538 0.35571 0.0097043 0 0 0 
0.59536 0.35572 0.021619 0 0 0 
0.60965 0.37567 0.046143 0 0 0 
0.60887 0.37354 0.02789 0 0 0 
0.62624 0.36721 0.02789 0 0 0 
0.62701 0.36934 0.046143 0 0 0 
0.595 0.37984 0.13599 0 0 0 
0.59428 0.37869 0.11194 0 0 0 
0.59862 0.37597 0.11194 0 0 0 
0.59934 0.37711 0.13599 0 0 0 
0.65845 0.43328 0.015699 0 0 0 
0.65742 0.4133 0.012909 0 0 0 
0.64009 0.4133 0.019286 0 0 0 
0.64112 0.43328 0.022076 0 0 0 
0.66921 0.41434 0.094802 0 0 0 
0.66919 0.41432 0.036665 0 0 0 
0.63174 0.45933 0.036665 0 0 0 
0.63176 0.45936 0.094802 0 0 0 
0.61741 0.41243 0.13936 0 0 0 
0.61754 0.41239 0.0076393 0 0 0 
0.63856 0.49162 0.0076393 0 0 0 
0.63843 0.49166 0.13936 0 0 0 
0.66698 0.43624 0.050206 0 0 0 
0.66773 0.41887 0.049521 0 0 0 
0.63897 0.41887 0.018074 0 0 0 
0.63823 0.43624 0.018759 0 0 0 
0.67135 0.42879 0.044816 0 0 0 
0.63212 0.42967 0.041899 0 0 0 
0.63212 0.44762 0.047313 0 0 0 
0.67135 0.44674 0.050229 0 0 0 
0.66931 0.42718 0.065737 0 0 0 
0.63589 0.42598 0.063391 0 0 0 
0.63589 0.39717 0.078139 0 0 0 
0.66931 0.39837 0.080485 0 0 0 
0.66152 0.40321 0.10115 0 0 0 
0.63276 0.40441 0.10259 0 0 0 
0.63276 0.43096 0.080648 0 0 0 
0.66152 0.42976 0.079202 0 0 0 
0.66017 0.41182 0.05173 0 0 0 
0.63003 0.41776 0.055208 0 0 0 
0.63003 0.44409 0.010234 0 0 0 
0.66017 0.43815 0.0067555 0 0 0 
0.6222 0.42629 0.016901 0 0 0 
0.60595 0.42615 0.016265 0 0 0 
0.60595 0.4131 0.019258 0 0 0 
0.6222 0.41324 0.019894 0 0 0 
0.63469 0.45696 0.06315 0 0 0 
0.63468 0.45693 0.013868 0 0 0 
0.61526 0.46208 0.013868 0 0 0 
0.61527 0.46211 0.06315 0 0 0 
0.69682 0.47602 0.065239 0 0 0 
0.69852 0.44786 0.070255 0 0 0 
0.66891 0.44786 0.080295 0 0 0 
0.66721 0.47602 0.075279 0 0 0 
0.66003 0.4535 0.088782 0 0 0 
0.66005 0.45345 0.055001 0 0 0 
0.6989 0.4733 0.055001 0 0 0 
0.69888 0.47335 0.088782 0 0 0 
0.69404 0.48564 0.087457 0 0 0 
0.6911 0.44769 0.092045 0 0 0 
0.64622 0.44769 0.063309 0 0 0 
0.64916 0.48564 0.058721 0 0 0 
0.38475 0.46345 0.024055 0 0 0 
0.38476 0.46343 0.014102 0 0 0 
0.37759 0.46089 0.014102 0 0 0 
0.37758 0.46091 0.024055 0 0 0 
0.69807 0.49573 0.07673 0 0 0 
0.68924 0.44096 0.058813 0 0 0 
0.6385 0.44096 0.083832 0 0 0 
0.64733 0.49573 0.10175 0 0 0 
0.28793 0.46742 0.49999 0 0 0 
0.28002 0.46951 0.4647 0 0 0 
0.2714 0.43706 0.4647 0 0 0 
0.27931 0.43496 0.49999 0 0 0 
0.64389 0.44804 0.090833 0 0 0 
0.63831 0.45576 0.071716 0 0 0 
0.61747 0.44073 0.071716 0 0 0 
0.62305 0.433 0.090833 0 0 0 
0.28588 0.45553 0.7314 0 0 0 
0.28503 0.43643 0.7288 0 0 0 
0.30227 0.43643 0.72315 0 0 0 
0.30312 0.45553 0.72575 0 0 0 
0.29563 0.44969 0.77616 0 0 0 
0.29406 0.43653 0.77443 0 0 0 
0.30002 0.43653 0.769 0 0 0 
0.3016 0.44969 0.77073 0 0 0 
0.46083 0.5385 0.040259 0 0 0 
0.46086 0.53849 0.0041997 0 0 0 
0.43704 0.44871 0.0041997 0 0 0 
0.437 0.44872 0.040259 0 0 0 
0.46791 0.48395 0.22777 0 0 0 
0.43232 0.48398 0.22864 0 0 0 
0.43232 0.46102 0.22943 0 0 0 
0.46791 0.46099 0.22856 0 0 0 
0.69293 0.49004 0.10322 0 0 0 
0.62612 0.50533 0.09708 0 0 0 
0.62612 0.48528 0.047192 0 0 0 
0.69293 0.46999 0.053335 0 0 0 
0.69885 0.46974 0.059476 0 0 0 
0.63634 0.46741 0.060761 0 0 0 
0.63634 0.49113 0.10363 0 0 0 
0.69885 0.49346 0.10235 0 0 0 
0.34234 0.50758 0.038301 0 0 0 
0.34238 0.50757 0.0028671 0 0 0 
0.33753 0.48931 0.0028671 0 0 0 
0.3375 0.48932 0.038301 0 0 0 
0.33604 0.49022 0.039561 0 0 0 
0.33677 0.49245 0.011222 0 0 0 
0.36945 0.48175 0.011222 0 0 0 
0.36872 0.47952 0.039562 0 0 0 
0.45015 0.49629 0.27199 0 0 0 
0.4325 0.4955 0.26873 0 0 0 
0.4325 0.47316 0.2741 0 0 0 
0.45015 0.47394 0.27736 0 0 0 
0.64109 0.50123 0.068109 0 0 0 
0.58082 0.50123 0.068073 0 0 0 
0.58082 0.46117 0.068142 0 0 0 
0.64109 0.46117 0.068179 0 0 0 
0.56621 0.51839 0.11444 0 0 0 
0.5662 0.51836 0.062943 0 0 0 
0.64932 0.4963 0.062943 0 0 0 
0.64933 0.49633 0.11444 0 0 0 
0.6345 0.47245 0.015809 0 0 0 
0.6345 0.46743 0.015789 0 0 0 
0.61546 0.46743 0.017123 0 0 0 
0.61547 0.47245 0.017143 0 0 0 
0.63183 0.47763 0.11214 0 0 0 
0.63196 0.46935 0.11242 0 0 0 
0.61921 0.46935 0.11863 0 0 0 
0.61907 0.47763 0.11835 0 0 0 
0.68142 0.47614 0.10008 0 0 0 
0.64109 0.47545 0.096044 0 0 0 
0.64109 0.49936 0.091992 0 0 0 
0.68142 0.50005 0.096029 0 0 0 
0.66477 0.48097 0.10229 0 0 0 
0.67048 0.48459 0.081697 0 0 0 
0.6557 0.50789 0.081697 0 0 0 
0.65 0.50427 0.10229 0 0 0 
0.36591 0.49779 0.3674 0 0 0 
0.35233 0.49787 0.36689 0 0 0 
0.35233 0.48681 0.36533 0 0 0 
0.36591 0.48674 0.36584 0 0 0 
0.41614 0.54914 0.004098 0 0 0 
0.33526 0.54914 0.0040491 0 0 0 
0.33526 0.49056 0.0041502 0 0 0 
0.41614 0.49056 0.0041991 0 0 0 
0.35861 0.50984 0.055227 0 0 0 
0.3595 0.49064 0.05436 0 0 0 
0.37608 0.49064 0.07136 0 0 0 
0.37519 0.50984 0.072227 0 0 0 
0.38566 0.49136 0.025381 0 0 0 
0.38843 0.49228 0.010057 0 0 0 
0.38355 0.5071 0.010057 0 0 0 
0.38077 0.50619 0.025381 0 0 0 
0.4251 0.50494 0.034404 0 0 0 
0.4247 0.50333 0.0035125 0 0 0 
0.40331 0.50861 0.0035125 0 0 0 
0.40371 0.51022 0.034404 0 0 0 
0.5761 0.47498 0.068976 0 0 0 
0.57616 0.47496 0.0080737 0 0 0 
0.58637 0.51346 0.0080737 0 0 0 
0.58631 0.51347 0.068976 0 0 0 
0.4071 0.50552 0.63988 0 0 0 
0.39717 0.50574 0.63914 0 0 0 
0.39717 0.51347 0.64147 0 0 0 
0.4071 0.51325 0.64221 0 0 0 
0.53188 0.53697 0.092825 0 0 0 
0.53187 0.53696 0.067914 0 0 0 
0.46864 0.55374 0.067914 0 0 0 
0.46864 0.55375 0.092825 0 0 0 
0.43736 0.23804 0.89412 0 0 0 
0.43745 0.238 0.87288 0 0 0 
0.44424 0.2587 0.87288 0 0 0 
0.44415 0.25873 0.89412 0 0 0 
0.45751 0.29994 0.87541 0 0 0 
0.45751 0.29993 0.86993 0 0 0 
0.45403 0.2868 0.86993 0 0 0 
0.45402 0.2868 0.87541 0 0 0 
0.58748 0.46895 0.069246 0 0 0 
0.58755 0.4689 0.0067233 0 0 0 
0.55264 0.42061 0.0067233 0 0 0 
0.55257 0.42066 0.069246 0 0 0 
0.5898 0.4613 0.069261 0 0 0 
0.58977 0.46127 0.0065999 0 0 0 
0.57279 0.48169 0.0065999 0 0 0 
0.57282 0.48171 0.069261 0 0 0 
0.57782 0.46919 0.04078 0 0 0 
0.52244 0.47587 0.048069 0 0 0 
0.52244 0.50517 0.021192 0 0 0 
0.57782 0.49849 0.013903 0 0 0 
0.54673 0.48492 0.041056 0 0 0 
0.54673 0.4849 0.0083721 0 0 0 
0.52025 0.49193 0.0083721 0 0 0 
0.52025 0.49194 0.041056 0 0 0 
0.54564 0.50358 0.028023 0 0 0 
0.5435 0.50019 0.0084024 0 0 0 
0.55757 0.4913 0.0084023 0 0 0 
0.55971 0.49469 0.028023 0 0 0 
0.50157 0.51638 0.010489 0 0 0 
0.48468 0.51638 0.010448 0 0 0 
0.48468 0.50523 0.010579 0 0 0 
0.50157 0.50523 0.01062 0 0 0 
0.33042 0.50363 0.90013 0 0 0 
0.33048 0.50362 0.84102 0 0 0 
0.34064 0.54189 0.84102 0 0 0 
0.34058 0.54191 0.90013 0 0 0 
0.32609 0.51297 0.038408 0 0 0 
0.32758 0.51147 0.029767 0 0 0 
0.31976 0.50367 0.029767 0 0 0 
0.31827 0.50517 0.038408 0 0 0 
0.28803 0.51358 0.053077 0 0 0 
0.29427 0.52586 0.020722 0 0 0 
0.27343 0.53644 0.020721 0 0 0 
0.2672 0.52415 0.053077 0 0 0 
0.30325 0.5223 0.039649 0 0 0 
0.30328 0.52229 0.011603 0 0 0 
0.31595 0.57007 0.011603 0 0 0 
0.31593 0.57008 0.039649 0 0 0 
0.26352 0.53336 0.031093 0 0 0 
0.26249 0.53358 0.01754 0 0 0 
0.26043 0.524 0.01754 0 0 0 
0.26146 0.52378 0.031093 0 0 0 
0.35363 0.5333 0.037771 0 0 0 
0.35266 0.53365 0.019071 0 0 0 
0.35787 0.54809 0.019071 0 0 0 
0.35884 0.54773 0.037771 0 0 0 
0.31851 0.54765 0.0018707 0 0 0 
0.31934 0.53415 0.0032451 0 0 0 
0.31477 0.53415 0.0059824 0 0 0 
0.31394 0.54765 0.0046079 0 0 0 
0.38348 0.55885 0.010195 0 0 0 
0.34926 0.56093 0.013993 0 0 0 
0.34926 0.54061 0.025123 0 0 0 
0.38348 0.53853 0.021324 0 0 0 
0.3263 0.54249 0.02871 0 0 0 
0.3263 0.54249 0.015463 0 0 0 
0.32323 0.54924 0.015463 0 0 0 
0.32323 0.54924 0.02871 0 0 0 
0.36134 0.54427 0.041155 0 0 0 
0.36362 0.54894 0.0031524 0 0 0 
0.34974 0.55568 0.0031524 0 0 0 
0.34747 0.551 0.041155 0 0 0 
0.36841 0.55027 0.0031926 0 0 0 
0.31646 0.56216 -0.0015843 0 0 0 
0.31646 0.56935 0.016308 0 0 0 
0.36841 0.55746 0.021085 0 0 0 
0.30576 0.55354 0.027776 0 0 0 
0.30576 0.55353 0.014941 0 0 0 
0.2995 0.55519 0.014941 0 0 0 
0.2995 0.5552 0.027776 0 0 0 
0.33445 0.57754 0.0201 0 0 0 
0.33445 0.57754 0.018818 0 0 0 
0.34264 0.56817 0.018818 0 0 0 
0.34264 0.56817 0.0201 0 0 0 
0.35069 0.56965 0.017702 0 0 0 
0.33287 0.56261 0.02397 0 0 0 
0.33287 0.57497 0.037859 0 0 0 
0.35069 0.58201 0.031592 0 0 0 
0.28177 0.58064 0.040501 0 0 0 
0.28176 0.58062 0.0034214 0 0 0 
0.26419 0.58528 0.0034214 0 0 0 
0.2642 0.5853 0.040501 0 0 0 
0.27569 0.58179 0.068325 0 0 0 
0.27569 0.58179 0.061361 0 0 0 
0.26605 0.58435 0.061361 0 0 0 
0.26605 0.58435 0.068325 0 0 0 
0.29948 0.59851 0.10074 0 0 0 
0.2882 0.59846 0.10054 0 0 0 
0.2882 0.61589 0.095485 0 0 0 
0.29948 0.61594 0.095688 0 0 0 
0.22813 0.55729 0.038444 0 0 0 
0.22813 0.55727 0.0032763 0 0 0 
0.19899 0.565 0.0032763 0 0 0 
0.199 0.56502 0.038444 0 0 0 
0.19161 0.53524 0.079137 0 0 0 
0.19162 0.53523 0.063195 0 0 0 
0.20873 0.59969 0.063195 0 0 0 
0.20871 0.5997 0.079137 0 0 0 
0.19801 0.5726 0.041081 0 0 0 
0.20576 0.57692 0.0030951 0 0 0 
0.21433 0.56155 0.0030951 0 0 0 
0.20657 0.55723 0.041082 0 0 0 
0.26059 0.56479 0.0035868 0 0 0 
0.20977 0.56479 0.0035561 0 0 0 
0.20977 0.60269 0.0034907 0 0 0 
0.26059 0.60269 0.0035214 0 0 0 
0.20199 0.56453 0.039808 0 0 0 
0.20203 0.56452 0.0031479 0 0 0 
0.21553 0.61538 0.0031479 0 0 0 
0.21549 0.61539 0.039808 0 0 0 
0.20347 0.60245 0.80971 0 0 0 
0.20433 0.60216 0.77824 0 0 0 
0.19858 0.58505 0.77824 0 0 0 
0.19773 0.58533 0.80971 0 0 0 
0.21757 0.62409 0.17163 0 0 0 
0.21736 0.62442 0.15575 0 0 0 
0.22515 0.6295 0.15575 0 0 0 
0.22536 0.62917 0.17163 0 0 0 
0.25335 0.63535 0.14237 0 0 0 
0.21986 0.64301 0.13929 0 0 0 
0.21986 0.62874 0.10377 0 0 0 
0.25335 0.62108 0.10685 0 0 0 
0.21078 0.64861 0.17156 0 0 0 
0.21078 0.63487 0.1716 0 0 0 
0.23167 0.63487 0.1714 0 0 0 
0.23167 0.64861 0.17137 0 0 0 
4 0 1 2 3
4 4 5 6 7
4 8 9 10 11
4 12 13 14 15
4 16 17 18 19
4 20 21 22 23
4 24 25 26 27
4 28 29 30 31
4 32 33 34 35
4 36 37 38 39
4 40 41 42 43
4 44 45 46 47
4 48 49 50 51
4 52 53 54 55
4 56 57 58 59
4 60 61 62 63
4 64 65 66 67
4 68 69 70 71
4 72 73 74 75
4 76 77 78 79
4 80 81 82 83
4 84 85 86 87
4 88 89 90 91
4 92 93 94 95
4 96 97 98 99
4 100 101 102 103
4 104 105 106 107
4 108 109 110 111
4 112 113 114 115
4 116 117 118 119
4 120 121 122 123
4 124 125 126 127
4 128 129 130 131
4 132 133 134 135
4 136 137 138 139
4 140 141 142 143
4 144 145 146 147
4 148 149 150 151
4 152 153 154 155
4 156 157 158 159
4 160 161 162 163
4 164 165 166 167
4 168 169 170 171
4 172 173 174 175
4 176 177 178 179
4 180 181 182 183
4 184 185 186 187
4 188 189 190 191
4 192 193 194 195
4 196 197 198 199
4 200 201 202 203
4 204 205 206 207
4 208 209 210 211
4 212 213 214 215
4 216 217 218 219
4 220 221 222 223
4 224 225 226 227
4 228 229 230 231
4 232 233 234 235
4 236 237 238 239
4 240 241 242 243
4 244 245 246 247
4 248 249 250 251
4 252 253 254 255
4 256 257 258 259
4 260 261 262 263
4 264 265 266 267
4 268 269 270 271
4 272 273 274 275
4 276 277 278 279
4 280 281 282 283
4 284 285 286 287
4 288 289 290 291
4 292 293 294 295
4 296 297 298 299
4 300 301 302 303
4 304 305 306 307
4 308 309 310 311
4 312 313 314 315
4 316 317 318 319
4 320 321 322 323
4 324 325 326 327
4 328 329 330 331
4 332 333 334 335
4 336 337 338 339
4 340 341 342 343
4 344 345 346 347
4 348 349 350 351
4 352 353 354 355
4 356 357 358 359
4 360 361 362 363
4 364 365 366 367
4 368 369 370 371
4 372 373 374 375
4 376 377 378 379
4 380 381 382 383
4 384 385 386 387
4 388 389 390 391
4 392 393 394 395
4 396 397 398 399
4 400 401 402 403
4 404 405 406 407
4 408 409 410 411
4 412 413 414 415
4 416 417 418 419
4 420 421 422 423
4 424 425 426 427
4 428 429 430 431
4 432 433 434 435
4 436 437 438 439
4 440 441 442 443
4 444 445 446 447
4 448 449 450 451
4 452 453 454 455
4 456 457 458 459
4 460 461 462 463
4 464 465 466 467
4 468 469 470 471
4 472 473 474 475
4 476 477 478 479
4 480 481 482 483
4 484 485 486 487
4 488 489 490 491
4 492 493 494 495
4 496 497 498 499
4 500 501 502 503
4 504 505 506 507
4 508 509 510 511
4 512 513 514 515
4 516 517 518 519
4 520 521 522 523
4 524 525 526 527
4 528 529 530 531
4 532 533 534 535
4 536 537 538 539
4 540 541 542 543
4 544 545 546 547
4 548 549 550 551
4 552 553 554 555
4 556 557 558 559
4 560 561 562 563
4 564 565 566 567
4 568 569 570 571
4 572 573 574 575
4 576 577 578 579
4 580 581 582 583
4 584 585 586 587
4 588 589 590 591
4 592 593 594 595
4 596 597 598 599
4 600 601 602 603
4 604 605 606 607
4 608 609 610 611
4 612 613 614 615
4 616 617 618 619
4 620 621 622 623
4 624 625 626 627
4 628 629 630 631
4 632 633 634 635
4 636 637 638 639
4 640 641 642 643
4 644 645 646 647
4 648 649 650 651
4 652 653 654 655
4 656 657 658 659
4 660 661 662 663
4 664 665 666 667
4 668 669 670 671
4 672 673 674 675
4 676 677 678 679
4 680 681 682 683
4 684 685 686 687
4 688 689 690 691
4 692 693 694 695
4 696 697 698 699
4 700 701 702 703
4 704 705 706 707
4 708 709 710 711
4 712 713 714 715
4 716 717 718 719
4 720 721 722 723
4 724 725 726 727
4 728 729 730 731
4 732 733 734 735
4 736 737 738 739
4 740 741 742 743
4 744 745 746 747
4 748 749 750 751
4 752 753 754 755
4 756 757 758 759
4 760 761 762 763
4 764 765 766 767
4 768 769 770 771
4 772 773 774 775
4 776 777 778 779
4 780 781 782 783
4 784 785 786 787
4 788 789 790 791
4 792 793 794 795
4 796 797 798 799
4 800 801 802 803
4 804 805 806 807
4 808 809 810 811
4 812 813 814 815
4 816 817 818 819
4 820 821 822 823
4 824 825 826 827
4 828 829 830 831
4 832 833 834 835
4 836 837 838 839
4 840 841 842 843
4 844 845 846 847
4 848 849 850 851
4 852 853 854 855
4 856 857 858 859
4 860 861 862 863
4 864 865 866 867
4 868 869 870 871
4 872 873 874 875
4 876 877 878 879
4 880 881 882 883
4 884 885 886 887
4 888 889 890 891
4 892 893 894 895
4 896 897 898 899
4 900 901 902 903
4 904 905 906 907
4 908 909 910 911
4 912 913 914 915
4 916 917 918 919
4 920 921 922 923
4 924 925 926 927
4 928 929 930 931
4 932 933 934 935
4 936 937 938 939
4 940 941 942 943
4 944 945 946 947
4 948 949 950 951
4 952 953 954 955
4 956 957 958 959
4 960 961 962 963
4 964 965 966 967
4 968 969 970 971
4 972 973 974 975
4 976 977 978 979
4 980 981 982 983
4 984 985 986 987
4 988 989 990 991
4 992 993 994 995
4 996 997 998 999
4 1000 1001 1002 1003
4 1004 1005 1006 1007
4 1008 1009 1010 1011
4 1012 1013 1014 1015
4 1016 1017 1018 1019
4 1020 1021 1022 1023
4 1024 1025 1026 1027
4 1028 1029 1030 1031
4 1032 1033 1034 1035
4 1036 1037 1038 1039
4 1040 1041 1042 1043
4 1044 1045 1046 1047
4 1048 1049 1050 1051
4 1052 1053 1054 1055
4 1056 1057 1058 1059
4 1060 1061 1062 1063
4 1064 1065 1066 1067
4 1068 1069 1070 1071
4 1072 1073 1074 1075
4 1076 1077 1078 1079
4 1080 1081 1082 1083
4 1084 1085 1086 1087
4 1088 1089 1090 1091
4 1092 1093 1094 1095
4 1096 1097 1098 1099
4 1100 1101 1102 1103
4 1104 1105 1106 1107
4 1108 1109 1110 1111
4 1112 1113 1114 1115
4 1116 1117 1118 1119
4 1120 1121 1122 1123
4 1124 1125 1126 1127
4 1128 1129 1130 1131
4 1132 1133 1134 1135
4 1136 1137 1138 1139
4 1140 1141 1142 1143
4 1144 1145 1146 1147
4 1148 1149 1150 1151
4 1152 1153 1154 1155
4 1156 1157 1158 1159
4 1160 1161 1162 1163
4 1164 1165 1166 1167
4 1168 1169 1170 1171
4 1172 1173 1174 1175
4 1176 1177 1178 1179
4 1180 1181 1182 1183
4 1184 1185 1186 1187
4 1188 1189 1190 1191
4 1192 1193 1194 1195
4 1196 1197 1198 1199
4 1200 1201 1202 1203
4 1204 1205 1206 1207
4 1208 1209 1210 1211
4 1212 1213 1214 1215
4 1216 1217 1218 1219
4 1220 1221 1222 1223
4 1224 1225 1226 1227
4 1228 1229 1230 1231
4 1232 1233 1234 1235
4 1236 1237 1238 1239
4 1240 1241 1242 1243
4 1244 1245 1246 1247
4 1248 1249 1250 1251
4 1252 1253 1254 1255
4 1256 1257 1258 1259
