ply
format ascii 1.0
comment Aron generated
element vertex 800
property float x
property float y
property float z
property float nx
property float ny
property float nz
end_header
0.991193 0.5 0 0.111779 -0.993733 0
0.984383 0.495175 0 0.111779 -0.993733 0
1.00779 0.489981 0 0.0574069 -0.998351 0
1.01932 0.484698 0 -0.0427064 -0.999088 -0
0.986499 0.480626 0 0.0449612 -0.998989 0
1.05168 0.473217 0 0.0880022 -0.99612 0
1.018 0.469441 0 -0.0492348 -0.998787 -0
1.02335 0.464044 0 -0.0436765 -0.999046 -0
1.02105 0.459039 0 -0.047501 -0.998871 -0
0.943014 0.459428 0 0.654015 -0.756482 0
0.989464 0.451247 0 -0.104638 -0.99451 -0
1.02077 0.443637 0 -0.0454504 -0.998967 -0
0.991955 0.441208 0 -0.104311 -0.994545 -0
0.972922 0.438226 0 0.0104576 -0.999945 0
1.02336 0.427868 0 -0.0651198 -0.997877 -0
0.909189 0.436183 0 0.691858 -0.722034 0
0.984091 0.422422 0 -0.0491161 -0.998793 -0
1.00457 0.414767 0 -0.19334 -0.981132 -0
0.99155 0.41154 0 -0.152663 -0.988278 -0
1.04287 0.398838 0 -0.0887461 -0.996054 -0
1.02663 0.396 0 -0.026659 -0.999645 -0
0.99008 0.39679 0 -0.136383 -0.990656 -0
1.01622 0.387217 0 -0.0320168 -0.999487 -0
1.00487 0.384052 0 0.00390454 -0.999992 0
0.977631 0.384088 0 -0.00685997 -0.999977 -0
1.01427 0.371846 0 -0.0288075 -0.999585 -0
0.977091 0.374277 0 0.000863447 -1 0
0.97118 0.370569 0 -0.0230763 -0.999734 -0
1.05303 0.347324 0 0.0852785 -0.996357 0
1.00863 0.351973 0 0.0176534 -0.999844 0
0.982935 0.352847 0 -0.105727 -0.994395 -0
1.0592 0.328802 0 -0.0033506 -0.999994 -0
1.01909 0.333342 0 -0.112315 -0.993673 -0
1.00561 0.331472 0 -0.112314 -0.993673 -0
0.985301 0.331673 0 -0.0601335 -0.99819 -0
0.978026 0.328519 0 0.00620294 -0.999981 0
1.00854 0.314486 0 0.0411054 -0.999155 0
1.05656 0.294675 0 -0.113065 -0.993588 -0
0.997559 0.306938 0 -0.0215714 -0.999767 -0
1.03999 0.28811 0 -0.0870511 -0.996204 -0
0.98256 0.300967 0 -0.114867 -0.993381 -0
1.02656 0.280955 0 -0.241179 -0.970481 -0
0.992168 0.286984 0 -0.303937 -0.952692 -0
0.975582 0.287335 0 -0.273752 -0.9618 -0
0.991923 0.276094 0 -0.165097 -0.986277 -0
0.990548 0.271068 0 -0.2588 -0.965931 -0
0.985301 0.267497 0 -0.295101 -0.955466 -0
1.03921 0.241101 0 0.105598 -0.994409 0
1.00118 0.250099 0 -0.500885 -0.865514 -0
0.989427 0.249106 0 -0.37185 -0.928293 -0
0.995087 0.24108 0 -0.252574 -0.967578 -0
1.03408 0.218798 0 -0.0908527 -0.995864 -0
0.947134 0.250252 0 -0.408369 -0.912817 -0
0.96216 0.238209 0 -0.246895 -0.969042 -0
0.973735 0.227403 0 -0.261449 -0.965217 -0
1.00348 0.207961 0 0.0598876 -0.998205 0
0.966618 0.219253 0 -0.196572 -0.980489 -0
0.952426 0.220323 0 -0.228533 -0.973536 -0
1.09512 0.144767 0 0.999374 -0.0353791 0
1.00885 0.180787 0 -0.0726988 -0.997354 -0
1.03434 0.161504 0 0.822999 -0.568043 0
0.962721 0.192106 0 -0.123311 -0.992368 -0
0.943709 0.196237 0 -0.135622 -0.990761 -0
1.02884 0.14451 0 0.169204 -0.985581 0
0.984651 0.162093 0 0.111726 -0.993739 0
0.969904 0.164038 0 0.41931 -0.907843 0
1.01875 0.129962 0 0.841164 -0.54078 0
0.926194 0.176937 0 0.0471924 -0.998886 0
1.05607 0.0942596 0 0.336967 -0.941516 0
0.966357 0.140964 0 -0.616328 -0.78749 -0
0.965604 0.135013 0 0.893603 0.448858 0
1.04413 0.0795731 0 0.266779 -0.963758 0
1.09499 0.0399054 0 0.298558 -0.954392 0
0.968405 0.113615 0 -0.440709 -0.89765 -0
1.07364 0.0377966 0 0.0600055 -0.998198 0
1.05578 0.0417761 0 -0.250986 -0.967991 -0
0.983307 0.0831968 0 0.916456 0.400136 0
1.02734 0.0456863 0 -0.201189 -0.979552 -0
1.0788 0.00184453 0 -0.672149 -0.740416 -0
1.07765 -0.00569271 0 -0.672149 -0.740416 -0
0.987415 0.0514215 0 0.941286 -0.337611 0
0.894025 0.112949 0 -0.448817 -0.893624 -0
1.03027 0.00425522 0 0.799873 0.600169 0
0.91832 0.0815358 0 -0.650802 -0.759248 -0
1.08428 -0.0540548 0 0.824108 0.566432 0
1.03912 -0.0274926 0 -0.622296 -0.782782 -0
1.00968 -0.0124797 0 0.942503 0.334197 0
1.02052 -0.0296056 0 0.975913 0.21816 0
0.913711 0.0502028 0 0.796601 0.604505 0
0.961477 0.00281143 0 0.99947 0.0325411 0
0.961223 -0.00495256 0 0.982048 -0.188631 0
1.01431 -0.0591015 0 0.992192 -0.124721 0
0.988224 -0.0450381 0 0.999821 -0.0189059 0
0.908696 0.0175033 0 0.974415 -0.224756 0
0.95954 -0.0364403 0 0.966546 -0.256492 0
0.948584 -0.0348371 0 0.966546 -0.256492 0
0.864334 0.0357895 0 0.998545 -0.0539177 0
0.891699 0.00232355 0 0.992599 -0.121439 0
0.896637 -0.0103471 0 0.999998 -0.00203364 0
0.901606 -0.0233202 0 0.999998 -0.00203365 0
0.885591 -0.0155913 0 0.99997 -0.00779088 0
0.852177 0.0101893 0 0.999946 0.0103688 0
0.823755 0.0317608 0 0.995213 -0.0977332 0
0.853862 -0.00721855 0 0.995548 -0.0942511 0
0.845615 -0.00647817 0 0.995548 -0.0942511 0
0.812082 0.0217584 0 0.996627 0.0820666 0
0.811215 0.0151115 0 0.987583 0.157095 0
0.807391 0.0116627 0 0.987583 0.157095 0
0.78515 0.0291044 0 0.999788 0.0205744 0
0.827266 -0.0269521 0 0.999157 -0.0410526 0
0.825273 -0.0330557 0 0.999956 -0.00934621 0
0.767268 0.0273928 0 0.985443 0.170008 0
0.81414 -0.0368734 0 0.999575 -0.0291346 0
0.775223 0.0022619 0 1 0.00030706 0
0.787526 -0.0211576 0 0.988804 0.149218 0
0.757031 0.00905403 0 0.998327 0.0578186 0
0.716394 0.0534315 0 0.99826 -0.0589727 0
0.759111 -0.00985718 0 0.999837 -0.0180461 0
0.720948 0.0325811 0 0.994323 -0.106405 0
0.744482 -0.00700776 0 0.997672 0.0681974 0
0.741287 -0.0110334 0 0.999357 0.0358619 0
0.748483 -0.0296356 0 0.992905 -0.118913 0
0.71254 0.0126151 0 0.988476 -0.151379 0
0.72908 -0.0195454 0 0.999415 -0.0342082 0
0.721565 -0.0173121 0 0.999844 0.0176807 0
0.691862 0.0182999 0 0.997248 -0.0741428 0
0.68598 0.018966 0 0.992159 -0.124986 0
0.708268 -0.0238843 0 0.996152 0.0876442 0
0.691197 -0.00612568 0 0.990261 -0.13922 0
0.684514 -0.00430716 0 0.995074 -0.0991366 0
0.686735 -0.0168637 0 0.994408 -0.105603 0
0.665862 0.00857544 0 0.997256 -0.074033 0
0.645483 0.0341829 0 0.999833 0.0182877 0
0.651469 0.0154156 0 0.997997 -0.0632657 0
0.640784 0.0252651 0 0.993757 -0.111562 0
0.638008 0.0214364 0 0.993757 -0.111562 0
0.637092 0.0141614 0 0.99904 -0.0438019 0
0.632037 0.01436 0 0.993371 -0.114952 0
0.628681 0.0114372 0 0.993371 -0.114952 0
0.647635 -0.0344697 0 0.99596 -0.0897954 0
0.641148 -0.0321575 0 0.999984 -0.00570415 0
0.631944 -0.0242331 0 0.99611 -0.0881231 0
0.625039 -0.0205997 0 0.997291 -0.0735569 0
0.607904 0.00456526 0 0.999459 0.0328968 0
0.607646 -0.0050243 0 0.998885 -0.0472168 0
0.58528 0.0330214 0 0.992668 0.120873 0
0.590834 0.0109069 0 0.999195 0.0401144 0
0.584804 0.0141225 0 0.9965 0.0835914 0
0.577633 0.0201887 0 0.983392 0.181495 0
0.574795 0.0163603 0 0.986531 0.163577 0
0.564282 0.0309615 0 0.989698 0.143169 0
0.573766 -0.00307296 0 0.993663 0.112399 0
0.554936 0.0329052 0 0.991884 0.127145 0
0.574315 -0.0281216 0 0.99989 -0.0148235 0
0.559513 -0.00153048 0 0.998604 0.0528138 0
0.541625 0.0347894 0 0.999558 -0.0297257 0
0.548517 0.00414974 0 0.994046 0.108962 0
0.546335 -0.00212919 0 0.992844 0.119415 0
0.545121 -0.0114867 0 0.992844 0.119415 0
0.54425 -0.0222933 0 0.992844 0.119415 0
0.527848 0.0141953 0 0.999235 0.0390961 0
0.53148 -0.0105947 0 0.995368 0.0961337 0
0.524777 -0.00310901 0 0.99341 0.114616 0
0.516545 0.00998791 0 0.99341 0.114616 0
0.517434 -0.00747095 0 0.983214 0.182458 0
0.5202 -0.0325699 0 0.979964 0.199173 0
0.512779 -0.0219108 0 0.989156 0.14687 0
0.504239 -0.00628417 0 0.994474 0.104979 0
0.497216 0.00452564 0 0.999999 -0.00110278 0
0.496141 -0.00781217 0 0.999625 -0.0273875 0
0.486624 0.014226 0 0.997273 -0.0738041 0
0.483897 0.00861422 0 0.993488 -0.113935 0
0.471999 0.0436815 0 0.988414 -0.151785 0
0.476462 0.00550474 0 0.992488 -0.12234 0
0.464868 0.0418975 0 0.989239 -0.146309 0
0.467072 0.011987 0 0.991545 -0.12976 0
0.467217 -0.00963084 0 0.991268 -0.131865 0
0.461297 0.000103025 0 0.985173 -0.171562 0
0.45654 0.00414873 0 0.979337 -0.202235 0
0.462896 -0.0581166 0 0.99272 0.120442 0
0.45254 -0.0211394 0 0.98613 -0.165973 0
0.448778 -0.0239846 0 0.995371 -0.0961055 0
0.445573 -0.0310024 0 0.99166 -0.128879 0
0.433072 0.030427 0 0.992406 -0.123006 0
0.432139 0.0081193 0 0.992618 -0.121282 0
0.427151 0.0171348 0 0.995623 -0.0934636 0
0.422762 0.0220921 0 0.99704 -0.0768818 0
0.421831 -0.0058762 0 1 -0.00100602 0
0.413733 0.0373571 0 0.998541 -0.0539911 0
0.408432 0.0562626 0 0.991948 0.126644 0
0.412131 -0.0353306 0 0.999762 -0.0218001 0
0.404768 0.00895013 0 0.999651 0.0264182 0
0.400668 0.012544 0 0.999585 0.0287991 0
0.396734 0.0142165 0 1 0.000904835 0
0.394525 -0.0200436 0 0.997621 -0.0689307 0
0.388822 0.0209588 0 0.999974 -0.00726148 0
0.384602 0.035363 0 0.99999 0.00452255 0
0.380599 0.0502533 0 0.999997 -0.00238953 0
0.377505 0.0222424 0 0.99993 0.0117991 0
0.373916 0.00136026 0 0.996367 -0.0851645 0
0.37 -0.0116717 0 0.999016 -0.0443632 0
0.365994 -0.00999664 0 0.996694 0.0812524 0
0.36164 -0.0321856 0 0.997852 -0.0655042 0
0.358934 0.0304426 0 0.998982 0.0451119 0
0.354418 0.00417081 0 0.99964 0.0268491 0
0.349128 -0.0312256 0 0.999847 -0.0174895 0
0.346759 0.00716975 0 0.999996 0.00279667 0
0.343385 0.0163818 0 0.996509 0.0834906 0
0.339478 0.0148634 0 0.99745 0.0713726 0
0.334282 -0.00446787 0 0.999813 0.0193278 0
0.330678 0.000371338 0 0.999813 0.0193278 0
0.327572 0.0101176 0 0.999813 0.0193278 0
0.322263 -0.00499957 0 0.999163 -0.0409056 0
0.319693 0.00899672 0 0.99605 0.0887948 0
0.3188 0.0362344 0 0.991345 0.131285 0
0.308559 -0.0191148 0 0.968026 -0.250851 0
0.313563 0.0532532 0 0.984823 0.173563 0
0.307485 0.0345709 0 0.992583 0.121568 0
0.301538 0.0189603 0 0.98703 -0.160538 0
0.297031 0.0146501 0 0.968026 -0.250851 0
0.29616 0.0337923 0 0.984583 0.174919 0
0.287709 0.00560077 0 0.996908 -0.0785719 0
0.280974 -0.0100978 0 0.993533 -0.113539 0
0.279912 0.00672634 0 0.993533 -0.113539 0
0.270584 -0.0211574 0 0.946561 -0.322524 0
0.274629 0.0205392 0 0.984792 0.173737 0
0.31064 0.213364 0 -0.00785895 -0.999969 -0
0.309283 0.217981 0 -0.00117479 -0.999999 -0
0.30837 0.224282 0 -0.00332513 -0.999995 -0
0.310718 0.244239 0 0.00430228 -0.999991 0
0.308397 0.243406 0 0.00430228 -0.999991 0
0.309507 0.256473 0 0.00543786 -0.999985 0
0.310004 0.266329 0 0.00506353 -0.999987 0
0.310816 0.276786 0 0.00427 -0.999991 0
0.309701 0.279585 0 0.00344791 -0.999994 0
0.309705 0.28621 0 0.00448053 -0.99999 0
0.311494 0.29862 0 0.00525859 -0.999986 0
0.308718 0.295088 0 0.00450727 -0.99999 0
0.308577 0.30034 0 0.0045615 -0.99999 0
0.309203 0.307762 0 0.00668521 -0.999978 0
0.30951 0.313832 0 0.00662901 -0.999978 0
0.308949 0.317009 0 0.00629035 -0.99998 0
0.308155 0.319367 0 0.00629035 -0.99998 0
0.31067 0.331053 0 0.00364907 -0.999993 0
0.309445 0.331803 0 0.00326199 -0.999995 0
0.30855 0.333432 0 0.00428276 -0.999991 0
0.307779 0.335338 0 0.00428276 -0.999991 0
0.309506 0.343632 0 0.00383464 -0.999993 0
0.308993 0.345914 0 0.00383464 -0.999993 0
0.309097 0.349637 0 0.00338579 -0.999994 0
0.30972 0.35447 0 0.00338579 -0.999994 0
0.309816 0.35787 0 0.00194248 -0.999998 0
0.309433 0.360038 0 0.00150528 -0.999999 0
0.30928 0.362653 0 0.00150528 -0.999999 0
0.308764 0.364377 0 0.00150528 -0.999999 0
0.308278 0.366115 0 0.00150528 -0.999999 0
0.308693 0.369716 0 0.000968417 -1 0
0.309361 0.37372 0 0.000968417 -1 0
0.307586 0.372598 0 0.000968417 -1 0
0.309701 0.379323 0 -0.00145188 -0.999999 -0
0.30892 0.380123 0 -0.00145188 -0.999999 -0
0.30884 0.382261 0 -0.000814952 -1 -0
0.309034 0.384856 0 -0.000814951 -1 -0
0.309217 0.38735 0 -0.000814951 -1 -0
0.309528 0.390002 0 -0.00104938 -1 -0
0.309073 0.391207 0 -0.00104938 -1 -0
0.309751 0.394372 0 -0.00182036 -0.999998 -0
0.308077 0.393392 0 -0.00104938 -1 -0
0.308409 0.395856 0 -0.00182036 -0.999998 -0
0.309657 0.399771 0 -9.1167e-05 -1 -0
0.309791 0.401748 0 -9.1167e-05 -1 -0
0.309519 0.403021 0 -9.1167e-05 -1 -0
0.310124 0.405651 0 -9.11674e-05 -1 -0
0.309751 0.406691 0 -9.11674e-05 -1 -0
0.309157 0.407375 0 -9.1167e-05 -1 -0
0.309021 0.408739 0 -9.1167e-05 -1 -0
0.309632 0.411171 0 -0.00292274 -0.999996 -0
0.309081 0.411857 0 -0.00397433 -0.999992 -0
0.30839 0.412338 0 -0.00397433 -0.999992 -0
0.308015 0.41326 0 -0.00397433 -0.999992 -0
0.308871 0.415864 0 -0.000286613 -1 -0
0.309024 0.417446 0 -0.000286613 -1 -0
0.308145 0.417617 0 -0.000286613 -1 -0
0.309596 0.420852 0 -0.000286613 -1 -0
0.309511 0.422018 0 -0.000286613 -1 -0
0.30967 0.423472 0 -0.000286613 -1 -0
0.103965 0.167935 0 0.996695 0.0812374 0
0.121675 0.194981 0 0.99801 0.0630528 0
0.128743 0.208371 0 0.992718 -0.120458 0
0.119843 0.202403 0 0.99801 0.0630528 0
0.110758 0.196466 0 0.99801 0.0630528 0
0.0925355 0.18025 0 0.994775 0.102092 0
0.10647 0.201084 0 1 -0.000131155 0
0.0933433 0.191119 0 0.99929 -0.0376779 0
0.0970671 0.200051 0 0.99929 -0.0376779 0
0.0967531 0.204403 0 0.99929 -0.0376779 0
0.0801597 0.191351 0 0.999374 -0.0353727 0
0.094195 0.210882 0 0.975705 -0.219087 0
0.0722042 0.192699 0 0.998633 -0.052263 0
0.0708888 0.196153 0 0.995328 -0.0965481 0
0.0721281 0.202128 0 0.976176 -0.216982 0
0.0458986 0.18095 0 0.997797 -0.0663447 0
0.0482325 0.188186 0 0.996338 -0.0854998 0
0.0664775 0.210454 0 0.969195 -0.246296 0
0.0140679 0.165757 0 0.996609 -0.0822803 0
-0.0101464 0.148596 0 0.972047 -0.234785 0
0.0287248 0.189463 0 0.950808 -0.309781 0
0.0516259 0.21484 0 0.925213 -0.379448 0
0.0222547 0.193421 0 0.901744 -0.432272 0
0.0109335 0.188418 0 0.858203 -0.513311 0
0.0035674 0.187037 0 0.89248 -0.451087 0
0.0332767 0.216955 0 0.797931 -0.602749 0
-0.00701542 0.188106 0 0.732843 -0.680397 0
0.018879 0.214143 0 0.715305 -0.698813 0
0.00768486 0.209731 0 0.445132 -0.895465 0
-0.0041449 0.205048 0 0.396076 -0.918218 0
-0.0179579 0.199069 0 0.250099 -0.96822 0
-0.01757 0.204216 0 0.108729 -0.994071 0
0.0247709 0.240795 0 0.277944 -0.960597 0
0.0259191 0.245858 0 0.290927 -0.956745 0
0.0167813 0.243372 0 0.164138 -0.986437 0
0.00799754 0.241309 0 0.14462 -0.989487 0
0.0634775 0.284572 0 0.295738 -0.955269 0
0.0304489 0.265322 0 0.127449 -0.991845 0
0.0276555 0.267343 0 0.108454 -0.994101 0
0.0242687 0.26899 0 0.0829843 -0.996551 0
-0.0205207 0.243476 0 0.0267496 -0.999642 0
-0.00987987 0.254715 0 -0.0143662 -0.999897 -0
0.00569313 0.268804 0 -0.000919753 -1 -0
-0.0128973 0.261204 0 -0.0260034 -0.999662 -0
0.0165403 0.2834 0 0.074525 -0.997219 0
-0.00683228 0.273129 0 -0.0561607 -0.998422 -0
-0.0172455 0.270984 0 -0.0572237 -0.998361 -0
-0.00492087 0.282229 0 0.00497602 -0.999988 0
0.0114408 0.295481 0 0.0263107 -0.999654 0
-0.0120814 0.286024 0 0.0308371 -0.999524 0
-0.000299808 0.296426 0 0.0263107 -0.999654 0
0.0190814 0.310655 0 0.0298531 -0.999554 0
0.0238854 0.316742 0 0.0469647 -0.998897 0
0.00859552 0.312265 0 0.0298531 -0.999554 0
0.0116866 0.31743 0 0.0620403 -0.998074 0
0.0159701 0.323101 0 0.0512214 -0.998687 0
0.0141019 0.325647 0 0.0333815 -0.999443 0
0.00733705 0.325852 0 0.0333815 -0.999443 0
0.0105152 0.330839 0 0.0170113 -0.999855 0
0.0229834 0.340023 0 0.0587721 -0.998271 0
0.000584822 0.333203 0 0.0547421 -0.998501 0
0.000788187 0.336773 0 0.0400481 -0.999198 0
0.00733304 0.34306 0 0.00561627 -0.999984 0
-0.00186172 0.342537 0 0.0242425 -0.999706 0
0.0127127 0.352007 0 0.0243945 -0.999702 0
0.0179861 0.35742 0 0.00597181 -0.999982 0
0.0134656 0.358838 0 0.00597182 -0.999982 0
-0.00595511 0.354554 0 0.0434994 -0.999053 0
0.00161951 0.360801 0 0.00597181 -0.999982 0
-0.0126488 0.358833 0 0.0334807 -0.999439 0
0.000600782 0.367008 0 0.0161454 -0.99987 0
0.00948444 0.373396 0 -0.0103328 -0.999947 -0
0.0141648 0.37817 0 -0.0206454 -0.999787 -0
0.00373131 0.377804 0 -0.00621722 -0.999981 -0
0.0128056 0.383941 0 -0.0275938 -0.999619 -0
-0.00369292 0.381816 0 -0.00621721 -0.999981 -0
0.000351802 0.386281 0 -0.0113257 -0.999936 -0
0.0123738 0.393047 0 -0.0382344 -0.999269 -0
0.0389538 0.403822 0 -0.0837545 -0.996486 -0
-0.0132747 0.391905 0 -0.0373015 -0.999304 -0
0.00566106 0.400328 0 -0.0377728 -0.999286 -0
-0.00501111 0.400568 0 -0.0469844 -0.998896 -0
0.00309337 0.405794 0 -0.0505378 -0.998722 -0
-0.000290934 0.408019 0 -0.0466372 -0.998912 -0
-0.0158251 0.407372 0 -0.0459462 -0.998944 -0
0.024374 0.419888 0 -0.0197177 -0.999806 -0
0.0150205 0.420653 0 -0.0446649 -0.999002 -0
0.0108494 0.422677 0 -0.0395554 -0.999217 -0
-0.0112867 0.421039 0 -0.0435897 -0.99905 -0
0.0273806 0.431849 0 -0.0317161 -0.999497 -0
0.017935 0.43284 0 -0.031716 -0.999497 -0
-0.0128572 0.430078 0 -0.0510834 -0.998694 -0
0.00734793 0.436707 0 -0.0254085 -0.999677 -0
0.0249692 0.442571 0 -0.0570432 -0.998372 -0
0.00344701 0.441944 0 -0.0570432 -0.998372 -0
0.0219737 0.447677 0 -0.0694357 -0.997586 -0
0.0184084 0.449961 0 -0.0704404 -0.997516 -0
0.00995813 0.45164 0 -0.0704404 -0.997516 -0
0.0258934 0.456529 0 -0.0750785 -0.997178 -0
0.00867501 0.457234 0 -0.0805224 -0.996753 -0
0.0156075 0.460875 0 -0.0875562 -0.99616 -0
0.0135232 0.463476 0 -0.0908496 -0.995865 -0
-0.0134746 0.463751 0 -0.0923083 -0.99573 -0
0.030274 0.470577 0 -0.0786247 -0.996904 -0
0.0112138 0.471763 0 -0.0618735 -0.998084 -0
0.00481065 0.474143 0 -0.0527053 -0.99861 -0
-0.00772908 0.476235 0 -0.0723385 -0.99738 -0
0.0231414 0.480911 0 -0.0217084 -0.999764 -0
-0.0143084 0.481876 0 -0.0514102 -0.998678 -0
0.00695339 0.485736 0 -0.0263871 -0.999652 -0
-0.00179099 0.488316 0 -0.0162325 -0.999868 -0
0.00776327 0.491463 0 -0.0299411 -0.999552 -0
0.00251106 0.494227 0 -0.0299412 -0.999552 -0
0.00927237 0.497167 0 -0.0272938 -0.999627 -0
0.0156623 0.5 0 -0.0224105 -0.999749 -0
0.0163979 0.502777 0 -0.00875504 -0.999962 -0
0.0070501 0.505702 0 -0.0190472 -0.999819 -0
0.0158268 0.508347 0 -0.0094878 -0.999955 -0
0.00306603 0.511531 0 -0.0142987 -0.999898 -0
0.0318502 0.513286 0 -0.0891707 -0.996016 -0
0.00642171 0.517146 0 -0.0300818 -0.999547 -0
0.0179266 0.519376 0 -0.0485137 -0.998823 -0
0.0152149 0.522321 0 -0.0805712 -0.996749 -0
0.0322033 0.523917 0 -0.130986 -0.991384 -0
0.0161423 0.527849 0 -0.0951076 -0.995467 -0
0.0296627 0.529476 0 -0.217148 -0.976139 -0
0.01112 0.533924 0 -0.112836 -0.993614 -0
0.014836 0.536389 0 -0.16474 -0.986337 -0
0.0219156 0.538429 0 -0.239473 -0.970903 -0
0.0217104 0.541223 0 -0.264536 -0.964376 -0
-0.00692841 0.547617 0 -0.13336 -0.991068 -0
0.015139 0.547664 0 -0.289939 -0.957045 -0
-0.00262442 0.553032 0 -0.186345 -0.982484 -0
0.0299071 0.551131 0 -0.494845 -0.868981 -0
0.00439617 0.557906 0 -0.220167 -0.975462 -0
-0.00355092 0.562176 0 -0.159721 -0.987162 -0
0.0168266 0.561639 0 -0.455856 -0.890054 -0
0.0147584 0.564879 0 -0.455856 -0.890054 -0
0.0297957 0.564897 0 -0.650966 -0.759107 -0
0.0153063 0.570553 0 -0.49992 -0.866072 -0
0.0115201 0.574238 0 -0.450642 -0.892705 -0
-0.000855284 0.579843 0 -0.234425 -0.972134 -0
0.00820905 0.58087 0 -0.551853 -0.833941 -0
-0.00327018 0.586519 0 -0.242162 -0.970236 -0
0.0257143 0.582656 0 0.797469 0.60336 0
0.0229843 0.586199 0 0.787954 0.615734 0
0.0510653 0.581889 0 0.914778 0.403956 0
0.0646225 0.580969 0 0.945867 0.324554 0
0.0665929 0.583003 0 0.958736 0.284298 0
0.0786704 0.582163 0 0.978404 0.206703 0
0.081246 0.583891 0 0.981244 0.192772 0
0.0858834 0.584969 0 0.986686 0.162638 0
0.0913685 0.585718 0 0.995345 0.0963738 0
0.0968286 0.586393 0 0.998139 0.0609869 0
0.104917 0.586131 0 0.999361 0.0357584 0
0.127721 0.58083 0 1 0.000997759 0
0.124944 0.583901 0 1 0.000997759 0
0.13372 0.582976 0 0.999997 -0.00231193 0
0.137341 0.583762 0 0.999997 -0.00231193 0
0.145568 0.582797 0 0.999966 -0.00822349 0
0.152737 0.582097 0 0.999934 -0.0115306 0
0.155827 0.582857 0 0.999934 -0.0115306 0
0.161142 0.582693 0 0.999847 -0.0174852 0
0.161735 0.584356 0 0.999786 -0.0206986 0
0.163402 0.585576 0 0.999786 -0.0206986 0
0.170282 0.584569 0 0.999776 -0.021152 0
0.1718 0.585769 0 0.99984 -0.0178967 0
0.182314 0.582975 0 0.99997 -0.00769459 0
0.189393 0.581547 0 0.999958 0.00920841 0
0.190505 0.582748 0 0.999958 0.00920841 0
0.191826 0.583842 0 0.999958 0.00920841 0
0.312548 0.527588 0 -0.00151442 -0.999999 -0
0.312132 0.528349 0 -0.00151442 -0.999999 -0
0.312404 0.528779 0 -0.00151442 -0.999999 -0
0.312917 0.529085 0 -0.00151442 -0.999999 -0
0.312226 0.530011 0 -0.00151442 -0.999999 -0
0.312626 0.530378 0 -0.00151442 -0.999999 -0
0.312852 0.530835 0 -0.00151442 -0.999999 -0
0.31275 0.531473 0 -0.00151442 -0.999999 -0
0.312096 0.532428 0 -0.00151442 -0.999999 -0
0.312868 0.532588 0 -0.00151442 -0.999999 -0
0.312998 0.533109 0 -0.00151442 -0.999999 -0
0.312652 0.533916 0 -0.00151442 -0.999999 -0
0.312881 0.534388 0 -0.00151442 -0.999999 -0
0.312556 0.535202 0 -0.00151442 -0.999999 -0
0.312395 0.535926 0 -0.00151442 -0.999999 -0
0.312935 0.536215 0 -0.00151442 -0.999999 -0
0.312513 0.537119 0 -0.00151442 -0.999999 -0
0.312857 0.537536 0 -0.00151442 -0.999999 -0
0.312716 0.538276 0 -0.00151442 -0.999999 -0
0.313333 0.538511 0 -0.00151442 -0.999999 -0
0.312561 0.539698 0 -0.00151442 -0.999999 -0
0.312797 0.540203 0 -0.00151442 -0.999999 -0
0.312148 0.541342 0 -0.00151442 -0.999999 -0
0.312683 0.541644 0 -0.00151442 -0.999999 -0
0.312425 0.542526 0 -0.00151442 -0.999999 -0
0.313192 0.542653 0 -0.00151442 -0.999999 -0
0.312988 0.54351 0 -0.00151442 -0.999999 -0
0.312864 0.544319 0 -0.00151442 -0.999999 -0
0.312993 0.544941 0 -0.00151442 -0.999999 -0
0.312718 0.545892 0 -0.00151442 -0.999999 -0
0.311991 0.547226 0 -0.00151442 -0.999999 -0
0.313238 0.546957 0 -0.00151442 -0.999999 -0
0.312367 0.548446 0 -0.00151442 -0.999999 -0
0.313019 0.548666 0 -0.00151442 -0.999999 -0
0.312046 0.55029 0 -0.00151442 -0.999999 -0
0.312318 0.550853 0 -0.00151442 -0.999999 -0
0.312588 0.551422 0 -0.00151442 -0.999999 -0
0.311954 0.552817 0 -0.00151442 -0.999999 -0
0.312289 0.553348 0 -0.00151442 -0.999999 -0
0.313096 0.553436 0 -0.00151442 -0.999999 -0
0.312912 0.554459 0 -0.00151442 -0.999999 -0
0.313304 0.554942 0 -0.00151442 -0.999999 -0
0.312599 0.556507 0 -0.00151442 -0.999999 -0
0.312961 0.557039 0 -0.00151442 -0.999999 -0
0.313313 0.557584 0 -0.00151442 -0.999999 -0
0.312543 0.559291 0 -0.00151442 -0.999999 -0
0.312205 0.560585 0 -0.00151442 -0.999999 -0
0.313362 0.560314 0 -0.00151442 -0.999999 -0
0.312823 0.561854 0 -0.00151442 -0.999999 -0
0.312472 0.563223 0 -0.00151442 -0.999999 -0
0.312559 0.564131 0 -0.00151442 -0.999999 -0
0.31268 0.565017 0 -0.00151442 -0.999999 -0
0.3135 0.565111 0 -0.00151442 -0.999999 -0
0.313401 0.566269 0 -0.00151442 -0.999999 -0
0.312489 0.568417 0 -0.00151442 -0.999999 -0
0.312939 0.568975 0 -0.00151442 -0.999999 -0
0.312088 0.571134 0 -0.00151442 -0.999999 -0
0.312595 0.571653 0 -0.00151442 -0.999999 -0
0.311772 0.573862 0 -0.00151442 -0.999999 -0
0.312938 0.573564 0 -0.00151442 -0.999999 -0
0.313114 0.574539 0 -0.00151442 -0.999999 -0
0.312986 0.575935 0 -0.00151442 -0.999999 -0
0.313081 0.577061 0 -0.00151442 -0.999999 -0
0.311903 0.579964 0 -0.00151442 -0.999999 -0
0.312642 0.580265 0 -0.00151442 -0.999999 -0
0.312914 0.581225 0 -0.00151442 -0.999999 -0
0.312673 0.582945 0 -0.00151442 -0.999999 -0
0.0697296 0.941835 0 0.914911 -0.403656 0
0.0267778 1.01367 0 0.951255 -0.308405 0
0.0570069 0.976486 0 0.879283 -0.476299 0
0.0535644 0.990072 0 0.923568 -0.383435 0
0.0487207 1.00626 0 0.905885 -0.423525 0
0.0347345 1.03758 0 0.951255 -0.308405 0
0.0582106 1.00879 0 0.956295 -0.292403 0
0.0683829 1.00098 0 0.974017 -0.226477 0
0.0792851 0.991572 0 0.971516 -0.236973 0
0.104539 0.957024 0 0.994437 -0.105332 0
0.123521 0.932123 0 0.998254 0.059073 0
0.0921593 0.99612 0 0.981137 -0.193316 0
0.0893851 1.01044 0 0.989003 -0.147892 0
0.0931462 1.0131 0 0.985681 -0.168622 0
0.111953 0.987366 0 0.996739 0.0806924 0
0.117667 0.985761 0 0.999987 -0.0051018 0
0.118398 0.993796 0 0.99902 0.0442534 0
0.129511 0.981295 0 0.999357 0.0358474 0
0.135282 0.97912 0 0.98662 0.163039 0
0.146476 0.965488 0 0.997484 0.0708905 0
0.141985 0.984556 0 0.994022 0.10918 0
0.13709 1.00522 0 0.998098 0.061652 0
0.148119 0.991411 0 0.994669 0.10312 0
0.138182 1.02436 0 0.992695 0.120649 0
0.163021 0.9783 0 0.999895 0.0144603 0
0.156718 1.00368 0 0.994669 0.10312 0
0.153028 1.02382 0 0.996465 0.0840096 0
0.173037 0.986278 0 0.991567 0.129591 0
0.189852 0.955002 0 0.998023 0.0628433 0
0.173367 1.00827 0 0.9999 -0.0141291 0
0.176857 1.01114 0 0.9999 -0.0141288 0
0.19468 0.975226 0 0.998944 -0.0459432 0
0.183637 1.01764 0 0.9999 -0.0141291 0
0.193341 1.00305 0 0.998944 -0.0459434 0
0.185278 1.03953 0 0.997879 0.0650905 0
0.204607 0.995746 0 0.99055 -0.137152 0
0.207196 1.00106 0 0.972975 -0.230911 0
0.208372 1.01106 0 0.972975 -0.230912 0
0.209799 1.02074 0 0.930348 -0.366678 0
0.224972 0.984939 0 0.891452 -0.453115 0
0.236175 0.960627 0 0.966686 -0.255965 0
0.23659 0.973036 0 0.966686 -0.255965 0
0.315492 0.699246 0 0.0374695 -0.999298 0
0.313866 0.711709 0 0.027192 -0.99963 0
0.31262 0.72348 0 0.0113894 -0.999935 0
0.312178 0.732775 0 0.0113894 -0.999935 0
0.315337 0.727686 0 0.0113894 -0.999935 0
0.313384 0.744257 0 0.0226364 -0.999744 0
0.311626 0.761151 0 0.0178104 -0.999841 0
0.310864 0.774675 0 0.0164311 -0.999865 0
0.314245 0.769229 0 0.0164311 -0.999865 0
0.313357 0.784765 0 0.0120432 -0.999928 0
0.309977 0.814652 0 0.0022543 -0.999997 0
0.314773 0.802392 0 -0.00598352 -0.999982 -0
0.312871 0.827336 0 0.000215444 -1 0
0.311985 0.848553 0 0.00387537 -0.999992 0
0.308504 0.888273 0 -0.0720837 -0.997399 -0
0.314399 0.869825 0 -0.0104931 -0.999945 -0
0.315909 0.880065 0 -0.0555521 -0.998456 -0
0.308571 0.957342 0 0.848309 0.529501 0
0.314934 0.935894 0 -0.286163 -0.958181 -0
0.312828 0.98304 0 0.955093 0.296305 0
0.316094 0.988276 0 0.870767 0.491695 0
0.318522 1.00243 0 0.870767 0.491695 0
0.324896 0.977146 0 0.870767 0.491695 0
0.32825 0.982045 0 0.870767 0.491695 0
0.331748 0.986043 0 0.915834 0.401558 0
0.337915 0.953159 0 -0.488612 -0.872501 -0
0.337409 1.01802 0 0.962943 0.269707 0
0.342899 0.992456 0 0.952205 0.305461 0
0.346785 0.992278 0 0.97014 0.242548 0
0.350107 1.00632 0 0.97949 0.201491 0
0.354125 1.00516 0 0.97949 0.201491 0
0.357652 1.02398 0 0.984572 0.174982 0
0.362481 0.978606 0 0.989472 0.144722 0
0.366116 0.994515 0 0.980852 0.194757 0
0.37 0.994355 0 0.986896 0.161359 0
0.373942 1.00195 0 0.985412 0.170183 0
0.377511 0.978157 0 0.978149 0.207905 0
0.382293 1.02162 0 0.982732 0.185037 0
0.385189 0.98332 0 0.999654 0.026315 0
0.389985 1.00864 0 0.989855 0.142083 0
0.392368 0.974305 0 0.999943 0.0107083 0
0.398824 1.02376 0 0.998341 0.05758 0
0.402325 1.01379 0 0.99982 0.0189769 0
0.405707 1.0043 0 0.999946 0.0103992 0
0.408614 0.990632 0 0.99962 -0.027575 0
0.412675 0.992728 0 0.999907 -0.013646 0
0.416587 0.992842 0 0.998514 0.0544929 0
0.421931 1.00685 0 0.998111 0.0614419 0
0.422383 0.974478 0 0.999933 -0.0116205 0
0.427719 0.987669 0 0.999716 0.0238193 0
0.436246 1.02439 0 0.998238 0.0593432 0
0.432655 0.966468 0 0.998724 0.0505088 0
0.446859 1.04004 0 0.999582 -0.0289235 0
0.447226 1.01367 0 0.997692 0.0679024 0
0.451027 1.01159 0 0.999843 0.0177117 0
0.457283 1.02439 0 0.995184 -0.0980265 0
0.461048 1.02168 0 0.995184 -0.0980265 0
0.458747 0.985932 0 0.995426 0.0955382 0
0.461481 0.979561 0 0.995426 0.0955377 0
0.464655 0.975865 0 0.980354 0.197247 0
0.472082 0.992937 0 0.99998 -0.00637759 0
0.484173 1.03031 0 0.940109 -0.340874 0
0.486561 1.02146 0 0.961059 0.276342 0
0.485052 0.99637 0 0.983247 0.182279 0
0.483251 0.971725 0 0.967399 0.253256 0
0.49706 1.01151 0 0.581599 -0.813475 0
0.486458 0.953576 0 0.803468 0.595347 0
0.503979 1.00531 0 0.475089 -0.879938 0
0.467027 0.854671 0 -0.0339825 -0.999422 -0
0.468192 0.848162 0 -0.0312068 -0.999513 -0
0.46792 0.837042 0 -0.0311329 -0.999515 -0
0.46545 0.819164 0 -0.0117597 -0.999931 -0
0.471899 0.831227 0 -0.00475222 -0.999989 -0
0.463935 0.797021 0 -0.00381354 -0.999993 -0
0.466318 0.796437 0 -0.00381353 -0.999993 -0
0.464796 0.784138 0 -0.00885974 -0.999961 -0
0.47075 0.794267 0 -0.00381353 -0.999993 -0
0.46638 0.77445 0 -0.0100291 -0.99995 -0
0.465565 0.765443 0 -0.0150931 -0.999886 -0
0.465762 0.759575 0 -0.0156145 -0.999878 -0
0.464373 0.74975 0 -0.00407155 -0.999992 -0
0.46788 0.753005 0 -0.0114054 -0.999935 -0
0.464361 0.738328 0 -0.0037421 -0.999993 -0
0.472393 0.752797 0 -0.0114054 -0.999935 -0
0.468886 0.738731 0 -0.0037421 -0.999993 -0
0.463752 0.721402 0 -0.00313324 -0.999995 -0
0.468493 0.727603 0 -0.00446869 -0.99999 -0
0.467945 0.721548 0 -0.00313324 -0.999995 -0
0.471338 0.724439 0 -0.00383828 -0.999993 -0
0.464185 0.704302 0 0.00287148 -0.999996 0
0.4663 0.704649 0 0.00287148 -0.999996 0
0.466842 0.701674 0 0.00177298 -0.999998 0
0.466598 0.69718 0 0.00486678 -0.999988 0
0.464077 0.688278 0 0.0063705 -0.99998 0
0.464542 0.685549 0 0.0063705 -0.99998 0
0.465046 0.682971 0 0.006665 -0.999978 0
0.466065 0.681436 0 0.00550219 -0.999985 0
0.464876 0.675836 0 0.00524425 -0.999986 0
0.467856 0.678 0 0.00524425 -0.999986 0
0.46565 0.670796 0 0.0112086 -0.999937 0
0.46874 0.673109 0 0.00448404 -0.99999 0
0.467702 0.668207 0 0.00773116 -0.99997 0
0.467655 0.665125 0 0.00835736 -0.999965 0
0.466361 0.660056 0 0.00713764 -0.999975 0
0.465072 0.655143 0 0.00727626 -0.999974 0
0.466758 0.655146 0 0.00727626 -0.999974 0
0.46704 0.652911 0 0.00748429 -0.999972 0
0.465754 0.648297 0 0.00633376 -0.99998 0
0.466706 0.647221 0 0.00795085 -0.999968 0
0.466638 0.64463 0 0.0078531 -0.999969 0
0.467248 0.643096 0 0.0111598 -0.999938 0
0.466305 0.639341 0 0.00955934 -0.999954 0
0.467363 0.638534 0 0.00928113 -0.999957 0
0.468392 0.637686 0 0.00942944 -0.999956 0
0.4668 0.633234 0 0.00872752 -0.999962 0
0.467793 0.632401 0 0.00906475 -0.999959 0
0.467945 0.630451 0 0.00910388 -0.999959 0
0.468264 0.628757 0 0.0201578 -0.999797 0
0.46709 0.625168 0 0.0415822 -0.999135 0
0.467397 0.623547 0 0.0488973 -0.998804 0
0.467693 0.621941 0 0.061484 -0.998108 0
0.46827 0.620705 0 0.0708889 -0.997484 0
0.46755 0.617918 0 0.0781125 -0.996945 0
0.470063 0.61904 0 0.0781125 -0.996945 0
0.466219 0.612658 0 0.0886568 -0.996062 0
0.466926 0.611697 0 0.0964343 -0.995339 0
0.468601 0.611841 0 0.104577 -0.994517 0
0.468447 0.609913 0 0.104577 -0.994517 0
0.468872 0.608658 0 0.1127 -0.993629 0
0.466532 0.604428 0 0.117331 -0.993093 0
0.465505 0.601702 0 0.12943 -0.991589 0
0.470297 0.605139 0 0.126177 -0.992008 0
0.467003 0.600099 0 0.133641 -0.99103 0
0.467536 0.599081 0 0.133641 -0.99103 0
0.468608 0.598608 0 0.143033 -0.989718 0
0.466847 0.595337 0 0.153382 -0.988167 0
0.466652 0.593662 0 0.153382 -0.988167 0
0.467541 0.59305 0 0.172303 -0.985044 0
0.465983 0.590134 0 0.178602 -0.983921 0
0.465962 0.588706 0 0.178602 -0.983921 0
0.467715 0.588914 0 0.178602 -0.983921 0
0.468116 0.58788 0 0.186917 -0.982376 0
0.466062 0.58469 0 0.195645 -0.980675 0
0.468105 0.585131 0 0.186917 -0.982376 0
0.467164 0.582986 0 0.195645 -0.980675 0
0.467018 0.581552 0 0.20919 -0.977875 0
0.466018 0.579433 0 0.217616 -0.976035 0
0.46667 0.578702 0 0.217616 -0.976035 0
0.467748 0.578311 0 0.217616 -0.976035 0
0.467141 0.57658 0 0.217616 -0.976034 0
0.469349 0.577063 0 0.217616 -0.976035 0
0.467664 0.574534 0 0.234408 -0.972138 0
0.467872 0.573484 0 0.234408 -0.972138 0
0.467982 0.572371 0 0.245109 -0.969496 0
0.465439 0.569341 0 0.245109 -0.969496 0
0.466818 0.569187 0 0.245109 -0.969496 0
0.467409 0.56846 0 0.245109 -0.969496 0
0.467816 0.567605 0 0.254445 -0.967087 0
0.467356 0.566163 0 0.265801 -0.964028 0
0.466417 0.564424 0 0.277745 -0.960655 0
0.466883 0.56364 0 0.277744 -0.960655 0
0.468772 0.563776 0 0.300704 -0.953717 0
0.465887 0.560852 0 0.291537 -0.95656 0
0.466417 0.560131 0 0.291538 -0.956559 0
0.466617 0.559207 0 0.331947 -0.943298 0
0.467988 0.558993 0 0.331947 -0.943298 0
0.46797 0.557939 0 0.350552 -0.936544 0
0.466501 0.556053 0 0.372774 -0.927922 0
0.4668 0.555214 0 0.372774 -0.927922 0
0.468323 0.555064 0 0.372774 -0.927922 0
0.467151 0.553409 0 0.372774 -0.927922 0
0.4685 0.553148 0 0.393404 -0.919366 0
0.467954 0.551864 0 0.41784 -0.908521 0
0.467474 0.550634 0 0.41784 -0.908521 0
0.468257 0.550064 0 0.444443 -0.895807 0
0.468649 0.549292 0 0.444443 -0.895807 0
0.469026 0.548513 0 0.473541 -0.880772 0
0.472678 0.549305 0 0.495371 -0.868682 0
0.474576 0.54921 0 0.495371 -0.868682 0
0.47767 0.549637 0 0.557736 -0.830018 0
0.480549 0.549915 0 0.623606 -0.781739 0
0.483363 0.550117 0 0.659953 -0.751307 0
0.481659 0.548319 0 0.659953 -0.751307 0
0.483822 0.548197 0 0.659953 -0.751307 0
0.488686 0.549161 0 0.659953 -0.751307 0
0.489925 0.548575 0 0.659953 -0.751306 0
0.496163 0.549951 0 0.806841 -0.590769 0
0.496144 0.548802 0 0.827177 -0.561941 0
0.49954 0.548949 0 0.861957 -0.506981 0
0.504345 0.549562 0 0.875095 -0.48395 0
0.504512 0.548427 0 0.886539 -0.462654 0
0.510723 0.549418 0 0.905398 -0.424564 0
0.51641 0.550127 0 0.92989 -0.367839 0
0.517217 0.549115 0 0.935547 -0.353203 0
0.521934 0.549366 0 0.954758 -0.297383 0
0.525818 0.549279 0 0.961314 -0.275456 0
0.531366 0.549643 0 0.9763 -0.216422 0
0.533833 0.548997 0 0.983782 -0.179368 0
0.539972 0.549381 0 0.992046 -0.125875 0
0.545946 0.549622 0 0.999484 -0.0321331 0
0.552293 0.54987 0 0.999999 -0.00142455 0
0.557713 0.549771 0 0.999999 -0.00114945 0
0.556776 0.547956 0 0.999999 -0.00149847 0
0.571252 0.549991 0 0.999996 -0.00299816 0
0.572995 0.548735 0 0.999996 -0.00299816 0
0.578966 0.548436 0 0.999995 -0.00303877 0
0.592977 0.549841 0 1 -9.65029e-05 0
0.60037 0.549597 0 1 0.00092307 0
0.609087 0.549513 0 0.999999 0.00129014 0
0.613161 0.548368 0 1 -0.00035761 0
0.622499 0.548167 0 0.999983 0.00579454 0
0.638422 0.549023 0 0.999959 0.00907129 0
0.659001 0.550439 0 0.999909 0.0135279 0
0.668664 0.549711 0 0.999937 0.0112124 0
0.697698 0.551902 0 0.999899 0.0141963 0
0.692655 0.548509 0 0.999879 0.0155459 0
0.729123 0.551111 0 0.999836 -0.0181232 0
0.743712 0.550196 0 0.999798 -0.0201022 0
0.770283 0.550567 0 0.999563 -0.0295671 0
0.779378 0.548453 0 0.997384 -0.0722835 0
0.781925 0.545477 0 0.997384 -0.0722835 0
0.86852 0.551077 0 0.869071 -0.494687 0
0.912339 0.551266 0 0.999699 0.0245413 0
0.970637 0.552021 0 0.981946 -0.189163 0
1.00481 0.549961 0 0.332111 -0.94324 0
1.00019 0.54462 0 0.344489 -0.93879 0
0.969581 0.537722 0 0.956804 -0.290733 0
1.00313 0.534843 0 0.47106 -0.882101 0
0.922289 0.526045 0 0.895394 -0.445275 0
1.03056 0.525953 0 0.421593 -0.906785 0
1.02787 0.520674 0 0.302566 -0.953129 0
1.01458 0.51519 0 0.245942 -0.969285 0
0.89441 0.508238 0 0.345075 -0.938575 0
0.942675 0.504498 0 -0.631432 -0.775431 -0
