ply
format ascii 1.0
comment PCL generated
element vertex 744
property float x
property float y
property float z
property uchar red
property uchar green
property uchar blue
element face 186
property list uchar int vertex_indices
end_header
0.17152 0.13218 0.60835 0 0 0 
0.17148 0.13218 0.25774 0 0 0 
0.17146 0.11776 0.25774 0 0 0 
0.17151 0.11776 0.60835 0 0 0 
0.31747 0.1539 0.048625 0 0 0 
0.31747 0.012566 0.048613 0 0 0 
0.23515 0.012566 0.048582 0 0 0 
0.23515 0.1539 0.048593 0 0 0 
0.08055 0.13244 0.60833 0 0 0 
0.080499 0.13244 0.21191 0 0 0 
0.080399 0.026619 0.21191 0 0 0 
0.08045 0.026619 0.60833 0 0 0 
0.31965 0.1018 0.055132 0 0 0 
0.31964 0.1018 0.022661 0 0 0 
0.31961 0.064281 0.022661 0 0 0 
0.31961 0.064281 0.055132 0 0 0 
0.22181 0.031011 0.60833 0 0 0 
0.22181 0.03099 0.048575 0 0 0 
0.078715 0.031168 0.048575 0 0 0 
0.078715 0.031189 0.60833 0 0 0 
0.11676 0.14726 0.21101 0 0 0 
0.11676 0.14726 0.048576 0 0 0 
0.05725 0.14733 0.048576 0 0 0 
0.05725 0.14734 0.21101 0 0 0 
0.00021065 0.16629 0.048634 0 0 0 
0.0002044 0.16629 2.3872e-05 0 0 0 
5.7408e-05 0.0113 2.3872e-05 0 0 0 
6.3651e-05 0.0113 0.048634 0 0 0 
0.24276 0.15247 0.26204 0 0 0 
0.24274 0.15247 0.04866 0 0 0 
0.24261 0.017503 0.04866 0 0 0 
0.24264 0.017503 0.26204 0 0 0 
0.24275 0.14715 0.21105 0 0 0 
0.24275 0.14715 0.048219 0 0 0 
0.18531 0.14722 0.048219 0 0 0 
0.18531 0.14722 0.21105 0 0 0 
0.22525 0.13226 0.60835 0 0 0 
0.22525 0.13224 0.048584 0 0 0 
0.077784 0.13242 0.048584 0 0 0 
0.077784 0.13245 0.60835 0 0 0 
0.17514 0.045707 0.68861 0 0 0 
0.17514 0.045691 0.25709 0 0 0 
0.12541 0.045753 0.25709 0 0 0 
0.12541 0.045769 0.68861 0 0 0 
0.22192 0.13394 0.60924 0 0 0 
0.22187 0.13394 0.21365 0 0 0 
0.22177 0.031037 0.21365 0 0 0 
0.22182 0.031037 0.60924 0 0 0 
0.13349 0.045772 0.54032 0 0 0 
0.13347 0.045772 0.42068 0 0 0 
0.13346 0.031322 0.42068 0 0 0 
0.13347 0.031322 0.54032 0 0 0 
0.034678 0.14031 0.1916 0 0 0 
0.034659 0.14031 0.043092 0 0 0 
0.03454 0.015245 0.043092 0 0 0 
0.034559 0.015245 0.1916 0 0 0 
2.9102e-05 0.0128 0.013831 0 0 0 
2.9102e-05 0.00018885 0.01383 0 0 0 
0.14696 0.00018885 0.013887 0 0 0 
0.14696 0.0128 0.013888 0 0 0 
0.13349 0.045664 0.36678 0 0 0 
0.13348 0.045664 0.25766 0 0 0 
0.13346 0.031659 0.25766 0 0 0 
0.13348 0.031659 0.36678 0 0 0 
0.12879 0.12668 0.68858 0 0 0 
0.12879 0.12667 0.60829 0 0 0 
0.083732 0.12673 0.60829 0 0 0 
0.083732 0.12673 0.68858 0 0 0 
0.19982 0.04869 0.74569 0 0 0 
0.19982 0.048688 0.68855 0 0 0 
0.10159 0.04881 0.68855 0 0 0 
0.10159 0.048812 0.74569 0 0 0 
0.21643 0.12663 0.68859 0 0 0 
0.21642 0.12663 0.6083 0 0 0 
0.21633 0.035865 0.6083 0 0 0 
0.21634 0.035865 0.68859 0 0 0 
0.27115 0.13695 0.17445 0 0 0 
0.27114 0.13695 0.048669 0 0 0 
0.27104 0.030951 0.048669 0 0 0 
0.27105 0.030951 0.17445 0 0 0 
0.086221 0.12985 0.70074 0 0 0 
0.086209 0.12985 0.60521 0 0 0 
0.086108 0.02337 0.60521 0 0 0 
0.08612 0.02337 0.70074 0 0 0 
0.27063 0.030976 0.17361 0 0 0 
0.27063 0.030971 0.049738 0 0 0 
0.24263 0.031006 0.049738 0 0 0 
0.24263 0.031011 0.17361 0 0 0 
0.24248 0.14723 0.21103 0 0 0 
0.24248 0.12068 0.21103 0 0 0 
0.18727 0.12068 0.21101 0 0 0 
0.18727 0.14723 0.21101 0 0 0 
0.17442 0.072289 0.68852 0 0 0 
0.17442 0.028568 0.68852 0 0 0 
0.22143 0.028568 0.68853 0 0 0 
0.22143 0.072289 0.68854 0 0 0 
0.21728 0.1075 0.68857 0 0 0 
0.21728 0.074163 0.68857 0 0 0 
0.20025 0.074163 0.68856 0 0 0 
0.20025 0.1075 0.68857 0 0 0 
0.076382 0.16623 0.013804 0 0 0 
0.076382 0.15395 0.013803 0 0 0 
0.23937 0.15395 0.013866 0 0 0 
0.23937 0.16623 0.013867 0 0 0 
0.13181 0.13064 0.25753 0 0 0 
0.13181 0.11772 0.25753 0 0 0 
0.17128 0.11772 0.25754 0 0 0 
0.17128 0.13064 0.25754 0 0 0 
0.20824 0.11461 0.74664 0 0 0 
0.20824 0.11461 0.68853 0 0 0 
0.10171 0.11474 0.68853 0 0 0 
0.10171 0.11474 0.74664 0 0 0 
0.18509 0.11771 0.6886 0 0 0 
0.18509 0.1177 0.25742 0 0 0 
0.12872 0.11777 0.25742 0 0 0 
0.12872 0.11778 0.6886 0 0 0 
0.18715 0.017591 0.21103 0 0 0 
0.18715 0.017585 0.047548 0 0 0 
0.24261 0.017516 0.047548 0 0 0 
0.24261 0.017522 0.21103 0 0 0 
0.24635 0.16601 0.019186 0 0 0 
0.24635 0.16601 0.013817 0 0 0 
0.23974 0.16602 0.013817 0 0 0 
0.23974 0.16602 0.019186 0 0 0 
0.31163 0.012587 0.056612 0 0 0 
0.31163 0.012585 6.9402e-06 0 0 0 
0.00044364 0.012971 6.9402e-06 0 0 0 
0.00044364 0.012973 0.056612 0 0 0 
0.059719 0.13243 0.17619 0 0 0 
0.059719 0.13242 0.050267 0 0 0 
0.034644 0.13246 0.050267 0 0 0 
0.034644 0.13246 0.17619 0 0 0 
0.10998 0.10187 0.76044 0 0 0 
0.10998 0.058255 0.76044 0 0 0 
0.12662 0.058255 0.76044 0 0 0 
0.12662 0.10187 0.76045 0 0 0 
0.059625 0.03135 0.17515 0 0 0 
0.059625 0.031345 0.051367 0 0 0 
0.034559 0.031377 0.051367 0 0 0 
0.034559 0.031381 0.17515 0 0 0 
0.059556 0.017707 0.21105 0 0 0 
0.059556 0.017701 0.048576 0 0 0 
0.1186 0.017628 0.048576 0 0 0 
0.1186 0.017634 0.21105 0 0 0 
0.11675 0.14727 0.2099 0 0 0 
0.11674 0.14727 0.12657 0 0 0 
0.11673 0.13262 0.12657 0 0 0 
0.11674 0.13262 0.2099 0 0 0 
0.067088 0.16044 0.054964 0 0 0 
0.067088 0.16044 0.013682 0 0 0 
0.11978 0.16038 0.013682 0 0 0 
0.11978 0.16038 0.054964 0 0 0 
0.0015856 0.15419 0.05771 0 0 0 
0.0015856 0.15419 5.8156e-05 0 0 0 
0.22002 0.15392 5.8156e-05 0 0 0 
0.22002 0.15392 0.05771 0 0 0 
0.059729 0.1626 0.26801 0 0 0 
0.059699 0.1626 0.03824 0 0 0 
0.059562 0.017715 0.03824 0 0 0 
0.059591 0.017715 0.26801 0 0 0 
0.099119 0.11213 0.74569 0 0 0 
0.099111 0.11213 0.68636 0 0 0 
0.09905 0.047376 0.68636 0 0 0 
0.099058 0.047376 0.74569 0 0 0 
0.31173 0.15357 0.055132 0 0 0 
0.31172 0.15357 2.3793e-05 0 0 0 
0.31159 0.013261 2.3793e-05 0 0 0 
0.3116 0.013261 0.055132 0 0 0 
0.17061 0.045735 0.60833 0 0 0 
0.17057 0.045735 0.26106 0 0 0 
0.17055 0.020576 0.26106 0 0 0 
0.17059 0.020576 0.60833 0 0 0 
0.27093 0.13224 0.17447 0 0 0 
0.27093 0.13223 0.049001 0 0 0 
0.24357 0.13226 0.049001 0 0 0 
0.24357 0.13227 0.17447 0 0 0 
0.13188 0.13544 0.40164 0 0 0 
0.13186 0.13544 0.26055 0 0 0 
0.13184 0.11777 0.26055 0 0 0 
0.13186 0.11777 0.40164 0 0 0 
0.080197 0.11937 0.262 0 0 0 
0.080197 0.11937 0.21248 0 0 0 
0.059659 0.11939 0.21248 0 0 0 
0.059659 0.11939 0.262 0 0 0 
0.12343 0.019033 0.0049926 0 0 0 
0.12343 0.019033 0.0027166 0 0 0 
0.11961 0.019037 0.0027166 0 0 0 
0.11961 0.019037 0.0049926 0 0 0 
0.0029385 0.16628 0.013753 0 0 0 
0.0029385 0.15483 0.013753 0 0 0 
0.066605 0.15483 0.013777 0 0 0 
0.066605 0.16628 0.013778 0 0 0 
0.098716 0.15858 0.053891 0 0 0 
0.098716 0.15591 0.053891 0 0 0 
0.095705 0.15591 0.05389 0 0 0 
0.095705 0.15858 0.05389 0 0 0 
0.22402 0.154 0.050461 0 0 0 
0.22402 0.154 7.4929e-05 0 0 0 
0.31175 0.15389 7.4929e-05 0 0 0 
0.31175 0.15389 0.050461 0 0 0 
0.12875 0.12424 0.63368 0 0 0 
0.12875 0.12424 0.63059 0 0 0 
0.12875 0.12184 0.63059 0 0 0 
0.12875 0.12184 0.63368 0 0 0 
0.17506 0.036751 0.68854 0 0 0 
0.17506 0.036748 0.6083 0 0 0 
0.2171 0.036696 0.6083 0 0 0 
0.2171 0.036699 0.68854 0 0 0 
0.079682 0.044588 0.26203 0 0 0 
0.079682 0.044586 0.211 0 0 0 
0.059587 0.044611 0.211 0 0 0 
0.059587 0.044613 0.26203 0 0 0 
0.12344 0.10187 0.76604 0 0 0 
0.12344 0.060929 0.76604 0 0 0 
0.17595 0.060929 0.76606 0 0 0 
0.17595 0.10187 0.76606 0 0 0 
0.175 0.12665 0.68859 0 0 0 
0.175 0.12665 0.6083 0 0 0 
0.21644 0.12659 0.6083 0 0 0 
0.21644 0.1266 0.68859 0 0 0 
0.32459 0.16606 0.013929 0 0 0 
0.32459 0.027104 0.013917 0 0 0 
0.24165 0.027104 0.013885 0 0 0 
0.24165 0.16606 0.013897 0 0 0 
0.00013471 0.16042 0.048633 0 0 0 
0.00013471 0.0086169 0.04862 0 0 0 
0.0935 0.0086169 0.048656 0 0 0 
0.0935 0.16042 0.048669 0 0 0 
0.18732 0.14722 0.20886 0 0 0 
0.1873 0.14722 0.054143 0 0 0 
0.18728 0.13236 0.054143 0 0 0 
0.1873 0.13236 0.20886 0 0 0 
0.022696 0.00029762 0.019581 0 0 0 
0.022696 0.0002974 0.013776 0 0 0 
0.0086018 0.0003149 0.013776 0 0 0 
0.0086018 0.00031512 0.019581 0 0 0 
0.32459 0.16601 0.019392 0 0 0 
0.32459 0.049716 0.019383 0 0 0 
0.29583 0.049716 0.019372 0 0 0 
0.29583 0.16601 0.019381 0 0 0 
0.080497 0.11939 0.26203 0 0 0 
0.080497 0.045593 0.26203 0 0 0 
0.059654 0.045593 0.26202 0 0 0 
0.059654 0.11939 0.26203 0 0 0 
0.12878 0.12674 0.68859 0 0 0 
0.12878 0.036809 0.68858 0 0 0 
0.086217 0.036809 0.68856 0 0 0 
0.086217 0.12674 0.68857 0 0 0 
0.11675 0.14712 0.10507 0 0 0 
0.11674 0.14712 0.048581 0 0 0 
0.11673 0.1331 0.048581 0 0 0 
0.11674 0.1331 0.10507 0 0 0 
0.11664 0.041869 0.21094 0 0 0 
0.11664 0.017635 0.21093 0 0 0 
0.060462 0.017635 0.21091 0 0 0 
0.060462 0.041869 0.21091 0 0 0 
0.059659 0.16134 0.21106 0 0 0 
0.059659 0.11572 0.21105 0 0 0 
0.11674 0.11572 0.21107 0 0 0 
0.11674 0.16134 0.21108 0 0 0 
0.13177 0.13142 0.60832 0 0 0 
0.13176 0.13142 0.56203 0 0 0 
0.13175 0.11795 0.56203 0 0 0 
0.13175 0.11795 0.60832 0 0 0 
0.22899 0.026116 0.013881 0 0 0 
0.22899 1.1151e-05 0.013879 0 0 0 
0.32447 1.1151e-05 0.013916 0 0 0 
0.32447 0.026116 0.013918 0 0 0 
0.15494 0.082332 1 0 0 0 
0.15494 0.08233 0.95098 0 0 0 
0.14552 0.082342 0.95098 0 0 0 
0.14552 0.082344 1 0 0 0 
0.035388 0.13242 0.17618 0 0 0 
0.035388 0.03138 0.17617 0 0 0 
0.059683 0.03138 0.17618 0 0 0 
0.059683 0.13242 0.17619 0 0 0 
0.1287 0.036771 0.68859 0 0 0 
0.1287 0.036768 0.60448 0 0 0 
0.082412 0.036825 0.60448 0 0 0 
0.082412 0.036828 0.68859 0 0 0 
0.22572 0.047363 0.019278 0 0 0 
0.22572 1.1816e-05 0.019274 0 0 0 
0.32448 1.1816e-05 0.019312 0 0 0 
0.32448 0.047363 0.019316 0 0 0 
0.13766 0.06751 0.87987 0 0 0 
0.13766 0.067505 0.76602 0 0 0 
0.15627 0.067482 0.76602 0 0 0 
0.15627 0.067487 0.87987 0 0 0 
0.024054 0.16625 0.019591 0 0 0 
0.024054 0.16625 0.013737 0 0 0 
0.042867 0.16622 0.013737 0 0 0 
0.042867 0.16622 0.019591 0 0 0 
0.19397 0.10597 0.75599 0 0 0 
0.19397 0.10597 0.74562 0 0 0 
0.10914 0.10607 0.74562 0 0 0 
0.10914 0.10607 0.75599 0 0 0 
4.8194e-05 0.014114 0.019437 0 0 0 
4.8194e-05 0.00020779 0.019435 0 0 0 
0.10289 0.00020779 0.019475 0 0 0 
0.10289 0.014114 0.019476 0 0 0 
0.22185 0.11926 0.26204 0 0 0 
0.22185 0.11925 0.21104 0 0 0 
0.2427 0.11923 0.21104 0 0 0 
0.2427 0.11923 0.26204 0 0 0 
0.13184 0.13239 0.55598 0 0 0 
0.13182 0.13239 0.40592 0 0 0 
0.13181 0.11807 0.40592 0 0 0 
0.13183 0.11807 0.55598 0 0 0 
0.18987 0.1537 0.048663 0 0 0 
0.18987 0.1325 0.048661 0 0 0 
0.11534 0.1325 0.048632 0 0 0 
0.11534 0.1537 0.048634 0 0 0 
0.18721 0.030247 0.20627 0 0 0 
0.1872 0.030247 0.070281 0 0 0 
0.18719 0.01756 0.070281 0 0 0 
0.1872 0.01756 0.20627 0 0 0 
0.24268 0.13129 0.17444 0 0 0 
0.24268 0.031001 0.17443 0 0 0 
0.27104 0.031001 0.17444 0 0 0 
0.27104 0.13129 0.17445 0 0 0 
0.20256 0.13579 0.74568 0 0 0 
0.20255 0.13579 0.68337 0 0 0 
0.20247 0.048057 0.68337 0 0 0 
0.20248 0.048057 0.74568 0 0 0 
0.11751 0.031101 0.04862 0 0 0 
0.11751 0.012868 0.048619 0 0 0 
0.1872 0.012868 0.048645 0 0 0 
0.1872 0.031101 0.048647 0 0 0 
0.16149 0.088479 0.88253 0 0 0 
0.16148 0.088479 0.76876 0 0 0 
0.16146 0.072456 0.76876 0 0 0 
0.16148 0.072456 0.88253 0 0 0 
0.23454 0.15989 0.05393 0 0 0 
0.23454 0.15989 0.019542 0 0 0 
0.19392 0.15994 0.019542 0 0 0 
0.19392 0.15994 0.05393 0 0 0 
0.15265 0.076367 0.95397 0 0 0 
0.15265 0.076366 0.94145 0 0 0 
0.14549 0.076375 0.94145 0 0 0 
0.14549 0.076376 0.95397 0 0 0 
0.13349 0.044763 0.41767 0 0 0 
0.13348 0.044763 0.36941 0 0 0 
0.13347 0.032136 0.36941 0 0 0 
0.13348 0.032136 0.41767 0 0 0 
0.069799 0.01412 0.053775 0 0 0 
0.069799 0.0055675 0.053774 0 0 0 
0.10452 0.0055675 0.053788 0 0 0 
0.10452 0.01412 0.053788 0 0 0 
0.21012 0.013188 0.053897 0 0 0 
0.21012 0.0047547 0.053896 0 0 0 
0.22792 0.0047547 0.053903 0 0 0 
0.22792 0.013188 0.053903 0 0 0 
0.1191 0.0055544 0.052933 0 0 0 
0.1191 0.0055527 0.0083316 0 0 0 
0.067997 0.0056162 0.0083316 0 0 0 
0.067997 0.0056179 0.052933 0 0 0 
0.15265 0.083197 0.96179 0 0 0 
0.15265 0.083197 0.94821 0 0 0 
0.15264 0.076054 0.94821 0 0 0 
0.15264 0.076054 0.96179 0 0 0 
0.31167 0.064533 0.041598 0 0 0 
0.31167 0.064532 0.021248 0 0 0 
0.31989 0.064522 0.021248 0 0 0 
0.31989 0.064523 0.041598 0 0 0 
0.13351 0.044926 0.60784 0 0 0 
0.13351 0.044926 0.57213 0 0 0 
0.1335 0.032287 0.57213 0 0 0 
0.1335 0.032287 0.60784 0 0 0 
0.17059 0.045264 0.25719 0 0 0 
0.17059 0.032833 0.25719 0 0 0 
0.1337 0.032833 0.25718 0 0 0 
0.1337 0.045264 0.25718 0 0 0 
0.15724 0.092017 0.88724 0 0 0 
0.15724 0.092013 0.76911 0 0 0 
0.13917 0.092035 0.76911 0 0 0 
0.13917 0.09204 0.88724 0 0 0 
0.18716 0.040899 0.211 0 0 0 
0.18716 0.014641 0.211 0 0 0 
0.24119 0.014641 0.21102 0 0 0 
0.24119 0.040899 0.21102 0 0 0 
0.033871 0.16629 0.019495 0 0 0 
0.033871 0.15522 0.019494 0 0 0 
0.0056411 0.15522 0.019483 0 0 0 
0.0056411 0.16629 0.019484 0 0 0 
0.09906 0.12205 0.7456 0 0 0 
0.09906 0.089228 0.7456 0 0 0 
0.12127 0.089228 0.7456 0 0 0 
0.12127 0.12205 0.74561 0 0 0 
0.21805 0.012654 0.013833 0 0 0 
0.21805 9.7909e-05 0.013832 0 0 0 
0.15031 9.7909e-05 0.013806 0 0 0 
0.15031 0.012654 0.013807 0 0 0 
0.22181 0.044473 0.26392 0 0 0 
0.22181 0.044471 0.21102 0 0 0 
0.24157 0.044447 0.21102 0 0 0 
0.24157 0.044449 0.26392 0 0 0 
0.14549 0.082892 0.94685 0 0 0 
0.14549 0.082891 0.91594 0 0 0 
0.15266 0.082882 0.91594 0 0 0 
0.15266 0.082883 0.94685 0 0 0 
0.20768 0.16012 0.048607 0 0 0 
0.20768 0.1473 0.048606 0 0 0 
0.22732 0.1473 0.048613 0 0 0 
0.22732 0.16012 0.048614 0 0 0 
0.22188 0.1316 0.60817 0 0 0 
0.22188 0.10835 0.60817 0 0 0 
0.21095 0.10835 0.60817 0 0 0 
0.21095 0.1316 0.60817 0 0 0 
0.31991 0.093189 0.037139 0 0 0 
0.31991 0.072547 0.037138 0 0 0 
0.30924 0.072547 0.037133 0 0 0 
0.30924 0.093189 0.037135 0 0 0 
0.11666 0.031139 0.19761 0 0 0 
0.11664 0.031139 0.048693 0 0 0 
0.11663 0.017629 0.048693 0 0 0 
0.11665 0.017629 0.19761 0 0 0 
0.12873 0.1267 0.68418 0 0 0 
0.12873 0.1267 0.64679 0 0 0 
0.12872 0.11842 0.64679 0 0 0 
0.12873 0.11842 0.68418 0 0 0 
0.19462 0.053989 0.76083 0 0 0 
0.19462 0.053988 0.74562 0 0 0 
0.10896 0.054095 0.74562 0 0 0 
0.10896 0.054095 0.76083 0 0 0 
0.1882 0.058145 0.77087 0 0 0 
0.1882 0.058144 0.7532 0 0 0 
0.11903 0.05823 0.7532 0 0 0 
0.11903 0.058231 0.77087 0 0 0 
0.12869 0.044803 0.65233 0 0 0 
0.12869 0.044803 0.64075 0 0 0 
0.12868 0.039479 0.64075 0 0 0 
0.12868 0.039479 0.65233 0 0 0 
0.21229 0.11988 0.68855 0 0 0 
0.21229 0.11682 0.68855 0 0 0 
0.21037 0.11682 0.68855 0 0 0 
0.21037 0.11988 0.68855 0 0 0 
0.13777 0.0004137 0.019566 0 0 0 
0.13777 0.00041348 0.013712 0 0 0 
0.16776 0.00037625 0.013712 0 0 0 
0.16776 0.00037647 0.019566 0 0 0 
0.14571 0.083244 0.97347 0 0 0 
0.14571 0.083244 0.92673 0 0 0 
0.1457 0.076061 0.92673 0 0 0 
0.14571 0.076061 0.97347 0 0 0 
0.13798 0.11226 0.74567 0 0 0 
0.13798 0.10626 0.74567 0 0 0 
0.1444 0.10626 0.74567 0 0 0 
0.1444 0.11226 0.74567 0 0 0 
0.13683 0.087265 0.88856 0 0 0 
0.13681 0.087265 0.76925 0 0 0 
0.1368 0.071881 0.76925 0 0 0 
0.13681 0.071881 0.88856 0 0 0 
0.23178 0.0047707 0.053892 0 0 0 
0.23178 0.0047692 0.0137 0 0 0 
0.19518 0.0048146 0.0137 0 0 0 
0.19518 0.0048161 0.053892 0 0 0 
0.26641 7.805e-05 0.017617 0 0 0 
0.26641 7.7922e-05 0.0142 0 0 0 
0.27124 7.1923e-05 0.0142 0 0 0 
0.27124 7.2051e-05 0.017617 0 0 0 
0.18294 0.10181 0.7652 0 0 0 
0.18294 0.10181 0.75593 0 0 0 
0.12808 0.10188 0.75593 0 0 0 
0.12808 0.10188 0.7652 0 0 0 
0.12869 0.044355 0.63372 0 0 0 
0.12869 0.044355 0.60832 0 0 0 
0.12868 0.037534 0.60832 0 0 0 
0.12868 0.037534 0.63372 0 0 0 
0.044371 0.00027399 0.019585 0 0 0 
0.044371 0.00027379 0.014979 0 0 0 
0.05631 0.00025899 0.014979 0 0 0 
0.05631 0.0002592 0.019585 0 0 0 
0.17511 0.041585 0.62354 0 0 0 
0.17511 0.041585 0.61967 0 0 0 
0.1751 0.038216 0.61967 0 0 0 
0.1751 0.038216 0.62354 0 0 0 
0.19359 0.010849 0.050897 0 0 0 
0.19359 0.010849 0.01956 0 0 0 
0.19358 0.0047673 0.01956 0 0 0 
0.19359 0.0047673 0.050897 0 0 0 
0.13556 0.019071 0.0083247 0 0 0 
0.13556 0.0047135 0.0083235 0 0 0 
0.10668 0.0047135 0.0083123 0 0 0 
0.10668 0.019071 0.0083135 0 0 0 
0.10599 0.10339 0.76083 0 0 0 
0.10599 0.10339 0.74562 0 0 0 
0.10594 0.05781 0.74562 0 0 0 
0.10594 0.05781 0.76083 0 0 0 
0.11012 0.083158 0.74572 0 0 0 
0.11012 0.05063 0.74571 0 0 0 
0.099051 0.05063 0.74571 0 0 0 
0.099051 0.083158 0.74571 0 0 0 
0.23117 0.16006 0.053888 0 0 0 
0.23117 0.15231 0.053888 0 0 0 
0.21842 0.15231 0.053883 0 0 0 
0.21842 0.16006 0.053883 0 0 0 
0.25001 8.9445e-05 0.017374 0 0 0 
0.25001 8.9311e-05 0.01377 0 0 0 
0.2361 0.00010659 0.01377 0 0 0 
0.2361 0.00010672 0.017374 0 0 0 
0.10568 0.012679 0.019488 0 0 0 
0.10568 0.00011589 0.019487 0 0 0 
0.20422 0.00011589 0.019525 0 0 0 
0.20422 0.012679 0.019526 0 0 0 
0.13608 0.16615 0.019262 0 0 0 
0.13608 0.15432 0.019261 0 0 0 
0.29227 0.15432 0.019321 0 0 0 
0.29227 0.16615 0.019322 0 0 0 
0.17546 0.16612 0.019536 0 0 0 
0.17546 0.16612 0.014334 0 0 0 
0.16494 0.16613 0.014334 0 0 0 
0.16494 0.16613 0.019536 0 0 0 
0.23301 0.1591 0.025255 0 0 0 
0.23301 0.1591 0.022969 0 0 0 
0.23301 0.15594 0.022969 0 0 0 
0.23301 0.15594 0.025255 0 0 0 
0.19579 0.10328 0.75596 0 0 0 
0.19579 0.089024 0.75596 0 0 0 
0.18446 0.089024 0.75596 0 0 0 
0.18446 0.10328 0.75596 0 0 0 
0.17517 0.12579 0.68859 0 0 0 
0.17517 0.12579 0.65675 0 0 0 
0.17516 0.11767 0.65675 0 0 0 
0.17516 0.11767 0.68859 0 0 0 
0.10674 0.014095 0.051168 0 0 0 
0.10673 0.014095 0.019541 0 0 0 
0.10672 0.0055019 0.019541 0 0 0 
0.10673 0.0055019 0.051168 0 0 0 
0.19672 0.10484 0.76062 0 0 0 
0.19672 0.059435 0.76061 0 0 0 
0.1759 0.059435 0.7606 0 0 0 
0.1759 0.10484 0.76061 0 0 0 
0.20474 0.12589 0.68857 0 0 0 
0.20474 0.11552 0.68857 0 0 0 
0.18483 0.11552 0.68856 0 0 0 
0.18483 0.12589 0.68856 0 0 0 
0.21832 0.099957 0.60833 0 0 0 
0.21832 0.091558 0.60832 0 0 0 
0.22053 0.091558 0.60833 0 0 0 
0.22053 0.099957 0.60833 0 0 0 
0.15223 0.085253 0.91915 0 0 0 
0.15222 0.085253 0.88943 0 0 0 
0.15222 0.075562 0.88943 0 0 0 
0.15222 0.075562 0.91915 0 0 0 
0.13338 0.038695 0.6083 0 0 0 
0.13338 0.032474 0.6083 0 0 0 
0.13106 0.032474 0.6083 0 0 0 
0.13106 0.038695 0.6083 0 0 0 
0.2416 0.11925 0.26203 0 0 0 
0.2416 0.046975 0.26203 0 0 0 
0.22223 0.046975 0.26202 0 0 0 
0.22223 0.11925 0.26202 0 0 0 
0.17511 0.045232 0.65876 0 0 0 
0.1751 0.045232 0.63185 0 0 0 
0.1751 0.037291 0.63185 0 0 0 
0.1751 0.037291 0.65876 0 0 0 
0.17591 0.066673 0.76606 0 0 0 
0.17591 0.066673 0.7593 0 0 0 
0.1759 0.059814 0.7593 0 0 0 
0.1759 0.059814 0.76606 0 0 0 
0.081131 0.16041 0.053897 0 0 0 
0.081131 0.15579 0.053897 0 0 0 
0.088244 0.15579 0.0539 0 0 0 
0.088244 0.16041 0.0539 0 0 0 
0.20337 0.15377 0.048603 0 0 0 
0.20337 0.14753 0.048603 0 0 0 
0.20017 0.14753 0.048601 0 0 0 
0.20017 0.15377 0.048602 0 0 0 
0.21314 0.0047851 0.019581 0 0 0 
0.21314 9.7247e-05 0.019581 0 0 0 
0.22134 9.7247e-05 0.019584 0 0 0 
0.22134 0.0047851 0.019584 0 0 0 
0.131 0.16614 0.019576 0 0 0 
0.131 0.16614 0.013773 0 0 0 
0.11262 0.16617 0.013773 0 0 0 
0.11262 0.16617 0.019576 0 0 0 
0.066528 0.1194 0.22248 0 0 0 
0.066528 0.1194 0.22033 0 0 0 
0.062655 0.1194 0.22033 0 0 0 
0.062655 0.1194 0.22248 0 0 0 
0.067105 0.159 0.035521 0 0 0 
0.067104 0.159 0.029609 0 0 0 
0.067101 0.15518 0.029609 0 0 0 
0.067101 0.15518 0.035521 0 0 0 
0.13348 0.042566 0.56901 0 0 0 
0.13348 0.042566 0.55501 0 0 0 
0.13347 0.034231 0.55501 0 0 0 
0.13347 0.034231 0.56901 0 0 0 
0.22181 0.064358 0.6083 0 0 0 
0.22181 0.058148 0.60829 0 0 0 
0.2173 0.058148 0.60829 0 0 0 
0.2173 0.064358 0.60829 0 0 0 
0.17866 0.1661 0.018749 0 0 0 
0.17866 0.1661 0.016773 0 0 0 
0.18229 0.1661 0.016773 0 0 0 
0.18229 0.1661 0.018749 0 0 0 
0.18032 0.00044414 0.022859 0 0 0 
0.18032 0.00044379 0.013788 0 0 0 
0.19751 0.00042246 0.013788 0 0 0 
0.19751 0.0004228 0.022859 0 0 0 
0.17518 0.12401 0.63234 0 0 0 
0.17518 0.12401 0.61281 0 0 0 
0.17517 0.11771 0.61281 0 0 0 
0.17517 0.11771 0.63234 0 0 0 
0.17517 0.1251 0.654 0 0 0 
0.17517 0.1251 0.64035 0 0 0 
0.17517 0.11766 0.64035 0 0 0 
0.17517 0.11766 0.654 0 0 0 
0.12868 0.044239 0.66416 0 0 0 
0.12868 0.044239 0.65661 0 0 0 
0.12867 0.036774 0.65661 0 0 0 
0.12867 0.036774 0.66416 0 0 0 
0.19597 0.104 0.75599 0 0 0 
0.19597 0.104 0.74291 0 0 0 
0.19592 0.053896 0.74291 0 0 0 
0.19592 0.053896 0.75599 0 0 0 
0.10582 0.15833 0.033873 0 0 0 
0.10582 0.15833 0.031499 0 0 0 
0.10581 0.15511 0.031499 0 0 0 
0.10581 0.15511 0.033873 0 0 0 
0.12732 0.16575 0.019558 0 0 0 
0.12732 0.15556 0.019557 0 0 0 
0.10695 0.15556 0.019549 0 0 0 
0.10695 0.16575 0.01955 0 0 0 
0.1084 0.16617 0.019562 0 0 0 
0.1084 0.16617 0.014963 0 0 0 
0.099448 0.16618 0.014963 0 0 0 
0.099448 0.16618 0.019562 0 0 0 
0.10542 0.035836 0.60831 0 0 0 
0.10542 0.031125 0.60831 0 0 0 
0.09344 0.031125 0.6083 0 0 0 
0.09344 0.035836 0.60831 0 0 0 
0.06813 0.012198 0.045792 0 0 0 
0.068127 0.012198 0.021757 0 0 0 
0.06812 0.0056064 0.021757 0 0 0 
0.068123 0.0056064 0.045792 0 0 0 
0.062583 0.16621 0.018913 0 0 0 
0.062583 0.16621 0.01393 0 0 0 
0.057073 0.16622 0.01393 0 0 0 
0.057073 0.16622 0.018913 0 0 0 
0.21528 0.041264 0.60832 0 0 0 
0.21528 0.033543 0.60832 0 0 0 
0.22089 0.033543 0.60832 0 0 0 
0.22089 0.041264 0.60832 0 0 0 
0.085537 0.1169 0.60831 0 0 0 
0.085537 0.11099 0.60831 0 0 0 
0.081348 0.11099 0.60831 0 0 0 
0.081348 0.1169 0.60831 0 0 0 
0.09947 0.16622 0.019565 0 0 0 
0.09947 0.16173 0.019565 0 0 0 
0.091892 0.16173 0.019562 0 0 0 
0.091892 0.16622 0.019562 0 0 0 
0.22844 0.00010808 0.019046 0 0 0 
0.22844 0.00010789 0.01373 0 0 0 
0.21609 0.00012322 0.01373 0 0 0 
0.21609 0.00012342 0.019046 0 0 0 
0.14552 0.088155 0.92133 0 0 0 
0.14552 0.088155 0.88428 0 0 0 
0.1455 0.069895 0.88428 0 0 0 
0.1455 0.069895 0.92133 0 0 0 
0.18448 0.11291 0.74566 0 0 0 
0.18448 0.10716 0.74566 0 0 0 
0.17809 0.10716 0.74566 0 0 0 
0.17809 0.11291 0.74566 0 0 0 
0.31988 0.075022 0.053696 0 0 0 
0.31988 0.065926 0.053695 0 0 0 
0.31058 0.065926 0.053691 0 0 0 
0.31058 0.075022 0.053692 0 0 0 
0.10583 0.16229 0.026267 0 0 0 
0.10583 0.16229 0.019536 0 0 0 
0.10582 0.15566 0.019536 0 0 0 
0.10583 0.15566 0.026267 0 0 0 
0.12876 0.12616 0.62662 0 0 0 
0.12875 0.12616 0.60828 0 0 0 
0.12875 0.11787 0.60828 0 0 0 
0.12875 0.11787 0.62662 0 0 0 
0.070763 0.16625 0.019416 0 0 0 
0.070763 0.15512 0.019415 0 0 0 
0.039701 0.15512 0.019403 0 0 0 
0.039701 0.16625 0.019404 0 0 0 
0.32447 0.057323 0.01959 0 0 0 
0.32447 0.057323 0.013794 0 0 0 
0.32446 0.047361 0.013794 0 0 0 
0.32446 0.047361 0.01959 0 0 0 
0.20591 0.010538 0.053904 0 0 0 
0.20591 0.0047669 0.053903 0 0 0 
0.19541 0.0047669 0.053899 0 0 0 
0.19541 0.010538 0.0539 0 0 0 
0.1526 0.083216 0.94241 0 0 0 
0.1526 0.083216 0.93304 0 0 0 
0.1526 0.076073 0.93304 0 0 0 
0.1526 0.076073 0.94241 0 0 0 
0.11256 0.13115 0.60831 0 0 0 
0.11256 0.12776 0.60831 0 0 0 
0.10466 0.12776 0.6083 0 0 0 
0.10466 0.13115 0.6083 0 0 0 
0.1751 0.041919 0.68559 0 0 0 
0.1751 0.041919 0.67631 0 0 0 
0.17509 0.037657 0.67631 0 0 0 
0.17509 0.037657 0.68559 0 0 0 
0.32053 0.10177 0.035186 0 0 0 
0.32053 0.10177 0.019551 0 0 0 
0.31477 0.10177 0.019551 0 0 0 
0.31477 0.10177 0.035186 0 0 0 
0.15011 0.16612 0.019589 0 0 0 
0.15011 0.16612 0.013787 0 0 0 
0.13649 0.16613 0.013787 0 0 0 
0.13649 0.16613 0.019589 0 0 0 
0.13846 0.05366 0.74566 0 0 0 
0.13846 0.050071 0.74566 0 0 0 
0.13217 0.050071 0.74566 0 0 0 
0.13217 0.05366 0.74566 0 0 0 
0.18719 0.028673 0.063505 0 0 0 
0.18718 0.028673 0.052293 0 0 0 
0.18718 0.020979 0.052293 0 0 0 
0.18718 0.020979 0.063505 0 0 0 
0.1455 0.076122 0.99998 0 0 0 
0.1455 0.076121 0.9749 0 0 0 
0.1525 0.076113 0.9749 0 0 0 
0.1525 0.076114 0.99998 0 0 0 
0.2323 0.0048292 0.053894 0 0 0 
0.2323 0.0048289 0.044901 0 0 0 
0.22837 0.0048338 0.044901 0 0 0 
0.22837 0.0048341 0.053894 0 0 0 
0.2323 0.010892 0.052304 0 0 0 
0.23229 0.010892 0.030465 0 0 0 
0.23229 0.0047389 0.030465 0 0 0 
0.23229 0.0047389 0.052304 0 0 0 
0.20717 0.00016146 0.019587 0 0 0 
0.20717 0.0001614 0.017996 0 0 0 
0.20949 0.00015852 0.017996 0 0 0 
0.20949 0.00015858 0.019587 0 0 0 
0.10582 0.15845 0.044927 0 0 0 
0.10582 0.15845 0.038103 0 0 0 
0.10581 0.1553 0.038103 0 0 0 
0.10582 0.1553 0.044927 0 0 0 
0.11325 0.018132 0.0052269 0 0 0 
0.11325 0.018132 0.00062649 0 0 0 
0.11325 0.014478 0.00062649 0 0 0 
0.11325 0.014478 0.0052269 0 0 0 
0.20076 0.0047913 0.034371 0 0 0 
0.20076 0.004791 0.026457 0 0 0 
0.2084 0.0047815 0.026457 0 0 0 
0.2084 0.0047818 0.034371 0 0 0 
4 0 1 2 3
4 4 5 6 7
4 8 9 10 11
4 12 13 14 15
4 16 17 18 19
4 20 21 22 23
4 24 25 26 27
4 28 29 30 31
4 32 33 34 35
4 36 37 38 39
4 40 41 42 43
4 44 45 46 47
4 48 49 50 51
4 52 53 54 55
4 56 57 58 59
4 60 61 62 63
4 64 65 66 67
4 68 69 70 71
4 72 73 74 75
4 76 77 78 79
4 80 81 82 83
4 84 85 86 87
4 88 89 90 91
4 92 93 94 95
4 96 97 98 99
4 100 101 102 103
4 104 105 106 107
4 108 109 110 111
4 112 113 114 115
4 116 117 118 119
4 120 121 122 123
4 124 125 126 127
4 128 129 130 131
4 132 133 134 135
4 136 137 138 139
4 140 141 142 143
4 144 145 146 147
4 148 149 150 151
4 152 153 154 155
4 156 157 158 159
4 160 161 162 163
4 164 165 166 167
4 168 169 170 171
4 172 173 174 175
4 176 177 178 179
4 180 181 182 183
4 184 185 186 187
4 188 189 190 191
4 192 193 194 195
4 196 197 198 199
4 200 201 202 203
4 204 205 206 207
4 208 209 210 211
4 212 213 214 215
4 216 217 218 219
4 220 221 222 223
4 224 225 226 227
4 228 229 230 231
4 232 233 234 235
4 236 237 238 239
4 240 241 242 243
4 244 245 246 247
4 248 249 250 251
4 252 253 254 255
4 256 257 258 259
4 260 261 262 263
4 264 265 266 267
4 268 269 270 271
4 272 273 274 275
4 276 277 278 279
4 280 281 282 283
4 284 285 286 287
4 288 289 290 291
4 292 293 294 295
4 296 297 298 299
4 300 301 302 303
4 304 305 306 307
4 308 309 310 311
4 312 313 314 315
4 316 317 318 319
4 320 321 322 323
4 324 325 326 327
4 328 329 330 331
4 332 333 334 335
4 336 337 338 339
4 340 341 342 343
4 344 345 346 347
4 348 349 350 351
4 352 353 354 355
4 356 357 358 359
4 360 361 362 363
4 364 365 366 367
4 368 369 370 371
4 372 373 374 375
4 376 377 378 379
4 380 381 382 383
4 384 385 386 387
4 388 389 390 391
4 392 393 394 395
4 396 397 398 399
4 400 401 402 403
4 404 405 406 407
4 408 409 410 411
4 412 413 414 415
4 416 417 418 419
4 420 421 422 423
4 424 425 426 427
4 428 429 430 431
4 432 433 434 435
4 436 437 438 439
4 440 441 442 443
4 444 445 446 447
4 448 449 450 451
4 452 453 454 455
4 456 457 458 459
4 460 461 462 463
4 464 465 466 467
4 468 469 470 471
4 472 473 474 475
4 476 477 478 479
4 480 481 482 483
4 484 485 486 487
4 488 489 490 491
4 492 493 494 495
4 496 497 498 499
4 500 501 502 503
4 504 505 506 507
4 508 509 510 511
4 512 513 514 515
4 516 517 518 519
4 520 521 522 523
4 524 525 526 527
4 528 529 530 531
4 532 533 534 535
4 536 537 538 539
4 540 541 542 543
4 544 545 546 547
4 548 549 550 551
4 552 553 554 555
4 556 557 558 559
4 560 561 562 563
4 564 565 566 567
4 568 569 570 571
4 572 573 574 575
4 576 577 578 579
4 580 581 582 583
4 584 585 586 587
4 588 589 590 591
4 592 593 594 595
4 596 597 598 599
4 600 601 602 603
4 604 605 606 607
4 608 609 610 611
4 612 613 614 615
4 616 617 618 619
4 620 621 622 623
4 624 625 626 627
4 628 629 630 631
4 632 633 634 635
4 636 637 638 639
4 640 641 642 643
4 644 645 646 647
4 648 649 650 651
4 652 653 654 655
4 656 657 658 659
4 660 661 662 663
4 664 665 666 667
4 668 669 670 671
4 672 673 674 675
4 676 677 678 679
4 680 681 682 683
4 684 685 686 687
4 688 689 690 691
4 692 693 694 695
4 696 697 698 699
4 700 701 702 703
4 704 705 706 707
4 708 709 710 711
4 712 713 714 715
4 716 717 718 719
4 720 721 722 723
4 724 725 726 727
4 728 729 730 731
4 732 733 734 735
4 736 737 738 739
4 740 741 742 743
