ply
format ascii 1.0
comment PCL generated
element vertex 744
property float x
property float y
property float z
property uchar red
property uchar green
property uchar blue
element face 186
property list uchar int vertex_indices
end_header
0.17152 0.13307 0.60831 0 0 0 
0.17151 0.1184 0.60836 0 0 0 
0.17146 0.11711 0.25775 0 0 0 
0.17148 0.13178 0.2577 0 0 0 
0.31861 0.01322 0.048614 0 0 0 
0.23653 0.012401 0.048582 0 0 0 
0.23512 0.15351 0.048593 0 0 0 
0.3172 0.15433 0.048625 0 0 0 
0.08055 0.13226 0.60865 0 0 0 
0.08045 0.026397 0.60829 0 0 0 
0.0804 0.027757 0.21187 0 0 0 
0.0805 0.13362 0.21223 0 0 0 
0.31964 0.1044 0.024124 0 0 0 
0.31965 0.10096 0.057742 0 0 0 
0.31961 0.062231 0.053783 0 0 0 
0.31961 0.065668 0.020165 0 0 0 
0.22235 0.03099 0.048667 0 0 0 
0.078791 0.031168 0.048505 0 0 0 
0.078158 0.03119 0.60831 0 0 0 
0.22172 0.031012 0.60848 0 0 0 
0.11729 0.14726 0.048607 0 0 0 
0.057627 0.14733 0.048377 0 0 0 
0.056999 0.14734 0.21099 0 0 0 
0.11667 0.14726 0.21122 0 0 0 
0.00020341 0.16573 -0.0036072 0 0 0 
0.00021138 0.16712 0.048186 0 0 0 
6.5109e-05 0.012334 0.052344 0 0 0 
5.7137e-05 0.010942 0.00055132 0 0 0 
0.24264 0.017879 0.26273 0 0 0 
0.24276 0.15355 0.26178 0 0 0 
0.24274 0.15206 0.047759 0 0 0 
0.24261 0.016385 0.048707 0 0 0 
0.24452 0.14714 0.048547 0 0 0 
0.18735 0.14721 0.047493 0 0 0 
0.18434 0.14722 0.21067 0 0 0 
0.24151 0.14715 0.21172 0 0 0 
0.22627 0.13224 0.048778 0 0 0 
0.079559 0.13242 0.04819 0 0 0 
0.077315 0.13245 0.6083 0 0 0 
0.22402 0.13226 0.60889 0 0 0 
0.17624 0.04569 0.25717 0 0 0 
0.1265 0.045752 0.25704 0 0 0 
0.12536 0.045769 0.68858 0 0 0 
0.1751 0.045708 0.68871 0 0 0 
0.22192 0.13346 0.60937 0 0 0 
0.22182 0.030491 0.60921 0 0 0 
0.22177 0.031103 0.2135 0 0 0 
0.22187 0.13407 0.21366 0 0 0 
0.13348 0.043981 0.5405 0 0 0 
0.13347 0.030355 0.54023 0 0 0 
0.13346 0.032679 0.42051 0 0 0 
0.13347 0.046304 0.42078 0 0 0 
0.034571 0.027249 0.19263 0 0 0 
0.034679 0.14232 0.18233 0 0 0 
0.034649 0.12977 0.042061 0 0 0 
0.034541 0.014693 0.052362 0 0 0 
4.2871e-05 -0.00013917 0.01383 0 0 0 
1.1437e-05 0.012701 0.013831 0 0 0 
0.14695 0.013061 0.013888 0 0 0 
0.14698 0.00022058 0.013887 0 0 0 
0.13349 0.045463 0.36681 0 0 0 
0.13348 0.031344 0.36674 0 0 0 
0.13346 0.031881 0.25764 0 0 0 
0.13348 0.045999 0.25771 0 0 0 
0.12905 0.12667 0.60832 0 0 0 
0.083733 0.12673 0.60816 0 0 0 
0.083446 0.12673 0.68848 0 0 0 
0.12876 0.12668 0.68864 0 0 0 
0.10178 0.048812 0.74782 0 0 0 
0.10039 0.048812 0.68868 0 0 0 
0.19945 0.048688 0.68635 0 0 0 
0.20084 0.048689 0.74549 0 0 0 
0.21644 0.14628 0.61792 0 0 0 
0.21642 0.11531 0.71053 0 0 0 
0.21632 0.015781 0.67724 0 0 0 
0.21634 0.046752 0.58463 0 0 0 
0.27105 0.031161 0.17775 0 0 0 
0.27115 0.13748 0.17415 0 0 0 
0.27113 0.13313 0.045771 0 0 0 
0.27103 0.026812 0.049372 0 0 0 
0.086209 0.12985 0.60521 0 0 0 
0.086223 0.13274 0.69798 0 0 0 
0.086121 0.024126 0.70137 0 0 0 
0.086106 0.021236 0.6086 0 0 0 
0.27109 0.030971 0.049788 0 0 0 
0.24289 0.031006 0.049657 0 0 0 
0.24232 0.031011 0.17355 0 0 0 
0.27052 0.030976 0.17368 0 0 0 
0.18975 0.15411 0.21101 0 0 0 
0.18478 0.13086 0.21101 0 0 0 
0.2396 0.11913 0.21103 0 0 0 
0.24458 0.14238 0.21103 0 0 0 
0.18794 0.016729 0.68852 0 0 0 
0.16709 0.044241 0.68851 0 0 0 
0.2092 0.076145 0.68853 0 0 0 
0.23005 0.048634 0.68854 0 0 0 
0.21792 0.074772 0.68857 0 0 0 
0.20141 0.07344 0.68856 0 0 0 
0.19872 0.10679 0.68857 0 0 0 
0.21523 0.10812 0.68857 0 0 0 
0.076476 0.15293 0.013803 0 0 0 
0.076382 0.16623 0.013804 0 0 0 
0.23931 0.16738 0.013867 0 0 0 
0.2394 0.15408 0.013866 0 0 0 
0.13207 0.11622 0.25753 0 0 0 
0.13133 0.12864 0.25753 0 0 0 
0.17107 0.13102 0.25754 0 0 0 
0.17182 0.1186 0.25754 0 0 0 
0.102 0.11474 0.74722 0 0 0 
0.10167 0.11474 0.68866 0 0 0 
0.20815 0.11461 0.68806 0 0 0 
0.20848 0.11461 0.74662 0 0 0 
0.18535 0.1177 0.25747 0 0 0 
0.12955 0.11777 0.25734 0 0 0 
0.12856 0.11778 0.6886 0 0 0 
0.18436 0.11771 0.68873 0 0 0 
0.24342 0.017521 0.21101 0 0 0 
0.18721 0.017591 0.2113 0 0 0 
0.18638 0.017586 0.047681 0 0 0 
0.24259 0.017516 0.047395 0 0 0 
0.23976 0.16602 0.019317 0 0 0 
0.23957 0.16602 0.013861 0 0 0 
0.2463 0.16601 0.01362 0 0 0 
0.2465 0.16601 0.019076 0 0 0 
0.00055431 0.012973 0.056872 0 0 0 
2.0891e-05 0.012972 0.00037547 0 0 0 
0.31155 0.012585 -0.0025659 0 0 0 
0.31208 0.012586 0.05393 0 0 0 
0.059936 0.13242 0.050296 0 0 0 
0.034697 0.13246 0.050121 0 0 0 
0.033826 0.13246 0.17611 0 0 0 
0.059065 0.13243 0.17629 0 0 0 
0.12662 0.10186 0.76045 0 0 0 
0.11034 0.1025 0.76044 0 0 0 
0.10859 0.058496 0.76044 0 0 0 
0.12487 0.057848 0.76044 0 0 0 
0.060647 0.031344 0.05151 0 0 0 
0.034693 0.031376 0.051183 0 0 0 
0.033132 0.031383 0.17498 0 0 0 
0.059087 0.031351 0.1753 0 0 0 
0.11864 0.017634 0.21102 0 0 0 
0.059741 0.017707 0.21117 0 0 0 
0.059332 0.017701 0.0486 0 0 0 
0.11823 0.017628 0.048451 0 0 0 
0.11675 0.14717 0.21 0 0 0 
0.11674 0.13235 0.20982 0 0 0 
0.11673 0.13333 0.12647 0 0 0 
0.11674 0.14815 0.12665 0 0 0 
0.072105 0.16043 0.0072445 0 0 0 
0.05629 0.16046 0.04753 0 0 0 
0.1056 0.1604 0.066885 0 0 0 
0.12141 0.16037 0.0266 0 0 0 
0.0022147 0.15419 -0.0044613 0 0 0 
0.00083782 0.15419 0.052879 0 0 0 
0.21881 0.15392 0.058113 0 0 0 
0.22019 0.15392 0.00077287 0 0 0 
0.059551 -0.022067 0.24907 0 0 0 
0.0597 0.13032 0.28188 0 0 0 
0.059717 0.17837 0.05877 0 0 0 
0.059568 0.025979 0.025954 0 0 0 
0.09911 0.11111 0.6855 0 0 0 
0.099121 0.11425 0.74345 0 0 0 
0.099058 0.047851 0.74704 0 0 0 
0.099048 0.044711 0.6891 0 0 0 
0.31172 0.15312 -0.0014072 0 0 0 
0.31173 0.1539 0.054172 0 0 0 
0.3116 0.013891 0.056141 0 0 0 
0.31159 0.013109 0.0005612 0 0 0 
0.17061 0.046605 0.60831 0 0 0 
0.17059 0.021177 0.60838 0 0 0 
0.17055 0.020292 0.26111 0 0 0 
0.17057 0.04572 0.26104 0 0 0 
0.27155 0.13223 0.049076 0 0 0 
0.24394 0.13226 0.048901 0 0 0 
0.24315 0.13227 0.17443 0 0 0 
0.27076 0.13224 0.17461 0 0 0 
0.13188 0.13558 0.4016 0 0 0 
0.13186 0.11789 0.40164 0 0 0 
0.13184 0.11756 0.26057 0 0 0 
0.13186 0.13525 0.26053 0 0 0 
0.08049 0.11936 0.21255 0 0 0 
0.060054 0.11939 0.21236 0 0 0 
0.059592 0.11939 0.26184 0 0 0 
0.080028 0.11937 0.26203 0 0 0 
0.12021 0.019037 0.0058351 0 0 0 
0.1196 0.019037 0.0046284 0 0 0 
0.12343 0.019033 0.0027166 0 0 0 
0.12403 0.019032 0.0039233 0 0 0 
0.0029666 0.15475 0.013753 0 0 0 
0.0029356 0.16625 0.013753 0 0 0 
0.066602 0.16642 0.013778 0 0 0 
0.066633 0.15492 0.013777 0 0 0 
0.097059 0.15859 0.053891 0 0 0 
0.095692 0.15709 0.05389 0 0 0 
0.097373 0.15555 0.053891 0 0 0 
0.098739 0.15705 0.053891 0 0 0 
0.22421 0.154 -0.0012694 0 0 0 
0.22315 0.154 0.050257 0 0 0 
0.31127 0.15389 0.052078 0 0 0 
0.31234 0.15389 0.00055127 0 0 0 
0.12875 0.12461 0.63348 0 0 0 
0.12875 0.12312 0.63427 0 0 0 
0.12875 0.12156 0.63134 0 0 0 
0.12875 0.12305 0.63055 0 0 0 
0.22167 0.036693 0.68704 0 0 0 
0.17586 0.03675 0.6897 0 0 0 
0.17115 0.036753 0.60866 0 0 0 
0.21696 0.036696 0.606 0 0 0 
0.081231 0.044584 0.2111 0 0 0 
0.060886 0.04461 0.21012 0 0 0 
0.058394 0.044615 0.26195 0 0 0 
0.07874 0.044589 0.26292 0 0 0 
0.12345 0.10187 0.76604 0 0 0 
0.12343 0.06093 0.76604 0 0 0 
0.17594 0.060908 0.76606 0 0 0 
0.17596 0.10185 0.76606 0 0 0 
0.21653 0.1266 0.68855 0 0 0 
0.17522 0.12665 0.68874 0 0 0 
0.17485 0.12665 0.60834 0 0 0 
0.21615 0.12659 0.60815 0 0 0 
0.31493 0.19014 0.013927 0 0 0 
0.24021 0.16309 0.013896 0 0 0 
0.29243 0.018837 0.013904 0 0 0 
0.36715 0.045886 0.013935 0 0 0 
0.094263 0.15951 0.048669 0 0 0 
0.0013316 0.16656 0.048633 0 0 0 
-0.010196 0.014603 0.048616 0 0 0 
0.082736 0.0075528 0.048652 0 0 0 
0.18732 0.14708 0.20893 0 0 0 
0.1873 0.13174 0.20885 0 0 0 
0.18728 0.13256 0.054096 0 0 0 
0.1873 0.1479 0.054177 0 0 0 
0.0088174 0.00031488 0.020254 0 0 0 
0.0084865 0.00031506 0.014144 0 0 0 
0.022517 0.00029761 0.013384 0 0 0 
0.022847 0.00029743 0.019495 0 0 0 
0.32428 0.16836 0.019392 0 0 0 
0.29508 0.16591 0.019381 0 0 0 
0.30492 0.048695 0.019375 0 0 0 
0.33412 0.051146 0.019387 0 0 0 
0.082951 0.046318 0.26203 0 0 0 
0.061823 0.045152 0.26202 0 0 0 
0.057752 0.11887 0.26202 0 0 0 
0.07888 0.12004 0.26203 0 0 0 
0.13178 0.037609 0.68858 0 0 0 
0.087732 0.036063 0.68856 0 0 0 
0.084559 0.12649 0.68857 0 0 0 
0.12861 0.12804 0.68859 0 0 0 
0.11675 0.14772 0.10486 0 0 0 
0.11674 0.13399 0.10513 0 0 0 
0.11673 0.13288 0.04877 0 0 0 
0.11674 0.14661 0.048501 0 0 0 
0.061295 0.043218 0.21091 0 0 0 
0.058881 0.018021 0.21091 0 0 0 
0.11585 0.012563 0.21093 0 0 0 
0.11826 0.03776 0.21094 0 0 0 
0.062921 0.11327 0.21105 0 0 0 
0.053674 0.14614 0.21105 0 0 0 
0.11196 0.16254 0.21108 0 0 0 
0.12121 0.12967 0.21108 0 0 0 
0.13177 0.13142 0.60829 0 0 0 
0.13175 0.11923 0.60871 0 0 0 
0.13175 0.11762 0.56226 0 0 0 
0.13176 0.12982 0.56184 0 0 0 
0.23018 -0.007421 0.013879 0 0 0 
0.22814 0.018559 0.01388 0 0 0 
0.3242 0.026137 0.013918 0 0 0 
0.32625 0.00015705 0.013917 0 0 0 
0.15352 0.082334 1.0002 0 0 0 
0.14444 0.082345 0.99981 0 0 0 
0.14675 0.082341 0.95091 0 0 0 
0.15583 0.082329 0.95134 0 0 0 
0.06015 0.13228 0.17619 0 0 0 
0.035462 0.13244 0.17618 0 0 0 
0.034811 0.031513 0.17617 0 0 0 
0.0595 0.031354 0.17618 0 0 0 
0.13578 0.036759 0.60796 0 0 0 
0.086708 0.03682 0.60337 0 0 0 
0.078845 0.036833 0.68756 0 0 0 
0.12792 0.036772 0.69214 0 0 0 
0.23214 -0.024056 0.019274 0 0 0 
0.22022 0.021271 0.019273 0 0 0 
0.32369 0.048468 0.019315 0 0 0 
0.3356 0.0031414 0.019316 0 0 0 
0.15698 0.067486 0.87981 0 0 0 
0.13795 0.067509 0.87998 0 0 0 
0.13694 0.067506 0.76614 0 0 0 
0.15597 0.067483 0.76597 0 0 0 
0.024753 0.16625 0.012349 0 0 0 
0.023638 0.16625 0.017924 0 0 0 
0.041901 0.16623 0.021577 0 0 0 
0.043016 0.16622 0.016003 0 0 0 
0.1092 0.10607 0.75681 0 0 0 
0.10908 0.10607 0.7458 0 0 0 
0.19397 0.10597 0.74489 0 0 0 
0.19408 0.10597 0.7559 0 0 0 
8.1949e-05 -0.00029365 0.019435 0 0 0 
1.1288e-05 0.013758 0.019437 0 0 0 
0.10286 0.014275 0.019476 0 0 0 
0.10293 0.00022355 0.019475 0 0 0 
0.23806 0.11923 0.20852 0 0 0 
0.21703 0.11926 0.21225 0 0 0 
0.2263 0.11925 0.26443 0 0 0 
0.24733 0.11922 0.26069 0 0 0 
0.13184 0.13295 0.55591 0 0 0 
0.13183 0.11843 0.556 0 0 0 
0.13181 0.11744 0.40599 0 0 0 
0.13182 0.13196 0.4059 0 0 0 
0.11538 0.15377 0.048634 0 0 0 
0.11511 0.13299 0.048632 0 0 0 
0.18961 0.13201 0.048661 0 0 0 
0.18988 0.15278 0.048663 0 0 0 
0.18721 0.029829 0.20631 0 0 0 
0.1872 0.016917 0.20625 0 0 0 
0.18719 0.017595 0.070231 0 0 0 
0.1872 0.030507 0.070295 0 0 0 
0.27122 0.13128 0.17445 0 0 0 
0.24279 0.13134 0.17444 0 0 0 
0.24257 0.031055 0.17443 0 0 0 
0.271 0.030995 0.17444 0 0 0 
0.20253 0.11413 0.66511 0 0 0 
0.20256 0.14276 0.73205 0 0 0 
0.20249 0.062688 0.7663 0 0 0 
0.20246 0.034055 0.69936 0 0 0 
0.11781 0.012773 0.048619 0 0 0 
0.11729 0.030572 0.04862 0 0 0 
0.18704 0.032619 0.048647 0 0 0 
0.18756 0.014821 0.048646 0 0 0 
0.16149 0.08917 0.88246 0 0 0 
0.16148 0.072868 0.88261 0 0 0 
0.16146 0.071844 0.76878 0 0 0 
0.16148 0.088147 0.76864 0 0 0 
0.19655 0.15994 0.058446 0 0 0 
0.18842 0.15995 0.021817 0 0 0 
0.2306 0.1599 0.012451 0 0 0 
0.23873 0.15989 0.04908 0 0 0 
0.14773 0.076373 0.95527 0 0 0 
0.14216 0.07638 0.95183 0 0 0 
0.14927 0.076371 0.94031 0 0 0 
0.15485 0.076364 0.94375 0 0 0 
0.13349 0.045107 0.41764 0 0 0 
0.13348 0.032217 0.4178 0 0 0 
0.13347 0.031603 0.3695 0 0 0 
0.13348 0.044493 0.36933 0 0 0 
0.069869 0.0048223 0.053774 0 0 0 
0.069668 0.014034 0.053775 0 0 0 
0.10444 0.014794 0.053788 0 0 0 
0.10464 0.0055824 0.053788 0 0 0 
0.21019 0.0043298 0.053896 0 0 0 
0.20997 0.012938 0.053897 0 0 0 
0.2277 0.013387 0.053903 0 0 0 
0.22792 0.0047789 0.053903 0 0 0 
0.084444 0.005598 0.068801 0 0 0 
0.05663 0.0056314 0.037445 0 0 0 
0.10466 0.0055702 -0.0051637 0 0 0 
0.13248 0.0055368 0.026192 0 0 0 
0.15264 0.07449 0.96133 0 0 0 
0.15265 0.082113 0.96276 0 0 0 
0.15265 0.084699 0.94892 0 0 0 
0.15264 0.077076 0.94749 0 0 0 
0.3217 0.064521 0.040829 0 0 0 
0.31402 0.06453 0.041899 0 0 0 
0.31125 0.064533 0.021976 0 0 0 
0.31893 0.064523 0.020907 0 0 0 
0.1335 0.030369 0.60696 0 0 0 
0.13351 0.044492 0.60799 0 0 0 
0.13351 0.047071 0.57282 0 0 0 
0.1335 0.032947 0.57179 0 0 0 
0.13379 0.045538 0.25718 0 0 0 
0.13349 0.033121 0.25718 0 0 0 
0.17047 0.032223 0.25719 0 0 0 
0.17077 0.04464 0.25719 0 0 0 
0.15767 0.092012 0.76917 0 0 0 
0.13924 0.092035 0.7691 0 0 0 
0.13875 0.09204 0.88722 0 0 0 
0.15718 0.092017 0.8873 0 0 0 
0.18916 0.0094993 0.211 0 0 0 
0.18483 0.033514 0.211 0 0 0 
0.23999 0.043458 0.21102 0 0 0 
0.24432 0.019443 0.21102 0 0 0 
0.0066429 0.1685 0.019484 0 0 0 
0.0050422 0.15702 0.019483 0 0 0 
0.033204 0.15309 0.019493 0 0 0 
0.034805 0.16458 0.019495 0 0 0 
0.10231 0.088956 0.7456 0 0 0 
0.090499 0.10197 0.74559 0 0 0 
0.11296 0.12235 0.7456 0 0 0 
0.12477 0.10933 0.74561 0 0 0 
0.15045 0.013176 0.013807 0 0 0 
0.15025 0.00022838 0.013806 0 0 0 
0.21798 -0.00079579 0.013832 0 0 0 
0.21818 0.012151 0.013833 0 0 0 
0.24177 0.044449 0.26392 0 0 0 
0.22218 0.044473 0.26406 0 0 0 
0.22179 0.044471 0.21106 0 0 0 
0.24138 0.044447 0.21091 0 0 0 
0.15477 0.08288 0.94669 0 0 0 
0.14669 0.08289 0.94726 0 0 0 
0.1445 0.082892 0.91622 0 0 0 
0.15258 0.082882 0.91565 0 0 0 
0.2101 0.1452 0.048607 0 0 0 
0.20664 0.1554 0.048606 0 0 0 
0.22446 0.16145 0.048613 0 0 0 
0.22792 0.15125 0.048614 0 0 0 
0.21944 0.13268 0.60817 0 0 0 
0.21075 0.1301 0.60817 0 0 0 
0.21743 0.10762 0.60817 0 0 0 
0.22613 0.11021 0.60817 0 0 0 
0.31948 0.095093 0.037139 0 0 0 
0.30924 0.092787 0.037135 0 0 0 
0.31402 0.071593 0.037135 0 0 0 
0.32426 0.0739 0.037139 0 0 0 
0.11666 0.029695 0.19768 0 0 0 
0.11665 0.015735 0.19746 0 0 0 
0.11663 0.01809 0.048624 0 0 0 
0.11664 0.03205 0.048844 0 0 0 
0.12873 0.12693 0.6841 0 0 0 
0.12873 0.11897 0.68428 0 0 0 
0.12872 0.11813 0.64684 0 0 0 
0.12873 0.12609 0.64666 0 0 0 
0.10919 0.054095 0.76226 0 0 0 
0.10876 0.054095 0.74588 0 0 0 
0.19457 0.053988 0.74364 0 0 0 
0.19499 0.053988 0.76003 0 0 0 
0.11964 0.05823 0.77123 0 0 0 
0.11893 0.05823 0.75538 0 0 0 
0.18797 0.058144 0.75228 0 0 0 
0.18869 0.058144 0.76813 0 0 0 
0.12868 0.039364 0.65231 0 0 0 
0.12869 0.044715 0.65237 0 0 0 
0.12869 0.04483 0.64081 0 0 0 
0.12868 0.039479 0.64075 0 0 0 
0.2116 0.12046 0.68855 0 0 0 
0.2102 0.1198 0.68855 0 0 0 
0.21164 0.11672 0.68855 0 0 0 
0.21304 0.11737 0.68855 0 0 0 
0.13825 0.0004128 0.011821 0 0 0 
0.13743 0.00041406 0.018093 0 0 0 
0.16717 0.00037729 0.021986 0 0 0 
0.16799 0.00037603 0.015714 0 0 0 
0.14571 0.084317 0.97333 0 0 0 
0.14571 0.076161 0.97359 0 0 0 
0.1457 0.074698 0.92677 0 0 0 
0.14571 0.082854 0.92652 0 0 0 
0.13979 0.10463 0.74567 0 0 0 
0.13659 0.10803 0.74567 0 0 0 
0.14216 0.11328 0.74567 0 0 0 
0.14537 0.10988 0.74567 0 0 0 
0.13683 0.087219 0.88857 0 0 0 
0.13681 0.071793 0.88854 0 0 0 
0.1368 0.07202 0.76922 0 0 0 
0.13681 0.087446 0.76925 0 0 0 
0.21319 0.0047941 0.064287 0 0 0 
0.18823 0.0048244 0.045056 0 0 0 
0.21758 0.0047865 0.0069629 0 0 0 
0.24254 0.0047563 0.026194 0 0 0 
0.26677 7.7463e-05 0.013879 0 0 0 
0.26595 7.8527e-05 0.014906 0 0 0 
0.27049 7.3026e-05 0.018557 0 0 0 
0.27131 7.1961e-05 0.01753 0 0 0 
0.12812 0.10188 0.76527 0 0 0 
0.128 0.10188 0.75598 0 0 0 
0.18292 0.10181 0.75529 0 0 0 
0.18304 0.10181 0.76458 0 0 0 
0.12869 0.044072 0.63377 0 0 0 
0.12868 0.037475 0.63359 0 0 0 
0.12868 0.038154 0.60824 0 0 0 
0.12869 0.044752 0.60841 0 0 0 
0.044382 0.00027377 0.014956 0 0 0 
0.04437 0.00027399 0.019562 0 0 0 
0.056304 0.0002592 0.019594 0 0 0 
0.056316 0.00025899 0.014988 0 0 0 
0.17511 0.042106 0.62308 0 0 0 
0.1751 0.03923 0.6245 0 0 0 
0.1751 0.03717 0.62034 0 0 0 
0.1751 0.040046 0.61891 0 0 0 
0.19359 0.010372 0.050928 0 0 0 
0.19359 0.0042293 0.050791 0 0 0 
0.19358 0.0049232 0.019503 0 0 0 
0.19359 0.011066 0.019639 0 0 0 
0.10903 0.022124 0.0083147 0 0 0 
0.10597 0.0066543 0.0083122 0 0 0 
0.13428 0.0010482 0.0083227 0 0 0 
0.13735 0.016518 0.0083252 0 0 0 
0.10598 0.10301 0.74486 0 0 0 
0.10599 0.10356 0.76075 0 0 0 
0.10594 0.058081 0.76234 0 0 0 
0.10594 0.057526 0.74645 0 0 0 
0.10675 0.084181 0.74571 0 0 0 
0.095144 0.082509 0.74571 0 0 0 
0.099789 0.050273 0.74571 0 0 0 
0.11139 0.051946 0.74571 0 0 0 
0.21846 0.16045 0.053883 0 0 0 
0.21818 0.15237 0.053883 0 0 0 
0.23113 0.15191 0.053888 0 0 0 
0.23142 0.15999 0.053888 0 0 0 
0.23633 0.00010647 0.01851 0 0 0 
0.23594 0.00010682 0.014709 0 0 0 
0.24962 8.9783e-05 0.013285 0 0 0 
0.25001 8.9434e-05 0.017086 0 0 0 
0.10568 -0.00021671 0.019487 0 0 0 
0.10564 0.012538 0.019488 0 0 0 
0.20419 0.012891 0.019526 0 0 0 
0.20424 0.00013583 0.019525 0 0 0 
0.13609 0.15414 0.019261 0 0 0 
0.13607 0.16612 0.019262 0 0 0 
0.29227 0.1664 0.019322 0 0 0 
0.29229 0.15443 0.019321 0 0 0 
0.16529 0.16613 0.019835 0 0 0 
0.1649 0.16613 0.014799 0 0 0 
0.17532 0.16612 0.013984 0 0 0 
0.17571 0.16612 0.01902 0 0 0 
0.23301 0.15874 0.022385 0 0 0 
0.23301 0.15926 0.023241 0 0 0 
0.23301 0.15594 0.025255 0 0 0 
0.23301 0.15542 0.024399 0 0 0 
0.19242 0.107 0.75596 0 0 0 
0.18423 0.10253 0.75596 0 0 0 
0.19181 0.088646 0.75596 0 0 0 
0.20001 0.093124 0.75597 0 0 0 
0.17517 0.12612 0.68854 0 0 0 
0.17516 0.11785 0.68867 0 0 0 
0.17516 0.11734 0.65679 0 0 0 
0.17517 0.12561 0.65665 0 0 0 
0.10673 0.0036454 0.050905 0 0 0 
0.10674 0.013646 0.051497 0 0 0 
0.10673 0.015522 0.019829 0 0 0 
0.10672 0.0055219 0.019236 0 0 0 
0.19916 0.060096 0.76061 0 0 0 
0.17681 0.058539 0.7606 0 0 0 
0.17367 0.10357 0.76061 0 0 0 
0.19602 0.10513 0.76062 0 0 0 
0.18667 0.12753 0.68857 0 0 0 
0.18441 0.11853 0.68856 0 0 0 
0.2025 0.11399 0.68857 0 0 0 
0.20476 0.12299 0.68857 0 0 0 
0.22068 0.099892 0.60833 0 0 0 
0.21859 0.10004 0.60833 0 0 0 
0.21801 0.091621 0.60832 0 0 0 
0.22009 0.091475 0.60833 0 0 0 
0.15222 0.074956 0.91909 0 0 0 
0.15223 0.084623 0.9193 0 0 0 
0.15222 0.085253 0.88943 0 0 0 
0.15222 0.075585 0.88923 0 0 0 
0.13354 0.032513 0.6083 0 0 0 
0.13111 0.032432 0.6083 0 0 0 
0.1309 0.038683 0.6083 0 0 0 
0.13333 0.038764 0.6083 0 0 0 
0.24161 0.046983 0.26203 0 0 0 
0.22226 0.046973 0.26202 0 0 0 
0.22222 0.11925 0.26202 0 0 0 
0.24157 0.11926 0.26203 0 0 0 
0.17511 0.04604 0.65839 0 0 0 
0.1751 0.038776 0.65888 0 0 0 
0.1751 0.03697 0.63205 0 0 0 
0.1751 0.044234 0.63156 0 0 0 
0.17591 0.065042 0.75736 0 0 0 
0.17591 0.068025 0.76334 0 0 0 
0.17591 0.061574 0.76656 0 0 0 
0.1759 0.058591 0.76057 0 0 0 
0.081673 0.15507 0.053897 0 0 0 
0.080486 0.15988 0.053897 0 0 0 
0.087771 0.16168 0.0539 0 0 0 
0.088958 0.15687 0.0539 0 0 0 
0.20218 0.15396 0.048603 0 0 0 
0.19973 0.15311 0.048602 0 0 0 
0.20187 0.147 0.048602 0 0 0 
0.20432 0.14786 0.048603 0 0 0 
0.21343 -0.00036698 0.019581 0 0 0 
0.21147 0.0031076 0.01958 0 0 0 
0.21964 0.0077192 0.019584 0 0 0 
0.2216 0.0042447 0.019584 0 0 0 
0.11266 0.16617 0.019751 0 0 0 
0.11255 0.16617 0.013945 0 0 0 
0.13094 0.16614 0.013609 0 0 0 
0.13105 0.16614 0.019415 0 0 0 
0.062655 0.1194 0.22248 0 0 0 
0.062348 0.1194 0.22078 0 0 0 
0.066243 0.1194 0.22008 0 0 0 
0.066551 0.1194 0.22177 0 0 0 
0.067102 0.1554 0.035561 0 0 0 
0.067105 0.15915 0.035378 0 0 0 
0.067104 0.15886 0.029473 0 0 0 
0.067101 0.15511 0.029657 0 0 0 
0.13347 0.034793 0.56923 0 0 0 
0.13348 0.043222 0.56862 0 0 0 
0.13348 0.042233 0.55492 0 0 0 
0.13347 0.033804 0.55553 0 0 0 
0.222 0.058545 0.6083 0 0 0 
0.21806 0.057783 0.60829 0 0 0 
0.2169 0.063788 0.60829 0 0 0 
0.22084 0.064549 0.6083 0 0 0 
0.17894 0.1661 0.016163 0 0 0 
0.17827 0.1661 0.017977 0 0 0 
0.18182 0.1661 0.019293 0 0 0 
0.1825 0.1661 0.017479 0 0 0 
0.18118 0.00044271 0.013415 0 0 0 
0.18017 0.00044423 0.020286 0 0 0 
0.19751 0.0004228 0.022859 0 0 0 
0.19853 0.00042127 0.015988 0 0 0 
0.17518 0.12474 0.63225 0 0 0 
0.17517 0.11815 0.63255 0 0 0 
0.17517 0.11727 0.61299 0 0 0 
0.17518 0.12386 0.61269 0 0 0 
0.17517 0.11766 0.65408 0 0 0 
0.17517 0.12519 0.65396 0 0 0 
0.17517 0.12497 0.64027 0 0 0 
0.17517 0.11745 0.64039 0 0 0 
0.12868 0.044239 0.65661 0 0 0 
0.12868 0.044658 0.66393 0 0 0 
0.12867 0.037095 0.66436 0 0 0 
0.12867 0.036676 0.65704 0 0 0 
0.19597 0.104 0.74299 0 0 0 
0.19597 0.10398 0.75605 0 0 0 
0.19592 0.053874 0.75594 0 0 0 
0.19592 0.053902 0.74288 0 0 0 
0.10582 0.15745 0.030459 0 0 0 
0.10582 0.15874 0.031996 0 0 0 
0.10581 0.15595 0.034343 0 0 0 
0.10581 0.15466 0.032806 0 0 0 
0.10711 0.16606 0.01955 0 0 0 
0.10678 0.15577 0.019549 0 0 0 
0.12711 0.15512 0.019557 0 0 0 
0.12744 0.16541 0.019558 0 0 0 
0.099523 0.16618 0.019642 0 0 0 
0.099435 0.16618 0.015106 0 0 0 
0.10835 0.16617 0.014933 0 0 0 
0.10843 0.16617 0.019469 0 0 0 
0.093951 0.0367 0.60831 0 0 0 
0.093407 0.031954 0.6083 0 0 0 
0.10518 0.030607 0.60831 0 0 0 
0.10572 0.035352 0.60831 0 0 0 
0.068131 0.014287 0.044758 0 0 0 
0.068125 0.0076166 0.045804 0 0 0 
0.068119 0.0039071 0.022168 0 0 0 
0.068125 0.010578 0.021121 0 0 0 
0.058333 0.16622 0.020105 0 0 0 
0.05472 0.16622 0.016685 0 0 0 
0.05897 0.16622 0.012195 0 0 0 
0.062583 0.16621 0.015615 0 0 0 
0.22098 0.040547 0.60832 0 0 0 
0.2164 0.041264 0.60832 0 0 0 
0.21525 0.033924 0.60832 0 0 0 
0.21983 0.033207 0.60832 0 0 0 
0.083406 0.11785 0.60831 0 0 0 
0.080158 0.11635 0.60831 0 0 0 
0.083005 0.11019 0.60831 0 0 0 
0.086253 0.11169 0.60831 0 0 0 
0.091922 0.16652 0.019562 0 0 0 
0.09148 0.16201 0.019562 0 0 0 
0.099045 0.16127 0.019564 0 0 0 
0.099487 0.16578 0.019565 0 0 0 
0.21726 0.00012202 0.020446 0 0 0 
0.21587 0.00012362 0.017005 0 0 0 
0.2278 0.00010862 0.012181 0 0 0 
0.22919 0.00010703 0.015623 0 0 0 
0.14552 0.089224 0.92093 0 0 0 
0.14551 0.071051 0.92153 0 0 0 
0.1455 0.069841 0.88486 0 0 0 
0.14552 0.088014 0.88426 0 0 0 
0.18032 0.11417 0.74566 0 0 0 
0.17601 0.11059 0.74566 0 0 0 
0.18072 0.10493 0.74566 0 0 0 
0.18503 0.10851 0.74566 0 0 0 
0.31372 0.076259 0.053693 0 0 0 
0.30842 0.070664 0.053691 0 0 0 
0.31578 0.063709 0.053693 0 0 0 
0.32107 0.069304 0.053696 0 0 0 
0.10583 0.15993 0.01792 0 0 0 
0.10583 0.16255 0.019745 0 0 0 
0.10583 0.15737 0.027197 0 0 0 
0.10582 0.15475 0.025372 0 0 0 
0.12875 0.11795 0.62666 0 0 0 
0.12876 0.12624 0.62659 0 0 0 
0.12875 0.1261 0.60824 0 0 0 
0.12875 0.1178 0.6083 0 0 0 
0.03995 0.16696 0.019405 0 0 0 
0.039664 0.15582 0.019404 0 0 0 
0.070505 0.15503 0.019415 0 0 0 
0.070791 0.16617 0.019416 0 0 0 
0.32447 0.05624 0.011959 0 0 0 
0.32447 0.05826 0.018203 0 0 0 
0.32446 0.048831 0.021253 0 0 0 
0.32446 0.046811 0.01501 0 0 0 
0.19543 0.010694 0.0539 0 0 0 
0.19528 0.0048392 0.053899 0 0 0 
0.20588 0.0045796 0.053903 0 0 0 
0.20602 0.010434 0.053904 0 0 0 
0.1526 0.075441 0.94081 0 0 0 
0.1526 0.081346 0.94281 0 0 0 
0.1526 0.084306 0.93408 0 0 0 
0.1526 0.078401 0.93207 0 0 0 
0.10511 0.132 0.6083 0 0 0 
0.10452 0.12878 0.6083 0 0 0 
0.11233 0.12737 0.60831 0 0 0 
0.11292 0.13059 0.60831 0 0 0 
0.1751 0.042028 0.68509 0 0 0 
0.17509 0.03886 0.68575 0 0 0 
0.17509 0.037024 0.67695 0 0 0 
0.17509 0.040192 0.67629 0 0 0 
0.32053 0.10177 0.019552 0 0 0 
0.31477 0.10177 0.019549 0 0 0 
0.31477 0.10177 0.035185 0 0 0 
0.32052 0.10177 0.035187 0 0 0 
0.13708 0.16613 0.020964 0 0 0 
0.1363 0.16613 0.014878 0 0 0 
0.1498 0.16612 0.013163 0 0 0 
0.15058 0.16611 0.019248 0 0 0 
0.13236 0.054287 0.74566 0 0 0 
0.13188 0.05051 0.74566 0 0 0 
0.13813 0.049715 0.74566 0 0 0 
0.13861 0.053492 0.74566 0 0 0 
0.18719 0.031641 0.060452 0 0 0 
0.18718 0.024551 0.064391 0 0 0 
0.18717 0.019112 0.054601 0 0 0 
0.18718 0.026202 0.050662 0 0 0 
0.15338 0.076112 0.99981 0 0 0 
0.14648 0.076121 1.0001 0 0 0 
0.1454 0.076121 0.97503 0 0 0 
0.1523 0.076113 0.97473 0 0 0 
0.23336 0.0048276 0.045571 0 0 0 
0.22967 0.0048321 0.044676 0 0 0 
0.22757 0.0048351 0.053326 0 0 0 
0.23127 0.0048305 0.054222 0 0 0 
0.2323 0.012046 0.052122 0 0 0 
0.23229 0.0059732 0.052653 0 0 0 
0.23229 0.0040587 0.030771 0 0 0 
0.23229 0.010131 0.030239 0 0 0 
0.20717 0.0001614 0.017996 0 0 0 
0.20676 0.00016193 0.018682 0 0 0 
0.20913 0.00015903 0.020084 0 0 0 
0.20954 0.00015851 0.019398 0 0 0 
0.10582 0.15926 0.044447 0 0 0 
0.10582 0.15682 0.045218 0 0 0 
0.10581 0.1547 0.03853 0 0 0 
0.10582 0.15714 0.037758 0 0 0 
0.11325 0.013784 0.0045524 0 0 0 
0.11325 0.016772 0.0054782 0 0 0 
0.11325 0.018207 0.00084588 0 0 0 
0.11325 0.01522 -7.9947e-05 0 0 0 
0.20331 0.0047878 0.026132 0 0 0 
0.20022 0.0047918 0.029197 0 0 0 
0.20534 0.0047856 0.034371 0 0 0 
0.20844 0.0047816 0.031306 0 0 0 
4 0 1 2 3
4 4 5 6 7
4 8 9 10 11
4 12 13 14 15
4 16 17 18 19
4 20 21 22 23
4 24 25 26 27
4 28 29 30 31
4 32 33 34 35
4 36 37 38 39
4 40 41 42 43
4 44 45 46 47
4 48 49 50 51
4 52 53 54 55
4 56 57 58 59
4 60 61 62 63
4 64 65 66 67
4 68 69 70 71
4 72 73 74 75
4 76 77 78 79
4 80 81 82 83
4 84 85 86 87
4 88 89 90 91
4 92 93 94 95
4 96 97 98 99
4 100 101 102 103
4 104 105 106 107
4 108 109 110 111
4 112 113 114 115
4 116 117 118 119
4 120 121 122 123
4 124 125 126 127
4 128 129 130 131
4 132 133 134 135
4 136 137 138 139
4 140 141 142 143
4 144 145 146 147
4 148 149 150 151
4 152 153 154 155
4 156 157 158 159
4 160 161 162 163
4 164 165 166 167
4 168 169 170 171
4 172 173 174 175
4 176 177 178 179
4 180 181 182 183
4 184 185 186 187
4 188 189 190 191
4 192 193 194 195
4 196 197 198 199
4 200 201 202 203
4 204 205 206 207
4 208 209 210 211
4 212 213 214 215
4 216 217 218 219
4 220 221 222 223
4 224 225 226 227
4 228 229 230 231
4 232 233 234 235
4 236 237 238 239
4 240 241 242 243
4 244 245 246 247
4 248 249 250 251
4 252 253 254 255
4 256 257 258 259
4 260 261 262 263
4 264 265 266 267
4 268 269 270 271
4 272 273 274 275
4 276 277 278 279
4 280 281 282 283
4 284 285 286 287
4 288 289 290 291
4 292 293 294 295
4 296 297 298 299
4 300 301 302 303
4 304 305 306 307
4 308 309 310 311
4 312 313 314 315
4 316 317 318 319
4 320 321 322 323
4 324 325 326 327
4 328 329 330 331
4 332 333 334 335
4 336 337 338 339
4 340 341 342 343
4 344 345 346 347
4 348 349 350 351
4 352 353 354 355
4 356 357 358 359
4 360 361 362 363
4 364 365 366 367
4 368 369 370 371
4 372 373 374 375
4 376 377 378 379
4 380 381 382 383
4 384 385 386 387
4 388 389 390 391
4 392 393 394 395
4 396 397 398 399
4 400 401 402 403
4 404 405 406 407
4 408 409 410 411
4 412 413 414 415
4 416 417 418 419
4 420 421 422 423
4 424 425 426 427
4 428 429 430 431
4 432 433 434 435
4 436 437 438 439
4 440 441 442 443
4 444 445 446 447
4 448 449 450 451
4 452 453 454 455
4 456 457 458 459
4 460 461 462 463
4 464 465 466 467
4 468 469 470 471
4 472 473 474 475
4 476 477 478 479
4 480 481 482 483
4 484 485 486 487
4 488 489 490 491
4 492 493 494 495
4 496 497 498 499
4 500 501 502 503
4 504 505 506 507
4 508 509 510 511
4 512 513 514 515
4 516 517 518 519
4 520 521 522 523
4 524 525 526 527
4 528 529 530 531
4 532 533 534 535
4 536 537 538 539
4 540 541 542 543
4 544 545 546 547
4 548 549 550 551
4 552 553 554 555
4 556 557 558 559
4 560 561 562 563
4 564 565 566 567
4 568 569 570 571
4 572 573 574 575
4 576 577 578 579
4 580 581 582 583
4 584 585 586 587
4 588 589 590 591
4 592 593 594 595
4 596 597 598 599
4 600 601 602 603
4 604 605 606 607
4 608 609 610 611
4 612 613 614 615
4 616 617 618 619
4 620 621 622 623
4 624 625 626 627
4 628 629 630 631
4 632 633 634 635
4 636 637 638 639
4 640 641 642 643
4 644 645 646 647
4 648 649 650 651
4 652 653 654 655
4 656 657 658 659
4 660 661 662 663
4 664 665 666 667
4 668 669 670 671
4 672 673 674 675
4 676 677 678 679
4 680 681 682 683
4 684 685 686 687
4 688 689 690 691
4 692 693 694 695
4 696 697 698 699
4 700 701 702 703
4 704 705 706 707
4 708 709 710 711
4 712 713 714 715
4 716 717 718 719
4 720 721 722 723
4 724 725 726 727
4 728 729 730 731
4 732 733 734 735
4 736 737 738 739
4 740 741 742 743
