ply
format ascii 1.0
comment PCL generated
element vertex 632
property float x
property float y
property float z
property uchar red
property uchar green
property uchar blue
element face 158
property list uchar int vertex_indices
end_header
0.31988 0.1539 0.048606 0 0 0 
0.31988 0.01252 0.048588 0 0 0 
0.23515 0.01252 0.048599 0 0 0 
0.23515 0.1539 0.048618 0 0 0 
0.080543 0.13243 0.60833 0 0 0 
0.08049 0.13243 0.21101 0 0 0 
0.080401 0.022184 0.21101 0 0 0 
0.080453 0.022184 0.60833 0 0 0 
0.31991 0.10844 0.055133 0 0 0 
0.31992 0.10844 0.019528 0 0 0 
0.31989 0.063506 0.019528 0 0 0 
0.31988 0.063506 0.055133 0 0 0 
0.22181 0.030999 0.60833 0 0 0 
0.22182 0.031071 0.048575 0 0 0 
0.078715 0.031187 0.048575 0 0 0 
0.078715 0.031115 0.60833 0 0 0 
0.1219 0.14726 0.21103 0 0 0 
0.1219 0.14728 0.048576 0 0 0 
0.057249 0.14734 0.048576 0 0 0 
0.057249 0.14731 0.21103 0 0 0 
0.00017415 0.16629 0.048634 0 0 0 
0.00016771 0.16629 2.3872e-05 0 0 0 
3.5327e-05 0.0030211 2.3872e-05 0 0 0 
4.1765e-05 0.0030211 0.048634 0 0 0 
0.24275 0.14715 0.21105 0 0 0 
0.24275 0.14717 0.048219 0 0 0 
0.18532 0.14722 0.048219 0 0 0 
0.18532 0.1472 0.21105 0 0 0 
0.22525 0.13225 0.60836 0 0 0 
0.22525 0.13232 0.048584 0 0 0 
0.077784 0.13244 0.048584 0 0 0 
0.077784 0.13237 0.60836 0 0 0 
0.17514 0.045604 0.68861 0 0 0 
0.17514 0.04566 0.25709 0 0 0 
0.12615 0.0457 0.25709 0 0 0 
0.12615 0.045644 0.68861 0 0 0 
0.22191 0.1323 0.60924 0 0 0 
0.22186 0.1323 0.21365 0 0 0 
0.22177 0.028882 0.21365 0 0 0 
0.22183 0.028882 0.60924 0 0 0 
0.13348 0.045764 0.54652 0 0 0 
0.13346 0.045764 0.42068 0 0 0 
0.13345 0.031577 0.42068 0 0 0 
0.13347 0.031577 0.54652 0 0 0 
0.03467 0.14031 0.1916 0 0 0 
0.034651 0.14031 0.043092 0 0 0 
0.034549 0.015246 0.043092 0 0 0 
0.034569 0.015246 0.1916 0 0 0 
0.0019569 0.0128 0.013722 0 0 0 
0.0019569 0.00016591 0.01372 0 0 0 
0.147 0.00016591 0.013701 0 0 0 
0.147 0.0128 0.013703 0 0 0 
0.1335 0.045718 0.41767 0 0 0 
0.13348 0.045719 0.25766 0 0 0 
0.13347 0.031659 0.25766 0 0 0 
0.13349 0.031659 0.41767 0 0 0 
0.13184 0.12668 0.68859 0 0 0 
0.13184 0.12669 0.6037 0 0 0 
0.08127 0.12674 0.6037 0 0 0 
0.08127 0.12672 0.68859 0 0 0 
0.19982 0.048706 0.74569 0 0 0 
0.19982 0.048713 0.68855 0 0 0 
0.098143 0.048795 0.68855 0 0 0 
0.098143 0.048788 0.74569 0 0 0 
0.21642 0.12803 0.68886 0 0 0 
0.21641 0.12803 0.60457 0 0 0 
0.21634 0.035866 0.60457 0 0 0 
0.21635 0.035866 0.68886 0 0 0 
0.27115 0.13695 0.17447 0 0 0 
0.27113 0.13695 0.04866 0 0 0 
0.27104 0.030954 0.04866 0 0 0 
0.27106 0.030954 0.17447 0 0 0 
0.17148 0.13113 0.44851 0 0 0 
0.17147 0.13113 0.39061 0 0 0 
0.17146 0.11844 0.39061 0 0 0 
0.17147 0.11844 0.44851 0 0 0 
0.27104 0.030987 0.17361 0 0 0 
0.27104 0.031003 0.049969 0 0 0 
0.24347 0.031025 0.049969 0 0 0 
0.24347 0.031009 0.17361 0 0 0 
0.24248 0.14723 0.21102 0 0 0 
0.24248 0.12081 0.21102 0 0 0 
0.18727 0.12081 0.21103 0 0 0 
0.18727 0.14723 0.21103 0 0 0 
0.24275 0.15247 0.26204 0 0 0 
0.24273 0.15247 0.048659 0 0 0 
0.24262 0.017497 0.048659 0 0 0 
0.24264 0.017497 0.26204 0 0 0 
0.17512 0.12887 0.68858 0 0 0 
0.17512 0.036695 0.68857 0 0 0 
0.22142 0.036695 0.68857 0 0 0 
0.22142 0.12887 0.68858 0 0 0 
0.13386 0.078703 0.88867 0 0 0 
0.13386 0.078703 0.76601 0 0 0 
0.14942 0.063146 0.76601 0 0 0 
0.14942 0.063146 0.88867 0 0 0 
0.22347 0.16628 0.013917 0 0 0 
0.22347 0.15398 0.013915 0 0 0 
0.0029385 0.15398 0.013945 0 0 0 
0.0029385 0.16628 0.013946 0 0 0 
0.20824 0.11463 0.74663 0 0 0 
0.20824 0.11464 0.68462 0 0 0 
0.10171 0.11472 0.68462 0 0 0 
0.10171 0.11472 0.74663 0 0 0 
0.18509 0.11765 0.6886 0 0 0 
0.18509 0.11771 0.25742 0 0 0 
0.12872 0.11776 0.25742 0 0 0 
0.12872 0.1177 0.6886 0 0 0 
0.24261 0.017547 0.21106 0 0 0 
0.24261 0.017568 0.047548 0 0 0 
0.18507 0.017615 0.047548 0 0 0 
0.18507 0.017594 0.21106 0 0 0 
0.31692 0.012558 0.055178 0 0 0 
0.31692 0.012566 6.9533e-06 0 0 0 
0.00092229 0.012822 6.9533e-06 0 0 0 
0.00092229 0.012815 0.055178 0 0 0 
0.05972 0.13242 0.17622 0 0 0 
0.05972 0.13243 0.050267 0 0 0 
0.034654 0.13246 0.050267 0 0 0 
0.034654 0.13244 0.17622 0 0 0 
0.10898 0.1019 0.76066 0 0 0 
0.10901 0.058089 0.75963 0 0 0 
0.12602 0.058089 0.76022 0 0 0 
0.12599 0.1019 0.76125 0 0 0 
0.059629 0.031392 0.17622 0 0 0 
0.059629 0.031408 0.051367 0 0 0 
0.034539 0.031429 0.051367 0 0 0 
0.034539 0.031413 0.17622 0 0 0 
0.086212 0.12985 0.6886 0 0 0 
0.086202 0.12985 0.60829 0 0 0 
0.086124 0.033963 0.60829 0 0 0 
0.086135 0.033963 0.6886 0 0 0 
0.1186 0.017632 0.21105 0 0 0 
0.1186 0.017653 0.048576 0 0 0 
0.059556 0.017701 0.048576 0 0 0 
0.059556 0.01768 0.21105 0 0 0 
0.1638 0.08057 0.88831 0 0 0 
0.1638 0.080569 0.80103 0 0 0 
0.15026 0.094965 0.80103 0 0 0 
0.15026 0.094965 0.88831 0 0 0 
0.063089 0.16043 0.054964 0 0 0 
0.063089 0.16044 0.013693 0 0 0 
0.11978 0.16039 0.013693 0 0 0 
0.11978 0.16039 0.054964 0 0 0 
0.0015856 0.15425 0.053935 0 0 0 
0.0015856 0.15426 5.8163e-05 0 0 0 
0.31221 0.15393 5.8163e-05 0 0 0 
0.31221 0.15392 0.053935 0 0 0 
0.059748 0.1626 0.26801 0 0 0 
0.059717 0.1626 0.03824 0 0 0 
0.0596 0.017754 0.03824 0 0 0 
0.05963 0.017754 0.26801 0 0 0 
0.0991 0.11213 0.75768 0 0 0 
0.09909 0.11213 0.6802 0 0 0 
0.099035 0.043969 0.6802 0 0 0 
0.099045 0.043969 0.75768 0 0 0 
0.31167 0.15247 0.048584 0 0 0 
0.31166 0.15247 2.3801e-05 0 0 0 
0.31155 0.010738 2.3801e-05 0 0 0 
0.31155 0.010738 0.048584 0 0 0 
0.17058 0.045734 0.41608 0 0 0 
0.1706 0.045734 0.26106 0 0 0 
0.17056 0.031995 0.26106 0 0 0 
0.17054 0.031995 0.41608 0 0 0 
0.27112 0.13222 0.17447 0 0 0 
0.27112 0.13224 0.049412 0 0 0 
0.24391 0.13226 0.049412 0 0 0 
0.24391 0.13225 0.17447 0 0 0 
0.12343 0.019017 0.0027165 0 0 0 
0.1196 0.019011 0.0027166 0 0 0 
0.1196 0.019045 0.0049927 0 0 0 
0.12343 0.01905 0.0049927 0 0 0 
0.13018 0.076975 0.85267 0 0 0 
0.13018 0.076974 0.76605 0 0 0 
0.14807 0.095094 0.76605 0 0 0 
0.14807 0.095096 0.85267 0 0 0 
0.13181 0.1297 0.25744 0 0 0 
0.13181 0.11772 0.25744 0 0 0 
0.16896 0.11772 0.25743 0 0 0 
0.16896 0.1297 0.25743 0 0 0 
0.17148 0.13214 0.56991 0 0 0 
0.17147 0.13214 0.52762 0 0 0 
0.17146 0.11857 0.52762 0 0 0 
0.17146 0.11857 0.56991 0 0 0 
0.17507 0.036728 0.68859 0 0 0 
0.17507 0.036738 0.6083 0 0 0 
0.21891 0.036703 0.6083 0 0 0 
0.21891 0.036692 0.68859 0 0 0 
0.079682 0.044589 0.26205 0 0 0 
0.079682 0.044595 0.211 0 0 0 
0.059587 0.044612 0.211 0 0 0 
0.059587 0.044605 0.26205 0 0 0 
0.17595 0.10186 0.766 0 0 0 
0.17595 0.058219 0.76599 0 0 0 
0.12344 0.058219 0.766 0 0 0 
0.12344 0.10186 0.76601 0 0 0 
0.21592 0.12661 0.68859 0 0 0 
0.21592 0.12662 0.6083 0 0 0 
0.175 0.12665 0.6083 0 0 0 
0.175 0.12664 0.68859 0 0 0 
0.071444 0.015898 0.051191 0 0 0 
0.071351 0.014226 0.019427 0 0 0 
0.099544 0.012657 0.019427 0 0 0 
0.099637 0.014329 0.051191 0 0 0 
0.23466 0.16607 0.013969 0 0 0 
0.23466 1.1168e-05 0.013948 0 0 0 
0.32459 1.1168e-05 0.013936 0 0 0 
0.32459 0.16607 0.013957 0 0 0 
0.00013478 0.15418 0.048618 0 0 0 
0.00013477 0.013417 0.0486 0 0 0 
0.064976 0.013417 0.048591 0 0 0 
0.064976 0.15418 0.048609 0 0 0 
0.18729 0.14701 0.17218 0 0 0 
0.1873 0.14701 0.054143 0 0 0 
0.18729 0.13236 0.054143 0 0 0 
0.18728 0.13236 0.17218 0 0 0 
0.080497 0.11681 0.26207 0 0 0 
0.080497 0.047291 0.262 0 0 0 
0.059611 0.047291 0.26197 0 0 0 
0.059611 0.11681 0.26203 0 0 0 
0.12878 0.12674 0.68858 0 0 0 
0.12878 0.036786 0.68857 0 0 0 
0.082251 0.036786 0.68858 0 0 0 
0.082251 0.12674 0.68859 0 0 0 
0.11676 0.14726 0.10507 0 0 0 
0.11676 0.14726 0.048581 0 0 0 
0.11674 0.1331 0.048581 0 0 0 
0.11675 0.1331 0.10507 0 0 0 
0.11664 0.041869 0.21102 0 0 0 
0.11664 0.017635 0.21102 0 0 0 
0.060852 0.017635 0.21102 0 0 0 
0.060852 0.041869 0.21103 0 0 0 
0.096461 0.14726 0.21103 0 0 0 
0.096461 0.13389 0.21103 0 0 0 
0.12077 0.13389 0.21102 0 0 0 
0.12077 0.14726 0.21102 0 0 0 
0.13516 0.036768 0.68859 0 0 0 
0.13516 0.036779 0.60448 0 0 0 
0.082412 0.036822 0.60448 0 0 0 
0.082412 0.036811 0.68859 0 0 0 
0.13187 0.13544 0.40164 0 0 0 
0.13185 0.13544 0.26494 0 0 0 
0.13184 0.11777 0.26494 0 0 0 
0.13186 0.11777 0.40164 0 0 0 
0.15329 0.083207 1 0 0 0 
0.15329 0.083214 0.95098 0 0 0 
0.14684 0.083219 0.95098 0 0 0 
0.14684 0.083212 1 0 0 0 
0.035197 0.12979 0.1762 0 0 0 
0.035197 0.033838 0.17619 0 0 0 
0.059683 0.033838 0.17618 0 0 0 
0.059683 0.12979 0.1762 0 0 0 
0.059711 0.14777 0.21102 0 0 0 
0.059711 0.11572 0.21102 0 0 0 
0.094365 0.11572 0.21102 0 0 0 
0.094365 0.14777 0.21102 0 0 0 
0.22571 0.066012 0.019394 0 0 0 
0.22571 1.2329e-05 0.019415 0 0 0 
0.32449 1.2329e-05 0.019304 0 0 0 
0.32449 0.066012 0.019283 0 0 0 
0.099447 0.05342 0.71294 0 0 0 
0.099447 0.05342 0.69972 0 0 0 
0.10353 0.049352 0.69972 0 0 0 
0.10353 0.049352 0.71294 0 0 0 
0.15019 0.064824 0.88004 0 0 0 
0.15017 0.064839 0.76601 0 0 0 
0.16587 0.079912 0.76601 0 0 0 
0.16589 0.079896 0.88004 0 0 0 
0.20178 0.052994 0.71128 0 0 0 
0.20178 0.052995 0.70117 0 0 0 
0.19854 0.049889 0.70117 0 0 0 
0.19854 0.049888 0.71128 0 0 0 
0.19293 0.10604 0.75599 0 0 0 
0.19293 0.10604 0.74562 0 0 0 
0.10914 0.10611 0.74562 0 0 0 
0.10914 0.10611 0.75599 0 0 0 
0.22185 0.11924 0.26142 0 0 0 
0.22185 0.11925 0.21104 0 0 0 
0.2427 0.11923 0.21104 0 0 0 
0.2427 0.11923 0.26142 0 0 0 
0.13184 0.13204 0.55598 0 0 0 
0.13182 0.13204 0.40592 0 0 0 
0.13181 0.11788 0.40592 0 0 0 
0.13183 0.11788 0.55598 0 0 0 
0.1872 0.030747 0.19262 0 0 0 
0.18719 0.030747 0.066786 0 0 0 
0.18718 0.01858 0.066786 0 0 0 
0.18719 0.01858 0.19262 0 0 0 
0.10583 0.1604 0.048603 0 0 0 
0.10583 0.1473 0.048601 0 0 0 
0.07067 0.1473 0.048606 0 0 0 
0.07067 0.1604 0.048608 0 0 0 
0.27111 0.13228 0.17445 0 0 0 
0.27111 0.031001 0.17444 0 0 0 
0.2432 0.031001 0.17444 0 0 0 
0.2432 0.13228 0.17445 0 0 0 
0.20255 0.13579 0.74568 0 0 0 
0.20254 0.13579 0.68337 0 0 0 
0.20247 0.048057 0.68337 0 0 0 
0.20248 0.048057 0.74568 0 0 0 
0.059658 0.11939 0.26204 0 0 0 
0.059658 0.11941 0.21424 0 0 0 
0.080197 0.11939 0.21424 0 0 0 
0.080197 0.11937 0.26204 0 0 0 
0.11367 0.031101 0.048672 0 0 0 
0.11367 0.012868 0.04867 0 0 0 
0.1872 0.012868 0.04866 0 0 0 
0.1872 0.031101 0.048663 0 0 0 
0.17056 0.045741 0.56632 0 0 0 
0.17054 0.045741 0.42304 0 0 0 
0.17053 0.031884 0.42304 0 0 0 
0.17055 0.031884 0.56632 0 0 0 
0.24301 0.16009 0.053932 0 0 0 
0.24301 0.1601 0.013682 0 0 0 
0.19392 0.16014 0.013682 0 0 0 
0.19392 0.16013 0.053932 0 0 0 
0.13381 0.08132 0.88053 0 0 0 
0.1338 0.081324 0.85153 0 0 0 
0.14797 0.095241 0.85153 0 0 0 
0.14797 0.095238 0.88053 0 0 0 
0.0698 0.01412 0.053905 0 0 0 
0.0698 0.0055674 0.053904 0 0 0 
0.10452 0.0055674 0.053899 0 0 0 
0.10452 0.01412 0.0539 0 0 0 
0.17148 0.13218 0.38727 0 0 0 
0.17146 0.13218 0.25741 0 0 0 
0.17145 0.11776 0.25741 0 0 0 
0.17147 0.11776 0.38727 0 0 0 
0.067989 0.0056121 0.052933 0 0 0 
0.067989 0.0056164 0.019529 0 0 0 
0.10958 0.0055827 0.019529 0 0 0 
0.10958 0.0055784 0.052933 0 0 0 
0.12562 0.152 0.048612 0 0 0 
0.12562 0.1325 0.048609 0 0 0 
0.18987 0.1325 0.048601 0 0 0 
0.18987 0.152 0.048603 0 0 0 
0.13346 0.044662 0.60831 0 0 0 
0.13346 0.044662 0.55488 0 0 0 
0.13345 0.032429 0.55488 0 0 0 
0.13345 0.032429 0.60831 0 0 0 
0.23546 0.004755 0.064241 0 0 0 
0.23546 0.0047616 0.01369 0 0 0 
0.18984 0.0047985 0.01369 0 0 0 
0.18984 0.004792 0.064241 0 0 0 
0.17059 0.044858 0.25719 0 0 0 
0.17059 0.032833 0.25718 0 0 0 
0.1337 0.032833 0.25719 0 0 0 
0.1337 0.044858 0.25719 0 0 0 
0.18716 0.044484 0.21109 0 0 0 
0.18716 0.017522 0.21109 0 0 0 
0.24119 0.017522 0.21108 0 0 0 
0.24119 0.044484 0.21109 0 0 0 
0.10306 0.092597 0.74565 0 0 0 
0.10306 0.089228 0.74564 0 0 0 
0.10201 0.089228 0.74565 0 0 0 
0.10201 0.092597 0.74567 0 0 0 
0.21805 0.012683 0.013927 0 0 0 
0.21805 9.7964e-05 0.013925 0 0 0 
0.15031 9.7964e-05 0.013934 0 0 0 
0.15031 0.012683 0.013936 0 0 0 
0.31672 0.075348 0.037134 0 0 0 
0.31414 0.075348 0.037135 0 0 0 
0.31414 0.078685 0.037144 0 0 0 
0.31672 0.078685 0.037143 0 0 0 
0.11663 0.030978 0.10872 0 0 0 
0.11663 0.030978 0.051695 0 0 0 
0.11662 0.018132 0.051695 0 0 0 
0.11662 0.018132 0.10872 0 0 0 
0.094493 0.012762 0.019556 0 0 0 
0.094493 0.00021961 0.019554 0 0 0 
0.002805 0.00021961 0.019566 0 0 0 
0.002805 0.012762 0.019568 0 0 0 
0.17147 0.13138 0.52448 0 0 0 
0.17146 0.13138 0.45177 0 0 0 
0.17146 0.11801 0.45177 0 0 0 
0.17147 0.11801 0.52448 0 0 0 
0.23004 0.0047954 0.054237 0 0 0 
0.19526 0.0047632 0.053206 0 0 0 
0.19526 0.013277 0.05294 0 0 0 
0.23004 0.013309 0.053971 0 0 0 
0.19239 0.05825 0.75319 0 0 0 
0.11903 0.058291 0.75319 0 0 0 
0.11903 0.058266 0.77087 0 0 0 
0.19239 0.058225 0.77087 0 0 0 
0.12869 0.044803 0.65341 0 0 0 
0.12869 0.044803 0.64075 0 0 0 
0.12868 0.039479 0.64075 0 0 0 
0.12868 0.039479 0.65341 0 0 0 
0.17144 0.12059 0.60833 0 0 0 
0.17158 0.12059 0.59544 0 0 0 
0.17149 0.12851 0.59544 0 0 0 
0.17136 0.12851 0.60833 0 0 0 
0.14605 0.088155 0.99998 0 0 0 
0.14603 0.088155 0.88853 0 0 0 
0.14602 0.072202 0.88853 0 0 0 
0.14603 0.072202 0.99998 0 0 0 
0.19462 0.054016 0.76083 0 0 0 
0.19462 0.054018 0.74562 0 0 0 
0.10873 0.054088 0.74562 0 0 0 
0.10873 0.054086 0.76083 0 0 0 
0.24181 0.044442 0.26393 0 0 0 
0.24181 0.044448 0.21359 0 0 0 
0.22237 0.044464 0.21359 0 0 0 
0.22237 0.044457 0.26393 0 0 0 
0.19201 0.10178 0.76606 0 0 0 
0.19201 0.10178 0.75593 0 0 0 
0.12271 0.10184 0.75593 0 0 0 
0.12271 0.10184 0.76606 0 0 0 
0.1873 0.14482 0.19264 0 0 0 
0.1873 0.14482 0.1731 0 0 0 
0.18729 0.13368 0.1731 0 0 0 
0.1873 0.13368 0.19264 0 0 0 
0.12869 0.045186 0.63372 0 0 0 
0.12869 0.045186 0.60832 0 0 0 
0.12868 0.037534 0.60832 0 0 0 
0.12869 0.037534 0.63372 0 0 0 
0.11674 0.14715 0.21065 0 0 0 
0.11675 0.14715 0.1704 0 0 0 
0.11672 0.13262 0.1704 0 0 0 
0.11672 0.13262 0.21065 0 0 0 
0.17511 0.041585 0.62334 0 0 0 
0.17512 0.041585 0.61966 0 0 0 
0.17511 0.040251 0.61966 0 0 0 
0.1751 0.040251 0.62334 0 0 0 
0.16227 0.084418 0.79938 0 0 0 
0.16399 0.087148 0.76934 0 0 0 
0.14842 0.096976 0.76934 0 0 0 
0.14669 0.094246 0.79938 0 0 0 
0.11663 0.030475 0.19761 0 0 0 
0.11662 0.030475 0.11167 0 0 0 
0.11661 0.017905 0.11167 0 0 0 
0.11662 0.017905 0.19761 0 0 0 
0.13558 0.019071 0.0083172 0 0 0 
0.13558 0.0047135 0.0083153 0 0 0 
0.1011 0.0047135 0.0083199 0 0 0 
0.1011 0.019071 0.0083218 0 0 0 
0.10568 0.10346 0.75599 0 0 0 
0.10568 0.10346 0.74562 0 0 0 
0.10564 0.051458 0.74562 0 0 0 
0.10564 0.051458 0.75599 0 0 0 
0.21922 0.11804 0.60832 0 0 0 
0.21922 0.11804 0.60829 0 0 0 
0.21895 0.12396 0.60829 0 0 0 
0.21895 0.12396 0.60832 0 0 0 
0.20017 0.16011 0.048617 0 0 0 
0.20017 0.14755 0.048615 0 0 0 
0.22817 0.14755 0.048611 0 0 0 
0.22817 0.16011 0.048613 0 0 0 
0.2297 0.15668 0.053911 0 0 0 
0.22202 0.15668 0.053911 0 0 0 
0.22202 0.15689 0.053891 0 0 0 
0.2297 0.15689 0.053891 0 0 0 
0.1872 0.027763 0.19565 0 0 0 
0.18723 0.02267 0.19565 0 0 0 
0.18719 0.02267 0.20086 0 0 0 
0.18717 0.027763 0.20086 0 0 0 
0.17066 0.045057 0.60833 0 0 0 
0.17065 0.045057 0.56953 0 0 0 
0.17064 0.032021 0.56953 0 0 0 
0.17065 0.032021 0.60833 0 0 0 
0.21526 0.16621 0.019305 0 0 0 
0.097506 0.16621 0.019174 0 0 0 
0.097506 0.15485 0.019158 0 0 0 
0.21526 0.15485 0.01929 0 0 0 
0.17517 0.12564 0.68033 0 0 0 
0.17517 0.12564 0.65675 0 0 0 
0.17516 0.11767 0.65675 0 0 0 
0.17517 0.11767 0.68033 0 0 0 
0.1285 0.12625 0.67335 0 0 0 
0.12849 0.12625 0.65088 0 0 0 
0.12909 0.11762 0.65088 0 0 0 
0.12909 0.11762 0.67335 0 0 0 
0.1936 0.012502 0.019335 0 0 0 
0.1936 0.00011467 0.019333 0 0 0 
0.10568 0.00011467 0.019345 0 0 0 
0.10568 0.012502 0.019346 0 0 0 
0.17511 0.045435 0.65876 0 0 0 
0.1751 0.045435 0.63185 0 0 0 
0.1751 0.036731 0.63185 0 0 0 
0.1751 0.036731 0.65876 0 0 0 
0.10582 0.15774 0.044927 0 0 0 
0.10582 0.15774 0.039495 0 0 0 
0.10582 0.15706 0.039495 0 0 0 
0.10582 0.15706 0.044927 0 0 0 
0.10674 0.014095 0.034405 0 0 0 
0.10674 0.014095 0.019541 0 0 0 
0.10673 0.0055016 0.019541 0 0 0 
0.10673 0.0055016 0.034405 0 0 0 
0.19795 0.049305 0.74085 0 0 0 
0.19795 0.049306 0.73017 0 0 0 
0.20355 0.054681 0.73017 0 0 0 
0.20355 0.05468 0.74085 0 0 0 
0.13183 0.13025 0.58222 0 0 0 
0.13183 0.13025 0.56203 0 0 0 
0.13182 0.11955 0.56203 0 0 0 
0.13182 0.11955 0.58222 0 0 0 
0.11674 0.14606 0.16764 0 0 0 
0.11673 0.14606 0.11832 0 0 0 
0.11672 0.13506 0.11832 0 0 0 
0.11673 0.13506 0.16764 0 0 0 
0.11647 0.16617 0.0164 0 0 0 
0.11269 0.16617 0.0164 0 0 0 
0.11269 0.16618 0.016451 0 0 0 
0.11647 0.16618 0.016451 0 0 0 
0.22267 0.1192 0.26203 0 0 0 
0.22267 0.046975 0.26202 0 0 0 
0.24148 0.046975 0.26202 0 0 0 
0.24148 0.1192 0.26203 0 0 0 
0.32459 0.16608 0.019324 0 0 0 
0.32459 0.078977 0.019313 0 0 0 
0.22434 0.078977 0.019326 0 0 0 
0.22434 0.16608 0.019337 0 0 0 
0.17518 0.12401 0.63025 0 0 0 
0.17518 0.12401 0.61965 0 0 0 
0.17517 0.11771 0.61965 0 0 0 
0.17518 0.11771 0.63025 0 0 0 
0.17517 0.12337 0.654 0 0 0 
0.17518 0.12337 0.64571 0 0 0 
0.17518 0.12169 0.64571 0 0 0 
0.17517 0.12169 0.654 0 0 0 
0.12868 0.043044 0.66018 0 0 0 
0.12868 0.043044 0.6576 0 0 0 
0.12868 0.04071 0.6576 0 0 0 
0.12868 0.04071 0.66018 0 0 0 
0.19588 0.10472 0.75599 0 0 0 
0.19588 0.10472 0.74291 0 0 0 
0.19584 0.056335 0.74291 0 0 0 
0.19584 0.056335 0.75599 0 0 0 
0.15264 0.082901 0.89817 0 0 0 
0.15264 0.082901 0.89517 0 0 0 
0.15262 0.078581 0.89517 0 0 0 
0.15262 0.078581 0.89817 0 0 0 
0.10934 0.036825 0.60831 0 0 0 
0.10934 0.031125 0.60831 0 0 0 
0.09054 0.031125 0.60831 0 0 0 
0.09054 0.036825 0.60831 0 0 0 
0.12033 0.10957 0.74568 0 0 0 
0.11591 0.10957 0.74567 0 0 0 
0.11591 0.11179 0.74565 0 0 0 
0.12033 0.11179 0.74566 0 0 0 
0.3171 0.085929 0.037147 0 0 0 
0.31094 0.085929 0.037149 0 0 0 
0.31094 0.090879 0.037132 0 0 0 
0.3171 0.090879 0.03713 0 0 0 
0.059747 0.16622 0.018913 0 0 0 
0.059747 0.16621 0.016709 0 0 0 
0.057073 0.16622 0.016709 0 0 0 
0.057073 0.16622 0.018913 0 0 0 
0.18226 0.11193 0.74569 0 0 0 
0.18226 0.10873 0.74566 0 0 0 
0.17966 0.10873 0.7456 0 0 0 
0.17966 0.11193 0.74564 0 0 0 
0.31657 0.06868 0.05367 0 0 0 
0.31297 0.068681 0.05365 0 0 0 
0.31297 0.072296 0.053697 0 0 0 
0.31657 0.072296 0.053716 0 0 0 
0.068345 0.16623 0.019595 0 0 0 
0.063359 0.16623 0.019575 0 0 0 
0.063359 0.15737 0.01954 0 0 0 
0.068345 0.15737 0.01956 0 0 0 
0.12877 0.12372 0.67781 0 0 0 
0.12879 0.12074 0.67781 0 0 0 
0.12872 0.12074 0.68043 0 0 0 
0.1287 0.12372 0.68043 0 0 0 
0.32447 0.054505 0.016245 0 0 0 
0.32446 0.047361 0.016245 0 0 0 
0.32446 0.047361 0.01671 0 0 0 
0.32447 0.054505 0.01671 0 0 0 
0.15269 0.075929 0.96178 0 0 0 
0.15232 0.075951 0.92262 0 0 0 
0.15275 0.083218 0.92262 0 0 0 
0.15312 0.083196 0.96178 0 0 0 
0.17511 0.041919 0.68559 0 0 0 
0.17511 0.041919 0.67631 0 0 0 
0.1751 0.039475 0.67631 0 0 0 
0.17509 0.039475 0.68559 0 0 0 
0.054768 0.16183 0.019545 0 0 0 
0.05093 0.16183 0.019552 0 0 0 
0.05093 0.16509 0.019564 0 0 0 
0.054768 0.16509 0.019557 0 0 0 
0.31707 0.10178 0.029529 0 0 0 
0.31557 0.10178 0.029529 0 0 0 
0.31557 0.10176 0.023489 0 0 0 
0.31707 0.10176 0.023489 0 0 0 
0.131 0.16616 0.016973 0 0 0 
0.12301 0.16616 0.016973 0 0 0 
0.12301 0.16615 0.01663 0 0 0 
0.131 0.16615 0.01663 0 0 0 
0.12305 0.13528 0.048585 0 0 0 
0.11962 0.13528 0.048586 0 0 0 
0.11962 0.1371 0.048617 0 0 0 
0.12305 0.1371 0.048616 0 0 0 
0.19439 0.099234 0.7602 0 0 0 
0.19439 0.060892 0.7602 0 0 0 
0.17584 0.060892 0.76096 0 0 0 
0.17584 0.099234 0.76097 0 0 0 
0.18718 0.027911 0.063505 0 0 0 
0.18718 0.027911 0.060675 0 0 0 
0.18719 0.025133 0.060675 0 0 0 
0.18719 0.025133 0.063505 0 0 0 
0.048264 0.16629 0.019585 0 0 0 
0.048264 0.15704 0.019598 0 0 0 
0.0056412 0.15704 0.019529 0 0 0 
0.0056412 0.16629 0.019516 0 0 0 
0.10159 0.065091 0.74568 0 0 0 
0.10159 0.058372 0.74566 0 0 0 
0.10258 0.058372 0.74565 0 0 0 
0.10258 0.065091 0.74567 0 0 0 
0.2323 0.0099799 0.038428 0 0 0 
0.2323 0.0074074 0.038428 0 0 0 
0.23228 0.0074074 0.051562 0 0 0 
0.23227 0.0099799 0.051562 0 0 0 
0.13209 0.12964 0.58623 0 0 0 
0.13213 0.12036 0.58623 0 0 0 
0.13171 0.12036 0.60203 0 0 0 
0.13167 0.12964 0.60203 0 0 0 
0.059568 0.026392 0.056647 0 0 0 
0.059586 0.026392 0.051772 0 0 0 
0.05962 0.022633 0.051772 0 0 0 
0.059602 0.022632 0.056647 0 0 0 
0.11324 0.018132 0.005227 0 0 0 
0.11325 0.018132 0.00062648 0 0 0 
0.11327 0.015226 0.00062648 0 0 0 
0.11325 0.015226 0.005227 0 0 0 
0.10768 0.11099 0.74566 0 0 0 
0.10564 0.11099 0.74566 0 0 0 
0.10564 0.10634 0.74564 0 0 0 
0.10768 0.10634 0.74564 0 0 0 
0.17146 0.12782 0.58737 0 0 0 
0.17146 0.12501 0.58737 0 0 0 
0.17146 0.12501 0.59189 0 0 0 
0.17146 0.12782 0.59189 0 0 0 
4 0 1 2 3
4 4 5 6 7
4 8 9 10 11
4 12 13 14 15
4 16 17 18 19
4 20 21 22 23
4 24 25 26 27
4 28 29 30 31
4 32 33 34 35
4 36 37 38 39
4 40 41 42 43
4 44 45 46 47
4 48 49 50 51
4 52 53 54 55
4 56 57 58 59
4 60 61 62 63
4 64 65 66 67
4 68 69 70 71
4 72 73 74 75
4 76 77 78 79
4 80 81 82 83
4 84 85 86 87
4 88 89 90 91
4 92 93 94 95
4 96 97 98 99
4 100 101 102 103
4 104 105 106 107
4 108 109 110 111
4 112 113 114 115
4 116 117 118 119
4 120 121 122 123
4 124 125 126 127
4 128 129 130 131
4 132 133 134 135
4 136 137 138 139
4 140 141 142 143
4 144 145 146 147
4 148 149 150 151
4 152 153 154 155
4 156 157 158 159
4 160 161 162 163
4 164 165 166 167
4 168 169 170 171
4 172 173 174 175
4 176 177 178 179
4 180 181 182 183
4 184 185 186 187
4 188 189 190 191
4 192 193 194 195
4 196 197 198 199
4 200 201 202 203
4 204 205 206 207
4 208 209 210 211
4 212 213 214 215
4 216 217 218 219
4 220 221 222 223
4 224 225 226 227
4 228 229 230 231
4 232 233 234 235
4 236 237 238 239
4 240 241 242 243
4 244 245 246 247
4 248 249 250 251
4 252 253 254 255
4 256 257 258 259
4 260 261 262 263
4 264 265 266 267
4 268 269 270 271
4 272 273 274 275
4 276 277 278 279
4 280 281 282 283
4 284 285 286 287
4 288 289 290 291
4 292 293 294 295
4 296 297 298 299
4 300 301 302 303
4 304 305 306 307
4 308 309 310 311
4 312 313 314 315
4 316 317 318 319
4 320 321 322 323
4 324 325 326 327
4 328 329 330 331
4 332 333 334 335
4 336 337 338 339
4 340 341 342 343
4 344 345 346 347
4 348 349 350 351
4 352 353 354 355
4 356 357 358 359
4 360 361 362 363
4 364 365 366 367
4 368 369 370 371
4 372 373 374 375
4 376 377 378 379
4 380 381 382 383
4 384 385 386 387
4 388 389 390 391
4 392 393 394 395
4 396 397 398 399
4 400 401 402 403
4 404 405 406 407
4 408 409 410 411
4 412 413 414 415
4 416 417 418 419
4 420 421 422 423
4 424 425 426 427
4 428 429 430 431
4 432 433 434 435
4 436 437 438 439
4 440 441 442 443
4 444 445 446 447
4 448 449 450 451
4 452 453 454 455
4 456 457 458 459
4 460 461 462 463
4 464 465 466 467
4 468 469 470 471
4 472 473 474 475
4 476 477 478 479
4 480 481 482 483
4 484 485 486 487
4 488 489 490 491
4 492 493 494 495
4 496 497 498 499
4 500 501 502 503
4 504 505 506 507
4 508 509 510 511
4 512 513 514 515
4 516 517 518 519
4 520 521 522 523
4 524 525 526 527
4 528 529 530 531
4 532 533 534 535
4 536 537 538 539
4 540 541 542 543
4 544 545 546 547
4 548 549 550 551
4 552 553 554 555
4 556 557 558 559
4 560 561 562 563
4 564 565 566 567
4 568 569 570 571
4 572 573 574 575
4 576 577 578 579
4 580 581 582 583
4 584 585 586 587
4 588 589 590 591
4 592 593 594 595
4 596 597 598 599
4 600 601 602 603
4 604 605 606 607
4 608 609 610 611
4 612 613 614 615
4 616 617 618 619
4 620 621 622 623
4 624 625 626 627
4 628 629 630 631
