ply
format ascii 1.0
comment PCL generated
element vertex 1200
property float x
property float y
property float z
property uchar red
property uchar green
property uchar blue
element face 300
property list uchar int vertex_indices
end_header
0.39889 0.5236 0.018394 60 97 52 
0.023739 0.52091 0.01845 60 97 52 
0.023739 0.52498 0.216 60 97 52 
0.39889 0.52767 0.21594 60 97 52 
0.77899 0.15477 0.13919 44 77 106 
0.7097 0.15479 0.14014 44 77 106 
0.7097 0.14878 0.14027 44 77 106 
0.77899 0.14876 0.13932 44 77 106 
0.94731 0.27208 0.87054 124 83 45 
0.94697 0.27228 0.59175 124 83 45 
0.91402 0.21486 0.59175 124 83 45 
0.91437 0.21466 0.87054 124 83 45 
0.83682 0.28499 0.233 79 51 85 
0.83776 0.15113 0.23298 79 51 85 
0.84351 0.15113 0.6464 79 51 85 
0.84258 0.28499 0.64641 79 51 85 
0.85531 0.24033 0.39029 79 51 85 
0.85561 0.19737 0.39028 79 51 85 
0.85652 0.19737 0.45574 79 51 85 
0.85622 0.24033 0.45575 79 51 85 
0.54895 0.074719 0.27033 60 97 52 
0.39444 0.073611 0.27035 60 97 52 
0.39444 0.068624 0.027982 60 97 52 
0.54895 0.069732 0.027959 60 97 52 
0.9625 0.3321 0.038057 79 51 85 
0.96375 0.15316 0.038039 79 51 85 
0.9712 0.15316 0.57294 79 51 85 
0.96995 0.3321 0.57295 79 51 85 
0.39589 0.13964 0.037894 60 97 52 
0.017088 0.13693 0.03795 60 97 52 
0.017088 0.14076 0.22412 60 97 52 
0.39589 0.14347 0.22407 60 97 52 
0.85845 0.23741 0.65422 79 51 85 
0.85872 0.19922 0.65422 79 51 85 
0.86171 0.19922 0.86907 79 51 85 
0.86144 0.23741 0.86908 79 51 85 
0.026454 0.54501 0.14441 79 51 85 
0.028112 0.30758 0.14438 79 51 85 
0.026497 0.30758 0.028359 79 51 85 
0.024838 0.54501 0.028382 79 51 85 
0.87975 0.52886 0.26938 44 77 106 
0.42344 0.52899 0.27563 44 77 106 
0.42344 0.39675 0.27838 44 77 106 
0.87975 0.39662 0.27213 44 77 106 
0.83834 0.24177 0.27129 44 77 106 
0.21033 0.24195 0.2799 44 77 106 
0.21033 0.13896 0.28205 44 77 106 
0.83834 0.13878 0.27344 44 77 106 
0.96977 0.16037 0.63075 60 97 52 
0.54588 0.15733 0.63082 60 97 52 
0.54588 0.14492 0.027859 60 97 52 
0.96977 0.14796 0.027797 60 97 52 
0.69921 0.41929 0.26011 44 77 106 
0.12685 0.41945 0.26795 44 77 106 
0.12685 0.53065 0.26564 44 77 106 
0.69921 0.53049 0.25779 44 77 106 
0.53889 0.22065 0.22059 102 56 43 
0.54076 0.068759 0.22313 102 56 43 
0.46847 0.068759 0.27656 102 56 43 
0.4666 0.22065 0.27403 102 56 43 
0.40451 0.58796 0.21521 120 44 48 
0.40411 0.51636 0.21553 120 44 48 
0.39334 0.51636 0.20185 120 44 48 
0.39374 0.58796 0.20153 120 44 48 
0.12884 0.52789 0.20009 79 51 85 
0.13139 0.16328 0.20006 79 51 85 
0.13324 0.16328 0.33286 79 51 85 
0.13069 0.52789 0.3329 79 51 85 
0.94552 0.24523 0.57867 79 51 85 
0.94613 0.15752 0.57867 79 51 85 
0.94769 0.15752 0.69076 79 51 85 
0.94708 0.24523 0.69076 79 51 85 
0.9685 0.21664 0.85067 107 63 89 
0.84186 0.21541 0.85095 107 63 89 
0.84186 0.15182 0.57426 107 63 89 
0.9685 0.15305 0.57398 107 63 89 
0.97017 0.50706 0.16496 57 57 57 
0.97219 0.28681 0.16927 57 57 57 
0.84384 0.28681 0.22939 57 57 57 
0.84182 0.50706 0.22508 57 57 57 
0.33529 0.52609 0.08225 60 97 52 
0.31501 0.52594 0.082253 60 97 52 
0.31501 0.52467 0.020588 60 97 52 
0.33529 0.52482 0.020585 60 97 52 
0.55462 0.5922 0.0086863 60 97 52 
0.39918 0.59109 0.0087092 60 97 52 
0.39918 0.59607 0.25094 60 97 52 
0.55462 0.59719 0.25092 60 97 52 
0.90442 0.51909 0.0024622 60 97 52 
0.55286 0.51657 0.0025141 60 97 52 
0.55286 0.5208 0.20818 60 97 52 
0.90442 0.52332 0.20813 60 97 52 
0.13029 0.16178 0.23189 60 97 52 
0.021553 0.161 0.23191 60 97 52 
0.021553 0.15914 0.14137 60 97 52 
0.13029 0.15992 0.14135 60 97 52 
0.88063 0.1718 0.38303 79 51 85 
0.88077 0.15165 0.38302 79 51 85 
0.88174 0.15165 0.45246 79 51 85 
0.8816 0.1718 0.45246 79 51 85 
0.44628 0.47778 0.23396 44 77 106 
0.39485 0.4778 0.23466 44 77 106 
0.39485 0.60003 0.23212 44 77 106 
0.44628 0.60001 0.23141 44 77 106 
0.5181 0.39924 0.37464 120 44 48 
0.51668 0.39694 0.26699 120 44 48 
0.48347 0.41743 0.26699 120 44 48 
0.48489 0.41974 0.37464 120 44 48 
0.54323 0.55463 0.14508 79 51 85 
0.54333 0.53919 0.14508 79 51 85 
0.54377 0.53919 0.1767 79 51 85 
0.54367 0.55463 0.1767 79 51 85 
0.97087 0.27976 0.20765 60 97 52 
0.83778 0.27881 0.20767 60 97 52 
0.83778 0.28644 0.57867 60 97 52 
0.97087 0.2874 0.57865 60 97 52 
0.51254 0.40005 0.37352 62 44 120 
0.51087 0.3986 0.28177 62 44 120 
0.53977 0.36542 0.28177 62 44 120 
0.54143 0.36687 0.37352 62 44 120 
0.50285 0.38189 0.38901 44 77 106 
0.43518 0.38191 0.38994 44 77 106 
0.43518 0.42321 0.38908 44 77 106 
0.50285 0.42319 0.38815 44 77 106 
0.64718 9.8132e-05 0.030725 44 77 106 
0.36817 0.00017773 0.03455 44 77 106 
0.36817 0.086999 0.032743 44 77 106 
0.64718 0.086919 0.028918 44 77 106 
0.6482 0.24704 0.27738 44 77 106 
0.12928 0.24718 0.2845 44 77 106 
0.12928 0.13644 0.2868 44 77 106 
0.6482 0.13629 0.27969 44 77 106 
0.015818 0.36737 0.08134 79 51 85 
0.015952 0.34826 0.081338 79 51 85 
0.016378 0.34826 0.11193 79 51 85 
0.016244 0.36737 0.11193 79 51 85 
0.81391 0.53331 0.0073877 44 77 106 
0.76404 0.53332 0.0080713 44 77 106 
0.76404 0.51983 0.0083522 44 77 106 
0.81391 0.51981 0.0076686 44 77 106 
0.85895 0.2651 0.60408 60 97 52 
0.84053 0.26497 0.60408 60 97 52 
0.84053 0.26564 0.63647 60 97 52 
0.85895 0.26577 0.63647 60 97 52 
0.39965 0.60406 0.015621 44 77 106 
0.38611 0.60407 0.015807 44 77 106 
0.38611 0.53959 0.017149 44 77 106 
0.39965 0.53958 0.016963 44 77 106 
0.92876 0.12912 0.054555 60 97 52 
0.86749 0.12868 0.054564 60 97 52 
0.86749 0.12808 0.025182 60 97 52 
0.92876 0.12852 0.025173 60 97 52 
0.55162 0.59289 0.0096576 79 51 85 
0.55212 0.5209 0.0096506 79 51 85 
0.55493 0.5209 0.21155 79 51 85 
0.55443 0.59289 0.21156 79 51 85 
0.92637 0.28439 0.38806 79 51 85 
0.92655 0.25857 0.38806 79 51 85 
0.92741 0.25857 0.44999 79 51 85 
0.92723 0.28439 0.45 79 51 85 
0.27826 0.14077 0.21668 44 77 106 
0.048764 0.14083 0.21982 44 77 106 
0.048764 0.13468 0.21995 44 77 106 
0.27826 0.13462 0.2168 44 77 106 
0.39589 0.14372 0.036986 79 51 85 
0.3964 0.071351 0.036979 79 51 85 
0.39906 0.071351 0.22835 79 51 85 
0.39856 0.14372 0.22836 79 51 85 
0.96969 0.26684 0.66635 60 97 52 
0.83734 0.26589 0.66637 60 97 52 
0.83734 0.26397 0.5732 60 97 52 
0.96969 0.26492 0.57318 60 97 52 
0.19069 0.5157 0.14281 46 120 44 
0.18984 0.51541 0.097495 46 120 44 
0.18646 0.52541 0.097495 46 120 44 
0.1873 0.5257 0.14281 46 120 44 
0.55372 0.57678 0.028448 79 51 85 
0.55407 0.52695 0.028443 79 51 85 
0.55651 0.52695 0.20341 79 51 85 
0.55616 0.57678 0.20342 79 51 85 
0.7507 0.14318 0.038417 44 77 106 
0.5379 0.14324 0.041334 44 77 106 
0.5379 0.038333 0.043517 44 77 106 
0.7507 0.038272 0.0406 44 77 106 
0.13208 0.44255 0.33905 60 97 52 
0.1108 0.44239 0.33905 60 97 52 
0.1108 0.4394 0.19342 60 97 52 
0.13208 0.43955 0.19341 60 97 52 
0.89855 0.15322 0.54648 44 77 106 
0.88802 0.15323 0.54662 44 77 106 
0.88802 0.18334 0.54599 44 77 106 
0.89855 0.18333 0.54585 44 77 106 
0.35524 0.5151 0.12081 60 97 52 
0.33329 0.51495 0.12081 60 97 52 
0.33329 0.51579 0.1618 60 97 52 
0.35524 0.51595 0.1618 60 97 52 
0.021902 0.19582 0.065861 79 51 85 
0.022298 0.13922 0.065856 79 51 85 
0.024399 0.13922 0.21679 79 51 85 
0.024004 0.19582 0.2168 79 51 85 
0.85582 0.24087 0.4481 60 97 52 
0.8396 0.24075 0.4481 60 97 52 
0.8396 0.23945 0.38464 60 97 52 
0.85582 0.23956 0.38463 60 97 52 
0.97019 0.24141 0.44915 60 97 52 
0.9525 0.24128 0.44916 60 97 52 
0.9525 0.23997 0.38562 60 97 52 
0.97019 0.2401 0.38561 60 97 52 
0.79562 0.51269 0.13759 60 97 52 
0.72295 0.51217 0.13761 60 97 52 
0.72295 0.51289 0.1724 60 97 52 
0.79562 0.51341 0.17239 60 97 52 
0.39749 0.59649 0.016362 79 51 85 
0.39801 0.52291 0.016355 79 51 85 
0.40065 0.52291 0.20602 79 51 85 
0.40014 0.59649 0.20603 79 51 85 
0.55786 0.58396 0.0094951 79 51 85 
0.5583 0.52087 0.009489 79 51 85 
0.55888 0.52087 0.050776 79 51 85 
0.55843 0.58396 0.050782 79 51 85 
0.084955 0.1614 0.17478 44 77 106 
0.018299 0.16142 0.17569 44 77 106 
0.018299 0.53095 0.168 44 77 106 
0.084955 0.53093 0.16708 44 77 106 
0.54477 0.14462 0.04212 79 51 85 
0.54529 0.069406 0.042112 79 51 85 
0.54787 0.069406 0.2274 79 51 85 
0.54735 0.14462 0.22741 79 51 85 
0.043659 0.14716 0.055233 79 51 85 
0.043715 0.13908 0.055232 79 51 85 
0.044637 0.13908 0.12142 79 51 85 
0.044581 0.14716 0.12142 79 51 85 
0.73667 0.091482 0.031864 44 77 106 
0.52214 0.091543 0.034805 44 77 106 
0.52214 0.025015 0.036189 44 77 106 
0.73667 0.024954 0.033249 44 77 106 
0.44907 0.40283 0.26911 60 97 52 
0.42138 0.40263 0.26911 60 97 52 
0.42138 0.40483 0.37636 60 97 52 
0.44907 0.40503 0.37636 60 97 52 
0.92529 0.28423 0.4829 79 51 85 
0.92551 0.25296 0.48289 79 51 85 
0.92623 0.25296 0.53505 79 51 85 
0.92601 0.28423 0.53506 79 51 85 
0.9583 0.28651 0.59016 61 97 52 
0.95941 0.204 0.59138 61 97 52 
0.97336 0.204 0.57881 61 97 52 
0.97226 0.28651 0.57758 61 97 52 
0.87144 0.2002 0.54395 44 77 106 
0.83994 0.20021 0.54438 44 77 106 
0.83994 0.20891 0.5442 44 77 106 
0.87144 0.2089 0.54377 44 77 106 
0.024231 0.30664 0.13691 44 77 106 
0.017999 0.30664 0.13699 44 77 106 
0.017999 0.40645 0.13492 44 77 106 
0.024231 0.40645 0.13483 44 77 106 
0.8425 0.48549 0.21913 79 51 85 
0.84369 0.316 0.21911 79 51 85 
0.84507 0.316 0.31855 79 51 85 
0.84389 0.48549 0.31856 79 51 85 
0.51574 0.26494 0.36019 97 83 52 
0.51575 0.26493 0.2997 97 83 52 
0.53643 0.29586 0.2997 97 83 52 
0.53642 0.29587 0.36019 97 83 52 
0.91531 0.17414 0.85035 97 52 62 
0.91584 0.17366 0.6712 97 52 62 
0.94854 0.20935 0.6712 97 52 62 
0.94801 0.20984 0.85035 97 52 62 
0.92747 0.26286 0.39095 60 97 52 
0.88465 0.26255 0.39096 60 97 52 
0.88465 0.26389 0.45577 60 97 52 
0.92747 0.2642 0.45576 60 97 52 
0.89557 0.17471 0.85217 62 44 120 
0.89239 0.17195 0.67703 62 44 120 
0.86201 0.20684 0.67703 62 44 120 
0.86519 0.20961 0.85217 62 44 120 
0.87773 0.24586 0.54695 79 51 85 
0.87805 0.20001 0.54694 79 51 85 
0.87829 0.20001 0.56396 79 51 85 
0.87797 0.24586 0.56397 79 51 85 
0.47822 0.41562 0.29733 79 51 85 
0.47843 0.38544 0.29733 79 51 85 
0.47901 0.38544 0.33878 79 51 85 
0.4788 0.41562 0.33879 79 51 85 
0.4058 0.29927 0.3012 79 51 85 
0.40598 0.27311 0.3012 79 51 85 
0.40697 0.27311 0.37208 79 51 85 
0.40679 0.29927 0.37209 79 51 85 
0.75187 0.057378 0.033833 60 97 52 
0.65678 0.056696 0.033847 60 97 52 
0.65678 0.056535 0.02605 60 97 52 
0.75187 0.057217 0.026036 60 97 52 
0.46827 0.32306 0.41798 44 77 106 
0.42166 0.32791 0.4082 44 77 106 
0.42166 0.24853 0.36879 44 77 106 
0.46827 0.24368 0.37856 44 77 106 
0.4578 0.59938 0.074306 60 97 52 
0.39997 0.59897 0.074315 60 97 52 
0.39997 0.59758 0.0070511 60 97 52 
0.4578 0.598 0.0070426 60 97 52 
0.92375 0.19176 0.47341 79 51 85 
0.92402 0.15323 0.4734 79 51 85 
0.92507 0.15323 0.54839 79 51 85 
0.9248 0.19176 0.54839 79 51 85 
0.45097 0.41505 0.29528 79 51 85 
0.45133 0.36343 0.29528 79 51 85 
0.452 0.36343 0.34315 79 51 85 
0.45164 0.41505 0.34316 79 51 85 
0.9183 0.17307 0.7011 60 97 52 
0.88813 0.17285 0.7011 60 97 52 
0.88813 0.172 0.65972 60 97 52 
0.9183 0.17222 0.65972 60 97 52 
0.96968 0.23697 0.48498 60 97 52 
0.93244 0.23671 0.48499 60 97 52 
0.93244 0.23777 0.53693 60 97 52 
0.96968 0.23804 0.53692 60 97 52 
0.11241 0.44279 0.19052 79 51 85 
0.11263 0.41132 0.19051 79 51 85 
0.11472 0.41132 0.34066 79 51 85 
0.1145 0.44279 0.34067 79 51 85 
0.87743 0.22538 0.68773 60 97 52 
0.85978 0.22526 0.68773 60 97 52 
0.85978 0.22486 0.66838 60 97 52 
0.87743 0.22499 0.66838 60 97 52 
0.39775 0.52753 0.19907 60 97 52 
0.14353 0.52571 0.19911 60 97 52 
0.14353 0.52603 0.21496 60 97 52 
0.39775 0.52786 0.21492 60 97 52 
0.85634 0.26098 0.78345 120 44 48 
0.85401 0.25693 0.59611 120 44 48 
0.89394 0.23401 0.59611 120 44 48 
0.89627 0.23807 0.78345 120 44 48 
0.34121 0.14855 0.11886 60 97 52 
0.31755 0.14838 0.11886 60 97 52 
0.31755 0.14938 0.16768 60 97 52 
0.34121 0.14955 0.16767 60 97 52 
0.39389 0.14123 0.21683 79 51 85 
0.39438 0.070565 0.21683 79 51 85 
0.39455 0.070565 0.22912 79 51 85 
0.39406 0.14123 0.22913 79 51 85 
0.40083 0.38597 0.28589 79 51 85 
0.40105 0.35415 0.28588 79 51 85 
0.40221 0.35415 0.36901 79 51 85 
0.40199 0.38597 0.36901 79 51 85 
0.8408 0.14594 0.22561 60 97 52 
0.54835 0.14379 0.22565 60 97 52 
0.54835 0.14359 0.21591 60 97 52 
0.8408 0.14573 0.21587 60 97 52 
0.46486 0.34118 0.413 90 106 44 
0.40098 0.33317 0.39335 90 106 44 
0.40098 0.41683 0.35925 90 106 44 
0.46486 0.42484 0.3789 90 106 44 
0.79517 0.51361 0.13441 60 97 52 
0.71926 0.51305 0.13442 60 97 52 
0.71926 0.51321 0.14197 60 97 52 
0.79517 0.51377 0.14196 60 97 52 
0.73614 0.075305 0.04117 60 97 52 
0.67044 0.074834 0.04118 60 97 52 
0.67044 0.074681 0.033756 60 97 52 
0.73614 0.075152 0.033746 60 97 52 
0.91987 0.19217 0.52979 79 51 85 
0.92013 0.15426 0.52979 79 51 85 
0.92049 0.15426 0.55507 79 51 85 
0.92022 0.19217 0.55507 79 51 85 
0.4776 0.41802 0.362 60 97 52 
0.44582 0.41779 0.362 60 97 52 
0.44582 0.41807 0.37528 60 97 52 
0.4776 0.41829 0.37528 60 97 52 
0.52223 0.25858 0.37666 60 97 52 
0.4995 0.25841 0.37666 60 97 52 
0.4995 0.25658 0.2876 60 97 52 
0.52223 0.25674 0.2876 60 97 52 
0.53794 0.12583 0.14861 79 51 85 
0.53806 0.10887 0.14861 79 51 85 
0.53846 0.10887 0.17697 79 51 85 
0.53834 0.12583 0.17697 79 51 85 
0.88945 0.52465 0.19159 60 97 52 
0.55432 0.52224 0.19164 60 97 52 
0.55432 0.52254 0.20604 60 97 52 
0.88945 0.52494 0.20599 60 97 52 
0.40887 0.55509 0.14529 79 51 85 
0.40899 0.53817 0.14529 79 51 85 
0.40942 0.53817 0.17606 79 51 85 
0.4093 0.55509 0.17606 79 51 85 
0.93581 0.50357 0.0058123 79 51 85 
0.93608 0.46538 0.0058086 79 51 85 
0.93844 0.46538 0.17513 79 51 85 
0.93817 0.50357 0.17513 79 51 85 
0.88224 0.19123 0.46993 79 51 85 
0.88252 0.15172 0.46992 79 51 85 
0.88359 0.15172 0.54706 79 51 85 
0.88332 0.19123 0.54707 79 51 85 
0.45684 0.18117 0.2486 44 77 106 
0.39258 0.18119 0.24948 44 77 106 
0.39258 0.067189 0.25185 44 77 106 
0.45684 0.067171 0.25097 44 77 106 
0.89769 0.16461 0.38569 79 51 85 
0.89777 0.15237 0.38569 79 51 85 
0.89866 0.15237 0.44919 79 51 85 
0.89857 0.16461 0.44919 79 51 85 
0.016673 0.32427 0.13425 61 97 52 
0.017736 0.24167 0.13556 61 97 52 
0.024438 0.24167 0.13014 61 97 52 
0.023376 0.32427 0.12883 61 97 52 
0.39913 0.34822 0.31109 79 51 85 
0.39942 0.30585 0.31109 79 51 85 
0.4001 0.30585 0.35991 79 51 85 
0.39981 0.34822 0.35991 79 51 85 
0.13291 0.41065 0.19691 60 97 52 
0.11615 0.41053 0.19692 60 97 52 
0.11615 0.41349 0.34052 60 97 52 
0.13291 0.41361 0.34052 60 97 52 
0.98706 0.1481 0.48039 60 97 52 
0.96116 0.14791 0.4804 60 97 52 
0.96116 0.14857 0.51251 60 97 52 
0.98706 0.14876 0.51251 60 97 52 
0.92548 0.17296 0.38744 79 51 85 
0.92562 0.15297 0.38744 79 51 85 
0.92648 0.15297 0.44917 79 51 85 
0.92634 0.17296 0.44917 79 51 85 
0.49612 0.41405 0.26951 60 97 52 
0.44641 0.4137 0.26951 60 97 52 
0.44641 0.41581 0.37231 60 97 52 
0.49612 0.41617 0.3723 60 97 52 
0.85057 0.22326 0.45169 60 97 52 
0.83949 0.22318 0.45169 60 97 52 
0.83949 0.22175 0.38216 60 97 52 
0.85057 0.22183 0.38216 60 97 52 
0.6141 0.51696 0.11774 60 97 52 
0.57934 0.5167 0.11774 60 97 52 
0.57934 0.51654 0.11 60 97 52 
0.6141 0.5168 0.11 60 97 52 
0.23918 0.13326 0.046012 106 75 44 
0.10144 0.13175 0.047314 106 75 44 
0.10144 0.13863 0.055266 106 75 44 
0.23918 0.14014 0.053963 106 75 44 
0.98897 0.14536 0.49579 60 97 52 
0.97279 0.14524 0.49579 60 97 52 
0.97279 0.14462 0.46552 60 97 52 
0.98897 0.14474 0.46552 60 97 52 
0.89631 0.1748 0.028128 79 51 85 
0.89664 0.12786 0.028124 79 51 85 
0.89775 0.12786 0.10794 79 51 85 
0.89742 0.1748 0.10795 79 51 85 
0.53976 0.35929 0.30441 79 51 85 
0.54008 0.31273 0.30441 79 51 85 
0.54104 0.31273 0.37324 79 51 85 
0.54071 0.35929 0.37325 79 51 85 
0.8607 0.17029 0.61203 60 97 52 
0.84009 0.17014 0.61204 60 97 52 
0.84009 0.16956 0.58368 60 97 52 
0.8607 0.16971 0.58368 60 97 52 
0.54009 0.36274 0.36638 124 83 45 
0.53993 0.31713 0.36647 124 83 45 
0.54534 0.31713 0.37597 124 83 45 
0.54549 0.36274 0.37588 124 83 45 
0.95394 0.23992 0.48617 79 51 85 
0.9542 0.203 0.48616 79 51 85 
0.95463 0.203 0.51726 79 51 85 
0.95437 0.23992 0.51726 79 51 85 
0.63486 0.52632 0.033232 60 97 52 
0.59279 0.52601 0.033238 60 97 52 
0.59279 0.52555 0.010683 60 97 52 
0.63486 0.52585 0.010677 60 97 52 
0.42626 0.38705 0.38759 44 77 106 
0.39353 0.38706 0.38804 44 77 106 
0.39353 0.29834 0.38989 44 77 106 
0.42626 0.29833 0.38944 44 77 106 
0.77855 0.15597 0.1405 60 97 52 
0.70874 0.15547 0.14051 60 97 52 
0.70874 0.15614 0.17307 60 97 52 
0.77855 0.15664 0.17306 60 97 52 
0.4014 0.36767 0.37413 124 83 45 
0.40131 0.36772 0.29566 124 83 45 
0.41816 0.39656 0.29566 124 83 45 
0.41824 0.39651 0.37413 124 83 45 
0.39045 0.52358 0.20827 124 45 123 
0.39127 0.52264 0.024112 124 45 123 
0.41069 0.53955 0.024112 124 45 123 
0.40987 0.54049 0.20827 124 45 123 
0.54289 0.54059 0.17998 45 94 124 
0.54246 0.53977 0.14272 45 94 124 
0.55231 0.53469 0.14272 45 94 124 
0.55273 0.53551 0.17998 45 94 124 
0.12521 0.40943 0.19459 124 83 45 
0.12438 0.16947 0.19506 124 83 45 
0.13476 0.16947 0.21329 124 83 45 
0.13558 0.40943 0.21282 124 83 45 
0.96807 0.15612 0.60502 60 97 52 
0.83847 0.15519 0.60504 60 97 52 
0.83847 0.1471 0.21184 60 97 52 
0.96807 0.14803 0.21182 60 97 52 
0.39549 0.33098 0.38924 78 51 85 
0.40742 0.25477 0.36409 78 51 85 
0.47058 0.25477 0.39407 78 51 85 
0.45865 0.33098 0.41921 78 51 85 
0.49675 0.071151 0.040847 44 77 106 
0.45286 0.071163 0.041449 44 77 106 
0.45286 0.056427 0.041756 44 77 106 
0.49675 0.056415 0.041154 44 77 106 
0.96507 0.2849 0.19696 79 51 85 
0.96594 0.16018 0.19695 79 51 85 
0.97203 0.16018 0.63427 79 51 85 
0.97116 0.2849 0.63428 79 51 85 
0.96039 0.36709 0.093456 79 51 85 
0.96097 0.28415 0.093448 79 51 85 
0.96209 0.28415 0.17408 79 51 85 
0.96151 0.36709 0.17409 79 51 85 
0.40676 0.12498 0.14791 79 51 85 
0.40689 0.1062 0.14791 79 51 85 
0.40732 0.1062 0.1784 79 51 85 
0.40719 0.12498 0.1784 79 51 85 
0.47004 0.24678 0.36079 60 97 52 
0.44281 0.24658 0.36079 60 97 52 
0.44281 0.24685 0.37397 60 97 52 
0.47004 0.24705 0.37397 60 97 52 
0.48034 0.25249 0.29622 60 97 52 
0.45908 0.25234 0.29623 60 97 52 
0.45908 0.25312 0.33424 60 97 52 
0.48034 0.25327 0.33424 60 97 52 
0.1373 0.31163 0.25417 60 97 52 
0.13066 0.31159 0.25417 60 97 52 
0.13066 0.31062 0.20738 60 97 52 
0.1373 0.31067 0.20738 60 97 52 
0.58626 0.51018 0.16815 51 82 85 
0.58525 0.50953 0.11561 51 82 85 
0.57719 0.52203 0.11561 51 82 85 
0.5782 0.52268 0.16815 51 82 85 
0.044784 0.54781 0.049019 79 51 85 
0.044939 0.5257 0.049017 79 51 85 
0.045432 0.5257 0.084419 79 51 85 
0.045277 0.54781 0.084421 79 51 85 
0.45903 0.60196 0.0080296 79 51 85 
0.45907 0.59581 0.008029 79 51 85 
0.45953 0.59581 0.040724 79 51 85 
0.45948 0.60196 0.040724 79 51 85 
0.4389 0.25317 0.35873 62 44 120 
0.43768 0.25196 0.28804 62 44 120 
0.40618 0.28385 0.28804 62 44 120 
0.40741 0.28506 0.35873 62 44 120 
0.97712 0.28904 0.17074 124 45 123 
0.97766 0.28842 0.049833 124 45 123 
0.96941 0.28124 0.049833 124 45 123 
0.96887 0.28185 0.17074 124 45 123 
0.92005 0.26513 0.70219 60 97 52 
0.88604 0.26488 0.70219 60 97 52 
0.88604 0.26421 0.66963 60 97 52 
0.92005 0.26446 0.66963 60 97 52 
0.8796 0.23847 0.48691 60 97 52 
0.8401 0.23819 0.48692 60 97 52 
0.8401 0.23913 0.53262 60 97 52 
0.8796 0.23941 0.53262 60 97 52 
0.49641 0.054018 0.028624 60 97 52 
0.44921 0.053679 0.028631 60 97 52 
0.44921 0.053955 0.042009 60 97 52 
0.49641 0.054293 0.042002 60 97 52 
0.022768 0.19548 0.064319 60 97 52 
0.00048056 0.19532 0.064323 60 97 52 
0.00048056 0.19707 0.14954 60 97 52 
0.022768 0.19723 0.14954 60 97 52 
0.88219 0.52481 0.19266 60 97 52 
0.56159 0.52252 0.19271 60 97 52 
0.56159 0.52286 0.20961 60 97 52 
0.88219 0.52516 0.20957 60 97 52 
0.81412 0.52151 0.0050842 60 97 52 
0.77402 0.52122 0.0050901 60 97 52 
0.77402 0.52267 0.075528 60 97 52 
0.81412 0.52296 0.075522 60 97 52 
0.89923 0.19476 0.69213 79 51 85 
0.89937 0.17416 0.69213 79 51 85 
0.89905 0.17416 0.66907 79 51 85 
0.89891 0.19476 0.66908 79 51 85 
0.54336 0.59753 0.0043027 60 97 52 
0.47052 0.59701 0.0043134 60 97 52 
0.47052 0.59729 0.018045 60 97 52 
0.54336 0.59781 0.018035 60 97 52 
0.96896 0.49155 0.15797 83 85 51 
0.97106 0.29288 0.16166 83 85 51 
0.94339 0.29288 0.17741 83 85 51 
0.94129 0.49155 0.17372 83 85 51 
0.83407 0.53297 -0.00063261 102 55 43 
0.8313 0.51638 0.0022305 102 55 43 
0.85028 0.51638 0.020621 102 55 43 
0.85306 0.53297 0.017758 102 55 43 
0.13048 0.27797 0.26424 79 51 85 
0.13067 0.2502 0.26424 79 51 85 
0.13087 0.2502 0.27854 79 51 85 
0.13067 0.27797 0.27854 79 51 85 
0.86977 0.23187 0.54611 44 77 106 
0.84002 0.23188 0.54652 44 77 106 
0.84002 0.21599 0.54685 44 77 106 
0.86977 0.21598 0.54644 44 77 106 
0.87956 0.14125 0.025512 44 77 106 
0.75401 0.14128 0.027232 44 77 106 
0.75401 0.085891 0.028385 44 77 106 
0.87956 0.085855 0.026665 44 77 106 
0.21705 0.52523 0.09422 44 77 106 
0.18782 0.52524 0.094621 44 77 106 
0.18782 0.5168 0.094797 44 77 106 
0.21705 0.51679 0.094396 44 77 106 
0.55115 0.069231 0.21972 44 77 106 
0.54614 0.069232 0.21979 44 77 106 
0.54614 0.14041 0.21831 44 77 106 
0.55115 0.14041 0.21824 44 77 106 
0.85052 0.21554 0.44925 60 97 52 
0.83929 0.21546 0.44925 60 97 52 
0.83929 0.21413 0.38435 60 97 52 
0.85052 0.21421 0.38435 60 97 52 
0.96924 0.28637 0.57278 124 83 45 
0.96878 0.15337 0.57304 124 83 45 
0.9758 0.15337 0.58537 124 83 45 
0.97625 0.28637 0.58511 124 83 45 
0.24901 0.1315 0.092428 60 97 52 
0.20148 0.13116 0.092435 60 97 52 
0.20148 0.13021 0.046294 60 97 52 
0.24901 0.13055 0.046287 60 97 52 
0.87607 0.2131 0.69173 60 97 52 
0.85971 0.21299 0.69173 60 97 52 
0.85971 0.21249 0.66737 60 97 52 
0.87607 0.2126 0.66737 60 97 52 
0.91583 0.17266 0.45591 60 97 52 
0.90004 0.17255 0.45591 60 97 52 
0.90004 0.17124 0.39239 60 97 52 
0.91583 0.17135 0.39238 60 97 52 
0.9738 0.14698 0.49723 73 43 102 
0.97384 0.13619 0.49722 73 43 102 
0.97073 0.13619 0.48038 73 43 102 
0.9707 0.14698 0.48039 73 43 102 
0.89029 0.18375 0.54436 43 102 76 
0.89014 0.1551 0.54447 43 102 76 
0.8835 0.1551 0.53549 43 102 76 
0.88365 0.18375 0.53538 43 102 76 
0.52432 0.26629 0.37363 124 83 45 
0.52427 0.26631 0.35868 124 83 45 
0.54125 0.30396 0.35868 124 83 45 
0.5413 0.30393 0.37363 124 83 45 
0.096577 0.52129 0.090905 107 63 90 
0.068108 0.52134 0.090947 107 63 90 
0.068108 0.53431 0.07315 107 63 90 
0.096577 0.53425 0.073108 107 63 90 
0.90702 0.17449 0.060181 60 97 52 
0.8952 0.1744 0.060183 60 97 52 
0.8952 0.17533 0.10557 60 97 52 
0.90702 0.17542 0.10557 60 97 52 
0.91405 0.15327 0.41114 60 97 52 
0.88289 0.15305 0.41114 60 97 52 
0.88289 0.15206 0.36315 60 97 52 
0.91405 0.15228 0.36315 60 97 52 
0.21638 0.51604 0.097469 60 97 52 
0.19008 0.51585 0.097473 60 97 52 
0.19008 0.51675 0.14099 60 97 52 
0.21638 0.51694 0.14098 60 97 52 
0.6093 0.52927 0.015385 79 51 85 
0.60937 0.51986 0.015385 79 51 85 
0.60983 0.51986 0.048868 79 51 85 
0.60977 0.52927 0.048869 79 51 85 
0.45078 0.25108 0.28598 60 97 52 
0.4324 0.25095 0.28598 60 97 52 
0.4324 0.25248 0.36006 60 97 52 
0.45078 0.25261 0.36006 60 97 52 
0.029669 0.54669 0.071008 79 51 85 
0.029835 0.52306 0.071006 79 51 85 
0.030595 0.52306 0.12563 79 51 85 
0.03043 0.54669 0.12563 79 51 85 
0.90343 0.23166 0.86056 79 51 85 
0.90359 0.2089 0.86056 79 51 85 
0.90403 0.2089 0.89264 79 51 85 
0.90387 0.23166 0.89264 79 51 85 
0.87161 0.19867 0.54132 60 97 52 
0.83958 0.19844 0.54133 60 97 52 
0.83958 0.19715 0.4785 60 97 52 
0.87161 0.19738 0.4785 60 97 52 
0.4004 0.52263 0.20152 44 77 106 
0.13094 0.5227 0.20521 44 77 106 
0.13094 0.52962 0.20507 44 77 106 
0.4004 0.52955 0.20137 44 77 106 
0.40458 0.60092 0.073514 124 45 123 
0.40486 0.60061 0.011463 124 45 123 
0.39017 0.58782 0.011463 124 45 123 
0.38989 0.58813 0.073514 124 45 123 
0.85793 0.18006 0.58648 79 51 85 
0.85813 0.15228 0.58648 79 51 85 
0.85849 0.15228 0.61278 79 51 85 
0.8583 0.18006 0.61278 79 51 85 
0.85787 0.19733 0.45125 60 97 52 
0.83937 0.1972 0.45125 60 97 52 
0.83937 0.19583 0.3847 60 97 52 
0.85787 0.19596 0.3847 60 97 52 
0.021069 0.53175 0.13275 79 51 85 
0.022301 0.3553 0.13274 79 51 85 
0.022454 0.3553 0.1437 79 51 85 
0.021221 0.53175 0.14372 79 51 85 
0.15508 0.12971 0.051799 44 77 106 
0.022747 0.12975 0.053613 44 77 106 
0.022747 0.13799 0.053442 44 77 106 
0.15508 0.13796 0.051628 44 77 106 
0.47339 0.21769 0.26029 79 51 85 
0.47443 0.068878 0.26027 79 51 85 
0.47464 0.068878 0.275 79 51 85 
0.4736 0.21769 0.27501 79 51 85 
0.85553 0.23106 0.52151 79 51 85 
0.85577 0.19732 0.52151 79 51 85 
0.8552 0.19732 0.48091 79 51 85 
0.85496 0.23106 0.48091 79 51 85 
0.39624 0.3467 0.35912 79 51 85 
0.39659 0.29603 0.35912 79 51 85 
0.3968 0.29603 0.37383 79 51 85 
0.39644 0.3467 0.37383 79 51 85 
0.39498 0.57637 0.036424 79 51 85 
0.39524 0.53954 0.036421 79 51 85 
0.395 0.53954 0.019267 79 51 85 
0.39474 0.57637 0.01927 79 51 85 
0.94823 0.23426 0.66963 79 51 85 
0.94841 0.20861 0.66963 79 51 85 
0.94885 0.20861 0.70108 79 51 85 
0.94867 0.23426 0.70108 79 51 85 
0.6052 0.15487 0.1161 60 97 52 
0.57995 0.15469 0.1161 60 97 52 
0.57995 0.15573 0.16654 60 97 52 
0.6052 0.15591 0.16654 60 97 52 
0.87048 0.24985 0.56616 79 51 85 
0.87074 0.21259 0.56616 79 51 85 
0.87092 0.21259 0.5795 79 51 85 
0.87066 0.24985 0.57951 79 51 85 
0.91191 0.28394 0.54609 61 97 52 
0.91229 0.25393 0.54657 61 97 52 
0.92544 0.25393 0.53593 61 97 52 
0.92506 0.28394 0.53545 61 97 52 
0.9142 0.17434 0.52654 63 70 107 
0.91744 0.16495 0.48687 63 70 107 
0.89972 0.15884 0.48687 63 70 107 
0.89649 0.16823 0.52654 63 70 107 
0.43058 0.60276 0.021884 124 83 45 
0.43055 0.59539 0.021903 124 83 45 
0.44729 0.59539 0.04889 124 83 45 
0.44732 0.60276 0.048872 124 83 45 
0.096359 0.14614 0.05462 60 97 52 
0.043439 0.14576 0.054628 60 97 52 
0.043439 0.14739 0.13374 60 97 52 
0.096359 0.14777 0.13373 60 97 52 
0.95204 0.24116 0.3909 79 51 85 
0.95216 0.22483 0.39089 79 51 85 
0.95305 0.22483 0.4552 79 51 85 
0.95294 0.24116 0.4552 79 51 85 
0.99087 0.13973 0.48105 60 97 52 
0.97474 0.13962 0.48106 60 97 52 
0.97474 0.1404 0.51922 60 97 52 
0.99087 0.14052 0.51922 60 97 52 
0.939 0.50668 0.17777 45 94 124 
0.93726 0.50282 0.005863 45 94 124 
0.90007 0.51959 0.005863 45 94 124 
0.9018 0.52344 0.17777 45 94 124 
0.46827 0.079457 0.26005 79 51 85 
0.46834 0.0696 0.26005 79 51 85 
0.46864 0.0696 0.28126 79 51 85 
0.46857 0.079457 0.28126 79 51 85 
0.55412 0.59811 0.20425 102 56 43 
0.5542 0.59217 0.20434 102 56 43 
0.48499 0.59217 0.2555 102 56 43 
0.48492 0.59811 0.2554 102 56 43 
0.96935 0.1995 0.54151 44 77 106 
0.93905 0.19951 0.54192 44 77 106 
0.93905 0.20681 0.54177 44 77 106 
0.96935 0.2068 0.54136 44 77 106 
0.55809 0.59387 0.20146 44 77 106 
0.55114 0.59388 0.20155 44 77 106 
0.55114 0.52413 0.20301 44 77 106 
0.55809 0.52413 0.20291 44 77 106 
0.95152 0.21717 0.3909 79 51 85 
0.95165 0.19964 0.3909 79 51 85 
0.95255 0.19964 0.45562 79 51 85 
0.95243 0.21717 0.45562 79 51 85 
0.9478 0.23554 0.52373 79 51 85 
0.94803 0.20202 0.52372 79 51 85 
0.94755 0.20202 0.48917 79 51 85 
0.94732 0.23554 0.48918 79 51 85 
0.095132 0.52407 0.13331 60 97 52 
0.065962 0.52386 0.13332 60 97 52 
0.065962 0.5235 0.11594 60 97 52 
0.095132 0.52371 0.11594 60 97 52 
0.3905 0.14755 0.2232 85 107 63 
0.259 0.14632 0.22479 85 107 63 
0.259 0.13588 0.2167 85 107 63 
0.3905 0.13711 0.2151 85 107 63 
0.79232 0.51965 0.1679 124 83 45 
0.79229 0.51967 0.15015 124 83 45 
0.78587 0.50732 0.15015 124 83 45 
0.78591 0.5073 0.1679 124 83 45 
0.7668 0.51151 0.075616 60 97 52 
0.7634 0.51767 0.0068974 60 97 52 
0.78223 0.52807 0.0068974 60 97 52 
0.78563 0.52192 0.075617 60 97 52 
0.018506 0.19286 0.059787 124 83 45 
0.018327 0.14088 0.059889 124 83 45 
0.024663 0.14088 0.071022 124 83 45 
0.024842 0.19286 0.07092 124 83 45 
0.028919 0.52397 0.14167 124 45 123 
0.029133 0.52372 0.093446 124 45 123 
0.038435 0.53182 0.093446 124 45 123 
0.038221 0.53207 0.14167 124 45 123 
0.88531 0.28284 0.53056 124 83 45 
0.88515 0.23656 0.53065 124 83 45 
0.89267 0.23656 0.54386 124 83 45 
0.89283 0.28284 0.54377 124 83 45 
0.86008 0.23983 0.70329 79 51 85 
0.86032 0.20479 0.70329 79 51 85 
0.85967 0.20479 0.65631 79 51 85 
0.85943 0.23983 0.65631 79 51 85 
0.60815 0.15632 0.11418 79 51 85 
0.60822 0.14624 0.11418 79 51 85 
0.60896 0.14624 0.16705 79 51 85 
0.60889 0.15632 0.16705 79 51 85 
0.48027 0.29515 0.39145 44 77 106 
0.48055 0.24398 0.39252 44 77 106 
0.53681 0.24398 0.37759 44 77 106 
0.53653 0.29515 0.37652 44 77 106 
0.6099 0.51129 0.1659 60 97 52 
0.5842 0.5111 0.16591 60 97 52 
0.5842 0.51012 0.11827 60 97 52 
0.6099 0.51031 0.11826 60 97 52 
0.95918 0.28303 0.62097 124 83 45 
0.95912 0.26457 0.62101 124 83 45 
0.93964 0.26457 0.58679 124 83 45 
0.9397 0.28303 0.58675 124 83 45 
0.020338 0.16003 0.063988 79 51 85 
0.020485 0.139 0.063986 79 51 85 
0.022613 0.139 0.21682 79 51 85 
0.022466 0.16003 0.21683 79 51 85 
0.87289 0.23703 0.54038 60 97 52 
0.84152 0.23681 0.54039 60 97 52 
0.84152 0.23647 0.52376 60 97 52 
0.87289 0.23669 0.52376 60 97 52 
0.12965 0.1344 0.22418 44 77 106 
0.025854 0.13443 0.2256 44 77 106 
0.025854 0.13949 0.22549 44 77 106 
0.12965 0.13946 0.22407 44 77 106 
0.57853 0.15619 0.11421 79 51 85 
0.5786 0.14584 0.11421 79 51 85 
0.57933 0.14584 0.16669 79 51 85 
0.57926 0.15619 0.16669 79 51 85 
0.85134 0.22823 0.38569 44 77 106 
0.83967 0.22823 0.38585 44 77 106 
0.83967 0.19609 0.38652 44 77 106 
0.85134 0.19609 0.38636 44 77 106 
0.50085 0.24689 0.28283 60 97 52 
0.45615 0.24657 0.28284 60 97 52 
0.45615 0.24843 0.3734 60 97 52 
0.50085 0.24875 0.3734 60 97 52 
0.54052 0.35301 0.37621 83 85 51 
0.54111 0.29736 0.37725 83 85 51 
0.47278 0.29736 0.41614 83 85 51 
0.4722 0.35301 0.4151 83 85 51 
0.54826 0.27696 0.37589 44 77 106 
0.50166 0.27697 0.37652 44 77 106 
0.50166 0.41292 0.37369 44 77 106 
0.54826 0.41291 0.37306 44 77 106 
0.9266 0.26738 0.48294 60 97 52 
0.89706 0.26716 0.48294 60 97 52 
0.89706 0.26797 0.52224 60 97 52 
0.9266 0.26818 0.52223 60 97 52 
0.38865 0.14073 0.036555 124 83 45 
0.38841 0.069101 0.036695 124 83 45 
0.40382 0.069101 0.063782 124 83 45 
0.40407 0.14073 0.063641 124 83 45 
0.57407 0.024962 0.026245 60 97 52 
0.55039 0.024792 0.026248 60 97 52 
0.55039 0.024946 0.033715 60 97 52 
0.57407 0.025116 0.033711 60 97 52 
0.96879 0.20732 0.54559 124 83 45 
0.93834 0.20725 0.54604 124 83 45 
0.93834 0.22056 0.54815 124 83 45 
0.96879 0.22064 0.5477 124 83 45 
0.9006 0.51083 0.15675 60 97 52 
0.88824 0.51074 0.15675 60 97 52 
0.88824 0.51039 0.14003 60 97 52 
0.9006 0.51048 0.14003 60 97 52 
0.9242 0.28242 0.4541 44 77 106 
0.91086 0.28243 0.45428 44 77 106 
0.91086 0.26221 0.4547 44 77 106 
0.9242 0.2622 0.45452 44 77 106 
0.94913 0.22506 0.66774 60 97 52 
0.92747 0.2249 0.66774 60 97 52 
0.92747 0.22534 0.68915 60 97 52 
0.94913 0.2255 0.68914 60 97 52 
0.0030323 0.20906 0.06408 79 51 85 
0.003117 0.19694 0.064079 79 51 85 
0.0039188 0.19694 0.12166 79 51 85 
0.0038341 0.20906 0.12166 79 51 85 
0.47654 0.4162 0.33594 44 77 106 
0.4502 0.41621 0.3363 44 77 106 
0.4502 0.40277 0.33658 44 77 106 
0.47654 0.40276 0.33622 44 77 106 
0.91562 0.22701 0.54073 44 77 106 
0.89396 0.22701 0.54103 44 77 106 
0.89396 0.20618 0.54146 44 77 106 
0.91562 0.20618 0.54116 44 77 106 
0.35697 0.52351 0.11428 79 51 85 
0.35704 0.51359 0.11428 79 51 85 
0.35776 0.51359 0.16559 79 51 85 
0.35769 0.52351 0.16559 79 51 85 
0.95053 0.47702 0.0055199 44 77 106 
0.90463 0.47703 0.0061492 44 77 106 
0.90463 0.52818 0.0050845 44 77 106 
0.95053 0.52816 0.0044552 44 77 106 
0.45396 0.41208 0.27482 60 97 52 
0.43576 0.41195 0.27482 60 97 52 
0.43576 0.41398 0.37341 60 97 52 
0.45396 0.41411 0.37341 60 97 52 
0.55295 0.59673 0.0097994 79 51 85 
0.5531 0.57458 0.0097972 79 51 85 
0.55509 0.57458 0.15229 79 51 85 
0.55493 0.59673 0.1523 79 51 85 
0.91865 0.18214 0.54813 44 77 106 
0.89046 0.18215 0.54852 44 77 106 
0.89046 0.15365 0.54911 44 77 106 
0.91865 0.15364 0.54873 44 77 106 
0.83932 0.15677 0.27962 44 77 106 
0.82178 0.15678 0.27986 44 77 106 
0.82178 0.24158 0.2781 44 77 106 
0.83932 0.24158 0.27786 44 77 106 
0.98139 0.29049 0.092402 60 97 52 
0.96946 0.2904 0.092404 60 97 52 
0.96946 0.28948 0.04748 60 97 52 
0.98139 0.28956 0.047478 60 97 52 
0.48066 0.25576 0.33629 62 44 120 
0.47993 0.25513 0.29628 62 44 120 
0.4858 0.2484 0.29628 62 44 120 
0.48652 0.24903 0.33629 62 44 120 
0.18454 0.14837 0.10042 79 51 85 
0.1846 0.13947 0.10042 79 51 85 
0.18527 0.13947 0.14817 79 51 85 
0.1852 0.14837 0.14817 79 51 85 
0.43212 0.59731 0.010317 60 97 52 
0.41343 0.59718 0.01032 60 97 52 
0.41343 0.59845 0.072052 60 97 52 
0.43212 0.59858 0.072049 60 97 52 
0.61166 0.51068 0.16403 79 51 85 
0.57922 0.51049 0.1645 79 51 85 
0.57922 0.52274 0.16941 79 51 85 
0.61166 0.52293 0.16894 79 51 85 
0.96051 0.17374 0.6272 124 83 45 
0.96044 0.15475 0.62723 124 83 45 
0.93571 0.15475 0.58376 124 83 45 
0.93577 0.17374 0.58373 124 83 45 
0.95516 0.22879 0.49252 79 51 85 
0.95525 0.21557 0.49252 79 51 85 
0.95546 0.21557 0.50796 79 51 85 
0.95537 0.22879 0.50796 79 51 85 
0.53937 0.33289 0.31672 79 51 85 
0.5396 0.29923 0.31672 79 51 85 
0.54041 0.29923 0.37467 79 51 85 
0.54018 0.33289 0.37467 79 51 85 
0.21496 0.52393 0.098048 79 51 85 
0.21502 0.51494 0.098047 79 51 85 
0.21563 0.51494 0.14182 79 51 85 
0.21557 0.52393 0.14182 79 51 85 
0.76248 0.5197 0.011204 44 77 106 
0.613 0.51974 0.013253 44 77 106 
0.613 0.53438 0.012948 44 77 106 
0.76248 0.53434 0.010899 44 77 106 
0.89026 0.17043 0.45774 102 56 43 
0.89014 0.15192 0.45786 102 56 43 
0.87888 0.15192 0.44675 102 56 43 
0.87901 0.17043 0.44663 102 56 43 
0.96699 0.21529 0.39396 60 97 52 
0.95935 0.21523 0.39396 60 97 52 
0.95935 0.2163 0.44589 60 97 52 
0.96699 0.21636 0.44588 60 97 52 
0.97051 0.28284 0.63515 120 44 48 
0.95556 0.28267 0.63526 120 44 48 
0.95556 0.25045 0.58567 120 44 48 
0.97051 0.25062 0.58556 120 44 48 
0.94403 0.48652 0.16867 44 77 106 
0.93355 0.48652 0.16881 44 77 106 
0.93355 0.50196 0.16849 44 77 106 
0.94403 0.50196 0.16835 44 77 106 
0.76311 0.52058 0.17589 107 63 89 
0.73122 0.52026 0.17624 107 63 89 
0.73122 0.51278 0.1695 107 63 89 
0.76311 0.51311 0.16915 107 63 89 
0.34817 0.14179 0.16705 62 44 120 
0.3473 0.14102 0.11887 62 44 120 
0.34018 0.1492 0.11887 62 44 120 
0.34105 0.14996 0.16705 62 44 120 
0.91075 0.26321 0.66811 79 51 85 
0.9109 0.24203 0.6681 79 51 85 
0.91121 0.24203 0.69005 79 51 85 
0.91106 0.26321 0.69005 79 51 85 
0.49181 0.31113 0.40533 79 51 85 
0.45118 0.3109 0.40592 79 51 85 
0.45118 0.24095 0.3779 79 51 85 
0.49181 0.24119 0.37732 79 51 85 
0.47661 0.40897 0.30774 44 77 106 
0.45235 0.40898 0.30807 44 77 106 
0.45235 0.41476 0.30795 44 77 106 
0.47661 0.41475 0.30762 44 77 106 
0.55276 0.53583 0.1806 44 77 106 
0.54365 0.53583 0.18072 44 77 106 
0.54365 0.56066 0.1802 44 77 106 
0.55276 0.56065 0.18008 44 77 106 
0.92576 0.17252 0.52585 60 97 52 
0.88275 0.17221 0.52585 60 97 52 
0.88275 0.17134 0.48379 60 97 52 
0.92576 0.17165 0.48378 60 97 52 
0.41825 0.27305 0.3599 79 51 85 
0.41838 0.25473 0.3599 79 51 85 
0.41861 0.25473 0.37673 79 51 85 
0.41848 0.27305 0.37673 79 51 85 
0.97163 0.28784 0.044222 79 51 85 
0.97219 0.20763 0.044214 79 51 85 
0.97239 0.20763 0.058236 79 51 85 
0.97183 0.28784 0.058243 79 51 85 
0.40104 0.5606 0.081303 57 57 57 
0.38924 0.56062 0.081446 57 57 57 
0.38924 0.59776 0.074385 57 57 57 
0.40104 0.59773 0.074241 57 57 57 
0.27905 0.52431 0.034048 120 44 48 
0.2592 0.52438 0.034123 120 44 48 
0.2592 0.5337 0.025208 120 44 48 
0.27905 0.53362 0.025132 120 44 48 
0.89925 0.2627 0.45385 44 77 106 
0.88546 0.26271 0.45404 44 77 106 
0.88546 0.28067 0.45367 44 77 106 
0.89925 0.28066 0.45348 44 77 106 
0.6006 0.53459 0.010345 83 85 51 
0.60071 0.52311 0.010566 83 85 51 
0.57531 0.52311 0.02334 83 85 51 
0.5752 0.53459 0.023119 83 85 51 
0.96815 0.23533 0.54412 44 77 106 
0.93486 0.23534 0.54458 44 77 106 
0.93486 0.22285 0.54484 44 77 106 
0.96815 0.22284 0.54438 44 77 106 
0.55679 0.56858 0.013714 79 51 85 
0.55689 0.55428 0.013713 79 51 85 
0.55723 0.55428 0.037462 79 51 85 
0.55713 0.56858 0.037464 79 51 85 
0.45759 0.27519 0.29583 79 51 85 
0.45778 0.2478 0.29583 79 51 85 
0.45841 0.2478 0.3406 79 51 85 
0.45822 0.27519 0.3406 79 51 85 
0.12654 0.52908 0.19549 120 44 48 
0.126 0.44173 0.19598 120 44 48 
0.1364 0.44173 0.20753 120 44 48 
0.13695 0.52908 0.20704 120 44 48 
0.90331 0.2548 0.54532 44 77 106 
0.89007 0.2548 0.54551 44 77 106 
0.89007 0.28397 0.5449 44 77 106 
0.90331 0.28397 0.54472 44 77 106 
0.93741 0.28385 0.59073 60 97 52 
0.84229 0.28317 0.59074 60 97 52 
0.84229 0.28293 0.57937 60 97 52 
0.93741 0.28362 0.57936 60 97 52 
0.47829 0.41253 0.29829 60 97 52 
0.45134 0.41234 0.2983 60 97 52 
0.45134 0.41217 0.29049 60 97 52 
0.47829 0.41237 0.29048 60 97 52 
0.42255 0.26146 0.37506 120 44 48 
0.42233 0.26109 0.35784 120 44 48 
0.44971 0.24475 0.35784 120 44 48 
0.44993 0.24511 0.37506 120 44 48 
0.86812 0.16866 0.62673 120 44 48 
0.86778 0.16814 0.60195 120 44 48 
0.85383 0.17747 0.60195 120 44 48 
0.85418 0.17798 0.62673 120 44 48 
0.57528 0.51886 0.053333 62 44 120 
0.57864 0.522 0.02091 62 44 120 
0.57099 0.53018 0.02091 62 44 120 
0.56763 0.52704 0.053333 62 44 120 
0.029971 0.34346 0.10201 79 51 85 
0.030116 0.3227 0.102 79 51 85 
0.030524 0.3227 0.13134 79 51 85 
0.030379 0.34346 0.13134 79 51 85 
0.89009 0.17216 0.44993 60 97 52 
0.88122 0.1721 0.44993 60 97 52 
0.88122 0.17091 0.39206 60 97 52 
0.89009 0.17097 0.39205 60 97 52 
0.85776 0.20988 0.51398 62 44 120 
0.85738 0.20955 0.49278 62 44 120 
0.8479 0.22043 0.49278 62 44 120 
0.84829 0.22076 0.51398 62 44 120 
0.09872 0.52676 0.12896 124 45 123 
0.098914 0.52654 0.08542 124 45 123 
0.092762 0.52118 0.08542 124 45 123 
0.092569 0.5214 0.12896 124 45 123 
0.93496 0.51882 0.17277 44 77 106 
0.93505 0.50275 0.1731 44 77 106 
0.90577 0.50275 0.18087 44 77 106 
0.90568 0.51882 0.18054 44 77 106 
0.51652 0.39989 0.36918 46 120 44 
0.53155 0.35854 0.35697 46 120 44 
0.54354 0.35854 0.37173 46 120 44 
0.52852 0.39989 0.38394 46 120 44 
0.27356 0.51594 0.21997 60 97 52 
0.2489 0.51576 0.21998 60 97 52 
0.2489 0.51545 0.20477 60 97 52 
0.27356 0.51562 0.20477 60 97 52 
0.55389 0.59721 0.0056704 60 97 52 
0.52228 0.59699 0.0056751 60 97 52 
0.52228 0.59802 0.056133 60 97 52 
0.55389 0.59825 0.056128 60 97 52 
0.22031 0.52334 0.14338 60 97 52 
0.18829 0.52311 0.14339 60 97 52 
0.18829 0.52207 0.09277 60 97 52 
0.22031 0.5223 0.092765 60 97 52 
0.9012 0.28479 0.38861 79 51 85 
0.90128 0.27418 0.38861 79 51 85 
0.90215 0.27418 0.45122 79 51 85 
0.90208 0.28479 0.45122 79 51 85 
0.021229 0.21238 0.1573 60 97 52 
0.0001426 0.21223 0.15731 60 97 52 
0.0001426 0.21189 0.14089 60 97 52 
0.021229 0.21204 0.14088 60 97 52 
0.72697 0.5232 0.16476 61 97 52 
0.71737 0.51881 0.13943 61 97 52 
0.72163 0.50952 0.13943 61 97 52 
0.73122 0.51392 0.16476 61 97 52 
0.51807 0.2618 0.3748 97 83 52 
0.51448 0.26492 0.35788 97 83 52 
0.53376 0.28715 0.35788 97 83 52 
0.53735 0.28403 0.3748 97 83 52 
0.54505 0.12845 0.17674 60 97 52 
0.53713 0.12839 0.17674 60 97 52 
0.53713 0.12778 0.14697 60 97 52 
0.54505 0.12784 0.14697 60 97 52 
0.94121 0.15846 0.58763 44 77 106 
0.87446 0.15848 0.58855 44 77 106 
0.87446 0.15023 0.58872 44 77 106 
0.94121 0.15021 0.58781 44 77 106 
0.90206 0.16064 0.51148 97 52 62 
0.90653 0.15702 0.48673 97 52 62 
0.91689 0.1698 0.48673 97 52 62 
0.91242 0.17342 0.51148 97 52 62 
0.9179 0.1743 0.039628 79 51 85 
0.91822 0.12848 0.039623 79 51 85 
0.91911 0.12848 0.10343 79 51 85 
0.91879 0.1743 0.10344 79 51 85 
0.90676 0.16519 0.38766 79 51 85 
0.90683 0.15455 0.38765 79 51 85 
0.90769 0.15455 0.44898 79 51 85 
0.90761 0.16519 0.44898 79 51 85 
0.046489 0.54798 0.083626 44 77 106 
0.030777 0.54798 0.083842 44 77 106 
0.030777 0.52628 0.084293 44 77 106 
0.046489 0.52627 0.084078 44 77 106 
0.88065 0.2053 0.53697 60 97 52 
0.84526 0.20505 0.53698 60 97 52 
0.84526 0.20411 0.4915 60 97 52 
0.88065 0.20436 0.49149 60 97 52 
0.90744 0.17034 0.51878 107 63 89 
0.89437 0.17021 0.51882 107 63 89 
0.89437 0.16063 0.4862 107 63 89 
0.90744 0.16077 0.48616 107 63 89 
0.40795 0.12377 0.17797 45 94 124 
0.40758 0.12306 0.14595 45 94 124 
0.39757 0.12824 0.14595 45 94 124 
0.39793 0.12894 0.17797 45 94 124 
0.5443 0.14616 0.043042 79 51 85 
0.54444 0.12583 0.043041 79 51 85 
0.54691 0.12583 0.2203 79 51 85 
0.54676 0.14616 0.2203 79 51 85 
0.13296 0.4287 0.34521 44 77 106 
0.10983 0.42879 0.34543 44 77 106 
0.10983 0.44533 0.33865 44 77 106 
0.13296 0.44524 0.33843 44 77 106 
0.97028 0.24301 0.54329 90 106 44 
0.97001 0.24312 0.48248 90 106 44 
0.96421 0.22883 0.48248 90 106 44 
0.96448 0.22872 0.54329 90 106 44 
0.39782 0.60032 0.19841 57 57 57 
0.39839 0.53915 0.19959 57 57 57 
0.39274 0.53915 0.20233 57 57 57 
0.39216 0.60032 0.20114 57 57 57 
0.56632 0.024193 0.030913 106 75 44 
0.52252 0.024205 0.031513 106 75 44 
0.52252 0.05288 0.03091 106 75 44 
0.56632 0.052867 0.03031 106 75 44 
0.90782 0.28377 0.44364 62 44 120 
0.90676 0.28285 0.38541 62 44 120 
0.91075 0.27827 0.38541 62 44 120 
0.91181 0.27919 0.44364 62 44 120 
0.5628 0.58292 0.009071 124 83 45 
0.54528 0.58436 0.013151 124 83 45 
0.54528 0.60025 0.0075553 124 83 45 
0.5628 0.59882 0.0034755 124 83 45 
0.88164 0.52067 0.0052669 44 77 106 
0.86279 0.52068 0.0055253 44 77 106 
0.86279 0.5328 0.005273 44 77 106 
0.88164 0.53279 0.0050146 44 77 106 
0.41122 0.2789 0.37497 44 77 106 
0.39139 0.27891 0.37524 44 77 106 
0.39139 0.37169 0.37331 44 77 106 
0.41122 0.37168 0.37304 44 77 106 
0.47825 0.24893 0.30505 60 97 52 
0.44135 0.24866 0.30505 60 97 52 
0.44135 0.24821 0.2829 60 97 52 
0.47825 0.24847 0.2829 60 97 52 
0.97396 0.28333 0.15909 124 45 123 
0.97329 0.2835 0.073411 124 45 123 
0.97684 0.29726 0.073411 124 45 123 
0.9775 0.29709 0.15909 124 45 123 
4 0 1 2 3
4 4 5 6 7
4 8 9 10 11
4 12 13 14 15
4 16 17 18 19
4 20 21 22 23
4 24 25 26 27
4 28 29 30 31
4 32 33 34 35
4 36 37 38 39
4 40 41 42 43
4 44 45 46 47
4 48 49 50 51
4 52 53 54 55
4 56 57 58 59
4 60 61 62 63
4 64 65 66 67
4 68 69 70 71
4 72 73 74 75
4 76 77 78 79
4 80 81 82 83
4 84 85 86 87
4 88 89 90 91
4 92 93 94 95
4 96 97 98 99
4 100 101 102 103
4 104 105 106 107
4 108 109 110 111
4 112 113 114 115
4 116 117 118 119
4 120 121 122 123
4 124 125 126 127
4 128 129 130 131
4 132 133 134 135
4 136 137 138 139
4 140 141 142 143
4 144 145 146 147
4 148 149 150 151
4 152 153 154 155
4 156 157 158 159
4 160 161 162 163
4 164 165 166 167
4 168 169 170 171
4 172 173 174 175
4 176 177 178 179
4 180 181 182 183
4 184 185 186 187
4 188 189 190 191
4 192 193 194 195
4 196 197 198 199
4 200 201 202 203
4 204 205 206 207
4 208 209 210 211
4 212 213 214 215
4 216 217 218 219
4 220 221 222 223
4 224 225 226 227
4 228 229 230 231
4 232 233 234 235
4 236 237 238 239
4 240 241 242 243
4 244 245 246 247
4 248 249 250 251
4 252 253 254 255
4 256 257 258 259
4 260 261 262 263
4 264 265 266 267
4 268 269 270 271
4 272 273 274 275
4 276 277 278 279
4 280 281 282 283
4 284 285 286 287
4 288 289 290 291
4 292 293 294 295
4 296 297 298 299
4 300 301 302 303
4 304 305 306 307
4 308 309 310 311
4 312 313 314 315
4 316 317 318 319
4 320 321 322 323
4 324 325 326 327
4 328 329 330 331
4 332 333 334 335
4 336 337 338 339
4 340 341 342 343
4 344 345 346 347
4 348 349 350 351
4 352 353 354 355
4 356 357 358 359
4 360 361 362 363
4 364 365 366 367
4 368 369 370 371
4 372 373 374 375
4 376 377 378 379
4 380 381 382 383
4 384 385 386 387
4 388 389 390 391
4 392 393 394 395
4 396 397 398 399
4 400 401 402 403
4 404 405 406 407
4 408 409 410 411
4 412 413 414 415
4 416 417 418 419
4 420 421 422 423
4 424 425 426 427
4 428 429 430 431
4 432 433 434 435
4 436 437 438 439
4 440 441 442 443
4 444 445 446 447
4 448 449 450 451
4 452 453 454 455
4 456 457 458 459
4 460 461 462 463
4 464 465 466 467
4 468 469 470 471
4 472 473 474 475
4 476 477 478 479
4 480 481 482 483
4 484 485 486 487
4 488 489 490 491
4 492 493 494 495
4 496 497 498 499
4 500 501 502 503
4 504 505 506 507
4 508 509 510 511
4 512 513 514 515
4 516 517 518 519
4 520 521 522 523
4 524 525 526 527
4 528 529 530 531
4 532 533 534 535
4 536 537 538 539
4 540 541 542 543
4 544 545 546 547
4 548 549 550 551
4 552 553 554 555
4 556 557 558 559
4 560 561 562 563
4 564 565 566 567
4 568 569 570 571
4 572 573 574 575
4 576 577 578 579
4 580 581 582 583
4 584 585 586 587
4 588 589 590 591
4 592 593 594 595
4 596 597 598 599
4 600 601 602 603
4 604 605 606 607
4 608 609 610 611
4 612 613 614 615
4 616 617 618 619
4 620 621 622 623
4 624 625 626 627
4 628 629 630 631
4 632 633 634 635
4 636 637 638 639
4 640 641 642 643
4 644 645 646 647
4 648 649 650 651
4 652 653 654 655
4 656 657 658 659
4 660 661 662 663
4 664 665 666 667
4 668 669 670 671
4 672 673 674 675
4 676 677 678 679
4 680 681 682 683
4 684 685 686 687
4 688 689 690 691
4 692 693 694 695
4 696 697 698 699
4 700 701 702 703
4 704 705 706 707
4 708 709 710 711
4 712 713 714 715
4 716 717 718 719
4 720 721 722 723
4 724 725 726 727
4 728 729 730 731
4 732 733 734 735
4 736 737 738 739
4 740 741 742 743
4 744 745 746 747
4 748 749 750 751
4 752 753 754 755
4 756 757 758 759
4 760 761 762 763
4 764 765 766 767
4 768 769 770 771
4 772 773 774 775
4 776 777 778 779
4 780 781 782 783
4 784 785 786 787
4 788 789 790 791
4 792 793 794 795
4 796 797 798 799
4 800 801 802 803
4 804 805 806 807
4 808 809 810 811
4 812 813 814 815
4 816 817 818 819
4 820 821 822 823
4 824 825 826 827
4 828 829 830 831
4 832 833 834 835
4 836 837 838 839
4 840 841 842 843
4 844 845 846 847
4 848 849 850 851
4 852 853 854 855
4 856 857 858 859
4 860 861 862 863
4 864 865 866 867
4 868 869 870 871
4 872 873 874 875
4 876 877 878 879
4 880 881 882 883
4 884 885 886 887
4 888 889 890 891
4 892 893 894 895
4 896 897 898 899
4 900 901 902 903
4 904 905 906 907
4 908 909 910 911
4 912 913 914 915
4 916 917 918 919
4 920 921 922 923
4 924 925 926 927
4 928 929 930 931
4 932 933 934 935
4 936 937 938 939
4 940 941 942 943
4 944 945 946 947
4 948 949 950 951
4 952 953 954 955
4 956 957 958 959
4 960 961 962 963
4 964 965 966 967
4 968 969 970 971
4 972 973 974 975
4 976 977 978 979
4 980 981 982 983
4 984 985 986 987
4 988 989 990 991
4 992 993 994 995
4 996 997 998 999
4 1000 1001 1002 1003
4 1004 1005 1006 1007
4 1008 1009 1010 1011
4 1012 1013 1014 1015
4 1016 1017 1018 1019
4 1020 1021 1022 1023
4 1024 1025 1026 1027
4 1028 1029 1030 1031
4 1032 1033 1034 1035
4 1036 1037 1038 1039
4 1040 1041 1042 1043
4 1044 1045 1046 1047
4 1048 1049 1050 1051
4 1052 1053 1054 1055
4 1056 1057 1058 1059
4 1060 1061 1062 1063
4 1064 1065 1066 1067
4 1068 1069 1070 1071
4 1072 1073 1074 1075
4 1076 1077 1078 1079
4 1080 1081 1082 1083
4 1084 1085 1086 1087
4 1088 1089 1090 1091
4 1092 1093 1094 1095
4 1096 1097 1098 1099
4 1100 1101 1102 1103
4 1104 1105 1106 1107
4 1108 1109 1110 1111
4 1112 1113 1114 1115
4 1116 1117 1118 1119
4 1120 1121 1122 1123
4 1124 1125 1126 1127
4 1128 1129 1130 1131
4 1132 1133 1134 1135
4 1136 1137 1138 1139
4 1140 1141 1142 1143
4 1144 1145 1146 1147
4 1148 1149 1150 1151
4 1152 1153 1154 1155
4 1156 1157 1158 1159
4 1160 1161 1162 1163
4 1164 1165 1166 1167
4 1168 1169 1170 1171
4 1172 1173 1174 1175
4 1176 1177 1178 1179
4 1180 1181 1182 1183
4 1184 1185 1186 1187
4 1188 1189 1190 1191
4 1192 1193 1194 1195
4 1196 1197 1198 1199
