ply
format ascii 1.0
comment PCL generated
element vertex 1000
property float x
property float y
property float z
property uchar red
property uchar green
property uchar blue
element face 250
property list uchar int vertex_indices
end_header
0.43206 0.10826 0.49987 60 97 52 
0.43268 0.053508 0.49991 60 97 52 
0.43658 0.053508 0.43367 60 97 52 
0.43596 0.10826 0.43363 60 97 52 
0.43123 0.090425 0.49719 44 77 106 
0.43124 0.090496 0.46047 44 77 106 
0.43989 0.089558 0.46047 44 77 106 
0.43988 0.089487 0.49719 44 77 106 
0.46062 0.14645 0.38403 124 83 45 
0.4326 0.14645 0.38401 124 83 45 
0.4326 0.24452 0.38418 124 83 45 
0.46062 0.24452 0.38419 124 83 45 
0.44037 0.089307 0.58878 79 51 85 
0.44038 0.089374 0.55194 79 51 85 
0.43136 0.09031 0.55194 79 51 85 
0.43135 0.090244 0.58878 79 51 85 
0.46035 0.14207 0.38402 124 83 45 
0.43344 0.14207 0.38401 124 83 45 
0.43344 0.24455 0.38418 124 83 45 
0.46035 0.24455 0.38419 124 83 45 
0.46 0.14702 0.38403 124 83 45 
0.43465 0.14702 0.38401 124 83 45 
0.43465 0.19636 0.3841 124 83 45 
0.46 0.19636 0.38411 124 83 45 
0.30098 0.074415 0.40665 102 56 43 
0.301 0.074415 0.34258 102 56 43 
0.30072 0.10725 0.34258 102 56 43 
0.3007 0.10725 0.40665 102 56 43 
0.4607 0.24787 0.3842 124 83 45 
0.43146 0.24787 0.38418 124 83 45 
0.43146 0.1465 0.38401 124 83 45 
0.4607 0.1465 0.38403 124 83 45 
0.46181 0.19663 0.3656 120 44 48 
0.46193 0.14824 0.36575 120 44 48 
0.45472 0.14824 0.37211 120 44 48 
0.4546 0.19663 0.37196 120 44 48 
0.46024 0.20728 0.40824 79 51 85 
0.46024 0.20734 0.37253 79 51 85 
0.43744 0.20798 0.37253 79 51 85 
0.43744 0.20792 0.40824 79 51 85 
0.43475 0.1082 0.32012 102 56 43 
0.43481 0.1082 0.25113 102 56 43 
0.4351 0.077156 0.25113 102 56 43 
0.43504 0.077156 0.32012 102 56 43 
0.46008 0.24497 0.38419 124 83 45 
0.43074 0.24497 0.38417 124 83 45 
0.43074 0.14637 0.38401 124 83 45 
0.46008 0.14637 0.38403 124 83 45 
0.43878 0.18789 0.27293 102 56 43 
0.43637 0.12337 0.27304 102 56 43 
0.43373 0.12337 0.2148 102 56 43 
0.43614 0.18789 0.21469 102 56 43 
0.46046 0.20725 0.34175 79 51 85 
0.46047 0.20736 0.27835 79 51 85 
0.43392 0.20895 0.27835 79 51 85 
0.43391 0.20884 0.34175 79 51 85 
0.43717 0.19267 0.26437 102 56 43 
0.43763 0.13733 0.26439 102 56 43 
0.43896 0.13733 0.22373 102 56 43 
0.4385 0.19267 0.22372 102 56 43 
0.4572 0.24329 0.38419 124 83 45 
0.43099 0.24329 0.38417 124 83 45 
0.43099 0.1407 0.384 124 83 45 
0.4572 0.1407 0.38402 124 83 45 
0.45757 0.4629 0.22515 107 63 89 
0.45757 0.46294 0.20184 107 63 89 
0.43718 0.46278 0.20184 107 63 89 
0.43718 0.46273 0.22515 107 63 89 
0.45994 0.10779 0.38397 124 83 45 
0.43389 0.10779 0.38395 124 83 45 
0.43389 0.067202 0.38388 124 83 45 
0.45994 0.067202 0.3839 124 83 45 
0.46086 0.11192 0.38397 124 83 45 
0.43169 0.11192 0.38395 124 83 45 
0.43169 0.067753 0.38388 124 83 45 
0.46086 0.067753 0.3839 124 83 45 
0.46133 0.11179 0.38397 124 83 45 
0.43176 0.11179 0.38395 124 83 45 
0.43176 0.067438 0.38388 124 83 45 
0.46133 0.067438 0.3839 124 83 45 
0.43162 0.11173 0.41249 57 57 57 
0.4315 0.052224 0.4109 57 57 57 
0.46021 0.052224 0.40875 57 57 57 
0.46032 0.11173 0.41034 57 57 57 
0.45912 0.11202 0.4188 120 44 48 
0.43419 0.11182 0.41883 120 44 48 
0.43419 0.11018 0.40987 120 44 48 
0.45912 0.11039 0.40983 120 44 48 
0.45762 0.11109 0.38397 124 83 45 
0.43203 0.11109 0.38395 124 83 45 
0.43203 0.067746 0.38388 124 83 45 
0.45762 0.067746 0.3839 124 83 45 
0.46083 0.067873 0.3839 124 83 45 
0.43259 0.067873 0.38388 124 83 45 
0.43259 0.11037 0.38395 124 83 45 
0.46083 0.11037 0.38397 124 83 45 
0.50609 0.34656 0.3844 124 83 45 
0.48442 0.34656 0.38438 124 83 45 
0.48442 0.37817 0.38443 124 83 45 
0.50609 0.37817 0.38445 124 83 45 
0.50025 0.37702 0.35818 62 44 120 
0.49805 0.34892 0.358 62 44 120 
0.50121 0.34892 0.31914 62 44 120 
0.50341 0.37702 0.31932 62 44 120 
0.50551 0.46306 0.35975 107 63 89 
0.50551 0.46337 0.18791 107 63 89 
0.48376 0.46319 0.18791 107 63 89 
0.48376 0.46288 0.35975 107 63 89 
0.29805 0.40453 0.85455 102 56 43 
0.29828 0.40453 0.15958 102 56 43 
0.29859 0.3675 0.15958 102 56 43 
0.29836 0.3675 0.85455 102 56 43 
0.48024 0.42806 0.44656 44 77 106 
0.48025 0.42854 0.15056 44 77 106 
0.50594 0.42782 0.15056 44 77 106 
0.50592 0.42734 0.44656 44 77 106 
0.49477 0.45638 0.3532 46 120 44 
0.49684 0.42392 0.35343 46 120 44 
0.50227 0.42392 0.30515 46 120 44 
0.5002 0.45638 0.30492 46 120 44 
0.50492 0.42982 0.38453 124 83 45 
0.46725 0.42982 0.38451 124 83 45 
0.46725 0.46626 0.38457 124 83 45 
0.50492 0.46626 0.38459 124 83 45 
0.50322 0.45479 0.35717 61 97 52 
0.44159 0.45442 0.35713 61 97 52 
0.44159 0.46301 0.27553 61 97 52 
0.50322 0.46338 0.27557 61 97 52 
0.50194 0.46206 0.90254 107 63 89 
0.50193 0.46345 0.12497 107 63 89 
0.21069 0.46104 0.12497 107 63 89 
0.2107 0.45964 0.90254 107 63 89 
0.43285 0.46618 0.3258 60 97 52 
0.4329 0.46619 0.26409 60 97 52 
0.43311 0.45762 0.26409 60 97 52 
0.43306 0.45762 0.3258 60 97 52 
0.48685 0.48519 0.38461 124 83 45 
0.4372 0.48519 0.38458 124 83 45 
0.4372 0.45838 0.38453 124 83 45 
0.48685 0.45838 0.38457 124 83 45 
0.4288 0.46619 0.35612 57 57 57 
0.3594 0.46621 0.35588 57 57 57 
0.3594 0.45251 0.35508 57 57 57 
0.4288 0.4525 0.35532 57 57 57 
0.54068 0.46298 0.56542 107 63 89 
0.54067 0.4638 0.11106 107 63 89 
0.26146 0.46148 0.11106 107 63 89 
0.26146 0.46067 0.56542 107 63 89 
0.5043 0.46402 0.35461 107 63 89 
0.45572 0.46268 0.35449 107 63 89 
0.45572 0.45843 0.40273 107 63 89 
0.5043 0.45977 0.40285 107 63 89 
0.44152 0.46256 0.34103 107 63 89 
0.44152 0.4626 0.31723 107 63 89 
0.48683 0.46298 0.31723 107 63 89 
0.48683 0.46294 0.34103 107 63 89 
0.50639 0.34635 0.3844 124 83 45 
0.48452 0.34635 0.38438 124 83 45 
0.48452 0.38079 0.38444 124 83 45 
0.50639 0.38079 0.38445 124 83 45 
0.48959 0.39315 0.24879 97 83 52 
0.4896 0.39315 0.16653 97 83 52 
0.48402 0.37679 0.16653 97 83 52 
0.484 0.3768 0.24879 97 83 52 
0.50256 0.4233 0.30688 97 52 62 
0.5027 0.42332 0.17147 97 52 62 
0.49831 0.44999 0.17147 97 52 62 
0.49817 0.44997 0.30688 97 52 62 
0.29777 0.45961 0.31146 102 56 43 
0.29779 0.45961 0.22814 102 56 43 
0.29809 0.42451 0.22814 102 56 43 
0.29806 0.42451 0.31146 102 56 43 
0.50536 0.42942 0.38453 124 83 45 
0.46061 0.42942 0.3845 124 83 45 
0.46061 0.46641 0.38456 124 83 45 
0.50536 0.46641 0.38459 124 83 45 
0.50287 0.45692 0.26614 107 63 89 
0.50286 0.45698 0.22399 107 63 89 
0.46613 0.45464 0.22399 107 63 89 
0.46613 0.45458 0.26614 107 63 89 
0.43227 0.46647 0.23899 97 52 62 
0.43233 0.46648 0.1643 97 52 62 
0.43374 0.45781 0.1643 97 52 62 
0.43368 0.4578 0.23899 97 52 62 
0.50188 0.46368 0.27459 57 57 57 
0.46135 0.46368 0.2746 57 57 57 
0.46135 0.45588 0.2739 57 57 57 
0.50188 0.45588 0.27389 57 57 57 
0.48748 0.45821 0.38457 124 83 45 
0.43951 0.45821 0.38454 124 83 45 
0.43951 0.48209 0.38458 124 83 45 
0.48748 0.48209 0.38461 124 83 45 
0.48618 0.48532 0.22655 44 77 106 
0.48634 0.46162 0.22661 44 77 106 
0.48318 0.46162 0.23539 44 77 106 
0.48302 0.48532 0.23533 44 77 106 
0.43982 0.46271 0.25025 107 63 89 
0.43982 0.46275 0.22626 107 63 89 
0.48709 0.46315 0.22626 107 63 89 
0.4871 0.4631 0.25025 107 63 89 
0.50568 0.37925 0.41138 124 83 45 
0.50573 0.34574 0.41223 124 83 45 
0.48681 0.34574 0.41336 124 83 45 
0.48676 0.37925 0.41251 124 83 45 
0.29843 0.37534 0.44499 102 56 43 
0.29846 0.37534 0.36687 102 56 43 
0.2987 0.34616 0.36687 102 56 43 
0.29868 0.34616 0.44499 102 56 43 
0.47957 0.44012 0.46981 90 106 44 
0.47955 0.44028 0.36521 90 106 44 
0.49976 0.44218 0.36521 90 106 44 
0.49978 0.44202 0.46981 90 106 44 
0.50471 0.42458 0.40217 124 83 45 
0.46009 0.42459 0.40258 124 83 45 
0.46009 0.46659 0.40183 124 83 45 
0.50471 0.46658 0.40141 124 83 45 
0.50444 0.46604 0.44707 124 83 45 
0.50445 0.42769 0.44768 124 83 45 
0.47157 0.42769 0.44831 124 83 45 
0.47155 0.46604 0.4477 124 83 45 
0.29771 0.45965 0.49146 102 56 43 
0.29775 0.45965 0.36445 102 56 43 
0.29807 0.42182 0.36445 102 56 43 
0.29803 0.42182 0.49146 102 56 43 
0.49994 0.45628 0.44821 107 63 89 
0.49991 0.45666 0.41542 107 63 89 
0.48059 0.45498 0.41542 107 63 89 
0.48062 0.45459 0.44821 107 63 89 
0.50381 0.45564 0.41912 106 75 44 
0.46399 0.4554 0.41896 106 75 44 
0.46399 0.46683 0.4008 106 75 44 
0.50381 0.46707 0.40096 106 75 44 
0.4293 0.45634 0.44743 124 83 45 
0.35704 0.45634 0.44738 124 83 45 
0.35704 0.46602 0.44694 124 83 45 
0.4293 0.46603 0.44699 124 83 45 
0.4863 0.48549 0.41205 124 83 45 
0.48629 0.45828 0.41226 124 83 45 
0.43747 0.45828 0.40886 124 83 45 
0.43749 0.48549 0.40865 124 83 45 
0.4999 0.46537 0.4461 124 45 123 
0.45846 0.46376 0.44589 124 45 123 
0.45846 0.45733 0.49476 124 45 123 
0.4999 0.45893 0.49497 124 45 123 
0.4862 0.48465 0.40928 107 63 89 
0.43861 0.48456 0.40928 107 63 89 
0.43861 0.48438 0.43274 107 63 89 
0.4862 0.48447 0.43274 107 63 89 
0.50361 0.37975 0.5539 45 94 124 
0.50359 0.37986 0.48513 45 94 124 
0.48549 0.37705 0.48513 45 94 124 
0.48551 0.37694 0.5539 45 94 124 
0.50378 0.43228 0.53893 124 83 45 
0.47427 0.43228 0.53891 124 83 45 
0.47427 0.46649 0.53896 124 83 45 
0.50378 0.46649 0.53899 124 83 45 
0.49818 0.45467 0.5396 107 63 89 
0.49812 0.45583 0.51028 107 63 89 
0.48194 0.45502 0.51028 107 63 89 
0.482 0.45386 0.5396 107 63 89 
0.48598 0.48364 0.38461 124 83 45 
0.43759 0.48364 0.38458 124 83 45 
0.43759 0.45889 0.38454 124 83 45 
0.48598 0.45889 0.38457 124 83 45 
0.42898 0.46622 0.38454 124 83 45 
0.35385 0.46622 0.38449 124 83 45 
0.35385 0.4527 0.38447 124 83 45 
0.42898 0.4527 0.38452 124 83 45 
0.48544 0.4626 0.52482 107 63 89 
0.48544 0.46264 0.50027 107 63 89 
0.43845 0.46225 0.50027 107 63 89 
0.43845 0.46221 0.52482 107 63 89 
0.5034 0.43099 0.38453 124 83 45 
0.47517 0.43099 0.38451 124 83 45 
0.47517 0.46684 0.38457 124 83 45 
0.5034 0.46684 0.38459 124 83 45 
0.48567 0.48478 0.59297 57 57 57 
0.43784 0.4848 0.59334 57 57 57 
0.43784 0.45707 0.5945 57 57 57 
0.48567 0.45705 0.59414 57 57 57 
0.42867 0.46617 0.62968 78 51 85 
0.353 0.46614 0.62954 78 51 85 
0.353 0.44897 0.63252 78 51 85 
0.42867 0.449 0.63266 78 51 85 
0.39816 0.46939 0.64066 90 106 44 
0.39815 0.46947 0.58227 90 106 44 
0.43204 0.47358 0.58227 90 106 44 
0.43205 0.47349 0.64066 90 106 44 
0.48346 0.46244 0.60096 107 63 89 
0.48346 0.46246 0.59211 107 63 89 
0.43931 0.46209 0.59211 107 63 89 
0.43931 0.46208 0.60096 107 63 89 
0.50295 0.43 0.38453 124 83 45 
0.47563 0.43 0.38451 124 83 45 
0.47563 0.46698 0.38458 124 83 45 
0.50295 0.46698 0.38459 124 83 45 
0.48529 0.48584 0.38461 124 83 45 
0.43814 0.48584 0.38458 124 83 45 
0.43814 0.45885 0.38454 124 83 45 
0.48529 0.45885 0.38457 124 83 45 
0.4859 0.46993 0.1397 57 57 57 
0.48587 0.34641 0.13822 57 57 57 
0.54329 0.34641 0.13692 57 57 57 
0.54332 0.46993 0.1384 57 57 57 
0.50649 0.35276 0.17762 107 63 89 
0.50657 0.35162 0.15365 107 63 89 
0.47438 0.34938 0.15365 107 63 89 
0.4743 0.35052 0.17762 107 63 89 
0.50628 0.38101 0.38445 124 83 45 
0.48088 0.38101 0.38444 124 83 45 
0.48088 0.35253 0.38439 124 83 45 
0.50628 0.35253 0.38441 124 83 45 
0.50474 0.37826 0.15627 51 82 85 
0.48476 0.37809 0.15629 51 82 85 
0.48476 0.38288 0.20037 51 82 85 
0.50474 0.38305 0.20035 51 82 85 
0.45936 0.39567 0.18284 79 51 85 
0.45938 0.39627 0.16235 79 51 85 
0.44198 0.39697 0.16235 79 51 85 
0.44195 0.39637 0.18284 79 51 85 
0.50948 0.42906 0.14035 120 44 48 
0.49405 0.42823 0.14043 120 44 48 
0.49405 0.42655 0.12246 120 44 48 
0.50948 0.42739 0.12238 120 44 48 
0.50566 0.42743 0.38453 124 83 45 
0.462 0.42743 0.3845 124 83 45 
0.462 0.46588 0.38456 124 83 45 
0.50566 0.46588 0.38459 124 83 45 
0.49678 0.42915 0.21838 102 56 43 
0.49949 0.42903 0.1487 102 56 43 
0.50092 0.46131 0.1487 102 56 43 
0.4982 0.46143 0.21838 102 56 43 
0.43311 0.45703 0.17713 90 106 44 
0.4331 0.45715 0.1181 90 106 44 
0.50596 0.45774 0.1181 90 106 44 
0.50596 0.45763 0.17713 90 106 44 
0.46122 0.46179 0.15459 44 77 106 
0.46127 0.46243 0.11796 44 77 106 
0.50408 0.45904 0.11796 44 77 106 
0.50403 0.4584 0.15459 44 77 106 
0.48435 0.48538 0.15765 102 56 43 
0.48437 0.48538 0.13584 102 56 43 
0.48505 0.45851 0.13584 102 56 43 
0.48503 0.45851 0.15765 102 56 43 
0.48776 0.4814 0.38461 124 83 45 
0.44566 0.4814 0.38458 124 83 45 
0.44566 0.458 0.38454 124 83 45 
0.48776 0.458 0.38457 124 83 45 
0.50548 0.46489 0.17237 124 45 123 
0.46136 0.46453 0.17231 124 45 123 
0.46136 0.4572 0.2203 124 45 123 
0.50548 0.45757 0.22035 124 45 123 
0.48758 0.48572 0.15944 90 106 44 
0.4403 0.48512 0.15946 90 106 44 
0.4403 0.48424 0.13572 90 106 44 
0.48758 0.48484 0.13569 90 106 44 
0.50225 0.4339 0.81515 124 83 45 
0.47722 0.4339 0.81513 124 83 45 
0.47722 0.46669 0.81356 124 83 45 
0.50225 0.46669 0.81358 124 83 45 
0.48488 0.48604 0.38461 124 83 45 
0.4377 0.48604 0.38458 124 83 45 
0.4377 0.45831 0.38453 124 83 45 
0.48488 0.45831 0.38457 124 83 45 
0.50217 0.46228 0.7779 107 63 89 
0.50217 0.46232 0.75859 107 63 89 
0.45797 0.46195 0.75859 107 63 89 
0.45797 0.46192 0.7779 107 63 89 
0.50404 0.37509 0.49628 79 51 85 
0.50442 0.37795 0.45689 79 51 85 
0.48512 0.3805 0.45689 79 51 85 
0.48474 0.37764 0.49628 79 51 85 
0.50437 0.42791 0.38453 124 83 45 
0.46039 0.42791 0.3845 124 83 45 
0.46039 0.46666 0.38456 124 83 45 
0.50437 0.46666 0.38459 124 83 45 
0.50595 0.34597 0.38439 124 83 45 
0.48444 0.34597 0.38438 124 83 45 
0.48444 0.3807 0.38444 124 83 45 
0.50595 0.3807 0.38445 124 83 45 
0.42885 0.46621 0.40181 57 57 57 
0.39376 0.46621 0.40182 57 57 57 
0.39376 0.45563 0.40142 57 57 57 
0.42885 0.45563 0.40141 57 57 57 
0.50066 0.46668 0.58541 83 85 51 
0.46172 0.46643 0.58645 83 85 51 
0.46172 0.45546 0.58387 83 85 51 
0.50066 0.45571 0.58283 83 85 51 
0.50626 0.34613 0.38439 124 83 45 
0.4847 0.34613 0.38438 124 83 45 
0.4847 0.3822 0.38444 124 83 45 
0.50626 0.3822 0.38445 124 83 45 
0.5052 0.42802 0.38453 124 83 45 
0.46262 0.42802 0.3845 124 83 45 
0.46262 0.46636 0.38457 124 83 45 
0.5052 0.46636 0.38459 124 83 45 
0.50341 0.42826 0.38453 124 83 45 
0.46122 0.42826 0.3845 124 83 45 
0.46122 0.46691 0.38457 124 83 45 
0.50341 0.46691 0.38459 124 83 45 
0.50655 0.3806 0.18329 124 83 45 
0.50655 0.34641 0.18338 124 83 45 
0.48484 0.34641 0.18412 124 83 45 
0.48484 0.3806 0.18403 124 83 45 
0.48141 0.35274 0.22031 44 77 106 
0.48141 0.35278 0.19221 44 77 106 
0.50496 0.35123 0.19221 44 77 106 
0.50495 0.35118 0.22031 44 77 106 
0.46802 0.43604 0.18314 57 57 57 
0.43481 0.43604 0.18312 57 57 57 
0.43481 0.3959 0.18348 57 57 57 
0.46802 0.3959 0.18349 57 57 57 
0.50551 0.42918 0.38453 124 83 45 
0.46103 0.42918 0.3845 124 83 45 
0.46103 0.46633 0.38456 124 83 45 
0.50551 0.46633 0.38459 124 83 45 
0.4707 0.45975 0.22012 102 55 43 
0.47072 0.4598 0.18904 102 55 43 
0.46125 0.46385 0.18904 102 55 43 
0.46123 0.4638 0.22012 102 55 43 
0.42562 0.46616 0.49265 57 57 57 
0.39571 0.46609 0.49394 57 57 57 
0.39571 0.45623 0.49341 57 57 57 
0.42562 0.4563 0.49212 57 57 57 
0.40646 0.46202 0.48346 107 63 89 
0.40645 0.46207 0.45439 107 63 89 
0.30254 0.46121 0.45439 107 63 89 
0.30254 0.46116 0.48346 107 63 89 
0.40688 0.44912 0.45629 124 83 45 
0.30251 0.44914 0.45723 124 83 45 
0.30251 0.48477 0.45658 124 83 45 
0.40688 0.48476 0.45564 124 83 45 
0.40654 0.46299 0.50163 107 63 89 
0.20489 0.46022 0.5015 107 63 89 
0.20489 0.45554 0.59499 107 63 89 
0.40654 0.45832 0.59513 107 63 89 
0.40651 0.44776 0.54369 73 43 102 
0.35465 0.44804 0.54237 73 43 102 
0.35465 0.48466 0.55013 73 43 102 
0.40651 0.48439 0.55144 73 43 102 
0.33979 0.46669 0.45758 44 77 106 
0.3398 0.46676 0.41067 44 77 106 
0.39945 0.45879 0.41067 44 77 106 
0.39944 0.45872 0.45758 44 77 106 
0.42488 0.46725 0.35644 124 45 123 
0.40139 0.46505 0.35602 124 45 123 
0.40139 0.45622 0.40235 124 45 123 
0.42488 0.45842 0.40277 124 45 123 
0.41259 0.48478 0.38456 124 83 45 
0.26573 0.48478 0.38446 124 83 45 
0.26573 0.40569 0.38433 124 83 45 
0.41259 0.40569 0.38443 124 83 45 
0.40804 0.46217 0.4067 107 63 89 
0.40804 0.46225 0.3625 107 63 89 
0.30578 0.4614 0.3625 107 63 89 
0.30579 0.46132 0.4067 107 63 89 
0.38249 0.45969 0.42285 43 102 76 
0.34796 0.4597 0.42286 43 102 76 
0.34796 0.4657 0.40498 43 102 76 
0.38249 0.46569 0.40498 43 102 76 
0.33339 0.45937 0.36611 107 63 90 
0.33337 0.45941 0.32594 107 63 90 
0.35104 0.46833 0.32594 107 63 90 
0.35106 0.46829 0.36611 107 63 90 
0.34222 0.45973 0.44412 61 97 52 
0.31599 0.4577 0.44394 61 97 52 
0.31599 0.46084 0.40953 61 97 52 
0.34222 0.46287 0.40971 61 97 52 
0.42734 0.45614 0.35096 124 45 123 
0.35553 0.45698 0.35114 124 45 123 
0.35553 0.46622 0.30911 124 45 123 
0.42734 0.46538 0.30893 124 45 123 
0.40888 0.45944 0.35591 44 77 106 
0.37087 0.46087 0.35601 44 77 106 
0.37087 0.46338 0.31923 44 77 106 
0.40888 0.46194 0.31913 44 77 106 
0.40611 0.48475 0.38456 124 83 45 
0.35121 0.48475 0.38452 124 83 45 
0.35121 0.45691 0.38447 124 83 45 
0.40611 0.45691 0.38451 124 83 45 
0.39738 0.45947 0.35704 107 63 90 
0.39736 0.4595 0.32909 107 63 90 
0.40719 0.46384 0.32909 107 63 90 
0.40721 0.46381 0.35704 107 63 90 
0.4062 0.46357 0.32035 57 57 57 
0.3702 0.46357 0.32035 57 57 57 
0.3702 0.45752 0.31987 57 57 57 
0.4062 0.45751 0.31987 57 57 57 
0.40629 0.46231 0.31677 107 63 89 
0.40628 0.46239 0.27218 107 63 89 
0.30235 0.46153 0.27218 107 63 89 
0.30235 0.46145 0.31677 107 63 89 
0.36763 0.45952 0.27752 102 55 43 
0.36809 0.46081 0.21905 102 55 43 
0.34453 0.4692 0.21905 102 55 43 
0.34407 0.46791 0.27752 102 55 43 
0.35145 0.46974 0.278 124 45 123 
0.28864 0.46847 0.27783 124 45 123 
0.28864 0.45814 0.35486 124 45 123 
0.35145 0.45941 0.35503 124 45 123 
0.29756 0.48435 0.31616 102 56 43 
0.29757 0.48435 0.27298 102 56 43 
0.29774 0.46484 0.27298 102 56 43 
0.29772 0.46484 0.31616 102 56 43 
0.30312 0.48475 0.27457 57 57 57 
0.30312 0.45743 0.27453 57 57 57 
0.34892 0.45743 0.2726 57 57 57 
0.34892 0.48475 0.27264 57 57 57 
0.33973 0.4633 0.31892 63 70 107 
0.2928 0.46349 0.31953 63 70 107 
0.2928 0.45736 0.3214 63 70 107 
0.33973 0.45718 0.3208 63 70 107 
0.33884 0.46579 0.38448 124 83 45 
0.2969 0.46579 0.38445 124 83 45 
0.2969 0.45257 0.38443 124 83 45 
0.33884 0.45257 0.38446 124 83 45 
0.33013 0.45865 0.32583 61 97 52 
0.24452 0.45363 0.32517 61 97 52 
0.24452 0.46045 0.27353 61 97 52 
0.33013 0.46547 0.27419 61 97 52 
0.27164 0.45601 0.30925 90 106 44 
0.27217 0.4515 0.23589 90 106 44 
0.30799 0.45572 0.23589 90 106 44 
0.30746 0.46023 0.30925 90 106 44 
0.40552 0.48456 0.63806 124 83 45 
0.30184 0.48462 0.63918 124 83 45 
0.30184 0.45998 0.64058 124 83 45 
0.40552 0.45992 0.63946 124 83 45 
0.40309 0.4832 0.64805 61 97 52 
0.34965 0.48275 0.64801 61 97 52 
0.34965 0.48374 0.63691 61 97 52 
0.40309 0.4842 0.63695 61 97 52 
0.33957 0.45934 0.72327 61 97 52 
0.29095 0.45851 0.72321 61 97 52 
0.29095 0.46168 0.68372 61 97 52 
0.33957 0.46251 0.68379 61 97 52 
0.30187 0.45765 0.69121 90 106 44 
0.30187 0.45771 0.64917 90 106 44 
0.24851 0.45125 0.64917 90 106 44 
0.24852 0.45119 0.69121 90 106 44 
0.40579 0.46182 0.59093 107 63 89 
0.40578 0.4619 0.54512 107 63 89 
0.3022 0.46104 0.54512 107 63 89 
0.3022 0.46096 0.59093 107 63 89 
0.3663 0.48487 0.38453 124 83 45 
0.3021 0.48487 0.38449 124 83 45 
0.3021 0.45969 0.38445 124 83 45 
0.3663 0.45969 0.38449 124 83 45 
0.34191 0.46535 0.62916 78 51 85 
0.30165 0.46567 0.63123 78 51 85 
0.30165 0.45212 0.63333 78 51 85 
0.34191 0.45179 0.63126 78 51 85 
0.42056 0.48442 0.73003 124 83 45 
0.30173 0.48445 0.73056 124 83 45 
0.30173 0.45983 0.73217 124 83 45 
0.42056 0.4598 0.73164 124 83 45 
0.40326 0.46149 0.7649 107 63 89 
0.40326 0.46155 0.7287 107 63 89 
0.30436 0.46073 0.7287 107 63 89 
0.30436 0.46067 0.7649 107 63 89 
0.42643 0.46592 0.21918 57 57 57 
0.38274 0.46596 0.2187 57 57 57 
0.38274 0.45562 0.2179 57 57 57 
0.42643 0.45558 0.21838 57 57 57 
0.41691 0.46626 0.26567 85 107 63 
0.35534 0.46619 0.26583 85 107 63 
0.35534 0.45698 0.26207 85 107 63 
0.41691 0.45704 0.2619 85 107 63 
0.40632 0.48428 0.1811 60 97 52 
0.40654 0.45686 0.1811 60 97 52 
0.40576 0.45686 0.20493 60 97 52 
0.40554 0.48428 0.20492 60 97 52 
0.40552 0.48371 0.38456 124 83 45 
0.36766 0.48371 0.38453 124 83 45 
0.36766 0.45697 0.38449 124 83 45 
0.40552 0.45697 0.38451 124 83 45 
0.40387 0.48373 0.18087 79 51 85 
0.33296 0.48441 0.18088 79 51 85 
0.33296 0.48368 0.22001 79 51 85 
0.40387 0.483 0.22 79 51 85 
0.34982 0.44861 0.27345 60 97 52 
0.35072 0.44871 0.25094 60 97 52 
0.35282 0.42886 0.25094 60 97 52 
0.35192 0.42877 0.27345 60 97 52 
0.34431 0.46671 0.22583 60 97 52 
0.34303 0.46727 0.18379 60 97 52 
0.34952 0.48194 0.18379 60 97 52 
0.3508 0.48138 0.22583 60 97 52 
0.3057 0.48471 0.1808 124 83 45 
0.30568 0.45737 0.18122 124 83 45 
0.34956 0.45737 0.18326 124 83 45 
0.34958 0.48471 0.18284 124 83 45 
0.31108 0.46608 0.26418 83 85 51 
0.26267 0.46573 0.26648 83 85 51 
0.26267 0.45319 0.26458 83 85 51 
0.31108 0.45354 0.26228 83 85 51 
0.30837 0.4593 0.28014 79 51 85 
0.30864 0.4617 0.22855 79 51 85 
0.27321 0.46568 0.22855 79 51 85 
0.27294 0.46328 0.28014 79 51 85 
0.28287 0.48303 0.38447 124 83 45 
0.23136 0.48303 0.38444 124 83 45 
0.23136 0.44342 0.38437 124 83 45 
0.28287 0.44342 0.3844 124 83 45 
0.20406 0.45644 0.55005 44 77 106 
0.20376 0.42914 0.54845 44 77 106 
0.23122 0.42914 0.54326 44 77 106 
0.23153 0.45644 0.54486 44 77 106 
0.29714 0.51441 0.8109 102 56 43 
0.29737 0.51441 0.12704 102 56 43 
0.29811 0.42556 0.12704 102 56 43 
0.29789 0.42556 0.8109 102 56 43 
0.2931 0.45474 0.54025 45 94 124 
0.29291 0.45596 0.50793 45 94 124 
0.27944 0.45388 0.50793 45 94 124 
0.27963 0.45266 0.54025 45 94 124 
0.20832 0.45979 0.81118 107 63 89 
0.20831 0.46107 0.096114 107 63 89 
0.12665 0.46039 0.096114 107 63 89 
0.12666 0.45911 0.81118 107 63 89 
0.16976 0.51549 0.54217 44 77 106 
0.16968 0.51492 0.36546 44 77 106 
0.20625 0.50988 0.36546 44 77 106 
0.20633 0.51045 0.54217 44 77 106 
0.29373 0.4545 0.44809 45 94 124 
0.29352 0.45609 0.41939 45 94 124 
0.27454 0.4537 0.41939 45 94 124 
0.27474 0.4521 0.44809 45 94 124 
0.28313 0.48441 0.38447 124 83 45 
0.23166 0.48441 0.38444 124 83 45 
0.23166 0.45284 0.38439 124 83 45 
0.28313 0.45284 0.38442 124 83 45 
0.28298 0.48356 0.40844 124 45 123 
0.23454 0.4837 0.40846 124 45 123 
0.23454 0.48217 0.42179 124 45 123 
0.28298 0.48202 0.42177 124 45 123 
0.20635 0.49633 0.41109 124 83 45 
0.17111 0.49664 0.41415 124 83 45 
0.17111 0.51401 0.4124 124 83 45 
0.20635 0.5137 0.40934 124 83 45 
0.28256 0.48409 0.59299 124 83 45 
0.23074 0.48408 0.59267 124 83 45 
0.23074 0.45167 0.59409 124 83 45 
0.28256 0.45169 0.59441 124 83 45 
0.27893 0.48387 0.59158 107 63 89 
0.23051 0.48331 0.59152 107 63 89 
0.23051 0.48232 0.60148 107 63 89 
0.27893 0.48288 0.60153 107 63 89 
0.29722 0.51188 0.63175 102 56 43 
0.29723 0.51188 0.59452 102 56 43 
0.29737 0.49561 0.59452 102 56 43 
0.29736 0.49561 0.63175 102 56 43 
0.20689 0.45985 0.77169 107 63 89 
0.20689 0.46023 0.55822 107 63 89 
0.16837 0.45991 0.55822 107 63 89 
0.16837 0.45953 0.77169 107 63 89 
0.28242 0.4829 0.6838 57 57 57 
0.23054 0.48294 0.68466 57 57 57 
0.23054 0.44971 0.68617 57 57 57 
0.28242 0.44967 0.68531 57 57 57 
0.28536 0.48332 0.38447 124 83 45 
0.23453 0.48332 0.38444 124 83 45 
0.23453 0.45174 0.38439 124 83 45 
0.28536 0.45174 0.38442 124 83 45 
0.23927 0.46105 0.25185 107 63 89 
0.23927 0.46109 0.22688 107 63 89 
0.28445 0.46147 0.22688 107 63 89 
0.28445 0.46142 0.25185 107 63 89 
0.20882 0.44278 0.34998 97 52 62 
0.21192 0.44315 0.19046 97 52 62 
0.20334 0.51403 0.19046 97 52 62 
0.20024 0.51365 0.34998 97 52 62 
0.1814 0.41236 0.26049 90 106 44 
0.18139 0.41247 0.18645 90 106 44 
0.21659 0.41579 0.18645 90 106 44 
0.2166 0.41567 0.26049 90 106 44 
0.25302 0.43946 0.32501 79 51 85 
0.25196 0.40604 0.32132 79 51 85 
0.27126 0.40604 0.31577 79 51 85 
0.27232 0.43946 0.31946 79 51 85 
0.20506 0.45471 0.36754 44 77 106 
0.20469 0.4178 0.36557 44 77 106 
0.22605 0.4178 0.36154 44 77 106 
0.22642 0.45471 0.3635 44 77 106 
0.22209 0.45176 0.36594 107 63 89 
0.22209 0.45176 0.31934 107 63 89 
0.20476 0.45032 0.31934 107 63 89 
0.20476 0.45032 0.36594 107 63 89 
0.28222 0.48297 0.77578 124 83 45 
0.23006 0.48299 0.77609 124 83 45 
0.23006 0.45114 0.77808 124 83 45 
0.28222 0.45112 0.77778 124 83 45 
0.29803 0.45297 0.1706 102 56 43 
0.23755 0.45238 0.176 102 56 43 
0.23755 0.48111 0.17911 102 56 43 
0.29803 0.4817 0.17371 102 56 43 
0.17101 0.4606 0.18744 107 63 89 
0.17101 0.4607 0.13002 107 63 89 
0.20409 0.46097 0.13002 107 63 89 
0.20409 0.46087 0.18744 107 63 89 
0.2015 0.49562 0.58136 62 44 120 
0.20458 0.49532 0.54794 62 44 120 
0.20615 0.5111 0.54794 62 44 120 
0.20307 0.51141 0.58136 62 44 120 
0.21194 0.45625 0.6423 57 57 57 
0.21194 0.43554 0.64228 57 57 57 
0.23768 0.43554 0.63923 57 57 57 
0.23768 0.45625 0.63925 57 57 57 
0.20727 0.51523 0.4005 124 83 45 
0.16825 0.51517 0.39921 124 83 45 
0.16825 0.49121 0.4003 124 83 45 
0.20727 0.49127 0.40159 124 83 45 
0.26687 0.46194 0.21518 102 56 43 
0.26689 0.46194 0.18733 102 56 43 
0.26727 0.45267 0.18733 102 56 43 
0.26725 0.45267 0.21518 102 56 43 
0.29723 0.51128 0.61155 102 56 43 
0.29738 0.51128 0.17918 102 56 43 
0.29842 0.38713 0.17918 102 56 43 
0.29828 0.38713 0.61155 102 56 43 
0.08752 0.49661 0.40819 102 56 43 
0.087406 0.45283 0.40711 102 56 43 
0.064483 0.45283 0.40953 102 56 43 
0.064597 0.49661 0.41061 102 56 43 
0.083648 0.51339 0.44933 120 44 48 
0.083672 0.48167 0.44938 120 44 48 
0.094961 0.48167 0.44432 120 44 48 
0.094938 0.51339 0.44427 120 44 48 
0.29713 0.51674 0.77118 102 56 43 
0.29736 0.51674 0.099655 102 56 43 
0.29753 0.49562 0.099655 102 56 43 
0.29731 0.49561 0.77118 102 56 43 
0.085087 0.50844 0.77231 90 106 44 
0.085028 0.50901 0.42447 90 106 44 
0.12919 0.51368 0.42447 90 106 44 
0.12925 0.51312 0.77231 90 106 44 
0.06428 0.49627 0.5031 57 57 57 
0.064276 0.45191 0.50308 57 57 57 
0.090977 0.45191 0.49911 57 57 57 
0.090982 0.49627 0.49913 57 57 57 
0.083191 0.51376 0.54193 79 51 85 
0.0824 0.48394 0.53968 79 51 85 
0.10147 0.48394 0.53296 79 51 85 
0.10226 0.51376 0.5352 79 51 85 
0.085432 0.45901 0.67654 107 63 89 
0.085429 0.45939 0.46531 107 63 89 
0.1281 0.45974 0.46531 107 63 89 
0.1281 0.45936 0.67654 107 63 89 
0.10927 0.50684 0.6729 107 63 90 
0.10918 0.50708 0.46934 107 63 90 
0.12851 0.51455 0.46934 107 63 90 
0.12861 0.51431 0.6729 107 63 90 
0.1286 0.51562 0.34867 107 63 89 
0.12853 0.51572 0.22631 107 63 89 
0.11757 0.50839 0.22631 107 63 89 
0.11763 0.50829 0.34867 107 63 89 
0.064024 0.49596 0.59544 57 57 57 
0.064022 0.45168 0.59543 57 57 57 
0.090046 0.45168 0.59103 57 57 57 
0.090048 0.49596 0.59105 57 57 57 
0.082562 0.51388 0.58665 57 57 57 
0.082221 0.47677 0.58456 57 57 57 
0.11553 0.47677 0.57914 57 57 57 
0.11587 0.51388 0.58123 57 57 57 
0.099196 0.51272 0.62822 57 57 57 
0.098432 0.48527 0.62588 57 57 57 
0.081853 0.48527 0.63131 57 57 57 
0.082618 0.51272 0.63364 57 57 57 
0.063964 0.49327 0.68811 57 57 57 
0.063833 0.45147 0.68701 57 57 57 
0.091463 0.45147 0.68373 57 57 57 
0.091594 0.49327 0.68484 57 57 57 
0.085801 0.45975 0.26476 107 63 89 
0.085799 0.45995 0.15268 107 63 89 
0.12348 0.46026 0.15268 107 63 89 
0.12348 0.46006 0.26476 107 63 89 
0.1205 0.51488 0.21784 120 44 48 
0.082673 0.51489 0.21777 120 44 48 
0.082673 0.49798 0.21593 120 44 48 
0.1205 0.49798 0.216 120 44 48 
0.099374 0.45994 0.21998 107 63 89 
0.099373 0.4601 0.13021 107 63 89 
0.1305 0.46036 0.13021 107 63 89 
0.1305 0.4602 0.21998 107 63 89 
0.13006 0.46019 0.22194 107 63 89 
0.13006 0.46036 0.13211 107 63 89 
0.10501 0.46015 0.13211 107 63 89 
0.10501 0.45999 0.22194 107 63 89 
0.090869 0.41768 0.54531 62 44 120 
0.090725 0.36499 0.54442 62 44 120 
0.064931 0.36499 0.54857 62 44 120 
0.065075 0.41768 0.54946 62 44 120 
0.065235 0.41385 0.73452 120 44 48 
0.064471 0.36303 0.73255 120 44 48 
0.078277 0.36303 0.7272 120 44 48 
0.079041 0.41385 0.72917 120 44 48 
0.012642 0.45831 0.72843 107 63 89 
0.012638 0.45871 0.50702 107 63 89 
0.097824 0.45942 0.50702 107 63 89 
0.097827 0.45902 0.72843 107 63 89 
0.0050563 0.45866 0.49958 107 63 89 
0.0050527 0.4591 0.25577 107 63 89 
0.12678 0.46011 0.25577 107 63 89 
0.12678 0.45967 0.49958 107 63 89 
0.0016609 0.45795 0.88035 107 63 89 
0.0016578 0.45832 0.67549 107 63 89 
0.067988 0.45887 0.67549 107 63 89 
0.067991 0.4585 0.88035 107 63 89 
0.48686 0.46346 0.051419 107 63 89 
0.48686 0.46353 0.0078624 107 63 89 
0.60508 0.46451 0.0078624 107 63 89 
0.60508 0.46444 0.051419 107 63 89 
0.30003 0.19966 0.095454 102 56 43 
0.30004 0.19966 0.044 102 56 43 
0.30118 0.064495 0.044 102 56 43 
0.30116 0.064495 0.095454 102 56 43 
0.54381 0.34053 0.094375 102 56 43 
0.54386 0.34053 0.0095607 102 56 43 
0.54828 0.43372 0.0095607 102 56 43 
0.54823 0.43372 0.094375 102 56 43 
0.48443 0.37434 0.0096044 46 120 44 
0.48824 0.29818 0.0094085 46 120 44 
0.49131 0.29818 0.069161 46 120 44 
0.4875 0.37434 0.069357 46 120 44 
0.52572 0.46375 0.068325 107 63 89 
0.52572 0.46379 0.04669 107 63 89 
0.54332 0.46393 0.04669 107 63 89 
0.54332 0.46389 0.068325 107 63 89 
0.58758 0.44019 0.041666 73 43 102 
0.53895 0.44027 0.04139 73 43 102 
0.53895 0.46876 0.049614 73 43 102 
0.58758 0.46868 0.049891 73 43 102 
0.53853 0.46373 0.13963 107 63 89 
0.53853 0.46378 0.11077 107 63 89 
0.51341 0.46357 0.11077 107 63 89 
0.51341 0.46352 0.13963 107 63 89 
0.54657 0.46392 0.0671 107 63 89 
0.54657 0.46402 0.015233 107 63 89 
0.52549 0.46384 0.015233 107 63 89 
0.52549 0.46375 0.0671 107 63 89 
0.54598 0.51475 0.094489 61 97 52 
0.5465 0.45235 0.094427 61 97 52 
0.54323 0.45235 0.066905 61 97 52 
0.54271 0.51475 0.066967 61 97 52 
0.59905 0.4979 0.066913 97 83 52 
0.55914 0.50277 0.073964 97 83 52 
0.55914 0.4869 0.084913 97 83 52 
0.59905 0.48204 0.077863 97 83 52 
0.35378 0.45852 0.040483 97 52 62 
0.35735 0.41208 0.041495 97 52 62 
0.36504 0.41208 0.014345 97 52 62 
0.36146 0.45852 0.013334 97 52 62 
0.57706 0.46427 0.017138 107 63 89 
0.57706 0.46428 0.0078011 107 63 89 
0.55257 0.46408 0.0078011 107 63 89 
0.55257 0.46406 0.017138 107 63 89 
0.54819 0.44512 0.040755 97 52 62 
0.5468 0.44488 0.0094635 97 52 62 
0.5427 0.4688 0.0094635 97 52 62 
0.54409 0.46904 0.040755 97 52 62 
0.36306 0.44386 0.039207 102 55 43 
0.36238 0.44207 0.005585 102 55 43 
0.35382 0.44532 0.005585 102 55 43 
0.35449 0.4471 0.039207 102 55 43 
0.54598 0.50712 0.38469 124 83 45 
0.48129 0.50712 0.38465 124 83 45 
0.48129 0.43714 0.38453 124 83 45 
0.54598 0.43714 0.38457 124 83 45 
0.4608 0.46315 0.10395 107 63 89 
0.4608 0.46321 0.070855 107 63 89 
0.55961 0.46403 0.070855 107 63 89 
0.55961 0.46397 0.10395 107 63 89 
0.60079 0.51542 0.083365 83 85 51 
0.56283 0.51581 0.082045 83 85 51 
0.56283 0.48606 0.07329 83 85 51 
0.60079 0.48567 0.07461 83 85 51 
0.2869 0.46182 0.039736 107 63 89 
0.2869 0.46188 0.0039974 107 63 89 
0.25062 0.46158 0.0039974 107 63 89 
0.25062 0.46152 0.039736 107 63 89 
0.29817 0.42209 0.038236 102 56 43 
0.29818 0.42209 0.0025953 102 56 43 
0.29834 0.40334 0.0025953 102 56 43 
0.29833 0.40334 0.038236 102 56 43 
0.25052 0.40554 0.039905 44 77 106 
0.25448 0.40473 0.0038799 44 77 106 
0.25783 0.42106 0.0038799 44 77 106 
0.25387 0.42187 0.039905 44 77 106 
0.54101 0.46379 0.11437 107 63 89 
0.54101 0.46383 0.095729 107 63 89 
0.46748 0.46322 0.095729 107 63 89 
0.46748 0.46318 0.11437 107 63 89 
0.48277 0.50987 0.072649 60 97 52 
0.48278 0.50987 0.057324 60 97 52 
0.483 0.46634 0.057324 60 97 52 
0.48299 0.46634 0.072649 60 97 52 
0.29751 0.50057 0.058847 102 56 43 
0.29751 0.50057 0.041182 102 56 43 
0.29781 0.46515 0.041182 102 56 43 
0.2978 0.46515 0.058847 102 56 43 
0.35399 0.44412 0.040605 44 77 106 
0.35743 0.44351 0.014282 44 77 106 
0.36114 0.46445 0.014282 44 77 106 
0.3577 0.46506 0.040605 44 77 106 
0.29758 0.4928 0.042909 102 56 43 
0.29759 0.4928 0.0064917 102 56 43 
0.29782 0.46485 0.0064917 102 56 43 
0.29781 0.46485 0.042909 102 56 43 
0.31401 0.47744 0.38448 124 83 45 
0.21022 0.47744 0.38441 124 83 45 
0.21022 0.42826 0.38433 124 83 45 
0.31401 0.42826 0.3844 124 83 45 
0.42714 0.46289 0.093946 107 63 89 
0.42714 0.46294 0.062266 107 63 89 
0.35768 0.46237 0.062266 107 63 89 
0.35769 0.46231 0.093946 107 63 89 
0.3441 0.46219 0.096794 107 63 89 
0.3441 0.46226 0.060634 107 63 89 
0.12746 0.46046 0.060634 107 63 89 
0.12746 0.4604 0.096794 107 63 89 
0.49293 0.37402 0.067088 90 106 44 
0.49153 0.34276 0.067442 90 106 44 
0.48462 0.34276 0.040257 90 106 44 
0.48601 0.37402 0.039903 90 106 44 
0.29802 0.43885 0.067504 102 56 43 
0.29804 0.43885 0.007156 102 56 43 
0.29835 0.40276 0.007156 102 56 43 
0.29833 0.40276 0.067504 102 56 43 
0.49483 0.46539 0.0066405 60 97 52 
0.49496 0.44936 0.0066423 60 97 52 
0.4941 0.44936 0.069296 60 97 52 
0.49397 0.46539 0.069294 60 97 52 
0.49686 0.45197 0.06925 102 56 43 
0.49422 0.45214 0.0066503 102 56 43 
0.49529 0.46847 0.0066503 102 56 43 
0.49793 0.46829 0.06925 102 56 43 
0.48088 0.46721 0.069225 44 77 106 
0.48097 0.46815 0.0065555 44 77 106 
0.49786 0.46657 0.0065555 44 77 106 
0.49777 0.46563 0.069225 44 77 106 
0.48187 0.46758 0.069276 106 75 44 
0.48185 0.46765 0.015668 106 75 44 
0.49174 0.4711 0.015668 106 75 44 
0.49177 0.47103 0.069276 106 75 44 
0.47247 0.46647 0.0061377 107 63 89 
0.42918 0.46611 0.006141 107 63 89 
0.42918 0.46641 0.041312 107 63 89 
0.47247 0.46678 0.041308 107 63 89 
0.4805 0.46832 0.038148 97 83 52 
0.48225 0.46787 0.0063634 97 83 52 
0.48727 0.48704 0.0063634 97 83 52 
0.48552 0.4875 0.038148 97 83 52 
0.46159 0.48026 0.028056 124 83 45 
0.46068 0.47686 0.0071806 124 83 45 
0.4422 0.48181 0.0071806 124 83 45 
0.44311 0.48521 0.028056 124 83 45 
0.42634 0.46585 0.17326 120 44 48 
0.37553 0.4659 0.17281 120 44 48 
0.37553 0.4535 0.17135 120 44 48 
0.42634 0.45344 0.17181 120 44 48 
0.21205 0.42236 0.040113 97 52 62 
0.21062 0.42221 0.010369 97 52 62 
0.20676 0.45847 0.010369 97 52 62 
0.20819 0.45862 0.040113 97 52 62 
0.27409 0.46407 0.039977 79 51 85 
0.27411 0.46475 0.0081771 79 51 85 
0.24066 0.4655 0.0081771 79 51 85 
0.24065 0.46482 0.039977 79 51 85 
0.17699 0.47791 0.38439 124 83 45 
0.10445 0.47791 0.38434 124 83 45 
0.10445 0.43382 0.38427 124 83 45 
0.17699 0.43382 0.38432 124 83 45 
0.17293 0.46088 0.038965 107 63 89 
0.17293 0.46094 0.0035924 107 63 89 
0.15496 0.46079 0.0035924 107 63 89 
0.15496 0.46073 0.038965 107 63 89 
0.19218 0.50762 0.066733 83 85 51 
0.13172 0.50759 0.066846 83 85 51 
0.13172 0.49924 0.064413 83 85 51 
0.19218 0.49927 0.064299 83 85 51 
0.12928 0.46052 0.038497 107 63 89 
0.12928 0.46058 0.003216 107 63 89 
0.09863 0.46033 0.003216 107 63 89 
0.098631 0.46026 0.038497 107 63 89 
0.29777 0.46886 0.079675 102 56 43 
0.29777 0.46886 0.061759 102 56 43 
0.29846 0.38731 0.061759 102 56 43 
0.29845 0.38731 0.079675 102 56 43 
0.097458 0.4825 0.040167 102 56 43 
0.099608 0.4299 0.040304 102 56 43 
0.10194 0.4299 0.0035706 102 56 43 
0.099792 0.4825 0.003434 102 56 43 
0.12354 0.51473 0.38442 124 83 45 
0.086594 0.51473 0.38439 124 83 45 
0.086594 0.49378 0.38436 124 83 45 
0.12354 0.49378 0.38438 124 83 45 
0.079003 0.46 0.093153 107 63 89 
0.079003 0.46006 0.059774 107 63 89 
0.11712 0.46038 0.059774 107 63 89 
0.11712 0.46032 0.093153 107 63 89 
4 0 1 2 3
4 4 5 6 7
4 8 9 10 11
4 12 13 14 15
4 16 17 18 19
4 20 21 22 23
4 24 25 26 27
4 28 29 30 31
4 32 33 34 35
4 36 37 38 39
4 40 41 42 43
4 44 45 46 47
4 48 49 50 51
4 52 53 54 55
4 56 57 58 59
4 60 61 62 63
4 64 65 66 67
4 68 69 70 71
4 72 73 74 75
4 76 77 78 79
4 80 81 82 83
4 84 85 86 87
4 88 89 90 91
4 92 93 94 95
4 96 97 98 99
4 100 101 102 103
4 104 105 106 107
4 108 109 110 111
4 112 113 114 115
4 116 117 118 119
4 120 121 122 123
4 124 125 126 127
4 128 129 130 131
4 132 133 134 135
4 136 137 138 139
4 140 141 142 143
4 144 145 146 147
4 148 149 150 151
4 152 153 154 155
4 156 157 158 159
4 160 161 162 163
4 164 165 166 167
4 168 169 170 171
4 172 173 174 175
4 176 177 178 179
4 180 181 182 183
4 184 185 186 187
4 188 189 190 191
4 192 193 194 195
4 196 197 198 199
4 200 201 202 203
4 204 205 206 207
4 208 209 210 211
4 212 213 214 215
4 216 217 218 219
4 220 221 222 223
4 224 225 226 227
4 228 229 230 231
4 232 233 234 235
4 236 237 238 239
4 240 241 242 243
4 244 245 246 247
4 248 249 250 251
4 252 253 254 255
4 256 257 258 259
4 260 261 262 263
4 264 265 266 267
4 268 269 270 271
4 272 273 274 275
4 276 277 278 279
4 280 281 282 283
4 284 285 286 287
4 288 289 290 291
4 292 293 294 295
4 296 297 298 299
4 300 301 302 303
4 304 305 306 307
4 308 309 310 311
4 312 313 314 315
4 316 317 318 319
4 320 321 322 323
4 324 325 326 327
4 328 329 330 331
4 332 333 334 335
4 336 337 338 339
4 340 341 342 343
4 344 345 346 347
4 348 349 350 351
4 352 353 354 355
4 356 357 358 359
4 360 361 362 363
4 364 365 366 367
4 368 369 370 371
4 372 373 374 375
4 376 377 378 379
4 380 381 382 383
4 384 385 386 387
4 388 389 390 391
4 392 393 394 395
4 396 397 398 399
4 400 401 402 403
4 404 405 406 407
4 408 409 410 411
4 412 413 414 415
4 416 417 418 419
4 420 421 422 423
4 424 425 426 427
4 428 429 430 431
4 432 433 434 435
4 436 437 438 439
4 440 441 442 443
4 444 445 446 447
4 448 449 450 451
4 452 453 454 455
4 456 457 458 459
4 460 461 462 463
4 464 465 466 467
4 468 469 470 471
4 472 473 474 475
4 476 477 478 479
4 480 481 482 483
4 484 485 486 487
4 488 489 490 491
4 492 493 494 495
4 496 497 498 499
4 500 501 502 503
4 504 505 506 507
4 508 509 510 511
4 512 513 514 515
4 516 517 518 519
4 520 521 522 523
4 524 525 526 527
4 528 529 530 531
4 532 533 534 535
4 536 537 538 539
4 540 541 542 543
4 544 545 546 547
4 548 549 550 551
4 552 553 554 555
4 556 557 558 559
4 560 561 562 563
4 564 565 566 567
4 568 569 570 571
4 572 573 574 575
4 576 577 578 579
4 580 581 582 583
4 584 585 586 587
4 588 589 590 591
4 592 593 594 595
4 596 597 598 599
4 600 601 602 603
4 604 605 606 607
4 608 609 610 611
4 612 613 614 615
4 616 617 618 619
4 620 621 622 623
4 624 625 626 627
4 628 629 630 631
4 632 633 634 635
4 636 637 638 639
4 640 641 642 643
4 644 645 646 647
4 648 649 650 651
4 652 653 654 655
4 656 657 658 659
4 660 661 662 663
4 664 665 666 667
4 668 669 670 671
4 672 673 674 675
4 676 677 678 679
4 680 681 682 683
4 684 685 686 687
4 688 689 690 691
4 692 693 694 695
4 696 697 698 699
4 700 701 702 703
4 704 705 706 707
4 708 709 710 711
4 712 713 714 715
4 716 717 718 719
4 720 721 722 723
4 724 725 726 727
4 728 729 730 731
4 732 733 734 735
4 736 737 738 739
4 740 741 742 743
4 744 745 746 747
4 748 749 750 751
4 752 753 754 755
4 756 757 758 759
4 760 761 762 763
4 764 765 766 767
4 768 769 770 771
4 772 773 774 775
4 776 777 778 779
4 780 781 782 783
4 784 785 786 787
4 788 789 790 791
4 792 793 794 795
4 796 797 798 799
4 800 801 802 803
4 804 805 806 807
4 808 809 810 811
4 812 813 814 815
4 816 817 818 819
4 820 821 822 823
4 824 825 826 827
4 828 829 830 831
4 832 833 834 835
4 836 837 838 839
4 840 841 842 843
4 844 845 846 847
4 848 849 850 851
4 852 853 854 855
4 856 857 858 859
4 860 861 862 863
4 864 865 866 867
4 868 869 870 871
4 872 873 874 875
4 876 877 878 879
4 880 881 882 883
4 884 885 886 887
4 888 889 890 891
4 892 893 894 895
4 896 897 898 899
4 900 901 902 903
4 904 905 906 907
4 908 909 910 911
4 912 913 914 915
4 916 917 918 919
4 920 921 922 923
4 924 925 926 927
4 928 929 930 931
4 932 933 934 935
4 936 937 938 939
4 940 941 942 943
4 944 945 946 947
4 948 949 950 951
4 952 953 954 955
4 956 957 958 959
4 960 961 962 963
4 964 965 966 967
4 968 969 970 971
4 972 973 974 975
4 976 977 978 979
4 980 981 982 983
4 984 985 986 987
4 988 989 990 991
4 992 993 994 995
4 996 997 998 999
