ply
format ascii 1.0
comment Aron generated
element vertex 533
property float x
property float y
property float z
property float nx
property float ny
property float nz
end_header
0.431151 0.231999 0 0.999834 0.0182051 0
0.426151 0.24494 0 0.998211 0.059791 0
0.436151 0.250992 0 0.998444 -0.0557658 0
0.421151 0.251726 0 0.999575 0.0291396 0
0.441151 0.241391 0 0.991964 -0.126521 0
0.416151 0.243402 0 0.999997 0.00246258 0
0.446151 0.238789 0 0.976457 -0.215714 0
0.411151 0.243683 0 0.999826 0.0186434 0
0.451151 0.241165 0 0.977824 -0.209427 0
0.406151 0.236674 0 0.997749 0.0670649 0
0.456151 0.234936 0 0.971278 -0.237947 0
0.401151 0.245102 0 0.996836 0.0794873 0
0.461151 0.240149 0 0.978542 -0.206047 0
0.396151 0.227606 0 0.996958 0.0779351 0
0.466151 0.249795 0 0.985038 -0.17234 0
0.391151 0.244905 0 0.998105 0.0615285 0
0.471151 0.239975 0 0.996252 -0.0864978 0
0.386151 0.220069 0 0.998535 0.0541136 0
0.476151 0.221978 0 0.996245 -0.0865842 0
0.381151 0.243196 0 0.998949 0.0458374 0
0.481151 0.227816 0 0.995812 -0.0914233 0
0.376151 0.249838 0 0.999388 0.034977 0
0.486151 0.226685 0 0.998172 -0.0604311 0
0.371151 0.239452 0 0.998737 0.050247 0
0.491151 0.221061 0 0.998728 -0.0504273 0
0.366151 0.237325 0 0.997124 0.0757878 0
0.496151 0.233022 0 0.998439 -0.0558539 0
0.361151 0.233489 0 0.999277 0.0380245 0
0.501151 0.228883 0 0.999343 -0.0362445 0
0.356151 0.23639 0 0.999864 -0.0165036 0
0.506151 0.258716 0 0.998892 0.0470531 0
0.351151 0.242513 0 0.996811 -0.0797993 0
0.511151 0.23914 0 0.99596 0.0898007 0
0.346151 0.24453 0 0.99994 0.0109517 0
0.516151 0.24287 0 0.983299 0.181996 0
0.341151 0.231385 0 0.999997 -0.00246575 0
0.521151 0.2291 0 0.971169 0.238393 0
0.336151 0.251888 0 0.999729 0.023271 0
0.526151 0.229085 0 0.972312 0.233687 0
0.331151 0.224741 0 0.999223 -0.0394269 0
0.531151 0.239455 0 0.982359 0.187003 0
0.326151 0.235823 0 0.998111 -0.0614383 0
0.536151 0.232078 0 0.993418 0.11455 0
0.321151 0.226737 0 0.997668 -0.0682565 0
0.541151 0.229663 0 0.997148 0.0754757 0
0.316151 0.240731 0 0.99729 -0.0735677 0
0.546151 0.251374 0 0.999942 -0.010771 0
0.311151 0.254829 0 0.999224 -0.0393962 0
0.551151 0.240081 0 0.998233 -0.0594204 0
0.306151 0.245684 0 0.999518 -0.0310496 0
0.556151 0.239803 0 0.999938 -0.0111671 0
0.301151 0.229536 0 0.995948 0.0899296 0
0.561151 0.248651 0 0.999846 -0.0175241 0
0.296151 0.234822 0 0.999851 0.0172607 0
0.566151 0.248963 0 0.999957 0.00928473 0
0.291151 0.246683 0 0.999952 -0.0098324 0
0.571151 0.249609 0 0.999985 -0.00552737 0
0.286151 0.248962 0 0.999999 -0.00129802 0
0.576151 0.22747 0 0.997769 -0.0667672 0
0.281151 0.239163 0 0.999998 -0.00194275 0
0.581151 0.229515 0 0.997064 -0.0765672 0
0.276151 0.240872 0 0.999888 0.0149575 0
0.586151 0.246001 0 0.998035 -0.0626548 0
0.271151 0.206252 0 0.99568 0.0928465 0
0.591151 0.236817 0 0.996908 -0.0785811 0
0.266151 0.238151 0 0.998218 0.0596813 0
0.596151 0.227144 0 0.999844 -0.0176421 0
0.261151 0.223417 0 0.999107 0.0422514 0
0.601151 0.233402 0 0.999916 -0.0129971 0
0.256151 0.233167 0 0.998095 -0.0616906 0
0.606151 0.234676 0 0.999933 -0.0115395 0
0.251151 0.245262 0 0.999876 -0.015776 0
0.611151 0.238677 0 0.998437 0.0558913 0
0.246151 0.25133 0 0.999415 0.034205 0
0.616151 0.242342 0 0.996909 0.0785594 0
0.241151 0.236462 0 0.998122 -0.0612553 0
0.621151 0.230835 0 0.995825 0.0912828 0
0.236151 0.23867 0 0.997205 -0.0747163 0
0.626151 0.234314 0 0.99856 0.0536515 0
0.231151 0.237614 0 0.999987 -0.00502037 0
0.631151 0.251124 0 0.99761 0.069091 0
0.226151 0.225774 0 0.990855 -0.134932 0
0.636151 0.243937 0 0.996755 0.0804935 0
0.221151 0.255848 0 0.998649 -0.0519554 0
0.641151 0.243386 0 0.999151 0.0411923 0
0.216151 0.233821 0 0.990295 -0.138982 0
0.646151 0.23972 0 0.999928 0.0120226 0
0.211151 0.248641 0 0.994829 -0.101562 0
0.651151 0.239158 0 0.99882 -0.0485706 0
0.206151 0.237863 0 0.99871 -0.0507809 0
0.656151 0.246706 0 0.996495 -0.083649 0
0.201151 0.238531 0 0.999642 -0.0267583 0
0.661151 0.234708 0 0.993656 -0.112466 0
0.196151 0.245928 0 0.997232 -0.0743509 0
0.666151 0.230823 0 0.995598 -0.093726 0
0.191151 0.230603 0 0.998776 -0.0494657 0
0.671151 0.237855 0 0.991039 -0.133576 0
0.186151 0.233796 0 0.998816 -0.0486394 0
0.676151 0.252012 0 0.987596 -0.157016 0
0.181151 0.247032 0 0.997503 -0.0706314 0
0.681151 0.235492 0 0.99668 -0.0814126 0
0.176151 0.253394 0 0.999941 -0.0108846 0
0.686151 0.228267 0 0.997794 -0.0663939 0
0.171151 0.251774 0 1 -9.94797e-05 0
0.691151 0.241483 0 0.999173 -0.0406707 0
0.166151 0.248931 0 1 -0.00101313 0
0.696151 0.227577 0 0.999998 -0.00178325 0
0.161151 0.237893 0 0.999401 -0.0346125 0
0.701151 0.232844 0 0.999999 0.00168726 0
0.156151 0.231058 0 0.999203 0.0399096 0
0.706151 0.230007 0 0.999129 0.0417245 0
0.151151 0.243459 0 0.99544 0.095385 0
0.711151 0.238402 0 0.998672 0.0515159 0
0.146151 0.239253 0 0.999601 0.0282336 0
0.716151 0.232586 0 0.999922 -0.0125277 0
0.141151 0.243321 0 0.994607 0.103719 0
0.721151 0.233645 0 1 -0.000722728 0
0.136151 0.250989 0 0.987731 0.156165 0
0.726151 0.249186 0 0.998647 0.0520035 0
0.131151 0.229745 0 0.987267 0.159074 0
0.731151 0.234782 0 0.999125 0.0418174 0
0.126151 0.238296 0 0.98705 0.160411 0
0.736151 0.237417 0 0.999875 0.0157837 0
0.121151 0.249822 0 0.99252 0.122081 0
0.741151 0.244887 0 0.999172 0.0406783 0
0.116151 0.244241 0 0.99858 0.0532697 0
0.746151 0.235706 0 0.999806 -0.01968 0
0.111151 0.223754 0 0.998292 0.0584279 0
0.751151 0.237851 0 0.998549 -0.0538499 0
0.106151 0.230853 0 0.997475 0.0710245 0
0.756151 0.241056 0 0.998286 -0.0585274 0
0.101151 0.252723 0 0.984995 -0.172585 0
0.761151 0.224294 0 0.998183 -0.0602506 0
0.0961508 0.233727 0 0.999998 -0.0020199 0
0.766151 0.237981 0 0.998259 -0.0589876 0
0.0911508 0.233669 0 0.990493 -0.137563 0
0.771151 0.237194 0 0.999973 -0.0072937 0
0.0861508 0.227839 0 0.987054 -0.160387 0
0.776151 0.233156 0 0.999446 0.0332764 0
0.0811508 0.231398 0 0.956713 -0.291034 0
0.781151 0.236338 0 0.997868 0.0652609 0
0.0761508 0.235541 0 0.897924 -0.44015 0
0.786151 0.237529 0 0.990759 0.135632 0
0.0711508 0.24637 0 0.74146 -0.670997 0
0.791151 0.226552 0 0.990826 0.135146 0
0.0661508 0.236738 0 0.750775 -0.660559 0
0.796151 0.229303 0 0.978818 0.204732 0
0.0611508 0.224026 0 0.877052 -0.480396 0
0.801151 0.232121 0 0.931658 0.363335 0
0.885212 0.317038 0 0.710525 0.703672 0
0.880779 0.3144 0 0.729903 0.683551 0
0.887089 0.322232 0 -0.692087 -0.721814 -0
0.875125 0.312983 0 0.720698 0.69325 0
0.899464 0.316928 0 -0.702217 -0.711963 -0
0.870226 0.310811 0 0.763736 0.645529 0
0.901323 0.32214 0 0.710548 0.703649 0
0.880261 0.293705 0 0.710505 0.703692 0
0.896252 0.334282 0 -0.678163 -0.734912 -0
0.869607 0.297287 0 0.722351 0.691526 0
0.900919 0.336687 0 -0.686905 -0.726747 -0
0.862181 0.297642 0 0.743452 0.668789 0
0.912193 0.332484 0 -0.699206 -0.714921 -0
0.852788 0.299965 0 0.747693 0.664044 0
0.899221 0.352526 0 -0.661834 -0.74965 -0
0.853727 0.291954 0 -0.680311 -0.732923 -0
0.915129 0.34369 0 -0.650687 -0.759346 -0
0.85148 0.28713 0 -0.662392 -0.749158 -0
0.910122 0.355768 0 -0.671627 -0.74089 -0
0.850194 0.281345 0 -0.664235 -0.747524 -0
0.916035 0.356926 0 -0.70012 -0.714025 -0
0.846017 0.278451 0 -0.650331 -0.759651 -0
0.928265 0.351767 0 -0.705458 -0.708751 -0
0.8383 0.279097 0 -0.651415 -0.758722 -0
0.937592 0.349511 0 0.765412 0.643541 0
0.851137 0.259189 0 -0.681315 -0.731991 -0
0.925857 0.368317 0 0.727802 0.685787 0
0.834584 0.268671 0 -0.653914 -0.756569 -0
0.934707 0.366538 0 0.722782 0.691076 0
0.829543 0.266641 0 -0.635086 -0.772442 -0
0.932229 0.376087 0 0.715342 0.698774 0
0.821218 0.267895 0 -0.685123 -0.728427 -0
0.934819 0.380568 0 -0.706242 -0.70797 -0
0.83604 0.246002 0 -0.688554 -0.725185 -0
0.943482 0.378976 0 -0.673786 -0.738926 -0
0.826614 0.248357 0 0.76056 0.649268 0
0.954136 0.375393 0 -0.681369 -0.73194 -0
0.81742 0.250479 0 0.829465 0.558559 0
0.959194 0.377407 0 -0.613229 -0.789905 -0
0.818532 0.242296 0 0.845254 0.534365 0
0.958844 0.384827 0 -0.51717 -0.855883 -0
0.814253 0.239504 0 0.891786 0.452457 0
0.969111 0.381632 0 -0.562933 -0.826503 -0
0.805633 0.241053 0 0.936155 0.351589 0
0.960426 0.397387 0 -0.464261 -0.885698 -0
0.961636 0.553826 0 0.136221 -0.990678 0
0.972687 0.548826 0 0.120719 -0.992687 0
0.957493 0.558827 0 0.210978 -0.977491 0
0.980105 0.543826 0 -0.0155612 -0.999879 -0
0.966718 0.563827 0 0.202404 -0.979302 0
0.962568 0.538826 0 0.105299 -0.994441 0
0.972884 0.568827 0 0.116021 -0.993247 0
0.973901 0.533826 0 -0.0664002 -0.997793 -0
0.977962 0.573827 0 0.144758 -0.989467 0
0.970047 0.528826 0 -0.0308296 -0.999525 -0
0.940954 0.578827 0 0.131727 -0.991286 0
0.9515 0.523826 0 0.00616128 -0.999981 0
0.950077 0.583827 0 0.0878372 -0.996135 0
0.966628 0.518826 0 0.0446546 -0.999003 0
0.968616 0.588827 0 0.154234 -0.988034 0
0.969097 0.513826 0 0.0213762 -0.999772 0
0.958338 0.593827 0 0.0720017 -0.997405 0
0.971161 0.508827 0 -0.0866212 -0.996241 -0
0.956324 0.598826 0 -0.0135143 -0.999909 -0
0.970678 0.503826 0 -0.0907426 -0.995874 -0
0.936973 0.603827 0 -0.0822187 -0.996614 -0
0.970126 0.498826 0 -0.127785 -0.991802 -0
0.95828 0.608826 0 0.0103265 -0.999947 0
0.962544 0.493826 0 -0.036081 -0.999349 -0
0.965185 0.613827 0 -0.0819592 -0.996636 -0
0.960705 0.488827 0 -0.0534612 -0.99857 -0
0.96478 0.618826 0 -0.186194 -0.982513 -0
0.975348 0.483826 0 -0.000478851 -1 -0
0.964483 0.623827 0 -0.226766 -0.973949 -0
0.989877 0.478827 0 -0.0441319 -0.999026 -0
0.957696 0.628826 0 -0.211375 -0.977405 -0
0.956278 0.473827 0 -0.0398508 -0.999206 -0
0.957127 0.633827 0 -0.19436 -0.98093 -0
0.963674 0.468827 0 -0.0275489 -0.99962 -0
0.964922 0.638826 0 -0.246177 -0.969225 -0
0.950811 0.463827 0 -0.0237823 -0.999717 -0
0.972108 0.643826 0 -0.199167 -0.979966 -0
0.971003 0.458827 0 0.0387144 -0.99925 0
0.972881 0.648826 0 -0.152407 -0.988318 -0
0.952915 0.453827 0 -0.0133329 -0.999911 -0
0.948876 0.653826 0 0.0388926 -0.999243 0
0.974752 0.448827 0 0.0869511 -0.996213 0
0.97316 0.658826 0 -0.0195147 -0.99981 -0
0.965963 0.443827 0 -0.0420775 -0.999114 -0
0.971726 0.663826 0 -0.00450057 -0.99999 -0
0.971642 0.438827 0 -0.0825431 -0.996588 -0
0.97639 0.668826 0 0.0405232 -0.999179 0
0.953731 0.433827 0 0.0176081 -0.999845 0
0.969241 0.673826 0 0.0941191 -0.995561 0
0.976282 0.428826 0 0.0359697 -0.999353 0
0.972758 0.678826 0 0.158909 -0.987293 0
0.970159 0.423826 0 -0.0167589 -0.99986 -0
0.976707 0.683827 0 0.22554 -0.974234 0
0.965871 0.418826 0 -0.155158 -0.98789 -0
0.972979 0.688827 0 0.279588 -0.96012 0
0.979303 0.413826 0 -0.166386 -0.986061 -0
0.962865 0.693827 0 0.480773 -0.876845 0
0.943527 0.408826 0 -0.397875 -0.917439 -0
0.964038 0.698827 0 0.633216 -0.773975 0
0.968927 0.403826 0 -0.358866 -0.933389 -0
0.966678 0.703827 0 0.666285 -0.745697 0
0.960188 0.398826 0 -0.464261 -0.885698 -0
0.973801 0.708827 0 0.659097 -0.752058 0
0.510752 0.716829 0 0.996472 0.0839296 0
0.515752 0.694408 0 0.999242 -0.0389168 0
0.505752 0.704803 0 0.992898 0.118966 0
0.520752 0.716595 0 0.998307 -0.0581592 0
0.500752 0.707231 0 0.989792 0.142522 0
0.525752 0.702321 0 0.999611 -0.0278836 0
0.495752 0.728169 0 0.988843 0.14896 0
0.530752 0.724986 0 0.997556 -0.0698687 0
0.490752 0.731938 0 0.990033 0.140837 0
0.535752 0.705673 0 0.997909 0.0646319 0
0.485752 0.731454 0 0.987638 0.156754 0
0.540752 0.730513 0 0.997909 0.0646319 0
0.480752 0.701611 0 0.993981 0.109555 0
0.545752 0.715752 0 0.997618 0.0689782 0
0.475752 0.71878 0 0.995791 0.0916559 0
0.550752 0.718896 0 0.998436 0.0558987 0
0.470752 0.712208 0 0.995866 0.090834 0
0.555752 0.720065 0 0.996745 -0.0806194 0
0.465752 0.69907 0 0.985697 0.168526 0
0.560752 0.701823 0 0.997217 -0.0745578 0
0.460752 0.700729 0 0.987616 0.156894 0
0.565752 0.71434 0 0.994718 -0.102643 0
0.455752 0.702173 0 0.97892 0.204244 0
0.570752 0.717548 0 0.996723 -0.080888 0
0.450752 0.707817 0 0.978575 0.205891 0
0.575752 0.72023 0 0.989443 -0.144926 0
0.445752 0.701644 0 0.998654 0.0518771 0
0.580752 0.713331 0 0.992027 -0.126026 0
0.440752 0.704584 0 0.994812 -0.101733 0
0.585752 0.698696 0 0.997218 -0.0745392 0
0.435752 0.723825 0 0.995176 -0.0981092 0
0.590752 0.71579 0 0.998302 -0.0582531 0
0.430752 0.70829 0 0.998845 -0.0480552 0
0.595752 0.696223 0 0.99964 -0.0268301 0
0.425752 0.70426 0 0.993291 -0.115643 0
0.600752 0.705326 0 0.999423 -0.033974 0
0.420752 0.722096 0 0.996549 -0.0830023 0
0.605752 0.730814 0 0.998955 -0.0456939 0
0.415752 0.694159 0 0.99792 -0.0644572 0
0.610752 0.705058 0 0.999176 -0.0405898 0
0.410752 0.70471 0 0.999261 -0.0384345 0
0.615752 0.714259 0 0.999988 0.00492954 0
0.405752 0.714372 0 0.999902 -0.0139952 0
0.620752 0.707104 0 0.999121 0.0419278 0
0.400752 0.706807 0 0.999836 -0.0181146 0
0.625752 0.705217 0 0.996766 0.0803551 0
0.395752 0.725694 0 0.999636 0.0269755 0
0.630752 0.719651 0 0.987202 0.159474 0
0.390752 0.714995 0 0.99993 0.0118281 0
0.635752 0.712995 0 0.994654 0.103263 0
0.385752 0.700233 0 0.999982 0.00606103 0
0.640752 0.710833 0 0.995944 0.0899797 0
0.380752 0.716502 0 0.99975 0.0223525 0
0.645752 0.70838 0 0.999954 0.00958411 0
0.375752 0.700316 0 0.998536 0.0540848 0
0.650752 0.702306 0 0.999968 -0.00800944 0
0.370752 0.707446 0 0.993918 -0.110127 0
0.655752 0.717094 0 0.999717 -0.023785 0
0.365752 0.709616 0 0.999969 -0.00789237 0
0.660752 0.720547 0 0.999391 -0.0348957 0
0.360752 0.709452 0 0.99953 0.030653 0
0.665752 0.714212 0 0.99986 0.0167189 0
0.355752 0.711717 0 0.999999 0.00166528 0
0.670752 0.712032 0 0.999989 0.0047435 0
0.350752 0.706001 0 0.998151 0.0607807 0
0.675752 0.729852 0 0.999843 -0.0177118 0
0.345752 0.720859 0 0.998543 -0.0539661 0
0.680752 0.711519 0 0.999082 0.0428345 0
0.340752 0.69697 0 0.995343 -0.0963925 0
0.685752 0.703052 0 0.999862 0.0166427 0
0.335752 0.706116 0 0.996559 -0.0828882 0
0.690752 0.708488 0 0.999555 0.0298416 0
0.330752 0.723403 0 0.994917 -0.100698 0
0.695752 0.699482 0 0.999997 -0.00251802 0
0.325752 0.722773 0 0.991536 -0.129833 0
0.700752 0.706486 0 0.999398 -0.034691 0
0.320752 0.700738 0 0.993544 -0.113449 0
0.705752 0.713585 0 0.999793 -0.0203406 0
0.315752 0.707216 0 0.996569 -0.0827698 0
0.710752 0.722786 0 0.999723 -0.0235558 0
0.310752 0.713139 0 0.999442 -0.0334162 0
0.715752 0.713563 0 0.999836 -0.0181191 0
0.305752 0.699631 0 0.999653 -0.0263321 0
0.720752 0.713249 0 0.998927 -0.0463129 0
0.300752 0.724987 0 0.999999 0.00144967 0
0.725752 0.722217 0 0.999987 0.00517816 0
0.295752 0.715809 0 0.997333 0.0729816 0
0.730752 0.704582 0 0.998436 0.055911 0
0.290752 0.717454 0 0.992514 0.122129 0
0.735752 0.717271 0 0.998653 0.0518915 0
0.285752 0.717407 0 0.991103 0.133097 0
0.740752 0.708646 0 0.999371 0.0354509 0
0.280752 0.72502 0 0.998727 0.0504449 0
0.745752 0.714398 0 0.999987 0.0050312 0
0.275752 0.7134 0 0.999072 0.0430768 0
0.750752 0.712922 0 0.999245 -0.0388434 0
0.270752 0.706908 0 0.9993 0.0374194 0
0.755752 0.703225 0 0.99662 -0.0821474 0
0.265752 0.701657 0 0.988469 0.151425 0
0.760752 0.687691 0 0.997276 -0.0737651 0
0.260752 0.71096 0 0.986362 0.164591 0
0.765752 0.719953 0 0.998719 -0.0505995 0
0.255752 0.687069 0 0.980058 0.198712 0
0.770752 0.707078 0 0.994785 -0.101991 0
0.250752 0.702532 0 0.993478 0.114025 0
0.775752 0.721815 0 0.998624 -0.05245 0
0.245752 0.709899 0 0.995125 0.0986248 0
0.780752 0.718426 0 0.998802 -0.0489417 0
0.240752 0.713521 0 0.998233 0.0594188 0
0.785752 0.711414 0 0.99996 0.00899422 0
0.235752 0.719552 0 0.999881 -0.0154561 0
0.790752 0.716672 0 0.998498 0.0547952 0
0.230752 0.700728 0 0.995889 -0.0905767 0
0.795752 0.707871 0 0.999651 0.0264226 0
0.225752 0.722489 0 0.992688 -0.120705 0
0.800752 0.700157 0 0.999881 0.0154423 0
0.220752 0.687738 0 0.994497 -0.104768 0
0.805752 0.703981 0 0.999827 -0.0186229 0
0.215752 0.703977 0 0.998346 -0.0574999 0
0.810752 0.714019 0 0.997977 -0.063577 0
0.210752 0.713492 0 0.999956 0.00941663 0
0.815752 0.694239 0 0.999338 -0.0363769 0
0.205752 0.710319 0 0.999995 -0.00303863 0
0.820752 0.70994 0 0.999968 -0.00795575 0
0.200752 0.707133 0 0.99902 0.0442609 0
0.825752 0.716358 0 0.998317 0.0579891 0
0.195752 0.710463 0 0.998866 0.0476086 0
0.830752 0.717586 0 0.994135 0.108145 0
0.190752 0.719031 0 0.999986 -0.00538711 0
0.835752 0.724614 0 0.984999 0.172562 0
0.185752 0.715034 0 0.999317 -0.0369473 0
0.840752 0.699284 0 0.988708 0.149855 0
0.180752 0.712067 0 0.999907 0.0136675 0
0.845752 0.704529 0 0.985895 0.167365 0
0.175752 0.704936 0 0.999 -0.0447204 0
0.850752 0.71001 0 0.983468 0.181084 0
0.170752 0.703048 0 0.999658 -0.0261524 0
0.855752 0.713928 0 0.995217 0.0976848 0
0.165752 0.705849 0 0.999796 -0.0201963 0
0.860752 0.722721 0 0.999916 0.0129392 0
0.160752 0.712268 0 0.996614 -0.0822194 0
0.865752 0.733074 0 0.999887 0.0150365 0
0.155752 0.70416 0 0.999379 -0.0352373 0
0.870752 0.702206 0 0.9997 0.0244882 0
0.150752 0.708449 0 0.999915 0.0130343 0
0.875752 0.717048 0 0.998582 0.0532361 0
0.145752 0.719527 0 0.999986 -0.00521952 0
0.880752 0.72782 0 0.998807 0.0488298 0
0.140752 0.706505 0 0.998949 -0.0458351 0
0.885752 0.696482 0 0.999257 0.0385377 0
0.135752 0.70596 0 0.997273 -0.0738065 0
0.890752 0.739372 0 0.999748 0.0224584 0
0.130752 0.737824 0 0.990305 -0.138908 0
0.895752 0.71306 0 0.994565 -0.104117 0
0.125752 0.721514 0 0.988734 -0.14968 0
0.900752 0.707403 0 0.980213 -0.197947 0
0.120752 0.702253 0 0.994346 -0.106186 0
0.905752 0.711529 0 0.975556 -0.219752 0
0.115752 0.723505 0 0.990676 -0.136237 0
0.910752 0.719714 0 0.988685 -0.150003 0
0.110752 0.700944 0 0.999641 0.0267986 0
0.915752 0.718064 0 0.996827 -0.079601 0
0.105752 0.70381 0 0.99419 0.107635 0
0.920752 0.720935 0 0.98143 -0.191819 0
0.100752 0.715378 0 0.988636 0.150329 0
0.925752 0.711722 0 0.97615 -0.217099 0
0.095752 0.71349 0 0.986712 0.162482 0
0.930752 0.69728 0 0.950382 -0.311086 0
0.090752 0.729469 0 0.972068 0.234698 0
0.935752 0.72261 0 0.967073 -0.254498 0
0.085752 0.706435 0 0.935849 0.352403 0
0.940752 0.698511 0 0.880028 -0.474921 0
0.080752 0.728101 0 0.982226 0.187701 0
0.945752 0.698191 0 0.819357 -0.573283 0
0.075752 0.711926 0 0.92975 0.368192 0
0.950752 0.709319 0 0.863441 -0.50445 0
0.070752 0.728761 0 0.938225 0.346026 0
0.955752 0.72811 0 0.916153 -0.400829 0
0.065752 0.714533 0 0.794936 0.606693 0
0.960752 0.706281 0 0.720087 -0.693883 0
0.060752 0.703845 0 -0.624006 -0.78142 -0
0.0454813 0.474226 0 0.0795709 -0.996829 0
0.0634414 0.479226 0 0.084078 -0.996459 0
0.0701324 0.469226 0 0.0343976 -0.999408 0
0.0620855 0.484226 0 0.116306 -0.993213 0
0.0601679 0.464226 0 -0.0224641 -0.999748 -0
0.0573598 0.489226 0 0.0396884 -0.999212 0
0.0589989 0.459226 0 -0.0364199 -0.999337 -0
0.0445777 0.494226 0 0.0319925 -0.999488 0
0.056571 0.454226 0 -0.0679153 -0.997691 -0
0.0777421 0.499226 0 -0.0440226 -0.999031 -0
0.0659056 0.449226 0 -0.00182972 -0.999998 -0
0.0554799 0.504226 0 0.026877 -0.999639 0
0.0625032 0.444226 0 -0.0239176 -0.999714 -0
0.0564452 0.509226 0 0.0575961 -0.99834 0
0.0713131 0.439226 0 -0.0268956 -0.999638 -0
0.0540669 0.514226 0 0.0320499 -0.999486 0
0.0480416 0.434226 0 -0.0678898 -0.997693 -0
0.0391755 0.519226 0 0.021808 -0.999762 0
0.0481245 0.429226 0 -0.0822444 -0.996612 -0
0.0660327 0.524226 0 0.0881329 -0.996109 0
0.0650351 0.424226 0 -0.160439 -0.987046 -0
0.0590002 0.529226 0 0.0316947 -0.999498 0
0.0507968 0.419226 0 -0.14646 -0.989217 -0
0.0668569 0.534226 0 0.0530875 -0.99859 0
0.0585469 0.414226 0 -0.126629 -0.99195 -0
0.0690442 0.539226 0 0.140443 -0.990089 0
0.0559892 0.409226 0 -0.140666 -0.990057 -0
0.0536616 0.544226 0 0.162889 -0.986644 0
0.0578109 0.404226 0 -0.0452954 -0.998974 -0
0.0507422 0.549226 0 0.162889 -0.986644 0
0.0654352 0.399226 0 -0.0443929 -0.999014 -0
0.0502263 0.554226 0 0.175685 -0.984446 0
0.0605541 0.394226 0 -0.0465907 -0.998914 -0
0.0620557 0.559226 0 0.065416 -0.997858 0
0.0443423 0.389226 0 0.022208 -0.999753 0
0.0471054 0.564226 0 0.103004 -0.994681 0
0.0492387 0.384226 0 -0.017438 -0.999848 -0
0.0508773 0.569226 0 0.11966 -0.992815 0
0.0454185 0.379226 0 -0.0903053 -0.995914 -0
0.0654059 0.574226 0 0.0885871 -0.996068 0
0.0477261 0.374226 0 -0.0776371 -0.996982 -0
0.0459969 0.579226 0 0.0878447 -0.996134 0
0.0585591 0.369226 0 -0.0452418 -0.998976 -0
0.041149 0.584226 0 -0.0897008 -0.995969 -0
0.078182 0.364226 0 -0.00660608 -0.999978 -0
0.0372838 0.589226 0 -0.0761421 -0.997097 -0
0.0640414 0.359226 0 0.00591539 -0.999983 0
0.0806687 0.594226 0 -0.112371 -0.993666 -0
0.0487578 0.354226 0 0.0161233 -0.99987 0
0.0479484 0.599226 0 -0.0456539 -0.998957 -0
0.0494746 0.349226 0 0.060758 -0.998153 0
0.0638643 0.604226 0 -0.053193 -0.998584 -0
0.0574701 0.344226 0 0.110396 -0.993888 0
0.0488475 0.609226 0 -0.080478 -0.996756 -0
0.0524403 0.339226 0 0.04256 -0.999094 0
0.059861 0.614226 0 -0.0345367 -0.999403 -0
0.0425037 0.334226 0 0.0334469 -0.99944 0
0.0517377 0.619226 0 0.0173492 -0.999849 0
0.0473827 0.329226 0 0.0216217 -0.999766 0
0.0706937 0.624226 0 -0.0063817 -0.99998 -0
0.069279 0.324226 0 -0.0238619 -0.999715 -0
0.0541151 0.629226 0 -0.0583983 -0.998293 -0
0.0600254 0.319226 0 0.0103793 -0.999946 0
0.0548657 0.634226 0 0.0782981 -0.99693 0
0.0578629 0.314226 0 0.064017 -0.997949 0
0.062571 0.639226 0 0.144028 -0.989574 0
0.054857 0.309226 0 0.0925829 -0.995705 0
0.0370953 0.644226 0 0.0640012 -0.99795 0
0.0558347 0.304226 0 0.0748726 -0.997193 0
0.059768 0.649226 0 0.0554489 -0.998462 0
0.0615244 0.299226 0 0.00811893 -0.999967 0
0.0527141 0.654226 0 -0.0264393 -0.99965 -0
0.0460153 0.294226 0 0.0317666 -0.999495 0
0.0509515 0.659226 0 -0.0187653 -0.999824 -0
0.0585777 0.289226 0 0.0647772 -0.9979 0
0.0462008 0.664226 0 -0.0141859 -0.999899 -0
0.0634879 0.284226 0 0.0518221 -0.998656 0
0.0468874 0.669226 0 -0.0951715 -0.995461 -0
0.0545994 0.279226 0 0.045783 -0.998951 0
0.0737676 0.674226 0 -0.448651 -0.893707 -0
0.0631673 0.274226 0 0.215119 -0.976588 0
0.0450977 0.679226 0 -0.218085 -0.97593 -0
0.0553238 0.269226 0 0.162916 -0.98664 0
0.0536751 0.684226 0 -0.262658 -0.964889 -0
0.0562059 0.264226 0 0.287993 -0.957633 0
0.0633677 0.689226 0 -0.558826 -0.829285 -0
0.0578341 0.259226 0 0.372478 -0.928041 0
0.0523219 0.694226 0 -0.381034 -0.924561 -0
0.0417324 0.254226 0 0.194035 -0.980995 0
0.0670456 0.699226 0 -0.617434 -0.786623 -0
0.0597452 0.249226 0 0.562096 -0.827072 0
0.0564008 0.704226 0 -0.624006 -0.78142 -0
0.0579637 0.244226 0 0.499261 -0.866452 0
0.0492745 0.709226 0 -0.56941 -0.822054 -0
0.0575372 0.239226 0 0.690702 -0.72314 0
