ply
format ascii 1.0
comment PCL generated
element vertex 476
property float x
property float y
property float z
property uchar red
property uchar green
property uchar blue
element face 119
property list uchar int vertex_indices
end_header
1.3188 -1.0666 2.609 0 0 0 
0.93694 -1.0666 2.609 0 0 0 
0.93694 -0.86012 2.609 0 0 0 
1.3188 -0.86012 2.609 0 0 0 
1.3339 -0.84642 2.629 0 0 0 
0.89855 -0.84642 2.629 0 0 0 
0.89855 -1.0747 2.629 0 0 0 
1.3339 -1.0747 2.629 0 0 0 
-0.48195 -0.93917 2.5919 0 0 0 
-0.59407 -0.9474 1.0164 0 0 0 
-0.67817 0.19916 1.0164 0 0 0 
-0.56605 0.20739 2.5919 0 0 0 
1.2182 -0.98756 2.5475 0 0 0 
1.2259 -1.0603 2.563 0 0 0 
1.162 -1.0603 2.5948 0 0 0 
1.1543 -0.98756 2.5794 0 0 0 
-0.6011 -0.25656 1.3352 0 0 0 
-0.60022 -0.48532 1.3351 0 0 0 
-0.65139 -0.48532 1.0183 0 0 0 
-0.65226 -0.25656 1.0184 0 0 0 
1.3491 -0.75113 2.669 0 0 0 
0.8043 -0.75113 2.669 0 0 0 
0.8043 -1.0808 2.669 0 0 0 
1.3491 -1.0808 2.669 0 0 0 
1.339 -0.82218 2.649 0 0 0 
0.89519 -0.82218 2.649 0 0 0 
0.89519 -1.0727 2.649 0 0 0 
1.339 -1.0727 2.649 0 0 0 
1.4037 -0.51892 2.777 0 0 0 
0.27 -0.51892 2.777 0 0 0 
0.27 -1.1192 2.777 0 0 0 
1.4037 -1.1192 2.777 0 0 0 
0.92357 -0.92737 2.733 0 0 0 
0.5657 -0.92737 2.733 0 0 0 
0.5657 -1.1014 2.733 0 0 0 
0.92357 -1.1014 2.733 0 0 0 
1.3703 -0.62169 2.711 0 0 0 
0.58203 -0.62169 2.711 0 0 0 
0.58203 -1.0926 2.711 0 0 0 
1.3703 -1.0926 2.711 0 0 0 
1.3867 -0.56777 2.754 0 0 0 
0.35792 -0.56777 2.754 0 0 0 
0.35792 -1.1099 2.754 0 0 0 
1.3867 -1.1099 2.754 0 0 0 
1.3597 -0.68436 2.69 0 0 0 
0.68112 -0.68436 2.69 0 0 0 
0.68112 -1.0841 2.69 0 0 0 
1.3597 -1.0841 2.69 0 0 0 
0.32847 -0.61168 2.9671 0 0 0 
-0.59139 -0.61168 2.9671 0 0 0 
-0.59139 -1.19 2.9671 0 0 0 
0.32847 -1.19 2.9671 0 0 0 
1.3504 -0.54261 2.845 0 0 0 
-0.16167 -0.54261 2.845 0 0 0 
-0.16167 -1.1411 2.845 0 0 0 
1.3504 -1.1411 2.845 0 0 0 
0.93735 -0.70705 2.822 0 0 0 
0.024402 -0.70705 2.822 0 0 0 
0.024402 -1.1319 2.822 0 0 0 
0.93735 -1.1319 2.822 0 0 0 
1.0106 -0.72289 2.799 0 0 0 
0.12122 -0.72289 2.799 0 0 0 
0.12122 -1.1226 2.799 0 0 0 
1.0106 -1.1226 2.799 0 0 0 
0.53413 -1.0962 2.733 0 0 0 
0.48676 -1.0962 2.733 0 0 0 
0.48676 -1.0434 2.733 0 0 0 
0.53413 -1.0434 2.733 0 0 0 
0.20455 -0.63437 2.993 0 0 0 
-0.60234 -0.63437 2.993 0 0 0 
-0.60234 -1.1947 2.993 0 0 0 
0.20455 -1.1947 2.993 0 0 0 
0.56931 -0.59517 2.942 0 0 0 
-0.51276 -0.59517 2.942 0 0 0 
-0.51276 -1.1743 2.942 0 0 0 
0.56931 -1.1743 2.942 0 0 0 
0.1488 -0.83781 2.917 0 0 0 
-0.4073 -0.83781 2.917 0 0 0 
-0.4073 -1.1643 2.917 0 0 0 
0.1488 -1.1643 2.917 0 0 0 
0.5654 -0.72484 2.893 0 0 0 
-0.30924 -0.72484 2.893 0 0 0 
-0.30924 -1.1547 2.893 0 0 0 
0.5654 -1.1547 2.893 0 0 0 
1.2402 -0.56379 2.8689 0 0 0 
-0.16856 -0.56379 2.8689 0 0 0 
-0.16856 -1.1396 2.8689 0 0 0 
1.2402 -1.1396 2.8689 0 0 0 
1.2737 -0.97344 2.589 0 0 0 
1.194 -0.97344 2.589 0 0 0 
1.194 -0.93347 2.589 0 0 0 
1.2737 -0.93347 2.589 0 0 0 
0.055173 -0.65153 3.019 0 0 0 
-0.59595 -0.65153 3.019 0 0 0 
-0.59595 -1.071 3.019 0 0 0 
0.055173 -1.071 3.019 0 0 0 
-0.57005 -0.57299 1.8041 0 0 0 
-0.5732 -0.5745 1.6981 0 0 0 
-0.55751 -0.60702 1.6981 0 0 0 
-0.55436 -0.6055 1.8041 0 0 0 
1.1657 -0.79024 2.733 0 0 0 
0.90779 -0.79024 2.733 0 0 0 
0.90779 -0.93265 2.733 0 0 0 
1.1657 -0.93265 2.733 0 0 0 
-0.032316 -0.65736 3.046 0 0 0 
-0.60714 -0.65736 3.046 0 0 0 
-0.60714 -1.0042 3.046 0 0 0 
-0.032316 -1.0042 3.046 0 0 0 
-0.17462 -0.9953 3.073 0 0 0 
-0.61844 -0.9953 3.073 0 0 0 
-0.61844 -0.67505 3.073 0 0 0 
-0.17462 -0.67505 3.073 0 0 0 
-0.18219 -0.69317 3.101 0 0 0 
-0.60616 -0.69317 3.101 0 0 0 
-0.60616 -0.93255 3.101 0 0 0 
-0.18219 -0.93255 3.101 0 0 0 
0.57009 -0.59012 2.917 0 0 0 
0.17127 -0.59012 2.917 0 0 0 
0.17127 -0.84344 2.917 0 0 0 
0.57009 -0.84344 2.917 0 0 0 
-0.35254 -0.70547 3.129 0 0 0 
-0.61163 -0.70547 3.129 0 0 0 
-0.61163 -0.86851 3.129 0 0 0 
-0.35254 -0.86851 3.129 0 0 0 
1.3814 -0.61091 2.733 0 0 0 
1.1709 -0.61091 2.733 0 0 0 
1.1709 -0.75859 2.733 0 0 0 
1.3814 -0.75859 2.733 0 0 0 
-0.52795 -0.5128 2.3919 0 0 0 
-0.59131 -0.5214 1.0582 0 0 0 
-0.68981 0.20436 1.0582 0 0 0 
-0.62645 0.21296 2.3919 0 0 0 
-0.55023 -0.82754 3.157 0 0 0 
-0.61103 -0.82754 3.157 0 0 0 
-0.61103 -0.72396 3.157 0 0 0 
-0.55023 -0.72396 3.157 0 0 0 
1.1669 -0.72289 2.799 0 0 0 
1.0106 -0.72289 2.799 0 0 0 
1.0106 -0.60946 2.799 0 0 0 
1.1669 -0.60946 2.799 0 0 0 
0.82723 -0.73601 2.893 0 0 0 
0.181 -0.73601 2.893 0 0 0 
0.181 -0.56851 2.893 0 0 0 
0.82723 -0.56851 2.893 0 0 0 
-0.57983 -0.79825 3.186 0 0 0 
-0.62891 -0.79825 3.186 0 0 0 
-0.62891 -0.73676 3.186 0 0 0 
-0.57983 -0.73676 3.186 0 0 0 
1.2417 -0.53277 2.822 0 0 0 
0.93735 -0.53277 2.822 0 0 0 
0.93735 -0.70705 2.822 0 0 0 
1.2417 -0.70705 2.822 0 0 0 
0.80601 -0.60137 2.917 0 0 0 
0.58694 -0.60137 2.917 0 0 0 
0.58694 -0.6633 2.917 0 0 0 
0.80601 -0.6633 2.917 0 0 0 
-0.48396 -0.66912 3.046 0 0 0 
-0.56022 -0.66912 3.046 0 0 0 
-0.56022 -0.68087 3.046 0 0 0 
-0.48396 -0.68087 3.046 0 0 0 
-0.38666 -0.66901 3.019 0 0 0 
-0.54362 -0.66901 3.019 0 0 0 
-0.54362 -0.65736 3.019 0 0 0 
-0.38666 -0.65736 3.019 0 0 0 
-0.21806 -0.66901 3.019 0 0 0 
-0.34015 -0.66901 3.019 0 0 0 
-0.34015 -0.65153 3.019 0 0 0 
-0.21806 -0.65153 3.019 0 0 0 
1.2585 -0.61486 2.799 0 0 0 
1.1615 -0.61486 2.799 0 0 0 
1.1615 -0.53923 2.799 0 0 0 
1.2585 -0.53923 2.799 0 0 0 
0.94979 -0.62993 2.893 0 0 0 
0.8718 -0.62993 2.893 0 0 0 
0.8718 -0.57968 2.893 0 0 0 
0.94979 -0.57968 2.893 0 0 0 
0.73927 -0.63492 2.942 0 0 0 
0.65995 -0.63492 2.942 0 0 0 
0.65995 -0.61788 2.942 0 0 0 
0.73927 -0.61788 2.942 0 0 0 
-0.39946 -0.62356 2.942 0 0 0 
-0.55808 -0.62356 2.942 0 0 0 
-0.55808 -0.62924 2.942 0 0 0 
-0.39946 -0.62924 2.942 0 0 0 
-0.087866 -0.62924 2.942 0 0 0 
-0.17285 -0.62924 2.942 0 0 0 
-0.17285 -0.61221 2.942 0 0 0 
-0.087866 -0.61221 2.942 0 0 0 
-0.2107 -0.61826 2.917 0 0 0 
-0.39044 -0.61826 2.917 0 0 0 
-0.39044 -0.59574 2.917 0 0 0 
-0.2107 -0.59574 2.917 0 0 0 
-0.059033 -0.61826 2.917 0 0 0 
-0.17699 -0.61826 2.917 0 0 0 
-0.17699 -0.607 2.917 0 0 0 
-0.059033 -0.607 2.917 0 0 0 
1.2985 -0.034592 1.7267 0 0 0 
-0.23941 -0.052915 1.7182 0 0 0 
-0.23941 -0.62138 2.943 0 0 0 
1.2985 -0.60306 2.9515 0 0 0 
0.18812 -0.61826 2.917 0 0 0 
-0.0084792 -0.61826 2.917 0 0 0 
-0.0084792 -0.58448 2.917 0 0 0 
0.18812 -0.58448 2.917 0 0 0 
0.11972 -0.59084 2.893 0 0 0 
-0.0028385 -0.59084 2.893 0 0 0 
-0.0028385 -0.61317 2.893 0 0 0 
0.11972 -0.61317 2.893 0 0 0 
-0.14211 -0.58526 2.893 0 0 0 
-0.49308 -0.58526 2.893 0 0 0 
-0.49308 -0.60759 2.893 0 0 0 
-0.14211 -0.60759 2.893 0 0 0 
0.11873 -0.5804 2.869 0 0 0 
-0.14646 -0.5804 2.869 0 0 0 
-0.14646 -0.60255 2.869 0 0 0 
0.11873 -0.60255 2.869 0 0 0 
-0.2238 -0.5804 2.869 0 0 0 
-0.48346 -0.5804 2.869 0 0 0 
-0.48346 -0.59702 2.869 0 0 0 
-0.2238 -0.59702 2.869 0 0 0 
0.095821 -0.57006 2.845 0 0 0 
-0.15071 -0.57006 2.845 0 0 0 
-0.15071 -0.59202 2.845 0 0 0 
0.095821 -0.59202 2.845 0 0 0 
0.36182 -0.56379 2.869 0 0 0 
0.19608 -0.56379 2.869 0 0 0 
0.19608 -0.59702 2.869 0 0 0 
0.36182 -0.59702 2.869 0 0 0 
-0.29078 -0.58179 2.822 0 0 0 
-0.52445 -0.58179 2.822 0 0 0 
-0.52445 -0.55456 2.822 0 0 0 
-0.29078 -0.55456 2.822 0 0 0 
-0.12132 -0.53923 2.799 0 0 0 
-0.53096 -0.53923 2.799 0 0 0 
-0.53096 -0.57165 2.799 0 0 0 
-0.12132 -0.57165 2.799 0 0 0 
-0.23837 -0.56457 2.845 0 0 0 
-0.38081 -0.56457 2.845 0 0 0 
-0.38081 -0.58104 2.845 0 0 0 
-0.23837 -0.58104 2.845 0 0 0 
0.304 -0.55359 2.845 0 0 0 
0.19443 -0.55359 2.845 0 0 0 
0.19443 -0.58104 2.845 0 0 0 
0.304 -0.58104 2.845 0 0 0 
-0.41449 -0.56179 2.777 0 0 0 
-0.53213 -0.56179 2.777 0 0 0 
-0.53213 -0.535 2.777 0 0 0 
-0.41449 -0.535 2.777 0 0 0 
-0.42696 -0.55182 2.754 0 0 0 
-0.53303 -0.55182 2.754 0 0 0 
-0.53303 -0.52525 2.754 0 0 0 
-0.42696 -0.52525 2.754 0 0 0 
0.10423 -0.55643 2.777 0 0 0 
-0.13107 -0.55643 2.777 0 0 0 
-0.13107 -0.54036 2.777 0 0 0 
0.10423 -0.54036 2.777 0 0 0 
0.49313 -0.56084 2.799 0 0 0 
0.4015 -0.56084 2.799 0 0 0 
0.4015 -0.55004 2.799 0 0 0 
0.49313 -0.55004 2.799 0 0 0 
1.113 -0.56084 2.799 0 0 0 
1.0052 -0.56084 2.799 0 0 0 
1.0052 -0.52843 2.799 0 0 0 
1.113 -0.52843 2.799 0 0 0 
-0.15246 -0.55107 2.777 0 0 0 
-0.29684 -0.55107 2.777 0 0 0 
-0.29684 -0.52964 2.777 0 0 0 
-0.15246 -0.52964 2.777 0 0 0 
0.12458 -0.54651 2.754 0 0 0 
-0.18832 -0.54651 2.754 0 0 0 
-0.18832 -0.52525 2.754 0 0 0 
0.12458 -0.52525 2.754 0 0 0 
0.25931 -0.55107 2.777 0 0 0 
0.13631 -0.55107 2.777 0 0 0 
0.13631 -0.54036 2.777 0 0 0 
0.25931 -0.54036 2.777 0 0 0 
0.67099 -0.55544 2.799 0 0 0 
0.58475 -0.55544 2.799 0 0 0 
0.58475 -0.54464 2.799 0 0 0 
0.67099 -0.54464 2.799 0 0 0 
-0.097263 -0.039069 0.98285 0 0 0 
-0.15796 -0.21284 1.0307 0 0 0 
-0.075756 -0.21284 1.135 0 0 0 
-0.015061 -0.039069 1.0871 0 0 0 
0.91354 -0.53383 2.799 0 0 0 
0.69794 -0.53383 2.799 0 0 0 
0.69794 -0.55004 2.799 0 0 0 
0.91354 -0.55004 2.799 0 0 0 
-0.46833 -0.47097 2.629 0 0 0 
-0.51896 -0.47097 2.629 0 0 0 
-0.51896 -0.51156 2.629 0 0 0 
-0.46833 -0.51156 2.629 0 0 0 
0.097312 -0.53179 2.733 0 0 0 
-0.09215 -0.53179 2.733 0 0 0 
-0.09215 -0.51597 2.733 0 0 0 
0.097312 -0.51597 2.733 0 0 0 
0.14351 -0.52751 2.711 0 0 0 
-0.10707 -0.52751 2.711 0 0 0 
-0.10707 -0.51182 2.711 0 0 0 
0.14351 -0.51182 2.711 0 0 0 
0.61896 -0.48709 2.69 0 0 0 
0.085421 -0.48709 2.69 0 0 0 
0.085421 -0.52343 2.69 0 0 0 
0.61896 -0.52343 2.69 0 0 0 
0.60899 -0.47813 2.669 0 0 0 
-0.023177 -0.47813 2.669 0 0 0 
-0.023177 -0.51934 2.669 0 0 0 
0.60899 -0.51934 2.669 0 0 0 
0.70793 -0.51462 2.754 0 0 0 
0.35262 -0.51462 2.754 0 0 0 
0.35262 -0.53588 2.754 0 0 0 
0.70793 -0.53588 2.754 0 0 0 
1.3867 -0.53588 2.754 0 0 0 
1.2701 -0.53588 2.754 0 0 0 
1.2701 -0.50931 2.754 0 0 0 
1.3867 -0.50931 2.754 0 0 0 
-0.12273 -0.52228 2.711 0 0 0 
-0.23236 -0.52228 2.711 0 0 0 
-0.23236 -0.50659 2.711 0 0 0 
-0.12273 -0.50659 2.711 0 0 0 
0.96568 -0.50542 2.733 0 0 0 
0.8499 -0.50542 2.733 0 0 0 
0.8499 -0.52652 2.733 0 0 0 
0.96568 -0.52652 2.733 0 0 0 
1.1375 -0.53057 2.754 0 0 0 
0.99961 -0.53057 2.754 0 0 0 
0.99961 -0.50931 2.754 0 0 0 
1.1375 -0.50931 2.754 0 0 0 
0.55593 -0.50135 2.711 0 0 0 
0.33145 -0.50135 2.711 0 0 0 
0.33145 -0.51705 2.711 0 0 0 
0.55593 -0.51705 2.711 0 0 0 
0.50781 -0.52125 2.733 0 0 0 
0.39203 -0.52125 2.733 0 0 0 
0.39203 -0.5107 2.733 0 0 0 
0.50781 -0.5107 2.733 0 0 0 
0.9318 -0.51705 2.711 0 0 0 
0.83783 -0.51705 2.711 0 0 0 
0.83783 -0.49612 2.711 0 0 0 
0.9318 -0.49612 2.711 0 0 0 
1.1025 -0.51597 2.733 0 0 0 
1.0183 -0.51597 2.733 0 0 0 
1.0183 -0.50542 2.733 0 0 0 
1.1025 -0.50542 2.733 0 0 0 
1.1214 -0.50785 2.69 0 0 0 
0.83134 -0.50785 2.69 0 0 0 
0.83134 -0.48189 2.69 0 0 0 
1.1214 -0.48189 2.69 0 0 0 
1.1641 -0.50389 2.669 0 0 0 
1.0047 -0.50389 2.669 0 0 0 
1.0047 -0.46783 2.669 0 0 0 
1.1641 -0.46783 2.669 0 0 0 
1.3493 -0.4767 2.69 0 0 0 
1.1421 -0.4767 2.69 0 0 0 
1.1421 -0.50785 2.69 0 0 0 
1.3493 -0.50785 2.69 0 0 0 
-0.029187 0.15695 1.097 0 0 0 
-0.085801 -0.18924 0.98226 0 0 0 
-0.43899 -0.18924 1.1565 0 0 0 
-0.38238 0.15695 1.2712 0 0 0 
0.073917 -0.47455 2.649 0 0 0 
-0.21684 -0.47455 2.649 0 0 0 
-0.21684 -0.495 2.649 0 0 0 
0.073917 -0.495 2.649 0 0 0 
-0.012705 -0.48619 2.629 0 0 0 
-0.12408 -0.48619 2.629 0 0 0 
-0.12408 -0.47604 2.629 0 0 0 
-0.012705 -0.47604 2.629 0 0 0 
0.75804 -0.48844 2.669 0 0 0 
0.63469 -0.48844 2.669 0 0 0 
0.63469 -0.47813 2.669 0 0 0 
0.75804 -0.47813 2.669 0 0 0 
0.96876 -0.46783 2.669 0 0 0 
0.78374 -0.46783 2.669 0 0 0 
0.78374 -0.48844 2.669 0 0 0 
0.96876 -0.48844 2.669 0 0 0 
1.344 -0.48844 2.669 0 0 0 
1.2206 -0.48844 2.669 0 0 0 
1.2206 -0.46783 2.669 0 0 0 
1.344 -0.46783 2.669 0 0 0 
0.56443 -0.46589 2.629 0 0 0 
0.4733 -0.46589 2.629 0 0 0 
0.4733 -0.47604 2.629 0 0 0 
0.56443 -0.47604 2.629 0 0 0 
0.40749 -0.47097 2.629 0 0 0 
0.30117 -0.47097 2.629 0 0 0 
0.30117 -0.45575 2.629 0 0 0 
0.40749 -0.45575 2.629 0 0 0 
0.64052 -0.45228 2.609 0 0 0 
0.40439 -0.45228 2.609 0 0 0 
0.40439 -0.46738 2.609 0 0 0 
0.64052 -0.46738 2.609 0 0 0 
0.8666 -0.46738 2.609 0 0 0 
0.67066 -0.46738 2.609 0 0 0 
0.67066 -0.44724 2.609 0 0 0 
0.8666 -0.44724 2.609 0 0 0 
1.0201 -0.47097 2.629 0 0 0 
0.93399 -0.47097 2.629 0 0 0 
0.93399 -0.45067 2.629 0 0 0 
1.0201 -0.45067 2.629 0 0 0 
1.2283 -0.45731 2.609 0 0 0 
0.93694 -0.45731 2.609 0 0 0 
0.93694 -0.43717 2.609 0 0 0 
1.2283 -0.43717 2.609 0 0 0 
-0.036933 -0.41307 2.4751 0 0 0 
-0.12338 -0.40195 2.4795 0 0 0 
-0.12338 -0.41626 2.516 0 0 0 
-0.036933 -0.42738 2.5116 0 0 0 
1.252 -0.40757 2.5137 0 0 0 
1.169 -0.40956 2.5129 0 0 0 
1.169 -0.37549 2.4253 0 0 0 
1.252 -0.3735 2.4261 0 0 0 
0.20824 -0.077512 0.93062 0 0 0 
0.012654 -0.088994 0.92442 0 0 0 
0.012654 -0.18063 1.0941 0 0 0 
0.20824 -0.16915 1.1003 0 0 0 
-0.0030153 -0.035614 1.0386 0 0 0 
-0.019248 -0.12738 1.0171 0 0 0 
0.117 -0.12738 0.91459 0 0 0 
0.13323 -0.035614 0.93617 0 0 0 
0.12057 -0.04045 0.93667 0 0 0 
0.14323 -0.11736 0.92298 0 0 0 
0.22037 -0.11736 1.0507 0 0 0 
0.19771 -0.04045 1.0644 0 0 0 
0.9124 -0.23169 2.1414 0 0 0 
-0.68723 -0.26477 2.126 0 0 0 
-0.68723 0.34789 0.81281 0 0 0 
0.9124 0.38097 0.82824 0 0 0 
-0.70854 0.1264 1.6725 0 0 0 
-0.68321 0.13473 1.064 0 0 0 
-0.59241 -0.14126 1.064 0 0 0 
-0.61774 -0.14959 1.6725 0 0 0 
-0.043283 -0.14974 1.9407 0 0 0 
-0.076347 -0.13969 1.949 0 0 0 
-0.076347 -0.18789 2.0069 0 0 0 
-0.043283 -0.19794 1.9986 0 0 0 
0.88438 -0.16024 1.9671 0 0 0 
0.75401 -0.14956 1.971 0 0 0 
0.75401 -0.17516 2.0409 0 0 0 
0.88438 -0.18584 2.037 0 0 0 
-0.61295 -0.12172 1.8065 0 0 0 
-0.6392 -0.07595 1.6803 0 0 0 
-0.61032 -0.059385 1.6803 0 0 0 
-0.58407 -0.10516 1.8065 0 0 0 
0.24134 -0.040179 0.95384 0 0 0 
-0.063187 -0.05825 0.94544 0 0 0 
-0.063187 0.055625 0.70039 0 0 0 
0.24134 0.073696 0.70879 0 0 0 
-0.5526 -0.023924 1.6264 0 0 0 
-0.62406 -0.018661 1.6302 0 0 0 
-0.62406 -0.072296 1.7057 0 0 0 
-0.5526 -0.077558 1.702 0 0 0 
-0.063731 0.34143 0.97654 0 0 0 
-0.10179 -0.027034 0.963 0 0 0 
-0.010978 -0.027034 0.70783 0 0 0 
0.027081 0.34143 0.72137 0 0 0 
-0.62911 -0.04312 1.6468 0 0 0 
-0.76341 0.15695 1.0827 0 0 0 
-0.67334 0.21741 1.0827 0 0 0 
-0.53905 0.017338 1.6468 0 0 0 
0.23931 0.027691 0.77074 0 0 0 
-0.0068803 0.061509 0.70169 0 0 0 
-0.0068804 0.35793 0.84688 0 0 0 
0.23931 0.32411 0.91592 0 0 0 
-0.2435 0.11213 1.1899 0 0 0 
-0.27567 0.11421 1.1872 0 0 0 
-0.27567 0.15426 1.2178 0 0 0 
-0.2435 0.15217 1.2205 0 0 0 
0.0097461 0.066962 0.70488 0 0 0 
-0.018685 0.063886 0.71115 0 0 0 
-0.018685 0.34534 0.84932 0 0 0 
0.0097462 0.34841 0.84305 0 0 0 
-0.49285 0.35825 0.82754 0 0 0 
-0.52568 0.35838 0.82769 0 0 0 
-0.52568 0.34471 0.83952 0 0 0 
-0.49285 0.34458 0.83937 0 0 0 
4 0 1 2 3
4 4 5 6 7
4 8 9 10 11
4 12 13 14 15
4 16 17 18 19
4 20 21 22 23
4 24 25 26 27
4 28 29 30 31
4 32 33 34 35
4 36 37 38 39
4 40 41 42 43
4 44 45 46 47
4 48 49 50 51
4 52 53 54 55
4 56 57 58 59
4 60 61 62 63
4 64 65 66 67
4 68 69 70 71
4 72 73 74 75
4 76 77 78 79
4 80 81 82 83
4 84 85 86 87
4 88 89 90 91
4 92 93 94 95
4 96 97 98 99
4 100 101 102 103
4 104 105 106 107
4 108 109 110 111
4 112 113 114 115
4 116 117 118 119
4 120 121 122 123
4 124 125 126 127
4 128 129 130 131
4 132 133 134 135
4 136 137 138 139
4 140 141 142 143
4 144 145 146 147
4 148 149 150 151
4 152 153 154 155
4 156 157 158 159
4 160 161 162 163
4 164 165 166 167
4 168 169 170 171
4 172 173 174 175
4 176 177 178 179
4 180 181 182 183
4 184 185 186 187
4 188 189 190 191
4 192 193 194 195
4 196 197 198 199
4 200 201 202 203
4 204 205 206 207
4 208 209 210 211
4 212 213 214 215
4 216 217 218 219
4 220 221 222 223
4 224 225 226 227
4 228 229 230 231
4 232 233 234 235
4 236 237 238 239
4 240 241 242 243
4 244 245 246 247
4 248 249 250 251
4 252 253 254 255
4 256 257 258 259
4 260 261 262 263
4 264 265 266 267
4 268 269 270 271
4 272 273 274 275
4 276 277 278 279
4 280 281 282 283
4 284 285 286 287
4 288 289 290 291
4 292 293 294 295
4 296 297 298 299
4 300 301 302 303
4 304 305 306 307
4 308 309 310 311
4 312 313 314 315
4 316 317 318 319
4 320 321 322 323
4 324 325 326 327
4 328 329 330 331
4 332 333 334 335
4 336 337 338 339
4 340 341 342 343
4 344 345 346 347
4 348 349 350 351
4 352 353 354 355
4 356 357 358 359
4 360 361 362 363
4 364 365 366 367
4 368 369 370 371
4 372 373 374 375
4 376 377 378 379
4 380 381 382 383
4 384 385 386 387
4 388 389 390 391
4 392 393 394 395
4 396 397 398 399
4 400 401 402 403
4 404 405 406 407
4 408 409 410 411
4 412 413 414 415
4 416 417 418 419
4 420 421 422 423
4 424 425 426 427
4 428 429 430 431
4 432 433 434 435
4 436 437 438 439
4 440 441 442 443
4 444 445 446 447
4 448 449 450 451
4 452 453 454 455
4 456 457 458 459
4 460 461 462 463
4 464 465 466 467
4 468 469 470 471
4 472 473 474 475
