ply
format ascii 1.0
comment PCL generated
element vertex 104
property float x
property float y
property float z
property uchar red
property uchar green
property uchar blue
element face 26
property list uchar int vertex_indices
end_header
1.4117 -0.53994 2.8437 0 0 0 
-0.63545 -0.72461 3.2095 0 0 0 
-0.63545 -1.2387 2.95 0 0 0 
1.4117 -1.054 2.5842 0 0 0 
-0.47104 -0.95319 2.5893 0 0 0 
-0.56674 -0.96327 1.016 0 0 0 
-0.68829 0.19144 1.016 0 0 0 
-0.59259 0.20151 2.5893 0 0 0 
1.214 -1.0316 2.5882 0 0 0 
1.1703 -1.0294 2.5873 0 0 0 
1.1703 -1.0374 2.5686 0 0 0 
1.214 -1.0396 2.5695 0 0 0 
-0.49215 -0.87379 2.3286 0 0 0 
-0.49788 -0.91269 2.3352 0 0 0 
-0.47909 -0.91269 2.3516 0 0 0 
-0.47336 -0.87379 2.3451 0 0 0 
0.78218 -1.0195 2.754 0 0 0 
0.78218 -1.0495 2.754 0 0 0 
0.75663 -1.0495 2.777 0 0 0 
0.75663 -1.0195 2.777 0 0 0 
1.223 -0.95776 2.5889 0 0 0 
1.2154 -0.94541 2.5304 0 0 0 
1.2464 -0.92642 2.5304 0 0 0 
1.254 -0.93877 2.5889 0 0 0 
-0.47666 -0.82584 2.3902 0 0 0 
-0.49985 -0.82611 2.3886 0 0 0 
-0.49985 -0.89332 2.4006 0 0 0 
-0.47666 -0.89304 2.4021 0 0 0 
-0.48749 -0.55424 2.4927 0 0 0 
-0.50736 -0.55501 2.4905 0 0 0 
-0.50736 -0.62052 2.513 0 0 0 
-0.48749 -0.61976 2.5152 0 0 0 
0.63162 -0.64627 2.942 0 0 0 
0.59763 -0.64627 2.942 0 0 0 
0.59763 -0.61221 2.942 0 0 0 
0.63162 -0.61221 2.942 0 0 0 
-0.28389 -0.62839 2.9694 0 0 0 
-0.54869 -0.63836 2.9655 0 0 0 
-0.54869 -0.59972 2.8658 0 0 0 
-0.28389 -0.58975 2.8697 0 0 0 
1.293 -0.57766 2.9628 0 0 0 
-0.68684 -0.6252 2.9413 0 0 0 
-0.68684 0.34156 0.80999 0 0 0 
1.293 0.38909 0.83155 0 0 0 
-0.1152 -0.61263 2.917 0 0 0 
-0.17699 -0.61263 2.917 0 0 0 
-0.17699 -0.607 2.917 0 0 0 
-0.1152 -0.607 2.917 0 0 0 
-0.204 -0.53604 2.7539 0 0 0 
-0.25695 -0.53974 2.7525 0 0 0 
-0.25695 -0.58601 2.869 0 0 0 
-0.204 -0.58231 2.8704 0 0 0 
-0.4816 -0.54121 2.754 0 0 0 
-0.51028 -0.5419 2.7537 0 0 0 
-0.51028 -0.51302 2.69 0 0 0 
-0.4816 -0.51233 2.6903 0 0 0 
-0.10379 -0.039032 0.97678 0 0 0 
-0.16341 -0.21287 1.0253 0 0 0 
-0.073257 -0.21287 1.1361 0 0 0 
-0.01363 -0.039032 1.0875 0 0 0 
1.2542 -0.52509 2.7541 0 0 0 
1.2189 -0.52593 2.7537 0 0 0 
1.2189 -0.50657 2.711 0 0 0 
1.2542 -0.50573 2.7114 0 0 0 
-0.50913 -0.47285 2.5901 0 0 0 
-0.94377 -0.068 1.0852 0 0 0 
-0.68671 0.20799 1.0852 0 0 0 
-0.25207 -0.19686 2.5901 0 0 0 
-0.022653 0.16521 1.1013 0 0 0 
-0.083469 -0.18147 0.97936 0 0 0 
-0.43911 -0.18147 1.1568 0 0 0 
-0.3783 0.16521 1.2787 0 0 0 
0.20811 -0.080026 0.93231 0 0 0 
0.012635 -0.091279 0.92645 0 0 0 
0.012635 -0.17914 1.095 0 0 0 
0.20811 -0.16789 1.1009 0 0 0 
-0.1695 -0.37182 2.4265 0 0 0 
-0.16413 -0.39077 2.4289 0 0 0 
-0.18696 -0.39077 2.4787 0 0 0 
-0.19233 -0.37182 2.4763 0 0 0 
-0.0031013 -0.034603 1.0385 0 0 0 
-0.01894 -0.12759 1.0174 0 0 0 
0.11944 -0.12759 0.91375 0 0 0 
0.13528 -0.034603 0.9349 0 0 0 
0.19862 -0.041035 1.0639 0 0 0 
0.2209 -0.11913 1.0502 0 0 0 
0.14202 -0.11913 0.9214 0 0 0 
0.11973 -0.041035 0.93505 0 0 0 
0.23357 -0.038857 0.94678 0 0 0 
-0.06644 -0.057413 0.93793 0 0 0 
-0.06644 0.05214 0.70827 0 0 0 
0.23357 0.070696 0.71712 0 0 0 
-0.08701 0.33495 1.0256 0 0 0 
-0.11824 -0.026931 1.0143 0 0 0 
-0.0041264 -0.026931 0.70078 0 0 0 
0.0271 0.33495 0.71215 0 0 0 
0.24219 0.025611 0.76897 0 0 0 
-0.016414 0.061773 0.69714 0 0 0 
-0.016414 0.35123 0.84287 0 0 0 
0.24219 0.31507 0.9147 0 0 0 
-0.12108 0.12351 1.3902 0 0 0 
-0.12377 0.12482 1.3626 0 0 0 
-0.13447 0.10283 1.3626 0 0 0 
-0.13177 0.10152 1.3902 0 0 0 
4 0 1 2 3
4 4 5 6 7
4 8 9 10 11
4 12 13 14 15
4 16 17 18 19
4 20 21 22 23
4 24 25 26 27
4 28 29 30 31
4 32 33 34 35
4 36 37 38 39
4 40 41 42 43
4 44 45 46 47
4 48 49 50 51
4 52 53 54 55
4 56 57 58 59
4 60 61 62 63
4 64 65 66 67
4 68 69 70 71
4 72 73 74 75
4 76 77 78 79
4 80 81 82 83
4 84 85 86 87
4 88 89 90 91
4 92 93 94 95
4 96 97 98 99
4 100 101 102 103
