ply
format ascii 1.0
comment Aron generated
element vertex 579
property float x
property float y
property float z
property float nx
property float ny
property float nz
end_header
0.180063 0.653645 0 0.739787 0.672841 0
0.182563 0.639316 0 0.884403 0.466725 0
0.188539 0.648965 0 0.854633 0.519233 0
0.169588 0.651788 0 0.815957 0.578113 0
0.187113 0.661435 0 0.873379 0.487041 0
0.162343 0.654338 0 0.874937 0.484236 0
0.187797 0.67025 0 0.884159 0.467187 0
0.161413 0.645948 0 0.9415 0.337013 0
0.191364 0.674071 0 -0.693689 -0.720275 -0
0.148509 0.6583 0 0.724454 0.689323 0
0.192136 0.682735 0 0.929746 0.368202 0
0.157295 0.633081 0 0.801443 0.598072 0
0.207034 0.66693 0 0.916797 0.399354 0
0.151204 0.63363 0 0.770758 0.637128 0
0.21422 0.664484 0 0.959815 0.280634 0
0.146233 0.632241 0 0.802723 0.596352 0
0.214366 0.674231 0 0.964859 0.262768 0
0.137481 0.6374 0 0.963843 0.26647 0
0.210217 0.691418 0 0.911095 0.412196 0
0.13984 0.623314 0 0.943854 0.330364 0
0.221166 0.682453 0 0.770375 0.637591 0
0.127161 0.635275 0 0.917057 0.398757 0
0.230837 0.675703 0 -0.684336 -0.729166 -0
0.129922 0.620492 0 0.917057 0.398757 0
0.231318 0.684869 0 -0.659169 -0.751995 -0
0.121036 0.625884 0 0.920961 0.389655 0
0.234286 0.689728 0 -0.661753 -0.749722 -0
0.109617 0.635662 0 0.812616 0.582799 0
0.233424 0.701221 0 -0.685844 -0.727748 -0
0.114439 0.617311 0 0.79268 0.609638 0
0.240913 0.69825 0 -0.55788 -0.829922 -0
0.112655 0.610399 0 0.767991 0.640461 0
0.244416 0.702183 0 -0.597099 -0.802168 -0
0.0981407 0.62554 0 0.758722 0.651415 0
0.26224 0.68131 0 0.971467 0.237175 0
0.101779 0.609238 0 0.871802 0.489858 0
0.247778 0.716361 0 0.902644 0.430387 0
0.0985226 0.604878 0 0.951921 0.306342 0
0.255948 0.712209 0 0.902067 0.431597 0
0.0964648 0.598442 0 0.931224 0.364446 0
0.254783 0.724228 0 0.889974 0.456012 0
0.08571 0.60707 0 0.938305 0.34581 0
0.271179 0.705829 0 0.979943 0.199278 0
0.0823929 0.602815 0 0.902501 0.430687 0
0.274007 0.710931 0 0.99664 0.0819115 0
0.0722767 0.610337 0 0.972064 0.234716 0
0.276052 0.717388 0 0.982097 0.188378 0
0.0740451 0.597274 0 0.985599 0.169098 0
0.275813 0.727802 0 0.949932 0.312458 0
0.0698429 0.594553 0 0.934969 0.35473 0
0.288609 0.715638 0 0.862344 0.506323 0
0.0638467 0.594938 0 0.828342 0.560222 0
0.292923 0.718166 0 0.870184 0.492726 0
0.0727616 0.569497 0 -0.601865 -0.798598 -0
0.295422 0.723838 0 0.943626 0.331015 0
0.0517109 0.595958 0 0.79472 0.606976 0
0.292497 0.738905 0 0.93265 0.360783 0
0.0453859 0.596914 0 0.902417 0.430864 0
0.304275 0.728505 0 0.906052 0.423166 0
0.0515008 0.576322 0 0.897932 0.440135 0
0.309994 0.728599 0 0.823845 0.566815 0
0.043895 0.579496 0 0.78125 0.624218 0
0.312742 0.733839 0 0.879486 0.475924 0
0.0464866 0.565007 0 0.998005 -0.0631294 0
0.322106 0.727621 0 0.8586 0.512646 0
0.0345073 0.575756 0 -0.704769 -0.709437 -0
0.322274 0.737329 0 0.949764 0.312967 0
0.0259116 0.580644 0 0.826914 0.562329 0
0.319355 0.752385 0 0.830991 0.556287 0
0.0243049 0.573427 0 0.995504 0.0947193 0
0.330115 0.743749 0 0.77749 0.628895 0
0.0240285 0.563905 0 0.99811 -0.0614504 0
0.336433 0.742805 0 0.736532 0.676403 0
0.258432 0.561418 0 0.708399 0.705812 0
0.250852 0.564549 0 0.722814 0.691043 0
0.26014 0.56846 0 0.787251 0.616633 0
0.245694 0.563483 0 0.759332 0.650703 0
0.270112 0.561188 0 0.853856 0.520509 0
0.241741 0.560329 0 0.881796 0.471631 0
0.265704 0.578824 0 0.770469 0.637477 0
0.242134 0.549648 0 0.770057 0.637975 0
0.265839 0.58859 0 0.712987 0.701178 0
0.224648 0.569936 0 0.9946 0.10378 0
0.27506 0.582619 0 0.777329 0.629094 0
0.233088 0.545315 0 0.713827 0.700322 0
0.283309 0.57833 0 0.884059 0.467375 0
0.231612 0.537872 0 0.809665 0.586892 0
0.286185 0.583349 0 0.937682 0.347495 0
0.220502 0.547116 0 0.889584 0.456772 0
0.284206 0.596778 0 0.98236 0.186999 0
0.221819 0.534835 0 0.961338 0.275373 0
0.299168 0.580862 0 0.901174 0.433457 0
0.201739 0.559615 0 -0.589613 -0.807686 -0
0.305181 0.580447 0 0.82283 0.568288 0
0.211709 0.532345 0 0.93295 0.360005 0
0.299227 0.600761 0 0.82283 0.568287 0
0.20353 0.536513 0 0.938796 0.344473 0
0.309137 0.593595 0 0.912351 0.40941 0
0.198198 0.535747 0 0.868975 0.494856 0
0.315137 0.593202 0 0.93487 0.354989 0
0.193383 0.534088 0 0.904453 0.426573 0
0.31423 0.604774 0 0.865199 0.501429 0
0.190965 0.528276 0 0.915139 0.403138 0
0.319248 0.606084 0 0.897067 0.441894 0
0.192484 0.515644 0 0.836003 0.548724 0
0.329355 0.598577 0 0.920903 0.389793 0
0.180854 0.525789 0 0.881778 0.471664 0
0.33988 0.590345 0 0.930291 0.366822 0
0.164688 0.54379 0 0.109825 -0.993951 0
0.338086 0.603454 0 0.912911 0.408158 0
0.173312 0.518851 0 0.913232 0.40744 0
0.337726 0.614078 0 0.951176 0.30865 0
0.167114 0.519586 0 0.950531 0.310631 0
0.343951 0.613297 0 0.874424 0.485163 0
0.171523 0.501949 0 0.978878 0.204448 0
0.350898 0.611262 0 0.747882 0.663832 0
0.156821 0.517415 0 0.865111 0.50158 0
0.352008 0.619341 0 0.742587 0.66975 0
0.155136 0.510333 0 0.883445 0.468535 0
0.360284 0.615005 0 0.847228 0.531229 0
0.149093 0.510801 0 0.902161 0.4314 0
0.365902 0.615276 0 0.865385 0.501107 0
0.143742 0.510069 0 0.926224 0.376973 0
0.364564 0.627593 0 0.749818 0.661644 0
0.141417 0.504096 0 0.851678 0.524065 0
0.367415 0.632656 0 -0.682738 -0.730663 -0
0.138021 0.499978 0 0.814155 0.580648 0
0.368893 0.640096 0 0.72168 0.692226 0
0.135249 0.494779 0 0.733016 0.680211 0
0.385057 0.622098 0 0.721147 0.692783 0
0.126636 0.499697 0 0.717707 0.696345 0
0.382576 0.636396 0 0.749108 0.662448 0
0.120638 0.500085 0 0.770577 0.637347 0
0.382383 0.64673 0 0.863629 0.504128 0
0.121017 0.489429 0 0.75862 0.651533 0
0.386795 0.649088 0 0.82474 0.565512 0
0.118741 0.483371 0 0.742691 0.669635 0
0.394462 0.645808 0 0.768849 0.639431 0
0.120237 0.470779 0 -0.69322 -0.720726 -0
0.399209 0.647587 0 -0.568627 -0.822595 -0
0.109399 0.479551 0 -0.577217 -0.816591 -0
0.395551 0.663924 0 0.923759 0.382975 0
0.10174 0.482818 0 -0.552377 -0.833594 -0
0.411599 0.646125 0 0.923759 0.382975 0
0.103336 0.470053 0 0.813326 0.581808 0
0.407855 0.662612 0 0.840911 0.541174 0
0.350394 0.486409 0 0.815702 0.578473 0
0.345162 0.48547 0 0.822407 0.5689 0
0.356293 0.486191 0 0.857554 0.514393 0
0.337025 0.489564 0 0.943253 0.332076 0
0.351934 0.503742 0 0.796472 0.604676 0
0.336433 0.48059 0 0.90971 0.415244 0
0.35995 0.499857 0 0.916772 0.399411 0
0.334312 0.474263 0 0.913286 0.40732 0
0.360466 0.508963 0 0.886862 0.462035 0
0.324242 0.481705 0 0.859181 0.511673 0
0.371764 0.499394 0 0.944508 0.328487 0
0.318608 0.481464 0 0.874117 0.485716 0
0.382298 0.491148 0 0.944533 0.328415 0
0.311142 0.484395 0 0.84721 0.531258 0
0.376577 0.511058 0 0.968087 0.250616 0
0.318719 0.461271 0 0.846389 0.532565 0
0.386098 0.504566 0 0.944854 0.32749 0
0.312021 0.462873 0 0.862941 0.505305 0
0.393333 0.502035 0 0.829115 0.559078 0
0.305968 0.463357 0 0.780629 0.624995 0
0.393429 0.511869 0 -0.612488 -0.79048 -0
0.297584 0.467878 0 0.746984 0.664842 0
0.393617 0.521543 0 -0.50524 -0.862979 -0
0.300289 0.453192 0 -0.681555 -0.731767 -0
0.402592 0.515999 0 0.967584 0.252551 0
0.29147 0.458467 0 0.809821 0.586677 0
0.408504 0.51576 0 0.82953 0.558463 0
0.285152 0.459411 0 -0.700419 -0.713732 -0
0.400655 0.539354 0 0.751366 0.659885 0
0.292894 0.436001 0 -0.671551 -0.740958 -0
0.424006 0.508908 0 0.893941 0.448185 0
0.282218 0.444493 0 0.712563 0.701608 0
0.423736 0.519376 0 0.887409 0.460983 0
0.284602 0.430363 0 -0.610599 -0.79194 -0
0.426503 0.524583 0 0.782294 0.622909 0
0.270688 0.444464 0 0.839221 0.543791 0
0.421905 0.542547 0 0.73424 0.67889 0
0.27373 0.429195 0 0.899591 0.436734 0
0.433916 0.531743 0 -0.515423 -0.856936 -0
0.265933 0.432699 0 0.94988 0.312615 0
0.436062 0.538027 0 -0.619018 -0.785377 -0
0.254631 0.442276 0 0.839287 0.543689 0
0.450176 0.523581 0 -0.555515 -0.831507 -0
0.264274 0.415572 0 0.914565 0.404439 0
0.44158 0.548469 0 -0.704184 -0.710017 -0
0.243404 0.441721 0 0.80091 0.598784 0
0.446252 0.550378 0 0.855596 0.517644 0
0.250511 0.419411 0 0.870068 0.492932 0
0.449599 0.554581 0 0.812043 0.583597 0
0.245043 0.418882 0 0.75648 0.654017 0
0.454407 0.556253 0 0.978645 0.205559 0
0.238439 0.42032 0 0.743242 0.669023 0
0.460463 0.555763 0 0.977905 0.209049 0
0.233657 0.418602 0 0.865203 0.501421 0
0.47201 0.545763 0 0.980958 0.194221 0
0.228619 0.417328 0 0.843947 0.536426 0
0.467508 0.563562 0 0.949879 0.312618 0
0.234231 0.397609 0 0.888997 0.457913 0
0.481263 0.549736 0 0.901559 0.432656 0
0.222661 0.407648 0 0.879518 0.475865 0
0.482715 0.557222 0 0.952267 0.305265 0
0.215723 0.409666 0 0.807064 0.590464 0
0.480589 0.570904 0 0.770467 0.637479 0
0.210268 0.409113 0 0.799368 0.600842 0
0.491278 0.562389 0 -0.615406 -0.788211 -0
0.209863 0.399816 0 0.809126 0.587636 0
0.490284 0.574113 0 -0.652971 -0.757383 -0
0.206164 0.396223 0 0.914098 0.405493 0
0.497264 0.572022 0 -0.474674 -0.880162 -0
0.198806 0.398966 0 -0.692364 -0.721549 -0
0.508015 0.5634 0 -0.489281 -0.872126 -0
0.200484 0.386059 0 -0.549653 -0.835393 -0
0.498796 0.589369 0 -0.235864 -0.971786 -0
0.43833 0.4095 0 0.985906 0.167298 0
0.452165 0.375538 0 0.954946 0.29678 0
0.453933 0.392475 0 0.863091 0.505048 0
0.442115 0.382945 0 0.974376 0.224926 0
0.462122 0.388292 0 0.863203 0.504857 0
0.433234 0.388328 0 0.993949 0.10984 0
0.461854 0.398757 0 0.750283 0.661117 0
0.433004 0.378726 0 0.932403 0.361421 0
0.472661 0.390038 0 -0.694323 -0.719664 -0
0.419789 0.391616 0 0.782681 0.622424 0
0.468825 0.406681 0 -0.535026 -0.844836 -0
0.420574 0.380255 0 0.823455 0.567382 0
0.474517 0.406822 0 -0.599539 -0.800345 -0
0.414748 0.380345 0 0.935008 0.354626 0
0.481923 0.403996 0 -0.610458 -0.792048 -0
0.42 0.361248 0 0.774855 0.63214 0
0.48101 0.415576 0 -0.611124 -0.791535 -0
0.410289 0.368069 0 0.724911 0.688842 0
0.50172 0.389706 0 0.9547 0.29757 0
0.401683 0.372976 0 0.71927 0.694731 0
0.482594 0.432833 0 0.78439 0.620268 0
0.403983 0.358992 0 0.825946 0.56375 0
0.492328 0.425974 0 0.771621 0.636082 0
0.386882 0.378611 0 0.884728 0.466109 0
0.498114 0.425952 0 0.787038 0.616904 0
0.395626 0.353466 0 0.957549 0.288271 0
0.515182 0.406389 0 -0.0341746 -0.999416 -0
0.397255 0.340644 0 0.995639 0.0932852 0
0.519853 0.408298 0 -0.32452 -0.945879 -0
0.382817 0.355652 0 0.828246 0.560364 0
0.511767 0.432304 0 0.963041 0.269354 0
0.376602 0.356416 0 0.970525 0.241001 0
0.513591 0.439146 0 0.931595 0.363499 0
0.370917 0.356264 0 0.844651 0.535318 0
0.518541 0.440571 0 0.856101 0.516809 0
0.370295 0.347341 0 0.951764 0.30683 0
0.527652 0.434791 0 -0.591321 -0.806436 -0
0.365967 0.344838 0 0.878469 0.4778 0
0.529807 0.441057 0 0.904227 0.427052 0
0.365056 0.336414 0 0.814749 0.579814 0
0.536746 0.43904 0 0.869898 0.493232 0
0.351439 0.350001 0 0.779433 0.626485 0
0.538256 0.446423 0 0.873215 0.487335 0
0.35049 0.341644 0 0.831061 0.556181 0
0.533837 0.464078 0 0.818539 0.574451 0
0.355636 0.32273 0 0.738378 0.674387 0
0.547432 0.450531 0 0.884396 0.466737 0
0.338886 0.341743 0 0.906419 0.422381 0
0.552774 0.451277 0 0.965179 0.261591 0
0.342298 0.325832 0 0.893421 0.449221 0
0.553074 0.460759 0 0.907623 0.419786 0
0.348309 0.305421 0 0.994683 0.102988 0
0.568421 0.444176 0 0.962472 0.271381 0
0.330488 0.326289 0 0.958333 0.285652 0
0.56738 0.455979 0 0.981158 0.193208 0
0.324613 0.326464 0 0.714381 0.699757 0
0.578018 0.447554 0 0.971188 0.238314 0
0.327452 0.311546 0 0.879662 0.475599 0
0.57343 0.465501 0 0.945938 0.324349 0
0.313798 0.325196 0 0.807366 0.590051 0
0.573388 0.475573 0 0.892271 0.451501 0
0.307064 0.326861 0 0.831323 0.55579 0
0.585106 0.465278 0 -0.660969 -0.750413 -0
0.312045 0.308233 0 -0.642282 -0.766468 -0
0.596359 0.455787 0 0.902678 0.430316 0
0.309606 0.302457 0 -0.447009 -0.894529 -0
0.595533 0.467217 0 -0.569888 -0.821722 -0
0.302989 0.303918 0 -0.189128 -0.981952 -0
0.598425 0.472208 0 0.791408 0.611289 0
0.306702 0.287487 0 0.847748 -0.5304 0
0.595313 0.487598 0 0.787495 0.616322 0
0.289026 0.308104 0 0.00951937 -0.999955 0
0.602379 0.485359 0 -0.431385 -0.902168 -0
0.524379 0.302017 0 0.942912 0.333043 0
0.528328 0.285177 0 0.976792 0.214192 0
0.531712 0.299316 0 0.897153 0.44172 0
0.519693 0.290133 0 0.9787 0.205294 0
0.544789 0.286665 0 0.87071 0.491796 0
0.513721 0.290477 0 0.889327 0.457272 0
0.545179 0.295991 0 0.790971 0.611853 0
0.508846 0.288921 0 0.83526 0.549855 0
0.550151 0.297379 0 0.74092 0.671593 0
0.507169 0.281826 0 0.847283 0.531142 0
0.54816 0.310828 0 0.832644 0.553809 0
0.495586 0.291888 0 0.826681 0.562671 0
0.548764 0.319781 0 0.786595 0.617469 0
0.497754 0.278132 0 0.797303 0.60358 0
0.558893 0.312237 0 -0.607102 -0.794624 -0
0.492912 0.27652 0 0.825391 0.564561 0
0.557589 0.324496 0 -0.628109 -0.778126 -0
0.492611 0.26704 0 0.82077 0.571259 0
0.570991 0.311283 0 0.720006 0.693968 0
0.48365 0.272563 0 0.925164 0.379568 0
0.571305 0.320739 0 0.818875 0.573972 0
0.480681 0.267705 0 0.844182 0.536056 0
0.573137 0.327566 0 0.869358 0.494183 0
0.479085 0.260469 0 0.834379 0.551191 0
0.572215 0.339163 0 0.913611 0.40659 0
0.467965 0.269729 0 0.933082 0.359664 0
0.568927 0.354858 0 0.788303 0.615287 0
0.461252 0.271357 0 0.811377 -0.584523 0
0.585928 0.335412 0 0.749929 0.661518 0
0.447276 0.285564 0 0.985857 0.167587 0
0.605648 0.311255 0 0.217563 -0.976046 0
0.460047 0.253444 0 0.717276 0.696789 0
0.597964 0.334564 0 0.929862 0.367909 0
0.459766 0.243929 0 -0.636314 -0.77143 -0
0.60089 0.339496 0 0.950151 0.311791 0
0.457874 0.237207 0 0.954001 0.299803 0
0.598775 0.353159 0 0.999164 0.0408734 0
0.449392 0.241898 0 0.99213 -0.125211 0
0.606174 0.350344 0 0.892381 0.451283 0
0.431518 0.262857 0 -0.301001 -0.953624 -0
0.611301 0.351464 0 0.942295 0.334783 0
0.438112 0.241436 0 0.980558 0.19623 0
0.621518 0.343768 0 0.981836 0.189733 0
0.425448 0.253371 0 0.996056 0.0887319 0
0.622458 0.352139 0 0.996837 0.0794729 0
0.424655 0.244745 0 0.732789 0.680456 0
0.633447 0.343106 0 0.999536 0.0304468 0
0.427549 0.229732 0 -0.661304 -0.750118 -0
0.624337 0.368886 0 0.89939 0.437148 0
0.423875 0.226096 0 -0.60343 -0.797416 -0
0.638029 0.35517 0 0.79688 0.604138 0
0.411915 0.236811 0 0.735801 0.677198 0
0.646827 0.349932 0 0.816054 0.577976 0
0.402774 0.242644 0 0.794994 0.606618 0
0.650629 0.353346 0 0.751648 0.659564 0
0.409676 0.220688 0 0.885624 0.464403 0
0.645244 0.372674 0 -0.706105 -0.708108 -0
0.412029 0.206613 0 0.949819 0.3128 0
0.652554 0.370011 0 0.831696 0.555232 0
0.396995 0.222653 0 0.922017 0.387149 0
0.653381 0.378579 0 -0.701382 -0.712786 -0
0.397921 0.211049 0 0.87203 0.489452 0
0.670342 0.359202 0 0.750726 0.660613 0
0.387676 0.218793 0 0.85343 0.521208 0
0.66102 0.385348 0 0.966508 0.256636 0
0.381948 0.218715 0 0.906924 0.421294 0
0.670659 0.378654 0 0.966508 0.256635 0
0.380198 0.211746 0 0.807421 0.589976 0
0.676312 0.378861 0 0.962833 0.270097 0
0.375332 0.210174 0 0.807421 0.589976 0
0.676568 0.388418 0 0.998476 0.0551899 0
0.375673 0.199584 0 0.833904 0.55191 0
0.686871 0.380573 0 -0.216695 -0.976239 -0
0.610731 0.212491 0 0.944993 0.32709 0
0.594961 0.229806 0 0.755657 0.654967 0
0.611481 0.221192 0 0.906473 0.422263 0
0.602736 0.206339 0 0.920932 0.389724 0
0.622079 0.212837 0 0.846108 0.533012 0
0.601285 0.198852 0 0.930438 0.366449 0
0.624387 0.218838 0 0.8595 0.511135 0
0.593523 0.202296 0 0.926853 0.375424 0
0.629757 0.219537 0 0.951341 0.30814 0
0.586076 0.205195 0 0.935958 0.352112 0
0.637668 0.215835 0 0.951341 0.30814 0
0.581693 0.202786 0 0.926171 0.377104 0
0.636975 0.227035 0 0.782323 0.622873 0
0.57177 0.209975 0 0.813652 0.581352 0
0.639525 0.232619 0 -0.663104 -0.748527 -0
0.57122 0.200927 0 0.886196 0.463311 0
0.644084 0.234722 0 0.894149 0.44777 0
0.569528 0.193857 0 0.886196 0.463311 0
0.658487 0.219775 0 0.995734 0.0922752 0
0.566135 0.189735 0 -0.664249 -0.747511 -0
0.637888 0.265454 0 0.970852 -0.239679 0
0.565365 0.181067 0 -0.514292 -0.857615 -0
0.652242 0.250592 0 0.823726 0.566988 0
0.555918 0.18743 0 -0.647917 -0.761711 -0
0.675182 0.220859 0 -0.609225 -0.792998 -0
0.548009 0.191129 0 0.742753 0.669566 0
0.672327 0.235803 0 -0.6738 -0.738914 -0
0.561638 0.157522 0 0.945003 0.327061 0
0.661983 0.263721 0 0.949796 -0.312869 0
0.551264 0.165491 0 0.850039 0.52672 0
0.679409 0.243538 0 0.335628 -0.941995 0
0.544683 0.166889 0 0.942934 0.33298 0
0.684185 0.245266 0 -0.23055 -0.973061 -0
0.53395 0.175481 0 0.845633 0.533765 0
0.682629 0.25796 0 -0.382529 -0.923943 -0
0.534141 0.165148 0 0.795452 0.606017 0
0.67634 0.278854 0 0.947692 0.319186 0
0.524608 0.171662 0 0.999867 0.0163381 0
0.684824 0.274158 0 0.985443 0.170007 0
0.525572 0.159991 0 0.834182 0.55149 0
0.690401 0.274498 0 0.936004 0.351991 0
0.515023 0.168262 0 0.858382 0.513011 0
0.696793 0.273428 0 0.982955 0.183845 0
0.521744 0.146622 0 0.865253 0.501335 0
0.70523 0.268815 0 0.95317 0.302434 0
0.515187 0.147978 0 0.902781 0.430101 0
0.712721 0.265839 0 0.987717 0.156253 0
0.49518 0.172633 0 0.782471 0.622687 0
0.711267 0.278358 0 0.912748 0.408523 0
0.505046 0.145542 0 0.830868 0.556469 0
0.716326 0.279596 0 0.843687 0.536836 0
0.496679 0.150035 0 0.80041 0.599452 0
0.720427 0.282492 0 0.754958 0.655773 0
0.491898 0.148316 0 0.955575 0.294749 0
0.72863 0.278285 0 0.721955 0.69194 0
0.486415 0.147812 0 0.940467 0.339886 0
0.724923 0.294706 0 0.774172 0.632976 0
0.486645 0.137415 0 0.905209 0.424967 0
0.730752 0.294609 0 0.786509 0.617579 0
0.488021 0.125031 0 0.873825 0.48624 0
0.736568 0.294536 0 0.767529 0.641014 0
0.476308 0.135318 0 0.860017 0.510266 0
0.738809 0.300653 0 0.759492 0.650517 0
0.470177 0.135938 0 0.871745 0.489961 0
0.744967 0.299987 0 0.994624 -0.103557 0
0.46341 0.137659 0 0.908887 0.417044 0
0.763335 0.278172 0 0.827392 -0.561624 0
0.46369 0.127174 0 0.975614 0.219493 0
0.752365 0.307174 0 0.99355 -0.113399 0
0.460736 0.12229 0 0.995793 0.0916316 0
0.770244 0.286207 0 0.683342 -0.730098 0
0.452568 0.126438 0 0.83364 0.552308 0
0.769556 0.297399 0 0.683342 -0.730098 0
0.753728 0.644358 0 0.58601 -0.810304 0
0.750888 0.634447 0 0.58601 -0.810304 0
0.73995 0.637651 0 0.739782 -0.672846 0
0.740902 0.61739 0 0.442679 -0.89668 0
0.736385 0.641157 0 0.95257 -0.304318 0
0.75436 0.623776 0 0.656637 -0.754207 0
0.737327 0.649171 0 0.948742 -0.316052 0
0.758668 0.621013 0 0.671854 -0.740684 0
0.735089 0.654004 0 0.85001 -0.526767 0
0.762774 0.618049 0 0.607378 -0.794413 0
0.708587 0.634573 0 0.9971 -0.0761015 0
0.746109 0.594313 0 0.97467 -0.223648 0
0.711836 0.644893 0 0.908013 -0.418942 0
0.767568 0.608701 0 0.891675 -0.452676 0
0.710023 0.65015 0 0.865162 -0.501493 0
0.771508 0.605569 0 0.826006 -0.563661 0
0.724767 0.671966 0 0.845826 -0.533459 0
0.779862 0.606852 0 0.736057 -0.676919 0
0.712834 0.667104 0 0.928581 -0.371129 0
0.776925 0.596845 0 0.639462 -0.768823 0
0.712086 0.673427 0 0.897905 -0.440189 0
0.786387 0.599235 0 0.642984 -0.76588 0
0.69188 0.660292 0 0.812292 -0.583251 0
0.793805 0.599582 0 0.610043 -0.792368 0
0.697383 0.672865 0 0.910179 -0.414215 0
0.794424 0.59313 0 0.641393 -0.767213 0
0.691451 0.674005 0 0.690683 -0.723157 0
0.787364 0.578999 0 0.412321 -0.911039 0
0.683753 0.673377 0 0.665955 -0.745992 0
0.79169 0.576254 0 0.360604 -0.932719 0
0.676685 0.673381 0 0.325203 -0.945644 0
0.800684 0.578177 0 0.577291 -0.816538 0
0.68993 0.693697 0 0.208342 -0.978056 0
0.80007 0.570492 0 0.641143 -0.767421 0
0.679026 0.689864 0 0.562536 -0.826773 0
0.812067 0.575418 0 0.711757 -0.702426 0
0.683458 0.701367 0 0.371852 -0.928292 0
0.797047 0.553326 0 0.674197 -0.738551 0
0.6742 0.699181 0 0.475506 -0.879712 0
0.821568 0.570777 0 0.768281 -0.640113 0
0.67217 0.704221 0 0.707303 -0.70691 0
0.817778 0.559915 0 0.520332 -0.853964 0
0.683828 0.72295 0 0.768852 -0.639426 0
0.820689 0.555755 0 0.627105 -0.778935 0
0.666611 0.712804 0 0.633665 -0.773607 0
0.821495 0.549491 0 0.31301 -0.94975 0
0.657752 0.711016 0 0.917732 -0.397201 0
0.818501 0.539426 0 0.673305 -0.739365 0
0.654876 0.715211 0 0.966862 -0.2553 0
0.838567 0.55242 0 0.770356 -0.637614 0
0.660339 0.727746 0 0.689517 -0.724269 0
0.826146 0.532928 0 0.822422 -0.568878 0
0.65351 0.727988 0 0.770892 -0.636966 0
0.839789 0.5395 0 0.833953 -0.551836 0
0.632382 0.713931 0 0.797852 -0.602854 0
0.828843 0.521483 0 0.800767 -0.598976 0
0.629646 0.718266 0 0.794138 -0.607738 0
0.854148 0.539717 0 0.67439 -0.738375 0
0.633018 0.728709 0 0.741286 -0.67119 0
0.851716 0.530214 0 0.647331 -0.762209 0
0.646066 0.748828 0 0.807916 -0.589297 0
0.858699 0.530126 0 0.518616 -0.855007 0
0.633949 0.743783 0 0.381625 -0.924317 0
0.85136 0.515716 0 0.484908 -0.874565 0
0.634873 0.751777 0 0.823535 -0.567266 0
0.862339 0.519624 0 0.432861 -0.901461 0
0.617758 0.741733 0 0.659213 -0.751956 0
0.859652 0.509866 0 0.452342 -0.891845 0
0.628242 0.759288 0 0.863417 -0.504492 0
0.854774 0.497917 0 0.546467 -0.837481 0
0.617114 0.755231 0 0.841017 -0.541009 0
0.869761 0.505833 0 0.545231 -0.838286 0
0.613533 0.758721 0 0.719446 -0.694548 0
0.869802 0.498802 0 0.665707 -0.746213 0
0.594161 0.74642 0 0.368983 -0.929436 0
0.881769 0.503699 0 0.749401 -0.662117 0
0.606343 0.765673 0 0.607852 -0.79405 0
0.87176 0.486618 0 0.761208 -0.648508 0
0.605214 0.771615 0 0.789274 -0.614041 0
0.876107 0.483894 0 0.865661 -0.500631 0
0.605208 0.778681 0 0.787323 -0.616541 0
0.887632 0.488348 0 0.75798 -0.652278 0
0.596968 0.777511 0 0.752092 -0.659058 0
0.875651 0.469296 0 0.95409 -0.299522 0
0.600305 0.78792 0 0.7846 -0.620002 0
0.897453 0.484027 0 0.891324 -0.453368 0
0.581413 0.776099 0 0.7846 -0.620002 0
0.90222 0.481723 0 0.88052 -0.474009 0
0.584081 0.785838 0 0.774002 -0.633183 0
0.900652 0.473084 0 0.841326 -0.540528 0
0.576749 0.785578 0 0.715694 -0.698414 0
0.903213 0.468574 0 0.746001 -0.665945 0
0.582705 0.798604 0 0.601307 -0.799018 0
0.913148 0.471438 0 0.774049 -0.633126 0
0.574536 0.797506 0 0.596247 -0.802801 0
0.90184 0.453058 0 0.609612 -0.7927 0
0.578778 0.808819 0 0.598511 -0.801114 0
0.918971 0.463119 0 0.683656 -0.729805 0
0.564909 0.802022 0 0.585401 -0.810744 0
0.91981 0.456887 0 0.686184 -0.727428 0
0.569068 0.813251 0 0.650558 -0.759457 0
0.923194 0.4532 0 0.735141 -0.677915 0
0.564908 0.816163 0 0.717064 -0.697007 0
0.938475 0.46141 0 0.602328 -0.798249 0
0.558117 0.816443 0 0.70946 -0.704746 0
0.92616 0.442024 0 0.808955 -0.587871 0
0.555416 0.820813 0 0.736601 -0.676327 0
0.932988 0.44178 0 0.622918 -0.782287 0
0.555361 0.827829 0 0.59624 -0.802806 0
0.933512 0.435233 0 0.74479 -0.667299 0
0.546167 0.825706 0 0.671449 -0.741051 0
0.945095 0.439746 0 0.741353 -0.671115 0
0.546724 0.833334 0 0.651789 -0.7584 0
0.936296 0.423875 0 0.842236 -0.539109 0
0.54076 0.834441 0 0.710399 -0.703799 0
0.954648 0.435156 0 0.842236 -0.539109 0
0.539111 0.839863 0 0.64712 -0.762388 0
0.948524 0.421961 0 0.781904 -0.623399 0
0.542986 0.850809 0 0.653454 -0.756966 0
0.960598 0.426963 0 0.800262 -0.599651 0
0.532242 0.847136 0 0.835215 -0.549924 0
0.959341 0.418635 0 0.624805 -0.780781 0
0.529071 0.851036 0 0.904472 -0.426533 0
0.964657 0.41688 0 0.826768 -0.562543 0
0.51699 0.846026 0 0.898012 -0.439972 0
0.953039 0.398192 0 0.608242 -0.793752 0
0.527791 0.863899 0 0.936032 -0.351916 0
0.973362 0.411444 0 0.810174 -0.58619 0
0.509351 0.85253 0 0.930328 -0.366728 0
0.966206 0.397217 0 0.718907 -0.695107 0
0.506004 0.856253 0 0.871619 -0.490185 0
0.978457 0.402397 0 0.718907 -0.695107 0
0.500931 0.858251 0 0.53989 -0.841735 0
0.987391 0.404259 0 0.581792 -0.813337 0
0.502939 0.867331 0 0.323779 -0.946133 0
0.99296 0.402758 0 0.403142 -0.915138 0
0.492986 0.864449 0 0.10638 -0.994326 0
0.986548 0.389275 0 0.403142 -0.915138 0
0.504756 0.883289 0 -0.0214827 -0.999769 -0
0.984505 0.380161 0 -0.0357743 -0.99936 -0
0.500748 0.886353 0 -0.160885 -0.986973 -0
