ply
format ascii 1.0
comment Generated by InputGen
element vertex 579
property float x
property float y
property float z
property float nx
property float ny
property float nz
end_header
0.180063 0.653645 0 0 0 0
0.182563 0.639316 0 0 0 0
0.188539 0.648965 0 0 0 0
0.169588 0.651788 0 0 0 0
0.187113 0.661435 0 0 0 0
0.162343 0.654338 0 0 0 0
0.187797 0.67025 0 0 0 0
0.161413 0.645948 0 0 0 0
0.191364 0.674071 0 0 0 0
0.148509 0.6583 0 0 0 0
0.192136 0.682735 0 0 0 0
0.157295 0.633081 0 0 0 0
0.207034 0.66693 0 0 0 0
0.151204 0.63363 0 0 0 0
0.21422 0.664484 0 0 0 0
0.146233 0.632241 0 0 0 0
0.214366 0.674231 0 0 0 0
0.137481 0.6374 0 0 0 0
0.210217 0.691418 0 0 0 0
0.13984 0.623314 0 0 0 0
0.221166 0.682453 0 0 0 0
0.127161 0.635275 0 0 0 0
0.230837 0.675703 0 0 0 0
0.129922 0.620492 0 0 0 0
0.231318 0.684869 0 0 0 0
0.121036 0.625884 0 0 0 0
0.234286 0.689728 0 0 0 0
0.109617 0.635662 0 0 0 0
0.233424 0.701221 0 0 0 0
0.114439 0.617311 0 0 0 0
0.240913 0.69825 0 0 0 0
0.112655 0.610399 0 0 0 0
0.244416 0.702183 0 0 0 0
0.0981407 0.62554 0 0 0 0
0.26224 0.68131 0 0 0 0
0.101779 0.609238 0 0 0 0
0.247778 0.716361 0 0 0 0
0.0985226 0.604878 0 0 0 0
0.255948 0.712209 0 0 0 0
0.0964648 0.598442 0 0 0 0
0.254783 0.724228 0 0 0 0
0.08571 0.60707 0 0 0 0
0.271179 0.705829 0 0 0 0
0.0823929 0.602815 0 0 0 0
0.274007 0.710931 0 0 0 0
0.0722767 0.610337 0 0 0 0
0.276052 0.717388 0 0 0 0
0.0740451 0.597274 0 0 0 0
0.275813 0.727802 0 0 0 0
0.0698429 0.594553 0 0 0 0
0.288609 0.715638 0 0 0 0
0.0638467 0.594938 0 0 0 0
0.292923 0.718166 0 0 0 0
0.0727616 0.569497 0 0 0 0
0.295422 0.723838 0 0 0 0
0.0517109 0.595958 0 0 0 0
0.292497 0.738905 0 0 0 0
0.0453859 0.596914 0 0 0 0
0.304275 0.728505 0 0 0 0
0.0515008 0.576322 0 0 0 0
0.309994 0.728599 0 0 0 0
0.043895 0.579496 0 0 0 0
0.312742 0.733839 0 0 0 0
0.0464866 0.565007 0 0 0 0
0.322106 0.727621 0 0 0 0
0.0345073 0.575756 0 0 0 0
0.322274 0.737329 0 0 0 0
0.0259116 0.580644 0 0 0 0
0.319355 0.752385 0 0 0 0
0.0243049 0.573427 0 0 0 0
0.330115 0.743749 0 0 0 0
0.0240285 0.563905 0 0 0 0
0.336433 0.742805 0 0 0 0
0.258432 0.561418 0 0 0 0
0.250852 0.564549 0 0 0 0
0.26014 0.56846 0 0 0 0
0.245694 0.563483 0 0 0 0
0.270112 0.561188 0 0 0 0
0.241741 0.560329 0 0 0 0
0.265704 0.578824 0 0 0 0
0.242134 0.549648 0 0 0 0
0.265839 0.58859 0 0 0 0
0.224648 0.569936 0 0 0 0
0.27506 0.582619 0 0 0 0
0.233088 0.545315 0 0 0 0
0.283309 0.57833 0 0 0 0
0.231612 0.537872 0 0 0 0
0.286185 0.583349 0 0 0 0
0.220502 0.547116 0 0 0 0
0.284206 0.596778 0 0 0 0
0.221819 0.534835 0 0 0 0
0.299168 0.580862 0 0 0 0
0.201739 0.559615 0 0 0 0
0.305181 0.580447 0 0 0 0
0.211709 0.532345 0 0 0 0
0.299227 0.600761 0 0 0 0
0.20353 0.536513 0 0 0 0
0.309137 0.593595 0 0 0 0
0.198198 0.535747 0 0 0 0
0.315137 0.593202 0 0 0 0
0.193383 0.534088 0 0 0 0
0.31423 0.604774 0 0 0 0
0.190965 0.528276 0 0 0 0
0.319248 0.606084 0 0 0 0
0.192484 0.515644 0 0 0 0
0.329355 0.598577 0 0 0 0
0.180854 0.525789 0 0 0 0
0.33988 0.590345 0 0 0 0
0.164688 0.54379 0 0 0 0
0.338086 0.603454 0 0 0 0
0.173312 0.518851 0 0 0 0
0.337726 0.614078 0 0 0 0
0.167114 0.519586 0 0 0 0
0.343951 0.613297 0 0 0 0
0.171523 0.501949 0 0 0 0
0.350898 0.611262 0 0 0 0
0.156821 0.517415 0 0 0 0
0.352008 0.619341 0 0 0 0
0.155136 0.510333 0 0 0 0
0.360284 0.615005 0 0 0 0
0.149093 0.510801 0 0 0 0
0.365902 0.615276 0 0 0 0
0.143742 0.510069 0 0 0 0
0.364564 0.627593 0 0 0 0
0.141417 0.504096 0 0 0 0
0.367415 0.632656 0 0 0 0
0.138021 0.499978 0 0 0 0
0.368893 0.640096 0 0 0 0
0.135249 0.494779 0 0 0 0
0.385057 0.622098 0 0 0 0
0.126636 0.499697 0 0 0 0
0.382576 0.636396 0 0 0 0
0.120638 0.500085 0 0 0 0
0.382383 0.64673 0 0 0 0
0.121017 0.489429 0 0 0 0
0.386795 0.649088 0 0 0 0
0.118741 0.483371 0 0 0 0
0.394462 0.645808 0 0 0 0
0.120237 0.470779 0 0 0 0
0.399209 0.647587 0 0 0 0
0.109399 0.479551 0 0 0 0
0.395551 0.663924 0 0 0 0
0.10174 0.482818 0 0 0 0
0.411599 0.646125 0 0 0 0
0.103336 0.470053 0 0 0 0
0.407855 0.662612 0 0 0 0
0.350394 0.486409 0 0 0 0
0.345162 0.48547 0 0 0 0
0.356293 0.486191 0 0 0 0
0.337025 0.489564 0 0 0 0
0.351934 0.503742 0 0 0 0
0.336433 0.48059 0 0 0 0
0.35995 0.499857 0 0 0 0
0.334312 0.474263 0 0 0 0
0.360466 0.508963 0 0 0 0
0.324242 0.481705 0 0 0 0
0.371764 0.499394 0 0 0 0
0.318608 0.481464 0 0 0 0
0.382298 0.491148 0 0 0 0
0.311142 0.484395 0 0 0 0
0.376577 0.511058 0 0 0 0
0.318719 0.461271 0 0 0 0
0.386098 0.504566 0 0 0 0
0.312021 0.462873 0 0 0 0
0.393333 0.502035 0 0 0 0
0.305968 0.463357 0 0 0 0
0.393429 0.511869 0 0 0 0
0.297584 0.467878 0 0 0 0
0.393617 0.521543 0 0 0 0
0.300289 0.453192 0 0 0 0
0.402592 0.515999 0 0 0 0
0.29147 0.458467 0 0 0 0
0.408504 0.51576 0 0 0 0
0.285152 0.459411 0 0 0 0
0.400655 0.539354 0 0 0 0
0.292894 0.436001 0 0 0 0
0.424006 0.508908 0 0 0 0
0.282218 0.444493 0 0 0 0
0.423736 0.519376 0 0 0 0
0.284602 0.430363 0 0 0 0
0.426503 0.524583 0 0 0 0
0.270688 0.444464 0 0 0 0
0.421905 0.542547 0 0 0 0
0.27373 0.429195 0 0 0 0
0.433916 0.531743 0 0 0 0
0.265933 0.432699 0 0 0 0
0.436062 0.538027 0 0 0 0
0.254631 0.442276 0 0 0 0
0.450176 0.523581 0 0 0 0
0.264274 0.415572 0 0 0 0
0.44158 0.548469 0 0 0 0
0.243404 0.441721 0 0 0 0
0.446252 0.550378 0 0 0 0
0.250511 0.419411 0 0 0 0
0.449599 0.554581 0 0 0 0
0.245043 0.418882 0 0 0 0
0.454407 0.556253 0 0 0 0
0.238439 0.42032 0 0 0 0
0.460463 0.555763 0 0 0 0
0.233657 0.418602 0 0 0 0
0.47201 0.545763 0 0 0 0
0.228619 0.417328 0 0 0 0
0.467508 0.563562 0 0 0 0
0.234231 0.397609 0 0 0 0
0.481263 0.549736 0 0 0 0
0.222661 0.407648 0 0 0 0
0.482715 0.557222 0 0 0 0
0.215723 0.409666 0 0 0 0
0.480589 0.570904 0 0 0 0
0.210268 0.409113 0 0 0 0
0.491278 0.562389 0 0 0 0
0.209863 0.399816 0 0 0 0
0.490284 0.574113 0 0 0 0
0.206164 0.396223 0 0 0 0
0.497264 0.572022 0 0 0 0
0.198806 0.398966 0 0 0 0
0.508015 0.5634 0 0 0 0
0.200484 0.386059 0 0 0 0
0.498796 0.589369 0 0 0 0
0.43833 0.4095 0 0 0 0
0.452165 0.375538 0 0 0 0
0.453933 0.392475 0 0 0 0
0.442115 0.382945 0 0 0 0
0.462122 0.388292 0 0 0 0
0.433234 0.388328 0 0 0 0
0.461854 0.398757 0 0 0 0
0.433004 0.378726 0 0 0 0
0.472661 0.390038 0 0 0 0
0.419789 0.391616 0 0 0 0
0.468825 0.406681 0 0 0 0
0.420574 0.380255 0 0 0 0
0.474517 0.406822 0 0 0 0
0.414748 0.380345 0 0 0 0
0.481923 0.403996 0 0 0 0
0.42 0.361248 0 0 0 0
0.48101 0.415576 0 0 0 0
0.410289 0.368069 0 0 0 0
0.50172 0.389706 0 0 0 0
0.401683 0.372976 0 0 0 0
0.482594 0.432833 0 0 0 0
0.403983 0.358992 0 0 0 0
0.492328 0.425974 0 0 0 0
0.386882 0.378611 0 0 0 0
0.498114 0.425952 0 0 0 0
0.395626 0.353466 0 0 0 0
0.515182 0.406389 0 0 0 0
0.397255 0.340644 0 0 0 0
0.519853 0.408298 0 0 0 0
0.382817 0.355652 0 0 0 0
0.511767 0.432304 0 0 0 0
0.376602 0.356416 0 0 0 0
0.513591 0.439146 0 0 0 0
0.370917 0.356264 0 0 0 0
0.518541 0.440571 0 0 0 0
0.370295 0.347341 0 0 0 0
0.527652 0.434791 0 0 0 0
0.365967 0.344838 0 0 0 0
0.529807 0.441057 0 0 0 0
0.365056 0.336414 0 0 0 0
0.536746 0.43904 0 0 0 0
0.351439 0.350001 0 0 0 0
0.538256 0.446423 0 0 0 0
0.35049 0.341644 0 0 0 0
0.533837 0.464078 0 0 0 0
0.355636 0.32273 0 0 0 0
0.547432 0.450531 0 0 0 0
0.338886 0.341743 0 0 0 0
0.552774 0.451277 0 0 0 0
0.342298 0.325832 0 0 0 0
0.553074 0.460759 0 0 0 0
0.348309 0.305421 0 0 0 0
0.568421 0.444176 0 0 0 0
0.330488 0.326289 0 0 0 0
0.56738 0.455979 0 0 0 0
0.324613 0.326464 0 0 0 0
0.578018 0.447554 0 0 0 0
0.327452 0.311546 0 0 0 0
0.57343 0.465501 0 0 0 0
0.313798 0.325196 0 0 0 0
0.573388 0.475573 0 0 0 0
0.307064 0.326861 0 0 0 0
0.585106 0.465278 0 0 0 0
0.312045 0.308233 0 0 0 0
0.596359 0.455787 0 0 0 0
0.309606 0.302457 0 0 0 0
0.595533 0.467217 0 0 0 0
0.302989 0.303918 0 0 0 0
0.598425 0.472208 0 0 0 0
0.306702 0.287487 0 0 0 0
0.595313 0.487598 0 0 0 0
0.289026 0.308104 0 0 0 0
0.602379 0.485359 0 0 0 0
0.524379 0.302017 0 0 0 0
0.528328 0.285177 0 0 0 0
0.531712 0.299316 0 0 0 0
0.519693 0.290133 0 0 0 0
0.544789 0.286665 0 0 0 0
0.513721 0.290477 0 0 0 0
0.545179 0.295991 0 0 0 0
0.508846 0.288921 0 0 0 0
0.550151 0.297379 0 0 0 0
0.507169 0.281826 0 0 0 0
0.54816 0.310828 0 0 0 0
0.495586 0.291888 0 0 0 0
0.548764 0.319781 0 0 0 0
0.497754 0.278132 0 0 0 0
0.558893 0.312237 0 0 0 0
0.492912 0.27652 0 0 0 0
0.557589 0.324496 0 0 0 0
0.492611 0.26704 0 0 0 0
0.570991 0.311283 0 0 0 0
0.48365 0.272563 0 0 0 0
0.571305 0.320739 0 0 0 0
0.480681 0.267705 0 0 0 0
0.573137 0.327566 0 0 0 0
0.479085 0.260469 0 0 0 0
0.572215 0.339163 0 0 0 0
0.467965 0.269729 0 0 0 0
0.568927 0.354858 0 0 0 0
0.461252 0.271357 0 0 0 0
0.585928 0.335412 0 0 0 0
0.447276 0.285564 0 0 0 0
0.605648 0.311255 0 0 0 0
0.460047 0.253444 0 0 0 0
0.597964 0.334564 0 0 0 0
0.459766 0.243929 0 0 0 0
0.60089 0.339496 0 0 0 0
0.457874 0.237207 0 0 0 0
0.598775 0.353159 0 0 0 0
0.449392 0.241898 0 0 0 0
0.606174 0.350344 0 0 0 0
0.431518 0.262857 0 0 0 0
0.611301 0.351464 0 0 0 0
0.438112 0.241436 0 0 0 0
0.621518 0.343768 0 0 0 0
0.425448 0.253371 0 0 0 0
0.622458 0.352139 0 0 0 0
0.424655 0.244745 0 0 0 0
0.633447 0.343106 0 0 0 0
0.427549 0.229732 0 0 0 0
0.624337 0.368886 0 0 0 0
0.423875 0.226096 0 0 0 0
0.638029 0.35517 0 0 0 0
0.411915 0.236811 0 0 0 0
0.646827 0.349932 0 0 0 0
0.402774 0.242644 0 0 0 0
0.650629 0.353346 0 0 0 0
0.409676 0.220688 0 0 0 0
0.645244 0.372674 0 0 0 0
0.412029 0.206613 0 0 0 0
0.652554 0.370011 0 0 0 0
0.396995 0.222653 0 0 0 0
0.653381 0.378579 0 0 0 0
0.397921 0.211049 0 0 0 0
0.670342 0.359202 0 0 0 0
0.387676 0.218793 0 0 0 0
0.66102 0.385348 0 0 0 0
0.381948 0.218715 0 0 0 0
0.670659 0.378654 0 0 0 0
0.380198 0.211746 0 0 0 0
0.676312 0.378861 0 0 0 0
0.375332 0.210174 0 0 0 0
0.676568 0.388418 0 0 0 0
0.375673 0.199584 0 0 0 0
0.686871 0.380573 0 0 0 0
0.610731 0.212491 0 0 0 0
0.594961 0.229806 0 0 0 0
0.611481 0.221192 0 0 0 0
0.602736 0.206339 0 0 0 0
0.622079 0.212837 0 0 0 0
0.601285 0.198852 0 0 0 0
0.624387 0.218838 0 0 0 0
0.593523 0.202296 0 0 0 0
0.629757 0.219537 0 0 0 0
0.586076 0.205195 0 0 0 0
0.637668 0.215835 0 0 0 0
0.581693 0.202786 0 0 0 0
0.636975 0.227035 0 0 0 0
0.57177 0.209975 0 0 0 0
0.639525 0.232619 0 0 0 0
0.57122 0.200927 0 0 0 0
0.644084 0.234722 0 0 0 0
0.569528 0.193857 0 0 0 0
0.658487 0.219775 0 0 0 0
0.566135 0.189735 0 0 0 0
0.637888 0.265454 0 0 0 0
0.565365 0.181067 0 0 0 0
0.652242 0.250592 0 0 0 0
0.555918 0.18743 0 0 0 0
0.675182 0.220859 0 0 0 0
0.548009 0.191129 0 0 0 0
0.672327 0.235803 0 0 0 0
0.561638 0.157522 0 0 0 0
0.661983 0.263721 0 0 0 0
0.551264 0.165491 0 0 0 0
0.679409 0.243538 0 0 0 0
0.544683 0.166889 0 0 0 0
0.684185 0.245266 0 0 0 0
0.53395 0.175481 0 0 0 0
0.682629 0.25796 0 0 0 0
0.534141 0.165148 0 0 0 0
0.67634 0.278854 0 0 0 0
0.524608 0.171662 0 0 0 0
0.684824 0.274158 0 0 0 0
0.525572 0.159991 0 0 0 0
0.690401 0.274498 0 0 0 0
0.515023 0.168262 0 0 0 0
0.696793 0.273428 0 0 0 0
0.521744 0.146622 0 0 0 0
0.70523 0.268815 0 0 0 0
0.515187 0.147978 0 0 0 0
0.712721 0.265839 0 0 0 0
0.49518 0.172633 0 0 0 0
0.711267 0.278358 0 0 0 0
0.505046 0.145542 0 0 0 0
0.716326 0.279596 0 0 0 0
0.496679 0.150035 0 0 0 0
0.720427 0.282492 0 0 0 0
0.491898 0.148316 0 0 0 0
0.72863 0.278285 0 0 0 0
0.486415 0.147812 0 0 0 0
0.724923 0.294706 0 0 0 0
0.486645 0.137415 0 0 0 0
0.730752 0.294609 0 0 0 0
0.488021 0.125031 0 0 0 0
0.736568 0.294536 0 0 0 0
0.476308 0.135318 0 0 0 0
0.738809 0.300653 0 0 0 0
0.470177 0.135938 0 0 0 0
0.744967 0.299987 0 0 0 0
0.46341 0.137659 0 0 0 0
0.763335 0.278172 0 0 0 0
0.46369 0.127174 0 0 0 0
0.752365 0.307174 0 0 0 0
0.460736 0.12229 0 0 0 0
0.770244 0.286207 0 0 0 0
0.452568 0.126438 0 0 0 0
0.769556 0.297399 0 0 0 0
0.753728 0.644358 0 0 0 0
0.750888 0.634447 0 0 0 0
0.73995 0.637651 0 0 0 0
0.740902 0.61739 0 0 0 0
0.736385 0.641157 0 0 0 0
0.75436 0.623776 0 0 0 0
0.737327 0.649171 0 0 0 0
0.758668 0.621013 0 0 0 0
0.735089 0.654004 0 0 0 0
0.762774 0.618049 0 0 0 0
0.708587 0.634573 0 0 0 0
0.746109 0.594313 0 0 0 0
0.711836 0.644893 0 0 0 0
0.767568 0.608701 0 0 0 0
0.710023 0.65015 0 0 0 0
0.771508 0.605569 0 0 0 0
0.724767 0.671966 0 0 0 0
0.779862 0.606852 0 0 0 0
0.712834 0.667104 0 0 0 0
0.776925 0.596845 0 0 0 0
0.712086 0.673427 0 0 0 0
0.786387 0.599235 0 0 0 0
0.69188 0.660292 0 0 0 0
0.793805 0.599582 0 0 0 0
0.697383 0.672865 0 0 0 0
0.794424 0.59313 0 0 0 0
0.691451 0.674005 0 0 0 0
0.787364 0.578999 0 0 0 0
0.683753 0.673377 0 0 0 0
0.79169 0.576254 0 0 0 0
0.676685 0.673381 0 0 0 0
0.800684 0.578177 0 0 0 0
0.68993 0.693697 0 0 0 0
0.80007 0.570492 0 0 0 0
0.679026 0.689864 0 0 0 0
0.812067 0.575418 0 0 0 0
0.683458 0.701367 0 0 0 0
0.797047 0.553326 0 0 0 0
0.6742 0.699181 0 0 0 0
0.821568 0.570777 0 0 0 0
0.67217 0.704221 0 0 0 0
0.817778 0.559915 0 0 0 0
0.683828 0.72295 0 0 0 0
0.820689 0.555755 0 0 0 0
0.666611 0.712804 0 0 0 0
0.821495 0.549491 0 0 0 0
0.657752 0.711016 0 0 0 0
0.818501 0.539426 0 0 0 0
0.654876 0.715211 0 0 0 0
0.838567 0.55242 0 0 0 0
0.660339 0.727746 0 0 0 0
0.826146 0.532928 0 0 0 0
0.65351 0.727988 0 0 0 0
0.839789 0.5395 0 0 0 0
0.632382 0.713931 0 0 0 0
0.828843 0.521483 0 0 0 0
0.629646 0.718266 0 0 0 0
0.854148 0.539717 0 0 0 0
0.633018 0.728709 0 0 0 0
0.851716 0.530214 0 0 0 0
0.646066 0.748828 0 0 0 0
0.858699 0.530126 0 0 0 0
0.633949 0.743783 0 0 0 0
0.85136 0.515716 0 0 0 0
0.634873 0.751777 0 0 0 0
0.862339 0.519624 0 0 0 0
0.617758 0.741733 0 0 0 0
0.859652 0.509866 0 0 0 0
0.628242 0.759288 0 0 0 0
0.854774 0.497917 0 0 0 0
0.617114 0.755231 0 0 0 0
0.869761 0.505833 0 0 0 0
0.613533 0.758721 0 0 0 0
0.869802 0.498802 0 0 0 0
0.594161 0.74642 0 0 0 0
0.881769 0.503699 0 0 0 0
0.606343 0.765673 0 0 0 0
0.87176 0.486618 0 0 0 0
0.605214 0.771615 0 0 0 0
0.876107 0.483894 0 0 0 0
0.605208 0.778681 0 0 0 0
0.887632 0.488348 0 0 0 0
0.596968 0.777511 0 0 0 0
0.875651 0.469296 0 0 0 0
0.600305 0.78792 0 0 0 0
0.897453 0.484027 0 0 0 0
0.581413 0.776099 0 0 0 0
0.90222 0.481723 0 0 0 0
0.584081 0.785838 0 0 0 0
0.900652 0.473084 0 0 0 0
0.576749 0.785578 0 0 0 0
0.903213 0.468574 0 0 0 0
0.582705 0.798604 0 0 0 0
0.913148 0.471438 0 0 0 0
0.574536 0.797506 0 0 0 0
0.90184 0.453058 0 0 0 0
0.578778 0.808819 0 0 0 0
0.918971 0.463119 0 0 0 0
0.564909 0.802022 0 0 0 0
0.91981 0.456887 0 0 0 0
0.569068 0.813251 0 0 0 0
0.923194 0.4532 0 0 0 0
0.564908 0.816163 0 0 0 0
0.938475 0.46141 0 0 0 0
0.558117 0.816443 0 0 0 0
0.92616 0.442024 0 0 0 0
0.555416 0.820813 0 0 0 0
0.932988 0.44178 0 0 0 0
0.555361 0.827829 0 0 0 0
0.933512 0.435233 0 0 0 0
0.546167 0.825706 0 0 0 0
0.945095 0.439746 0 0 0 0
0.546724 0.833334 0 0 0 0
0.936296 0.423875 0 0 0 0
0.54076 0.834441 0 0 0 0
0.954648 0.435156 0 0 0 0
0.539111 0.839863 0 0 0 0
0.948524 0.421961 0 0 0 0
0.542986 0.850809 0 0 0 0
0.960598 0.426963 0 0 0 0
0.532242 0.847136 0 0 0 0
0.959341 0.418635 0 0 0 0
0.529071 0.851036 0 0 0 0
0.964657 0.41688 0 0 0 0
0.51699 0.846026 0 0 0 0
0.953039 0.398192 0 0 0 0
0.527791 0.863899 0 0 0 0
0.973362 0.411444 0 0 0 0
0.509351 0.85253 0 0 0 0
0.966206 0.397217 0 0 0 0
0.506004 0.856253 0 0 0 0
0.978457 0.402397 0 0 0 0
0.500931 0.858251 0 0 0 0
0.987391 0.404259 0 0 0 0
0.502939 0.867331 0 0 0 0
0.99296 0.402758 0 0 0 0
0.492986 0.864449 0 0 0 0
0.986548 0.389275 0 0 0 0
0.504756 0.883289 0 0 0 0
0.984505 0.380161 0 0 0 0
0.500748 0.886353 0 0 0 0
