ply
format ascii 1.0
comment PCL generated
element vertex 52
property float x
property float y
property float z
property uchar red
property uchar green
property uchar blue
element face 13
property list uchar int vertex_indices
end_header
0.24274 0.14719 0.26204 60 97 52 
0.24274 0.14719 0.048606 60 97 52 
0.24262 0.017497 0.048606 60 97 52 
0.24262 0.017497 0.26204 60 97 52 
0.22283 0.031033 0.60833 44 77 106 
0.22283 0.031042 0.049267 44 77 106 
0.080401 0.03117 0.049267 44 77 106 
0.080401 0.031161 0.60833 44 77 106 
0.080501 0.1324 0.60824 44 77 106 
0.080501 0.13241 0.049683 44 77 106 
0.22192 0.13228 0.049683 44 77 106 
0.22192 0.13227 0.60824 44 77 106 
0.059702 0.14725 0.26167 60 97 52 
0.059706 0.14725 0.048579 60 97 52 
0.059589 0.01768 0.048579 60 97 52 
0.059586 0.01768 0.26167 60 97 52 
0.22188 0.13353 0.60833 60 97 52 
0.22189 0.13353 0.21109 60 97 52 
0.2218 0.030536 0.21109 60 97 52 
0.22179 0.030536 0.60833 60 97 52 
0.13023 0.045731 0.68845 44 77 106 
0.13023 0.045737 0.25825 44 77 106 
0.17512 0.045697 0.25825 44 77 106 
0.17512 0.04569 0.68845 44 77 106 
0.19371 0.016377 0.20848 124 83 45 
0.1936 0.011913 0.01944 124 83 45 
0.059543 0.015207 0.01944 124 83 45 
0.059653 0.019671 0.20848 124 83 45 
0.00031915 0.15415 0.048635 44 77 106 
0.00031915 0.15415 1.6328e-05 44 77 106 
0.3117 0.15387 1.6328e-05 44 77 106 
0.3117 0.15387 0.048635 44 77 106 
0.12872 0.11774 0.688 44 77 106 
0.12872 0.11775 0.25742 44 77 106 
0.17517 0.11771 0.25742 44 77 106 
0.17517 0.1177 0.688 44 77 106 
0.31194 0.011916 0.048605 79 51 85 
6.0603e-05 0.011916 0.048605 79 51 85 
6.0603e-05 0.15986 0.048613 79 51 85 
0.31194 0.15986 0.048613 79 51 85 
0.27113 0.13227 0.17448 60 97 52 
0.27113 0.13227 0.048586 60 97 52 
0.27104 0.030288 0.048586 60 97 52 
0.27104 0.030288 0.17448 60 97 52 
0.080536 0.13244 0.60833 60 97 52 
0.080543 0.13244 0.21103 60 97 52 
0.080452 0.031126 0.21103 60 97 52 
0.080445 0.031126 0.60833 60 97 52 
0.03466 0.13248 0.1764 60 97 52 
0.034662 0.13248 0.048574 60 97 52 
0.034571 0.031396 0.048574 60 97 52 
0.034569 0.031396 0.1764 60 97 52 
4 0 1 2 3
4 4 5 6 7
4 8 9 10 11
4 12 13 14 15
4 16 17 18 19
4 20 21 22 23
4 24 25 26 27
4 28 29 30 31
4 32 33 34 35
4 36 37 38 39
4 40 41 42 43
4 44 45 46 47
4 48 49 50 51
