ply
format ascii 1.0
comment PCL generated
element vertex 1200
property float x
property float y
property float z
property uchar red
property uchar green
property uchar blue
element face 300
property list uchar int vertex_indices
end_header
0.43414 0.10826 0.49987 60 97 52 
0.43413 0.10826 0.43371 60 97 52 
0.43462 0.053516 0.43371 60 97 52 
0.43463 0.053516 0.49987 60 97 52 
0.43976 0.090048 0.49547 44 77 106 
0.43976 0.090111 0.46047 44 77 106 
0.43126 0.090035 0.46047 44 77 106 
0.43126 0.089972 0.49547 44 77 106 
0.46057 0.14652 0.45687 124 83 45 
0.43255 0.14652 0.45687 124 83 45 
0.43255 0.2439 0.45705 124 83 45 
0.46057 0.2439 0.45704 124 83 45 
0.44027 0.089931 0.58778 44 77 106 
0.44027 0.089994 0.5524 44 77 106 
0.43136 0.089914 0.5524 44 77 106 
0.43136 0.089851 0.58778 44 77 106 
0.45906 0.14208 0.54848 124 83 45 
0.4338 0.14208 0.54849 124 83 45 
0.4338 0.24297 0.54867 124 83 45 
0.45906 0.24297 0.54866 124 83 45 
0.4423 0.087791 0.67768 124 83 45 
0.43181 0.087791 0.67768 124 83 45 
0.43181 0.050753 0.67761 124 83 45 
0.4423 0.050753 0.67761 124 83 45 
0.46002 0.14678 0.64027 124 83 45 
0.43466 0.14678 0.64028 124 83 45 
0.43466 0.19641 0.64036 124 83 45 
0.46002 0.19641 0.64036 124 83 45 
0.43545 0.10838 0.40593 60 97 52 
0.43544 0.10838 0.34291 60 97 52 
0.43573 0.075548 0.34291 60 97 52 
0.43574 0.075548 0.40593 60 97 52 
0.46062 0.2479 0.36545 124 83 45 
0.43162 0.2479 0.36546 124 83 45 
0.43162 0.14653 0.36528 124 83 45 
0.46062 0.14653 0.36528 124 83 45 
0.46189 0.19663 0.36652 79 51 85 
0.46197 0.14825 0.36666 79 51 85 
0.4551 0.14825 0.37107 79 51 85 
0.45501 0.19663 0.37093 79 51 85 
0.46018 0.2075 0.40775 44 77 106 
0.46018 0.20756 0.37253 44 77 106 
0.43744 0.20735 0.37253 44 77 106 
0.43744 0.20729 0.40775 44 77 106 
0.43501 0.1082 0.32012 60 97 52 
0.435 0.1082 0.25477 60 97 52 
0.43528 0.077158 0.25477 60 97 52 
0.43529 0.077158 0.32012 60 97 52 
0.46015 0.24515 0.2737 124 83 45 
0.43082 0.24515 0.27371 124 83 45 
0.43082 0.14675 0.27353 124 83 45 
0.46015 0.14675 0.27353 124 83 45 
0.43573 0.18784 0.27313 60 97 52 
0.43572 0.18784 0.21555 60 97 52 
0.4363 0.12343 0.21555 60 97 52 
0.43631 0.12343 0.27313 60 97 52 
0.46033 0.20796 0.34156 44 77 106 
0.46033 0.20807 0.27835 44 77 106 
0.43476 0.20784 0.27835 44 77 106 
0.43476 0.20773 0.34156 44 77 106 
0.46071 0.24385 0.27567 79 51 85 
0.46078 0.20504 0.27578 79 51 85 
0.45435 0.20504 0.27991 79 51 85 
0.45428 0.24385 0.2798 79 51 85 
0.45602 0.14591 0.73162 124 83 45 
0.43456 0.14591 0.73163 124 83 45 
0.43456 0.19878 0.73172 124 83 45 
0.45602 0.19878 0.73171 124 83 45 
0.43771 0.19154 0.26439 60 97 52 
0.4377 0.19154 0.22432 60 97 52 
0.43819 0.13732 0.22432 60 97 52 
0.4382 0.13732 0.26439 60 97 52 
0.45727 0.2429 0.18206 124 83 45 
0.43167 0.2429 0.18206 124 83 45 
0.43167 0.14527 0.18189 124 83 45 
0.45727 0.14527 0.18189 124 83 45 
0.4599 0.24391 0.22254 60 97 52 
0.4599 0.24391 0.18181 60 97 52 
0.46025 0.20469 0.18181 60 97 52 
0.46026 0.20469 0.22254 60 97 52 
0.45969 0.20712 0.2247 44 77 106 
0.45969 0.20716 0.20138 44 77 106 
0.4393 0.20698 0.20138 44 77 106 
0.4393 0.20694 0.2247 44 77 106 
0.44116 0.21053 0.26583 44 77 106 
0.44116 0.21062 0.21701 44 77 106 
0.43301 0.21054 0.21701 44 77 106 
0.43301 0.21046 0.26583 44 77 106 
0.45986 0.10759 0.50371 124 83 45 
0.43392 0.10759 0.50372 124 83 45 
0.43392 0.067221 0.50365 124 83 45 
0.45986 0.067221 0.50364 124 83 45 
0.46066 0.11132 0.68622 124 83 45 
0.43148 0.11132 0.68622 124 83 45 
0.43148 0.06751 0.68615 124 83 45 
0.46066 0.06751 0.68614 124 83 45 
0.46111 0.1114 0.59507 124 83 45 
0.43161 0.1114 0.59507 124 83 45 
0.43161 0.067086 0.595 124 83 45 
0.46111 0.067086 0.59499 124 83 45 
0.4603 0.052221 0.41089 124 83 45 
0.43198 0.052221 0.41089 124 83 45 
0.43198 0.11173 0.411 124 83 45 
0.4603 0.11173 0.41099 124 83 45 
0.43485 0.11098 0.41899 44 77 106 
0.43485 0.111 0.40992 44 77 106 
0.45888 0.11121 0.40992 44 77 106 
0.45888 0.1112 0.41899 44 77 106 
0.45766 0.1112 0.31998 124 83 45 
0.43207 0.1112 0.31999 124 83 45 
0.43207 0.067853 0.31991 124 83 45 
0.45766 0.067853 0.3199 124 83 45 
0.46056 0.067217 0.77805 124 83 45 
0.43232 0.067217 0.77806 124 83 45 
0.43232 0.10972 0.77813 124 83 45 
0.46056 0.10972 0.77813 124 83 45 
0.50613 0.34674 0.32042 124 83 45 
0.48447 0.34674 0.32042 124 83 45 
0.48447 0.37811 0.32048 124 83 45 
0.50613 0.37811 0.32047 124 83 45 
0.50098 0.37704 0.35832 60 97 52 
0.50097 0.37704 0.31945 60 97 52 
0.50122 0.34955 0.31945 60 97 52 
0.50123 0.34955 0.35832 60 97 52 
0.50337 0.37264 0.34861 102 56 43 
0.48761 0.37256 0.34868 102 56 43 
0.48761 0.38125 0.35851 102 56 43 
0.50337 0.38133 0.35844 102 56 43 
0.50621 0.37885 0.35938 44 77 106 
0.50621 0.37916 0.18776 44 77 106 
0.48459 0.37896 0.18776 44 77 106 
0.48459 0.37866 0.35938 44 77 106 
0.48537 0.40611 0.85453 60 97 52 
0.48526 0.40611 0.1608 60 97 52 
0.48559 0.36907 0.1608 60 97 52 
0.4857 0.36907 0.85453 60 97 52 
0.48035 0.42734 0.4462 44 77 106 
0.48034 0.42787 0.15074 44 77 106 
0.50586 0.4281 0.15074 44 77 106 
0.50586 0.42757 0.4462 44 77 106 
0.49877 0.45592 0.35172 60 97 52 
0.49876 0.45592 0.3061 60 97 52 
0.49905 0.42388 0.3061 60 97 52 
0.49906 0.42388 0.35172 60 97 52 
0.50494 0.42987 0.35586 124 83 45 
0.46727 0.42987 0.35587 124 83 45 
0.46727 0.46626 0.35594 124 83 45 
0.50494 0.46626 0.35593 124 83 45 
0.44161 0.45815 0.35714 44 77 106 
0.44161 0.45828 0.28128 44 77 106 
0.50318 0.45883 0.28128 44 77 106 
0.50318 0.4587 0.35714 44 77 106 
0.50298 0.45862 0.9023 44 77 106 
0.50296 0.46001 0.12404 44 77 106 
0.21073 0.45739 0.12404 44 77 106 
0.21074 0.456 0.9023 44 77 106 
0.43296 0.46548 0.3258 60 97 52 
0.43295 0.46548 0.26412 60 97 52 
0.43302 0.45762 0.26412 60 97 52 
0.43303 0.45762 0.3258 60 97 52 
0.4863 0.48452 0.31864 124 83 45 
0.43724 0.48452 0.31865 124 83 45 
0.43724 0.45849 0.3186 124 83 45 
0.4863 0.45849 0.31859 124 83 45 
0.4288 0.46623 0.3558 124 83 45 
0.36173 0.46623 0.35582 124 83 45 
0.36173 0.45254 0.35579 124 83 45 
0.4288 0.45254 0.35578 124 83 45 
0.53883 0.46558 0.56542 44 77 106 
0.53882 0.46639 0.11159 44 77 106 
0.26143 0.4639 0.11159 44 77 106 
0.26144 0.46309 0.56542 44 77 106 
0.50334 0.46146 0.40269 44 77 106 
0.50334 0.46155 0.35477 44 77 106 
0.45596 0.46112 0.35477 44 77 106 
0.45596 0.46103 0.40269 44 77 106 
0.44134 0.4845 0.34107 44 77 106 
0.44134 0.48454 0.31727 44 77 106 
0.48665 0.48495 0.31727 44 77 106 
0.48665 0.48491 0.34107 44 77 106 
0.50633 0.34617 0.26483 124 83 45 
0.48207 0.34617 0.26484 124 83 45 
0.48207 0.38026 0.2649 124 83 45 
0.50633 0.38026 0.26489 124 83 45 
0.5065 0.34685 0.22917 124 83 45 
0.48463 0.34685 0.22917 124 83 45 
0.48463 0.38105 0.22923 124 83 45 
0.5065 0.38105 0.22923 124 83 45 
0.48649 0.39341 0.24858 60 97 52 
0.48648 0.39341 0.16653 60 97 52 
0.48662 0.3775 0.16653 60 97 52 
0.48663 0.3775 0.24858 60 97 52 
0.50174 0.45013 0.30602 60 97 52 
0.50172 0.45013 0.17384 60 97 52 
0.50196 0.42376 0.17384 60 97 52 
0.50198 0.42376 0.30602 60 97 52 
0.49789 0.46129 0.31138 60 97 52 
0.49788 0.46129 0.22943 60 97 52 
0.49819 0.42757 0.22943 60 97 52 
0.4982 0.42757 0.31138 60 97 52 
0.50544 0.42962 0.26511 124 83 45 
0.46069 0.42962 0.26512 124 83 45 
0.46069 0.4666 0.26518 124 83 45 
0.50544 0.4666 0.26517 124 83 45 
0.50308 0.45131 0.22891 124 83 45 
0.49252 0.45131 0.22892 124 83 45 
0.49252 0.42892 0.22888 124 83 45 
0.50308 0.42892 0.22887 124 83 45 
0.50279 0.45626 0.26614 44 77 106 
0.50279 0.45633 0.22399 44 77 106 
0.46613 0.456 0.22399 44 77 106 
0.46613 0.45593 0.26614 44 77 106 
0.4329 0.46625 0.23801 60 97 52 
0.43289 0.46625 0.1643 60 97 52 
0.43297 0.45787 0.1643 60 97 52 
0.43298 0.45787 0.23801 60 97 52 
0.50188 0.45694 0.27429 124 83 45 
0.46135 0.45694 0.2743 124 83 45 
0.46135 0.46375 0.27431 124 83 45 
0.50188 0.46375 0.2743 124 83 45 
0.48758 0.45847 0.22785 124 83 45 
0.43962 0.45847 0.22786 124 83 45 
0.43962 0.48235 0.2279 124 83 45 
0.48758 0.48235 0.22789 124 83 45 
0.48457 0.4853 0.23509 60 97 52 
0.48457 0.4853 0.2271 60 97 52 
0.48478 0.46226 0.2271 60 97 52 
0.48478 0.46226 0.23509 60 97 52 
0.48692 0.48476 0.25018 44 77 106 
0.48692 0.48481 0.2263 44 77 106 
0.43965 0.48438 0.2263 44 77 106 
0.43965 0.48434 0.25018 44 77 106 
0.50565 0.34611 0.41183 124 83 45 
0.48762 0.34611 0.41184 124 83 45 
0.48762 0.3792 0.4119 124 83 45 
0.50565 0.3792 0.41189 124 83 45 
0.50024 0.37704 0.44382 60 97 52 
0.50023 0.37704 0.36701 60 97 52 
0.50047 0.34996 0.36701 60 97 52 
0.50048 0.34996 0.44382 60 97 52 
0.48528 0.37845 0.46972 44 77 106 
0.48527 0.37864 0.36514 44 77 106 
0.50558 0.37882 0.36514 44 77 106 
0.50558 0.37864 0.46972 44 77 106 
0.50469 0.42523 0.40164 124 83 45 
0.46144 0.42523 0.40165 124 83 45 
0.46144 0.46657 0.40172 124 83 45 
0.50469 0.46657 0.40171 124 83 45 
0.50444 0.42777 0.44728 124 83 45 
0.47277 0.42777 0.44729 124 83 45 
0.47277 0.46577 0.44736 124 83 45 
0.50444 0.46577 0.44735 124 83 45 
0.49745 0.46043 0.48909 60 97 52 
0.49743 0.46043 0.36451 60 97 52 
0.49776 0.42396 0.36451 60 97 52 
0.49778 0.42396 0.48909 60 97 52 
0.49987 0.45558 0.44754 44 77 106 
0.49987 0.45564 0.41702 44 77 106 
0.48067 0.45547 0.41702 44 77 106 
0.48067 0.45541 0.44754 44 77 106 
0.50162 0.4625 0.41952 44 77 106 
0.50162 0.46253 0.4005 44 77 106 
0.46428 0.4622 0.4005 44 77 106 
0.46428 0.46216 0.41952 44 77 106 
0.4293 0.45629 0.44713 124 83 45 
0.35787 0.45629 0.44714 124 83 45 
0.35787 0.46599 0.44716 124 83 45 
0.4293 0.46599 0.44714 124 83 45 
0.48645 0.4853 0.41052 124 83 45 
0.43728 0.4853 0.41053 124 83 45 
0.43728 0.45889 0.41048 124 83 45 
0.48645 0.45889 0.41047 124 83 45 
0.49993 0.46254 0.49498 44 77 106 
0.49993 0.46263 0.44624 44 77 106 
0.45848 0.46226 0.44624 44 77 106 
0.45848 0.46217 0.49498 44 77 106 
0.48615 0.48469 0.4327 44 77 106 
0.48615 0.48473 0.40929 44 77 106 
0.43861 0.4843 0.40929 44 77 106 
0.43861 0.48426 0.4327 44 77 106 
0.50516 0.34696 0.50326 124 83 45 
0.48566 0.34696 0.50327 124 83 45 
0.48566 0.37908 0.50333 124 83 45 
0.50516 0.37908 0.50332 124 83 45 
0.50319 0.37877 0.5539 44 77 106 
0.50319 0.37889 0.48513 44 77 106 
0.4852 0.37873 0.48513 44 77 106 
0.4852 0.37861 0.5539 44 77 106 
0.50378 0.43228 0.53896 124 83 45 
0.47427 0.43228 0.53896 124 83 45 
0.47427 0.46649 0.53902 124 83 45 
0.50378 0.46649 0.53902 124 83 45 
0.49775 0.45497 0.53961 44 77 106 
0.49775 0.45502 0.51029 44 77 106 
0.48231 0.45489 0.51029 44 77 106 
0.48231 0.45483 0.53961 44 77 106 
0.48585 0.48344 0.50214 124 83 45 
0.4375 0.48344 0.50215 124 83 45 
0.4375 0.4587 0.50211 124 83 45 
0.48585 0.4587 0.5021 124 83 45 
0.42864 0.46597 0.53904 124 83 45 
0.35713 0.46597 0.53905 124 83 45 
0.35713 0.45271 0.53903 124 83 45 
0.42864 0.45271 0.53901 124 83 45 
0.48526 0.48431 0.52486 44 77 106 
0.48526 0.48436 0.50031 44 77 106 
0.43827 0.48393 0.50031 44 77 106 
0.43827 0.48389 0.52486 44 77 106 
0.50324 0.43058 0.63055 124 83 45 
0.475 0.43058 0.63056 124 83 45 
0.475 0.46641 0.63062 124 83 45 
0.50324 0.46641 0.63061 124 83 45 
0.48566 0.48475 0.59364 124 83 45 
0.43832 0.48475 0.59365 124 83 45 
0.43832 0.45774 0.5936 124 83 45 
0.48566 0.45774 0.59359 124 83 45 
0.42838 0.46602 0.63073 124 83 45 
0.35299 0.46602 0.63075 124 83 45 
0.35299 0.44929 0.63072 124 83 45 
0.42838 0.44929 0.6307 124 83 45 
0.43224 0.46511 0.64065 44 77 106 
0.43224 0.46521 0.58226 44 77 106 
0.3992 0.46492 0.58226 44 77 106 
0.3992 0.46481 0.64065 44 77 106 
0.48304 0.4845 0.60095 44 77 106 
0.48304 0.48452 0.59215 44 77 106 
0.43912 0.48413 0.59215 44 77 106 
0.43912 0.48411 0.60095 44 77 106 
0.50273 0.43074 0.72203 124 83 45 
0.47607 0.43074 0.72203 124 83 45 
0.47607 0.46642 0.7221 124 83 45 
0.50273 0.46642 0.72209 124 83 45 
0.4849 0.48522 0.68515 124 83 45 
0.43794 0.48522 0.68516 124 83 45 
0.43794 0.45835 0.68511 124 83 45 
0.4849 0.45835 0.6851 124 83 45 
0.43908 0.48384 0.69344 44 77 106 
0.43908 0.48386 0.68366 44 77 106 
0.48291 0.48425 0.68366 44 77 106 
0.48291 0.48424 0.69344 44 77 106 
0.54331 0.46992 0.13849 124 83 45 
0.48584 0.46992 0.13851 124 83 45 
0.48584 0.34642 0.13829 124 83 45 
0.54331 0.34642 0.13828 124 83 45 
0.50652 0.35118 0.17761 44 77 106 
0.50651 0.35122 0.15368 44 77 106 
0.47442 0.35093 0.15368 44 77 106 
0.47442 0.35089 0.17761 44 77 106 
0.5064 0.38065 0.174 124 83 45 
0.48147 0.38065 0.17401 124 83 45 
0.48147 0.35321 0.17396 124 83 45 
0.5064 0.35321 0.17395 124 83 45 
0.48694 0.36448 0.20229 60 97 52 
0.48694 0.36448 0.1665 60 97 52 
0.48667 0.39376 0.1665 60 97 52 
0.48668 0.39376 0.20229 60 97 52 
0.5043 0.38029 0.19945 44 77 106 
0.5043 0.38037 0.15622 44 77 106 
0.48479 0.38019 0.15622 44 77 106 
0.48479 0.38012 0.19945 44 77 106 
0.45937 0.39631 0.18285 44 77 106 
0.45937 0.39635 0.16235 44 77 106 
0.44195 0.39619 0.16235 44 77 106 
0.44195 0.39616 0.18285 44 77 106 
0.49411 0.42794 0.14029 44 77 106 
0.49411 0.42797 0.12323 44 77 106 
0.50948 0.42811 0.12323 44 77 106 
0.50948 0.42808 0.14029 44 77 106 
0.5057 0.42815 0.17333 124 83 45 
0.46214 0.42815 0.17334 124 83 45 
0.46214 0.466 0.17341 124 83 45 
0.5057 0.466 0.1734 124 83 45 
0.50231 0.43794 0.17269 44 77 106 
0.50231 0.43798 0.1483 44 77 106 
0.4952 0.43792 0.1483 44 77 106 
0.4952 0.43787 0.17269 44 77 106 
0.50183 0.46096 0.14015 60 97 52 
0.50182 0.46096 0.12035 60 97 52 
0.50216 0.42347 0.12035 60 97 52 
0.50216 0.42347 0.14015 60 97 52 
0.49822 0.45958 0.21803 60 97 52 
0.49821 0.45958 0.14984 60 97 52 
0.49848 0.42911 0.14984 60 97 52 
0.49849 0.42911 0.21803 60 97 52 
0.43311 0.45705 0.17713 44 77 106 
0.43311 0.45715 0.1181 44 77 106 
0.50596 0.45781 0.1181 44 77 106 
0.50596 0.4577 0.17713 44 77 106 
0.46142 0.46015 0.15458 44 77 106 
0.46142 0.46022 0.11797 44 77 106 
0.50407 0.4606 0.11797 44 77 106 
0.50407 0.46053 0.15458 44 77 106 
0.48454 0.4852 0.15765 60 97 52 
0.48453 0.4852 0.13584 60 97 52 
0.48477 0.45858 0.13584 60 97 52 
0.48478 0.45858 0.15765 60 97 52 
0.48791 0.48181 0.13646 124 83 45 
0.44583 0.48181 0.13647 124 83 45 
0.44583 0.45879 0.13643 124 83 45 
0.48791 0.45879 0.13642 124 83 45 
0.50549 0.46281 0.22054 44 77 106 
0.50549 0.4629 0.17248 44 77 106 
0.46135 0.4625 0.17248 44 77 106 
0.46135 0.46241 0.22054 44 77 106 
0.4403 0.48442 0.15941 44 77 106 
0.4403 0.48446 0.13572 44 77 106 
0.48736 0.48489 0.13572 44 77 106 
0.48736 0.48484 0.15941 44 77 106 
0.50207 0.43383 0.81409 124 83 45 
0.47722 0.43383 0.8141 124 83 45 
0.47722 0.46663 0.81415 124 83 45 
0.50207 0.46663 0.81415 124 83 45 
0.4845 0.48535 0.77651 124 83 45 
0.43743 0.48535 0.77652 124 83 45 
0.43743 0.45765 0.77647 124 83 45 
0.4845 0.45765 0.77646 124 83 45 
0.50087 0.46402 0.77786 44 77 106 
0.50087 0.46406 0.75866 44 77 106 
0.45796 0.46367 0.75866 44 77 106 
0.45796 0.46364 0.77786 44 77 106 
0.5056 0.3466 0.45729 124 83 45 
0.48991 0.3466 0.45729 124 83 45 
0.48991 0.38043 0.45735 124 83 45 
0.5056 0.38043 0.45735 124 83 45 
0.48532 0.37768 0.49618 44 77 106 
0.48531 0.37775 0.45805 44 77 106 
0.5015 0.3779 0.45805 44 77 106 
0.5015 0.37783 0.49618 44 77 106 
0.50449 0.42744 0.49137 44 77 106 
0.50448 0.4275 0.45668 44 77 106 
0.49685 0.42744 0.45668 44 77 106 
0.49686 0.42737 0.49137 44 77 106 
0.50414 0.43046 0.49294 124 83 45 
0.46031 0.43046 0.49295 124 83 45 
0.46031 0.46644 0.49302 124 83 45 
0.50414 0.46644 0.49301 124 83 45 
0.50596 0.346 0.36621 124 83 45 
0.48555 0.346 0.36622 124 83 45 
0.48555 0.38053 0.36628 124 83 45 
0.50596 0.38053 0.36627 124 83 45 
0.42885 0.46618 0.4016 124 83 45 
0.39409 0.46618 0.4016 124 83 45 
0.39409 0.45565 0.40159 124 83 45 
0.42885 0.45565 0.40158 124 83 45 
0.50341 0.42928 0.58492 124 83 45 
0.48173 0.42928 0.58492 124 83 45 
0.48173 0.46644 0.58499 124 83 45 
0.50341 0.46644 0.58498 124 83 45 
0.50039 0.46656 0.58493 124 83 45 
0.46172 0.46656 0.58494 124 83 45 
0.46172 0.45522 0.58492 124 83 45 
0.50039 0.45522 0.58491 124 83 45 
0.50634 0.34631 0.27505 124 83 45 
0.48477 0.34631 0.27505 124 83 45 
0.48477 0.38238 0.27511 124 83 45 
0.50634 0.38238 0.27511 124 83 45 
0.50525 0.43026 0.31029 124 83 45 
0.46268 0.43026 0.3103 124 83 45 
0.46268 0.46648 0.31037 124 83 45 
0.50525 0.46648 0.31036 124 83 45 
0.50321 0.42837 0.67646 124 83 45 
0.46115 0.42837 0.67647 124 83 45 
0.46115 0.46638 0.67653 124 83 45 
0.50321 0.46638 0.67653 124 83 45 
0.5064 0.37921 0.21981 124 83 45 
0.48652 0.37921 0.21982 124 83 45 
0.48652 0.34728 0.21976 124 83 45 
0.5064 0.34728 0.21976 124 83 45 
0.50654 0.34694 0.18377 124 83 45 
0.48488 0.34694 0.18377 124 83 45 
0.48488 0.3806 0.18383 124 83 45 
0.50654 0.3806 0.18383 124 83 45 
0.48206 0.35213 0.22031 44 77 106 
0.48206 0.35218 0.19221 44 77 106 
0.5049 0.35239 0.19221 44 77 106 
0.5049 0.35234 0.22031 44 77 106 
0.50533 0.37959 0.20062 44 77 106 
0.50533 0.37962 0.18331 44 77 106 
0.48537 0.37944 0.18331 44 77 106 
0.48537 0.37941 0.20062 44 77 106 
0.46802 0.43565 0.18333 124 83 45 
0.4348 0.43565 0.18334 124 83 45 
0.4348 0.39588 0.18327 124 83 45 
0.46802 0.39588 0.18326 124 83 45 
0.50562 0.42946 0.21891 124 83 45 
0.46216 0.42946 0.21892 124 83 45 
0.46216 0.46661 0.21899 124 83 45 
0.50562 0.46661 0.21898 124 83 45 
0.50326 0.44885 0.18309 124 83 45 
0.48993 0.44885 0.18309 124 83 45 
0.48993 0.42986 0.18306 124 83 45 
0.50326 0.42986 0.18306 124 83 45 
0.47095 0.4618 0.22011 44 77 106 
0.47095 0.46185 0.18904 44 77 106 
0.46074 0.46176 0.18904 44 77 106 
0.46074 0.46171 0.22011 44 77 106 
0.50597 0.42633 0.12797 124 83 45 
0.4833 0.42633 0.12798 124 83 45 
0.4833 0.46659 0.12805 124 83 45 
0.50597 0.46659 0.12805 124 83 45 
0.42561 0.46606 0.49326 124 83 45 
0.39657 0.46606 0.49327 124 83 45 
0.39657 0.45627 0.49325 124 83 45 
0.42561 0.45627 0.49324 124 83 45 
0.40573 0.48389 0.4835 44 77 106 
0.40573 0.48394 0.45443 44 77 106 
0.30281 0.48302 0.45443 44 77 106 
0.30281 0.48296 0.4835 44 77 106 
0.40685 0.44912 0.4562 124 83 45 
0.30252 0.44912 0.45623 124 83 45 
0.30252 0.48479 0.45629 124 83 45 
0.40685 0.48479 0.45627 124 83 45 
0.40636 0.4611 0.59484 44 77 106 
0.40636 0.46127 0.50165 44 77 106 
0.20489 0.45946 0.50165 44 77 106 
0.20489 0.45929 0.59484 44 77 106 
0.40639 0.43355 0.54717 124 83 45 
0.35471 0.43355 0.54718 124 83 45 
0.35471 0.48503 0.54727 124 83 45 
0.40639 0.48503 0.54726 124 83 45 
0.33971 0.46267 0.45751 44 77 106 
0.33971 0.46276 0.41066 44 77 106 
0.39938 0.46329 0.41066 44 77 106 
0.39938 0.46321 0.45751 44 77 106 
0.30431 0.45179 0.49483 44 77 106 
0.30431 0.45184 0.4662 44 77 106 
0.29564 0.45176 0.4662 44 77 106 
0.29564 0.45171 0.49483 44 77 106 
0.42471 0.46029 0.40269 44 77 106 
0.42471 0.46037 0.36215 44 77 106 
0.40201 0.46016 0.36215 44 77 106 
0.40201 0.46009 0.40269 44 77 106 
0.41261 0.48478 0.3648 124 83 45 
0.26574 0.48478 0.36483 124 83 45 
0.26574 0.40572 0.3647 124 83 45 
0.41261 0.40572 0.36466 124 83 45 
0.40739 0.48394 0.40381 44 77 106 
0.40739 0.48401 0.36263 44 77 106 
0.30657 0.48311 0.36263 44 77 106 
0.30658 0.48303 0.40381 44 77 106 
0.348 0.46196 0.42221 44 77 106 
0.348 0.46198 0.40783 44 77 106 
0.38247 0.46229 0.40783 44 77 106 
0.38247 0.46227 0.42221 44 77 106 
0.34786 0.48474 0.40685 60 97 52 
0.34785 0.48474 0.35641 60 97 52 
0.34804 0.46389 0.35641 60 97 52 
0.34805 0.46389 0.40685 60 97 52 
0.33298 0.46338 0.36604 44 77 106 
0.33298 0.46346 0.32594 44 77 106 
0.35114 0.46362 0.32594 44 77 106 
0.35114 0.46355 0.36604 44 77 106 
0.3161 0.46056 0.44303 44 77 106 
0.3161 0.46062 0.40993 44 77 106 
0.34218 0.46085 0.40993 44 77 106 
0.34218 0.46079 0.44303 44 77 106 
0.29958 0.46542 0.44735 124 83 45 
0.26869 0.46542 0.44736 124 83 45 
0.26869 0.45506 0.44734 124 83 45 
0.29958 0.45506 0.44733 124 83 45 
0.35612 0.46313 0.34902 44 77 106 
0.35612 0.4632 0.30908 44 77 106 
0.42735 0.46384 0.30908 44 77 106 
0.42735 0.46377 0.34902 44 77 106 
0.42442 0.46555 0.31009 124 83 45 
0.38523 0.46555 0.3101 124 83 45 
0.38523 0.45532 0.31008 124 83 45 
0.42442 0.45532 0.31007 124 83 45 
0.37088 0.46108 0.35594 44 77 106 
0.37088 0.46115 0.31939 44 77 106 
0.40742 0.46148 0.31939 44 77 106 
0.40743 0.46141 0.35594 44 77 106 
0.40619 0.48493 0.27335 124 83 45 
0.35212 0.48493 0.27336 124 83 45 
0.35212 0.45709 0.27331 124 83 45 
0.40619 0.45709 0.2733 124 83 45 
0.4074 0.46163 0.35516 44 77 106 
0.4074 0.46168 0.3291 44 77 106 
0.3972 0.46159 0.3291 44 77 106 
0.3972 0.46154 0.35516 44 77 106 
0.4062 0.46363 0.32004 124 83 45 
0.3702 0.46363 0.32005 124 83 45 
0.3702 0.45745 0.32004 124 83 45 
0.4062 0.45745 0.32003 124 83 45 
0.40597 0.48427 0.3164 44 77 106 
0.40597 0.48435 0.27223 44 77 106 
0.30217 0.48342 0.27223 44 77 106 
0.30217 0.48334 0.3164 44 77 106 
0.36748 0.46467 0.27748 44 77 106 
0.36748 0.46478 0.21909 44 77 106 
0.34284 0.46455 0.21909 44 77 106 
0.34284 0.46445 0.27748 44 77 106 
0.35144 0.46243 0.35493 44 77 106 
0.35144 0.46257 0.27744 44 77 106 
0.28864 0.462 0.27744 44 77 106 
0.28864 0.46186 0.35493 44 77 106 
0.34748 0.48475 0.316 60 97 52 
0.34747 0.48475 0.27308 60 97 52 
0.34764 0.46528 0.27308 60 97 52 
0.34765 0.46528 0.316 60 97 52 
0.34781 0.48464 0.2738 124 83 45 
0.30321 0.48464 0.27381 124 83 45 
0.30321 0.45791 0.27376 124 83 45 
0.34781 0.45791 0.27375 124 83 45 
0.33973 0.46332 0.31995 124 83 45 
0.29292 0.46332 0.31996 124 83 45 
0.29292 0.45723 0.31995 124 83 45 
0.33973 0.45723 0.31994 124 83 45 
0.33887 0.46583 0.35563 124 83 45 
0.29692 0.46583 0.35564 124 83 45 
0.29692 0.45268 0.35562 124 83 45 
0.33887 0.45268 0.35561 124 83 45 
0.24476 0.45895 0.32552 44 77 106 
0.24476 0.45904 0.27386 44 77 106 
0.33019 0.45981 0.27386 44 77 106 
0.33019 0.45972 0.32552 44 77 106 
0.27196 0.4549 0.30251 44 77 106 
0.27196 0.45502 0.23663 44 77 106 
0.30789 0.45535 0.23663 44 77 106 
0.30789 0.45523 0.30251 44 77 106 
0.29766 0.46574 0.30909 60 97 52 
0.29765 0.46574 0.24302 60 97 52 
0.29795 0.4324 0.24302 60 97 52 
0.29796 0.4324 0.30909 60 97 52 
0.40551 0.46017 0.63925 124 83 45 
0.30185 0.46017 0.63927 124 83 45 
0.30185 0.48466 0.63932 124 83 45 
0.40551 0.48466 0.63929 124 83 45 
0.35088 0.48309 0.64798 44 77 106 
0.35088 0.4831 0.63691 44 77 106 
0.40273 0.48357 0.63691 44 77 106 
0.40273 0.48355 0.64798 44 77 106 
0.29155 0.45995 0.72285 44 77 106 
0.29155 0.46002 0.68382 44 77 106 
0.33948 0.46045 0.68382 44 77 106 
0.33948 0.46038 0.72285 44 77 106 
0.3021 0.45852 0.69433 44 77 106 
0.3021 0.4586 0.65144 44 77 106 
0.24073 0.45805 0.65144 44 77 106 
0.24074 0.45797 0.69433 44 77 106 
0.40561 0.48369 0.58763 44 77 106 
0.4056 0.48377 0.54531 44 77 106 
0.30202 0.48284 0.54531 44 77 106 
0.30202 0.48276 0.58763 44 77 106 
0.36559 0.4846 0.5478 124 83 45 
0.30215 0.4846 0.54781 124 83 45 
0.30215 0.45941 0.54777 124 83 45 
0.36559 0.45941 0.54776 124 83 45 
0.39608 0.43191 0.54874 124 83 45 
0.35519 0.43191 0.54875 124 83 45 
0.35519 0.44667 0.54877 124 83 45 
0.39608 0.44667 0.54876 124 83 45 
0.34182 0.46538 0.63104 124 83 45 
0.30158 0.46538 0.63105 124 83 45 
0.30158 0.45193 0.63102 124 83 45 
0.34182 0.45193 0.63101 124 83 45 
0.42004 0.48467 0.73124 124 83 45 
0.30173 0.48467 0.73127 124 83 45 
0.30173 0.4598 0.73122 124 83 45 
0.42004 0.4598 0.7312 124 83 45 
0.30513 0.48257 0.76494 44 77 106 
0.30513 0.48264 0.7288 44 77 106 
0.40307 0.48352 0.7288 44 77 106 
0.40307 0.48345 0.76494 44 77 106 
0.42642 0.46573 0.21849 124 83 45 
0.38272 0.46573 0.21849 124 83 45 
0.38272 0.45558 0.21848 124 83 45 
0.42642 0.45558 0.21847 124 83 45 
0.41692 0.46605 0.2643 124 83 45 
0.35534 0.46605 0.26431 124 83 45 
0.35534 0.4574 0.2643 124 83 45 
0.41692 0.4574 0.26429 124 83 45 
0.40602 0.48428 0.20494 60 97 52 
0.40602 0.48428 0.18124 60 97 52 
0.40627 0.45686 0.18124 60 97 52 
0.40627 0.45686 0.20494 60 97 52 
0.40583 0.46276 0.26143 60 97 52 
0.40582 0.46276 0.22979 60 97 52 
0.40588 0.45663 0.22979 60 97 52 
0.40588 0.45663 0.26143 60 97 52 
0.40566 0.48405 0.18147 124 83 45 
0.3678 0.48405 0.18148 124 83 45 
0.3678 0.45736 0.18143 124 83 45 
0.40566 0.45736 0.18143 124 83 45 
0.40373 0.48425 0.22003 44 77 106 
0.40373 0.48432 0.18089 44 77 106 
0.33296 0.48368 0.18089 44 77 106 
0.33296 0.48361 0.22003 44 77 106 
0.35122 0.44867 0.27341 60 97 52 
0.35121 0.44867 0.25094 60 97 52 
0.3514 0.42847 0.25094 60 97 52 
0.3514 0.42847 0.27341 60 97 52 
0.34768 0.48208 0.22588 60 97 52 
0.34768 0.48208 0.18451 60 97 52 
0.34782 0.46611 0.18451 60 97 52 
0.34783 0.46611 0.22588 60 97 52 
0.34762 0.48473 0.18221 124 83 45 
0.30582 0.48473 0.18222 124 83 45 
0.30582 0.45738 0.18217 124 83 45 
0.34762 0.45738 0.18216 124 83 45 
0.31107 0.46586 0.26465 124 83 45 
0.26266 0.46586 0.26466 124 83 45 
0.26266 0.45339 0.26463 124 83 45 
0.31107 0.45339 0.26462 124 83 45 
0.30856 0.46179 0.28014 44 77 106 
0.30856 0.46188 0.22856 44 77 106 
0.27465 0.46158 0.22856 44 77 106 
0.27465 0.46149 0.28014 44 77 106 
0.28257 0.48283 0.5024 124 83 45 
0.2314 0.48283 0.50241 124 83 45 
0.2314 0.44322 0.50235 124 83 45 
0.28257 0.44322 0.50233 124 83 45 
0.23171 0.45629 0.54742 124 83 45 
0.2039 0.45629 0.54742 124 83 45 
0.2039 0.42948 0.54737 124 83 45 
0.23171 0.42948 0.54737 124 83 45 
0.2069 0.51365 0.81087 60 97 52 
0.20679 0.51365 0.12764 60 97 52 
0.20759 0.4248 0.12764 60 97 52 
0.2077 0.4248 0.81087 60 97 52 
0.29307 0.45434 0.54026 44 77 106 
0.29307 0.45439 0.50879 44 77 106 
0.27947 0.45427 0.50879 44 77 106 
0.27947 0.45421 0.54026 44 77 106 
0.20799 0.49645 0.81125 44 77 106 
0.20798 0.49773 0.096179 44 77 106 
0.12641 0.497 0.096179 44 77 106 
0.12642 0.49572 0.81125 44 77 106 
0.16958 0.5124 0.54033 44 77 106 
0.16958 0.51271 0.36596 44 77 106 
0.2063 0.51304 0.36596 44 77 106 
0.2063 0.51273 0.54033 44 77 106 
0.29351 0.45426 0.44807 44 77 106 
0.29351 0.45431 0.41934 44 77 106 
0.27467 0.45414 0.41934 44 77 106 
0.27467 0.45409 0.44807 44 77 106 
0.28299 0.48436 0.41043 124 83 45 
0.23164 0.48436 0.41044 124 83 45 
0.23164 0.4529 0.41039 124 83 45 
0.28299 0.4529 0.41038 124 83 45 
0.28295 0.48329 0.42204 44 77 106 
0.28295 0.48331 0.40854 44 77 106 
0.23455 0.48288 0.40854 44 77 106 
0.23455 0.48285 0.42204 44 77 106 
0.20665 0.51518 0.44712 124 83 45 
0.17744 0.51518 0.44713 124 83 45 
0.17744 0.49257 0.44709 124 83 45 
0.20665 0.49257 0.44708 124 83 45 
0.20615 0.49607 0.41095 124 83 45 
0.17115 0.49607 0.41096 124 83 45 
0.17115 0.51335 0.41099 124 83 45 
0.20615 0.51335 0.41098 124 83 45 
0.28223 0.48402 0.59337 124 83 45 
0.23072 0.48402 0.59338 124 83 45 
0.23072 0.45165 0.59332 124 83 45 
0.28223 0.45165 0.59331 124 83 45 
0.27771 0.48326 0.60117 44 77 106 
0.27771 0.48328 0.59157 44 77 106 
0.23139 0.48286 0.59157 44 77 106 
0.23139 0.48285 0.60117 44 77 106 
0.20293 0.4989 0.62526 120 44 48 
0.20298 0.49893 0.55391 120 44 48 
0.20887 0.49035 0.55391 120 44 48 
0.20883 0.49032 0.62526 120 44 48 
0.20335 0.51107 0.63172 60 97 52 
0.20335 0.51107 0.59556 60 97 52 
0.20349 0.49509 0.59556 60 97 52 
0.2035 0.49509 0.63172 60 97 52 
0.16889 0.51171 0.77149 44 77 106 
0.16889 0.51209 0.55901 44 77 106 
0.20643 0.51243 0.55901 44 77 106 
0.20643 0.51205 0.77149 44 77 106 
0.28239 0.48204 0.68492 124 83 45 
0.23055 0.48204 0.68493 124 83 45 
0.23055 0.44964 0.68487 124 83 45 
0.28239 0.44964 0.68486 124 83 45 
0.20355 0.51238 0.72116 124 83 45 
0.17319 0.51238 0.72116 124 83 45 
0.17319 0.49643 0.72113 124 83 45 
0.20355 0.49643 0.72113 124 83 45 
0.28421 0.48348 0.22771 124 83 45 
0.23464 0.48348 0.22772 124 83 45 
0.23464 0.45238 0.22766 124 83 45 
0.28421 0.45238 0.22765 124 83 45 
0.24151 0.48289 0.2513 44 77 106 
0.24151 0.48294 0.22691 44 77 106 
0.28427 0.48332 0.22691 44 77 106 
0.28427 0.48328 0.2513 44 77 106 
0.20613 0.51423 0.34995 60 97 52 
0.20611 0.51423 0.19049 60 97 52 
0.20675 0.44296 0.19049 60 97 52 
0.20678 0.44296 0.34995 60 97 52 
0.17319 0.51194 0.26064 44 77 106 
0.17319 0.51208 0.18663 44 77 106 
0.20741 0.51238 0.18663 44 77 106 
0.20741 0.51225 0.26064 44 77 106 
0.27215 0.43935 0.32037 124 83 45 
0.25277 0.43935 0.32037 124 83 45 
0.25277 0.40593 0.32031 124 83 45 
0.27215 0.40593 0.32031 124 83 45 
0.22644 0.45473 0.3648 124 83 45 
0.20474 0.45473 0.3648 124 83 45 
0.20474 0.41785 0.36474 124 83 45 
0.22644 0.41785 0.36473 124 83 45 
0.22207 0.45093 0.36542 44 77 106 
0.22207 0.45101 0.31934 44 77 106 
0.20478 0.45085 0.31934 44 77 106 
0.20478 0.45077 0.36542 44 77 106 
0.20384 0.512 0.35188 60 97 52 
0.20384 0.512 0.32749 60 97 52 
0.20399 0.49519 0.32749 60 97 52 
0.20399 0.49519 0.35188 60 97 52 
0.28219 0.48288 0.77671 124 83 45 
0.23011 0.48288 0.77672 124 83 45 
0.23011 0.45297 0.77667 124 83 45 
0.28219 0.45297 0.77666 124 83 45 
0.29809 0.45543 0.17452 124 83 45 
0.23823 0.45543 0.17453 124 83 45 
0.23823 0.48118 0.17457 124 83 45 
0.29809 0.48118 0.17456 124 83 45 
0.17057 0.51382 0.18741 44 77 106 
0.17057 0.51392 0.13011 44 77 106 
0.20191 0.5142 0.13011 44 77 106 
0.20191 0.5141 0.18741 44 77 106 
0.20349 0.49565 0.58084 60 97 52 
0.20348 0.49565 0.54812 60 97 52 
0.20335 0.51067 0.54812 60 97 52 
0.20335 0.51067 0.58084 60 97 52 
0.2374 0.45617 0.64056 124 83 45 
0.21181 0.45617 0.64057 124 83 45 
0.21181 0.43554 0.64053 124 83 45 
0.2374 0.43554 0.64053 124 83 45 
0.20672 0.51523 0.40062 124 83 45 
0.1683 0.51523 0.40063 124 83 45 
0.1683 0.49134 0.40059 124 83 45 
0.20672 0.49134 0.40058 124 83 45 
0.2008 0.51531 0.4017 124 83 45 
0.17023 0.51531 0.40171 124 83 45 
0.17023 0.49629 0.40167 124 83 45 
0.2008 0.49629 0.40167 124 83 45 
0.26706 0.46193 0.21518 60 97 52 
0.26706 0.46193 0.18847 60 97 52 
0.26714 0.45266 0.18847 60 97 52 
0.26715 0.45266 0.21518 60 97 52 
0.08956 0.50927 0.61148 60 97 52 
0.089492 0.50927 0.17911 60 97 52 
0.090609 0.38538 0.17911 60 97 52 
0.090677 0.38538 0.61148 60 97 52 
0.087313 0.45282 0.40905 124 83 45 
0.064869 0.45282 0.40905 124 83 45 
0.064869 0.49658 0.40913 124 83 45 
0.087313 0.49658 0.40912 124 83 45 
0.095091 0.5134 0.44696 124 83 45 
0.083646 0.5134 0.44696 124 83 45 
0.083646 0.48167 0.44691 124 83 45 
0.095091 0.48167 0.44691 124 83 45 
0.12889 0.51519 0.77064 60 97 52 
0.12879 0.51519 0.0996 60 97 52 
0.12898 0.4942 0.0996 60 97 52 
0.12908 0.4942 0.77064 60 97 52 
0.084712 0.5106 0.77199 44 77 106 
0.084706 0.51122 0.42545 44 77 106 
0.1295 0.51162 0.42545 44 77 106 
0.1295 0.511 0.77199 44 77 106 
0.091107 0.49578 0.50129 124 83 45 
0.064382 0.49578 0.50129 124 83 45 
0.064382 0.45191 0.50122 124 83 45 
0.091107 0.45191 0.50121 124 83 45 
0.10291 0.51361 0.53805 124 83 45 
0.082996 0.51361 0.53805 124 83 45 
0.082996 0.48465 0.538 124 83 45 
0.10291 0.48465 0.538 124 83 45 
0.12622 0.50888 0.67455 44 77 106 
0.12622 0.50925 0.46555 44 77 106 
0.08502 0.50888 0.46555 44 77 106 
0.085023 0.50851 0.67455 44 77 106 
0.1242 0.50911 0.53527 102 56 43 
0.083414 0.5089 0.53545 102 56 43 
0.083414 0.51439 0.54166 102 56 43 
0.1242 0.5146 0.54148 102 56 43 
0.10794 0.51177 0.6729 44 77 106 
0.10794 0.51214 0.46942 44 77 106 
0.12867 0.51232 0.46942 44 77 106 
0.12867 0.51196 0.6729 44 77 106 
0.11854 0.5138 0.35434 124 83 45 
0.08298 0.5138 0.35435 124 83 45 
0.08298 0.4749 0.35428 124 83 45 
0.11854 0.4749 0.35428 124 83 45 
0.12903 0.51258 0.34867 44 77 106 
0.12903 0.5128 0.22813 44 77 106 
0.11694 0.51269 0.22813 44 77 106 
0.11694 0.51247 0.34867 44 77 106 
0.089835 0.49537 0.59322 124 83 45 
0.064056 0.49537 0.59323 124 83 45 
0.064056 0.45169 0.59315 124 83 45 
0.089835 0.45169 0.59315 124 83 45 
0.11671 0.51398 0.58423 124 83 45 
0.082781 0.51398 0.58423 124 83 45 
0.082781 0.47664 0.58417 124 83 45 
0.11671 0.47664 0.58416 124 83 45 
0.099111 0.48531 0.63031 124 83 45 
0.082729 0.48531 0.63032 124 83 45 
0.082729 0.51148 0.63036 124 83 45 
0.099111 0.51148 0.63036 124 83 45 
0.091487 0.4933 0.68624 124 83 45 
0.064125 0.4933 0.68625 124 83 45 
0.064125 0.45145 0.68617 124 83 45 
0.091487 0.45145 0.68617 124 83 45 
0.10206 0.48617 0.72303 124 83 45 
0.082549 0.48617 0.72303 124 83 45 
0.082549 0.51277 0.72308 124 83 45 
0.10206 0.51277 0.72307 124 83 45 
0.10964 0.51353 0.2631 124 83 45 
0.083048 0.51353 0.2631 124 83 45 
0.083048 0.48756 0.26306 124 83 45 
0.10964 0.48756 0.26305 124 83 45 
0.085392 0.50927 0.26482 44 77 106 
0.08539 0.50948 0.15277 44 77 106 
0.12307 0.50981 0.15277 44 77 106 
0.12307 0.50961 0.26482 44 77 106 
0.12983 0.51352 0.28557 44 77 106 
0.12983 0.51358 0.24813 44 77 106 
0.08947 0.51322 0.24813 44 77 106 
0.089471 0.51315 0.28557 44 77 106 
0.083423 0.51047 0.49455 79 51 85 
0.083471 0.4838 0.49463 79 51 85 
0.090566 0.4838 0.49007 79 51 85 
0.090517 0.51047 0.49 79 51 85 
0.12426 0.51339 0.49007 107 63 89 
0.083065 0.51323 0.48989 107 63 89 
0.083065 0.50692 0.49547 107 63 89 
0.12426 0.50708 0.49565 107 63 89 
0.12008 0.51484 0.21734 124 83 45 
0.082671 0.51484 0.21735 124 83 45 
0.082671 0.49779 0.21732 124 83 45 
0.12008 0.49779 0.21731 124 83 45 
0.09895 0.51099 0.22007 44 77 106 
0.098949 0.51115 0.1303 44 77 106 
0.12906 0.51142 0.1303 44 77 106 
0.12907 0.51126 0.22007 44 77 106 
0.12916 0.51406 0.22204 44 77 106 
0.12916 0.51422 0.13325 44 77 106 
0.10609 0.51401 0.13325 44 77 106 
0.10609 0.51385 0.22204 44 77 106 
0.090718 0.36629 0.54748 124 83 45 
0.065281 0.36629 0.54748 124 83 45 
0.065281 0.41732 0.54757 124 83 45 
0.090718 0.41732 0.54757 124 83 45 
0.07906 0.41386 0.73122 124 83 45 
0.064558 0.41386 0.73122 124 83 45 
0.064558 0.36308 0.73113 124 83 45 
0.07906 0.36308 0.73113 124 83 45 
0.024475 0.21844 0.72447 44 77 106 
0.024472 0.21883 0.51023 44 77 106 
0.099088 0.2195 0.51023 44 77 106 
0.099091 0.21911 0.72447 44 77 106 
0.010283 0.21805 0.49817 44 77 106 
0.010279 0.21848 0.25537 44 77 106 
0.12877 0.21955 0.25537 44 77 106 
0.12878 0.21911 0.49817 44 77 106 
0.0036603 0.21673 0.87936 44 77 106 
0.003657 0.2171 0.67543 44 77 106 
0.069988 0.21769 0.67543 44 77 106 
0.069991 0.21733 0.87936 44 77 106 
0.49014 0.06791 0.050711 44 77 106 
0.49014 0.067988 0.007234 44 77 106 
0.60822 0.069049 0.007234 44 77 106 
0.60822 0.068971 0.050711 44 77 106 
0.4887 0.19955 0.094313 60 97 52 
0.4887 0.19955 0.044189 60 97 52 
0.48989 0.06718 0.044189 60 97 52 
0.4899 0.06718 0.094313 60 97 52 
0.54461 0.43378 0.094377 60 97 52 
0.5446 0.43378 0.0095593 60 97 52 
0.54544 0.34071 0.0095593 60 97 52 
0.54545 0.34071 0.094377 60 97 52 
0.48673 0.3742 0.068357 60 97 52 
0.48672 0.3742 0.0094646 60 97 52 
0.48741 0.29816 0.0094646 60 97 52 
0.48742 0.29816 0.068357 60 97 52 
0.54139 0.38196 0.13961 44 77 106 
0.54138 0.38201 0.11066 44 77 106 
0.51088 0.38174 0.11066 44 77 106 
0.51088 0.38169 0.13961 44 77 106 
0.57205 0.38363 0.10978 124 83 45 
0.54587 0.38363 0.10979 124 83 45 
0.54587 0.40171 0.10982 124 83 45 
0.57205 0.40171 0.10981 124 83 45 
0.57764 0.39124 0.017204 44 77 106 
0.57764 0.39125 0.0075177 44 77 106 
0.55321 0.39103 0.0075177 44 77 106 
0.55321 0.39102 0.017204 44 77 106 
0.58203 0.41147 0.097026 124 83 45 
0.55411 0.41147 0.097032 124 83 45 
0.55411 0.38388 0.096984 124 83 45 
0.58203 0.38388 0.096978 124 83 45 
0.5266 0.35764 0.067946 44 77 106 
0.5266 0.35768 0.0465 44 77 106 
0.5442 0.35784 0.0465 44 77 106 
0.5442 0.3578 0.067946 44 77 106 
0.58758 0.43995 0.046002 124 83 45 
0.54233 0.43995 0.046011 124 83 45 
0.54233 0.46875 0.046062 124 83 45 
0.58758 0.46875 0.046052 124 83 45 
0.53886 0.4239 0.13953 44 77 106 
0.53886 0.42395 0.1107 44 77 106 
0.51396 0.42373 0.1107 44 77 106 
0.51396 0.42367 0.13953 44 77 106 
0.54653 0.46836 0.066316 44 77 106 
0.54653 0.46845 0.015241 44 77 106 
0.52586 0.46827 0.015241 44 77 106 
0.52586 0.46818 0.066316 44 77 106 
0.54406 0.51293 0.09444 60 97 52 
0.54406 0.51293 0.066964 60 97 52 
0.5446 0.4533 0.066964 60 97 52 
0.5446 0.4533 0.09444 60 97 52 
0.59826 0.48469 0.080854 107 63 89 
0.55935 0.48453 0.080682 107 63 89 
0.55935 0.4985 0.068336 107 63 89 
0.59826 0.49865 0.068508 107 63 89 
0.35943 0.45852 0.040374 60 97 52 
0.35943 0.45852 0.014562 60 97 52 
0.35991 0.40551 0.014562 60 97 52 
0.35991 0.40551 0.040374 60 97 52 
0.55263 0.45583 0.017092 44 77 106 
0.55263 0.45585 0.0077563 44 77 106 
0.57814 0.45608 0.0077563 44 77 106 
0.57814 0.45606 0.017092 44 77 106 
0.54537 0.46886 0.040676 60 97 52 
0.54536 0.46886 0.0094174 60 97 52 
0.54558 0.44479 0.0094174 60 97 52 
0.54558 0.44479 0.040676 60 97 52 
0.36255 0.44495 0.039347 44 77 106 
0.36255 0.44501 0.0055739 44 77 106 
0.35456 0.44494 0.0055739 44 77 106 
0.35456 0.44488 0.039347 44 77 106 
0.54615 0.50737 0.067941 124 83 45 
0.48151 0.50737 0.067954 124 83 45 
0.48151 0.44137 0.067838 124 83 45 
0.54615 0.44137 0.067825 124 83 45 
0.57413 0.51737 0.097089 124 83 45 
0.54692 0.51737 0.097095 124 83 45 
0.54692 0.50133 0.097067 124 83 45 
0.57413 0.50133 0.097061 124 83 45 
0.46042 0.50918 0.1029 44 77 106 
0.46042 0.50923 0.070953 44 77 106 
0.55812 0.51011 0.070953 44 77 106 
0.55812 0.51005 0.1029 44 77 106 
0.60079 0.4896 0.08005 124 83 45 
0.56341 0.4896 0.080058 124 83 45 
0.56341 0.51493 0.080103 124 83 45 
0.60079 0.51493 0.080095 124 83 45 
0.25109 0.40465 0.037465 44 77 106 
0.25109 0.40471 0.0038955 44 77 106 
0.28737 0.40504 0.0038955 44 77 106 
0.28737 0.40498 0.037465 44 77 106 
0.25281 0.4217 0.036877 60 97 52 
0.25281 0.4217 0.0030393 60 97 52 
0.25298 0.40322 0.0030393 60 97 52 
0.25298 0.40322 0.036877 60 97 52 
0.25377 0.42127 0.0399 60 97 52 
0.25376 0.42127 0.0021838 60 97 52 
0.2539 0.4054 0.0021838 60 97 52 
0.25391 0.4054 0.0399 60 97 52 
0.53875 0.5048 0.11435 44 77 106 
0.53875 0.50483 0.095802 44 77 106 
0.47093 0.50422 0.095802 44 77 106 
0.47093 0.50419 0.11435 44 77 106 
0.36563 0.43892 0.025897 44 77 106 
0.36563 0.43894 0.011319 44 77 106 
0.35696 0.43886 0.011319 44 77 106 
0.35696 0.43884 0.025897 44 77 106 
0.25346 0.42153 0.027381 60 97 52 
0.25345 0.42153 0.0025794 60 97 52 
0.25356 0.40973 0.0025794 60 97 52 
0.25356 0.40973 0.027381 60 97 52 
0.48249 0.50989 0.072645 60 97 52 
0.48249 0.50989 0.057389 60 97 52 
0.48288 0.46632 0.057389 60 97 52 
0.48288 0.46632 0.072645 60 97 52 
0.48753 0.50195 0.058908 60 97 52 
0.48753 0.50195 0.041246 60 97 52 
0.48785 0.46677 0.041246 60 97 52 
0.48785 0.46677 0.058908 60 97 52 
0.35753 0.46407 0.040469 60 97 52 
0.35752 0.46407 0.014308 60 97 52 
0.35771 0.44341 0.014308 60 97 52 
0.35771 0.44341 0.040469 60 97 52 
0.49069 0.49634 0.057794 124 83 45 
0.48252 0.49634 0.057796 124 83 45 
0.48252 0.471 0.057751 124 83 45 
0.49069 0.471 0.057749 124 83 45 
0.48159 0.49431 0.042971 60 97 52 
0.48159 0.49431 0.0065525 60 97 52 
0.48183 0.46716 0.0065525 60 97 52 
0.48184 0.46716 0.042971 60 97 52 
0.31427 0.47807 0.0040132 124 83 45 
0.21063 0.47807 0.0040349 124 83 45 
0.21063 0.43043 0.0039512 124 83 45 
0.31427 0.43043 0.0039295 124 83 45 
0.42654 0.50915 0.093743 44 77 106 
0.42654 0.5092 0.062934 44 77 106 
0.3573 0.50858 0.062934 44 77 106 
0.3573 0.50853 0.093743 44 77 106 
0.34257 0.50863 0.096877 44 77 106 
0.34257 0.5087 0.060717 44 77 106 
0.12823 0.50677 0.060717 44 77 106 
0.12823 0.50671 0.096877 44 77 106 
0.48864 0.37387 0.067455 60 97 52 
0.48864 0.37387 0.040659 60 97 52 
0.48891 0.34438 0.040659 60 97 52 
0.48891 0.34438 0.067455 60 97 52 
0.48449 0.40433 0.065714 60 97 52 
0.48448 0.40433 0.0072171 60 97 52 
0.48416 0.44037 0.0072171 60 97 52 
0.48417 0.44037 0.065714 60 97 52 
0.4943 0.46538 0.069259 60 97 52 
0.49429 0.46538 0.0066791 60 97 52 
0.49443 0.44937 0.0066791 60 97 52 
0.49444 0.44937 0.069259 60 97 52 
0.49612 0.46851 0.069196 60 97 52 
0.49611 0.46851 0.0066629 60 97 52 
0.49626 0.45215 0.0066629 60 97 52 
0.49627 0.45215 0.069196 60 97 52 
0.48097 0.46674 0.069228 44 77 106 
0.48097 0.46685 0.0066418 44 77 106 
0.49725 0.467 0.0066418 44 77 106 
0.49725 0.46689 0.069228 44 77 106 
0.48193 0.46829 0.069275 44 77 106 
0.48193 0.46839 0.015702 44 77 106 
0.49054 0.46847 0.015702 44 77 106 
0.49054 0.46837 0.069275 44 77 106 
0.47148 0.46662 0.041308 44 77 106 
0.47148 0.46668 0.0061413 44 77 106 
0.42918 0.4663 0.0061413 44 77 106 
0.42918 0.46624 0.041308 44 77 106 
0.4818 0.48839 0.037225 60 97 52 
0.4818 0.48839 0.0064891 60 97 52 
0.48198 0.46797 0.0064891 60 97 52 
0.48199 0.46797 0.037225 60 97 52 
0.46059 0.48069 0.027978 44 77 106 
0.46059 0.48073 0.0080928 44 77 106 
0.44292 0.48057 0.0080928 44 77 106 
0.44292 0.48053 0.027978 44 77 106 
0.42513 0.46556 0.17252 124 83 45 
0.37553 0.46556 0.17253 124 83 45 
0.37553 0.4534 0.17251 124 83 45 
0.42513 0.4534 0.1725 124 83 45 
0.21004 0.45834 0.039646 60 97 52 
0.21004 0.45834 0.012345 60 97 52 
0.21036 0.42224 0.012345 60 97 52 
0.21036 0.42224 0.039646 60 97 52 
0.25427 0.44928 0.039995 60 97 52 
0.25427 0.44928 0.019356 60 97 52 
0.25414 0.46371 0.019356 60 97 52 
0.25414 0.46371 0.039995 60 97 52 
0.27393 0.46487 0.039979 44 77 106 
0.27393 0.46492 0.0089412 44 77 106 
0.24063 0.46462 0.0089412 44 77 106 
0.24063 0.46457 0.039979 44 77 106 
0.17588 0.47849 0.0034394 124 83 45 
0.10488 0.47849 0.0034542 124 83 45 
0.10488 0.43445 0.0033769 124 83 45 
0.17588 0.43445 0.0033621 124 83 45 
0.1728 0.47052 0.038983 44 77 106 
0.1728 0.47058 0.0054273 44 77 106 
0.15503 0.47042 0.0054273 44 77 106 
0.15503 0.47036 0.038983 44 77 106 
0.16648 0.47022 0.069797 44 77 106 
0.16648 0.47024 0.06114 44 77 106 
0.1561 0.47014 0.06114 44 77 106 
0.1561 0.47013 0.069797 44 77 106 
0.20807 0.51576 0.12855 124 83 45 
0.18137 0.51576 0.12856 124 83 45 
0.18137 0.49528 0.12852 124 83 45 
0.20807 0.49528 0.12852 124 83 45 
0.192 0.5076 0.065811 124 83 45 
0.13172 0.5076 0.065823 124 83 45 
0.13172 0.49942 0.065809 124 83 45 
0.192 0.49942 0.065796 124 83 45 
0.12953 0.4306 0.038443 44 77 106 
0.12953 0.43066 0.0031624 44 77 106 
0.098973 0.43039 0.0031624 44 77 106 
0.098974 0.43033 0.038443 44 77 106 
0.099079 0.46719 0.079341 60 97 52 
0.099076 0.46719 0.061694 60 97 52 
0.099811 0.38564 0.061694 60 97 52 
0.099814 0.38564 0.079341 60 97 52 
0.099762 0.48249 0.039995 60 97 52 
0.099757 0.48249 0.0052862 60 97 52 
0.10023 0.43004 0.0052862 60 97 52 
0.10023 0.43004 0.039995 60 97 52 
0.12342 0.51393 0.17159 124 83 45 
0.086968 0.51393 0.17159 124 83 45 
0.086968 0.49436 0.17156 124 83 45 
0.12342 0.49436 0.17155 124 83 45 
0.080944 0.50662 0.093079 44 77 106 
0.080944 0.50668 0.059858 44 77 106 
0.11673 0.507 0.059858 44 77 106 
0.11673 0.50694 0.093079 44 77 106 
4 0 1 2 3
4 4 5 6 7
4 8 9 10 11
4 12 13 14 15
4 16 17 18 19
4 20 21 22 23
4 24 25 26 27
4 28 29 30 31
4 32 33 34 35
4 36 37 38 39
4 40 41 42 43
4 44 45 46 47
4 48 49 50 51
4 52 53 54 55
4 56 57 58 59
4 60 61 62 63
4 64 65 66 67
4 68 69 70 71
4 72 73 74 75
4 76 77 78 79
4 80 81 82 83
4 84 85 86 87
4 88 89 90 91
4 92 93 94 95
4 96 97 98 99
4 100 101 102 103
4 104 105 106 107
4 108 109 110 111
4 112 113 114 115
4 116 117 118 119
4 120 121 122 123
4 124 125 126 127
4 128 129 130 131
4 132 133 134 135
4 136 137 138 139
4 140 141 142 143
4 144 145 146 147
4 148 149 150 151
4 152 153 154 155
4 156 157 158 159
4 160 161 162 163
4 164 165 166 167
4 168 169 170 171
4 172 173 174 175
4 176 177 178 179
4 180 181 182 183
4 184 185 186 187
4 188 189 190 191
4 192 193 194 195
4 196 197 198 199
4 200 201 202 203
4 204 205 206 207
4 208 209 210 211
4 212 213 214 215
4 216 217 218 219
4 220 221 222 223
4 224 225 226 227
4 228 229 230 231
4 232 233 234 235
4 236 237 238 239
4 240 241 242 243
4 244 245 246 247
4 248 249 250 251
4 252 253 254 255
4 256 257 258 259
4 260 261 262 263
4 264 265 266 267
4 268 269 270 271
4 272 273 274 275
4 276 277 278 279
4 280 281 282 283
4 284 285 286 287
4 288 289 290 291
4 292 293 294 295
4 296 297 298 299
4 300 301 302 303
4 304 305 306 307
4 308 309 310 311
4 312 313 314 315
4 316 317 318 319
4 320 321 322 323
4 324 325 326 327
4 328 329 330 331
4 332 333 334 335
4 336 337 338 339
4 340 341 342 343
4 344 345 346 347
4 348 349 350 351
4 352 353 354 355
4 356 357 358 359
4 360 361 362 363
4 364 365 366 367
4 368 369 370 371
4 372 373 374 375
4 376 377 378 379
4 380 381 382 383
4 384 385 386 387
4 388 389 390 391
4 392 393 394 395
4 396 397 398 399
4 400 401 402 403
4 404 405 406 407
4 408 409 410 411
4 412 413 414 415
4 416 417 418 419
4 420 421 422 423
4 424 425 426 427
4 428 429 430 431
4 432 433 434 435
4 436 437 438 439
4 440 441 442 443
4 444 445 446 447
4 448 449 450 451
4 452 453 454 455
4 456 457 458 459
4 460 461 462 463
4 464 465 466 467
4 468 469 470 471
4 472 473 474 475
4 476 477 478 479
4 480 481 482 483
4 484 485 486 487
4 488 489 490 491
4 492 493 494 495
4 496 497 498 499
4 500 501 502 503
4 504 505 506 507
4 508 509 510 511
4 512 513 514 515
4 516 517 518 519
4 520 521 522 523
4 524 525 526 527
4 528 529 530 531
4 532 533 534 535
4 536 537 538 539
4 540 541 542 543
4 544 545 546 547
4 548 549 550 551
4 552 553 554 555
4 556 557 558 559
4 560 561 562 563
4 564 565 566 567
4 568 569 570 571
4 572 573 574 575
4 576 577 578 579
4 580 581 582 583
4 584 585 586 587
4 588 589 590 591
4 592 593 594 595
4 596 597 598 599
4 600 601 602 603
4 604 605 606 607
4 608 609 610 611
4 612 613 614 615
4 616 617 618 619
4 620 621 622 623
4 624 625 626 627
4 628 629 630 631
4 632 633 634 635
4 636 637 638 639
4 640 641 642 643
4 644 645 646 647
4 648 649 650 651
4 652 653 654 655
4 656 657 658 659
4 660 661 662 663
4 664 665 666 667
4 668 669 670 671
4 672 673 674 675
4 676 677 678 679
4 680 681 682 683
4 684 685 686 687
4 688 689 690 691
4 692 693 694 695
4 696 697 698 699
4 700 701 702 703
4 704 705 706 707
4 708 709 710 711
4 712 713 714 715
4 716 717 718 719
4 720 721 722 723
4 724 725 726 727
4 728 729 730 731
4 732 733 734 735
4 736 737 738 739
4 740 741 742 743
4 744 745 746 747
4 748 749 750 751
4 752 753 754 755
4 756 757 758 759
4 760 761 762 763
4 764 765 766 767
4 768 769 770 771
4 772 773 774 775
4 776 777 778 779
4 780 781 782 783
4 784 785 786 787
4 788 789 790 791
4 792 793 794 795
4 796 797 798 799
4 800 801 802 803
4 804 805 806 807
4 808 809 810 811
4 812 813 814 815
4 816 817 818 819
4 820 821 822 823
4 824 825 826 827
4 828 829 830 831
4 832 833 834 835
4 836 837 838 839
4 840 841 842 843
4 844 845 846 847
4 848 849 850 851
4 852 853 854 855
4 856 857 858 859
4 860 861 862 863
4 864 865 866 867
4 868 869 870 871
4 872 873 874 875
4 876 877 878 879
4 880 881 882 883
4 884 885 886 887
4 888 889 890 891
4 892 893 894 895
4 896 897 898 899
4 900 901 902 903
4 904 905 906 907
4 908 909 910 911
4 912 913 914 915
4 916 917 918 919
4 920 921 922 923
4 924 925 926 927
4 928 929 930 931
4 932 933 934 935
4 936 937 938 939
4 940 941 942 943
4 944 945 946 947
4 948 949 950 951
4 952 953 954 955
4 956 957 958 959
4 960 961 962 963
4 964 965 966 967
4 968 969 970 971
4 972 973 974 975
4 976 977 978 979
4 980 981 982 983
4 984 985 986 987
4 988 989 990 991
4 992 993 994 995
4 996 997 998 999
4 1000 1001 1002 1003
4 1004 1005 1006 1007
4 1008 1009 1010 1011
4 1012 1013 1014 1015
4 1016 1017 1018 1019
4 1020 1021 1022 1023
4 1024 1025 1026 1027
4 1028 1029 1030 1031
4 1032 1033 1034 1035
4 1036 1037 1038 1039
4 1040 1041 1042 1043
4 1044 1045 1046 1047
4 1048 1049 1050 1051
4 1052 1053 1054 1055
4 1056 1057 1058 1059
4 1060 1061 1062 1063
4 1064 1065 1066 1067
4 1068 1069 1070 1071
4 1072 1073 1074 1075
4 1076 1077 1078 1079
4 1080 1081 1082 1083
4 1084 1085 1086 1087
4 1088 1089 1090 1091
4 1092 1093 1094 1095
4 1096 1097 1098 1099
4 1100 1101 1102 1103
4 1104 1105 1106 1107
4 1108 1109 1110 1111
4 1112 1113 1114 1115
4 1116 1117 1118 1119
4 1120 1121 1122 1123
4 1124 1125 1126 1127
4 1128 1129 1130 1131
4 1132 1133 1134 1135
4 1136 1137 1138 1139
4 1140 1141 1142 1143
4 1144 1145 1146 1147
4 1148 1149 1150 1151
4 1152 1153 1154 1155
4 1156 1157 1158 1159
4 1160 1161 1162 1163
4 1164 1165 1166 1167
4 1168 1169 1170 1171
4 1172 1173 1174 1175
4 1176 1177 1178 1179
4 1180 1181 1182 1183
4 1184 1185 1186 1187
4 1188 1189 1190 1191
4 1192 1193 1194 1195
4 1196 1197 1198 1199
