<?xml version="1.0" encoding="UTF-8" standalone="no"?>
<!-- Created with Inkscape (http://www.inkscape.org/) -->

<svg
   xmlns:dc="http://purl.org/dc/elements/1.1/"
   xmlns:cc="http://creativecommons.org/ns#"
   xmlns:rdf="http://www.w3.org/1999/02/22-rdf-syntax-ns#"
   xmlns:svg="http://www.w3.org/2000/svg"
   xmlns="http://www.w3.org/2000/svg"
   xmlns:sodipodi="http://sodipodi.sourceforge.net/DTD/sodipodi-0.dtd"
   xmlns:inkscape="http://www.inkscape.org/namespaces/inkscape"
   width="343.5"
   height="343.5"
   id="svg3035"
   version="1.1"
   inkscape:version="0.48.4 r9939"
   sodipodi:docname="eg15.svg"
   inkscape:export-filename="/home/bontius/workspace/SmartGeometry/ransacTest/build/eg15.png"
   inkscape:export-xdpi="54.73"
   inkscape:export-ydpi="54.73">
  <defs
     id="defs3037" />
  <sodipodi:namedview
     id="base"
     pagecolor="#ffffff"
     bordercolor="#666666"
     borderopacity="1.0"
     inkscape:pageopacity="0.0"
     inkscape:pageshadow="2"
     inkscape:zoom="2.7808594"
     inkscape:cx="148.86394"
     inkscape:cy="151.0345"
     inkscape:document-units="px"
     inkscape:current-layer="g3092"
     showgrid="false"
     inkscape:window-width="1920"
     inkscape:window-height="1176"
     inkscape:window-x="1920"
     inkscape:window-y="24"
     inkscape:window-maximized="1"
     fit-margin-top="10"
     fit-margin-right="10"
     fit-margin-bottom="10"
     fit-margin-left="10" />
  <metadata
     id="metadata3040">
    <rdf:RDF>
      <cc:Work
         rdf:about="">
        <dc:format>image/svg+xml</dc:format>
        <dc:type
           rdf:resource="http://purl.org/dc/dcmitype/StillImage" />
        <dc:title />
      </cc:Work>
    </rdf:RDF>
  </metadata>
  <g
     inkscape:label="Layer 1"
     inkscape:groupmode="layer"
     id="layer1"
     style="display:none"
     sodipodi:insensitive="true"
     transform="translate(-84.15625,56.449601)">
    <g
       style="font-size:144px;font-style:normal;font-variant:normal;font-weight:normal;font-stretch:normal;line-height:125%;letter-spacing:0px;word-spacing:0px;fill:#000000;fill-opacity:1;stroke:none;font-family:Courier;-inkscape-font-specification:Courier"
       id="flowRoot3043">
      <path
         d="m 95.083,192.328 0,6.768 12.24,0 0,67.536 -12.24,0 0,6.768 69.696,0 0,-26.496 -6.624,0 -0.72,19.728 -42.912,0 0,-32.688 23.328,0 0,10.368 6.624,0 0,-27.648 -6.624,0 0,10.512 -23.328,0 0,-28.08 41.472,0 1.44,19.728 6.624,0 -0.576,-26.496 -68.4,0"
         style="font-family:Courier;-inkscape-font-specification:Courier"
         id="path3052"
         inkscape:connector-curvature="0" />
      <path
         d="m 241.47475,190.744 c -0.72,6.33599 -0.72,7.056 -2.16,7.056 -0.72,0 -1.296,-0.288 -2.88,-1.728 -5.47199,-4.464 -11.08801,-6.192 -18,-6.192 -24.62398,0 -38.304,21.16802 -38.304,43.344 0,19.00798 10.36803,42.624 39.888,42.624 8.49599,0 18.28801,-2.304 29.52,-7.056 l 0,-24.192 6.912,0 0,-6.768 -35.568,0 0,6.768 21.312,0 0,19.44 c -11.23199,3.888 -17.28,4.608 -22.032,4.608 -21.88798,0 -32.256,-15.84002 -32.256,-35.568 0,-21.31198 13.39202,-36 30.24,-36 20.30398,0 23.04,15.84001 24.048,22.32 l 6.192,-1.152 c -0.432,-3.456 -0.864,-8.352 -0.864,-13.104 0,-3.744 0.432,-10.08 0.576,-11.664 0,-0.432 0.144,-2.16 0.288,-2.736 l -6.912,0"
         style="font-family:Courier;-inkscape-font-specification:Courier"
         id="path3054"
         inkscape:connector-curvature="0" />
      <path
         d="m 274.5385,196.648 2.88,6.336 23.04,-10.656 0,74.304 -25.056,0 0,6.768 56.88,0 0,-6.768 -24.624,0 0,-82.656 -4.608,0 -28.512,12.672"
         style="font-family:Courier;-inkscape-font-specification:Courier"
         id="path3056"
         inkscape:connector-curvature="0" />
      <path
         d="m 364.05025,186.136 0,43.632 3.6,2.016 c 5.90399,-4.464 11.80801,-6.912 19.152,-6.912 13.82399,0 21.744,10.08001 21.744,21.744 0,12.09599 -7.34402,21.6 -23.04,21.6 -10.07999,0 -19.44,-3.744 -23.904,-5.76 l -2.592,6.48 c 9.79199,3.888 16.84801,6.48 27.072,6.48 23.18398,0 30.24,-17.56801 30.24,-29.088 0,-15.55198 -10.94402,-28.224 -28.368,-28.224 -7.63199,0 -12.96,2.16 -17.424,4.032 l 0,-29.088 41.616,0 0,-6.912 -48.096,0"
         style="font-family:Courier;-inkscape-font-specification:Courier"
         id="path3058"
         inkscape:connector-curvature="0" />
    </g>
    <g
       transform="translate(-6.4169105,127.45018)"
       style="font-size:144px;font-style:normal;font-variant:normal;font-weight:normal;font-stretch:normal;line-height:125%;letter-spacing:0px;word-spacing:0px;fill:#000000;fill-opacity:1;stroke:none;font-family:Courier;-inkscape-font-specification:Courier"
       id="flowRoot3043-4">
      <path
         inkscape:connector-curvature="0"
         d="m 95.083,192.328 0,6.768 12.24,0 0,67.536 -12.24,0 0,6.768 69.696,0 0,-26.496 -6.624,0 -0.72,19.728 -42.912,0 0,-32.688 23.328,0 0,10.368 6.624,0 0,-27.648 -6.624,0 0,10.512 -23.328,0 0,-28.08 41.472,0 1.44,19.728 6.624,0 -0.576,-26.496 -68.4,0"
         style="font-family:Courier;-inkscape-font-specification:Courier"
         id="path3052-2" />
      <path
         inkscape:connector-curvature="0"
         d="m 241.47475,190.744 c -0.72,6.33599 -0.72,7.056 -2.16,7.056 -0.72,0 -1.296,-0.288 -2.88,-1.728 -5.47199,-4.464 -11.08801,-6.192 -18,-6.192 -24.62398,0 -38.304,21.16802 -38.304,43.344 0,19.00798 10.36803,42.624 39.888,42.624 8.49599,0 18.28801,-2.304 29.52,-7.056 l 0,-24.192 6.912,0 0,-6.768 -35.568,0 0,6.768 21.312,0 0,19.44 c -11.23199,3.888 -17.28,4.608 -22.032,4.608 -21.88798,0 -32.256,-15.84002 -32.256,-35.568 0,-21.31198 13.39202,-36 30.24,-36 20.30398,0 23.04,15.84001 24.048,22.32 l 6.192,-1.152 c -0.432,-3.456 -0.864,-8.352 -0.864,-13.104 0,-3.744 0.432,-10.08 0.576,-11.664 0,-0.432 0.144,-2.16 0.288,-2.736 l -6.912,0"
         style="font-family:Courier;-inkscape-font-specification:Courier"
         id="path3054-3" />
      <path
         inkscape:connector-curvature="0"
         d="m 274.5385,196.648 2.88,6.336 23.04,-10.656 0,74.304 -25.056,0 0,6.768 56.88,0 0,-6.768 -24.624,0 0,-82.656 -4.608,0 -28.512,12.672"
         style="font-family:Courier;-inkscape-font-specification:Courier"
         id="path3056-2" />
      <path
         inkscape:connector-curvature="0"
         d="m 364.05025,186.136 0,43.632 3.6,2.016 c 5.90399,-4.464 11.80801,-6.912 19.152,-6.912 13.82399,0 21.744,10.08001 21.744,21.744 0,12.09599 -7.34402,21.6 -23.04,21.6 -10.07999,0 -19.44,-3.744 -23.904,-5.76 l -2.592,6.48 c 9.79199,3.888 16.84801,6.48 27.072,6.48 23.18398,0 30.24,-17.56801 30.24,-29.088 0,-15.55198 -10.94402,-28.224 -28.368,-28.224 -7.63199,0 -12.96,2.16 -17.424,4.032 l 0,-29.088 41.616,0 0,-6.912 -48.096,0"
         style="font-family:Courier;-inkscape-font-specification:Courier"
         id="path3058-0" />
    </g>
    <rect
       style="fill:none;stroke:#000000;stroke-opacity:1"
       id="rect3090"
       width="68.571426"
       height="6.4285712"
       x="88.214287"
       y="319.50504" />
  </g>
  <g
     id="g3092"
     inkscape:groupmode="layer"
     inkscape:label="Layer 1 copy"
     style="display:inline"
     transform="translate(-84.15625,56.449601)">
    <path
       style="fill:none;stroke:#ff0000;stroke-opacity:1"
       d="m 94.65625,78.82502 0,6.4375 12.6875,0 c 0,24.45512 0,46.09989 0,67.1875 l -12.53125,0 0,6.8125 69.84375,0 0,-0.125 0.125,0 0,-26.53125 -7.5625,0 0,19.84375 -42.4375,0 0,-32.96875 22.96875,0 0,10.75 6.96875,0 0,-27.53125 -6.96875,0 0,10.34375 -22.96875,0 0,-27.78125 40.9375,0 0,20.34375 7.5,0 0,-26.78125 z"
       id="rect3114"
       inkscape:connector-curvature="0"
       sodipodi:nodetypes="ccccccccccccccccccccccccccc" />
    <path
       style="fill:none;stroke:#ff0000;stroke-opacity:1"
       d="m 241.28125,93.28789 0.0625,12.40625 7.125,0 0,-28.75 -7.125,0 0.125,8.8125 -21.20313,-13.884835 -31.42187,12.541085 2.0625,6.34375 28.1434,-11.639436 z m -59.25,-1.5625 0,49.8125 8.1875,0 -2.65625,5.3125 26.6875,14.53125 2.9375,-5.875 -25.71875,-13.96875 0,-49.8125 z m 38.40625,32 0,7.3125 36.34375,0 0,-7.3125 z m 21.625,7.6875 0,19.96875 -0.125,-0.65625 -24.71875,4.46875 1.1875,6.4375 24.75,-4.46875 -0.34375,-1.8125 6.90625,0 0,-23.9375 z"
       id="rect3906"
       inkscape:connector-curvature="0"
       sodipodi:nodetypes="ccccccccccccccccccccccccccccccccccc" />
    <path
       style="fill:none;stroke:#ff0000;stroke-width:1.13676584;stroke-opacity:1"
       d="m 307.78125,75.76252 -3.53125,-7.75 -30.09375,13.75 3.53125,7.75 22.59375,-10.3125 0,73 -25.40625,0 0,7.5625 57.59375,0 0,-7.5625 -24.375,0 0,-76.54878"
       id="rect3924"
       inkscape:connector-curvature="0"
       sodipodi:nodetypes="cccccccccccc" />
    <path
       style="fill:none;stroke:#ff0000;stroke-opacity:1"
       d="m 363.96875,79.32502 0.0625,38.21875 6.8125,0 0,-38.21875 41.1875,0 0,-7.1875 -41.1875,0 -6.875,0 z"
       id="rect3931"
       inkscape:connector-curvature="0"
       sodipodi:nodetypes="ccccccccc" />
    <path
       style="fill:none;stroke:#ff0000;stroke-width:1;stroke-opacity:1"
       d="m 393.25,102.07502 -22.65625,5.46875 1.625,6.6875 22.625,-5.46875 z m 6.40625,3.375 -5.09375,5.625 16.03125,14.5 5.09375,-5.625 z m 9.59375,20.8125 -5.1875,22.375 -20.78125,6.15625 0,-0.0312 -23.46875,-7.03125 -2.28125,7.5625 25.17632,7.36266 c 0.0363,0.0422 23.51118,-7.01896 23.51118,-7.01896 l -1.96875,-6.71875 7.65625,1.78125 5.25,-22.625 z"
       id="rect3939"
       inkscape:connector-curvature="0"
       sodipodi:nodetypes="cccccccccccccccccccccc" />
  </g>
</svg>
