<?xml version="1.0" encoding="UTF-8" standalone="no"?>
<!-- Created with Inkscape (http://www.inkscape.org/) -->

<svg
   xmlns:dc="http://purl.org/dc/elements/1.1/"
   xmlns:cc="http://creativecommons.org/ns#"
   xmlns:rdf="http://www.w3.org/1999/02/22-rdf-syntax-ns#"
   xmlns:svg="http://www.w3.org/2000/svg"
   xmlns="http://www.w3.org/2000/svg"
   xmlns:sodipodi="http://sodipodi.sourceforge.net/DTD/sodipodi-0.dtd"
   xmlns:inkscape="http://www.inkscape.org/namespaces/inkscape"
   width="120"
   height="120"
   id="svg3010"
   version="1.1"
   inkscape:version="0.48.4 r9939"
   sodipodi:docname="g.svg"
   inkscape:export-filename="/home/bontius/workspace/SmartGeometry/ransacTest/build/g.png"
   inkscape:export-xdpi="480"
   inkscape:export-ydpi="480">
  <defs
     id="defs3012" />
  <sodipodi:namedview
     id="base"
     pagecolor="#ffffff"
     bordercolor="#666666"
     borderopacity="1.0"
     inkscape:pageopacity="0.0"
     inkscape:pageshadow="2"
     inkscape:zoom="10.817187"
     inkscape:cx="72.47486"
     inkscape:cy="55.087503"
     inkscape:document-units="px"
     inkscape:current-layer="layer1"
     showgrid="false"
     fit-margin-top="10"
     fit-margin-right="10"
     fit-margin-bottom="10"
     fit-margin-left="10"
     inkscape:window-width="1920"
     inkscape:window-height="1148"
     inkscape:window-x="1920"
     inkscape:window-y="24"
     inkscape:window-maximized="0" />
  <metadata
     id="metadata3015">
    <rdf:RDF>
      <cc:Work
         rdf:about="">
        <dc:format>image/svg+xml</dc:format>
        <dc:type
           rdf:resource="http://purl.org/dc/dcmitype/StillImage" />
        <dc:title></dc:title>
      </cc:Work>
    </rdf:RDF>
  </metadata>
  <g
     inkscape:label="Layer 1"
     inkscape:groupmode="layer"
     id="layer1"
     transform="translate(-318.9375,-413.90625)">
    <path
       style="fill:none;stroke:#ff0000;stroke-opacity:1;display:inline"
       d="m 400.8125,450.44242 0.0625,12.40625 7.125,0 0,-28.75 -7.125,0 0.125,8.8125 -21.20313,-13.88483 -31.42187,12.54108 2.0625,6.34375 28.1434,-11.63943 z m -59.25,-1.5625 0,49.8125 8.1875,0 -2.65625,5.3125 26.6875,14.53124 2.9375,-5.875 L 351,498.69242 l 0,-49.8125 z m 38.40625,32 0,7.3125 36.34375,0 0,-7.3125 z m 21.625,7.6875 0,19.96874 -0.125,-0.65625 -24.71875,4.46875 1.1875,6.4375 24.75,-4.46875 -0.34375,-1.8125 6.90625,0 0,-23.9375 z"
       id="rect3906"
       inkscape:connector-curvature="0"
       sodipodi:nodetypes="ccccccccccccccccccccccccccccccccccc" />
  </g>
</svg>
