ply
format ascii 1.0
comment PCL generated
element vertex 964
property float x
property float y
property float z
property uchar red
property uchar green
property uchar blue
element face 241
property list uchar int vertex_indices
end_header
0.84013 0.14788 0.64179 0 0 0 
0.83885 0.1479 0.23823 0 0 0 
0.84088 0.28455 0.23823 0 0 0 
0.84216 0.28453 0.64179 0 0 0 
0.56 0.59779 0.0060507 0 0 0 
0.39039 0.59992 0.0061114 0 0 0 
0.39039 0.59289 0.25167 0 0 0 
0.56 0.59076 0.25161 0 0 0 
0.50877 0.2516 0.28008 0 0 0 
0.44042 0.24917 0.28018 0 0 0 
0.44042 0.25113 0.32904 0 0 0 
0.50877 0.25355 0.32894 0 0 0 
0.92134 0.51431 0.20584 0 0 0 
0.92141 0.5168 0.0073681 0 0 0 
0.55182 0.52686 0.0073681 0 0 0 
0.55176 0.52437 0.20584 0 0 0 
0.39993 0.60159 0.20849 0 0 0 
0.39849 0.60158 0.013953 0 0 0 
0.39909 0.52282 0.013953 0 0 0 
0.40054 0.52283 0.20849 0 0 0 
0.86159 0.31455 0.32456 0 0 0 
0.1275 0.3215 0.33608 0 0 0 
0.1275 0.53324 0.20829 0 0 0 
0.86159 0.52629 0.19677 0 0 0 
0.84481 0.52065 0.22253 0 0 0 
0.85358 0.28893 0.23782 0 0 0 
0.9733 0.28893 0.16918 0 0 0 
0.96453 0.52065 0.15389 0 0 0 
0.54421 0.1478 0.63512 0 0 0 
0.54425 0.1453 0.027408 0 0 0 
0.98201 0.15324 0.027408 0 0 0 
0.98197 0.15574 0.63512 0 0 0 
0.39856 0.52263 0.21587 0 0 0 
0.39857 0.523 0.018502 0 0 0 
0.029212 0.52654 0.018502 0 0 0 
0.029209 0.52617 0.21587 0 0 0 
0.97193 0.30656 0.63715 0 0 0 
0.97228 0.30656 0.02179 0 0 0 
0.96864 0.15379 0.02179 0 0 0 
0.96829 0.1538 0.63715 0 0 0 
0.39841 0.072803 0.27975 0 0 0 
0.39856 0.06757 0.028239 0 0 0 
0.54599 0.07181 0.028239 0 0 0 
0.54584 0.077042 0.27975 0 0 0 
0.91557 0.27964 0.54118 0 0 0 
0.92851 0.28435 0.48724 0 0 0 
0.93833 0.25744 0.48724 0 0 0 
0.92539 0.25272 0.54118 0 0 0 
0.9714 0.28821 0.62756 0 0 0 
0.97148 0.28324 0.20577 0 0 0 
0.83932 0.28099 0.20577 0 0 0 
0.83924 0.28597 0.62756 0 0 0 
0.96182 0.15674 0.57681 0 0 0 
0.84951 0.15525 0.57713 0 0 0 
0.84951 0.21444 0.8514 0 0 0 
0.96182 0.21592 0.85108 0 0 0 
0.84244 0.13422 0.22162 0 0 0 
0.12822 0.13264 0.22477 0 0 0 
0.12822 0.33181 0.32466 0 0 0 
0.84244 0.33339 0.32151 0 0 0 
0.015895 0.52874 0.13752 0 0 0 
0.015644 0.15827 0.13797 0 0 0 
0.1327 0.15827 0.20346 0 0 0 
0.13295 0.52874 0.20301 0 0 0 
0.42232 0.040863 0.029884 0 0 0 
0.32762 0.04066 0.033976 0 0 0 
0.32762 0.13247 0.038531 0 0 0 
0.42232 0.13267 0.034439 0 0 0 
0.96862 0.22125 0.84576 0 0 0 
0.84031 0.22267 0.84609 0 0 0 
0.84031 0.29033 0.55532 0 0 0 
0.96862 0.28892 0.55499 0 0 0 
0.97216 0.27681 0.43126 0 0 0 
0.9703 0.27655 0.034677 0 0 0 
0.93808 0.50715 0.034677 0 0 0 
0.93994 0.50741 0.43126 0 0 0 
0.85 0.47389 0.31374 0 0 0 
0.85051 0.47387 0.22155 0 0 0 
0.84235 0.31558 0.22155 0 0 0 
0.84184 0.31561 0.31374 0 0 0 
0.45602 0.39369 0.41605 0 0 0 
0.45595 0.29502 0.41614 0 0 0 
0.40096 0.29502 0.37012 0 0 0 
0.40103 0.39369 0.37003 0 0 0 
0.88372 0.23971 0.86607 0 0 0 
0.83865 0.19462 0.58383 0 0 0 
0.87751 0.15577 0.58383 0 0 0 
0.92259 0.20086 0.86607 0 0 0 
0.13472 0.52127 0.34546 0 0 0 
0.13278 0.5213 0.18939 0 0 0 
0.12696 0.15071 0.18939 0 0 0 
0.1289 0.15068 0.34546 0 0 0 
0.39449 0.14261 0.037336 0 0 0 
0.023061 0.13997 0.037307 0 0 0 
0.023061 0.13782 0.23164 0 0 0 
0.39449 0.14046 0.23167 0 0 0 
0.43643 0.40899 0.37589 0 0 0 
0.43588 0.41334 0.26944 0 0 0 
0.50048 0.42155 0.26944 0 0 0 
0.50104 0.41719 0.37589 0 0 0 
0.017811 0.13782 0.21674 0 0 0 
0.03083 0.13979 0.062313 0 0 0 
0.019385 0.21547 0.062313 0 0 0 
0.0063669 0.2135 0.21674 0 0 0 
0.14135 0.45602 0.33818 0 0 0 
0.14062 0.45696 0.19715 0 0 0 
0.11266 0.43537 0.19715 0 0 0 
0.11339 0.43443 0.33818 0 0 0 
0.8893 0.20347 0.86639 0 0 0 
0.8436 0.24676 0.58533 0 0 0 
0.87573 0.28068 0.58533 0 0 0 
0.92143 0.2374 0.86639 0 0 0 
0.54711 0.52223 0.2111 0 0 0 
0.55361 0.52195 0.0084146 0 0 0 
0.5568 0.59741 0.0084146 0 0 0 
0.55029 0.59768 0.2111 0 0 0 
0.026451 0.54456 0.14635 0 0 0 
0.022365 0.24189 0.14618 0 0 0 
0.026746 0.24189 0.041125 0 0 0 
0.030831 0.54456 0.041295 0 0 0 
0.088933 0.13643 0.23009 0 0 0 
0.088957 0.13541 0.038602 0 0 0 
0.39725 0.14265 0.038602 0 0 0 
0.39723 0.14367 0.23009 0 0 0 
0.55283 0.22047 0.22283 0 0 0 
0.54983 0.070656 0.218 0 0 0 
0.47138 0.070656 0.26679 0 0 0 
0.47438 0.22047 0.27162 0 0 0 
0.3936 0.34098 0.37414 0 0 0 
0.39386 0.34088 0.2855 0 0 0 
0.41353 0.39001 0.2855 0 0 0 
0.41327 0.39012 0.37414 0 0 0 
0.042305 0.53932 0.072473 0 0 0 
0.044673 0.46875 0.070596 0 0 0 
0.023589 0.46875 0.043994 0 0 0 
0.021221 0.53932 0.045871 0 0 0 
0.39636 0.065454 0.15852 0 0 0 
0.39627 0.068798 0.033082 0 0 0 
0.54935 0.072907 0.033082 0 0 0 
0.54944 0.069564 0.15852 0 0 0 
0.54586 0.0721 0.22317 0 0 0 
0.54791 0.072145 0.042322 0 0 0 
0.54628 0.14704 0.042322 0 0 0 
0.54422 0.14699 0.22317 0 0 0 
0.84023 0.2777 0.57302 0 0 0 
0.8369 0.1536 0.57378 0 0 0 
0.89676 0.1536 0.83774 0 0 0 
0.90009 0.2777 0.83698 0 0 0 
0.44768 0.38077 0.33747 0 0 0 
0.44768 0.38077 0.32284 0 0 0 
0.46769 0.41525 0.32284 0 0 0 
0.46769 0.41525 0.33747 0 0 0 
0.40033 0.06962 0.22646 0 0 0 
0.3981 0.069512 0.033197 0 0 0 
0.39455 0.1432 0.033197 0 0 0 
0.39678 0.1433 0.22646 0 0 0 
0.91321 0.51714 0.2092 0 0 0 
0.91321 0.51712 0.12773 0 0 0 
0.55757 0.5225 0.12773 0 0 0 
0.55757 0.52252 0.2092 0 0 0 
0.39644 0.33085 0.39038 0 0 0 
0.40731 0.25675 0.36521 0 0 0 
0.47549 0.25675 0.39465 0 0 0 
0.46462 0.33085 0.41982 0 0 0 
0.79319 0.5201 0.13214 0 0 0 
0.73978 0.52142 0.13405 0 0 0 
0.73978 0.50268 0.14697 0 0 0 
0.79319 0.50136 0.14506 0 0 0 
0.030001 0.50875 0.14531 0 0 0 
0.031142 0.5087 0.059524 0 0 0 
0.032882 0.54586 0.059524 0 0 0 
0.031741 0.54591 0.14531 0 0 0 
0.9236 0.22753 0.82642 0 0 0 
0.96104 0.19146 0.59743 0 0 0 
0.93067 0.15994 0.59743 0 0 0 
0.89323 0.19602 0.82642 0 0 0 
0.47805 0.59915 0.2455 0 0 0 
0.47529 0.44638 0.25199 0 0 0 
0.39015 0.44638 0.21574 0 0 0 
0.39291 0.59915 0.20924 0 0 0 
0.75633 0.10267 0.036474 0 0 0 
0.57437 0.084872 0.065699 0 0 0 
0.57437 0.025128 0.029312 0 0 0 
0.75633 0.042927 8.6747e-05 0 0 0 
0.88899 0.24722 0.84602 0 0 0 
0.93341 0.28246 0.59339 0 0 0 
0.96499 0.24267 0.59339 0 0 0 
0.92057 0.20742 0.84602 0 0 0 
0.13125 0.40716 0.19876 0 0 0 
0.1328 0.14605 0.19877 0 0 0 
0.13184 0.14605 0.32765 0 0 0 
0.13029 0.40716 0.32764 0 0 0 
0.65388 0.53025 0.010135 0 0 0 
0.55662 0.53453 0.011325 0 0 0 
0.55662 0.51794 0.070869 0 0 0 
0.65388 0.51366 0.069678 0 0 0 
0.93026 0.17501 0.10707 0 0 0 
0.88652 0.17475 0.1072 0 0 0 
0.88652 0.13482 0.029436 0 0 0 
0.93026 0.13508 0.0293 0 0 0 
0.84021 0.19839 0.54317 0 0 0 
0.8417 0.19416 0.48289 0 0 0 
0.88358 0.20884 0.48289 0 0 0 
0.88209 0.21308 0.54317 0 0 0 
0.96794 0.15556 0.63427 0 0 0 
0.96662 0.1556 0.3944 0 0 0 
0.9702 0.28672 0.3944 0 0 0 
0.97152 0.28669 0.63427 0 0 0 
0.97236 0.28407 0.56525 0 0 0 
0.97284 0.16002 0.56536 0 0 0 
0.90936 0.16002 0.84495 0 0 0 
0.90887 0.28407 0.84484 0 0 0 
0.48153 0.38591 0.33739 0 0 0 
0.48467 0.38682 0.29962 0 0 0 
0.4764 0.41515 0.29962 0 0 0 
0.47327 0.41424 0.33739 0 0 0 
0.39319 0.35833 0.37505 0 0 0 
0.39538 0.35871 0.31112 0 0 0 
0.40807 0.28521 0.31112 0 0 0 
0.40588 0.28483 0.37505 0 0 0 
0.92614 0.1728 0.45127 0 0 0 
0.92649 0.17279 0.38934 0 0 0 
0.92567 0.15324 0.38934 0 0 0 
0.92532 0.15326 0.45127 0 0 0 
0.54452 0.36492 0.37617 0 0 0 
0.54118 0.30326 0.3764 0 0 0 
0.53706 0.30326 0.31661 0 0 0 
0.5404 0.36492 0.31638 0 0 0 
0.6171 0.14797 0.16605 0 0 0 
0.61284 0.14355 0.119 0 0 0 
0.59823 0.15762 0.119 0 0 0 
0.60249 0.16205 0.16605 0 0 0 
0.92783 0.25475 0.44017 0 0 0 
0.88616 0.25791 0.43626 0 0 0 
0.88616 0.2851 0.45821 0 0 0 
0.92783 0.28195 0.46212 0 0 0 
0.92899 0.51249 0.20411 0 0 0 
0.92873 0.50934 0.0062477 0 0 0 
0.78075 0.52193 0.0062477 0 0 0 
0.78102 0.52508 0.20411 0 0 0 
0.78706 0.14946 0.13327 0 0 0 
0.70228 0.14293 0.13493 0 0 0 
0.70228 0.15445 0.18037 0 0 0 
0.78706 0.16098 0.17872 0 0 0 
0.31973 0.15338 0.16221 0 0 0 
0.32105 0.15595 0.11437 0 0 0 
0.35071 0.14066 0.11437 0 0 0 
0.34939 0.13809 0.16221 0 0 0 
0.53415 0.29449 0.376 0 0 0 
0.53484 0.29426 0.31841 0 0 0 
0.54723 0.33058 0.31841 0 0 0 
0.54654 0.33081 0.376 0 0 0 
0.3908 0.22068 0.23357 0 0 0 
0.39777 0.067457 0.21942 0 0 0 
0.47844 0.067457 0.25917 0 0 0 
0.47146 0.22068 0.27332 0 0 0 
0.53981 0.36596 0.37479 0 0 0 
0.53754 0.36433 0.28864 0 0 0 
0.51123 0.40093 0.28864 0 0 0 
0.51349 0.40256 0.37479 0 0 0 
0.4982 0.2487 0.37492 0 0 0 
0.49847 0.2513 0.28642 0 0 0 
0.44091 0.25722 0.28642 0 0 0 
0.44064 0.25462 0.37492 0 0 0 
0.88802 0.17131 0.44582 0 0 0 
0.88412 0.17286 0.38796 0 0 0 
0.87598 0.1524 0.38796 0 0 0 
0.87988 0.15085 0.44582 0 0 0 
0.50868 0.25441 0.37468 0 0 0 
0.50057 0.26248 0.29285 0 0 0 
0.54513 0.30727 0.29285 0 0 0 
0.55324 0.29921 0.37468 0 0 0 
0.92871 0.27759 0.533 0 0 0 
0.92925 0.26038 0.53378 0 0 0 
0.91086 0.26038 0.54663 0 0 0 
0.91032 0.27759 0.54586 0 0 0 
0.39052 0.5221 0.19905 0 0 0 
0.38986 0.52279 0.029859 0 0 0 
0.40988 0.54195 0.029859 0 0 0 
0.41054 0.54126 0.19905 0 0 0 
0.93111 0.28501 0.45331 0 0 0 
0.93322 0.28433 0.3833 0 0 0 
0.92516 0.25916 0.3833 0 0 0 
0.92305 0.25984 0.45331 0 0 0 
0.95063 0.23659 0.44428 0 0 0 
0.95224 0.23418 0.38519 0 0 0 
0.9709 0.24664 0.38519 0 0 0 
0.96929 0.24905 0.44428 0 0 0 
0.85965 0.51558 0.013147 0 0 0 
0.83577 0.52433 0.0023289 0 0 0 
0.83577 0.53541 0.011294 0 0 0 
0.85965 0.52666 0.022112 0 0 0 
0.84852 0.19569 0.44706 0 0 0 
0.84423 0.19631 0.3892 0 0 0 
0.85105 0.24385 0.3892 0 0 0 
0.85534 0.24323 0.44706 0 0 0 
0.88292 0.20333 0.55057 0 0 0 
0.88453 0.15205 0.55051 0 0 0 
0.88186 0.15205 0.47671 0 0 0 
0.88025 0.20333 0.47677 0 0 0 
0.92397 0.19785 0.47387 0 0 0 
0.92338 0.15344 0.47388 0 0 0 
0.92484 0.15344 0.54716 0 0 0 
0.92544 0.19785 0.54715 0 0 0 
0.49672 0.33677 0.41324 0 0 0 
0.44857 0.34275 0.42329 0 0 0 
0.44857 0.42326 0.37543 0 0 0 
0.49672 0.41729 0.36538 0 0 0 
0.52557 0.39165 0.3758 0 0 0 
0.52528 0.39124 0.27517 0 0 0 
0.49117 0.41478 0.27517 0 0 0 
0.49145 0.4152 0.3758 0 0 0 
0.42404 0.25809 0.37496 0 0 0 
0.42698 0.25988 0.30287 0 0 0 
0.40245 0.30011 0.30287 0 0 0 
0.39951 0.29831 0.37496 0 0 0 
0.13226 0.51994 0.24718 0 0 0 
0.13235 0.51994 0.19879 0 0 0 
0.12842 0.44776 0.19879 0 0 0 
0.12833 0.44777 0.24718 0 0 0 
0.49575 0.070755 0.038634 0 0 0 
0.49546 0.053812 0.03655 0 0 0 
0.45618 0.053812 0.041988 0 0 0 
0.45647 0.070755 0.044072 0 0 0 
0.4649 0.3305 0.41584 0 0 0 
0.4001 0.32636 0.40738 0 0 0 
0.4001 0.40712 0.36781 0 0 0 
0.4649 0.41126 0.37626 0 0 0 
0.93914 0.23478 0.77798 0 0 0 
0.97056 0.21296 0.6176 0 0 0 
0.95253 0.18699 0.6176 0 0 0 
0.92111 0.20881 0.77798 0 0 0 
0.90202 0.27674 0.45083 0 0 0 
0.90142 0.28019 0.39452 0 0 0 
0.93005 0.2851 0.39452 0 0 0 
0.93064 0.28164 0.45083 0 0 0 
0.90879 0.28421 0.54241 0 0 0 
0.89362 0.2842 0.54211 0 0 0 
0.89362 0.2568 0.54321 0 0 0 
0.90879 0.25681 0.54352 0 0 0 
0.90673 0.16051 0.63485 0 0 0 
0.90749 0.15037 0.33559 0 0 0 
0.83991 0.14527 0.33559 0 0 0 
0.83915 0.15541 0.63485 0 0 0 
0.92247 0.12848 0.025269 0 0 0 
0.86989 0.12804 0.025262 0 0 0 
0.86989 0.12767 0.047406 0 0 0 
0.92247 0.12812 0.047414 0 0 0 
0.47139 0.24172 0.37378 0 0 0 
0.4691 0.24763 0.29953 0 0 0 
0.52908 0.27093 0.29953 0 0 0 
0.53137 0.26502 0.37378 0 0 0 
0.96404 0.16065 0.56398 0 0 0 
0.96926 0.16226 0.4624 0 0 0 
0.97675 0.13794 0.4624 0 0 0 
0.97153 0.13633 0.56398 0 0 0 
0.83944 0.23914 0.45143 0 0 0 
0.8399 0.24339 0.39484 0 0 0 
0.85666 0.24157 0.39484 0 0 0 
0.8562 0.23732 0.45143 0 0 0 
0.96956 0.19014 0.44386 0 0 0 
0.95198 0.195 0.43736 0 0 0 
0.95198 0.225 0.45979 0 0 0 
0.96956 0.22014 0.46629 0 0 0 
0.60079 0.50243 0.16912 0 0 0 
0.59125 0.50969 0.11265 0 0 0 
0.60603 0.5291 0.11265 0 0 0 
0.61556 0.52184 0.16912 0 0 0 
0.91752 0.23044 0.56585 0 0 0 
0.92181 0.16082 0.54972 0 0 0 
0.84439 0.16082 0.52912 0 0 0 
0.8401 0.23044 0.54525 0 0 0 
0.40186 0.58553 0.20878 0 0 0 
0.38774 0.52306 0.20117 0 0 0 
0.40886 0.52306 0.16198 0 0 0 
0.42298 0.58553 0.16959 0 0 0 
0.86075 0.2261 0.53427 0 0 0 
0.8613 0.22694 0.48455 0 0 0 
0.83883 0.24145 0.48455 0 0 0 
0.83829 0.24061 0.53427 0 0 0 
0.13209 0.41306 0.33634 0 0 0 
0.13208 0.41306 0.20067 0 0 0 
0.11338 0.41171 0.20067 0 0 0 
0.11338 0.4117 0.33634 0 0 0 
0.85757 0.20352 0.44511 0 0 0 
0.83936 0.20416 0.44501 0 0 0 
0.83936 0.19447 0.38443 0 0 0 
0.85757 0.19383 0.38453 0 0 0 
0.90014 0.17206 0.39806 0 0 0 
0.89074 0.15082 0.38971 0 0 0 
0.89794 0.15082 0.38159 0 0 0 
0.90735 0.17206 0.38994 0 0 0 
0.033117 0.32623 0.13696 0 0 0 
0.029197 0.32512 0.078033 0 0 0 
0.016056 0.37161 0.078033 0 0 0 
0.019976 0.37272 0.13696 0 0 0 
0.85543 0.20199 0.52354 0 0 0 
0.85319 0.2018 0.47914 0 0 0 
0.84994 0.23964 0.47914 0 0 0 
0.85218 0.23983 0.52354 0 0 0 
0.12522 0.44329 0.34765 0 0 0 
0.12509 0.42231 0.34772 0 0 0 
0.11174 0.42231 0.32041 0 0 0 
0.11187 0.44329 0.32035 0 0 0 
0.55842 0.56359 0.20652 0 0 0 
0.5411 0.56454 0.20629 0 0 0 
0.5411 0.54831 0.13722 0 0 0 
0.55842 0.54737 0.13744 0 0 0 
0.22129 0.52802 0.14577 0 0 0 
0.22341 0.5227 0.093412 0 0 0 
0.20128 0.51388 0.093412 0 0 0 
0.19916 0.5192 0.14577 0 0 0 
0.94662 0.28129 0.59904 0 0 0 
0.9485 0.26905 0.59814 0 0 0 
0.95806 0.26905 0.61811 0 0 0 
0.95619 0.28129 0.61901 0 0 0 
0.40982 0.38684 0.37453 0 0 0 
0.41061 0.38599 0.27618 0 0 0 
0.45023 0.42248 0.27618 0 0 0 
0.44945 0.42333 0.37453 0 0 0 
0.93017 0.17124 0.46812 0 0 0 
0.9298 0.1527 0.46911 0 0 0 
0.88433 0.1527 0.45199 0 0 0 
0.88471 0.17124 0.451 0 0 0 
0.78711 0.53285 0.0081543 0 0 0 
0.67849 0.53359 0.010055 0 0 0 
0.67849 0.51845 0.015953 0 0 0 
0.78711 0.51771 0.014052 0 0 0 
0.85467 0.24064 0.39732 0 0 0 
0.85571 0.2058 0.3963 0 0 0 
0.83756 0.2058 0.37784 0 0 0 
0.83652 0.24064 0.37886 0 0 0 
0.40744 0.10786 0.17909 0 0 0 
0.40994 0.10481 0.15287 0 0 0 
0.39887 0.095725 0.15287 0 0 0 
0.39638 0.098767 0.17909 0 0 0 
0.19735 0.51243 0.14086 0 0 0 
0.19445 0.52 0.088547 0 0 0 
0.2192 0.52947 0.088547 0 0 0 
0.22209 0.52189 0.14086 0 0 0 
0.78622 0.14875 0.040718 0 0 0 
0.54547 0.14851 0.044856 0 0 0 
0.54547 0.05194 0.03927 0 0 0 
0.78622 0.052179 0.035133 0 0 0 
0.83973 0.19118 0.4369 0 0 0 
0.83948 0.1912 0.39302 0 0 0 
0.8419 0.22155 0.39302 0 0 0 
0.84215 0.22153 0.4369 0 0 0 
0.96962 0.23564 0.54443 0 0 0 
0.96991 0.23867 0.48685 0 0 0 
0.93334 0.24218 0.48685 0 0 0 
0.93305 0.23914 0.54443 0 0 0 
0.78675 0.16223 0.15723 0 0 0 
0.71335 0.16177 0.15751 0 0 0 
0.71335 0.14739 0.13356 0 0 0 
0.78675 0.14785 0.13328 0 0 0 
0.92714 0.18573 0.6576 0 0 0 
0.89741 0.19501 0.66109 0 0 0 
0.89741 0.18467 0.68855 0 0 0 
0.92714 0.17539 0.68505 0 0 0 
0.55337 0.5786 0.19801 0 0 0 
0.51083 0.56754 0.21519 0 0 0 
0.51083 0.59619 0.23365 0 0 0 
0.55337 0.60725 0.21647 0 0 0 
0.86336 0.22942 0.70129 0 0 0 
0.87249 0.16147 0.69928 0 0 0 
0.84796 0.16147 0.58821 0 0 0 
0.83883 0.22942 0.59022 0 0 0 
0.85432 0.17579 0.62082 0 0 0 
0.85865 0.15513 0.62243 0 0 0 
0.86965 0.15513 0.59284 0 0 0 
0.86532 0.17579 0.59123 0 0 0 
0.90725 0.20812 0.54022 0 0 0 
0.88326 0.20414 0.54718 0 0 0 
0.88326 0.23142 0.56281 0 0 0 
0.90725 0.2354 0.55585 0 0 0 
0.55109 0.5221 0.2113 0 0 0 
0.54865 0.52229 0.16547 0 0 0 
0.55457 0.59742 0.16547 0 0 0 
0.55701 0.59723 0.2113 0 0 0 
-7.1269e-05 0.19772 0.15603 0 0 0 
0.00020714 0.19948 0.064344 0 0 0 
0.024994 0.19555 0.064344 0 0 0 
0.024716 0.19379 0.15603 0 0 0 
0.5439 0.042704 0.026099 0 0 0 
0.54389 0.0024781 0.025868 0 0 0 
0.46697 0.0024781 0.028513 0 0 0 
0.46697 0.042704 0.028744 0 0 0 
0.57647 0.52218 0.16898 0 0 0 
0.57799 0.5231 0.11876 0 0 0 
0.58598 0.50985 0.11876 0 0 0 
0.58446 0.50894 0.16898 0 0 0 
0.84411 0.24144 0.54466 0 0 0 
0.8432 0.23925 0.50964 0 0 0 
0.86995 0.22826 0.50964 0 0 0 
0.87085 0.23046 0.54466 0 0 0 
0.55378 0.54556 0.19569 0 0 0 
0.55082 0.54563 0.064608 0 0 0 
0.55021 0.52127 0.064608 0 0 0 
0.55317 0.5212 0.19569 0 0 0 
0.92665 0.51379 0.17571 0 0 0 
0.92562 0.5132 0.0098357 0 0 0 
0.9352 0.49652 0.0098357 0 0 0 
0.93624 0.49711 0.17571 0 0 0 
0.87159 0.22519 0.68326 0 0 0 
0.87056 0.21144 0.68347 0 0 0 
0.86782 0.21144 0.66989 0 0 0 
0.86885 0.22519 0.66969 0 0 0 
0.89726 0.15229 0.55074 0 0 0 
0.90102 0.14812 0.53926 0 0 0 
0.92813 0.17256 0.53926 0 0 0 
0.92437 0.17673 0.55074 0 0 0 
0.91805 0.16036 0.093457 0 0 0 
0.91885 0.15323 0.093629 0 0 0 
0.92491 0.15323 0.065227 0 0 0 
0.9241 0.16036 0.065056 0 0 0 
0.072125 0.14347 0.22281 0 0 0 
0.072052 0.14244 0.18269 0 0 0 
0.14312 0.13742 0.18269 0 0 0 
0.1432 0.13845 0.22281 0 0 0 
0.85799 0.2404 0.48602 0 0 0 
0.84001 0.23915 0.4867 0 0 0 
0.84001 0.2323 0.47408 0 0 0 
0.85799 0.23354 0.4734 0 0 0 
0.97004 0.19446 0.52191 0 0 0 
0.973 0.19813 0.46688 0 0 0 
0.939 0.22545 0.46688 0 0 0 
0.93604 0.22177 0.52191 0 0 0 
0.92564 0.19013 0.53845 0 0 0 
0.89094 0.18397 0.54176 0 0 0 
0.89094 0.15582 0.48931 0 0 0 
0.92564 0.16198 0.48601 0 0 0 
0.92791 0.27186 0.53156 0 0 0 
0.92718 0.274 0.48232 0 0 0 
0.88936 0.26103 0.48232 0 0 0 
0.8901 0.25888 0.53156 0 0 0 
0.20698 0.51201 0.14301 0 0 0 
0.2056 0.50974 0.099167 0 0 0 
0.18126 0.5246 0.099167 0 0 0 
0.18264 0.52686 0.14301 0 0 0 
0.8245 0.50744 0.073313 0 0 0 
0.82685 0.51677 0.00023176 0 0 0 
0.78203 0.52806 0.00023173 0 0 0 
0.77967 0.51873 0.073313 0 0 0 
0.41747 0.25956 0.37512 0 0 0 
0.42227 0.26873 0.29887 0 0 0 
0.45475 0.25175 0.29887 0 0 0 
0.44995 0.24257 0.37512 0 0 0 
0.87027 0.27468 0.6242 0 0 0 
0.84435 0.27561 0.62357 0 0 0 
0.84435 0.25453 0.59248 0 0 0 
0.87027 0.2536 0.59311 0 0 0 
0.39368 0.14445 0.20268 0 0 0 
0.39793 0.1462 0.11365 0 0 0 
0.40834 0.12094 0.11365 0 0 0 
0.4041 0.11919 0.20268 0 0 0 
0.94049 0.17123 0.59558 0 0 0 
0.94152 0.15613 0.59492 0 0 0 
0.95996 0.15613 0.62388 0 0 0 
0.95894 0.17123 0.62454 0 0 0 
0.96802 0.23768 0.5001 0 0 0 
0.95888 0.2107 0.49194 0 0 0 
0.93973 0.2107 0.51341 0 0 0 
0.94887 0.23768 0.52156 0 0 0 
0.39699 0.56645 0.20292 0 0 0 
0.40017 0.56756 0.13696 0 0 0 
0.40764 0.54623 0.13696 0 0 0 
0.40446 0.54511 0.20292 0 0 0 
0.86905 0.24876 0.57836 0 0 0 
0.87226 0.21129 0.57935 0 0 0 
0.87904 0.21129 0.55746 0 0 0 
0.87583 0.24876 0.55646 0 0 0 
0.55729 0.56725 0.048257 0 0 0 
0.55946 0.5679 0.023037 0 0 0 
0.57384 0.52007 0.023037 0 0 0 
0.57167 0.51942 0.048257 0 0 0 
0.54352 0.33387 0.3243 0 0 0 
0.51922 0.33139 0.32112 0 0 0 
0.51922 0.36536 0.2945 0 0 0 
0.54352 0.36785 0.29767 0 0 0 
0.90991 0.20431 0.71398 0 0 0 
0.89536 0.20481 0.7125 0 0 0 
0.89536 0.18197 0.70473 0 0 0 
0.90991 0.18147 0.70621 0 0 0 
0.89269 0.23619 0.56272 0 0 0 
0.89115 0.23741 0.54808 0 0 0 
0.87738 0.22007 0.54808 0 0 0 
0.87892 0.21885 0.56272 0 0 0 
0.88637 0.52898 0.0013133 0 0 0 
0.84787 0.53201 0.0019962 0 0 0 
0.84787 0.52871 0.016658 0 0 0 
0.88637 0.52568 0.015975 0 0 0 
0.84002 0.24014 0.46435 0 0 0 
0.8342 0.19803 0.46282 0 0 0 
0.84289 0.19803 0.42981 0 0 0 
0.84871 0.24014 0.43135 0 0 0 
0.91831 0.1678 0.54363 0 0 0 
0.89256 0.16926 0.54287 0 0 0 
0.89256 0.18741 0.57777 0 0 0 
0.91831 0.18595 0.57853 0 0 0 
0.40447 0.59562 0.031099 0 0 0 
0.4001 0.54413 0.03434 0 0 0 
0.38766 0.54413 0.017581 0 0 0 
0.39202 0.59562 0.01434 0 0 0 
0.045107 0.13911 0.11852 0 0 0 
0.045111 0.13941 0.055906 0 0 0 
0.029227 0.13963 0.055906 0 0 0 
0.029223 0.13933 0.11852 0 0 0 
0.13591 0.452 0.32502 0 0 0 
0.13587 0.45208 0.2016 0 0 0 
0.11288 0.43984 0.2016 0 0 0 
0.11292 0.43976 0.32502 0 0 0 
0.96831 0.15821 0.51823 0 0 0 
0.96912 0.15876 0.33757 0 0 0 
0.98194 0.13976 0.33757 0 0 0 
0.98113 0.13921 0.51823 0 0 0 
0.38606 0.5082 0.09506 0 0 0 
0.37675 0.52157 0.023467 0 0 0 
0.39688 0.53558 0.023467 0 0 0 
0.40618 0.52221 0.09506 0 0 0 
0.40389 0.089366 0.21845 0 0 0 
0.33372 0.090205 0.21488 0 0 0 
0.33372 0.15514 0.23014 0 0 0 
0.40389 0.1543 0.23371 0 0 0 
0.96242 0.19865 0.54282 0 0 0 
0.9222 0.19896 0.54167 0 0 0 
0.9222 0.2329 0.55068 0 0 0 
0.96242 0.2326 0.55184 0 0 0 
0.64505 0.53216 0.0094469 0 0 0 
0.56031 0.53568 0.011891 0 0 0 
0.56031 0.51771 0.037749 0 0 0 
0.64505 0.51419 0.035306 0 0 0 
0.91915 0.16919 0.060907 0 0 0 
0.89646 0.16745 0.061097 0 0 0 
0.89646 0.17 0.084508 0 0 0 
0.91915 0.17175 0.084317 0 0 0 
0.54372 0.095901 0.17988 0 0 0 
0.55162 0.10124 0.14641 0 0 0 
0.53834 0.12086 0.14641 0 0 0 
0.53045 0.11552 0.17988 0 0 0 
0.027354 0.2186 0.14509 0 0 0 
0.029016 0.20553 0.14905 0 0 0 
0.003252 0.20553 0.15986 0 0 0 
0.0015903 0.2186 0.15591 0 0 0 
0.57245 0.021922 0.0326 0 0 0 
0.52753 0.025865 0.024601 0 0 0 
0.52753 0.051719 0.037344 0 0 0 
0.57245 0.047777 0.045343 0 0 0 
0.52656 0.31834 0.38736 0 0 0 
0.5177 0.25341 0.36716 0 0 0 
0.46855 0.25341 0.38872 0 0 0 
0.47741 0.31834 0.40893 0 0 0 
0.94996 0.47946 0.0060836 0 0 0 
0.90612 0.47947 0.0064772 0 0 0 
0.90612 0.52542 0.0051875 0 0 0 
0.94996 0.52541 0.0047939 0 0 0 
0.47864 0.24963 0.37823 0 0 0 
0.44611 0.24988 0.37767 0 0 0 
0.44611 0.30126 0.40088 0 0 0 
0.47864 0.301 0.40144 0 0 0 
0.9291 0.2842 0.52503 0 0 0 
0.9291 0.2842 0.49307 0 0 0 
0.9058 0.26395 0.49307 0 0 0 
0.9058 0.26395 0.52503 0 0 0 
0.90967 0.158 0.5359 0 0 0 
0.9104 0.16024 0.47368 0 0 0 
0.92786 0.15453 0.47368 0 0 0 
0.92713 0.15229 0.5359 0 0 0 
0.48661 0.25068 0.3608 0 0 0 
0.48664 0.24938 0.27957 0 0 0 
0.4504 0.24844 0.27957 0 0 0 
0.45037 0.24974 0.3608 0 0 0 
0.91239 0.17934 0.10523 0 0 0 
0.92459 0.15374 0.034714 0 0 0 
0.90356 0.14373 0.034714 0 0 0 
0.89137 0.16932 0.10523 0 0 0 
0.83147 0.16276 0.24081 0 0 0 
0.72206 0.16326 0.24033 0 0 0 
0.72206 0.14356 0.21975 0 0 0 
0.83147 0.14306 0.22023 0 0 0 
0.47909 0.06415 0.027853 0 0 0 
0.44877 0.065609 0.029964 0 0 0 
0.44877 0.052452 0.039061 0 0 0 
0.47909 0.050993 0.03695 0 0 0 
0.57107 0.15091 0.15952 0 0 0 
0.58078 0.14346 0.10807 0 0 0 
0.59221 0.15835 0.10807 0 0 0 
0.58251 0.1658 0.15952 0 0 0 
0.96163 0.24182 0.42917 0 0 0 
0.95889 0.20353 0.4286 0 0 0 
0.97615 0.20353 0.34669 0 0 0 
0.97889 0.24182 0.34727 0 0 0 
0.89443 0.27936 0.54393 0 0 0 
0.89461 0.25301 0.54378 0 0 0 
0.88528 0.25301 0.53264 0 0 0 
0.8851 0.27936 0.53279 0 0 0 
0.74836 0.13502 0.03421 0 0 0 
0.74825 0.12745 0.0343 0 0 0 
0.75209 0.12745 0.039043 0 0 0 
0.7522 0.13502 0.038952 0 0 0 
0.40273 0.30303 0.37342 0 0 0 
0.40273 0.30303 0.34214 0 0 0 
0.3917 0.33806 0.34214 0 0 0 
0.3917 0.33806 0.37342 0 0 0 
0.90625 0.27045 0.50115 0 0 0 
0.9055 0.27054 0.47965 0 0 0 
0.90722 0.28386 0.47965 0 0 0 
0.90797 0.28376 0.50115 0 0 0 
0.036956 0.52706 0.1511 0 0 0 
0.037324 0.51267 0.15096 0 0 0 
0.031991 0.51267 0.13686 0 0 0 
0.031624 0.52706 0.137 0 0 0 
0.34081 0.14834 0.12396 0 0 0 
0.31518 0.14639 0.1248 0 0 0 
0.31518 0.13995 0.10977 0 0 0 
0.34081 0.14191 0.10893 0 0 0 
0.87073 0.27407 0.62076 0 0 0 
0.87303 0.26465 0.61971 0 0 0 
0.86855 0.26465 0.60985 0 0 0 
0.86625 0.27407 0.61089 0 0 0 
0.90835 0.236 0.53897 0 0 0 
0.90761 0.16063 0.53859 0 0 0 
0.8917 0.16063 0.56899 0 0 0 
0.89244 0.236 0.56937 0 0 0 
0.15429 0.52638 0.22548 0 0 0 
0.15143 0.53103 0.20474 0 0 0 
0.126 0.51536 0.20474 0 0 0 
0.12886 0.51071 0.22548 0 0 0 
0.94483 0.3552 0.13902 0 0 0 
0.94948 0.34964 0.12241 0 0 0 
0.96096 0.35923 0.12241 0 0 0 
0.9563 0.36479 0.13902 0 0 0 
0.95394 0.23268 0.43512 0 0 0 
0.95199 0.23624 0.39655 0 0 0 
0.97013 0.24623 0.39655 0 0 0 
0.97209 0.24267 0.43512 0 0 0 
0.54454 0.12456 0.19902 0 0 0 
0.54645 0.12463 0.11335 0 0 0 
0.54569 0.14601 0.11335 0 0 0 
0.54378 0.14594 0.19902 0 0 0 
0.5488 0.06237 0.042584 0 0 0 
0.55117 0.033421 0.03649 0 0 0 
0.52889 0.033421 0.027818 0 0 0 
0.52652 0.06237 0.033912 0 0 0 
0.21333 0.51278 0.12726 0 0 0 
0.21602 0.51812 0.10139 0 0 0 
0.20273 0.52483 0.10139 0 0 0 
0.20003 0.51949 0.12726 0 0 0 
0.91786 0.1345 0.043997 0 0 0 
0.89748 0.1364 0.041164 0 0 0 
0.89748 0.16096 0.057631 0 0 0 
0.91786 0.15906 0.060464 0 0 0 
0.88362 0.21253 0.53636 0 0 0 
0.86277 0.22729 0.47814 0 0 0 
0.84097 0.19649 0.47814 0 0 0 
0.86182 0.18173 0.53636 0 0 0 
0.74761 0.11941 0.040945 0 0 0 
0.75067 0.11636 0.027352 0 0 0 
0.7663 0.13202 0.027352 0 0 0 
0.76324 0.13507 0.040945 0 0 0 
0.54517 0.13154 0.18715 0 0 0 
0.54601 0.10456 0.18684 0 0 0 
0.53687 0.10456 0.16268 0 0 0 
0.53603 0.13154 0.163 0 0 0 
0.84784 0.22653 0.52305 0 0 0 
0.85187 0.22375 0.48589 0 0 0 
0.86452 0.24214 0.48589 0 0 0 
0.86049 0.24491 0.52305 0 0 0 
0.96927 0.21819 0.43011 0 0 0 
0.96024 0.21046 0.3917 0 0 0 
0.94379 0.22968 0.3917 0 0 0 
0.95282 0.2374 0.43011 0 0 0 
0.89677 0.17468 0.10694 0 0 0 
0.89621 0.15223 0.10691 0 0 0 
0.89873 0.15223 0.06216 0 0 0 
0.89929 0.17468 0.062192 0 0 0 
0.98234 0.28604 0.12804 0 0 0 
0.98062 0.28991 0.066632 0 0 0 
0.96766 0.28416 0.066632 0 0 0 
0.96938 0.28028 0.12804 0 0 0 
0.19395 0.14028 0.21671 0 0 0 
0.17992 0.13966 0.21665 0 0 0 
0.17992 0.14009 0.21268 0 0 0 
0.19395 0.14071 0.21274 0 0 0 
0.12936 0.30723 0.25166 0 0 0 
0.1286 0.30817 0.20925 0 0 0 
0.14179 0.31881 0.20925 0 0 0 
0.14255 0.31787 0.25166 0 0 0 
0.71057 0.14389 0.17507 0 0 0 
0.70461 0.15184 0.14157 0 0 0 
0.72145 0.16446 0.14157 0 0 0 
0.72741 0.15651 0.17507 0 0 0 
0.92187 0.17908 0.5841 0 0 0 
0.90131 0.18066 0.58729 0 0 0 
0.90131 0.18576 0.58476 0 0 0 
0.92187 0.18418 0.58157 0 0 0 
0.84045 0.24147 0.42618 0 0 0 
0.84058 0.21613 0.4268 0 0 0 
0.85514 0.21613 0.4238 0 0 0 
0.85501 0.24147 0.42318 0 0 0 
0.1849 0.14129 0.13458 0 0 0 
0.18753 0.14169 0.10418 0 0 0 
0.18665 0.14747 0.10418 0 0 0 
0.18401 0.14707 0.13458 0 0 0 
0.45771 0.27033 0.34086 0 0 0 
0.45718 0.27028 0.32695 0 0 0 
0.45662 0.27682 0.32695 0 0 0 
0.45714 0.27687 0.34086 0 0 0 
0.209 0.50962 0.14601 0 0 0 
0.20719 0.5071 0.10314 0 0 0 
0.18679 0.5218 0.10314 0 0 0 
0.1886 0.52432 0.14601 0 0 0 
0.93375 0.22709 0.49537 0 0 0 
0.94104 0.20827 0.49147 0 0 0 
0.9545 0.20827 0.51664 0 0 0 
0.94721 0.22709 0.52054 0 0 0 
0.96922 0.36475 0.17152 0 0 0 
0.97571 0.29174 0.16894 0 0 0 
0.95757 0.29174 0.12339 0 0 0 
0.95109 0.36475 0.12597 0 0 0 
0.94619 0.2295 0.45511 0 0 0 
0.95433 0.24064 0.43081 0 0 0 
0.97753 0.22371 0.43081 0 0 0 
0.96939 0.21257 0.45511 0 0 0 
0.24855 0.1308 0.087106 0 0 0 
0.25015 0.12749 0.059272 0 0 0 
0.28157 0.14272 0.059272 0 0 0 
0.27996 0.14603 0.087106 0 0 0 
0.91856 0.18447 0.56744 0 0 0 
0.9133 0.16558 0.56969 0 0 0 
0.90443 0.16558 0.54898 0 0 0 
0.90969 0.18447 0.54672 0 0 0 
0.96932 0.21545 0.44572 0 0 0 
0.95194 0.21754 0.44544 0 0 0 
0.95194 0.21652 0.43794 0 0 0 
0.96932 0.21443 0.43822 0 0 0 
0.20586 0.13189 0.093053 0 0 0 
0.20161 0.13187 0.093054 0 0 0 
0.20161 0.13162 0.089608 0 0 0 
0.20586 0.13164 0.089607 0 0 0 
0.90796 0.25826 0.68231 0 0 0 
0.90221 0.24283 0.68841 0 0 0 
0.90618 0.24283 0.69215 0 0 0 
0.91192 0.25826 0.68605 0 0 0 
0.85615 0.24415 0.3941 0 0 0 
0.85446 0.21327 0.39006 0 0 0 
0.83853 0.21327 0.39673 0 0 0 
0.84023 0.24415 0.40077 0 0 0 
0.94187 0.22611 0.67363 0 0 0 
0.9307 0.22768 0.67423 0 0 0 
0.9307 0.22573 0.67939 0 0 0 
0.94187 0.22416 0.6788 0 0 0 
0.59975 0.51313 0.11808 0 0 0 
0.58786 0.51297 0.11785 0 0 0 
0.58786 0.51815 0.11426 0 0 0 
0.59975 0.51831 0.11448 0 0 0 
0.91288 0.24436 0.68499 0 0 0 
0.89228 0.24991 0.67768 0 0 0 
0.89228 0.27027 0.69313 0 0 0 
0.91288 0.26473 0.70044 0 0 0 
0.35177 0.51445 0.12071 0 0 0 
0.33861 0.51399 0.12021 0 0 0 
0.33861 0.52353 0.11154 0 0 0 
0.35177 0.52398 0.11204 0 0 0 
0.54606 0.10675 0.15159 0 0 0 
0.54654 0.10681 0.14117 0 0 0 
0.5448 0.12304 0.14117 0 0 0 
0.54432 0.12299 0.15159 0 0 0 
0.43488 0.31105 0.33942 0 0 0 
0.43435 0.30946 0.339 0 0 0 
0.43128 0.30946 0.34286 0 0 0 
0.43181 0.31105 0.34328 0 0 0 
0.81931 0.13766 0.027212 0 0 0 
0.79536 0.13766 0.027376 0 0 0 
0.79536 0.097492 0.025956 0 0 0 
0.81931 0.097497 0.025791 0 0 0 
0.13501 0.45787 0.20691 0 0 0 
0.13338 0.44022 0.20654 0 0 0 
0.12334 0.44022 0.25146 0 0 0 
0.12496 0.45787 0.25182 0 0 0 
0.90347 0.23053 0.88954 0 0 0 
0.9052 0.20979 0.8893 0 0 0 
0.90324 0.20979 0.87504 0 0 0 
0.90152 0.23053 0.87528 0 0 0 
0.86718 0.15425 0.60781 0 0 0 
0.85323 0.15759 0.60445 0 0 0 
0.85323 0.17766 0.62441 0 0 0 
0.86718 0.17432 0.62777 0 0 0 
0.92478 0.17172 0.45295 0 0 0 
0.88906 0.17178 0.45317 0 0 0 
0.88906 0.15208 0.45919 0 0 0 
0.92478 0.15201 0.45897 0 0 0 
0.86745 0.23005 0.49512 0 0 0 
0.84939 0.22799 0.49598 0 0 0 
0.84939 0.24058 0.52634 0 0 0 
0.86745 0.24265 0.52549 0 0 0 
0.86204 0.22543 0.68206 0 0 0 
0.86203 0.22531 0.66959 0 0 0 
0.87766 0.22399 0.66959 0 0 0 
0.87767 0.22411 0.68206 0 0 0 
0.93512 0.23913 0.52996 0 0 0 
0.92066 0.20031 0.54386 0 0 0 
0.93454 0.20031 0.55831 0 0 0 
0.94901 0.23913 0.5444 0 0 0 
0.91954 0.2798 0.45622 0 0 0 
0.91955 0.26684 0.45598 0 0 0 
0.89308 0.26684 0.45489 0 0 0 
0.89307 0.2798 0.45513 0 0 0 
0.59654 0.147 0.11123 0 0 0 
0.56242 0.14439 0.11173 0 0 0 
0.56242 0.15208 0.15204 0 0 0 
0.59654 0.15469 0.15154 0 0 0 
0.33973 0.14408 0.16132 0 0 0 
0.33973 0.14408 0.1213 0 0 0 
0.34697 0.14155 0.1213 0 0 0 
0.34697 0.14155 0.16132 0 0 0 
0.89345 0.18535 0.48882 0 0 0 
0.88941 0.16811 0.49089 0 0 0 
0.90225 0.16811 0.51588 0 0 0 
0.90628 0.18535 0.51381 0 0 0 
0.56093 0.58603 0.013875 0 0 0 
0.52996 0.58895 0.013099 0 0 0 
0.52996 0.59661 0.041935 0 0 0 
0.56093 0.59369 0.042711 0 0 0 
0.8858 0.28483 0.53043 0 0 0 
0.88314 0.28335 0.51923 0 0 0 
0.89336 0.26495 0.51923 0 0 0 
0.89603 0.26643 0.53043 0 0 0 
0.92838 0.16694 0.51258 0 0 0 
0.91273 0.16878 0.51356 0 0 0 
0.91273 0.17572 0.50047 0 0 0 
0.92838 0.17388 0.4995 0 0 0 
0.48504 0.049968 0.043968 0 0 0 
0.4891 0.053726 0.029281 0 0 0 
0.4701 0.074255 0.029281 0 0 0 
0.46604 0.070497 0.043968 0 0 0 
0.85656 0.20925 0.45122 0 0 0 
0.83994 0.20925 0.45128 0 0 0 
0.83994 0.2293 0.45009 0 0 0 
0.85656 0.22929 0.45003 0 0 0 
0.91366 0.28638 0.45896 0 0 0 
0.91423 0.28668 0.42908 0 0 0 
0.92684 0.26313 0.42908 0 0 0 
0.92627 0.26282 0.45896 0 0 0 
0.86096 0.22355 0.50873 0 0 0 
0.839 0.22791 0.51077 0 0 0 
0.839 0.23906 0.48696 0 0 0 
0.86096 0.23471 0.48492 0 0 0 
0.91465 0.28172 0.49292 0 0 0 
0.9173 0.26183 0.49778 0 0 0 
0.92994 0.26183 0.49089 0 0 0 
0.9273 0.28172 0.48604 0 0 0 
0.3995 0.55796 0.13398 0 0 0 
0.39737 0.54325 0.13601 0 0 0 
0.41271 0.54325 0.15212 0 0 0 
0.41484 0.55796 0.15009 0 0 0 
0.9549 0.22087 0.50814 0 0 0 
0.95184 0.20203 0.5089 0 0 0 
0.94834 0.20203 0.49484 0 0 0 
0.9514 0.22087 0.49408 0 0 0 
0.91834 0.18181 0.52606 0 0 0 
0.91466 0.1727 0.49475 0 0 0 
0.92313 0.16928 0.49475 0 0 0 
0.9268 0.17839 0.52606 0 0 0 
4 0 1 2 3
4 4 5 6 7
4 8 9 10 11
4 12 13 14 15
4 16 17 18 19
4 20 21 22 23
4 24 25 26 27
4 28 29 30 31
4 32 33 34 35
4 36 37 38 39
4 40 41 42 43
4 44 45 46 47
4 48 49 50 51
4 52 53 54 55
4 56 57 58 59
4 60 61 62 63
4 64 65 66 67
4 68 69 70 71
4 72 73 74 75
4 76 77 78 79
4 80 81 82 83
4 84 85 86 87
4 88 89 90 91
4 92 93 94 95
4 96 97 98 99
4 100 101 102 103
4 104 105 106 107
4 108 109 110 111
4 112 113 114 115
4 116 117 118 119
4 120 121 122 123
4 124 125 126 127
4 128 129 130 131
4 132 133 134 135
4 136 137 138 139
4 140 141 142 143
4 144 145 146 147
4 148 149 150 151
4 152 153 154 155
4 156 157 158 159
4 160 161 162 163
4 164 165 166 167
4 168 169 170 171
4 172 173 174 175
4 176 177 178 179
4 180 181 182 183
4 184 185 186 187
4 188 189 190 191
4 192 193 194 195
4 196 197 198 199
4 200 201 202 203
4 204 205 206 207
4 208 209 210 211
4 212 213 214 215
4 216 217 218 219
4 220 221 222 223
4 224 225 226 227
4 228 229 230 231
4 232 233 234 235
4 236 237 238 239
4 240 241 242 243
4 244 245 246 247
4 248 249 250 251
4 252 253 254 255
4 256 257 258 259
4 260 261 262 263
4 264 265 266 267
4 268 269 270 271
4 272 273 274 275
4 276 277 278 279
4 280 281 282 283
4 284 285 286 287
4 288 289 290 291
4 292 293 294 295
4 296 297 298 299
4 300 301 302 303
4 304 305 306 307
4 308 309 310 311
4 312 313 314 315
4 316 317 318 319
4 320 321 322 323
4 324 325 326 327
4 328 329 330 331
4 332 333 334 335
4 336 337 338 339
4 340 341 342 343
4 344 345 346 347
4 348 349 350 351
4 352 353 354 355
4 356 357 358 359
4 360 361 362 363
4 364 365 366 367
4 368 369 370 371
4 372 373 374 375
4 376 377 378 379
4 380 381 382 383
4 384 385 386 387
4 388 389 390 391
4 392 393 394 395
4 396 397 398 399
4 400 401 402 403
4 404 405 406 407
4 408 409 410 411
4 412 413 414 415
4 416 417 418 419
4 420 421 422 423
4 424 425 426 427
4 428 429 430 431
4 432 433 434 435
4 436 437 438 439
4 440 441 442 443
4 444 445 446 447
4 448 449 450 451
4 452 453 454 455
4 456 457 458 459
4 460 461 462 463
4 464 465 466 467
4 468 469 470 471
4 472 473 474 475
4 476 477 478 479
4 480 481 482 483
4 484 485 486 487
4 488 489 490 491
4 492 493 494 495
4 496 497 498 499
4 500 501 502 503
4 504 505 506 507
4 508 509 510 511
4 512 513 514 515
4 516 517 518 519
4 520 521 522 523
4 524 525 526 527
4 528 529 530 531
4 532 533 534 535
4 536 537 538 539
4 540 541 542 543
4 544 545 546 547
4 548 549 550 551
4 552 553 554 555
4 556 557 558 559
4 560 561 562 563
4 564 565 566 567
4 568 569 570 571
4 572 573 574 575
4 576 577 578 579
4 580 581 582 583
4 584 585 586 587
4 588 589 590 591
4 592 593 594 595
4 596 597 598 599
4 600 601 602 603
4 604 605 606 607
4 608 609 610 611
4 612 613 614 615
4 616 617 618 619
4 620 621 622 623
4 624 625 626 627
4 628 629 630 631
4 632 633 634 635
4 636 637 638 639
4 640 641 642 643
4 644 645 646 647
4 648 649 650 651
4 652 653 654 655
4 656 657 658 659
4 660 661 662 663
4 664 665 666 667
4 668 669 670 671
4 672 673 674 675
4 676 677 678 679
4 680 681 682 683
4 684 685 686 687
4 688 689 690 691
4 692 693 694 695
4 696 697 698 699
4 700 701 702 703
4 704 705 706 707
4 708 709 710 711
4 712 713 714 715
4 716 717 718 719
4 720 721 722 723
4 724 725 726 727
4 728 729 730 731
4 732 733 734 735
4 736 737 738 739
4 740 741 742 743
4 744 745 746 747
4 748 749 750 751
4 752 753 754 755
4 756 757 758 759
4 760 761 762 763
4 764 765 766 767
4 768 769 770 771
4 772 773 774 775
4 776 777 778 779
4 780 781 782 783
4 784 785 786 787
4 788 789 790 791
4 792 793 794 795
4 796 797 798 799
4 800 801 802 803
4 804 805 806 807
4 808 809 810 811
4 812 813 814 815
4 816 817 818 819
4 820 821 822 823
4 824 825 826 827
4 828 829 830 831
4 832 833 834 835
4 836 837 838 839
4 840 841 842 843
4 844 845 846 847
4 848 849 850 851
4 852 853 854 855
4 856 857 858 859
4 860 861 862 863
4 864 865 866 867
4 868 869 870 871
4 872 873 874 875
4 876 877 878 879
4 880 881 882 883
4 884 885 886 887
4 888 889 890 891
4 892 893 894 895
4 896 897 898 899
4 900 901 902 903
4 904 905 906 907
4 908 909 910 911
4 912 913 914 915
4 916 917 918 919
4 920 921 922 923
4 924 925 926 927
4 928 929 930 931
4 932 933 934 935
4 936 937 938 939
4 940 941 942 943
4 944 945 946 947
4 948 949 950 951
4 952 953 954 955
4 956 957 958 959
4 960 961 962 963
