ply
format ascii 1.0
comment PCL generated
element vertex 568
property float x
property float y
property float z
property uchar red
property uchar green
property uchar blue
element face 142
property list uchar int vertex_indices
end_header
0.84184 0.14786 0.64318 0 0 0 
0.83896 0.14789 0.22162 0 0 0 
0.84234 0.47393 0.22162 0 0 0 
0.84523 0.4739 0.64318 0 0 0 
0.56257 0.59297 0.25177 0 0 0 
0.56258 0.59411 0.0045606 0 0 0 
0.39036 0.5959 0.0045606 0 0 0 
0.39035 0.59477 0.25177 0 0 0 
0.5085 0.2467 0.27984 0 0 0 
0.44032 0.24727 0.27971 0 0 0 
0.44032 0.26058 0.33709 0 0 0 
0.5085 0.26001 0.33722 0 0 0 
0.92882 0.51703 0.21124 0 0 0 
0.92883 0.51797 0.00073002 0 0 0 
0.5517 0.5219 0.00073002 0 0 0 
0.55169 0.52096 0.21124 0 0 0 
0.39976 0.6019 0.2093 0 0 0 
0.39839 0.60192 0.0097944 0 0 0 
0.39756 0.52213 0.0097944 0 0 0 
0.39893 0.52212 0.2093 0 0 0 
0.86583 0.31041 0.32391 0 0 0 
0.12646 0.31432 0.33104 0 0 0 
0.12646 0.55009 0.20182 0 0 0 
0.86583 0.54618 0.19469 0 0 0 
0.8444 0.52091 0.22986 0 0 0 
0.84471 0.28902 0.23045 0 0 0 
0.97239 0.28902 0.16378 0 0 0 
0.97209 0.52091 0.16319 0 0 0 
0.54433 0.15242 0.64543 0 0 0 
0.54436 0.15515 0.027227 0 0 0 
0.99311 0.15048 0.027227 0 0 0 
0.99308 0.14774 0.64543 0 0 0 
0.40068 0.52212 0.21608 0 0 0 
0.40069 0.523 0.016164 0 0 0 
0.029219 0.52687 0.016164 0 0 0 
0.029209 0.52599 0.21608 0 0 0 
0.97243 0.31062 0.64613 0 0 0 
0.96815 0.31067 0.021824 0 0 0 
0.96651 0.15209 0.021824 0 0 0 
0.97078 0.15205 0.64613 0 0 0 
0.55013 0.070091 0.28133 0 0 0 
0.55014 0.071213 0.027682 0 0 0 
0.39383 0.072841 0.027682 0 0 0 
0.39382 0.071719 0.28133 0 0 0 
0.92508 0.28383 0.54279 0 0 0 
0.92469 0.28384 0.48546 0 0 0 
0.92434 0.25062 0.48546 0 0 0 
0.92474 0.25062 0.54279 0 0 0 
0.97155 0.28239 0.63173 0 0 0 
0.97157 0.28428 0.20576 0 0 0 
0.83717 0.28568 0.20576 0 0 0 
0.83715 0.28379 0.63173 0 0 0 
0.96594 0.15147 0.57355 0 0 0 
0.84965 0.15245 0.57332 0 0 0 
0.84965 0.22632 0.89197 0 0 0 
0.96594 0.22535 0.89219 0 0 0 
0.84415 0.12826 0.21679 0 0 0 
0.12823 0.12791 0.21743 0 0 0 
0.12823 0.34195 0.3347 0 0 0 
0.84415 0.3423 0.33407 0 0 0 
0.01534 0.53117 0.13871 0 0 0 
0.015184 0.15827 0.139 0 0 0 
0.13887 0.15827 0.20538 0 0 0 
0.13903 0.53117 0.20509 0 0 0 
0.42236 0.040778 0.031763 0 0 0 
0.32761 0.040751 0.032368 0 0 0 
0.32761 0.13979 0.03668 0 0 0 
0.42236 0.13981 0.036074 0 0 0 
0.97034 0.22207 0.85061 0 0 0 
0.83734 0.22358 0.85096 0 0 0 
0.83734 0.29092 0.55542 0 0 0 
0.97034 0.28941 0.55507 0 0 0 
0.95339 0.27673 0.43139 0 0 0 
0.95067 0.27676 0.034576 0 0 0 
0.95306 0.5067 0.034576 0 0 0 
0.95578 0.50667 0.43139 0 0 0 
0.39254 0.39369 0.37365 0 0 0 
0.3925 0.29428 0.37372 0 0 0 
0.47003 0.29428 0.41534 0 0 0 
0.47008 0.39369 0.41526 0 0 0 
0.88905 0.2503 0.86234 0 0 0 
0.83264 0.18368 0.58745 0 0 0 
0.8778 0.14544 0.58745 0 0 0 
0.93421 0.21207 0.86234 0 0 0 
0.12032 0.52145 0.34589 0 0 0 
0.11924 0.52146 0.18959 0 0 0 
0.1154 0.15082 0.18959 0 0 0 
0.11647 0.15081 0.34589 0 0 0 
0.39745 0.14105 0.23277 0 0 0 
0.39746 0.14195 0.036679 0 0 0 
0.014952 0.14594 0.036679 0 0 0 
0.014943 0.14504 0.23277 0 0 0 
0.43398 0.41461 0.37781 0 0 0 
0.43399 0.41511 0.26831 0 0 0 
0.50417 0.41438 0.26831 0 0 0 
0.50417 0.41388 0.37781 0 0 0 
0.022476 0.21379 0.22796 0 0 0 
0.021335 0.2138 0.061832 0 0 0 
0.02053 0.13625 0.061832 0 0 0 
0.02167 0.13624 0.22796 0 0 0 
0.14885 0.44098 0.34358 0 0 0 
0.14885 0.44163 0.19673 0 0 0 
0.11031 0.44203 0.19673 0 0 0 
0.1103 0.44138 0.34358 0 0 0 
0.88714 0.19307 0.86358 0 0 0 
0.83808 0.2542 0.58751 0 0 0 
0.88361 0.29074 0.58751 0 0 0 
0.93267 0.22961 0.86358 0 0 0 
0.55438 0.59925 0.21241 0 0 0 
0.55296 0.59926 0.0054328 0 0 0 
0.55215 0.52128 0.0054328 0 0 0 
0.55357 0.52127 0.21241 0 0 0 
0.029078 0.54561 0.14807 0 0 0 
0.028271 0.54562 0.030264 0 0 0 
0.025111 0.24145 0.030264 0 0 0 
0.025918 0.24144 0.14807 0 0 0 
0.55316 0.22065 0.22395 0 0 0 
0.55255 0.069537 0.22276 0 0 0 
0.46489 0.069537 0.26774 0 0 0 
0.4655 0.22065 0.26893 0 0 0 
0.39563 0.33997 0.37636 0 0 0 
0.39677 0.33964 0.2855 0 0 0 
0.41144 0.39031 0.2855 0 0 0 
0.4103 0.39064 0.37636 0 0 0 
0.021319 0.53946 0.047849 0 0 0 
0.025084 0.46902 0.043202 0 0 0 
0.050894 0.46902 0.064115 0 0 0 
0.047129 0.53946 0.068762 0 0 0 
0.54729 0.15106 0.22443 0 0 0 
0.54604 0.15108 0.042082 0 0 0 
0.54522 0.072009 0.042082 0 0 0 
0.54647 0.071996 0.22443 0 0 0 
0.84008 0.27776 0.57291 0 0 0 
0.83896 0.15334 0.57315 0 0 0 
0.89556 0.15334 0.83888 0 0 0 
0.89669 0.27776 0.83864 0 0 0 
0.46878 0.41677 0.3388 0 0 0 
0.46236 0.36393 0.34485 0 0 0 
0.44124 0.36393 0.32244 0 0 0 
0.44766 0.41677 0.31639 0 0 0 
0.39875 0.14363 0.22785 0 0 0 
0.39742 0.14364 0.033227 0 0 0 
0.39662 0.067297 0.033227 0 0 0 
0.39796 0.067283 0.22785 0 0 0 
0.39752 0.34648 0.39306 0 0 0 
0.40298 0.25575 0.37361 0 0 0 
0.48992 0.25575 0.39801 0 0 0 
0.48446 0.34648 0.41746 0 0 0 
0.79593 0.52019 0.13228 0 0 0 
0.73161 0.52075 0.13282 0 0 0 
0.73161 0.50295 0.15138 0 0 0 
0.79593 0.50238 0.15083 0 0 0 
0.048552 0.5461 0.14526 0 0 0 
0.046436 0.54758 0.059735 0 0 0 
0.018665 0.50785 0.059735 0 0 0 
0.020781 0.50637 0.14526 0 0 0 
0.92921 0.23321 0.82691 0 0 0 
0.96582 0.1916 0.59762 0 0 0 
0.92294 0.15388 0.59762 0 0 0 
0.88634 0.19549 0.82691 0 0 0 
0.47774 0.59909 0.25288 0 0 0 
0.47768 0.44656 0.253 0 0 0 
0.39285 0.44656 0.20747 0 0 0 
0.39291 0.59909 0.20736 0 0 0 
0.75601 0.10208 0.04144 0 0 0 
0.57497 0.1019 0.042095 0 0 0 
0.57497 0.022668 0.019663 0 0 0 
0.75601 0.022853 0.019008 0 0 0 
0.93631 0.21673 0.84802 0 0 0 
0.95824 0.23513 0.59189 0 0 0 
0.92326 0.27683 0.59189 0 0 0 
0.90132 0.25843 0.84802 0 0 0 
0.1336 0.41032 0.33178 0 0 0 
0.13269 0.41033 0.19869 0 0 0 
0.12994 0.146 0.19869 0 0 0 
0.13085 0.14599 0.33178 0 0 0 
0.65391 0.52942 0.0094569 0 0 0 
0.55665 0.53053 0.0097188 0 0 0 
0.55665 0.51612 0.07057 0 0 0 
0.65391 0.51501 0.070308 0 0 0 
0.93018 0.17636 0.10629 0 0 0 
0.87771 0.17662 0.10615 0 0 0 
0.87771 0.13023 0.02417 0 0 0 
0.93018 0.12997 0.024316 0 0 0 
0.88483 0.19974 0.54441 0 0 0 
0.88484 0.20002 0.48246 0 0 0 
0.8407 0.20048 0.48246 0 0 0 
0.8407 0.2002 0.54441 0 0 0 
0.97347 0.2842 0.56552 0 0 0 
0.97211 0.15877 0.5652 0 0 0 
0.90697 0.15877 0.84439 0 0 0 
0.90833 0.2842 0.84471 0 0 0 
0.48186 0.38598 0.33741 0 0 0 
0.48409 0.38658 0.29605 0 0 0 
0.47646 0.41515 0.29605 0 0 0 
0.47423 0.41456 0.33741 0 0 0 
0.40067 0.28568 0.37672 0 0 0 
0.40022 0.28569 0.31121 0 0 0 
0.40099 0.35913 0.31121 0 0 0 
0.40144 0.35912 0.37672 0 0 0 
0.92624 0.17285 0.45466 0 0 0 
0.92579 0.17285 0.38857 0 0 0 
0.92558 0.153 0.38857 0 0 0 
0.92603 0.153 0.45466 0 0 0 
0.54125 0.3743 0.38267 0 0 0 
0.54071 0.37431 0.30418 0 0 0 
0.53988 0.29439 0.30418 0 0 0 
0.54042 0.29439 0.38267 0 0 0 
0.92919 0.25529 0.44426 0 0 0 
0.88544 0.25525 0.44442 0 0 0 
0.88544 0.28627 0.4532 0 0 0 
0.92919 0.28631 0.45305 0 0 0 
0.35266 0.14627 0.16682 0 0 0 
0.35116 0.14101 0.11435 0 0 0 
0.31802 0.15049 0.11435 0 0 0 
0.31952 0.15575 0.16682 0 0 0 
0.38708 0.2208 0.23047 0 0 0 
0.39112 0.066845 0.22224 0 0 0 
0.47754 0.066845 0.26469 0 0 0 
0.4735 0.2208 0.27293 0 0 0 
0.53442 0.35716 0.37939 0 0 0 
0.53708 0.35855 0.27392 0 0 0 
0.50418 0.42164 0.27392 0 0 0 
0.50152 0.42025 0.37938 0 0 0 
0.43858 0.24969 0.37838 0 0 0 
0.43858 0.25013 0.27968 0 0 0 
0.4996 0.24949 0.27968 0 0 0 
0.49959 0.24906 0.37838 0 0 0 
0.88187 0.17195 0.45221 0 0 0 
0.88142 0.17195 0.38557 0 0 0 
0.8812 0.15153 0.38557 0 0 0 
0.88166 0.15153 0.45221 0 0 0 
0.50962 0.25473 0.3793 0 0 0 
0.50744 0.2563 0.29173 0 0 0 
0.54476 0.30796 0.29173 0 0 0 
0.54694 0.30639 0.3793 0 0 0 
0.3758 0.52339 0.20187 0 0 0 
0.3803 0.51479 0.020217 0 0 0 
0.41605 0.53353 0.020217 0 0 0 
0.41154 0.54212 0.20187 0 0 0 
0.92151 0.2562 0.45364 0 0 0 
0.9224 0.25594 0.38318 0 0 0 
0.93082 0.28503 0.38318 0 0 0 
0.92993 0.28529 0.45364 0 0 0 
0.97142 0.24275 0.45479 0 0 0 
0.97135 0.24301 0.38526 0 0 0 
0.95022 0.23736 0.38526 0 0 0 
0.95029 0.23711 0.45479 0 0 0 
0.84942 0.19565 0.45284 0 0 0 
0.84896 0.19566 0.38563 0 0 0 
0.84948 0.24533 0.38563 0 0 0 
0.84994 0.24532 0.45284 0 0 0 
0.88329 0.20515 0.55601 0 0 0 
0.88272 0.20516 0.47349 0 0 0 
0.88217 0.15183 0.47349 0 0 0 
0.88274 0.15183 0.55601 0 0 0 
0.92499 0.20026 0.55153 0 0 0 
0.92444 0.20027 0.47101 0 0 0 
0.92395 0.15335 0.47101 0 0 0 
0.9245 0.15335 0.55153 0 0 0 
0.50819 0.42085 0.37042 0 0 0 
0.44772 0.42117 0.371 0 0 0 
0.44772 0.32701 0.42262 0 0 0 
0.50819 0.32669 0.42204 0 0 0 
0.41846 0.2572 0.37691 0 0 0 
0.4226 0.25831 0.30007 0 0 0 
0.41086 0.30228 0.30007 0 0 0 
0.40671 0.30117 0.37691 0 0 0 
0.13187 0.52168 0.24718 0 0 0 
0.13153 0.52169 0.19765 0 0 0 
0.13072 0.44418 0.19765 0 0 0 
0.13106 0.44417 0.24718 0 0 0 
0.47051 0.41318 0.39008 0 0 0 
0.46193 0.32321 0.41351 0 0 0 
0.3939 0.32321 0.38862 0 0 0 
0.40247 0.41318 0.36518 0 0 0 
0.93062 0.2349 0.77777 0 0 0 
0.96878 0.22057 0.61764 0 0 0 
0.9587 0.19373 0.61764 0 0 0 
0.92055 0.20806 0.77777 0 0 0 
0.92622 0.25771 0.45641 0 0 0 
0.92739 0.25881 0.39233 0 0 0 
0.90247 0.28548 0.39233 0 0 0 
0.9013 0.28439 0.45641 0 0 0 
0.91805 0.16931 0.63485 0 0 0 
0.91658 0.1748 0.33548 0 0 0 
0.83823 0.15389 0.33548 0 0 0 
0.83969 0.14839 0.63485 0 0 0 
0.8614 0.12807 0.057374 0 0 0 
0.8614 0.12821 0.02526 0 0 0 
0.9286 0.12751 0.02526 0 0 0 
0.9286 0.12737 0.057374 0 0 0 
0.47081 0.24299 0.3784 0 0 0 
0.47277 0.23926 0.29948 0 0 0 
0.53526 0.27201 0.29948 0 0 0 
0.5333 0.27575 0.3784 0 0 0 
0.97282 0.13234 0.56403 0 0 0 
0.9783 0.1338 0.46245 0 0 0 
0.96931 0.16746 0.46245 0 0 0 
0.96383 0.166 0.56403 0 0 0 
0.83968 0.23966 0.45329 0 0 0 
0.83968 0.23993 0.39414 0 0 0 
0.85662 0.23976 0.39414 0 0 0 
0.85662 0.23949 0.45329 0 0 0 
0.96057 0.21398 0.4509 0 0 0 
0.952 0.21398 0.45091 0 0 0 
0.952 0.20038 0.44346 0 0 0 
0.96057 0.20039 0.44345 0 0 0 
0.59538 0.50463 0.16903 0 0 0 
0.59402 0.50637 0.11111 0 0 0 
0.61495 0.52272 0.11111 0 0 0 
0.61631 0.52098 0.16903 0 0 0 
0.91911 0.24005 0.56973 0 0 0 
0.92425 0.1546 0.55141 0 0 0 
0.84464 0.1546 0.52907 0 0 0 
0.8395 0.24005 0.54738 0 0 0 
0.39684 0.59038 0.20806 0 0 0 
0.39611 0.52295 0.20787 0 0 0 
0.40826 0.52295 0.16302 0 0 0 
0.40899 0.59038 0.16322 0 0 0 
0.87677 0.2337 0.53369 0 0 0 
0.87472 0.22651 0.48254 0 0 0 
0.83843 0.23685 0.48254 0 0 0 
0.84048 0.24404 0.53369 0 0 0 
0.13195 0.40883 0.33588 0 0 0 
0.13292 0.41216 0.20082 0 0 0 
0.10902 0.41908 0.20082 0 0 0 
0.10806 0.41575 0.33588 0 0 0 
0.83919 0.1961 0.44963 0 0 0 
0.8392 0.19638 0.38441 0 0 0 
0.85769 0.19619 0.38441 0 0 0 
0.85769 0.1959 0.44963 0 0 0 
0.032942 0.32493 0.13861 0 0 0 
0.025924 0.32369 0.072285 0 0 0 
0.015072 0.3853 0.072285 0 0 0 
0.022089 0.38654 0.13861 0 0 0 
0.85744 0.2395 0.52321 0 0 0 
0.8571 0.20227 0.52328 0 0 0 
0.84736 0.20227 0.47753 0 0 0 
0.84769 0.2395 0.47746 0 0 0 
0.54201 0.53648 0.20912 0 0 0 
0.54289 0.53622 0.13894 0 0 0 
0.55312 0.57155 0.13894 0 0 0 
0.55223 0.57181 0.20912 0 0 0 
0.20424 0.51069 0.14563 0 0 0 
0.20396 0.51104 0.093075 0 0 0 
0.22216 0.52524 0.093075 0 0 0 
0.22244 0.52489 0.14563 0 0 0 
0.40943 0.38741 0.37692 0 0 0 
0.40889 0.3881 0.2733 0 0 0 
0.45164 0.42146 0.2733 0 0 0 
0.45218 0.42077 0.37692 0 0 0 
0.81392 0.53464 0.0060475 0 0 0 
0.67019 0.5354 0.0074341 0 0 0 
0.67019 0.51887 0.016449 0 0 0 
0.81392 0.51811 0.015062 0 0 0 
0.19064 0.51088 0.14193 0 0 0 
0.18884 0.5176 0.088447 0 0 0 
0.22069 0.52614 0.088447 0 0 0 
0.22249 0.51942 0.14193 0 0 0 
0.78629 0.14859 0.042297 0 0 0 
0.53825 0.14852 0.043881 0 0 0 
0.53825 0.032153 0.038814 0 0 0 
0.78629 0.032222 0.037229 0 0 0 
0.96994 0.23811 0.54695 0 0 0 
0.96994 0.23838 0.48537 0 0 0 
0.9327 0.23877 0.48537 0 0 0 
0.9327 0.2385 0.54695 0 0 0 
0.9119 0.18336 0.67507 0 0 0 
0.89834 0.18343 0.67503 0 0 0 
0.89834 0.19187 0.68995 0 0 0 
0.9119 0.1918 0.68999 0 0 0 
0.56012 0.57529 0.2042 0 0 0 
0.50973 0.56959 0.21713 0 0 0 
0.50973 0.59787 0.22961 0 0 0 
0.56012 0.60357 0.21668 0 0 0 
0.025745 0.1928 0.15748 0 0 0 
0.02641 0.1951 0.064377 0 0 0 
-0.0015671 0.2032 0.064377 0 0 0 
-0.0022323 0.2009 0.15748 0 0 0 
0.5439 0.0024865 0.026026 0 0 0 
0.44858 0.00246 0.026635 0 0 0 
0.44858 0.063298 0.029284 0 0 0 
0.5439 0.063324 0.028675 0 0 0 
0.58825 0.50731 0.16903 0 0 0 
0.58919 0.50807 0.11538 0 0 0 
0.57716 0.52283 0.11538 0 0 0 
0.57622 0.52206 0.16903 0 0 0 
0.8996 0.23244 0.54694 0 0 0 
0.84122 0.2331 0.5471 0 0 0 
0.84122 0.24475 0.49594 0 0 0 
0.8996 0.24409 0.49579 0 0 0 
0.55259 0.52033 0.19602 0 0 0 
0.55452 0.52084 0.064453 0 0 0 
0.54753 0.54702 0.064453 0 0 0 
0.5456 0.54651 0.19602 0 0 0 
0.9445 0.48668 0.18104 0 0 0 
0.94756 0.48926 0.008199 0 0 0 
0.92586 0.515 0.0081989 0 0 0 
0.9228 0.51242 0.18104 0 0 0 
0.87514 0.21054 0.69208 0 0 0 
0.87254 0.21003 0.66935 0 0 0 
0.86961 0.22514 0.66935 0 0 0 
0.87221 0.22565 0.69208 0 0 0 
0.94464 0.23531 0.52333 0 0 0 
0.95544 0.19189 0.52743 0 0 0 
0.97691 0.19189 0.47081 0 0 0 
0.96611 0.23531 0.46671 0 0 0 
0.93002 0.17645 0.54893 0 0 0 
0.88803 0.1768 0.54884 0 0 0 
0.88803 0.16217 0.48641 0 0 0 
0.93002 0.16182 0.4865 0 0 0 
0.92858 0.26767 0.54707 0 0 0 
0.92705 0.27339 0.4821 0 0 0 
0.86689 0.2573 0.4821 0 0 0 
0.86842 0.25158 0.54707 0 0 0 
0.20431 0.50868 0.143 0 0 0 
0.20515 0.50987 0.097439 0 0 0 
0.18221 0.52596 0.097439 0 0 0 
0.18137 0.52477 0.143 0 0 0 
0.44925 0.23996 0.37839 0 0 0 
0.45079 0.2414 0.29398 0 0 0 
0.42221 0.27199 0.29398 0 0 0 
0.42066 0.27055 0.37839 0 0 0 
0.87071 0.26856 0.62821 0 0 0 
0.8405 0.27608 0.62406 0 0 0 
0.8405 0.25772 0.5908 0 0 0 
0.87071 0.2502 0.59496 0 0 0 
0.41265 0.10742 0.20262 0 0 0 
0.41383 0.10806 0.1135 0 0 0 
0.39396 0.14485 0.1135 0 0 0 
0.39278 0.14421 0.20262 0 0 0 
0.96334 0.17129 0.62936 0 0 0 
0.96325 0.15554 0.62942 0 0 0 
0.93902 0.15554 0.59247 0 0 0 
0.9391 0.17129 0.59242 0 0 0 
0.41359 0.54559 0.20293 0 0 0 
0.4148 0.54672 0.13684 0 0 0 
0.39577 0.56709 0.13684 0 0 0 
0.39456 0.56596 0.20293 0 0 0 
0.87048 0.24874 0.57881 0 0 0 
0.87004 0.20757 0.57869 0 0 0 
0.87679 0.20757 0.55376 0 0 0 
0.87724 0.24874 0.55388 0 0 0 
0.57485 0.51994 0.047664 0 0 0 
0.57573 0.5204 0.012649 0 0 0 
0.55265 0.56466 0.012649 0 0 0 
0.55177 0.5642 0.047664 0 0 0 
0.90067 0.20373 0.71232 0 0 0 
0.90095 0.19907 0.71132 0 0 0 
0.91191 0.19907 0.7144 0 0 0 
0.91163 0.20373 0.7154 0 0 0 
0.8866 0.53148 0.0011491 0 0 0 
0.83684 0.53192 0.0015709 0 0 0 
0.83684 0.52262 0.011253 0 0 0 
0.8866 0.52218 0.010832 0 0 0 
0.92203 0.16577 0.53963 0 0 0 
0.89329 0.15987 0.54469 0 0 0 
0.89329 0.19109 0.58111 0 0 0 
0.92203 0.19699 0.57605 0 0 0 
0.9596 0.15565 0.52058 0 0 0 
0.9609 0.16016 0.33757 0 0 0 
0.98589 0.15293 0.33757 0 0 0 
0.98458 0.14842 0.52058 0 0 0 
0.40418 0.08851 0.22207 0 0 0 
0.33371 0.08849 0.22252 0 0 0 
0.33371 0.15576 0.22545 0 0 0 
0.40418 0.15578 0.225 0 0 0 
0.96936 0.19922 0.54038 0 0 0 
0.912 0.19916 0.54059 0 0 0 
0.912 0.23718 0.55135 0 0 0 
0.96936 0.23724 0.55114 0 0 0 
0.54425 0.096927 0.18111 0 0 0 
0.54613 0.097429 0.14627 0 0 0 
0.53975 0.12131 0.14627 0 0 0 
0.53787 0.1208 0.18111 0 0 0 
0.58283 0.010846 0.029663 0 0 0 
0.51802 0.019788 0.014362 0 0 0 
0.51802 0.061386 0.038673 0 0 0 
0.58283 0.052444 0.053974 0 0 0 
0.53071 0.25648 0.36577 0 0 0 
0.47416 0.25007 0.38027 0 0 0 
0.47416 0.32524 0.41348 0 0 0 
0.53071 0.33165 0.39898 0 0 0 
0.94996 0.52538 0.0052525 0 0 0 
0.94996 0.47946 0.0050461 0 0 0 
0.90612 0.47946 0.0053444 0 0 0 
0.90612 0.52538 0.0055508 0 0 0 
0.47865 0.24862 0.38233 0 0 0 
0.4446 0.24858 0.38245 0 0 0 
0.4446 0.30173 0.3975 0 0 0 
0.47865 0.30177 0.39738 0 0 0 
0.91007 0.15884 0.53737 0 0 0 
0.91055 0.16049 0.47044 0 0 0 
0.93126 0.15449 0.47044 0 0 0 
0.93079 0.15284 0.53737 0 0 0 
0.92253 0.15361 0.035607 0 0 0 
0.89393 0.14634 0.038192 0 0 0 
0.89393 0.17043 0.106 0 0 0 
0.92253 0.17771 0.10342 0 0 0 
0.83148 0.15943 0.24169 0 0 0 
0.72163 0.15998 0.24138 0 0 0 
0.72163 0.14644 0.21746 0 0 0 
0.83148 0.1459 0.21777 0 0 0 
0.49968 0.058837 0.033855 0 0 0 
0.44891 0.059105 0.034344 0 0 0 
0.44891 0.05115 0.038704 0 0 0 
0.49968 0.050882 0.038214 0 0 0 
0.59548 0.15763 0.16546 0 0 0 
0.59775 0.14956 0.10814 0 0 0 
0.57583 0.14339 0.10814 0 0 0 
0.57356 0.15146 0.16546 0 0 0 
0.89837 0.27542 0.55085 0 0 0 
0.89832 0.26625 0.55088 0 0 0 
0.88576 0.26625 0.53173 0 0 0 
0.88581 0.27542 0.5317 0 0 0 
0.91543 0.2434 0.53747 0 0 0 
0.9148 0.15602 0.53681 0 0 0 
0.88849 0.15602 0.56196 0 0 0 
0.88912 0.2434 0.56262 0 0 0 
0.53647 0.11699 0.20043 0 0 0 
0.53756 0.11667 0.11334 0 0 0 
0.54611 0.1462 0.11334 0 0 0 
0.54502 0.14652 0.20043 0 0 0 
0.84201 0.19261 0.54114 0 0 0 
0.83984 0.2007 0.47652 0 0 0 
0.89417 0.21526 0.47652 0 0 0 
0.89634 0.20717 0.54114 0 0 0 
0.95139 0.23681 0.4559 0 0 0 
0.95369 0.23802 0.389 0 0 0 
0.96611 0.2145 0.389 0 0 0 
0.96381 0.21328 0.4559 0 0 0 
0.89379 0.15191 0.10896 0 0 0 
0.89441 0.15173 0.059602 0 0 0 
0.9012 0.17516 0.059602 0 0 0 
0.90057 0.17534 0.10896 0 0 0 
0.98084 0.28992 0.13262 0 0 0 
0.98039 0.2905 0.045405 0 0 0 
0.96825 0.28103 0.045405 0 0 0 
0.96871 0.28045 0.13262 0 0 0 
0.92167 0.18271 0.57858 0 0 0 
0.89647 0.183 0.57865 0 0 0 
0.89647 0.18074 0.58823 0 0 0 
0.92167 0.18045 0.58816 0 0 0 
0.4571 0.27687 0.34086 0 0 0 
0.457 0.27687 0.32697 0 0 0 
0.45693 0.27034 0.32697 0 0 0 
0.45703 0.27034 0.34086 0 0 0 
0.94368 0.22724 0.51148 0 0 0 
0.94345 0.20225 0.51153 0 0 0 
0.9392 0.20225 0.49156 0 0 0 
0.93942 0.22724 0.49152 0 0 0 
0.95867 0.36549 0.17385 0 0 0 
0.95156 0.36377 0.12217 0 0 0 
0.96984 0.28856 0.12217 0 0 0 
0.97695 0.29029 0.17385 0 0 0 
0.35671 0.50953 0.12546 0 0 0 
0.3386 0.50969 0.12561 0 0 0 
0.3386 0.51549 0.11956 0 0 0 
0.35671 0.51533 0.11941 0 0 0 
0.81936 0.097507 0.025591 0 0 0 
0.79536 0.097501 0.025744 0 0 0 
0.79536 0.14366 0.027754 0 0 0 
0.81936 0.14366 0.0276 0 0 0 
0.89328 0.18616 0.49746 0 0 0 
0.89352 0.18628 0.48798 0 0 0 
0.89803 0.17763 0.48798 0 0 0 
0.89779 0.17751 0.49746 0 0 0 
4 0 1 2 3
4 4 5 6 7
4 8 9 10 11
4 12 13 14 15
4 16 17 18 19
4 20 21 22 23
4 24 25 26 27
4 28 29 30 31
4 32 33 34 35
4 36 37 38 39
4 40 41 42 43
4 44 45 46 47
4 48 49 50 51
4 52 53 54 55
4 56 57 58 59
4 60 61 62 63
4 64 65 66 67
4 68 69 70 71
4 72 73 74 75
4 76 77 78 79
4 80 81 82 83
4 84 85 86 87
4 88 89 90 91
4 92 93 94 95
4 96 97 98 99
4 100 101 102 103
4 104 105 106 107
4 108 109 110 111
4 112 113 114 115
4 116 117 118 119
4 120 121 122 123
4 124 125 126 127
4 128 129 130 131
4 132 133 134 135
4 136 137 138 139
4 140 141 142 143
4 144 145 146 147
4 148 149 150 151
4 152 153 154 155
4 156 157 158 159
4 160 161 162 163
4 164 165 166 167
4 168 169 170 171
4 172 173 174 175
4 176 177 178 179
4 180 181 182 183
4 184 185 186 187
4 188 189 190 191
4 192 193 194 195
4 196 197 198 199
4 200 201 202 203
4 204 205 206 207
4 208 209 210 211
4 212 213 214 215
4 216 217 218 219
4 220 221 222 223
4 224 225 226 227
4 228 229 230 231
4 232 233 234 235
4 236 237 238 239
4 240 241 242 243
4 244 245 246 247
4 248 249 250 251
4 252 253 254 255
4 256 257 258 259
4 260 261 262 263
4 264 265 266 267
4 268 269 270 271
4 272 273 274 275
4 276 277 278 279
4 280 281 282 283
4 284 285 286 287
4 288 289 290 291
4 292 293 294 295
4 296 297 298 299
4 300 301 302 303
4 304 305 306 307
4 308 309 310 311
4 312 313 314 315
4 316 317 318 319
4 320 321 322 323
4 324 325 326 327
4 328 329 330 331
4 332 333 334 335
4 336 337 338 339
4 340 341 342 343
4 344 345 346 347
4 348 349 350 351
4 352 353 354 355
4 356 357 358 359
4 360 361 362 363
4 364 365 366 367
4 368 369 370 371
4 372 373 374 375
4 376 377 378 379
4 380 381 382 383
4 384 385 386 387
4 388 389 390 391
4 392 393 394 395
4 396 397 398 399
4 400 401 402 403
4 404 405 406 407
4 408 409 410 411
4 412 413 414 415
4 416 417 418 419
4 420 421 422 423
4 424 425 426 427
4 428 429 430 431
4 432 433 434 435
4 436 437 438 439
4 440 441 442 443
4 444 445 446 447
4 448 449 450 451
4 452 453 454 455
4 456 457 458 459
4 460 461 462 463
4 464 465 466 467
4 468 469 470 471
4 472 473 474 475
4 476 477 478 479
4 480 481 482 483
4 484 485 486 487
4 488 489 490 491
4 492 493 494 495
4 496 497 498 499
4 500 501 502 503
4 504 505 506 507
4 508 509 510 511
4 512 513 514 515
4 516 517 518 519
4 520 521 522 523
4 524 525 526 527
4 528 529 530 531
4 532 533 534 535
4 536 537 538 539
4 540 541 542 543
4 544 545 546 547
4 548 549 550 551
4 552 553 554 555
4 556 557 558 559
4 560 561 562 563
4 564 565 566 567
