ply
format ascii 1.0
comment PCL generated
element vertex 185
property float x
property float y
property float z
property uchar red
property uchar green
property uchar blue
element face 14
property list uchar int vertex_indices
end_header
-0.50431 -0.12325 1.3218 0 0 0 
-0.50875 -0.35536 1.487 0 0 0 
-0.50964 -0.48182 1.5743 0 0 0 
-0.50716 -0.58025 1.6364 0 0 0 
-0.49743 -0.60213 1.6336 0 0 0 
-0.45411 -0.64025 1.5804 0 0 0 
-0.36453 -0.59777 1.3885 0 0 0 
-0.35299 -0.47417 1.2838 0 0 0 
-0.34289 -0.36247 1.1897 0 0 0 
-0.34687 -0.20509 1.0904 0 0 0 
-0.36473 0.04415 0.95415 0 0 0 
-0.38769 0.16644 0.91315 0 0 0 
-0.40106 0.18581 0.92439 0 0 0 
-0.42343 0.16474 0.97941 0 0 0 
-0.4347 0.13801 1.018 0 0 0 
-0.49638 -0.061232 1.2653 0 0 0 
-0.50314 -0.085795 1.2943 0 0 0 
-0.50401 -0.095478 1.3024 0 0 0 
-0.63611 -0.69666 1.5936 0 0 0 
-0.64185 -0.65192 1.5603 0 0 0 
-0.63331 -0.61254 1.5386 0 0 0 
-0.623 -0.56893 1.515 0 0 0 
-0.60538 -0.49774 1.4769 0 0 0 
-0.5267 -0.23714 1.3454 0 0 0 
-0.50196 -0.1513 1.3014 0 0 0 
-0.49701 -0.13543 1.2935 0 0 0 
-0.49015 -0.13413 1.2965 0 0 0 
-0.48767 -0.13419 1.2979 0 0 0 
-0.48307 -0.13517 1.3011 0 0 0 
-0.48231 -0.15901 1.3176 0 0 0 
-0.4822 -0.27591 1.3963 0 0 0 
-0.47812 -0.51057 1.5564 0 0 0 
-0.47694 -0.57361 1.5995 0 0 0 
-0.4779 -0.66927 1.6633 0 0 0 
-0.5246 -0.68077 1.645 0 0 0 
-0.58739 -0.69457 1.6194 0 0 0 
-1.0249 -1.3415 3.2692 0 0 0 
-1.1439 -1.3752 3.3248 0 0 0 
-1.1492 -1.3657 3.2979 0 0 0 
-1.0679 -1.3466 3.2706 0 0 0 
-0.97868 -1.332 3.2556 0 0 0 
-0.9258 -1.2716 3.2046 0 0 0 
-0.95245 -1.3057 3.27 0 0 0 
-0.97197 -1.3276 3.2844 0 0 0 
-0.94716 -1.2006 2.9884 0 0 0 
-0.87175 -1.2355 3.0288 0 0 0 
-0.9079 -1.179 2.9898 0 0 0 
-0.92818 -1.1654 2.9768 0 0 0 
-0.94026 -1.1682 2.9745 0 0 0 
-0.36189 0.31584 0.88993 0 0 0 
-0.35578 0.34095 0.87989 0 0 0 
-0.33481 0.34577 0.89462 0 0 0 
-0.23666 0.36378 0.96631 0 0 0 
-0.19299 0.3722 0.99797 0 0 0 
-0.18182 0.37323 1.0067 0 0 0 
-0.17549 0.37113 1.0133 0 0 0 
-0.16945 0.367 1.0209 0 0 0 
-0.15839 0.30751 1.0662 0 0 0 
-0.15624 0.18278 1.1435 0 0 0 
-0.15523 0.12298 1.1805 0 0 0 
-0.14621 -0.18934 1.377 0 0 0 
-0.11805 -0.68572 1.7009 0 0 0 
-0.31129 -0.63012 1.5047 0 0 0 
-0.38059 -0.60658 1.4321 0 0 0 
-0.38653 -0.59847 1.4222 0 0 0 
-0.40442 -0.18657 1.158 0 0 0 
-0.40549 -0.10514 1.1079 0 0 0 
-0.40182 -0.023545 1.0616 0 0 0 
-0.37289 0.22723 0.93428 0 0 0 
-0.34754 -1.3544 3.4165 0 0 0 
-0.35491 -1.3087 3.3437 0 0 0 
-0.29368 -1.3217 3.3828 0 0 0 
-0.33626 -1.3495 3.4125 0 0 0 
-0.054142 0.28112 0.88127 0 0 0 
-0.030253 -0.24074 1.1509 0 0 0 
-0.029666 -0.37302 1.2313 0 0 0 
-0.029802 -0.39185 1.2432 0 0 0 
-0.038799 -0.5175 1.3406 0 0 0 
-0.040969 -0.52696 1.3512 0 0 0 
-0.048218 -0.5439 1.3777 0 0 0 
-0.070256 -0.57452 1.4452 0 0 0 
-0.11472 -0.62478 1.5743 0 0 0 
-0.12878 -0.64071 1.6151 0 0 0 
-0.14422 -0.62223 1.6377 0 0 0 
-0.14751 -0.56056 1.6069 0 0 0 
-0.14735 -0.45604 1.542 0 0 0 
-0.14872 -0.26434 1.4266 0 0 0 
-0.14742 -0.0089477 1.2661 0 0 0 
-0.1504 0.25736 1.1082 0 0 0 
-0.14958 0.35032 1.049 0 0 0 
-0.1465 0.37637 1.0261 0 0 0 
-0.1387 0.37522 1.0096 0 0 0 
-0.13469 0.37229 1.0026 0 0 0 
-0.083503 0.33427 0.91318 0 0 0 
-0.073253 0.32634 0.89548 0 0 0 
-0.061266 0.31108 0.87848 0 0 0 
-0.055437 0.29347 0.8765 0 0 0 
0.047212 -0.6241 1.5247 0 0 0 
0.15748 -0.65665 1.6194 0 0 0 
0.16922 -0.64987 1.623 0 0 0 
0.18887 -0.63131 1.6246 0 0 0 
0.19956 -0.56812 1.592 0 0 0 
0.20844 -0.42036 1.505 0 0 0 
0.20298 0.016546 1.2264 0 0 0 
0.20368 0.19714 1.1132 0 0 0 
0.20323 0.34584 1.0193 0 0 0 
0.19703 0.36928 1.0004 0 0 0 
0.19637 0.37043 0.99924 0 0 0 
0.17732 0.36725 0.98842 0 0 0 
-0.031123 0.32254 0.87627 0 0 0 
-0.058291 0.31475 0.86288 0 0 0 
-0.06503 0.30232 0.86617 0 0 0 
-0.065066 0.19596 0.93308 0 0 0 
-0.064254 0.07557 1.0094 0 0 0 
-0.065119 -0.10777 1.1242 0 0 0 
-0.067641 -0.27182 1.2257 0 0 0 
-0.050199 -0.53944 1.4059 0 0 0 
-0.046771 -0.55505 1.418 0 0 0 
0.24599 -0.60422 1.4772 0 0 0 
0.17568 -0.66161 1.6404 0 0 0 
0.17066 -0.62738 1.6319 0 0 0 
0.16899 -0.58885 1.6148 0 0 0 
0.1862 -0.24331 1.4004 0 0 0 
0.19445 -0.050772 1.2835 0 0 0 
0.20684 0.22244 1.1162 0 0 0 
0.21379 0.37891 1.0207 0 0 0 
0.22205 0.37481 1.0072 0 0 0 
0.3003 0.33616 0.87949 0 0 0 
0.30173 0.33545 0.87715 0 0 0 
0.32115 0.31364 0.85188 0 0 0 
0.32386 0.28436 0.86216 0 0 0 
0.32189 -0.087785 1.0617 0 0 0 
0.31063 -0.30898 1.1995 0 0 0 
0.29759 -0.46714 1.3074 0 0 0 
0.28874 -0.54516 1.3652 0 0 0 
0.26033 -0.58483 1.4398 0 0 0 
0.29412 0.31692 0.8443 0 0 0 
0.30013 0.32715 0.84208 0 0 0 
0.30451 0.3285 0.84438 0 0 0 
0.34042 0.33667 0.86516 0 0 0 
0.3724 0.32346 0.89684 0 0 0 
0.48637 -0.093073 1.2473 0 0 0 
0.52152 -0.23469 1.3638 0 0 0 
0.53538 -0.2882 1.4083 0 0 0 
0.54288 -0.32426 1.4369 0 0 0 
0.54909 -0.36613 1.4683 0 0 0 
0.55692 -0.54815 1.591 0 0 0 
0.55453 -0.58331 1.6119 0 0 0 
0.53888 -0.67454 1.6592 0 0 0 
0.48428 -0.68204 1.6245 0 0 0 
0.42947 -0.66396 1.5731 0 0 0 
0.30132 -0.61258 1.4472 0 0 0 
0.28733 -0.57828 1.415 0 0 0 
0.28593 -0.55625 1.3998 0 0 0 
0.28544 -0.54229 1.3905 0 0 0 
0.28534 -0.46932 1.3435 0 0 0 
0.28026 -0.15917 1.1404 0 0 0 
0.28234 0.18719 0.91917 0 0 0 
0.28281 0.22128 0.8976 0 0 0 
0.28406 0.29318 0.85227 0 0 0 
0.59742 -0.5312 1.4718 0 0 0 
0.56853 -0.36173 1.4301 0 0 0 
0.54928 -0.34099 1.4467 0 0 0 
0.54735 -0.34623 1.4519 0 0 0 
0.52781 -0.47025 1.5387 0 0 0 
0.5152 -0.60473 1.6209 0 0 0 
0.51731 -0.66447 1.6468 0 0 0 
0.5337 -0.72541 1.6535 0 0 0 
0.59705 -0.65104 1.53 0 0 0 
0.60396 -0.59153 1.4918 0 0 0 
-0.48233 -0.56826 1.562 0 0 0 
-0.64353 -0.65599 1.603 0 0 0 
-0.65123 -0.64237 1.5886 0 0 0 
-0.62393 -0.57624 1.5345 0 0 0 
-0.61609 -0.55702 1.5187 0 0 0 
-0.59556 -0.50638 1.4772 0 0 0 
-0.55273 -0.39893 1.3889 0 0 0 
-0.53598 -0.35676 1.3543 0 0 0 
-0.45579 -0.53785 1.5405 0 0 0 
-0.035935 -0.46562 1.2962 0 0 0 
-0.039797 -0.35401 1.2787 0 0 0 
-0.02923 -0.3932 1.3408 0 0 0 
-0.027555 -0.40132 1.3505 0 0 0 
-0.023675 -0.52136 1.3676 0 0 0 
-0.024199 -0.51951 1.3645 0 0 0 
18 0 1 2 3 4 5 6 7 8 9 10 11 12 13 14 15 16 17
18 18 19 20 21 22 23 24 25 26 27 28 29 30 31 32 33 34 35
4 36 37 38 39
4 40 41 42 43
5 44 45 46 47 48
20 49 50 51 52 53 54 55 56 57 58 59 60 61 62 63 64 65 66 67 68
4 69 70 71 72
24 73 74 75 76 77 78 79 80 81 82 83 84 85 86 87 88 89 90 91 92 93 94 95 96
21 97 98 99 100 101 102 103 104 105 106 107 108 109 110 111 112 113 114 115 116 117
18 118 119 120 121 122 123 124 125 126 127 128 129 130 131 132 133 134 135
24 136 137 138 139 140 141 142 143 144 145 146 147 148 149 150 151 152 153 154 155 156 157 158 159
10 160 161 162 163 164 165 166 167 168 169
9 170 171 172 173 174 175 176 177 178
6 179 180 181 182 183 184
