ply
format ascii 1.0
comment PCL generated
element vertex 159
property float x
property float y
property float z
property uchar red
property uchar green
property uchar blue
element face 11
property list uchar int vertex_indices
end_header
-0.50111 -0.58301 1.6375 0 0 0 
-0.49206 -0.60621 1.6352 0 0 0 
-0.4523 -0.63944 1.5815 0 0 0 
-0.36513 -0.59462 1.3897 0 0 0 
-0.32473 -0.31853 1.1399 0 0 0 
-0.3458 0.045466 0.95003 0 0 0 
-0.3731 0.17228 0.92135 0 0 0 
-0.38594 0.19205 0.93297 0 0 0 
-0.41805 0.18304 0.99892 0 0 0 
-0.48335 -0.056543 1.2724 0 0 0 
-0.49034 -0.08133 1.3012 0 0 0 
-0.49134 -0.091129 1.3092 0 0 0 
-0.49217 -0.11898 1.3283 0 0 0 
-0.49456 -0.19868 1.383 0 0 0 
-0.50061 -0.3526 1.4914 0 0 0 
-0.50259 -0.48228 1.5768 0 0 0 
-0.62378 -0.70201 1.5858 0 0 0 
-0.57953 -0.69691 1.616 0 0 0 
-0.51971 -0.67828 1.6488 0 0 0 
-0.47635 -0.66359 1.6718 0 0 0 
-0.4843 -0.2722 1.4018 0 0 0 
-0.48333 -0.15504 1.3235 0 0 0 
-0.48532 -0.13171 1.3063 0 0 0 
-0.49014 -0.13056 1.3018 0 0 0 
-0.49811 -0.13288 1.2973 0 0 0 
-0.50366 -0.1494 1.3043 0 0 0 
-0.52904 -0.23769 1.3446 0 0 0 
-0.60586 -0.50479 1.4664 0 0 0 
-0.62378 -0.58758 1.5086 0 0 0 
-0.6334 -0.65917 1.5496 0 0 0 
-1.045 -1.4195 3.484 0 0 0 
-1.2111 -1.4142 3.433 0 0 0 
-1.1588 -1.307 3.2059 0 0 0 
-0.93083 -1.2797 3.1987 0 0 0 
-0.95174 -1.3125 3.267 0 0 0 
-0.97517 -1.3476 3.34 0 0 0 
-0.94216 -1.2051 2.9818 0 0 0 
-0.93424 -1.1735 2.9666 0 0 0 
-0.9248 -1.169 2.9707 0 0 0 
-0.90961 -1.1787 2.9888 0 0 0 
-0.88186 -1.2265 3.0421 0 0 0 
-0.40908 -0.097443 1.1125 0 0 0 
-0.40704 -0.20295 1.1784 0 0 0 
-0.40228 -0.31716 1.2516 0 0 0 
-0.39284 -0.595 1.4281 0 0 0 
-0.38703 -0.60342 1.4375 0 0 0 
-0.32012 -0.62863 1.5023 0 0 0 
-0.11402 -0.69102 1.6924 0 0 0 
-0.14075 -0.19397 1.3694 0 0 0 
-0.14944 0.11812 1.1725 0 0 0 
-0.15034 0.17787 1.1354 0 0 0 
-0.15184 0.26267 1.0826 0 0 0 
-0.15228 0.30247 1.058 0 0 0 
-0.16379 0.36217 1.013 0 0 0 
-0.16928 0.3668 1.0062 0 0 0 
-0.17551 0.37025 0.99945 0 0 0 
-0.18698 0.36863 0.99197 0 0 0 
-0.23244 0.36166 0.96269 0 0 0 
-0.33533 0.34661 0.89595 0 0 0 
-0.35535 0.34278 0.88352 0 0 0 
-0.35807 0.34214 0.88191 0 0 0 
-0.36116 0.33694 0.8828 0 0 0 
-0.36351 0.31764 0.89284 0 0 0 
-0.37461 0.22974 0.93829 0 0 0 
-0.40702 -0.020343 1.067 0 0 0 
-0.38171 -1.328 3.3031 0 0 0 
-0.31579 -1.2636 3.1988 0 0 0 
-0.28983 -1.2658 3.2485 0 0 0 
-0.28508 -1.2808 3.3061 0 0 0 
-0.28914 -1.295 3.3461 0 0 0 
-0.29864 -1.3118 3.3859 0 0 0 
-0.31887 -1.3326 3.4213 0 0 0 
-0.3469 -1.3472 3.4236 0 0 0 
-0.36083 -1.347 3.4002 0 0 0 
-0.15041 -0.56174 1.6051 0 0 0 
-0.15646 -0.30683 1.4558 0 0 0 
-0.15775 0.25486 1.1042 0 0 0 
-0.15746 0.34789 1.0451 0 0 0 
-0.15384 0.37376 1.022 0 0 0 
-0.14641 0.3742 1.0077 0 0 0 
-0.14184 0.37141 1.0009 0 0 0 
-0.05906 0.32045 0.8777 0 0 0 
-0.033235 0.30052 0.8418 0 0 0 
-0.016347 -0.15543 1.0975 0 0 0 
-0.011778 -0.47025 1.2873 0 0 0 
-0.03078 -0.52362 1.3566 0 0 0 
-0.038805 -0.54088 1.3825 0 0 0 
-0.063082 -0.57273 1.4481 0 0 0 
-0.076548 -0.58673 1.4822 0 0 0 
-0.11302 -0.62465 1.5745 0 0 0 
-0.12881 -0.6411 1.6145 0 0 0 
-0.14619 -0.62337 1.636 0 0 0 
-0.14704 -0.61193 1.6304 0 0 0 
0.048341 -0.62368 1.5254 0 0 0 
0.15523 -0.65378 1.624 0 0 0 
0.16658 -0.64675 1.628 0 0 0 
0.18578 -0.62772 1.6303 0 0 0 
0.19304 -0.59041 1.6122 0 0 0 
0.19603 -0.56436 1.598 0 0 0 
0.20474 -0.44234 1.5275 0 0 0 
0.20475 -0.41646 1.5112 0 0 0 
0.19944 0.020079 1.232 0 0 0 
0.20011 0.20058 1.1187 0 0 0 
0.19957 0.34915 1.0246 0 0 0 
0.19354 0.37243 1.0054 0 0 0 
0.19264 0.37349 1.0041 0 0 0 
0.17381 0.36977 0.9924 0 0 0 
-0.02928 0.32015 0.87245 0 0 0 
-0.05504 0.31195 0.85844 0 0 0 
-0.06245 0.2991 0.86103 0 0 0 
-0.06316 0.22423 0.90771 0 0 0 
-0.061599 0.072527 1.0045 0 0 0 
-0.062697 -0.11081 1.1193 0 0 0 
-0.065266 -0.27486 1.2209 0 0 0 
-0.054002 -0.44729 1.338 0 0 0 
-0.048259 -0.54191 1.4019 0 0 0 
-0.04378 -0.55707 1.4148 0 0 0 
0.32854 -0.087086 1.0555 0 0 0 
0.32588 0.31256 0.82485 0 0 0 
0.30256 0.32882 0.85818 0 0 0 
0.23888 0.35877 0.95772 0 0 0 
0.21091 0.37193 1.0014 0 0 0 
0.2025 0.37566 1.0147 0 0 0 
0.19939 0.22003 1.1121 0 0 0 
0.19344 -0.051124 1.2829 0 0 0 
0.18989 -0.24255 1.4023 0 0 0 
0.18104 -0.58604 1.621 0 0 0 
0.18382 -0.62457 1.6386 0 0 0 
0.18985 -0.65864 1.6476 0 0 0 
0.20985 -0.65099 1.6063 0 0 0 
0.30194 -0.56828 1.3881 0 0 0 
0.3177 -0.42484 1.2745 0 0 0 
0.32154 -0.33309 1.2134 0 0 0 
0.3274 -0.20786 1.1288 0 0 0 
0.29769 0.31365 0.83909 0 0 0 
0.30371 0.3239 0.83692 0 0 0 
0.30804 0.32528 0.83928 0 0 0 
0.34375 0.33373 0.86062 0 0 0 
0.37567 0.32082 0.89309 0 0 0 
0.50688 -0.14558 1.2969 0 0 0 
0.53597 -0.24702 1.3852 0 0 0 
0.54708 -0.36457 1.4704 0 0 0 
0.55434 -0.54589 1.5945 0 0 0 
0.55198 -0.58096 1.6157 0 0 0 
0.53632 -0.67201 1.6635 0 0 0 
0.48219 -0.67998 1.6279 0 0 0 
0.42839 -0.6625 1.576 0 0 0 
0.30166 -0.61246 1.4479 0 0 0 
0.25589 -0.5083 1.3453 0 0 0 
0.26138 -0.17597 1.1321 0 0 0 
0.28748 0.28993 0.84693 0 0 0 
0.60532 -0.65777 1.5415 0 0 0 
0.56049 -0.71859 1.6837 0 0 0 
0.54233 -0.65692 1.6699 0 0 0 
0.5356 -0.59736 1.6345 0 0 0 
0.51528 -0.33248 1.4574 0 0 0 
0.54516 -0.34294 1.4047 0 0 0 
0.60356 -0.55889 1.4634 0 0 0 
0.6085 -0.62105 1.5046 0 0 0 
16 0 1 2 3 4 5 6 7 8 9 10 11 12 13 14 15
14 16 17 18 19 20 21 22 23 24 25 26 27 28 29
6 30 31 32 33 34 35
5 36 37 38 39 40
24 41 42 43 44 45 46 47 48 49 50 51 52 53 54 55 56 57 58 59 60 61 62 63 64
9 65 66 67 68 69 70 71 72 73
19 74 75 76 77 78 79 80 81 82 83 84 85 86 87 88 89 90 91 92
24 93 94 95 96 97 98 99 100 101 102 103 104 105 106 107 108 109 110 111 112 113 114 115 116
17 117 118 119 120 121 122 123 124 125 126 127 128 129 130 131 132 133
17 134 135 136 137 138 139 140 141 142 143 144 145 146 147 148 149 150
8 151 152 153 154 155 156 157 158
