ply
format ascii 1.0
comment PCL generated
element vertex 163
property float x
property float y
property float z
property uchar red
property uchar green
property uchar blue
element face 11
property list uchar int vertex_indices
end_header
0.18136 0.45113 0.13054 0 0 0 
0.1831 0.44474 0.13096 0 0 0 
0.18485 0.40244 0.15233 0 0 0 
0.18349 0.36659 0.17582 0 0 0 
0.18344 0.36532 0.17666 0 0 0 
0.17953 0.3313 0.2039 0 0 0 
0.17825 0.32515 0.20991 0 0 0 
0.17389 0.32003 0.22113 0 0 0 
0.17059 0.31722 0.22901 0 0 0 
0.16277 0.31657 0.24417 0 0 0 
0.1595 0.32081 0.24788 0 0 0 
0.15816 0.32328 0.24896 0 0 0 
0.15596 0.3291 0.24973 0 0 0 
0.15081 0.35583 0.24387 0 0 0 
0.15015 0.36055 0.24235 0 0 0 
0.15011 0.3701 0.23685 0 0 0 
0.15309 0.42621 0.19849 0 0 0 
0.15334 0.42832 0.19679 0 0 0 
0.15491 0.43366 0.19069 0 0 0 
0.16914 0.47691 0.13858 0 0 0 
0.17732 0.46259 0.13148 0 0 0 
0.17887 0.45983 0.13015 0 0 0 
0.18134 0.51324 0.1091 0 0 0 
0.17158 0.44707 0.1438 0 0 0 
0.17084 0.42695 0.15597 0 0 0 
0.17079 0.4252 0.15704 0 0 0 
0.1707 0.40755 0.16811 0 0 0 
0.17106 0.38166 0.18472 0 0 0 
0.1717 0.37025 0.19239 0 0 0 
0.17207 0.36381 0.19672 0 0 0 
0.17438 0.3251 0.22282 0 0 0 
0.18003 0.32015 0.23004 0 0 0 
0.19002 0.31231 0.24222 0 0 0 
0.21422 0.3058 0.26386 0 0 0 
0.22584 0.30485 0.27287 0 0 0 
0.23197 0.30695 0.27598 0 0 0 
0.22641 0.52497 0.13433 0 0 0 
0.22281 0.52457 0.13198 0 0 0 
0.18743 0.51935 0.10965 0 0 0 
0.18399 0.51845 0.10773 0 0 0 
0.18198 0.51573 0.10799 0 0 0 
0.22546 0.48457 0.16486 0 0 0 
0.22365 0.37998 0.2293 0 0 0 
0.22452 0.33209 0.25559 0 0 0 
0.22642 0.31893 0.25968 0 0 0 
0.23128 0.31299 0.25398 0 0 0 
0.2336 0.31386 0.24908 0 0 0 
0.23956 0.31985 0.23433 0 0 0 
0.25015 0.33068 0.20799 0 0 0 
0.25134 0.34282 0.19867 0 0 0 
0.25329 0.36285 0.18328 0 0 0 
0.2528 0.43035 0.14483 0 0 0 
0.25005 0.51009 0.1035 0 0 0 
0.24993 0.5107 0.10337 0 0 0 
0.24881 0.51317 0.10404 0 0 0 
0.24559 0.5152 0.10895 0 0 0 
0.23207 0.52335 0.12975 0 0 0 
0.22682 0.52609 0.13806 0 0 0 
0.22607 0.5257 0.13972 0 0 0 
0.22596 0.52051 0.14294 0 0 0 
0.25218 0.51421 0.10548 0 0 0 
0.30147 0.52669 0.13329 0 0 0 
0.30218 0.52645 0.13396 0 0 0 
0.30265 0.52603 0.13456 0 0 0 
0.30371 0.52502 0.13597 0 0 0 
0.30393 0.52429 0.13659 0 0 0 
0.30427 0.50548 0.1487 0 0 0 
0.30297 0.41007 0.20799 0 0 0 
0.30206 0.36762 0.23412 0 0 0 
0.30128 0.32417 0.26099 0 0 0 
0.29803 0.31743 0.2629 0 0 0 
0.29551 0.31265 0.26408 0 0 0 
0.29084 0.31142 0.26148 0 0 0 
0.27864 0.31195 0.25231 0 0 0 
0.26872 0.3126 0.24472 0 0 0 
0.2529 0.32494 0.22547 0 0 0 
0.24929 0.32953 0.21996 0 0 0 
0.24895 0.34212 0.21177 0 0 0 
0.24544 0.45505 0.13794 0 0 0 
0.24521 0.4614 0.13376 0 0 0 
0.24516 0.50595 0.10561 0 0 0 
0.24659 0.51248 0.10252 0 0 0 
0.32781 0.50697 0.099023 0 0 0 
0.32812 0.40137 0.16004 0 0 0 
0.32408 0.34688 0.19946 0 0 0 
0.32257 0.33028 0.212 0 0 0 
0.3222 0.328 0.21403 0 0 0 
0.32112 0.32585 0.21733 0 0 0 
0.31733 0.32075 0.22748 0 0 0 
0.31478 0.31862 0.23353 0 0 0 
0.29902 0.30532 0.27107 0 0 0 
0.2971 0.3135 0.26993 0 0 0 
0.29723 0.32082 0.26541 0 0 0 
0.2978 0.352 0.24615 0 0 0 
0.3048 0.52493 0.13201 0 0 0 
0.32608 0.51481 0.097708 0 0 0 
0.33187 0.33005 0.22191 0 0 0 
0.3356 0.33174 0.22642 0 0 0 
0.33682 0.33332 0.23278 0 0 0 
0.33096 0.33314 0.23735 0 0 0 
0.32074 0.33052 0.23451 0 0 0 
0.32093 0.32902 0.22724 0 0 0 
0.32237 0.32856 0.22371 0 0 0 
0.32604 0.32787 0.21704 0 0 0 
0.32736 0.32819 0.2173 0 0 0 
0.33961 0.5074 0.11678 0 0 0 
0.37706 0.36904 0.23123 0 0 0 
0.38026 0.32491 0.26141 0 0 0 
0.38126 0.30528 0.27452 0 0 0 
0.36634 0.30272 0.26534 0 0 0 
0.35215 0.30636 0.25276 0 0 0 
0.34029 0.31107 0.2412 0 0 0 
0.33035 0.31977 0.22851 0 0 0 
0.3229 0.33368 0.21434 0 0 0 
0.3196 0.34803 0.20289 0 0 0 
0.31889 0.35246 0.19958 0 0 0 
0.31798 0.37235 0.18636 0 0 0 
0.3174 0.3944 0.17202 0 0 0 
0.31728 0.39899 0.16904 0 0 0 
0.318 0.45593 0.13362 0 0 0 
0.31874 0.48571 0.11535 0 0 0 
0.32014 0.50675 0.10309 0 0 0 
0.32299 0.51282 0.10133 0 0 0 
0.32362 0.51392 0.10108 0 0 0 
0.32704 0.51611 0.10218 0 0 0 
0.33099 0.51756 0.10413 0 0 0 
0.38019 0.30551 0.25 0 0 0 
0.383 0.30354 0.25732 0 0 0 
0.38537 0.30537 0.25632 0 0 0 
0.3869 0.3076 0.25353 0 0 0 
0.38755 0.31013 0.24907 0 0 0 
0.3883 0.31678 0.23624 0 0 0 
0.38611 0.3163 0.23468 0 0 0 
0.3794 0.30977 0.2403 0 0 0 
0.15405 0.41812 0.19909 0 0 0 
0.15302 0.41866 0.198 0 0 0 
0.15021 0.41453 0.19857 0 0 0 
0.14445 0.39322 0.20786 0 0 0 
0.13365 0.35189 0.22612 0 0 0 
0.12825 0.32971 0.23621 0 0 0 
0.1266 0.3223 0.2397 0 0 0 
0.12503 0.31294 0.24447 0 0 0 
0.12789 0.30809 0.2496 0 0 0 
0.13265 0.30195 0.25692 0 0 0 
0.15208 0.30728 0.26762 0 0 0 
0.15622 0.31888 0.2633 0 0 0 
0.15621 0.3243 0.25988 0 0 0 
0.15527 0.38229 0.22259 0 0 0 
0.37435 0.35893 0.23289 0 0 0 
0.37251 0.35444 0.23898 0 0 0 
0.37587 0.3477 0.23656 0 0 0 
0.37963 0.34327 0.23205 0 0 0 
0.38025 0.349 0.22754 0 0 0 
0.37887 0.35389 0.22728 0 0 0 
0.37661 0.36119 0.22731 0 0 0 
0.37531 0.36103 0.22984 0 0 0 
0.18828 0.37737 0.19291 0 0 0 
0.181 0.38259 0.19266 0 0 0 
0.17992 0.38234 0.19213 0 0 0 
0.17861 0.37532 0.18824 0 0 0 
0.18403 0.36719 0.18639 0 0 0 
0.18474 0.36764 0.18688 0 0 0 
0.18569 0.36967 0.18822 0 0 0 
22 0 1 2 3 4 5 6 7 8 9 10 11 12 13 14 15 16 17 18 19 20 21
19 22 23 24 25 26 27 28 29 30 31 32 33 34 35 36 37 38 39 40
19 41 42 43 44 45 46 47 48 49 50 51 52 53 54 55 56 57 58 59
22 60 61 62 63 64 65 66 67 68 69 70 71 72 73 74 75 76 77 78 79 80 81
14 82 83 84 85 86 87 88 89 90 91 92 93 94 95
9 96 97 98 99 100 101 102 103 104
21 105 106 107 108 109 110 111 112 113 114 115 116 117 118 119 120 121 122 123 124 125
8 126 127 128 129 130 131 132 133
14 134 135 136 137 138 139 140 141 142 143 144 145 146 147
8 148 149 150 151 152 153 154 155
7 156 157 158 159 160 161 162
