ply
format ascii 1.0
comment PCL generated
element vertex 44
property float x
property float y
property float z
property uchar red
property uchar green
property uchar blue
element face 11
property list uchar int vertex_indices
end_header
0.12031 0.47691 0.23086 0 0 0 
0.15898 0.31657 0.25133 0 0 0 
0.21402 0.31657 0.14732 0 0 0 
0.17534 0.47691 0.12686 0 0 0 
0.29735 0.52497 0.18569 0 0 0 
0.23134 0.30485 0.27685 0 0 0 
0.11875 0.30485 0.19533 0 0 0 
0.18475 0.52497 0.10417 0 0 0 
0.17645 0.52609 0.23324 0 0 0 
0.22786 0.31299 0.26044 0 0 0 
0.29762 0.31299 0.12861 0 0 0 
0.24622 0.52609 0.10141 0 0 0 
0.36201 0.52669 0.17712 0 0 0 
0.29746 0.31142 0.26627 0 0 0 
0.1863 0.31142 0.18579 0 0 0 
0.25086 0.52669 0.096638 0 0 0 
0.32364 0.52493 0.096416 0 0 0 
0.37661 0.30532 0.12445 0 0 0 
0.29902 0.30532 0.27107 0 0 0 
0.24605 0.52493 0.24304 0 0 0 
0.33682 0.33424 0.23712 0 0 0 
0.32074 0.33121 0.23776 0 0 0 
0.32074 0.32687 0.21726 0 0 0 
0.33682 0.3299 0.21662 0 0 0 
0.44491 0.51756 0.18661 0 0 0 
0.38049 0.30272 0.27558 0 0 0 
0.25896 0.30272 0.18758 0 0 0 
0.32338 0.51756 0.098612 0 0 0 
0.38172 0.30282 0.25732 0 0 0 
0.377 0.31115 0.23468 0 0 0 
0.38798 0.31736 0.23468 0 0 0 
0.39269 0.30903 0.25732 0 0 0 
0.15145 0.41866 0.19686 0 0 0 
0.11645 0.30195 0.24519 0 0 0 
0.15114 0.30195 0.27031 0 0 0 
0.18614 0.41866 0.22198 0 0 0 
0.37089 0.36119 0.23812 0 0 0 
0.37521 0.34327 0.2404 0 0 0 
0.38163 0.34327 0.22827 0 0 0 
0.37731 0.36119 0.22598 0 0 0 
0.18828 0.36655 0.1877 0 0 0 
0.17861 0.36799 0.18471 0 0 0 
0.17861 0.38295 0.19192 0 0 0 
0.18828 0.38151 0.19491 0 0 0 
4 0 1 2 3
4 4 5 6 7
4 8 9 10 11
4 12 13 14 15
4 16 17 18 19
4 20 21 22 23
4 24 25 26 27
4 28 29 30 31
4 32 33 34 35
4 36 37 38 39
4 40 41 42 43
