ply
format ascii 1.0
comment PCL generated
element vertex 44
property float x
property float y
property float z
property uchar red
property uchar green
property uchar blue
element face 11
property list uchar int vertex_indices
end_header
-0.37828 0.19205 0.91859 0 0 0 
-0.16079 -0.63944 1.0345 0 0 0 
-0.48336 -0.63944 1.6398 0 0 0 
-0.70085 0.19205 1.5239 0 0 0 
-0.49754 -0.13056 1.2962 0 0 0 
-0.68319 -0.70201 1.5407 0 0 0 
-0.48884 -0.70201 1.6883 0 0 0 
-0.30318 -0.13056 1.4438 0 0 0 
-0.93083 -1.2797 3.1987 0 0 0 
-1.2111 -1.3043 3.1877 0 0 0 
-1.2111 -1.4341 3.4774 0 0 0 
-0.93083 -1.4095 3.4884 0 0 0 
-0.86317 -1.169 3.0175 0 0 0 
-0.88185 -1.2265 3.0421 0 0 0 
-0.95147 -1.2265 2.9893 0 0 0 
-0.93278 -1.169 2.9646 0 0 0 
0.19537 0.37025 1.2731 0 0 0 
-0.11402 -0.69102 1.6924 0 0 0 
-0.66084 -0.69102 1.2889 0 0 0 
-0.35144 0.37025 0.86964 0 0 0 
-0.26867 -1.3083 3.4236 0 0 0 
-0.29585 -1.2537 3.1988 0 0 0 
-0.39432 -1.3026 3.1988 0 0 0 
-0.36714 -1.3573 3.4236 0 0 0 
-0.40712 0.3742 1.4969 0 0 0 
-0.14155 -0.6411 1.6385 0 0 0 
0.21306 -0.6411 0.97306 0 0 0 
-0.052507 0.3742 0.83153 0 0 0 
0.48822 0.37349 1.2242 0 0 0 
0.17791 -0.65378 1.6409 0 0 0 
-0.35028 -0.65378 1.2475 0 0 0 
-0.03998 0.37349 0.83085 0 0 0 
0.31028 0.37566 0.81638 0 0 0 
0.56602 -0.65864 0.95535 0 0 0 
0.18985 -0.65864 1.6476 0 0 0 
-0.065894 0.37566 1.5086 0 0 0 
0.85242 0.33373 1.2434 0 0 0 
0.53381 -0.67998 1.6668 0 0 0 
-0.017361 -0.67998 1.252 0 0 0 
0.30124 0.33373 0.82864 0 0 0 
0.54176 -0.33248 1.4031 0 0 0 
0.64997 -0.66495 1.4559 0 0 0 
0.54495 -0.66495 1.6712 0 0 0 
0.43674 -0.33248 1.6184 0 0 0 
4 0 1 2 3
4 4 5 6 7
4 8 9 10 11
4 12 13 14 15
4 16 17 18 19
4 20 21 22 23
4 24 25 26 27
4 28 29 30 31
4 32 33 34 35
4 36 37 38 39
4 40 41 42 43
