ply
format ascii 1.0
comment PCL generated
element vertex 56
property float x
property float y
property float z
property uchar red
property uchar green
property uchar blue
element face 14
property list uchar int vertex_indices
end_header
-0.726 0.18581 1.5163 0 0 0 
-0.49002 -0.64025 1.6459 0 0 0 
-0.15724 -0.64025 1.0397 0 0 0 
-0.39323 0.18581 0.91012 0 0 0 
-0.47694 -0.13025 1.3012 0 0 0 
-0.64185 -0.17278 1.238 0 0 0 
-0.64184 -0.70861 1.5985 0 0 0 
-0.47694 -0.66608 1.6617 0 0 0 
-1.0249 -1.3415 3.2692 0 0 0 
-1.1493 -1.3532 3.2648 0 0 0 
-1.1493 -1.3757 3.3246 0 0 0 
-1.0249 -1.3639 3.329 0 0 0 
-0.92216 -1.275 3.2844 0 0 0 
-0.9258 -1.2716 3.2046 0 0 0 
-0.981 -1.3298 3.2046 0 0 0 
-0.97736 -1.3333 3.2844 0 0 0 
-0.87175 -1.2355 3.0288 0 0 0 
-0.94716 -1.2447 3.0102 0 0 0 
-0.94716 -1.1677 2.9721 0 0 0 
-0.87175 -1.1585 2.9908 0 0 0 
0.1975 0.37323 1.3259 0 0 0 
-0.11805 -0.68572 1.7009 0 0 0 
-0.6617 -0.68571 1.2435 0 0 0 
-0.34616 0.37323 0.86846 0 0 0 
-0.29368 -1.3468 3.4214 0 0 0 
-0.35491 -1.3554 3.4158 0 0 0 
-0.35491 -1.3086 3.3438 0 0 0 
-0.29368 -1.3 3.3494 0 0 0 
-0.074694 0.37637 0.86777 0 0 0 
0.16157 -0.64071 0.97493 0 0 0 
-0.13992 -0.64071 1.6397 0 0 0 
-0.37619 0.37637 1.5325 0 0 0 
0.48088 0.37043 1.1907 0 0 0 
0.18149 -0.65665 1.6356 0 0 0 
-0.34457 -0.65665 1.2815 0 0 0 
-0.045176 0.37043 0.83667 0 0 0 
0.30696 0.37891 0.84438 0 0 0 
0.53315 -0.66161 0.9639 0 0 0 
0.17568 -0.66161 1.6404 0 0 0 
-0.050513 0.37891 1.5209 0 0 0 
0.84784 0.33666 1.233 0 0 0 
0.53659 -0.68204 1.6624 0 0 0 
-0.01391 -0.68204 1.2633 0 0 0 
0.29735 0.33667 0.83394 0 0 0 
0.56378 -0.34099 1.4266 0 0 0 
0.65173 -0.72541 1.4902 0 0 0 
0.53125 -0.72541 1.6569 0 0 0 
0.4433 -0.34099 1.5933 0 0 0 
-0.45579 -0.34694 1.365 0 0 0 
-0.65123 -0.37087 1.3389 0 0 0 
-0.65123 -0.65693 1.602 0 0 0 
-0.45579 -0.63299 1.628 0 0 0 
-0.025118 -0.35401 1.3678 0 0 0 
-0.023675 -0.52136 1.3676 0 0 0 
-0.038353 -0.52136 1.2785 0 0 0 
-0.039796 -0.35401 1.2787 0 0 0 
4 0 1 2 3
4 4 5 6 7
4 8 9 10 11
4 12 13 14 15
4 16 17 18 19
4 20 21 22 23
4 24 25 26 27
4 28 29 30 31
4 32 33 34 35
4 36 37 38 39
4 40 41 42 43
4 44 45 46 47
4 48 49 50 51
4 52 53 54 55
