ply
format ascii 1.0
comment PCL generated
element vertex 276
property float x
property float y
property float z
property uchar red
property uchar green
property uchar blue
element face 69
property list uchar int vertex_indices
end_header
0.40342 0.30737 0.21835 60 97 52 
0.40343 0.30636 0.018555 60 97 52 
0.025718 0.30277 0.018555 60 97 52 
0.025709 0.30378 0.21835 60 97 52 
0.94614 0.26565 0.58941 44 77 106 
0.9035 0.26524 0.58933 44 77 106 
0.9035 0.21615 0.87083 44 77 106 
0.94614 0.21657 0.8709 44 77 106 
0.94921 0.43168 0.02954 79 51 85 
0.9527 0.15303 0.02948 79 51 85 
0.96203 0.15303 0.57318 79 51 85 
0.95855 0.43168 0.57324 79 51 85 
0.52781 0.5492 0.021181 124 83 45 
0.53075 0.24516 0.02113 124 83 45 
0.53275 0.24516 0.1368 124 83 45 
0.52981 0.5492 0.13685 124 83 45 
0.87883 0.52553 0.19877 102 56 43 
0.42289 0.52787 0.20259 102 56 43 
0.42289 0.32319 0.32802 102 56 43 
0.87883 0.32084 0.3242 102 56 43 
0.84419 0.3306 0.3225 120 44 48 
0.2157 0.32462 0.33339 120 44 48 
0.2157 0.13865 0.23121 120 44 48 
0.84419 0.14464 0.22032 120 44 48 
0.70198 0.53093 0.20641 107 63 89 
0.12615 0.53389 0.21167 107 63 89 
0.12615 0.32111 0.33147 107 63 89 
0.70198 0.31815 0.32621 107 63 89 
0.46786 0.21036 0.26559 57 57 57 
0.46841 0.068787 0.26668 57 57 57 
0.55333 0.068787 0.2237 57 57 57 
0.55278 0.21036 0.22261 57 57 57 
0.53095 0.53224 0.19311 124 83 45 
0.53464 0.15123 0.19305 124 83 45 
0.53696 0.15123 0.3269 124 83 45 
0.53328 0.53224 0.32696 124 83 45 
0.96943 0.24641 0.57816 120 44 48 
0.97029 0.15945 0.57836 120 44 48 
0.90461 0.15945 0.86787 120 44 48 
0.90374 0.24641 0.86768 120 44 48 
0.9676 0.21737 0.85105 62 44 120 
0.84128 0.21573 0.85144 62 44 120 
0.84128 0.15128 0.57467 62 44 120 
0.9676 0.15291 0.57429 62 44 120 
0.96984 0.45595 0.16476 46 120 44 
0.97079 0.28505 0.16664 46 120 44 
0.84266 0.28505 0.23113 46 120 44 
0.84171 0.45595 0.22926 46 120 44 
0.5572 0.30901 0.25382 60 97 52 
0.55721 0.30777 0.010036 60 97 52 
0.40188 0.3063 0.010036 60 97 52 
0.40187 0.30753 0.25382 60 97 52 
0.9177 0.31221 0.20882 60 97 52 
0.91771 0.31117 0.0034449 60 97 52 
0.55449 0.30771 0.0034449 60 97 52 
0.55448 0.30875 0.20882 60 97 52 
0.8811 0.15126 0.45327 79 51 85 
0.8799 0.15136 0.3832 79 51 85 
0.88159 0.17195 0.3832 79 51 85 
0.88278 0.17186 0.45327 79 51 85 
0.48135 0.59962 0.25536 61 97 52 
0.48134 0.45268 0.25538 61 97 52 
0.39494 0.45268 0.2079 61 97 52 
0.39495 0.59962 0.20788 61 97 52 
0.48481 0.41953 0.37417 97 83 52 
0.48404 0.41834 0.26913 97 83 52 
0.51518 0.39835 0.26913 97 83 52 
0.51594 0.39954 0.37417 97 83 52 
0.54214 0.36107 0.37529 97 52 62 
0.54082 0.36014 0.28147 97 52 62 
0.51255 0.40066 0.28147 97 52 62 
0.51387 0.40159 0.37529 97 52 62 
0.24497 0.14036 0.041546 44 77 106 
0.24497 0.11831 0.041654 44 77 106 
0.39205 0.11831 0.039096 44 77 106 
0.39205 0.14036 0.038988 44 77 106 
0.65414 0.32912 0.3241 90 106 44 
0.12823 0.3239 0.33329 90 106 44 
0.12823 0.13167 0.2242 90 106 44 
0.65414 0.13688 0.21501 90 106 44 
0.92446 0.25706 0.4524 106 75 44 
0.92656 0.25689 0.38874 106 75 44 
0.92878 0.28444 0.38874 106 75 44 
0.92668 0.28461 0.4524 106 75 44 
0.53185 0.14808 0.030842 124 83 45 
0.53263 0.067311 0.030828 124 83 45 
0.53602 0.067311 0.22597 124 83 45 
0.53524 0.14808 0.22599 124 83 45 
0.96998 0.22377 0.85159 44 77 106 
0.83855 0.22306 0.85143 44 77 106 
0.83855 0.28541 0.57286 44 77 106 
0.96998 0.28611 0.57302 44 77 106 
0.55108 0.52172 0.21109 106 75 44 
0.55285 0.52149 0.028404 106 75 44 
0.55991 0.57498 0.028404 106 75 44 
0.55814 0.57521 0.21109 106 75 44 
0.53733 0.14776 0.036424 44 77 106 
0.53734 0.038254 0.036963 44 77 106 
0.75095 0.038254 0.033247 44 77 106 
0.75094 0.14776 0.032709 44 77 106 
0.11211 0.30521 0.33973 60 97 52 
0.11212 0.30448 0.19499 60 97 52 
0.13343 0.30468 0.19499 60 97 52 
0.13342 0.30542 0.33973 60 97 52 
0.5318 0.20075 0.057019 124 83 45 
0.53235 0.14395 0.05701 124 83 45 
0.53503 0.14395 0.21154 124 83 45 
0.53448 0.20075 0.21155 124 83 45 
0.97045 0.23001 0.45142 60 97 52 
0.97045 0.22954 0.38542 60 97 52 
0.95231 0.22931 0.38542 60 97 52 
0.95231 0.22978 0.45142 60 97 52 
0.79848 0.31089 0.17341 60 97 52 
0.79848 0.31071 0.13775 60 97 52 
0.72487 0.31001 0.13775 60 97 52 
0.72487 0.31019 0.17341 60 97 52 
0.52714 0.59924 0.010563 124 83 45 
0.52789 0.52171 0.01055 124 83 45 
0.53132 0.52171 0.20828 124 83 45 
0.53057 0.59924 0.20829 124 83 45 
0.12971 0.5304 0.20005 124 83 45 
0.12974 0.16164 0.19999 124 83 45 
0.018708 0.16164 0.14094 124 83 45 
0.018675 0.5304 0.141 124 83 45 
0.53547 0.12123 0.036587 44 77 106 
0.53548 0.03909 0.036991 44 77 106 
0.76471 0.03909 0.033004 44 77 106 
0.7647 0.12123 0.0326 44 77 106 
0.41024 0.3894 0.37533 124 45 123 
0.4121 0.38718 0.26888 124 45 123 
0.44691 0.41648 0.26888 124 45 123 
0.44505 0.4187 0.37533 124 45 123 
0.51576 0.26493 0.35908 45 94 124 
0.51571 0.26496 0.29961 45 94 124 
0.5364 0.29588 0.29961 45 94 124 
0.53645 0.29585 0.35908 45 94 124 
0.92286 0.23454 0.85161 78 51 85 
0.96535 0.19292 0.58851 78 51 85 
0.92975 0.15658 0.58851 78 51 85 
0.88726 0.1982 0.85161 78 51 85 
0.88495 0.23454 0.8513 51 82 85 
0.84203 0.19032 0.58499 51 82 85 
0.88071 0.15278 0.58499 51 82 85 
0.92363 0.197 0.8513 51 82 85 
0.41125 0.27686 0.37115 83 85 51 
0.41475 0.27834 0.30406 83 85 51 
0.39949 0.31446 0.30406 83 85 51 
0.39599 0.31298 0.37115 83 85 51 
0.46863 0.32336 0.41823 102 55 43 
0.42156 0.32827 0.40835 102 55 43 
0.42156 0.24801 0.36851 102 55 43 
0.46863 0.24311 0.37839 102 55 43 
0.39921 0.30745 0.2419 60 97 52 
0.39922 0.30626 0.0084445 60 97 52 
0.4655 0.3069 0.0084445 60 97 52 
0.46549 0.30808 0.2419 60 97 52 
0.9696 0.23788 0.53793 60 97 52 
0.9696 0.23765 0.48483 60 97 52 
0.93263 0.23719 0.48483 60 97 52 
0.93263 0.23742 0.53793 60 97 52 
0.53161 0.44697 0.18324 124 83 45 
0.53192 0.41523 0.18324 124 83 45 
0.5346 0.41523 0.33793 124 83 45 
0.53429 0.44697 0.33794 124 83 45 
0.39774 0.5324 0.19814 73 43 102 
0.14458 0.53241 0.19815 73 43 102 
0.14458 0.52182 0.21744 73 43 102 
0.39774 0.52181 0.21743 73 43 102 
0.85864 0.27783 0.59672 43 102 76 
0.8608 0.22257 0.59635 43 102 76 
0.90454 0.22257 0.8512 43 102 76 
0.90238 0.27783 0.85157 43 102 76 
0.39352 0.33505 0.37088 107 63 90 
0.39655 0.33424 0.28567 107 63 90 
0.41059 0.38692 0.28567 107 63 90 
0.40756 0.38773 0.37088 107 63 90 
0.7682 0.14682 0.21669 63 70 107 
0.54783 0.14787 0.21812 63 70 107 
0.54783 0.14179 0.22261 63 70 107 
0.7682 0.14074 0.22119 63 70 107 
0.46404 0.33856 0.41373 85 107 63 
0.40581 0.33127 0.39582 85 107 63 
0.40581 0.41753 0.3607 85 107 63 
0.46404 0.42482 0.3786 85 107 63 
0.48582 0.24791 0.37652 60 97 52 
0.48564 0.24824 0.28561 60 97 52 
0.52207 0.26837 0.28561 60 97 52 
0.52225 0.26804 0.37652 60 97 52 
0.92554 0.51252 0.17186 44 77 106 
0.5539 0.50706 0.17521 44 77 106 
0.5539 0.52482 0.20421 44 77 106 
0.92554 0.53029 0.20086 44 77 106 
0.93333 0.50727 0.1731 83 85 51 
0.9305 0.50617 0.0057392 83 85 51 
0.94304 0.47365 0.0057392 83 85 51 
0.94587 0.47474 0.1731 83 85 51 
0.47249 0.22432 0.26287 124 83 45 
0.4724 0.06927 0.2631 124 83 45 
0.41252 0.06927 0.23934 124 83 45 
0.41261 0.22432 0.23911 124 83 45 
0.44719 0.30857 0.37403 60 97 52 
0.4472 0.30804 0.26997 60 97 52 
0.50085 0.30855 0.26997 60 97 52 
0.50085 0.30908 0.37403 60 97 52 
0.54438 0.32431 0.37437 79 51 85 
0.54316 0.32412 0.30588 79 51 85 
0.53648 0.36636 0.30588 79 51 85 
0.53769 0.36656 0.37437 79 51 85 
0.63521 0.53023 0.010009 102 56 43 
0.57558 0.52999 0.0099388 102 56 43 
0.57558 0.52024 0.043107 102 56 43 
0.63521 0.52048 0.043178 102 56 43 
0.39555 0.37867 0.36913 120 44 48 
0.3928 0.30125 0.37323 120 44 48 
0.45526 0.30125 0.41504 120 44 48 
0.45801 0.37867 0.41093 120 44 48 
0.41533 0.39484 0.37316 107 63 89 
0.41856 0.39292 0.28947 107 63 89 
0.40298 0.36672 0.28947 107 63 89 
0.39975 0.36864 0.37316 107 63 89 
0.39253 0.52354 0.20402 57 57 57 
0.39248 0.52359 0.024784 57 57 57 
0.40958 0.54093 0.024784 57 57 57 
0.40964 0.54088 0.20402 57 57 57 
0.39652 0.33111 0.3869 120 44 48 
0.40788 0.25328 0.36472 120 44 48 
0.47034 0.25328 0.39669 120 44 48 
0.45898 0.33111 0.41888 120 44 48 
0.97244 0.28129 0.17596 79 51 85 
0.96989 0.28088 0.094136 79 51 85 
0.93697 0.48619 0.094136 79 51 85 
0.93952 0.4866 0.17596 79 51 85 
0.44012 0.2508 0.35862 62 44 120 
0.4393 0.25002 0.28804 62 44 120 
0.40674 0.28448 0.28804 62 44 120 
0.40756 0.28525 0.35862 62 44 120 
0.87425 0.52538 0.19402 102 56 43 
0.56004 0.52403 0.19364 102 56 43 
0.56004 0.51942 0.21009 102 56 43 
0.87425 0.52077 0.21047 102 56 43 
0.85779 0.31097 0.077916 60 97 52 
0.85779 0.3106 0.0050089 60 97 52 
0.77603 0.30983 0.0050089 60 97 52 
0.77603 0.3102 0.077916 60 97 52 
0.96529 0.49158 0.16003 46 120 44 
0.96665 0.31301 0.16202 46 120 44 
0.94385 0.31301 0.17768 46 120 44 
0.94249 0.49158 0.17569 46 120 44 
0.96871 0.27955 0.57298 61 97 52 
0.9693 0.1531 0.57263 61 97 52 
0.97663 0.1531 0.58499 61 97 52 
0.97604 0.27955 0.58534 61 97 52 
0.21825 0.30522 0.14206 60 97 52 
0.21825 0.305 0.098784 60 97 52 
0.19209 0.30475 0.098784 60 97 52 
0.19208 0.30497 0.14206 60 97 52 
0.46273 0.24581 0.36132 97 83 52 
0.46263 0.24555 0.28518 97 83 52 
0.43305 0.25695 0.28518 97 83 52 
0.43315 0.25721 0.36132 97 83 52 
0.90113 0.5217 0.17784 97 83 52 
0.90117 0.52179 0.0051507 97 83 52 
0.9379 0.50402 0.0051507 97 83 52 
0.93786 0.50393 0.17784 97 83 52 
0.58614 0.30884 0.16703 60 97 52 
0.58615 0.3086 0.11978 60 97 52 
0.61186 0.30885 0.11978 60 97 52 
0.61186 0.30909 0.16703 60 97 52 
0.45628 0.22283 0.37567 60 97 52 
0.45629 0.22216 0.28203 60 97 52 
0.50018 0.22273 0.28203 60 97 52 
0.50018 0.2234 0.37567 60 97 52 
0.53753 0.29449 0.37467 107 63 90 
0.53522 0.29506 0.31357 107 63 90 
0.54418 0.3319 0.31357 107 63 90 
0.54649 0.33134 0.37467 107 63 90 
4 0 1 2 3
4 4 5 6 7
4 8 9 10 11
4 12 13 14 15
4 16 17 18 19
4 20 21 22 23
4 24 25 26 27
4 28 29 30 31
4 32 33 34 35
4 36 37 38 39
4 40 41 42 43
4 44 45 46 47
4 48 49 50 51
4 52 53 54 55
4 56 57 58 59
4 60 61 62 63
4 64 65 66 67
4 68 69 70 71
4 72 73 74 75
4 76 77 78 79
4 80 81 82 83
4 84 85 86 87
4 88 89 90 91
4 92 93 94 95
4 96 97 98 99
4 100 101 102 103
4 104 105 106 107
4 108 109 110 111
4 112 113 114 115
4 116 117 118 119
4 120 121 122 123
4 124 125 126 127
4 128 129 130 131
4 132 133 134 135
4 136 137 138 139
4 140 141 142 143
4 144 145 146 147
4 148 149 150 151
4 152 153 154 155
4 156 157 158 159
4 160 161 162 163
4 164 165 166 167
4 168 169 170 171
4 172 173 174 175
4 176 177 178 179
4 180 181 182 183
4 184 185 186 187
4 188 189 190 191
4 192 193 194 195
4 196 197 198 199
4 200 201 202 203
4 204 205 206 207
4 208 209 210 211
4 212 213 214 215
4 216 217 218 219
4 220 221 222 223
4 224 225 226 227
4 228 229 230 231
4 232 233 234 235
4 236 237 238 239
4 240 241 242 243
4 244 245 246 247
4 248 249 250 251
4 252 253 254 255
4 256 257 258 259
4 260 261 262 263
4 264 265 266 267
4 268 269 270 271
4 272 273 274 275
