ply
format ascii 1.0
comment PCL generated
element vertex 19
property float x
property float y
property float z
property uchar red
property uchar green
property uchar blue
element face 1
property list uchar int vertex_indices
end_header
0.22464 0.44528 0.21116 0 0 0 
0.22576 0.44615 0.077629 0 0 0 
0.23509 0.44651 0.022799 0 0 0 
0.23748 0.44654 0.018421 0 0 0 
0.25073 0.4466 0.010791 0 0 0 
0.39856 0.44673 0.0046084 0 0 0 
0.42706 0.44676 0.0026241 0 0 0 
0.54588 0.4468 0.006196 0 0 0 
0.57545 0.44682 0.0065072 0 0 0 
0.61579 0.44682 0.0098417 0 0 0 
0.62349 0.44676 0.020353 0 0 0 
0.65494 0.44593 0.14921 0 0 0 
0.65862 0.44564 0.19496 0 0 0 
0.65809 0.44548 0.21837 0 0 0 
0.6537 0.44544 0.22449 0 0 0 
0.60214 0.44541 0.22402 0 0 0 
0.36409 0.44522 0.23265 0 0 0 
0.27659 0.44519 0.22926 0 0 0 
0.24053 0.44519 0.22614 0 0 0 
19 0 1 2 3 4 5 6 7 8 9 10 11 12 13 14 15 16 17 18
