ply
format ascii 1.0
comment PCL generated
element vertex 171
property float x
property float y
property float z
property uchar red
property uchar green
property uchar blue
element face 13
property list uchar int vertex_indices
end_header
0.01436 0.66058 0.010535 0 0 0 
0.020151 0.66055 0.0057246 0 0 0 
0.078338 0.66053 0.0015135 0 0 0 
0.47186 0.66066 0.0035397 0 0 0 
0.60361 0.6607 0.0033949 0 0 0 
0.65303 0.66078 0.012033 0 0 0 
0.65386 0.66123 0.071325 0 0 0 
0.65401 0.66222 0.19874 0 0 0 
0.64822 0.66232 0.21239 0 0 0 
0.62839 0.66237 0.22009 0 0 0 
0.10296 0.66296 0.31552 0 0 0 
0.0034955 0.66227 0.22906 0 0 0 
0.65798 0.60129 0.0009539 0 0 0 
0.65801 0.5345 0.0031324 0 0 0 
0.65802 0.50601 0.0062224 0 0 0 
0.6581 0.45331 0.022596 0 0 0 
0.65812 0.45109 0.028502 0 0 0 
0.6584 0.44766 0.1069 0 0 0 
0.65872 0.44612 0.19496 0 0 0 
0.6588 0.44903 0.21839 0 0 0 
0.65882 0.45275 0.22452 0 0 0 
0.65892 0.47694 0.25401 0 0 0 
0.65901 0.50435 0.28121 0 0 0 
0.65914 0.54948 0.31819 0 0 0 
0.65912 0.5691 0.31564 0 0 0 
0.65876 0.66172 0.22201 0 0 0 
0.65872 0.66608 0.20998 0 0 0 
0.65811 0.66371 0.04262 0 0 0 
0.65806 0.65953 0.026306 0 0 0 
0.65799 0.65191 0.0078513 0 0 0 
0.65798 0.64715 0.0046171 0 0 0 
0.64318 0.65454 0.22655 0 0 0 
0.65653 0.57201 0.30922 0 0 0 
0.65612 0.55845 0.32281 0 0 0 
0.59189 0.55439 0.3271 0 0 0 
0.13398 0.5553 0.32771 0 0 0 
0.11873 0.55663 0.32643 0 0 0 
0.13047 0.58372 0.29924 0 0 0 
0.18528 0.63745 0.2452 0 0 0 
0.24374 0.65276 0.22967 0 0 0 
0.38911 0.66429 0.21762 0 0 0 
0.6255 0.65699 0.22415 0 0 0 
0.59427 0.4518 0.22656 0 0 0 
0.39611 0.44557 0.22125 0 0 0 
0.20542 0.46517 0.24107 0 0 0 
0.18937 0.48069 0.25623 0 0 0 
0.16461 0.50567 0.28064 0 0 0 
0.15291 0.52026 0.29488 0 0 0 
0.17328 0.55202 0.32572 0 0 0 
0.19536 0.55336 0.32694 0 0 0 
0.35335 0.55492 0.32785 0 0 0 
0.42764 0.55575 0.32837 0 0 0 
0.5514 0.55612 0.32826 0 0 0 
0.63863 0.55534 0.32716 0 0 0 
0.64735 0.53792 0.31018 0 0 0 
0.6429 0.51501 0.28789 0 0 0 
0.62054 0.46407 0.2384 0 0 0 
0.062884 0.61782 0.27252 0 0 0 
0.11662 0.64293 0.31347 0 0 0 
0.12597 0.62714 0.32075 0 0 0 
0.12743 0.61014 0.32199 0 0 0 
0.12628 0.44061 0.32238 0 0 0 
0.12579 0.38461 0.32243 0 0 0 
0.12732 0.048377 0.32612 0 0 0 
0.1204 0.0090025 0.32112 0 0 0 
0.045927 0.020083 0.26402 0 0 0 
0.017367 0.030287 0.24208 0 0 0 
0.013599 0.045181 0.23908 0 0 0 
0.010316 0.12947 0.23594 0 0 0 
0.010306 0.20082 0.2354 0 0 0 
0.0093993 0.43218 0.23297 0 0 0 
0.0097407 0.65827 0.2254 0 0 0 
0.0094595 0.66588 0.14782 0 0 0 
0.0090939 0.66482 0.046145 0 0 0 
0.0089654 0.65893 0.010037 0 0 0 
0.0089507 0.63361 0.0041491 0 0 0 
0.0089645 0.57253 0.0036287 0 0 0 
0.0089824 0.48876 0.0026068 0 0 0 
0.0090682 0.16495 0.0033514 0 0 0 
0.0091004 0.064246 0.0051114 0 0 0 
0.0091257 0.035756 0.010095 0 0 0 
0.009236 0.0061936 0.038649 0 0 0 
0.0098377 0.025604 0.20722 0 0 0 
0.0098829 0.033717 0.22033 0 0 0 
0.0098887 0.035548 0.22209 0 0 0 
0.0098969 0.046335 0.22512 0 0 0 
0.01006 0.56257 0.30731 0 0 0 
0.010009 0.5893 0.29504 0 0 0 
0.037017 0.63745 0.2435 0 0 0 
0.012854 0.63452 0.24651 0 0 0 
0.0076011 0.63266 0.2484 0 0 0 
0.021133 0.55398 0.32721 0 0 0 
0.059839 0.57714 0.30387 0 0 0 
0.062756 0.58844 0.29253 0 0 0 
0.057611 0.60266 0.2783 0 0 0 
0.012882 0.50566 0.27976 0 0 0 
0.0095766 0.5471 0.32012 0 0 0 
0.012735 0.55196 0.32483 0 0 0 
0.03393 0.55337 0.32612 0 0 0 
0.050395 0.55431 0.32697 0 0 0 
0.087188 0.55426 0.32678 0 0 0 
0.090263 0.53803 0.31097 0 0 0 
0.067167 0.50609 0.27998 0 0 0 
0.050891 0.48845 0.26287 0 0 0 
0.044861 0.48245 0.25705 0 0 0 
0.014552 0.48497 0.25962 0 0 0 
0.0098628 0.010272 0.21739 0 0 0 
0.014628 0.010356 0.22814 0 0 0 
0.053621 0.010685 0.26933 0 0 0 
0.095091 0.010974 0.30526 0 0 0 
0.11234 0.011081 0.31852 0 0 0 
0.12358 0.011101 0.3206 0 0 0 
0.12507 0.011096 0.32001 0 0 0 
0.13713 0.011053 0.31392 0 0 0 
0.19961 0.010607 0.25382 0 0 0 
0.21541 0.010427 0.22989 0 0 0 
0.22234 0.010291 0.2121 0 0 0 
0.2285 0.0094899 0.10808 0 0 0 
0.22267 0.0089217 0.034686 0 0 0 
0.21254 0.0086911 0.0051884 0 0 0 
0.17525 0.0086549 0.0018745 0 0 0 
0.12846 0.0086274 3.9846e-05 0 0 0 
0.061795 0.008629 0.0027029 0 0 0 
0.01714 0.008635 0.0051368 0 0 0 
0.01038 0.0087525 0.020598 0 0 0 
0.0067421 0.0092335 0.083043 0 0 0 
0.0077922 0.010031 0.18625 0 0 0 
0.22554 0.012025 0.17967 0 0 0 
0.22543 0.011014 0.14918 0 0 0 
0.22498 0.015582 0.024373 0 0 0 
0.22495 0.018074 0.01691 0 0 0 
0.22489 0.077459 0.0036583 0 0 0 
0.22484 0.25412 0.0034483 0 0 0 
0.22484 0.30143 0.0045383 0 0 0 
0.22482 0.40277 0.0063427 0 0 0 
0.22482 0.44732 0.0092138 0 0 0 
0.22539 0.44894 0.16916 0 0 0 
0.22545 0.44635 0.18603 0 0 0 
0.22558 0.43737 0.22098 0 0 0 
0.2256 0.4081 0.22412 0 0 0 
0.22567 0.29563 0.23491 0 0 0 
0.22573 0.059006 0.23664 0 0 0 
0.20931 0.09282 0.22496 0 0 0 
0.21045 0.36006 0.22117 0 0 0 
0.2072 0.44299 0.22511 0 0 0 
0.17901 0.50006 0.26466 0 0 0 
0.13999 0.51419 0.31994 0 0 0 
0.13324 0.51369 0.32951 0 0 0 
0.13394 0.22926 0.33083 0 0 0 
0.1373 0.12657 0.3269 0 0 0 
0.17989 0.044422 0.26712 0 0 0 
0.19464 0.046696 0.24616 0 0 0 
0.23509 0.44567 0.022823 0 0 0 
0.22669 0.44584 0.089044 0 0 0 
0.23771 0.44615 0.20621 0 0 0 
0.24053 0.4462 0.22618 0 0 0 
0.27659 0.44622 0.22931 0 0 0 
0.63394 0.44632 0.22874 0 0 0 
0.64786 0.4463 0.22228 0 0 0 
0.65071 0.44625 0.20055 0 0 0 
0.65494 0.44611 0.14921 0 0 0 
0.62349 0.44577 0.020373 0 0 0 
0.61579 0.44574 0.0098359 0 0 0 
0.57545 0.44572 0.0064781 0 0 0 
0.42706 0.44567 0.0026457 0 0 0 
0.25073 0.44564 0.010773 0 0 0 
0.23748 0.44566 0.01842 0 0 0 
0.16787 0.60304 0.27998 0 0 0 
0.19271 0.65374 0.25411 0 0 0 
0.17413 0.66035 0.2731 0 0 0 
0.1488 0.63584 0.29925 0 0 0 
12 0 1 2 3 4 5 6 7 8 9 10 11
19 12 13 14 15 16 17 18 19 20 21 22 23 24 25 26 27 28 29 30
11 31 32 33 34 35 36 37 38 39 40 41
15 42 43 44 45 46 47 48 49 50 51 52 53 54 55 56
14 57 58 59 60 61 62 63 64 65 66 67 68 69 70
17 71 72 73 74 75 76 77 78 79 80 81 82 83 84 85 86 87
7 88 89 90 91 92 93 94
11 95 96 97 98 99 100 101 102 103 104 105
21 106 107 108 109 110 111 112 113 114 115 116 117 118 119 120 121 122 123 124 125 126
15 127 128 129 130 131 132 133 134 135 136 137 138 139 140 141
10 142 143 144 145 146 147 148 149 150 151
15 152 153 154 155 156 157 158 159 160 161 162 163 164 165 166
4 167 168 169 170
