ply
format ascii 1.0
comment PCL generated
element vertex 19
property float x
property float y
property float z
property uchar red
property uchar green
property uchar blue
element face 1
property list uchar int vertex_indices
end_header
0.22464 0.44618 0.21107 0 0 0 
0.22576 0.44576 0.077634 0 0 0 
0.23509 0.44559 0.022825 0 0 0 
0.23748 0.44558 0.01842 0 0 0 
0.25073 0.44556 0.010772 0 0 0 
0.39856 0.4456 0.0046397 0 0 0 
0.42706 0.44561 0.0026475 0 0 0 
0.54588 0.44567 0.0061677 0 0 0 
0.57545 0.44568 0.0064769 0 0 0 
0.61579 0.44571 0.0098361 0 0 0 
0.62349 0.44574 0.020374 0 0 0 
0.65494 0.44616 0.14921 0 0 0 
0.65862 0.44631 0.19496 0 0 0 
0.65809 0.44638 0.21841 0 0 0 
0.65369 0.4464 0.22456 0 0 0 
0.60214 0.44638 0.2241 0 0 0 
0.36409 0.44631 0.2327 0 0 0 
0.27659 0.44626 0.22931 0 0 0 
0.24053 0.44624 0.22618 0 0 0 
19 0 1 2 3 4 5 6 7 8 9 10 11 12 13 14 15 16 17 18
