ply
format ascii 1.0
comment PCL generated
element vertex 44
property float x
property float y
property float z
property uchar red
property uchar green
property uchar blue
element face 11
property list uchar int vertex_indices
end_header
0.65401 0.66139 0.0015148 0 0 0 
0.0058342 0.66112 0.0015156 0 0 0 
0.0058342 0.66211 0.31554 0 0 0 
0.65401 0.66237 0.31554 0 0 0 
0.65925 0.66608 0.0009962 0 0 0 
0.65934 0.44766 0.00099668 0 0 0 
0.65767 0.44766 0.32097 0 0 0 
0.65757 0.66608 0.32097 0 0 0 
0.65654 0.5539 0.32665 0 0 0 
0.098823 0.55234 0.32493 0 0 0 
0.098823 0.66692 0.22073 0 0 0 
0.65654 0.66848 0.22244 0 0 0 
0.64288 0.4531 0.2076 0 0 0 
0.014591 0.45448 0.20661 0 0 0 
0.014591 0.54604 0.33421 0 0 0 
0.64288 0.54465 0.3352 0 0 0 
0.12151 0.66145 0.32889 0 0 0 
0.12061 0.00069699 0.32979 0 0 0 
-0.011396 0.00069699 0.19649 0 0 0 
-0.010495 0.66145 0.19559 0 0 0 
0.062766 0.57246 0.30521 0 0 0 
0.0034993 0.5723 0.30503 0 0 0 
0.0034993 0.65898 0.2262 0 0 0 
0.062766 0.65914 0.22638 0 0 0 
0.0087015 0.66482 0.0026146 0 0 0 
0.008958 0.0061937 0.0026132 0 0 0 
0.010717 0.0061937 0.3271 0 0 0 
0.010461 0.66482 0.3271 0 0 0 
0.2285 0.010152 0.3066 0 0 0 
0.0067421 0.010061 0.3066 0 0 0 
0.0067421 0.0090986 1.4722e-05 0 0 0 
0.2285 0.0091888 1.4439e-05 0 0 0 
0.22626 0.44894 0.003478 0 0 0 
0.22644 0.039314 0.0034795 0 0 0 
0.22448 0.039314 0.23509 0 0 0 
0.2243 0.44894 0.23509 0 0 0 
0.22056 0.50008 0.22521 0 0 0 
0.2214 0.022807 0.22606 0 0 0 
0.12385 0.022807 0.32306 0 0 0 
0.123 0.50008 0.32221 0 0 0 
0.65862 0.44643 0.2327 0 0 0 
0.22464 0.44625 0.2327 0 0 0 
0.22464 0.44553 0.0026478 0 0 0 
0.65862 0.4457 0.0026472 0 0 0 
4 0 1 2 3
4 4 5 6 7
4 8 9 10 11
4 12 13 14 15
4 16 17 18 19
4 20 21 22 23
4 24 25 26 27
4 28 29 30 31
4 32 33 34 35
4 36 37 38 39
4 40 41 42 43
