ply
format ascii 1.0
comment PCL generated
element vertex 52
property float x
property float y
property float z
property uchar red
property uchar green
property uchar blue
element face 13
property list uchar int vertex_indices
end_header
0.65401 0.6607 0.0015122 0 0 0 
0.0034955 0.66051 0.0015136 0 0 0 
0.0034955 0.66293 0.31552 0 0 0 
0.65401 0.66312 0.31552 0 0 0 
0.65796 0.66608 0.00095393 0 0 0 
0.65802 0.44612 0.00095373 0 0 0 
0.65916 0.44612 0.31819 0 0 0 
0.65911 0.66608 0.31819 0 0 0 
0.65653 0.55428 0.32699 0 0 0 
0.11873 0.55518 0.32789 0 0 0 
0.11873 0.66475 0.21807 0 0 0 
0.65653 0.66385 0.21717 0 0 0 
0.64735 0.44605 0.22076 0 0 0 
0.15291 0.4451 0.22173 0 0 0 
0.15291 0.55535 0.32905 0 0 0 
0.64735 0.5563 0.32807 0 0 0 
0.12947 0.64293 0.32331 0 0 0 
0.12718 0.0090025 0.32631 0 0 0 
0.007867 0.0090025 0.23497 0 0 0 
0.010162 0.64293 0.23197 0 0 0 
0.0089369 0.66588 0.0026069 0 0 0 
0.0091063 0.0061936 0.0026063 0 0 0 
0.010203 0.0061936 0.30731 0 0 0 
0.010034 0.66588 0.30731 0 0 0 
0.062756 0.55391 0.32714 0 0 0 
0.0076011 0.55401 0.32723 0 0 0 
0.0076011 0.6375 0.24355 0 0 0 
0.062756 0.63741 0.24346 0 0 0 
0.090263 0.55439 0.32689 0 0 0 
0.0095766 0.55423 0.32705 0 0 0 
0.0095766 0.48238 0.25712 0 0 0 
0.090263 0.48254 0.25696 0 0 0 
0.2285 0.01113 0.3206 0 0 0 
0.0067421 0.011067 0.3206 0 0 0 
0.0067421 0.0085927 4.0114e-05 0 0 0 
0.2285 0.0086559 3.9622e-05 0 0 0 
0.22479 0.44894 0.0034484 0 0 0 
0.22491 0.011013 0.003448 0 0 0 
0.22575 0.011013 0.23664 0 0 0 
0.22563 0.44894 0.23664 0 0 0 
0.13285 0.51419 0.33006 0 0 0 
0.13465 0.044422 0.33133 0 0 0 
0.21166 0.044422 0.22202 0 0 0 
0.20986 0.51419 0.22076 0 0 0 
0.65494 0.44632 0.22931 0 0 0 
0.22669 0.44621 0.22931 0 0 0 
0.22669 0.44561 0.0026459 0 0 0 
0.65494 0.44573 0.0026456 0 0 0 
0.19269 0.66035 0.25408 0 0 0 
0.19291 0.60304 0.25431 0 0 0 
0.14893 0.60304 0.29938 0 0 0 
0.1487 0.66035 0.29916 0 0 0 
4 0 1 2 3
4 4 5 6 7
4 8 9 10 11
4 12 13 14 15
4 16 17 18 19
4 20 21 22 23
4 24 25 26 27
4 28 29 30 31
4 32 33 34 35
4 36 37 38 39
4 40 41 42 43
4 44 45 46 47
4 48 49 50 51
