ply
format ascii 1.0
comment PCL generated
element vertex 60
property float x
property float y
property float z
property uchar red
property uchar green
property uchar blue
element face 15
property list uchar int vertex_indices
end_header
0.0058832 0.35655 -1.4603e-05 60 97 52 
0.0052135 0.00181 -1.0788e-05 60 97 52 
0.0097082 0.00181 0.78734 60 97 52 
0.010378 0.35655 0.78734 60 97 52 
0.0045538 0.0057496 0.23505 44 77 106 
-0.00074321 0.0061176 0.074692 44 77 106 
0.0069754 0.11722 0.074692 44 77 106 
0.012272 0.11685 0.23505 44 77 106 
0.089061 0.058115 0.20685 124 83 45 
0.029991 0.13106 0.033038 124 83 45 
-0.033074 0.079997 0.033037 124 83 45 
0.025996 0.0070475 0.20685 124 83 45 
0.38824 0.33976 0.073116 79 51 85 
0.015375 0.33965 0.07312 79 51 85 
0.015375 0.34126 0.1327 79 51 85 
0.38824 0.34138 0.13269 79 51 85 
0.39594 0.29478 0.13096 102 56 43 
0.016183 0.29496 0.12888 102 56 43 
0.016183 0.33925 0.1327 102 56 43 
0.39594 0.33907 0.13478 102 56 43 
0.39547 0.29548 0.19372 120 44 48 
0.013473 0.29464 0.19374 120 44 48 
0.013473 0.29337 0.13576 120 44 48 
0.39547 0.29421 0.13574 120 44 48 
0.3979 0.2503 0.19613 107 63 89 
0.015473 0.25079 0.19103 107 63 89 
0.015473 0.29476 0.1953 107 63 89 
0.3979 0.29426 0.2004 107 63 89 
0.3962 0.25096 0.25968 120 44 48 
0.020535 0.24889 0.25974 120 44 48 
0.020535 0.2472 0.19346 120 44 48 
0.3962 0.24927 0.19341 120 44 48 
0.39448 0.29432 0.13036 79 51 85 
0.028028 0.2929 0.13038 79 51 85 
0.028028 0.29395 0.19761 79 51 85 
0.39448 0.29537 0.19759 79 51 85 
0.21498 0.2059 0.25581 102 56 43 
0.022551 0.20601 0.25463 102 56 43 
0.022551 0.25038 0.25862 102 56 43 
0.21498 0.25027 0.2598 102 56 43 
0.39225 0.2052 0.32425 120 44 48 
0.021599 0.20432 0.32427 120 44 48 
0.021599 0.2032 0.25763 120 44 48 
0.39225 0.20407 0.25762 120 44 48 
0.39616 0.11385 0.38448 102 56 43 
0.023945 0.11388 0.38416 102 56 43 
0.023945 0.15946 0.38753 102 56 43 
0.39616 0.15944 0.38785 102 56 43 
0.39512 0.11728 0.4479 107 63 89 
0.027558 0.11706 0.4539 107 63 89 
0.027558 0.065458 0.45198 107 63 89 
0.39512 0.065682 0.44598 107 63 89 
0.39739 0.16005 0.32289 102 56 43 
0.048894 0.16066 0.31704 102 56 43 
0.048894 0.20439 0.32158 102 56 43 
0.39739 0.20379 0.32744 102 56 43 
0.39612 0.2034 0.26101 107 63 89 
0.17627 0.20388 0.25555 107 63 89 
0.17627 0.25076 0.25963 107 63 89 
0.39612 0.25028 0.26509 107 63 89 
4 0 1 2 3
4 4 5 6 7
4 8 9 10 11
4 12 13 14 15
4 16 17 18 19
4 20 21 22 23
4 24 25 26 27
4 28 29 30 31
4 32 33 34 35
4 36 37 38 39
4 40 41 42 43
4 44 45 46 47
4 48 49 50 51
4 52 53 54 55
4 56 57 58 59
