ply
format ascii 1.0
comment PCL generated
element vertex 60
property float x
property float y
property float z
property uchar red
property uchar green
property uchar blue
element face 15
property list uchar int vertex_indices
end_header
0.0059445 0.35655 -1.6302e-05 60 97 52 
0.0049574 0.0018088 -1.0148e-05 60 97 52 
0.0098722 0.0018088 0.78734 60 97 52 
0.010859 0.35655 0.78734 60 97 52 
0.005892 0.11725 0.23508 44 77 106 
0.0072785 0.1172 0.074687 44 77 106 
0.0036534 0.0058125 0.074687 44 77 106 
0.0022669 0.0058576 0.23508 44 77 106 
0.088949 0.057606 0.20685 124 83 45 
0.029999 0.13106 0.03304 124 83 45 
-0.032987 0.080503 0.03304 124 83 45 
0.025962 0.0070533 0.20685 124 83 45 
0.38824 0.34031 0.073112 79 51 85 
0.015391 0.33932 0.073135 79 51 85 
0.015391 0.34066 0.1327 79 51 85 
0.38824 0.34165 0.13268 79 51 85 
0.39593 0.29472 0.13157 102 56 43 
0.016205 0.29502 0.12819 102 56 43 
0.016205 0.33931 0.13207 102 56 43 
0.39593 0.33901 0.13546 102 56 43 
0.39547 0.29559 0.19372 79 51 85 
0.013478 0.29458 0.19374 79 51 85 
0.013478 0.29327 0.13576 79 51 85 
0.39547 0.29428 0.13574 79 51 85 
0.3979 0.25041 0.19551 102 56 43 
0.015424 0.25071 0.19211 102 56 43 
0.015424 0.29467 0.19596 102 56 43 
0.3979 0.29437 0.19937 102 56 43 
0.3962 0.25034 0.2597 79 51 85 
0.020528 0.24934 0.25972 79 51 85 
0.020528 0.24784 0.19344 79 51 85 
0.3962 0.24884 0.19342 79 51 85 
0.39448 0.29387 0.13035 79 51 85 
0.028024 0.2929 0.13038 79 51 85 
0.028024 0.29442 0.19761 79 51 85 
0.39448 0.29539 0.19759 79 51 85 
0.21498 0.20588 0.25617 102 56 43 
0.022556 0.20603 0.25445 102 56 43 
0.022556 0.25039 0.25834 102 56 43 
0.21498 0.25024 0.26006 102 56 43 
0.39225 0.20544 0.32424 79 51 85 
0.021599 0.20446 0.32426 79 51 85 
0.021599 0.20295 0.25764 79 51 85 
0.39225 0.20394 0.25762 79 51 85 
0.39617 0.11371 0.3857 102 56 43 
0.023982 0.11401 0.38238 102 56 43 
0.023982 0.15957 0.38638 102 56 43 
0.39617 0.15928 0.38969 102 56 43 
0.39513 0.11729 0.44848 120 44 48 
0.027564 0.11698 0.45404 120 44 48 
0.027564 0.065393 0.45109 120 44 48 
0.39513 0.06571 0.44554 120 44 48 
0.39735 0.16018 0.32197 102 56 43 
0.048918 0.16045 0.31886 102 56 43 
0.048918 0.20421 0.3227 102 56 43 
0.39735 0.20394 0.32581 102 56 43 
0.39613 0.20344 0.26008 120 44 48 
0.17627 0.20379 0.25637 120 44 48 
0.17627 0.25069 0.26077 120 44 48 
0.39613 0.25034 0.26448 120 44 48 
4 0 1 2 3
4 4 5 6 7
4 8 9 10 11
4 12 13 14 15
4 16 17 18 19
4 20 21 22 23
4 24 25 26 27
4 28 29 30 31
4 32 33 34 35
4 36 37 38 39
4 40 41 42 43
4 44 45 46 47
4 48 49 50 51
4 52 53 54 55
4 56 57 58 59
