ply
format ascii 1.0
comment PCL generated
element vertex 1368
property float x
property float y
property float z
property uchar red
property uchar green
property uchar blue
element face 342
property list uchar int vertex_indices
end_header
0.29205 0.028417 0.11775 0 0 0 
0.29297 0.00014754 0.11778 0 0 0 
0.29758 0.00014754 0.0006727 0 0 0 
0.29666 0.028417 0.0006365 0 0 0 
0.29598 0.02467 0.039273 0 0 0 
0.29688 1.1261e-05 0.039509 0 0 0 
0.30228 1.1258e-05 0.019033 0 0 0 
0.30138 0.02467 0.018797 0 0 0 
0.31862 0.0013518 0.0015316 0 0 0 
0.22066 0.0013622 0.00089825 0 0 0 
0.22066 0.32384 0.006246 0 0 0 
0.31862 0.32383 0.0068793 0 0 0 
0.30043 0.016668 0.50708 0 0 0 
0.2999 0.025445 0.001422 0 0 0 
0.22649 0.020932 0.001422 0 0 0 
0.22703 0.012155 0.50708 0 0 0 
0.2202 0.11841 0.10458 0 0 0 
0.22467 0.021284 0.10497 0 0 0 
0.23369 0.021284 0.0024411 0 0 0 
0.22922 0.11841 0.0020478 0 0 0 
0.30091 0.6361 0.0070751 0 0 0 
0.30091 0.35284 0.0070584 0 0 0 
0.25811 0.35284 0.012095 0 0 0 
0.25811 0.6361 0.012112 0 0 0 
0.25948 0.63958 0.11481 0 0 0 
0.26159 0.59755 0.11498 0 0 0 
0.27014 0.59755 0.0092473 0 0 0 
0.26803 0.63958 0.0090769 0 0 0 
0.26694 0.59704 0.50453 0 0 0 
0.2667 0.60125 0.039623 0 0 0 
0.19702 0.59723 0.039623 0 0 0 
0.19726 0.59302 0.50453 0 0 0 
0.26523 0.59627 0.01799 0 0 0 
0.20182 0.59458 0.018116 0 0 0 
0.20182 0.59717 0.053027 0 0 0 
0.26523 0.59886 0.052902 0 0 0 
0.28076 0.59716 0.0036433 0 0 0 
0.28158 0.33081 0.0055522 0 0 0 
0.2291 0.33081 0.027938 0 0 0 
0.22829 0.59716 0.026029 0 0 0 
0.27508 0.33133 0.12859 0 0 0 
0.27719 0.29456 0.12874 0 0 0 
0.28544 0.29456 0.0075362 0 0 0 
0.28332 0.33133 0.0073921 0 0 0 
0.23303 0.41487 0.047861 0 0 0 
0.23996 0.32957 0.049503 0 0 0 
0.24737 0.32957 0.018228 0 0 0 
0.24043 0.41487 0.016586 0 0 0 
0.2836 0.33318 0.0102 0 0 0 
0.2212 0.33033 0.0097554 0 0 0 
0.2212 0.32473 0.045669 0 0 0 
0.2836 0.32759 0.046113 0 0 0 
0.27914 0.32068 0.50649 0 0 0 
0.27888 0.32614 0.040753 0 0 0 
0.21042 0.32296 0.040753 0 0 0 
0.21067 0.3175 0.50649 0 0 0 
0.29051 0.19134 0.010695 0 0 0 
0.29045 0.14719 0.010628 0 0 0 
0.29843 0.14719 0.0031045 0 0 0 
0.2985 0.19134 0.0031723 0 0 0 
0.28955 0.16773 0.50182 0 0 0 
0.28913 0.17644 0.0039855 0 0 0 
0.21961 0.17311 0.0039855 0 0 0 
0.22003 0.16439 0.50182 0 0 0 
0.28328 0.17955 0.1097 0 0 0 
0.28532 0.14416 0.10986 0 0 0 
0.2937 0.14416 0.0039508 0 0 0 
0.29166 0.17955 0.0037896 0 0 0 
0.17974 0.89967 0.53412 0 0 0 
0.1836 0.89987 0.0036736 0 0 0 
0.23013 0.01354 0.0036736 0 0 0 
0.22627 0.013337 0.53412 0 0 0 
0.21082 0.37157 0.1104 0 0 0 
0.21312 0.32205 0.11055 0 0 0 
0.21914 0.32205 0.022071 0 0 0 
0.21684 0.37157 0.021914 0 0 0 
0.26227 0.55166 0.0097961 0 0 0 
0.2652 0.49461 0.0087289 0 0 0 
0.26985 0.49461 0.021507 0 0 0 
0.26693 0.55166 0.022574 0 0 0 
0.22375 0.37365 0.26661 0 0 0 
0.22532 0.37372 0.027563 0 0 0 
0.21754 0.53279 0.027563 0 0 0 
0.21597 0.53271 0.26661 0 0 0 
0.20428 0.51142 0.060542 0 0 0 
0.20895 0.40357 0.06149 0 0 0 
0.21508 0.40357 0.031327 0 0 0 
0.21041 0.51142 0.030378 0 0 0 
0.20068 0.418 0.13616 0 0 0 
0.20629 0.42009 0.033689 0 0 0 
0.2125 0.40346 0.033689 0 0 0 
0.20688 0.40136 0.13616 0 0 0 
0.22706 0.39199 0.15175 0 0 0 
0.23026 0.39578 0.028902 0 0 0 
0.18616 0.43305 0.028902 0 0 0 
0.18296 0.42926 0.15175 0 0 0 
0.25135 0.40027 0.045949 0 0 0 
0.25268 0.40341 0.015555 0 0 0 
0.23782 0.40969 0.015555 0 0 0 
0.23649 0.40655 0.045949 0 0 0 
0.2328 0.3719 0.1704 0 0 0 
0.23484 0.37199 0.047544 0 0 0 
0.23366 0.39687 0.047544 0 0 0 
0.23161 0.39678 0.1704 0 0 0 
0.27851 0.38653 0.03897 0 0 0 
0.27896 0.38739 0.01509 0 0 0 
0.26512 0.39474 0.01509 0 0 0 
0.26466 0.39388 0.03897 0 0 0 
0.22887 0.54942 0.024201 0 0 0 
0.23011 0.45689 0.024255 0 0 0 
0.22361 0.45689 0.17376 0 0 0 
0.22237 0.54942 0.17371 0 0 0 
0.24277 0.59568 0.016093 0 0 0 
0.2474 0.50121 0.017397 0 0 0 
0.24411 0.50121 0.029108 0 0 0 
0.23947 0.59568 0.027804 0 0 0 
0.26967 0.54073 0.047403 0 0 0 
0.2701 0.54008 0.022825 0 0 0 
0.23844 0.51889 0.022825 0 0 0 
0.238 0.51954 0.047403 0 0 0 
0.21217 0.59031 0.049279 0 0 0 
0.21324 0.59177 0.027715 0 0 0 
0.20335 0.59898 0.027715 0 0 0 
0.20228 0.59752 0.049279 0 0 0 
0.20142 0.59312 0.046801 0 0 0 
0.20274 0.55083 0.047601 0 0 0 
0.21387 0.55083 0.029162 0 0 0 
0.21254 0.59312 0.028362 0 0 0 
0.20337 0.51909 0.085282 0 0 0 
0.20934 0.51702 0.03345 0 0 0 
0.20307 0.49898 0.03345 0 0 0 
0.1971 0.50106 0.085282 0 0 0 
0.18312 0.48945 0.15322 0 0 0 
0.18464 0.48782 0.037087 0 0 0 
0.20607 0.50783 0.037087 0 0 0 
0.20454 0.50946 0.15322 0 0 0 
0.18031 0.42651 0.11981 0 0 0 
0.18295 0.42663 0.036305 0 0 0 
0.17997 0.49008 0.036305 0 0 0 
0.17732 0.48995 0.11981 0 0 0 
0.26509 0.74845 0.0084352 0 0 0 
0.26509 0.6669 0.0085243 0 0 0 
0.19578 0.6669 0.0089343 0 0 0 
0.19578 0.74845 0.0088452 0 0 0 
0.28801 0.64081 0.080784 0 0 0 
0.28824 0.63812 0.0094841 0 0 0 
0.222 0.63232 0.0094841 0 0 0 
0.22177 0.63501 0.080784 0 0 0 
0.22948 0.70199 0.072446 0 0 0 
0.22941 0.70198 0.0083568 0 0 0 
0.23163 0.6692 0.0083568 0 0 0 
0.2317 0.6692 0.072446 0 0 0 
0.18683 0.74865 0.11523 0 0 0 
0.19236 0.63948 0.11568 0 0 0 
0.2012 0.63948 0.0082269 0 0 0 
0.19566 0.74865 0.007772 0 0 0 
0.23174 0.67094 0.068157 0 0 0 
0.23174 0.67098 0.0085188 0 0 0 
0.20005 0.6687 0.0085188 0 0 0 
0.20005 0.66867 0.068157 0 0 0 
0.25214 0.78377 0.11613 0 0 0 
0.2535 0.74853 0.11624 0 0 0 
0.26237 0.74853 0.0090644 0 0 0 
0.261 0.78377 0.0089517 0 0 0 
0.26058 0.74713 0.53377 0 0 0 
0.26041 0.75125 0.0085421 0 0 0 
0.18575 0.74816 0.0085421 0 0 0 
0.18592 0.74404 0.53377 0 0 0 
0.22679 0.8874 0.0064322 0 0 0 
0.19162 0.88741 0.0067835 0 0 0 
0.19162 0.79986 0.0081726 0 0 0 
0.22679 0.79986 0.0078214 0 0 0 
0.19969 0.74194 0.068679 0 0 0 
0.19818 0.74028 0.0092643 0 0 0 
0.18964 0.74803 0.0092643 0 0 0 
0.19115 0.74968 0.068679 0 0 0 
0.24404 0.93519 0.11743 0 0 0 
0.24606 0.89993 0.11759 0 0 0 
0.25515 0.89993 0.0080833 0 0 0 
0.25312 0.93519 0.0079151 0 0 0 
0.19228 0.89846 0.053592 0 0 0 
0.1924 0.89629 0.0073972 0 0 0 
0.25128 0.89947 0.0073972 0 0 0 
0.25117 0.90164 0.053592 0 0 0 
0.24853 0.87002 0.035441 0 0 0 
0.24843 0.87009 0.0086284 0 0 0 
0.24475 0.86438 0.0086284 0 0 0 
0.24485 0.86432 0.035441 0 0 0 
0.20212 0.98993 0.019793 0 0 0 
0.20331 0.9625 0.019986 0 0 0 
0.20542 0.9625 0.0069585 0 0 0 
0.20422 0.98993 0.0067649 0 0 0 
0.18128 0.99916 0.049569 0 0 0 
0.18222 0.97203 0.049642 0 0 0 
0.1854 0.97203 0.0084036 0 0 0 
0.18446 0.99916 0.0083312 0 0 0 
0.17846 0.96751 0.10678 0 0 0 
0.17947 0.96755 0.044311 0 0 0 
0.17812 0.99792 0.044311 0 0 0 
0.17712 0.99787 0.10678 0 0 0 
0.19141 0.90009 0.11931 0 0 0 
0.19063 0.90094 0.048892 0 0 0 
0.18053 0.89163 0.048892 0 0 0 
0.18131 0.89078 0.11931 0 0 0 
0.24943 0.89796 0.52001 0 0 0 
0.24913 0.90376 0.049208 0 0 0 
0.17737 0.90004 0.049208 0 0 0 
0.17767 0.89424 0.52001 0 0 0 
0.20163 0.66955 0.047238 0 0 0 
0.20208 0.66931 0.0086255 0 0 0 
0.19727 0.66016 0.0086255 0 0 0 
0.19682 0.6604 0.047238 0 0 0 
0.28903 0.0033603 0.36749 0 0 0 
0.29398 0.0080419 0.11686 0 0 0 
0.27921 0.023653 0.11686 0 0 0 
0.27426 0.018971 0.36749 0 0 0 
0.28608 0.022127 0.12412 0 0 0 
0.28656 0.0010954 0.12454 0 0 0 
0.29563 0.0010954 0.11437 0 0 0 
0.29515 0.022127 0.11394 0 0 0 
0.29109 0.0079482 0.28836 0 0 0 
0.29125 0.0078436 0.1175 0 0 0 
0.28696 0.0013642 0.1175 0 0 0 
0.28681 0.0014687 0.28836 0 0 0 
0.27989 0.019627 0.36393 0 0 0 
0.28658 0.0042355 0.37126 0 0 0 
0.27308 0.0042355 0.38359 0 0 0 
0.26639 0.019627 0.37625 0 0 0 
0.26808 0.0031859 0.4889 0 0 0 
0.26973 0.003303 0.37142 0 0 0 
0.26871 0.017662 0.37142 0 0 0 
0.26706 0.017545 0.4889 0 0 0 
0.22913 0.13804 0.61509 0 0 0 
0.23554 0.004941 0.61436 0 0 0 
0.22454 0.004941 0.51771 0 0 0 
0.21813 0.13804 0.51844 0 0 0 
0.23155 0.1332 0.53325 0 0 0 
0.23215 0.014407 0.5307 0 0 0 
0.22076 0.014407 0.52802 0 0 0 
0.22017 0.1332 0.53057 0 0 0 
0.22807 0.13032 0.52959 0 0 0 
0.23143 0.013165 0.53124 0 0 0 
0.2248 0.013165 0.54479 0 0 0 
0.22143 0.13032 0.54314 0 0 0 
0.20489 0.11822 0.11344 0 0 0 
0.20585 0.043173 0.11463 0 0 0 
0.22877 0.043173 0.096267 0 0 0 
0.22782 0.11822 0.095078 0 0 0 
0.2304 0.036953 0.21241 0 0 0 
0.23119 0.038555 0.092631 0 0 0 
0.20789 0.050005 0.092631 0 0 0 
0.20711 0.048402 0.21241 0 0 0 
0.20909 0.044995 0.2513 0 0 0 
0.21011 0.045045 0.10973 0 0 0 
0.20669 0.11441 0.10973 0 0 0 
0.20567 0.11436 0.2513 0 0 0 
0.19745 0.044675 0.20248 0 0 0 
0.19692 0.045554 0.11816 0 0 0 
0.2091 0.052971 0.11816 0 0 0 
0.20963 0.052092 0.20248 0 0 0 
0.19813 0.053705 0.22481 0 0 0 
0.19679 0.049377 0.20181 0 0 0 
0.2242 0.040897 0.20181 0 0 0 
0.22554 0.045226 0.22481 0 0 0 
0.20676 0.081768 0.25509 0 0 0 
0.19292 0.098121 0.21486 0 0 0 
0.21555 0.11729 0.21486 0 0 0 
0.2294 0.10093 0.25509 0 0 0 
0.22443 0.075871 0.26205 0 0 0 
0.20131 0.082611 0.25355 0 0 0 
0.20131 0.05822 0.23421 0 0 0 
0.22443 0.05148 0.24271 0 0 0 
0.22534 0.062326 0.25527 0 0 0 
0.20694 0.069875 0.25057 0 0 0 
0.20694 0.050536 0.21948 0 0 0 
0.22534 0.042988 0.22418 0 0 0 
0.2248 0.042895 0.44444 0 0 0 
0.22542 0.044166 0.2973 0 0 0 
0.21181 0.050791 0.2973 0 0 0 
0.21119 0.04952 0.44444 0 0 0 
0.22865 0.12071 0.28952 0 0 0 
0.22936 0.019305 0.29038 0 0 0 
0.21405 0.019305 0.30298 0 0 0 
0.21334 0.12071 0.30211 0 0 0 
0.21345 0.047034 0.47395 0 0 0 
0.21242 0.046999 0.30135 0 0 0 
0.21036 0.10608 0.30135 0 0 0 
0.21139 0.10611 0.47395 0 0 0 
0.21024 0.1017 0.42758 0 0 0 
0.20929 0.10303 0.34161 0 0 0 
0.22251 0.11251 0.34161 0 0 0 
0.22346 0.11119 0.42758 0 0 0 
0.22664 0.046461 0.46914 0 0 0 
0.22129 0.040337 0.42896 0 0 0 
0.20465 0.054873 0.42896 0 0 0 
0.20999 0.060997 0.46914 0 0 0 
0.19579 0.055966 0.4701 0 0 0 
0.18494 0.060741 0.46609 0 0 0 
0.18494 0.035461 0.43602 0 0 0 
0.19579 0.030685 0.44004 0 0 0 
0.23442 0.056889 0.48333 0 0 0 
0.21985 0.043439 0.45398 0 0 0 
0.20034 0.064567 0.45398 0 0 0 
0.2149 0.078016 0.48333 0 0 0 
0.22077 0.018017 0.522 0 0 0 
0.22234 0.0044685 0.52331 0 0 0 
0.25724 0.0044685 0.48147 0 0 0 
0.25567 0.018017 0.48017 0 0 0 
0.21231 0.091868 0.46377 0 0 0 
0.20812 0.09534 0.44418 0 0 0 
0.21744 0.10657 0.44418 0 0 0 
0.22162 0.10309 0.46377 0 0 0 
0.22255 0.079398 0.48318 0 0 0 
0.21062 0.074404 0.47732 0 0 0 
0.21062 0.096222 0.45874 0 0 0 
0.22255 0.10122 0.4646 0 0 0 
0.19914 0.12798 0.57552 0 0 0 
0.20374 0.0058117 0.57583 0 0 0 
0.20542 0.0058117 0.55127 0 0 0 
0.20081 0.12798 0.55096 0 0 0 
0.23889 -0.00070123 0.57954 0 0 0 
0.24377 0.0051141 0.5007 0 0 0 
0.22895 0.017544 0.5007 0 0 0 
0.22407 0.011728 0.57954 0 0 0 
0.14561 0.12429 0.71991 0 0 0 
0.1508 0.015343 0.72174 0 0 0 
0.19871 0.015343 0.58588 0 0 0 
0.19353 0.12429 0.58405 0 0 0 
0.20376 0.081729 0.60098 0 0 0 
0.1951 0.085504 0.60361 0 0 0 
0.1951 0.072874 0.62172 0 0 0 
0.20376 0.069099 0.61909 0 0 0 
0.18887 0.080243 0.59691 0 0 0 
0.189 0.064804 0.59656 0 0 0 
0.20575 0.064804 0.60285 0 0 0 
0.20562 0.080243 0.60319 0 0 0 
0.26045 0.62899 0.11525 0 0 0 
0.26174 0.60094 0.11444 0 0 0 
0.26614 0.60094 0.12146 0 0 0 
0.26485 0.62899 0.12227 0 0 0 
0.25457 0.62801 0.13219 0 0 0 
0.25515 0.6025 0.13271 0 0 0 
0.26595 0.6025 0.12059 0 0 0 
0.26537 0.62801 0.12007 0 0 0 
0.24071 0.62923 0.38616 0 0 0 
0.2438 0.632 0.12561 0 0 0 
0.26167 0.61211 0.12561 0 0 0 
0.25858 0.60933 0.38616 0 0 0 
0.25952 0.61436 0.37344 0 0 0 
0.26058 0.61357 0.12476 0 0 0 
0.24646 0.59465 0.12476 0 0 0 
0.2454 0.59544 0.37344 0 0 0 
0.27079 0.32718 0.10005 0 0 0 
0.27216 0.29593 0.099323 0 0 0 
0.28179 0.29593 0.11746 0 0 0 
0.28042 0.32718 0.11818 0 0 0 
0.26038 0.32359 0.37404 0 0 0 
0.26342 0.32614 0.11781 0 0 0 
0.27906 0.30756 0.11781 0 0 0 
0.27602 0.30501 0.37404 0 0 0 
0.27519 0.31225 0.37031 0 0 0 
0.27669 0.31115 0.12079 0 0 0 
0.26271 0.29203 0.12079 0 0 0 
0.2612 0.29313 0.37031 0 0 0 
0.19911 0.27074 0.11448 0 0 0 
0.19991 0.19541 0.11552 0 0 0 
0.22239 0.19541 0.098175 0 0 0 
0.22159 0.27074 0.097134 0 0 0 
0.21254 0.19007 0.21361 0 0 0 
0.21381 0.19133 0.10321 0 0 0 
0.20126 0.20386 0.10321 0 0 0 
0.2 0.2026 0.21361 0 0 0 
0.26691 0.17094 0.37063 0 0 0 
0.27108 0.17481 0.11881 0 0 0 
0.28529 0.15951 0.11881 0 0 0 
0.28113 0.15564 0.37063 0 0 0 
0.28043 0.17505 0.1254 0 0 0 
0.28112 0.14383 0.1259 0 0 0 
0.28968 0.14383 0.1142 0 0 0 
0.28899 0.17505 0.11369 0 0 0 
0.28832 0.17418 0.11695 0 0 0 
0.28974 0.14715 0.11608 0 0 0 
0.28568 0.14715 0.10941 0 0 0 
0.28425 0.17418 0.11027 0 0 0 
0.28399 0.161 0.36953 0 0 0 
0.28493 0.1603 0.12285 0 0 0 
0.27043 0.14088 0.12285 0 0 0 
0.26949 0.14158 0.36953 0 0 0 
0.22279 0.12086 0.19571 0 0 0 
0.22258 0.12117 0.1272 0 0 0 
0.21331 0.11486 0.1272 0 0 0 
0.21352 0.11455 0.19571 0 0 0 
0.19888 0.26507 0.25778 0 0 0 
0.19959 0.26511 0.1086 0 0 0 
0.20276 0.199 0.1086 0 0 0 
0.20205 0.19896 0.25778 0 0 0 
0.18846 0.1968 0.19377 0 0 0 
0.18842 0.1969 0.15778 0 0 0 
0.19559 0.1994 0.15778 0 0 0 
0.19563 0.19929 0.19377 0 0 0 
0.20348 0.19816 0.21092 0 0 0 
0.2038 0.19898 0.10767 0 0 0 
0.21881 0.1931 0.10767 0 0 0 
0.21849 0.19228 0.21092 0 0 0 
0.22012 0.27529 0.22663 0 0 0 
0.21941 0.27628 0.10073 0 0 0 
0.19727 0.26053 0.10073 0 0 0 
0.19798 0.25954 0.22663 0 0 0 
0.22516 0.20379 0.25238 0 0 0 
0.21613 0.18719 0.20369 0 0 0 
0.19221 0.2002 0.20369 0 0 0 
0.20124 0.2168 0.25238 0 0 0 
0.21817 0.20279 0.2438 0 0 0 
0.19931 0.20902 0.23702 0 0 0 
0.19931 0.23307 0.25914 0 0 0 
0.21817 0.22684 0.26592 0 0 0 
0.2027 0.24888 0.24685 0 0 0 
0.19384 0.26169 0.20231 0 0 0 
0.20892 0.27212 0.20231 0 0 0 
0.21778 0.25931 0.24685 0 0 0 
0.2011 0.25597 0.23742 0 0 0 
0.19178 0.22891 0.24975 0 0 0 
0.21478 0.22891 0.26713 0 0 0 
0.2241 0.25597 0.2548 0 0 0 
0.21746 0.41852 0.18153 0 0 0 
0.2115 0.41592 0.13461 0 0 0 
0.22391 0.38749 0.13461 0 0 0 
0.22987 0.39009 0.18153 0 0 0 
0.21371 0.41108 0.1478 0 0 0 
0.21516 0.41192 0.1103 0 0 0 
0.22511 0.39466 0.1103 0 0 0 
0.22366 0.39382 0.1478 0 0 0 
0.23585 0.40047 0.23127 0 0 0 
0.23506 0.40089 0.14604 0 0 0 
0.22058 0.37358 0.14604 0 0 0 
0.22138 0.37316 0.23127 0 0 0 
0.22234 0.40612 0.18632 0 0 0 
0.22491 0.39244 0.18695 0 0 0 
0.23352 0.39244 0.15192 0 0 0 
0.23095 0.40612 0.15129 0 0 0 
0.24096 0.40376 0.19199 0 0 0 
0.23274 0.39086 0.16148 0 0 0 
0.21343 0.40315 0.16148 0 0 0 
0.22164 0.41606 0.19199 0 0 0 
0.23097 0.37856 0.4573 0 0 0 
0.23304 0.38152 0.14598 0 0 0 
0.19475 0.40826 0.14598 0 0 0 
0.19269 0.4053 0.4573 0 0 0 
0.23346 0.38787 0.19347 0 0 0 
0.23469 0.38672 0.14139 0 0 0 
0.22349 0.37484 0.14139 0 0 0 
0.22227 0.37599 0.19347 0 0 0 
0.23338 0.38338 0.15568 0 0 0 
0.23857 0.37551 0.11085 0 0 0 
0.22812 0.36863 0.11085 0 0 0 
0.22294 0.3765 0.15568 0 0 0 
0.19658 0.49648 0.1274 0 0 0 
0.19725 0.42187 0.12616 0 0 0 
0.17871 0.42187 0.11609 0 0 0 
0.17804 0.49648 0.11732 0 0 0 
0.1881 0.48521 0.12761 0 0 0 
0.18863 0.43176 0.12831 0 0 0 
0.18162 0.43176 0.13362 0 0 0 
0.18109 0.48521 0.13293 0 0 0 
0.17615 0.46898 0.17029 0 0 0 
0.17838 0.47021 0.13318 0 0 0 
0.18554 0.45716 0.13318 0 0 0 
0.1833 0.45593 0.17029 0 0 0 
0.18144 0.44628 0.1728 0 0 0 
0.1722 0.43538 0.12935 0 0 0 
0.20446 0.40803 0.12935 0 0 0 
0.2137 0.41893 0.1728 0 0 0 
0.21874 0.52572 0.18613 0 0 0 
0.21632 0.52644 0.090385 0 0 0 
0.20836 0.49945 0.090385 0 0 0 
0.21078 0.49874 0.18613 0 0 0 
0.1973 0.505 0.1518 0 0 0 
0.19729 0.50501 0.054095 0 0 0 
0.22693 0.52808 0.054095 0 0 0 
0.22694 0.52807 0.1518 0 0 0 
0.21274 0.59816 0.28987 0 0 0 
0.21195 0.59921 0.051011 0 0 0 
0.19891 0.58936 0.051011 0 0 0 
0.1997 0.58831 0.28987 0 0 0 
0.22497 0.52525 0.26823 0 0 0 
0.22954 0.52976 0.13751 0 0 0 
0.21207 0.5474 0.13751 0 0 0 
0.20751 0.54288 0.26823 0 0 0 
0.22903 0.53738 0.48117 0 0 0 
0.22713 0.53969 0.14014 0 0 0 
0.18772 0.50711 0.14014 0 0 0 
0.18962 0.50481 0.48117 0 0 0 
0.21282 0.47932 0.20156 0 0 0 
0.20244 0.48179 0.13043 0 0 0 
0.21272 0.52499 0.13043 0 0 0 
0.2231 0.52252 0.20156 0 0 0 
0.20845 0.49698 0.17734 0 0 0 
0.19908 0.50661 0.13124 0 0 0 
0.17455 0.48275 0.13124 0 0 0 
0.18392 0.47312 0.17734 0 0 0 
0.21196 0.48672 0.18749 0 0 0 
0.19581 0.4995 0.15207 0 0 0 
0.1727 0.47029 0.15207 0 0 0 
0.18885 0.45751 0.18749 0 0 0 
0.17745 0.46353 0.16463 0 0 0 
0.18358 0.46181 0.10802 0 0 0 
0.1928 0.49467 0.10802 0 0 0 
0.18666 0.49639 0.16463 0 0 0 
0.18284 0.48615 0.15589 0 0 0 
0.17952 0.48515 0.13127 0 0 0 
0.1837 0.4713 0.13127 0 0 0 
0.18702 0.4723 0.15589 0 0 0 
0.19787 0.4205 0.12643 0 0 0 
0.19423 0.41818 0.089909 0 0 0 
0.18517 0.43237 0.089909 0 0 0 
0.18881 0.4347 0.12643 0 0 0 
0.18401 0.45817 0.17103 0 0 0 
0.18472 0.45767 0.13328 0 0 0 
0.18015 0.45106 0.13328 0 0 0 
0.17944 0.45155 0.17103 0 0 0 
0.18325 0.44191 0.1654 0 0 0 
0.18341 0.44195 0.1314 0 0 0 
0.17983 0.45415 0.1314 0 0 0 
0.17966 0.4541 0.1654 0 0 0 
0.18201 0.43257 0.16256 0 0 0 
0.18064 0.43297 0.12899 0 0 0 
0.18648 0.45312 0.12899 0 0 0 
0.18786 0.45272 0.16256 0 0 0 
0.20044 0.45673 0.19469 0 0 0 
0.21522 0.42241 0.18309 0 0 0 
0.18725 0.42241 0.14746 0 0 0 
0.17247 0.45673 0.15906 0 0 0 
0.19017 0.43948 0.12416 0 0 0 
0.18341 0.43411 0.10814 0 0 0 
0.19066 0.42499 0.10814 0 0 0 
0.19742 0.43036 0.12416 0 0 0 
0.19416 0.41763 0.1349 0 0 0 
0.19912 0.42125 0.11232 0 0 0 
0.19276 0.42999 0.11232 0 0 0 
0.1878 0.42637 0.1349 0 0 0 
0.21726 0.45595 0.21666 0 0 0 
0.20261 0.45091 0.16511 0 0 0 
0.21988 0.40076 0.16511 0 0 0 
0.23453 0.4058 0.21666 0 0 0 
0.22182 0.38634 0.27453 0 0 0 
0.22997 0.38376 0.20625 0 0 0 
0.22695 0.37423 0.20625 0 0 0 
0.2188 0.37681 0.27453 0 0 0 
0.21065 0.5061 0.16826 0 0 0 
0.20456 0.45846 0.17007 0 0 0 
0.21945 0.45846 0.22027 0 0 0 
0.22554 0.5061 0.21846 0 0 0 
0.21981 0.48898 0.22359 0 0 0 
0.22547 0.42362 0.22186 0 0 0 
0.21318 0.42362 0.18175 0 0 0 
0.20753 0.48898 0.18348 0 0 0 
0.20776 0.48044 0.18083 0 0 0 
0.20291 0.45724 0.18986 0 0 0 
0.18811 0.45724 0.18191 0 0 0 
0.19296 0.48044 0.17288 0 0 0 
0.18193 0.46735 0.17084 0 0 0 
0.18277 0.44487 0.16984 0 0 0 
0.20501 0.44487 0.18861 0 0 0 
0.20417 0.46735 0.1896 0 0 0 
0.18971 0.51643 0.25506 0 0 0 
0.19197 0.39938 0.25724 0 0 0 
0.21052 0.39938 0.23796 0 0 0 
0.20826 0.51643 0.23579 0 0 0 
0.19646 0.40212 0.51869 0 0 0 
0.19486 0.40205 0.24945 0 0 0 
0.18967 0.50842 0.24945 0 0 0 
0.19127 0.5085 0.51869 0 0 0 
0.22721 0.52351 0.19465 0 0 0 
0.22763 0.52493 0.16693 0 0 0 
0.21512 0.52864 0.16693 0 0 0 
0.2147 0.52722 0.19465 0 0 0 
0.20655 0.59394 0.28734 0 0 0 
0.20167 0.59924 0.12224 0 0 0 
0.19323 0.59147 0.12224 0 0 0 
0.19812 0.58617 0.28734 0 0 0 
0.19606 0.59506 0.21648 0 0 0 
0.20033 0.59761 0.17389 0 0 0 
0.20395 0.59155 0.17389 0 0 0 
0.19968 0.58901 0.21648 0 0 0 
0.21382 0.53799 0.28366 0 0 0 
0.21931 0.53486 0.23936 0 0 0 
0.21433 0.52613 0.23936 0 0 0 
0.20884 0.52926 0.28366 0 0 0 
0.21516 0.38858 0.22107 0 0 0 
0.21527 0.38924 0.18243 0 0 0 
0.20521 0.3909 0.18243 0 0 0 
0.2051 0.39023 0.22107 0 0 0 
0.24074 0.60177 0.38989 0 0 0 
0.24729 0.59635 0.36861 0 0 0 
0.25757 0.60874 0.36861 0 0 0 
0.25102 0.61417 0.38989 0 0 0 
0.23908 0.59339 0.51932 0 0 0 
0.24139 0.5935 0.38049 0 0 0 
0.23988 0.6251 0.38049 0 0 0 
0.23757 0.62499 0.51932 0 0 0 
0.25465 0.28989 0.51609 0 0 0 
0.25695 0.29 0.37748 0 0 0 
0.25546 0.32128 0.37748 0 0 0 
0.25316 0.32117 0.51609 0 0 0 
0.27475 0.3111 0.36914 0 0 0 
0.26861 0.29501 0.36465 0 0 0 
0.25098 0.29501 0.38873 0 0 0 
0.25712 0.3111 0.39323 0 0 0 
0.22126 0.2827 0.28911 0 0 0 
0.22319 0.17264 0.29106 0 0 0 
0.2054 0.17264 0.30858 0 0 0 
0.20348 0.2827 0.30663 0 0 0 
0.20699 0.19766 0.47821 0 0 0 
0.20595 0.19761 0.30326 0 0 0 
0.20331 0.2559 0.30326 0 0 0 
0.20436 0.25595 0.47821 0 0 0 
0.21798 0.194 0.44276 0 0 0 
0.21917 0.19619 0.3006 0 0 0 
0.2059 0.20342 0.3006 0 0 0 
0.2047 0.20124 0.44276 0 0 0 
0.26224 0.13815 0.51382 0 0 0 
0.26453 0.13826 0.37603 0 0 0 
0.26307 0.16887 0.37603 0 0 0 
0.26078 0.16876 0.51382 0 0 0 
0.2806 0.16623 0.36272 0 0 0 
0.26395 0.17399 0.3702 0 0 0 
0.26395 0.157 0.3878 0 0 0 
0.2806 0.14925 0.38032 0 0 0 
0.26759 0.15906 0.38918 0 0 0 
0.26152 0.14491 0.38495 0 0 0 
0.27652 0.14491 0.36345 0 0 0 
0.28258 0.15906 0.36768 0 0 0 
0.20206 0.25317 0.45302 0 0 0 
0.2012 0.25421 0.29915 0 0 0 
0.21538 0.26593 0.29915 0 0 0 
0.21624 0.26489 0.45302 0 0 0 
0.2157 0.16893 0.52336 0 0 0 
0.21755 0.15677 0.52481 0 0 0 
0.24426 0.15677 0.49085 0 0 0 
0.2424 0.16893 0.48939 0 0 0 
0.21495 0.23048 0.48767 0 0 0 
0.22323 0.20902 0.47732 0 0 0 
0.20744 0.20902 0.46469 0 0 0 
0.19916 0.23048 0.47504 0 0 0 
0.22295 0.20583 0.47296 0 0 0 
0.2155 0.194 0.44311 0 0 0 
0.20119 0.20302 0.44311 0 0 0 
0.20864 0.21485 0.47296 0 0 0 
0.2071 0.32254 0.52456 0 0 0 
0.20968 0.31089 0.52677 0 0 0 
0.24157 0.31089 0.48953 0 0 0 
0.23899 0.32254 0.48732 0 0 0 
0.20717 0.24215 0.47233 0 0 0 
0.19976 0.24968 0.44423 0 0 0 
0.21304 0.26273 0.44423 0 0 0 
0.22045 0.2552 0.47233 0 0 0 
0.22067 0.24903 0.47791 0 0 0 
0.2117 0.22805 0.48584 0 0 0 
0.19529 0.22805 0.46728 0 0 0 
0.20426 0.24903 0.45935 0 0 0 
0.19561 0.59285 0.515 0 0 0 
0.19835 0.59532 0.2794 0 0 0 
0.2043 0.58869 0.2794 0 0 0 
0.20156 0.58623 0.515 0 0 0 
0.20379 0.58781 0.53371 0 0 0 
0.20276 0.58965 0.34603 0 0 0 
0.19553 0.58563 0.34603 0 0 0 
0.19655 0.58379 0.53371 0 0 0 
0.24228 0.42024 0.54872 0 0 0 
0.21376 0.38872 0.47381 0 0 0 
0.1793 0.41991 0.47381 0 0 0 
0.20782 0.45143 0.54872 0 0 0 
0.22878 0.39753 0.5106 0 0 0 
0.21587 0.38302 0.45395 0 0 0 
0.18813 0.40771 0.45395 0 0 0 
0.20104 0.42222 0.5106 0 0 0 
0.21544 0.41209 0.51508 0 0 0 
0.21515 0.39266 0.51506 0 0 0 
0.21648 0.39266 0.48475 0 0 0 
0.21677 0.41209 0.48477 0 0 0 
0.21245 0.52178 0.45417 0 0 0 
0.21177 0.52088 0.4316 0 0 0 
0.20001 0.52975 0.4316 0 0 0 
0.20069 0.53066 0.45417 0 0 0 
0.19907 0.60048 0.52145 0 0 0 
0.19899 0.59009 0.52138 0 0 0 
0.22831 0.59009 0.49027 0 0 0 
0.22839 0.60048 0.49035 0 0 0 
0.21255 0.4809 0.52987 0 0 0 
0.21316 0.48095 0.45185 0 0 0 
0.20883 0.53204 0.45185 0 0 0 
0.20822 0.53199 0.52987 0 0 0 
0.20958 0.51135 0.49973 0 0 0 
0.19592 0.51725 0.44609 0 0 0 
0.18763 0.49805 0.44609 0 0 0 
0.20128 0.49215 0.49973 0 0 0 
0.21403 0.50607 0.50413 0 0 0 
0.20296 0.51764 0.46115 0 0 0 
0.18578 0.5012 0.46115 0 0 0 
0.19686 0.48963 0.50413 0 0 0 
0.19166 0.50454 0.47111 0 0 0 
0.17903 0.47514 0.47851 0 0 0 
0.2086 0.47514 0.52895 0 0 0 
0.22123 0.50454 0.52154 0 0 0 
0.22142 0.49613 0.52551 0 0 0 
0.2093 0.45534 0.53535 0 0 0 
0.17849 0.45534 0.49741 0 0 0 
0.19061 0.49613 0.48757 0 0 0 
0.1942 0.41722 0.48675 0 0 0 
0.18852 0.41203 0.44391 0 0 0 
0.20613 0.39272 0.44391 0 0 0 
0.21182 0.39791 0.48675 0 0 0 
0.19185 0.43346 0.50207 0 0 0 
0.18413 0.42882 0.45628 0 0 0 
0.19693 0.40751 0.45628 0 0 0 
0.20465 0.41215 0.50207 0 0 0 
0.25666 0.78195 0.12363 0 0 0 
0.2583 0.75088 0.12271 0 0 0 
0.24663 0.75088 0.10216 0 0 0 
0.245 0.78195 0.10309 0 0 0 
0.19723 0.74804 0.25193 0 0 0 
0.19684 0.74847 0.06251 0 0 0 
0.18885 0.74123 0.06251 0 0 0 
0.18924 0.74081 0.25193 0 0 0 
0.16652 0.87945 0.12018 0 0 0 
0.16757 0.80178 0.12158 0 0 0 
0.19039 0.80178 0.10458 0 0 0 
0.18935 0.87945 0.10318 0 0 0 
0.24739 0.77835 0.13251 0 0 0 
0.24726 0.7487 0.13238 0 0 0 
0.25825 0.7487 0.12139 0 0 0 
0.25838 0.77835 0.12152 0 0 0 
0.23547 0.77691 0.39144 0 0 0 
0.23855 0.77968 0.13012 0 0 0 
0.25409 0.76238 0.13012 0 0 0 
0.25101 0.75961 0.39144 0 0 0 
0.25264 0.76512 0.37883 0 0 0 
0.25293 0.7649 0.12638 0 0 0 
0.23848 0.74587 0.12638 0 0 0 
0.23819 0.74609 0.37883 0 0 0 
0.19171 0.72454 0.23284 0 0 0 
0.19104 0.72579 0.10935 0 0 0 
0.17794 0.71878 0.10935 0 0 0 
0.17861 0.71753 0.23284 0 0 0 
0.1963 0.72234 0.10243 0 0 0 
0.19737 0.64268 0.10387 0 0 0 
0.17332 0.64268 0.12178 0 0 0 
0.17225 0.72234 0.12034 0 0 0 
0.1696 0.80226 0.26143 0 0 0 
0.17041 0.80231 0.11645 0 0 0 
0.166 0.8681 0.11645 0 0 0 
0.16519 0.86805 0.26143 0 0 0 
0.17057 0.80709 0.23252 0 0 0 
0.16879 0.80393 0.16976 0 0 0 
0.18546 0.79453 0.16976 0 0 0 
0.18724 0.79769 0.23252 0 0 0 
0.17709 0.69238 0.26265 0 0 0 
0.16548 0.71052 0.22045 0 0 0 
0.18766 0.72471 0.22045 0 0 0 
0.19927 0.70658 0.26265 0 0 0 
0.18551 0.80645 0.24645 0 0 0 
0.17192 0.80993 0.24278 0 0 0 
0.17192 0.83527 0.26678 0 0 0 
0.18551 0.83179 0.27046 0 0 0 
0.17075 0.82175 0.25503 0 0 0 
0.16296 0.81128 0.22127 0 0 0 
0.1812 0.7977 0.22127 0 0 0 
0.18899 0.80817 0.25503 0 0 0 
0.24088 0.92975 0.1326 0 0 0 
0.24142 0.90432 0.13306 0 0 0 
0.2486 0.90432 0.12479 0 0 0 
0.24807 0.92975 0.12433 0 0 0 
0.24484 0.92913 0.11774 0 0 0 
0.24609 0.8988 0.11696 0 0 0 
0.25037 0.8988 0.12383 0 0 0 
0.24911 0.92913 0.12461 0 0 0 
0.22856 0.9275 0.37981 0 0 0 
0.23153 0.93016 0.12782 0 0 0 
0.24532 0.91481 0.12782 0 0 0 
0.24235 0.91215 0.37981 0 0 0 
0.24445 0.91674 0.38268 0 0 0 
0.24524 0.91614 0.12717 0 0 0 
0.23174 0.89808 0.12717 0 0 0 
0.23094 0.89867 0.38268 0 0 0 
0.18697 0.8792 0.22267 0 0 0 
0.18633 0.88024 0.10755 0 0 0 
0.16412 0.86672 0.10755 0 0 0 
0.16476 0.86568 0.22267 0 0 0 
0.1698 0.86488 0.22428 0 0 0 
0.16996 0.86725 0.11712 0 0 0 
0.15178 0.86847 0.11712 0 0 0 
0.15162 0.8661 0.22428 0 0 0 
0.15922 0.86834 0.2171 0 0 0 
0.15987 0.86869 0.1213 0 0 0 
0.1692 0.8515 0.1213 0 0 0 
0.16855 0.85115 0.2171 0 0 0 
0.18079 0.99398 0.10574 0 0 0 
0.18112 0.96781 0.10614 0 0 0 
0.15994 0.96781 0.12391 0 0 0 
0.15961 0.99398 0.12352 0 0 0 
0.16138 0.96464 0.26124 0 0 0 
0.16226 0.96469 0.11725 0 0 0 
0.16047 0.99426 0.11725 0 0 0 
0.15959 0.99421 0.26124 0 0 0 
0.16682 0.85057 0.25716 0 0 0 
0.15646 0.86538 0.20043 0 0 0 
0.17826 0.88062 0.20043 0 0 0 
0.18862 0.86581 0.25716 0 0 0 
0.18238 0.89748 0.51881 0 0 0 
0.18417 0.89744 0.22159 0 0 0 
0.18201 0.80994 0.22159 0 0 0 
0.18021 0.80998 0.51881 0 0 0 
0.18339 0.8397 0.27064 0 0 0 
0.16557 0.83334 0.26387 0 0 0 
0.16557 0.86148 0.23743 0 0 0 
0.18339 0.86784 0.2442 0 0 0 
0.16954 0.83766 0.26088 0 0 0 
0.1552 0.8372 0.26042 0 0 0 
0.1552 0.85573 0.2417 0 0 0 
0.16954 0.85619 0.24216 0 0 0 
0.17605 0.98168 0.30707 0 0 0 
0.17568 0.98165 0.24587 0 0 0 
0.17744 0.95403 0.24587 0 0 0 
0.1778 0.95405 0.30707 0 0 0 
0.17303 0.97987 0.26885 0 0 0 
0.15904 0.98622 0.26293 0 0 0 
0.15904 0.96796 0.2433 0 0 0 
0.17303 0.9616 0.24921 0 0 0 
0.19879 0.64096 0.21597 0 0 0 
0.19964 0.64241 0.10787 0 0 0 
0.17681 0.65583 0.10787 0 0 0 
0.17596 0.65438 0.21597 0 0 0 
0.17407 0.71886 0.25818 0 0 0 
0.17489 0.7189 0.11467 0 0 0 
0.17808 0.65309 0.11467 0 0 0 
0.17726 0.65305 0.25818 0 0 0 
0.16257 0.71545 0.2281 0 0 0 
0.16289 0.71678 0.12284 0 0 0 
0.17684 0.71343 0.12284 0 0 0 
0.17652 0.7121 0.2281 0 0 0 
0.19406 0.65249 0.24463 0 0 0 
0.1876 0.64273 0.19639 0 0 0 
0.17115 0.65362 0.19639 0 0 0 
0.1776 0.66338 0.24463 0 0 0 
0.1941 0.64435 0.22375 0 0 0 
0.17595 0.65167 0.21933 0 0 0 
0.17595 0.67393 0.25625 0 0 0 
0.1941 0.66661 0.26066 0 0 0 
0.19247 0.68701 0.26884 0 0 0 
0.17735 0.68283 0.26296 0 0 0 
0.17735 0.69996 0.25078 0 0 0 
0.19247 0.70414 0.25666 0 0 0 
0.19429 0.65564 0.24893 0 0 0 
0.1751 0.66134 0.24195 0 0 0 
0.1751 0.68957 0.265 0 0 0 
0.19429 0.68387 0.27198 0 0 0 
0.19253 0.71435 0.45351 0 0 0 
0.19171 0.7155 0.30702 0 0 0 
0.17953 0.70682 0.30702 0 0 0 
0.18035 0.70567 0.45351 0 0 0 
0.20113 0.74841 0.48205 0 0 0 
0.20014 0.74965 0.3012 0 0 0 
0.18777 0.73973 0.3012 0 0 0 
0.18876 0.73849 0.48205 0 0 0 
0.19753 0.71301 0.29595 0 0 0 
0.19883 0.63381 0.29751 0 0 0 
0.18398 0.63381 0.30994 0 0 0 
0.18267 0.71301 0.30838 0 0 0 
0.18865 0.88563 0.2964 0 0 0 
0.1904 0.79489 0.29827 0 0 0 
0.17344 0.79489 0.3141 0 0 0 
0.17169 0.88563 0.31223 0 0 0 
0.17379 0.80089 0.47823 0 0 0 
0.17454 0.80094 0.30984 0 0 0 
0.17097 0.8584 0.30984 0 0 0 
0.17022 0.85835 0.47823 0 0 0 
0.22968 0.77492 0.52203 0 0 0 
0.23172 0.77496 0.3809 0 0 0 
0.23237 0.74512 0.3809 0 0 0 
0.23034 0.74507 0.52203 0 0 0 
0.25077 0.76343 0.33448 0 0 0 
0.23979 0.76432 0.33457 0 0 0 
0.23979 0.75922 0.38857 0 0 0 
0.25077 0.75833 0.38848 0 0 0 
0.2475 0.75999 0.38081 0 0 0 
0.24293 0.74964 0.37651 0 0 0 
0.23022 0.74964 0.39002 0 0 0 
0.23478 0.75999 0.39432 0 0 0 
0.1897 0.80455 0.47367 0 0 0 
0.18372 0.79525 0.44252 0 0 0 
0.16868 0.80492 0.44252 0 0 0 
0.17466 0.81422 0.47367 0 0 0 
0.19472 0.75466 0.51872 0 0 0 
0.19429 0.74053 0.51831 0 0 0 
0.21571 0.74053 0.49568 0 0 0 
0.21615 0.75466 0.49609 0 0 0 
0.17469 0.81855 0.48695 0 0 0 
0.16918 0.82014 0.44617 0 0 0 
0.17446 0.83846 0.44617 0 0 0 
0.17998 0.83687 0.48695 0 0 0 
0.181 0.82786 0.48745 0 0 0 
0.1889 0.80915 0.48002 0 0 0 
0.17458 0.80915 0.46478 0 0 0 
0.16668 0.82786 0.4722 0 0 0 
0.24165 0.91205 0.38112 0 0 0 
0.23467 0.8968 0.37456 0 0 0 
0.2156 0.8968 0.3949 0 0 0 
0.22259 0.91205 0.40145 0 0 0 
0.18277 0.8666 0.45877 0 0 0 
0.18229 0.8672 0.3065 0 0 0 
0.16851 0.8563 0.3065 0 0 0 
0.16898 0.8557 0.45877 0 0 0 
0.22049 0.92586 0.50853 0 0 0 
0.22219 0.9259 0.38288 0 0 0 
0.22284 0.89578 0.38288 0 0 0 
0.22114 0.89574 0.50853 0 0 0 
0.18726 0.89114 0.53806 0 0 0 
0.18697 0.89167 0.36916 0 0 0 
0.17706 0.88623 0.36916 0 0 0 
0.17735 0.88571 0.53806 0 0 0 
0.16459 0.97971 0.31455 0 0 0 
0.16475 0.95379 0.31455 0 0 0 
0.16373 0.95379 0.46938 0 0 0 
0.16358 0.97971 0.46938 0 0 0 
0.11157 0.87835 0.46202 0 0 0 
0.10943 0.88259 0.43799 0 0 0 
0.097365 0.87649 0.43799 0 0 0 
0.099505 0.87225 0.46202 0 0 0 
0.22343 0.91035 0.51562 0 0 0 
0.20111 0.91006 0.51574 0 0 0 
0.20111 0.90204 0.49709 0 0 0 
0.22343 0.90234 0.49697 0 0 0 
0.19366 0.91356 0.6622 0 0 0 
0.20053 0.9072 0.45212 0 0 0 
0.17826 0.88313 0.45212 0 0 0 
0.17138 0.88949 0.6622 0 0 0 
0.1735 0.84905 0.47165 0 0 0 
0.16778 0.85642 0.44359 0 0 0 
0.17914 0.86524 0.44359 0 0 0 
0.18486 0.85787 0.47165 0 0 0 
0.17918 0.92155 0.57876 0 0 0 
0.17845 0.92146 0.45573 0 0 0 
0.17288 0.96633 0.45573 0 0 0 
0.17361 0.96642 0.57876 0 0 0 
0.18142 0.95765 0.47974 0 0 0 
0.17483 0.94836 0.45169 0 0 0 
0.15769 0.96051 0.45169 0 0 0 
0.16428 0.9698 0.47974 0 0 0 
0.19173 0.86066 0.47709 0 0 0 
0.17983 0.83163 0.48871 0 0 0 
0.16425 0.83163 0.47276 0 0 0 
0.17615 0.86066 0.46114 0 0 0 
0.15687 0.86101 0.47041 0 0 0 
0.14993 0.84506 0.47757 0 0 0 
0.13706 0.84506 0.46509 0 0 0 
0.14401 0.86101 0.45792 0 0 0 
0.19462 0.64346 0.44348 0 0 0 
0.1959 0.64551 0.30405 0 0 0 
0.18201 0.65416 0.30405 0 0 0 
0.18073 0.65211 0.44348 0 0 0 
0.18349 0.64853 0.47727 0 0 0 
0.18271 0.64848 0.30638 0 0 0 
0.17895 0.70769 0.30638 0 0 0 
0.17972 0.70774 0.47727 0 0 0 
0.18071 0.67662 0.41457 0 0 0 
0.17985 0.67682 0.38375 0 0 0 
0.1826 0.6888 0.38375 0 0 0 
0.18347 0.68861 0.41457 0 0 0 
0.18277 0.69562 0.47417 0 0 0 
0.17518 0.70488 0.43682 0 0 0 
0.18676 0.71438 0.43682 0 0 0 
0.19435 0.70511 0.47417 0 0 0 
0.18526 0.66338 0.47695 0 0 0 
0.17911 0.65331 0.44836 0 0 0 
0.19329 0.64465 0.44836 0 0 0 
0.19944 0.65471 0.47695 0 0 0 
0.19812 0.70211 0.48016 0 0 0 
0.18939 0.6769 0.48871 0 0 0 
0.17238 0.6769 0.47135 0 0 0 
0.18112 0.70211 0.46279 0 0 0 
0.16898 0.70393 0.47588 0 0 0 
0.16182 0.68041 0.48491 0 0 0 
0.14498 0.68041 0.47157 0 0 0 
0.15214 0.70393 0.46253 0 0 0 
0.19 0.67653 0.48804 0 0 0 
0.19919 0.65545 0.47936 0 0 0 
0.18223 0.65545 0.4614 0 0 0 
0.17304 0.67653 0.47007 0 0 0 
0.2136 0.29072 0.56324 0 0 0 
0.21927 0.1644 0.56403 0 0 0 
0.22371 0.1644 0.53203 0 0 0 
0.21804 0.29072 0.53124 0 0 0 
0.23612 0.14682 0.59361 0 0 0 
0.24132 0.15226 0.50051 0 0 0 
0.21835 0.1742 0.50051 0 0 0 
0.21316 0.16876 0.59361 0 0 0 
0.22432 0.28915 0.5352 0 0 0 
0.22483 0.16497 0.53209 0 0 0 
0.21357 0.16497 0.53023 0 0 0 
0.21306 0.28915 0.53335 0 0 0 
0.221 0.29864 0.60842 0 0 0 
0.2278 0.15747 0.60761 0 0 0 
0.21732 0.15747 0.51953 0 0 0 
0.21053 0.29864 0.52034 0 0 0 
0.22221 0.13881 0.59183 0 0 0 
0.22499 0.13634 0.50568 0 0 0 
0.24023 0.15352 0.50568 0 0 0 
0.23745 0.15599 0.59183 0 0 0 
0.18982 0.28421 0.57733 0 0 0 
0.19708 0.15676 0.57804 0 0 0 
0.19945 0.15676 0.55363 0 0 0 
0.19219 0.28421 0.55292 0 0 0 
0.23476 0.15294 0.61533 0 0 0 
0.23315 0.15377 0.56019 0 0 0 
0.22489 0.13753 0.56019 0 0 0 
0.2265 0.13671 0.61533 0 0 0 
0.18586 0.23261 0.60013 0 0 0 
0.18532 0.21156 0.60184 0 0 0 
0.19792 0.21156 0.6058 0 0 0 
0.19845 0.23261 0.6041 0 0 0 
0.14053 0.28105 0.71645 0 0 0 
0.14488 0.16917 0.71793 0 0 0 
0.18914 0.16917 0.58862 0 0 0 
0.18479 0.28105 0.58713 0 0 0 
0.20857 0.28274 0.59526 0 0 0 
0.21258 0.27973 0.50663 0 0 0 
0.23295 0.30687 0.50663 0 0 0 
0.22894 0.30988 0.59526 0 0 0 
0.21591 0.43206 0.53951 0 0 0 
0.21855 0.31622 0.53611 0 0 0 
0.20737 0.31622 0.52745 0 0 0 
0.20473 0.43206 0.53085 0 0 0 
0.20056 0.59449 0.57709 0 0 0 
0.2167 0.31596 0.57591 0 0 0 
0.21133 0.31596 0.5025 0 0 0 
0.19519 0.59449 0.50368 0 0 0 
0.22907 0.2999 0.60559 0 0 0 
0.23341 0.30509 0.50269 0 0 0 
0.2143 0.3211 0.50269 0 0 0 
0.20995 0.31591 0.60559 0 0 0 
0.20542 0.44468 0.56171 0 0 0 
0.20912 0.31778 0.55914 0 0 0 
0.22048 0.31778 0.57547 0 0 0 
0.21678 0.44468 0.57804 0 0 0 
0.2419 0.36176 0.7791 0 0 0 
0.19434 0.32342 0.57583 0 0 0 
0.12169 0.41354 0.57583 0 0 0 
0.16924 0.45188 0.7791 0 0 0 
0.18801 0.33074 0.804 0 0 0 
0.18975 0.33091 0.5868 0 0 0 
0.17725 0.45488 0.5868 0 0 0 
0.17551 0.45471 0.804 0 0 0 
0.18782 0.43748 0.55381 0 0 0 
0.19143 0.32668 0.55552 0 0 0 
0.17766 0.32668 0.58456 0 0 0 
0.17404 0.43748 0.58285 0 0 0 
0.21255 0.3141 0.64935 0 0 0 
0.2176 0.31722 0.57698 0 0 0 
0.22868 0.29933 0.57698 0 0 0 
0.22363 0.29621 0.64935 0 0 0 
0.23079 0.30988 0.59059 0 0 0 
0.23011 0.29613 0.59039 0 0 0 
0.21687 0.29613 0.63633 0 0 0 
0.21756 0.30988 0.63653 0 0 0 
0.23566 0.16143 0.6137 0 0 0 
0.23562 0.14482 0.61302 0 0 0 
0.2154 0.14482 0.61415 0 0 0 
0.21544 0.16143 0.61483 0 0 0 
0.23399 0.15893 0.66291 0 0 0 
0.23407 0.14012 0.66233 0 0 0 
0.21837 0.14012 0.66018 0 0 0 
0.21829 0.15893 0.66076 0 0 0 
0.23038 0.14822 0.65205 0 0 0 
0.23273 0.15089 0.61612 0 0 0 
0.2238 0.15874 0.61612 0 0 0 
0.22145 0.15607 0.65205 0 0 0 
0.17952 0.49601 0.80738 0 0 0 
0.18477 0.49632 0.61213 0 0 0 
0.19411 0.33868 0.61213 0 0 0 
0.18887 0.33836 0.80738 0 0 0 
0.22015 0.30232 0.6544 0 0 0 
0.22025 0.30226 0.62931 0 0 0 
0.21622 0.29555 0.62931 0 0 0 
0.21612 0.29562 0.6544 0 0 0 
0.20639 0.43268 0.53424 0 0 0 
0.20872 0.35257 0.53262 0 0 0 
0.21652 0.35257 0.54382 0 0 0 
0.21418 0.43268 0.54545 0 0 0 
0.21224 0.44017 0.59054 0 0 0 
0.21525 0.44042 0.52899 0 0 0 
0.212 0.48042 0.52899 0 0 0 
0.209 0.48017 0.59054 0 0 0 
0.21302 0.47166 0.5347 0 0 0 
0.20407 0.46884 0.53313 0 0 0 
0.20407 0.45162 0.5641 0 0 0 
0.21302 0.45444 0.56567 0 0 0 
0.21076 0.4549 0.53473 0 0 0 
0.22272 0.41635 0.5238 0 0 0 
0.1969 0.41635 0.49555 0 0 0 
0.18494 0.4549 0.50648 0 0 0 
0.21665 0.44064 0.53006 0 0 0 
0.21681 0.42823 0.53011 0 0 0 
0.20782 0.42823 0.5557 0 0 0 
0.20767 0.44064 0.55565 0 0 0 
0.19279 0.5872 0.59897 0 0 0 
0.19746 0.58323 0.50743 0 0 0 
0.21783 0.60721 0.50743 0 0 0 
0.21316 0.61118 0.59897 0 0 0 
0.21092 0.59298 0.53986 0 0 0 
0.21145 0.479 0.53691 0 0 0 
0.19725 0.479 0.53434 0 0 0 
0.19671 0.59298 0.53729 0 0 0 
0.19851 0.59248 0.52144 0 0 0 
0.2054 0.47403 0.51919 0 0 0 
0.21191 0.47403 0.5391 0 0 0 
0.20501 0.59248 0.54135 0 0 0 
0.20118 0.59304 0.63311 0 0 0 
0.20122 0.593 0.5309 0 0 0 
0.2147 0.60798 0.5309 0 0 0 
0.21465 0.60802 0.63311 0 0 0 
0.17978 0.52199 0.56633 0 0 0 
0.18256 0.46772 0.56665 0 0 0 
0.1835 0.46772 0.55849 0 0 0 
0.18073 0.52199 0.55817 0 0 0 
0.17431 0.35099 0.76439 0 0 0 
0.18031 0.35127 0.57048 0 0 0 
0.17065 0.55662 0.57048 0 0 0 
0.16464 0.55634 0.76439 0 0 0 
0.17975 0.49985 0.70263 0 0 0 
0.18016 0.49936 0.58999 0 0 0 
0.16882 0.48998 0.58999 0 0 0 
0.16842 0.49047 0.70263 0 0 0 
0.18061 0.46475 0.7493 0 0 0 
0.18209 0.46725 0.58961 0 0 0 
0.17 0.47438 0.58961 0 0 0 
0.16852 0.47187 0.7493 0 0 0 
0.1824 0.56004 0.62651 0 0 0 
0.18461 0.56024 0.5874 0 0 0 
0.18207 0.58754 0.5874 0 0 0 
0.17986 0.58733 0.62651 0 0 0 
0.17393 0.59514 0.57948 0 0 0 
0.1765 0.5275 0.57991 0 0 0 
0.18005 0.5275 0.55842 0 0 0 
0.17748 0.59514 0.558 0 0 0 
0.17307 0.58997 0.82639 0 0 0 
0.17642 0.59005 0.58891 0 0 0 
0.17994 0.42832 0.58891 0 0 0 
0.17659 0.42825 0.82639 0 0 0 
0.23274 0.52994 0.80131 0 0 0 
0.1763 0.56783 0.59301 0 0 0 
0.12088 0.48527 0.59301 0 0 0 
0.17732 0.44738 0.80131 0 0 0 
0.17701 0.52753 0.64523 0 0 0 
0.17914 0.53027 0.59682 0 0 0 
0.16922 0.53795 0.59682 0 0 0 
0.1671 0.53521 0.64523 0 0 0 
0.17912 0.52892 0.66592 0 0 0 
0.17899 0.52915 0.5912 0 0 0 
0.16905 0.52376 0.5912 0 0 0 
0.16918 0.52352 0.66592 0 0 0 
0.16037 0.46303 0.51016 0 0 0 
0.16136 0.44235 0.50866 0 0 0 
0.17317 0.44235 0.51646 0 0 0 
0.17218 0.46303 0.51796 0 0 0 
0.17172 0.43722 0.51402 0 0 0 
0.1771 0.41399 0.5075 0 0 0 
0.16608 0.41399 0.49841 0 0 0 
0.1607 0.43722 0.50492 0 0 0 
0.18607 0.37534 0.65567 0 0 0 
0.18667 0.3767 0.59132 0 0 0 
0.17725 0.38084 0.59132 0 0 0 
0.17665 0.37948 0.65567 0 0 0 
0.17916 0.36278 0.61276 0 0 0 
0.17551 0.36536 0.5916 0 0 0 
0.18452 0.37813 0.5916 0 0 0 
0.18817 0.37555 0.61276 0 0 0 
0.18281 0.43739 0.62875 0 0 0 
0.18325 0.4384 0.59643 0 0 0 
0.17482 0.44209 0.59643 0 0 0 
0.17438 0.44107 0.62875 0 0 0 
0.18331 0.43881 0.70547 0 0 0 
0.18373 0.43826 0.59163 0 0 0 
0.17217 0.42918 0.59163 0 0 0 
0.17174 0.42973 0.70547 0 0 0 
0.18325 0.40332 0.71354 0 0 0 
0.18564 0.40718 0.59035 0 0 0 
0.1743 0.41422 0.59035 0 0 0 
0.17191 0.41036 0.71354 0 0 0 
0.18455 0.407 0.66056 0 0 0 
0.18455 0.40701 0.59292 0 0 0 
0.17453 0.39922 0.59292 0 0 0 
0.17454 0.39921 0.66056 0 0 0 
0.17611 0.49266 0.51079 0 0 0 
0.16971 0.45474 0.51767 0 0 0 
0.15727 0.45474 0.50609 0 0 0 
0.16367 0.49266 0.49921 0 0 0 
0.18205 0.501 0.67138 0 0 0 
0.17532 0.49591 0.6509 0 0 0 
0.16703 0.5069 0.6509 0 0 0 
0.17376 0.51198 0.67138 0 0 0 
0.1823 0.53432 0.67285 0 0 0 
0.18461 0.53454 0.62915 0 0 0 
0.18196 0.56143 0.62915 0 0 0 
0.17964 0.5612 0.67285 0 0 0 
0.17878 0.53513 0.73483 0 0 0 
0.18208 0.53544 0.67636 0 0 0 
0.18585 0.49492 0.67636 0 0 0 
0.18255 0.49461 0.73483 0 0 0 
0.17707 0.49634 0.69301 0 0 0 
0.17788 0.49743 0.66814 0 0 0 
0.16801 0.50479 0.66814 0 0 0 
0.1672 0.50371 0.69301 0 0 0 
0.17009 0.4984 0.6909 0 0 0 
0.16717 0.474 0.69145 0 0 0 
0.17327 0.474 0.72405 0 0 0 
0.17619 0.4984 0.7235 0 0 0 
0.17806 0.39077 0.66855 0 0 0 
0.17103 0.39644 0.65221 0 0 0 
0.18075 0.40848 0.65221 0 0 0 
0.18778 0.4028 0.66855 0 0 0 
0.18152 0.43565 0.71464 0 0 0 
0.18227 0.43742 0.63754 0 0 0 
0.17246 0.44158 0.63754 0 0 0 
0.17172 0.43982 0.71464 0 0 0 
0.17453 0.42107 0.7216 0 0 0 
0.16854 0.42498 0.70276 0 0 0 
0.17681 0.43764 0.70276 0 0 0 
0.1828 0.43373 0.7216 0 0 0 
0.17405 0.39933 0.7137 0 0 0 
0.17379 0.39969 0.66774 0 0 0 
0.18256 0.40604 0.66774 0 0 0 
0.18282 0.40569 0.7137 0 0 0 
0.18036 0.46792 0.75692 0 0 0 
0.18076 0.46729 0.63726 0 0 0 
0.17133 0.46147 0.63726 0 0 0 
0.17094 0.46211 0.75692 0 0 0 
0.17061 0.44054 0.77045 0 0 0 
0.17003 0.43919 0.72368 0 0 0 
0.17867 0.43542 0.72368 0 0 0 
0.17926 0.43677 0.77045 0 0 0 
0.17192 0.43135 0.74529 0 0 0 
0.17202 0.43117 0.72263 0 0 0 
0.17938 0.43523 0.72263 0 0 0 
0.17928 0.43541 0.74529 0 0 0 
0.17873 0.45834 0.83173 0 0 0 
0.17873 0.44027 0.83171 0 0 0 
0.1642 0.44027 0.83072 0 0 0 
0.1642 0.45834 0.83074 0 0 0 
0.18074 0.46337 0.85432 0 0 0 
0.18148 0.44189 0.85093 0 0 0 
0.16345 0.44189 0.847 0 0 0 
0.16271 0.46337 0.85039 0 0 0 
0.17495 0.89635 0.62108 0 0 0 
0.19087 0.61772 0.62263 0 0 0 
0.20052 0.61772 0.5233 0 0 0 
0.18461 0.89635 0.52175 0 0 0 
0.20224 0.75235 0.60089 0 0 0 
0.20669 0.75634 0.51814 0 0 0 
0.1876 0.77763 0.51814 0 0 0 
0.18315 0.77365 0.60089 0 0 0 
0.2052 0.76145 0.60168 0 0 0 
0.20898 0.7576 0.50872 0 0 0 
0.1906 0.7395 0.50872 0 0 0 
0.18681 0.74335 0.60168 0 0 0 
0.18737 0.72106 0.59829 0 0 0 
0.18906 0.72065 0.52262 0 0 0 
0.19627 0.75068 0.52262 0 0 0 
0.19458 0.75108 0.59829 0 0 0 
0.19514 0.74349 0.54049 0 0 0 
0.19517 0.70926 0.54032 0 0 0 
0.1867 0.70926 0.53859 0 0 0 
0.18666 0.74349 0.53877 0 0 0 
0.19207 0.82803 0.54229 0 0 0 
0.19232 0.77581 0.54102 0 0 0 
0.18304 0.77581 0.53914 0 0 0 
0.18278 0.82803 0.54041 0 0 0 
0.19165 0.74185 0.61968 0 0 0 
0.19035 0.74284 0.55502 0 0 0 
0.20175 0.75786 0.55502 0 0 0 
0.20306 0.75687 0.61968 0 0 0 
0.15349 0.90426 0.58624 0 0 0 
0.16116 0.77769 0.58706 0 0 0 
0.16373 0.77769 0.5629 0 0 0 
0.15605 0.90426 0.56209 0 0 0 
0.16489 0.8438 0.61267 0 0 0 
0.16445 0.81766 0.61365 0 0 0 
0.15024 0.81766 0.60729 0 0 0 
0.15068 0.8438 0.60631 0 0 0 
0.10725 0.88712 0.72657 0 0 0 
0.11283 0.77955 0.72841 0 0 0 
0.1559 0.77955 0.59776 0 0 0 
0.15032 0.88712 0.59593 0 0 0 
0.19904 0.7609 0.66386 0 0 0 
0.20257 0.75778 0.61174 0 0 0 
0.19211 0.74596 0.61174 0 0 0 
0.18858 0.74908 0.66386 0 0 0 
0.18847 0.8929 0.54329 0 0 0 
0.18885 0.83343 0.54162 0 0 0 
0.17919 0.83343 0.53943 0 0 0 
0.17881 0.8929 0.5411 0 0 0 
0.17173 0.96257 0.53832 0 0 0 
0.17277 0.92347 0.53669 0 0 0 
0.18261 0.92347 0.54302 0 0 0 
0.18157 0.96257 0.54464 0 0 0 
0.19107 0.90791 0.56906 0 0 0 
0.19533 0.91236 0.51809 0 0 0 
0.18605 0.92126 0.51809 0 0 0 
0.18179 0.91681 0.56906 0 0 0 
0.179 0.93661 0.62016 0 0 0 
0.17669 0.93587 0.5551 0 0 0 
0.18499 0.90999 0.5551 0 0 0 
0.1873 0.91073 0.62016 0 0 0 
0.15224 0.93405 0.58548 0 0 0 
0.1533 0.93411 0.56437 0 0 0 
0.15174 0.96242 0.56437 0 0 0 
0.15067 0.96236 0.58548 0 0 0 
0.14544 0.96035 0.59885 0 0 0 
0.14639 0.93751 0.59917 0 0 0 
0.12838 0.93751 0.65311 0 0 0 
0.12743 0.96035 0.65279 0 0 0 
0.1829 0.89776 0.65379 0 0 0 
0.18328 0.89778 0.63068 0 0 0 
0.18244 0.91558 0.63068 0 0 0 
0.18205 0.91556 0.65379 0 0 0 
0.19122 0.69015 0.53852 0 0 0 
0.19175 0.62391 0.53661 0 0 0 
0.20061 0.62391 0.53909 0 0 0 
0.20008 0.69015 0.541 0 0 0 
0.18775 0.63545 0.6258 0 0 0 
0.18874 0.63616 0.5425 0 0 0 
0.21311 0.6022 0.5425 0 0 0 
0.21211 0.60148 0.6258 0 0 0 
0.19279 0.62247 0.53407 0 0 0 
0.19551 0.62736 0.51006 0 0 0 
0.21099 0.61874 0.51006 0 0 0 
0.20827 0.61386 0.53407 0 0 0 
0.16061 0.7491 0.60818 0 0 0 
0.16838 0.62218 0.60901 0 0 0 
0.17355 0.62218 0.56099 0 0 0 
0.16578 0.7491 0.56016 0 0 0 
0.11637 0.73543 0.72454 0 0 0 
0.12213 0.62449 0.72646 0 0 0 
0.16562 0.62449 0.59616 0 0 0 
0.15985 0.73543 0.59423 0 0 0 
0.16095 0.69424 0.60902 0 0 0 
0.16242 0.6728 0.60483 0 0 0 
0.17565 0.6728 0.60949 0 0 0 
0.17417 0.69424 0.61368 0 0 0 
0.16019 0.66192 0.61195 0 0 0 
0.15687 0.66537 0.60063 0 0 0 
0.17217 0.68011 0.60063 0 0 0 
0.17549 0.67667 0.61195 0 0 0 
0.20268 0.59611 0.65837 0 0 0 
0.204 0.59622 0.63003 0 0 0 
0.20251 0.61351 0.63003 0 0 0 
0.20119 0.61339 0.65837 0 0 0 
0.17542 0.68343 0.61108 0 0 0 
0.17111 0.66935 0.60865 0 0 0 
0.15925 0.66935 0.62977 0 0 0 
0.16356 0.68343 0.63219 0 0 0 
0.14867 0.78388 0.61793 0 0 0 
0.058438 0.779 0.62019 0 0 0 
0.058438 0.8221 0.7136 0 0 0 
0.14867 0.82698 0.71135 0 0 0 
0.066208 0.95031 0.65173 0 0 0 
0.013227 0.94839 0.65271 0 0 0 
0.013227 0.9658 0.68703 0 0 0 
0.066208 0.96772 0.68606 0 0 0 
4 0 1 2 3
4 4 5 6 7
4 8 9 10 11
4 12 13 14 15
4 16 17 18 19
4 20 21 22 23
4 24 25 26 27
4 28 29 30 31
4 32 33 34 35
4 36 37 38 39
4 40 41 42 43
4 44 45 46 47
4 48 49 50 51
4 52 53 54 55
4 56 57 58 59
4 60 61 62 63
4 64 65 66 67
4 68 69 70 71
4 72 73 74 75
4 76 77 78 79
4 80 81 82 83
4 84 85 86 87
4 88 89 90 91
4 92 93 94 95
4 96 97 98 99
4 100 101 102 103
4 104 105 106 107
4 108 109 110 111
4 112 113 114 115
4 116 117 118 119
4 120 121 122 123
4 124 125 126 127
4 128 129 130 131
4 132 133 134 135
4 136 137 138 139
4 140 141 142 143
4 144 145 146 147
4 148 149 150 151
4 152 153 154 155
4 156 157 158 159
4 160 161 162 163
4 164 165 166 167
4 168 169 170 171
4 172 173 174 175
4 176 177 178 179
4 180 181 182 183
4 184 185 186 187
4 188 189 190 191
4 192 193 194 195
4 196 197 198 199
4 200 201 202 203
4 204 205 206 207
4 208 209 210 211
4 212 213 214 215
4 216 217 218 219
4 220 221 222 223
4 224 225 226 227
4 228 229 230 231
4 232 233 234 235
4 236 237 238 239
4 240 241 242 243
4 244 245 246 247
4 248 249 250 251
4 252 253 254 255
4 256 257 258 259
4 260 261 262 263
4 264 265 266 267
4 268 269 270 271
4 272 273 274 275
4 276 277 278 279
4 280 281 282 283
4 284 285 286 287
4 288 289 290 291
4 292 293 294 295
4 296 297 298 299
4 300 301 302 303
4 304 305 306 307
4 308 309 310 311
4 312 313 314 315
4 316 317 318 319
4 320 321 322 323
4 324 325 326 327
4 328 329 330 331
4 332 333 334 335
4 336 337 338 339
4 340 341 342 343
4 344 345 346 347
4 348 349 350 351
4 352 353 354 355
4 356 357 358 359
4 360 361 362 363
4 364 365 366 367
4 368 369 370 371
4 372 373 374 375
4 376 377 378 379
4 380 381 382 383
4 384 385 386 387
4 388 389 390 391
4 392 393 394 395
4 396 397 398 399
4 400 401 402 403
4 404 405 406 407
4 408 409 410 411
4 412 413 414 415
4 416 417 418 419
4 420 421 422 423
4 424 425 426 427
4 428 429 430 431
4 432 433 434 435
4 436 437 438 439
4 440 441 442 443
4 444 445 446 447
4 448 449 450 451
4 452 453 454 455
4 456 457 458 459
4 460 461 462 463
4 464 465 466 467
4 468 469 470 471
4 472 473 474 475
4 476 477 478 479
4 480 481 482 483
4 484 485 486 487
4 488 489 490 491
4 492 493 494 495
4 496 497 498 499
4 500 501 502 503
4 504 505 506 507
4 508 509 510 511
4 512 513 514 515
4 516 517 518 519
4 520 521 522 523
4 524 525 526 527
4 528 529 530 531
4 532 533 534 535
4 536 537 538 539
4 540 541 542 543
4 544 545 546 547
4 548 549 550 551
4 552 553 554 555
4 556 557 558 559
4 560 561 562 563
4 564 565 566 567
4 568 569 570 571
4 572 573 574 575
4 576 577 578 579
4 580 581 582 583
4 584 585 586 587
4 588 589 590 591
4 592 593 594 595
4 596 597 598 599
4 600 601 602 603
4 604 605 606 607
4 608 609 610 611
4 612 613 614 615
4 616 617 618 619
4 620 621 622 623
4 624 625 626 627
4 628 629 630 631
4 632 633 634 635
4 636 637 638 639
4 640 641 642 643
4 644 645 646 647
4 648 649 650 651
4 652 653 654 655
4 656 657 658 659
4 660 661 662 663
4 664 665 666 667
4 668 669 670 671
4 672 673 674 675
4 676 677 678 679
4 680 681 682 683
4 684 685 686 687
4 688 689 690 691
4 692 693 694 695
4 696 697 698 699
4 700 701 702 703
4 704 705 706 707
4 708 709 710 711
4 712 713 714 715
4 716 717 718 719
4 720 721 722 723
4 724 725 726 727
4 728 729 730 731
4 732 733 734 735
4 736 737 738 739
4 740 741 742 743
4 744 745 746 747
4 748 749 750 751
4 752 753 754 755
4 756 757 758 759
4 760 761 762 763
4 764 765 766 767
4 768 769 770 771
4 772 773 774 775
4 776 777 778 779
4 780 781 782 783
4 784 785 786 787
4 788 789 790 791
4 792 793 794 795
4 796 797 798 799
4 800 801 802 803
4 804 805 806 807
4 808 809 810 811
4 812 813 814 815
4 816 817 818 819
4 820 821 822 823
4 824 825 826 827
4 828 829 830 831
4 832 833 834 835
4 836 837 838 839
4 840 841 842 843
4 844 845 846 847
4 848 849 850 851
4 852 853 854 855
4 856 857 858 859
4 860 861 862 863
4 864 865 866 867
4 868 869 870 871
4 872 873 874 875
4 876 877 878 879
4 880 881 882 883
4 884 885 886 887
4 888 889 890 891
4 892 893 894 895
4 896 897 898 899
4 900 901 902 903
4 904 905 906 907
4 908 909 910 911
4 912 913 914 915
4 916 917 918 919
4 920 921 922 923
4 924 925 926 927
4 928 929 930 931
4 932 933 934 935
4 936 937 938 939
4 940 941 942 943
4 944 945 946 947
4 948 949 950 951
4 952 953 954 955
4 956 957 958 959
4 960 961 962 963
4 964 965 966 967
4 968 969 970 971
4 972 973 974 975
4 976 977 978 979
4 980 981 982 983
4 984 985 986 987
4 988 989 990 991
4 992 993 994 995
4 996 997 998 999
4 1000 1001 1002 1003
4 1004 1005 1006 1007
4 1008 1009 1010 1011
4 1012 1013 1014 1015
4 1016 1017 1018 1019
4 1020 1021 1022 1023
4 1024 1025 1026 1027
4 1028 1029 1030 1031
4 1032 1033 1034 1035
4 1036 1037 1038 1039
4 1040 1041 1042 1043
4 1044 1045 1046 1047
4 1048 1049 1050 1051
4 1052 1053 1054 1055
4 1056 1057 1058 1059
4 1060 1061 1062 1063
4 1064 1065 1066 1067
4 1068 1069 1070 1071
4 1072 1073 1074 1075
4 1076 1077 1078 1079
4 1080 1081 1082 1083
4 1084 1085 1086 1087
4 1088 1089 1090 1091
4 1092 1093 1094 1095
4 1096 1097 1098 1099
4 1100 1101 1102 1103
4 1104 1105 1106 1107
4 1108 1109 1110 1111
4 1112 1113 1114 1115
4 1116 1117 1118 1119
4 1120 1121 1122 1123
4 1124 1125 1126 1127
4 1128 1129 1130 1131
4 1132 1133 1134 1135
4 1136 1137 1138 1139
4 1140 1141 1142 1143
4 1144 1145 1146 1147
4 1148 1149 1150 1151
4 1152 1153 1154 1155
4 1156 1157 1158 1159
4 1160 1161 1162 1163
4 1164 1165 1166 1167
4 1168 1169 1170 1171
4 1172 1173 1174 1175
4 1176 1177 1178 1179
4 1180 1181 1182 1183
4 1184 1185 1186 1187
4 1188 1189 1190 1191
4 1192 1193 1194 1195
4 1196 1197 1198 1199
4 1200 1201 1202 1203
4 1204 1205 1206 1207
4 1208 1209 1210 1211
4 1212 1213 1214 1215
4 1216 1217 1218 1219
4 1220 1221 1222 1223
4 1224 1225 1226 1227
4 1228 1229 1230 1231
4 1232 1233 1234 1235
4 1236 1237 1238 1239
4 1240 1241 1242 1243
4 1244 1245 1246 1247
4 1248 1249 1250 1251
4 1252 1253 1254 1255
4 1256 1257 1258 1259
4 1260 1261 1262 1263
4 1264 1265 1266 1267
4 1268 1269 1270 1271
4 1272 1273 1274 1275
4 1276 1277 1278 1279
4 1280 1281 1282 1283
4 1284 1285 1286 1287
4 1288 1289 1290 1291
4 1292 1293 1294 1295
4 1296 1297 1298 1299
4 1300 1301 1302 1303
4 1304 1305 1306 1307
4 1308 1309 1310 1311
4 1312 1313 1314 1315
4 1316 1317 1318 1319
4 1320 1321 1322 1323
4 1324 1325 1326 1327
4 1328 1329 1330 1331
4 1332 1333 1334 1335
4 1336 1337 1338 1339
4 1340 1341 1342 1343
4 1344 1345 1346 1347
4 1348 1349 1350 1351
4 1352 1353 1354 1355
4 1356 1357 1358 1359
4 1360 1361 1362 1363
4 1364 1365 1366 1367
