ply
format ascii 1.0
comment PCL generated
element vertex 860
property float x
property float y
property float z
property uchar red
property uchar green
property uchar blue
element face 215
property list uchar int vertex_indices
end_header
0.010939 0.35667 8.2254e-06 60 97 52 
0.011248 0.0019644 8.5533e-06 60 97 52 
0.010397 0.0019644 0.78736 60 97 52 
0.010088 0.35667 0.78736 60 97 52 
0.011067 0.11726 0.07467 60 97 52 
0.011164 0.0058441 0.07467 60 97 52 
0.01099 0.0058441 0.2351 60 97 52 
0.010893 0.11726 0.2351 60 97 52 
0.028575 0.29915 0.14578 44 77 106 
0.020436 0.29914 0.14577 44 77 106 
0.020436 0.27739 0.18239 44 77 106 
0.028575 0.2774 0.1824 44 77 106 
0.034208 0.13045 0.03447 124 83 45 
0.019567 0.12874 0.033262 124 83 45 
0.019567 0.0079784 0.20425 124 83 45 
0.034208 0.0096892 0.20545 124 83 45 
0.026179 0.065339 0.12375 124 83 45 
0.019823 0.064597 0.12323 124 83 45 
0.019823 0.054234 0.13789 124 83 45 
0.026179 0.054975 0.13842 124 83 45 
0.026919 0.020179 0.21994 79 51 85 
0.029193 0.022693 0.21226 79 51 85 
0.020326 0.030713 0.21226 79 51 85 
0.018052 0.028199 0.21994 79 51 85 
0.35977 0.34147 0.075263 44 77 106 
0.020121 0.34112 0.075056 44 77 106 
0.020121 0.32913 0.095251 44 77 106 
0.35977 0.32948 0.095458 44 77 106 
0.010835 0.30571 0.13748 60 97 52 
0.010844 0.2952 0.13748 60 97 52 
0.01078 0.2952 0.19635 60 97 52 
0.010771 0.30571 0.19635 60 97 52 
0.024524 0.29135 0.13791 79 51 85 
0.026043 0.29279 0.13279 79 51 85 
0.0202 0.29896 0.13279 79 51 85 
0.018681 0.29753 0.13791 79 51 85 
0.39564 0.24054 0.30367 102 56 43 
0.016062 0.24065 0.30349 102 56 43 
0.016062 0.20404 0.28175 102 56 43 
0.39564 0.20394 0.28193 102 56 43 
0.044121 0.30578 0.13464 44 77 106 
0.020857 0.30575 0.13463 44 77 106 
0.020857 0.30416 0.13732 44 77 106 
0.044121 0.30418 0.13733 44 77 106 
0.042637 0.30288 0.13951 44 77 106 
0.026031 0.30287 0.1395 44 77 106 
0.026031 0.30508 0.13577 44 77 106 
0.042637 0.3051 0.13578 44 77 106 
0.39469 0.30278 0.14052 44 77 106 
0.020662 0.30239 0.14029 44 77 106 
0.020662 0.28301 0.17294 44 77 106 
0.39469 0.28339 0.17317 44 77 106 
0.018572 0.25369 0.27402 120 44 48 
0.0039218 0.26491 0.22284 120 44 48 
0.00061954 0.26059 0.22284 120 44 48 
0.01527 0.24938 0.27402 120 44 48 
0.38971 0.21052 0.28584 102 56 43 
0.030742 0.21062 0.28567 102 56 43 
0.030742 0.20293 0.2811 102 56 43 
0.38971 0.20283 0.28127 102 56 43 
0.21205 0.23525 0.30041 102 56 43 
0.021824 0.23531 0.30032 102 56 43 
0.021824 0.24096 0.30368 102 56 43 
0.21205 0.2409 0.30377 102 56 43 
0.050353 0.23992 0.30308 102 56 43 
0.022851 0.23993 0.30307 102 56 43 
0.022851 0.2334 0.29919 102 56 43 
0.050353 0.23339 0.29921 102 56 43 
0.012359 0.25205 0.22506 44 77 106 
0.0093152 0.25204 0.22506 44 77 106 
0.0093152 0.25324 0.22304 44 77 106 
0.012359 0.25325 0.22305 44 77 106 
0.092783 0.19696 0.2776 102 56 43 
0.020027 0.19698 0.27756 102 56 43 
0.020027 0.20686 0.28343 102 56 43 
0.092783 0.20683 0.28346 102 56 43 
0.094707 0.26633 0.2012 44 77 106 
0.02213 0.26626 0.20115 44 77 106 
0.02213 0.26355 0.20571 44 77 106 
0.094707 0.26363 0.20576 44 77 106 
0.39789 0.23465 0.30017 102 56 43 
0.015286 0.23476 0.29999 102 56 43 
0.015286 0.19831 0.27835 102 56 43 
0.39789 0.19821 0.27853 102 56 43 
0.39765 0.23939 0.24728 44 77 106 
0.018845 0.239 0.24705 44 77 106 
0.018845 0.26487 0.20348 44 77 106 
0.39765 0.26526 0.20371 44 77 106 
0.099999 0.23971 0.30299 102 56 43 
0.027661 0.23973 0.30295 102 56 43 
0.027661 0.23557 0.30048 102 56 43 
0.099999 0.23555 0.30052 102 56 43 
0.063448 0.33551 0.08462 44 77 106 
0.042293 0.33548 0.084607 44 77 106 
0.042293 0.33154 0.091248 44 77 106 
0.063448 0.33156 0.091261 44 77 106 
0.16264 0.30259 0.1403 44 77 106 
0.040053 0.30246 0.14022 44 77 106 
0.040053 0.30545 0.13519 44 77 106 
0.16264 0.30557 0.13527 44 77 106 
0.010755 0.2427 0.2615 60 97 52 
0.010786 0.20794 0.2615 60 97 52 
0.010771 0.20794 0.27495 60 97 52 
0.010741 0.2427 0.27495 60 97 52 
0.013384 0.2018 0.3097 44 77 106 
0.0078769 0.20179 0.3097 44 77 106 
0.0078769 0.21051 0.29501 44 77 106 
0.013384 0.21052 0.29502 44 77 106 
0.05043 0.2297 0.2628 44 77 106 
0.023891 0.22967 0.26278 44 77 106 
0.023891 0.22463 0.27127 44 77 106 
0.05043 0.22466 0.27129 44 77 106 
0.39494 0.28507 0.17034 44 77 106 
0.044287 0.28471 0.17013 44 77 106 
0.044287 0.30422 0.13727 44 77 106 
0.39494 0.30458 0.13749 44 77 106 
0.11464 0.22616 0.29495 102 56 43 
0.024311 0.22618 0.29491 102 56 43 
0.024311 0.23453 0.29987 102 56 43 
0.11464 0.23451 0.29991 102 56 43 
0.1616 0.23945 0.30287 102 56 43 
0.037591 0.23948 0.30281 102 56 43 
0.037591 0.2185 0.29035 102 56 43 
0.1616 0.21846 0.29041 102 56 43 
0.11255 0.22294 0.27433 44 77 106 
0.024968 0.22285 0.27428 44 77 106 
0.024968 0.22635 0.26837 44 77 106 
0.11255 0.22644 0.26843 44 77 106 
0.21503 0.19247 0.27501 102 56 43 
0.022526 0.19253 0.27492 102 56 43 
0.022526 0.22906 0.29662 102 56 43 
0.21503 0.22901 0.29671 102 56 43 
0.073682 0.24386 0.23899 44 77 106 
0.024791 0.24381 0.23896 44 77 106 
0.024791 0.24893 0.23034 44 77 106 
0.073682 0.24898 0.23037 44 77 106 
0.39223 0.1962 0.32001 44 77 106 
0.022355 0.19582 0.31979 44 77 106 
0.022355 0.22503 0.2706 44 77 106 
0.39223 0.22541 0.27083 44 77 106 
0.016502 0.16655 0.40173 57 57 57 
0.0076461 0.16964 0.35366 57 57 57 
0.0045974 0.16091 0.35366 57 57 57 
0.013454 0.15782 0.40173 57 57 57 
0.38617 0.17919 0.34864 44 77 106 
0.01999 0.17882 0.34842 44 77 106 
0.01999 0.18779 0.33332 44 77 106 
0.38617 0.18816 0.33354 44 77 106 
0.01072 0.20382 0.32573 60 97 52 
0.01075 0.16961 0.32573 60 97 52 
0.010739 0.16961 0.33528 60 97 52 
0.01071 0.20382 0.33528 60 97 52 
0.031234 0.14988 0.34929 79 51 85 
0.035694 0.15515 0.33408 79 51 85 
0.024325 0.16478 0.33408 79 51 85 
0.019865 0.15952 0.34929 79 51 85 
0.070806 0.31489 0.13134 120 44 48 
0.050414 0.31526 0.12992 120 44 48 
0.050414 0.32303 0.13198 120 44 48 
0.070806 0.32265 0.1334 120 44 48 
0.012343 0.11851 0.44383 62 44 120 
0.013535 0.11734 0.41257 62 44 120 
0.0074895 0.11116 0.41257 62 44 120 
0.0062973 0.11232 0.44383 62 44 120 
0.010679 0.16235 0.39687 60 97 52 
0.010717 0.11946 0.39687 60 97 52 
0.010697 0.11946 0.41491 60 97 52 
0.01066 0.16235 0.41491 60 97 52 
0.1607 0.2306 0.29762 102 56 43 
0.032251 0.23063 0.29756 102 56 43 
0.032251 0.21848 0.29034 102 56 43 
0.1607 0.21844 0.2904 102 56 43 
0.089991 0.23835 0.24831 44 77 106 
0.071817 0.23833 0.2483 44 77 106 
0.071817 0.23986 0.24574 44 77 106 
0.089991 0.23988 0.24575 44 77 106 
0.010684 0.16336 0.39194 60 97 52 
0.010722 0.11941 0.39194 60 97 52 
0.010697 0.11941 0.41536 60 97 52 
0.010658 0.16336 0.41536 60 97 52 
0.27424 0.1477 0.40142 44 77 106 
0.026166 0.14745 0.40127 44 77 106 
0.026166 0.14088 0.41234 44 77 106 
0.27424 0.14113 0.41249 44 77 106 
0.010684 0.15985 0.3949 60 97 52 
0.010666 0.15985 0.3949 60 97 52 
0.010666 0.16347 0.40794 60 97 52 
0.010684 0.16347 0.40794 60 97 52 
0.094738 0.19623 0.27717 102 56 43 
0.054088 0.19625 0.27715 102 56 43 
0.054088 0.19997 0.27936 102 56 43 
0.094738 0.19996 0.27938 102 56 43 
0.39524 0.19539 0.32139 44 77 106 
0.028882 0.19501 0.32117 44 77 106 
0.028882 0.201 0.31107 44 77 106 
0.39524 0.20138 0.3113 44 77 106 
0.024024 0.11213 0.45902 46 120 44 
0.017057 0.071101 0.45681 46 120 44 
0.012317 0.071101 0.47177 46 120 44 
0.019283 0.11213 0.47398 46 120 44 
0.13481 0.14885 0.39916 44 77 106 
0.028066 0.14874 0.3991 44 77 106 
0.028066 0.14479 0.40574 44 77 106 
0.13481 0.1449 0.40581 44 77 106 
0.010648 0.11306 0.46521 60 97 52 
0.010669 0.0893 0.46521 60 97 52 
0.010652 0.0893 0.48131 60 97 52 
0.010631 0.11306 0.48131 60 97 52 
0.39125 0.14497 0.40629 44 77 106 
0.02264 0.14459 0.40607 44 77 106 
0.02264 0.11675 0.45297 44 77 106 
0.39125 0.11713 0.45319 44 77 106 
0.16583 0.22809 0.29613 102 56 43 
0.050316 0.22812 0.29607 102 56 43 
0.050316 0.19296 0.27519 102 56 43 
0.16583 0.19292 0.27525 102 56 43 
0.040311 0.1539 0.38462 61 97 52 
0.028308 0.15351 0.38383 61 97 52 
0.028308 0.1617 0.37972 61 97 52 
0.040311 0.16209 0.38051 61 97 52 
0.16473 0.2102 0.25762 97 83 52 
0.05153 0.20659 0.2528 97 83 52 
0.05153 0.20149 0.25661 97 83 52 
0.16473 0.2051 0.26143 97 83 52 
0.018008 0.11114 0.47606 97 52 62 
0.0086172 0.07487 0.47052 97 52 62 
0.021776 0.07487 0.44822 97 52 62 
0.031168 0.11114 0.45377 97 52 62 
0.25724 0.12383 0.44158 44 77 106 
0.019891 0.12359 0.44144 44 77 106 
0.019891 0.11411 0.45741 44 77 106 
0.25724 0.11435 0.45755 44 77 106 
0.05809 0.15979 0.33538 44 77 106 
0.055654 0.16287 0.32694 44 77 106 
0.04532 0.15472 0.32694 44 77 106 
0.047756 0.15163 0.33538 44 77 106 
0.010758 0.039341 0.54264 90 106 44 
0.015736 0.041661 0.5208 90 106 44 
0.023744 0.02448 0.5208 90 106 44 
0.018766 0.02216 0.54264 90 106 44 
0.2064 0.15754 0.38468 44 77 106 
0.035324 0.15737 0.38458 44 77 106 
0.035324 0.16164 0.37739 44 77 106 
0.2064 0.16181 0.37749 44 77 106 
0.080599 0.25937 0.21288 44 77 106 
0.062093 0.25935 0.21287 44 77 106 
0.062093 0.25444 0.22115 44 77 106 
0.080599 0.25446 0.22116 44 77 106 
0.3939 0.15859 0.38337 44 77 106 
0.041068 0.15822 0.38315 44 77 106 
0.041068 0.1844 0.33908 44 77 106 
0.3939 0.18476 0.33929 44 77 106 
0.077111 0.10975 0.45451 106 75 44 
0.029524 0.10911 0.45715 106 75 44 
0.029524 0.094282 0.45354 106 75 44 
0.077111 0.094924 0.4509 106 75 44 
0.076943 0.25698 0.19492 124 83 45 
0.068082 0.25741 0.19408 124 83 45 
0.068082 0.25013 0.19037 124 83 45 
0.076943 0.24971 0.1912 124 83 45 
0.080872 0.068133 0.45087 124 45 123 
0.040319 0.077959 0.45671 124 45 123 
0.040319 0.072797 0.4654 124 45 123 
0.080872 0.062972 0.45956 124 45 123 
0.17054 0.12042 0.44712 44 77 106 
0.031506 0.12028 0.44704 44 77 106 
0.031506 0.11226 0.46055 44 77 106 
0.17054 0.1124 0.46063 44 77 106 
0.16575 0.15244 0.38828 45 94 124 
0.040453 0.15164 0.38584 45 94 124 
0.040453 0.16056 0.38291 45 94 124 
0.16575 0.16136 0.38536 45 94 124 
0.096245 0.21476 0.28806 44 77 106 
0.05504 0.21472 0.28803 44 77 106 
0.05504 0.20609 0.30257 44 77 106 
0.096245 0.20613 0.30259 44 77 106 
0.046952 0.025498 0.51123 78 51 85 
0.02907 0.028577 0.50605 78 51 85 
0.02907 0.049177 0.51829 78 51 85 
0.046952 0.046098 0.52347 78 51 85 
0.073088 0.074469 0.52429 44 77 106 
0.037069 0.074432 0.52427 44 77 106 
0.037069 0.078045 0.51819 44 77 106 
0.073088 0.078082 0.51821 44 77 106 
0.072534 0.12075 0.3818 51 82 85 
0.06197 0.12075 0.3818 51 82 85 
0.06197 0.13057 0.39133 51 82 85 
0.072534 0.13057 0.39133 51 82 85 
0.10825 0.19779 0.2781 102 56 43 
0.077764 0.1978 0.27809 102 56 43 
0.077764 0.21584 0.2888 102 56 43 
0.10825 0.21583 0.28881 102 56 43 
0.12156 0.10179 0.47839 44 77 106 
0.055335 0.10172 0.47835 44 77 106 
0.055335 0.080135 0.51471 44 77 106 
0.12156 0.080203 0.51475 44 77 106 
0.164 0.23143 0.29811 102 56 43 
0.09361 0.23145 0.29808 102 56 43 
0.09361 0.19743 0.27787 102 56 43 
0.164 0.19741 0.27791 102 56 43 
0.089935 0.36121 0.19321 107 63 89 
0.079435 0.36121 0.19321 107 63 89 
0.079435 0.36643 0.2002 107 63 89 
0.089935 0.36644 0.2002 107 63 89 
0.39444 0.20347 0.28166 102 56 43 
0.095565 0.20356 0.28152 102 56 43 
0.095565 0.19619 0.27714 102 56 43 
0.39444 0.19611 0.27728 102 56 43 
0.13267 0.12585 0.38395 102 56 43 
0.076035 0.12704 0.38195 102 56 43 
0.076035 0.13768 0.38827 102 56 43 
0.13267 0.1365 0.39026 102 56 43 
0.14621 0.24906 0.19717 83 85 51 
0.09685 0.24903 0.19718 83 85 51 
0.09685 0.24806 0.1939 83 85 51 
0.14621 0.24809 0.19389 83 85 51 
0.13716 0.25905 0.21356 44 77 106 
0.099165 0.25901 0.21354 44 77 106 
0.099165 0.25525 0.21988 44 77 106 
0.13716 0.25528 0.2199 44 77 106 
0.11446 0.18942 1.0517 44 77 106 
-0.009351 0.18007 1.0462 44 77 106 
-0.009351 0.18674 1.0349 44 77 106 
0.11446 0.1961 1.0405 44 77 106 
0.12616 0.14702 0.40222 44 77 106 
0.0943 0.14699 0.4022 44 77 106 
0.0943 0.1428 0.40925 44 77 106 
0.12616 0.14284 0.40927 44 77 106 
0.39099 0.27968 0.22824 102 56 43 
0.10435 0.27976 0.22811 102 56 43 
0.10435 0.27239 0.22373 102 56 43 
0.39099 0.27231 0.22386 102 56 43 
0.11231 0.18785 0.33342 44 77 106 
0.10534 0.18784 0.33342 44 77 106 
0.10534 0.19128 0.32763 44 77 106 
0.11231 0.19128 0.32764 44 77 106 
0.124 0.063708 0.54254 44 77 106 
0.10248 0.063686 0.54252 44 77 106 
0.10248 0.069352 0.53298 44 77 106 
0.124 0.069374 0.53299 44 77 106 
0.15916 0.20919 0.2849 102 56 43 
0.11984 0.2092 0.28488 102 56 43 
0.11984 0.20187 0.28053 102 56 43 
0.15916 0.20186 0.28055 102 56 43 
0.1355 0.24839 0.23152 44 77 106 
0.12206 0.24837 0.23151 44 77 106 
0.12206 0.24165 0.24283 44 77 106 
0.1355 0.24166 0.24284 44 77 106 
0.38921 0.23487 0.3003 102 56 43 
0.13505 0.23494 0.30018 102 56 43 
0.13505 0.22514 0.29436 102 56 43 
0.38921 0.22507 0.29448 102 56 43 
0.20486 0.079522 0.51609 44 77 106 
0.12934 0.079445 0.51604 44 77 106 
0.12934 0.0752 0.52319 44 77 106 
0.20486 0.075277 0.52324 44 77 106 
0.29008 0.15722 0.39338 44 77 106 
0.14003 0.15127 0.38987 44 77 106 
0.14003 0.15681 0.38046 44 77 106 
0.29008 0.16276 0.38396 44 77 106 
0.14847 0.039238 0.51058 102 55 43 
0.15099 0.025347 0.50973 102 55 43 
0.15394 0.025347 0.51842 102 55 43 
0.15142 0.039238 0.51928 102 55 43 
0.19499 0.24591 0.25506 73 43 102 
0.14451 0.2459 0.25507 73 43 102 
0.14451 0.24998 0.26222 73 43 102 
0.19499 0.24999 0.26222 73 43 102 
0.39409 0.21746 0.28996 102 56 43 
0.1498 0.21753 0.28985 102 56 43 
0.1498 0.1978 0.27813 102 56 43 
0.39409 0.19774 0.27825 102 56 43 
0.16033 0.2055 0.28271 102 56 43 
0.15134 0.2055 0.28271 102 56 43 
0.15134 0.20969 0.2852 102 56 43 
0.16033 0.20969 0.2852 102 56 43 
0.19039 0.26339 0.20637 44 77 106 
0.15279 0.26335 0.20635 44 77 106 
0.15279 0.26548 0.20277 44 77 106 
0.19039 0.26552 0.20279 44 77 106 
0.16594 0.14505 0.40564 44 77 106 
0.15446 0.14503 0.40563 44 77 106 
0.15446 0.14854 0.39972 44 77 106 
0.16594 0.14856 0.39973 44 77 106 
0.15652 0.13198 0.38342 43 102 76 
0.15844 0.12422 0.3824 43 102 76 
0.16214 0.12422 0.38942 43 102 76 
0.16023 0.13198 0.39043 43 102 76 
0.21005 0.083315 0.50971 44 77 106 
0.16272 0.083267 0.50968 44 77 106 
0.16272 0.079761 0.51559 44 77 106 
0.21005 0.07981 0.51562 44 77 106 
0.39293 0.20933 0.28514 102 56 43 
0.16262 0.2094 0.28503 102 56 43 
0.16262 0.20185 0.28054 102 56 43 
0.39293 0.20178 0.28065 102 56 43 
0.2153 0.22733 0.26717 44 77 106 
0.16576 0.22728 0.26714 44 77 106 
0.16576 0.22376 0.27306 44 77 106 
0.2153 0.22382 0.27309 44 77 106 
0.25528 0.20181 0.28058 102 56 43 
0.16478 0.20183 0.28054 102 56 43 
0.16478 0.20765 0.28399 102 56 43 
0.25528 0.20762 0.28403 102 56 43 
0.18831 0.057259 0.50988 107 63 90 
0.17997 0.02666 0.50434 107 63 90 
0.17155 0.02666 0.51702 107 63 90 
0.17989 0.057259 0.52256 107 63 90 
0.23399 0.23255 0.29882 102 56 43 
0.16431 0.23257 0.29879 102 56 43 
0.16431 0.23769 0.30183 102 56 43 
0.23399 0.23767 0.30186 102 56 43 
0.18324 0.041159 0.50782 63 70 107 
0.17986 0.025616 0.50633 63 70 107 
0.17417 0.025616 0.51929 63 70 107 
0.17755 0.041159 0.52077 63 70 107 
0.21445 0.065321 0.44925 97 83 52 
0.17844 0.064242 0.44778 97 83 52 
0.17844 0.071385 0.44254 97 83 52 
0.21445 0.072464 0.44401 97 83 52 
0.20784 0.21284 0.2871 102 56 43 
0.17182 0.21285 0.28709 102 56 43 
0.17182 0.20404 0.28185 102 56 43 
0.20784 0.20403 0.28187 102 56 43 
0.19579 0.062959 0.52343 85 107 63 
0.20487 0.031636 0.51204 85 107 63 
0.18798 0.031636 0.49856 85 107 63 
0.17889 0.062959 0.50994 85 107 63 
0.39504 0.23075 0.29785 102 56 43 
0.1773 0.23081 0.29775 102 56 43 
0.1773 0.19182 0.2746 102 56 43 
0.39504 0.19176 0.2747 102 56 43 
0.20838 0.10752 0.46894 44 77 106 
0.18656 0.1075 0.46892 44 77 106 
0.18656 0.11147 0.46224 44 77 106 
0.20838 0.11149 0.46226 44 77 106 
0.32757 0.11355 0.3885 44 77 106 
0.18348 0.1152 0.38948 44 77 106 
0.18348 0.12104 0.37965 44 77 106 
0.32757 0.11939 0.37867 44 77 106 
0.39366 0.19944 0.27926 102 56 43 
0.18064 0.1995 0.27916 102 56 43 
0.18064 0.19278 0.27517 102 56 43 
0.39366 0.19272 0.27527 102 56 43 
0.19232 0.22907 0.25766 60 97 52 
0.1792 0.22933 0.25702 60 97 52 
0.1792 0.22044 0.25344 60 97 52 
0.19232 0.22018 0.25408 60 97 52 
0.38707 0.20413 0.32781 51 82 85 
0.18125 0.20682 0.32474 51 82 85 
0.18125 0.20027 0.319 51 82 85 
0.38707 0.19758 0.32207 51 82 85 
0.38646 0.24923 0.26457 44 77 106 
0.17906 0.24562 0.26294 44 77 106 
0.17906 0.24927 0.25486 44 77 106 
0.38646 0.25289 0.25649 44 77 106 
0.25499 0.11585 0.44302 124 83 45 
0.18806 0.1158 0.44294 124 83 45 
0.18806 0.10969 0.44751 124 83 45 
0.25499 0.10975 0.44759 124 83 45 
0.18625 0.33742 0.081678 44 77 106 
0.17776 0.33741 0.081672 44 77 106 
0.17776 0.33444 0.086688 44 77 106 
0.18625 0.33444 0.086693 44 77 106 
0.24834 0.20452 0.28218 102 56 43 
0.18632 0.20454 0.28215 102 56 43 
0.18632 0.22967 0.29708 102 56 43 
0.24834 0.22965 0.29711 102 56 43 
0.2009 0.21188 0.28653 102 56 43 
0.18991 0.21188 0.28652 102 56 43 
0.18991 0.20442 0.28209 102 56 43 
0.2009 0.20442 0.28209 102 56 43 
0.26013 0.25715 0.21704 44 77 106 
0.19679 0.25709 0.217 44 77 106 
0.19679 0.24097 0.24416 44 77 106 
0.26013 0.24103 0.2442 44 77 106 
0.24328 0.039982 0.51884 79 51 85 
0.22659 0.044337 0.51151 79 51 85 
0.22659 0.032285 0.50435 79 51 85 
0.24328 0.02793 0.51167 79 51 85 
0.39716 0.19643 0.27747 102 56 43 
0.2107 0.19648 0.27739 102 56 43 
0.2107 0.22611 0.29498 102 56 43 
0.39716 0.22606 0.29507 102 56 43 
0.26585 0.06938 0.45119 44 77 106 
0.22781 0.069556 0.4513 44 77 106 
0.22781 0.076871 0.43898 44 77 106 
0.26585 0.076694 0.43888 44 77 106 
0.3809 0.33217 0.090981 44 77 106 
0.34548 0.33213 0.090959 44 77 106 
0.34548 0.34192 0.074469 44 77 106 
0.3809 0.34196 0.07449 44 77 106 
0.39604 0.19804 0.32825 102 56 43 
0.23282 0.19591 0.33224 102 56 43 
0.23282 0.17367 0.32036 102 56 43 
0.39604 0.1758 0.31637 102 56 43 
0.39473 0.20418 0.28207 102 56 43 
0.22313 0.20423 0.28199 102 56 43 
0.22313 0.19913 0.27897 102 56 43 
0.39473 0.19908 0.27905 102 56 43 
0.35573 0.44615 0.66087 44 77 106 
0.21198 0.43528 0.65441 44 77 106 
0.21198 0.44444 0.63899 44 77 106 
0.35573 0.4553 0.64544 44 77 106 
0.27987 0.10352 0.47585 44 77 106 
0.25025 0.10349 0.47583 44 77 106 
0.25025 0.10851 0.46737 44 77 106 
0.27987 0.10854 0.46739 44 77 106 
0.39589 0.24046 0.30362 102 56 43 
0.21836 0.24051 0.30354 102 56 43 
0.21836 0.22972 0.29713 102 56 43 
0.39589 0.22967 0.29721 102 56 43 
0.39412 0.29648 0.1367 107 63 89 
0.22176 0.2968 0.13646 107 63 89 
0.22176 0.29215 0.13026 107 63 89 
0.39412 0.29183 0.1305 107 63 89 
0.39537 0.2327 0.29901 102 56 43 
0.23934 0.23274 0.29894 102 56 43 
0.23934 0.22585 0.29484 102 56 43 
0.39537 0.2258 0.29492 102 56 43 
0.23459 0.22958 0.29706 102 56 43 
0.22711 0.22959 0.29706 102 56 43 
0.22711 0.21971 0.29119 102 56 43 
0.23459 0.21971 0.2912 102 56 43 
0.28377 0.058286 0.5194 102 55 43 
0.28669 0.037028 0.51869 102 55 43 
0.28287 0.037028 0.503 102 55 43 
0.27995 0.058286 0.50371 102 55 43 
0.28575 0.053741 0.5228 120 44 48 
0.28891 0.056393 0.51202 120 44 48 
0.29949 0.043788 0.51202 120 44 48 
0.29633 0.041136 0.5228 120 44 48 
0.32542 0.14605 0.40432 44 77 106 
0.27588 0.146 0.40429 44 77 106 
0.27588 0.14262 0.40998 44 77 106 
0.32542 0.14267 0.41001 44 77 106 
0.24675 0.33887 0.079383 44 77 106 
0.23877 0.33886 0.079378 44 77 106 
0.23877 0.33398 0.087603 44 77 106 
0.24675 0.33399 0.087608 44 77 106 
0.28239 0.20669 0.28349 102 56 43 
0.24533 0.2067 0.28348 102 56 43 
0.24533 0.23213 0.29858 102 56 43 
0.28239 0.23212 0.2986 102 56 43 
0.36399 0.15506 0.38174 107 63 89 
0.28377 0.15805 0.38107 107 63 89 
0.28377 0.16019 0.39055 107 63 89 
0.36399 0.1572 0.39123 107 63 89 
0.30772 0.10014 0.4558 57 57 57 
0.30452 0.10264 0.44468 57 57 57 
0.29245 0.0872 0.44468 57 57 57 
0.29565 0.084697 0.4558 57 57 57 
0.32926 0.15595 0.38953 120 44 48 
0.28841 0.15337 0.39253 120 44 48 
0.28841 0.14532 0.3856 120 44 48 
0.32926 0.1479 0.3826 120 44 48 
0.39293 0.15629 0.38724 44 77 106 
0.28886 0.15618 0.38717 44 77 106 
0.28886 0.16059 0.37975 44 77 106 
0.39293 0.1607 0.37981 44 77 106 
0.387 0.057542 0.52468 62 44 120 
0.31179 0.05777 0.52487 62 44 120 
0.31179 0.068708 0.51172 62 44 120 
0.387 0.06848 0.51153 62 44 120 
0.31137 0.090505 0.45829 60 97 52 
0.31171 0.090522 0.44665 60 97 52 
0.31122 0.10057 0.44665 60 97 52 
0.31087 0.10055 0.45829 60 97 52 
0.39156 0.18165 0.34451 44 77 106 
0.29353 0.18155 0.34445 44 77 106 
0.29353 0.18327 0.34155 44 77 106 
0.39156 0.18337 0.34161 44 77 106 
0.29431 0.25337 0.2235 44 77 106 
0.27539 0.25335 0.22349 44 77 106 
0.27539 0.24197 0.24264 44 77 106 
0.29431 0.24199 0.24266 44 77 106 
0.35369 0.43811 0.67405 44 77 106 
0.27066 0.43183 0.67033 44 77 106 
0.27066 0.43609 0.66316 44 77 106 
0.35369 0.44236 0.66689 44 77 106 
0.3898 0.11423 0.45806 44 77 106 
0.3073 0.11415 0.45801 44 77 106 
0.3073 0.12019 0.44783 44 77 106 
0.3898 0.12028 0.44788 44 77 106 
0.29926 0.33945 0.076601 107 63 89 
0.26281 0.33878 0.076756 107 63 89 
0.26281 0.34052 0.084402 107 63 89 
0.29926 0.3412 0.084247 107 63 89 
0.3883 0.063626 0.52165 44 77 106 
0.34285 0.062767 0.52133 44 77 106 
0.34285 0.066765 0.51047 44 77 106 
0.3883 0.067625 0.51078 44 77 106 
0.38108 0.066775 0.46439 44 77 106 
0.33302 0.064973 0.46372 44 77 106 
0.33302 0.069264 0.45218 44 77 106 
0.38108 0.071066 0.45285 44 77 106 
0.38809 0.075834 0.52273 44 77 106 
0.34422 0.075789 0.5227 44 77 106 
0.34422 0.081823 0.51254 44 77 106 
0.38809 0.081868 0.51257 44 77 106 
0.38229 0.14272 0.41007 44 77 106 
0.3391 0.14267 0.41004 44 77 106 
0.3391 0.14588 0.40464 44 77 106 
0.38229 0.14593 0.40466 44 77 106 
0.3325 0.20822 0.28444 102 56 43 
0.28991 0.20824 0.28442 102 56 43 
0.28991 0.23481 0.3002 102 56 43 
0.3325 0.2348 0.30022 102 56 43 
0.39089 0.070813 0.53119 44 77 106 
0.3726 0.070794 0.53118 44 77 106 
0.3726 0.075979 0.52245 44 77 106 
0.39089 0.075997 0.52246 44 77 106 
0.39353 0.14522 0.40587 44 77 106 
0.3566 0.14519 0.40585 44 77 106 
0.3566 0.14145 0.41214 44 77 106 
0.39353 0.14149 0.41216 44 77 106 
0.34469 0.24797 0.23271 44 77 106 
0.32384 0.24795 0.23269 44 77 106 
0.32384 0.24431 0.23882 44 77 106 
0.34469 0.24433 0.23883 44 77 106 
0.37934 0.09579 0.46033 46 120 44 
0.38271 0.093797 0.45012 46 120 44 
0.38925 0.10483 0.45012 46 120 44 
0.38588 0.10683 0.46033 46 120 44 
0.39423 0.38628 0.76833 44 77 106 
0.38319 0.38545 0.76783 44 77 106 
0.38319 0.37971 0.77749 44 77 106 
0.39423 0.38055 0.77799 44 77 106 
0.4297 0.052506 0.5684 61 97 52 
0.4275 0.043059 0.56598 61 97 52 
0.41994 0.043059 0.57281 61 97 52 
0.42213 0.052506 0.57524 61 97 52 
0.40381 0.11255 0.48536 102 55 43 
0.40792 0.087977 0.48411 102 55 43 
0.39832 0.087977 0.4527 102 55 43 
0.39421 0.11255 0.45396 102 55 43 
0.29448 0.63501 0.33222 44 77 106 
0.28415 0.63423 0.33175 44 77 106 
0.28415 0.63521 0.33011 44 77 106 
0.29448 0.63599 0.33057 44 77 106 
0.39791 0.066776 0.45342 97 83 52 
0.39487 0.042164 0.45111 97 83 52 
0.40319 0.042164 0.44016 97 83 52 
0.40623 0.066776 0.44247 97 83 52 
0.66395 0.3405 0.89188 44 77 106 
0.5374 0.33093 0.8862 44 77 106 
0.5374 0.25668 1.0113 44 77 106 
0.66395 0.26625 1.0169 44 77 106 
0.66866 0.32459 0.91949 44 77 106 
0.53229 0.31428 0.91337 44 77 106 
0.53229 0.23948 1.0394 44 77 106 
0.66866 0.24979 1.0455 44 77 106 
0.56197 0.25237 1.0228 44 77 106 
0.52684 0.24972 1.0212 44 77 106 
0.52684 0.2713 0.98483 44 77 106 
0.56197 0.27396 0.9864 44 77 106 
0.37714 0.20865 0.28472 102 56 43 
0.34337 0.20866 0.28471 102 56 43 
0.34337 0.22784 0.2961 102 56 43 
0.37714 0.22783 0.29611 102 56 43 
0.46852 0.083586 0.56642 97 52 62 
0.43454 0.078567 0.56917 97 52 62 
0.43454 0.050587 0.51803 97 52 62 
0.46852 0.055605 0.51529 97 52 62 
0.60681 0.2843 0.9767 44 77 106 
0.53404 0.2788 0.97343 44 77 106 
0.53404 0.25917 1.0065 44 77 106 
0.60681 0.26467 1.0098 44 77 106 
0.4076 0.089707 0.40326 57 57 57 
0.40389 0.092434 0.39011 57 57 57 
0.39661 0.082516 0.39011 57 57 57 
0.40033 0.079789 0.40326 57 57 57 
0.39529 0.25951 0.22196 44 77 106 
0.36803 0.25 0.21632 44 77 106 
0.36803 0.23678 0.2386 44 77 106 
0.39529 0.24628 0.24425 44 77 106 
0.469 0.44415 0.30399 107 63 89 
0.45168 0.44415 0.304 107 63 89 
0.45168 0.43309 0.28922 107 63 89 
0.469 0.43309 0.28922 107 63 89 
0.6241 0.29002 0.97004 44 77 106 
0.55074 0.28448 0.96675 44 77 106 
0.55074 0.25457 1.0171 44 77 106 
0.6241 0.26012 1.0204 44 77 106 
0.40648 0.14644 0.40386 44 77 106 
0.39894 0.14643 0.40385 44 77 106 
0.39894 0.14334 0.40906 44 77 106 
0.40648 0.14335 0.40906 44 77 106 
0.65781 0.33298 0.90348 44 77 106 
0.58341 0.32736 0.90014 44 77 106 
0.58341 0.30349 0.94035 44 77 106 
0.65781 0.30911 0.94369 44 77 106 
0.59916 0.28905 0.96738 44 77 106 
0.57496 0.28723 0.96629 44 77 106 
0.57496 0.26097 1.0105 44 77 106 
0.59916 0.26279 1.0116 44 77 106 
0.39689 0.22037 0.27932 44 77 106 
0.38329 0.22036 0.27931 44 77 106 
0.38329 0.20358 0.30756 44 77 106 
0.39689 0.2036 0.30757 44 77 106 
0.64965 0.31238 0.93679 44 77 106 
0.5929 0.30809 0.93424 44 77 106 
0.5929 0.27871 0.98372 44 77 106 
0.64965 0.283 0.98626 44 77 106 
0.49221 0.05554 0.52521 107 63 89 
0.4516 0.058026 0.52343 107 63 89 
0.4516 0.047889 0.50931 107 63 89 
0.49221 0.045403 0.51109 107 63 89 
0.64584 0.30279 0.95228 44 77 106 
0.57978 0.2978 0.94932 44 77 106 
0.57978 0.26736 1.0006 44 77 106 
0.64584 0.27235 1.0035 44 77 106 
0.40528 0.16645 0.37016 44 77 106 
0.39935 0.16644 0.37015 44 77 106 
0.39935 0.15398 0.39114 44 77 106 
0.40528 0.15399 0.39114 44 77 106 
0.50487 0.084634 0.55045 90 106 44 
0.47515 0.080335 0.5577 90 106 44 
0.47515 0.058303 0.54463 90 106 44 
0.50487 0.062602 0.53738 90 106 44 
0.66378 0.31564 0.93373 44 77 106 
0.61122 0.31166 0.93137 44 77 106 
0.61122 0.2767 0.99026 44 77 106 
0.66378 0.28067 0.99262 44 77 106 
0.41188 0.19724 0.27796 102 56 43 
0.39205 0.19724 0.27795 102 56 43 
0.39205 0.23177 0.29846 102 56 43 
0.41188 0.23176 0.29847 102 56 43 
0.50402 0.063347 0.53106 106 75 44 
0.48569 0.056882 0.53766 106 75 44 
0.48569 0.073226 0.55368 106 75 44 
0.50402 0.079691 0.54708 106 75 44 
0.40135 0.16487 0.29022 124 83 45 
0.40723 0.16829 0.26751 124 83 45 
0.40211 0.17707 0.26751 124 83 45 
0.39623 0.17364 0.29022 124 83 45 
0.39941 0.22725 0.27608 124 45 123 
0.40232 0.20665 0.27535 124 45 123 
0.39929 0.20665 0.26325 124 45 123 
0.39638 0.22725 0.26398 124 45 123 
0.40772 0.092726 0.30158 120 44 48 
0.4038 0.09618 0.28825 120 44 48 
0.39746 0.088975 0.28825 120 44 48 
0.40138 0.085522 0.30158 120 44 48 
0.39576 0.20185 0.27146 97 52 62 
0.38878 0.17686 0.26649 97 52 62 
0.40136 0.17686 0.24882 97 52 62 
0.40834 0.20185 0.2538 97 52 62 
0.66945 0.29989 0.96123 44 77 106 
0.60181 0.29478 0.95819 44 77 106 
0.60181 0.27094 0.99834 44 77 106 
0.66945 0.27605 1.0014 44 77 106 
0.63495 0.2776 0.99283 44 77 106 
0.5983 0.27483 0.99118 44 77 106 
0.5983 0.27891 0.98432 44 77 106 
0.63495 0.28168 0.98596 44 77 106 
0.43185 0.20077 0.22015 97 52 62 
0.40177 0.093114 0.19872 97 52 62 
0.36826 0.093114 0.24578 97 52 62 
0.39834 0.20077 0.2672 97 52 62 
0.67975 0.30743 0.95031 44 77 106 
0.61514 0.30254 0.94741 44 77 106 
0.61514 0.26822 1.0052 44 77 106 
0.67975 0.2731 1.0081 44 77 106 
0.67588 0.30421 0.95505 44 77 106 
0.61985 0.29998 0.95254 44 77 106 
0.61985 0.27002 1.003 44 77 106 
0.67588 0.27425 1.0055 44 77 106 
0.40683 0.1948 0.32241 44 77 106 
0.39918 0.19479 0.3224 44 77 106 
0.39918 0.20568 0.30407 44 77 106 
0.40683 0.20568 0.30407 44 77 106 
0.49688 0.047223 0.53833 57 57 57 
0.49162 0.049438 0.51345 57 57 57 
0.50147 0.072861 0.51345 57 57 57 
0.50674 0.070646 0.53833 57 57 57 
0.40952 0.14367 0.24615 102 56 43 
0.39892 0.14368 0.24615 102 56 43 
0.39892 0.17288 0.26349 102 56 43 
0.40952 0.17288 0.26349 102 56 43 
0.39706 0.20294 0.24323 45 94 124 
0.40288 0.18998 0.24752 45 94 124 
0.40863 0.18998 0.23972 45 94 124 
0.40281 0.20294 0.23543 45 94 124 
0.68046 0.29811 0.96612 44 77 106 
0.65611 0.29627 0.96503 44 77 106 
0.65611 0.30713 0.94674 44 77 106 
0.68046 0.30897 0.94783 44 77 106 
0.68107 0.29342 0.97413 44 77 106 
0.67065 0.29263 0.97366 44 77 106 
0.67065 0.30188 0.95809 44 77 106 
0.68107 0.30266 0.95856 44 77 106 
0.40406 0.059013 0.24442 78 51 85 
0.41169 0.065859 0.22904 78 51 85 
0.40517 0.073121 0.22904 78 51 85 
0.39755 0.066275 0.24442 78 51 85 
0.40569 0.2084 0.2995 44 77 106 
0.39968 0.20839 0.2995 44 77 106 
0.39968 0.19679 0.31904 44 77 106 
0.40569 0.19679 0.31905 44 77 106 
0.53832 0.063446 0.54234 51 82 85 
0.52089 0.063447 0.54234 51 82 85 
0.52089 0.050666 0.52924 51 82 85 
0.53832 0.050665 0.52925 51 82 85 
0.40221 0.15199 0.21992 51 82 85 
0.40264 0.15203 0.21038 51 82 85 
0.40332 0.14296 0.21038 51 82 85 
0.40289 0.14293 0.21992 51 82 85 
0.72562 0.34063 0.90228 44 77 106 
0.71928 0.34015 0.90199 44 77 106 
0.71928 0.33835 0.90503 44 77 106 
0.72562 0.33883 0.90531 44 77 106 
0.39791 0.32102 0.13197 83 85 51 
0.38642 0.32109 0.13164 83 85 51 
0.38642 0.33085 0.13375 83 85 51 
0.39791 0.33078 0.13408 83 85 51 
0.40753 0.13506 0.22095 102 56 43 
0.3993 0.1353 0.22053 102 56 43 
0.3993 0.1067 0.20456 102 56 43 
0.40753 0.10647 0.20498 102 56 43 
0.40199 0.23816 0.18509 102 55 43 
0.40376 0.23951 0.18079 102 55 43 
0.40732 0.23482 0.18079 102 55 43 
0.40554 0.23347 0.18509 102 55 43 
0.40984 0.13367 0.22045 73 43 102 
0.4026 0.13435 0.21926 73 43 102 
0.4026 0.10874 0.20462 73 43 102 
0.40984 0.10806 0.20582 73 43 102 
0.4015 0.093549 0.19788 97 52 62 
0.39984 0.088753 0.19688 97 52 62 
0.39568 0.088753 0.2038 97 52 62 
0.39734 0.093549 0.2048 97 52 62 
0.74444 0.35694 0.87805 44 77 106 
0.71528 0.35474 0.87674 44 77 106 
0.71528 0.32735 0.92287 44 77 106 
0.74444 0.32955 0.92418 44 77 106 
0.73744 0.34456 0.89769 44 77 106 
0.71242 0.34267 0.89657 44 77 106 
0.71242 0.32831 0.92075 44 77 106 
0.73744 0.3302 0.92188 44 77 106 
0.75171 0.35594 0.88099 44 77 106 
0.72485 0.35391 0.87978 44 77 106 
0.72485 0.33378 0.91369 44 77 106 
0.75171 0.33581 0.91489 44 77 106 
0.39091 0.21658 0.28568 44 77 106 
0.38513 0.21657 0.28568 44 77 106 
0.38513 0.21321 0.29134 44 77 106 
0.39091 0.21322 0.29134 44 77 106 
0.38875 0.043632 0.18103 43 102 76 
0.38308 0.042626 0.17968 43 102 76 
0.38308 0.051686 0.1729 43 102 76 
0.38875 0.052691 0.17425 43 102 76 
0.72298 0.33363 0.91361 44 77 106 
0.71078 0.33271 0.91307 44 77 106 
0.71078 0.34009 0.90063 44 77 106 
0.72298 0.34102 0.90117 44 77 106 
0.39145 0.34614 0.107 107 63 90 
0.38882 0.34861 0.1001 107 63 90 
0.38566 0.34525 0.1001 107 63 90 
0.38829 0.34278 0.107 107 63 90 
4 0 1 2 3
4 4 5 6 7
4 8 9 10 11
4 12 13 14 15
4 16 17 18 19
4 20 21 22 23
4 24 25 26 27
4 28 29 30 31
4 32 33 34 35
4 36 37 38 39
4 40 41 42 43
4 44 45 46 47
4 48 49 50 51
4 52 53 54 55
4 56 57 58 59
4 60 61 62 63
4 64 65 66 67
4 68 69 70 71
4 72 73 74 75
4 76 77 78 79
4 80 81 82 83
4 84 85 86 87
4 88 89 90 91
4 92 93 94 95
4 96 97 98 99
4 100 101 102 103
4 104 105 106 107
4 108 109 110 111
4 112 113 114 115
4 116 117 118 119
4 120 121 122 123
4 124 125 126 127
4 128 129 130 131
4 132 133 134 135
4 136 137 138 139
4 140 141 142 143
4 144 145 146 147
4 148 149 150 151
4 152 153 154 155
4 156 157 158 159
4 160 161 162 163
4 164 165 166 167
4 168 169 170 171
4 172 173 174 175
4 176 177 178 179
4 180 181 182 183
4 184 185 186 187
4 188 189 190 191
4 192 193 194 195
4 196 197 198 199
4 200 201 202 203
4 204 205 206 207
4 208 209 210 211
4 212 213 214 215
4 216 217 218 219
4 220 221 222 223
4 224 225 226 227
4 228 229 230 231
4 232 233 234 235
4 236 237 238 239
4 240 241 242 243
4 244 245 246 247
4 248 249 250 251
4 252 253 254 255
4 256 257 258 259
4 260 261 262 263
4 264 265 266 267
4 268 269 270 271
4 272 273 274 275
4 276 277 278 279
4 280 281 282 283
4 284 285 286 287
4 288 289 290 291
4 292 293 294 295
4 296 297 298 299
4 300 301 302 303
4 304 305 306 307
4 308 309 310 311
4 312 313 314 315
4 316 317 318 319
4 320 321 322 323
4 324 325 326 327
4 328 329 330 331
4 332 333 334 335
4 336 337 338 339
4 340 341 342 343
4 344 345 346 347
4 348 349 350 351
4 352 353 354 355
4 356 357 358 359
4 360 361 362 363
4 364 365 366 367
4 368 369 370 371
4 372 373 374 375
4 376 377 378 379
4 380 381 382 383
4 384 385 386 387
4 388 389 390 391
4 392 393 394 395
4 396 397 398 399
4 400 401 402 403
4 404 405 406 407
4 408 409 410 411
4 412 413 414 415
4 416 417 418 419
4 420 421 422 423
4 424 425 426 427
4 428 429 430 431
4 432 433 434 435
4 436 437 438 439
4 440 441 442 443
4 444 445 446 447
4 448 449 450 451
4 452 453 454 455
4 456 457 458 459
4 460 461 462 463
4 464 465 466 467
4 468 469 470 471
4 472 473 474 475
4 476 477 478 479
4 480 481 482 483
4 484 485 486 487
4 488 489 490 491
4 492 493 494 495
4 496 497 498 499
4 500 501 502 503
4 504 505 506 507
4 508 509 510 511
4 512 513 514 515
4 516 517 518 519
4 520 521 522 523
4 524 525 526 527
4 528 529 530 531
4 532 533 534 535
4 536 537 538 539
4 540 541 542 543
4 544 545 546 547
4 548 549 550 551
4 552 553 554 555
4 556 557 558 559
4 560 561 562 563
4 564 565 566 567
4 568 569 570 571
4 572 573 574 575
4 576 577 578 579
4 580 581 582 583
4 584 585 586 587
4 588 589 590 591
4 592 593 594 595
4 596 597 598 599
4 600 601 602 603
4 604 605 606 607
4 608 609 610 611
4 612 613 614 615
4 616 617 618 619
4 620 621 622 623
4 624 625 626 627
4 628 629 630 631
4 632 633 634 635
4 636 637 638 639
4 640 641 642 643
4 644 645 646 647
4 648 649 650 651
4 652 653 654 655
4 656 657 658 659
4 660 661 662 663
4 664 665 666 667
4 668 669 670 671
4 672 673 674 675
4 676 677 678 679
4 680 681 682 683
4 684 685 686 687
4 688 689 690 691
4 692 693 694 695
4 696 697 698 699
4 700 701 702 703
4 704 705 706 707
4 708 709 710 711
4 712 713 714 715
4 716 717 718 719
4 720 721 722 723
4 724 725 726 727
4 728 729 730 731
4 732 733 734 735
4 736 737 738 739
4 740 741 742 743
4 744 745 746 747
4 748 749 750 751
4 752 753 754 755
4 756 757 758 759
4 760 761 762 763
4 764 765 766 767
4 768 769 770 771
4 772 773 774 775
4 776 777 778 779
4 780 781 782 783
4 784 785 786 787
4 788 789 790 791
4 792 793 794 795
4 796 797 798 799
4 800 801 802 803
4 804 805 806 807
4 808 809 810 811
4 812 813 814 815
4 816 817 818 819
4 820 821 822 823
4 824 825 826 827
4 828 829 830 831
4 832 833 834 835
4 836 837 838 839
4 840 841 842 843
4 844 845 846 847
4 848 849 850 851
4 852 853 854 855
4 856 857 858 859
