ply
format ascii 1.0
comment PCL generated
element vertex 1200
property float x
property float y
property float z
property uchar red
property uchar green
property uchar blue
element face 300
property list uchar int vertex_indices
end_header
0.0065432 0.35667 3.472e-06 60 97 52 
0.0068523 0.0019606 3.7998e-06 60 97 52 
0.006002 0.0019606 0.78735 60 97 52 
0.005693 0.35667 0.78735 60 97 52 
0.0044538 0.11726 0.074663 60 97 52 
0.0045508 0.0058384 0.074663 60 97 52 
0.0043776 0.0058384 0.23509 60 97 52 
0.0042805 0.11726 0.23509 60 97 52 
0.029509 0.1465 0.018839 60 97 52 
0.029524 0.12919 0.018839 60 97 52 
0.029502 0.12919 0.0389 60 97 52 
0.029487 0.1465 0.0389 60 97 52 
0.028821 0.12145 0.040271 44 77 106 
0.020682 0.12144 0.040266 44 77 106 
0.020682 0.099697 0.076888 44 77 106 
0.028821 0.099705 0.076893 44 77 106 
0.034211 0.13043 0.034459 124 83 45 
0.01957 0.12872 0.03325 124 83 45 
0.01957 0.0079619 0.20423 124 83 45 
0.034211 0.0096725 0.20544 124 83 45 
0.026172 0.065378 0.12378 124 83 45 
0.019816 0.064637 0.12326 124 83 45 
0.019816 0.054273 0.13792 124 83 45 
0.026172 0.055015 0.13845 124 83 45 
0.026982 0.020249 0.21998 79 51 85 
0.029256 0.022763 0.2123 79 51 85 
0.020389 0.030783 0.2123 79 51 85 
0.018116 0.028269 0.21998 79 51 85 
0.38905 0.35375 0.082554 44 77 106 
0.015776 0.35337 0.082327 44 77 106 
0.015776 0.32938 0.12274 44 77 106 
0.38905 0.32976 0.12296 44 77 106 
0.018062 0.30571 0.13749 60 97 52 
0.018071 0.29463 0.13749 60 97 52 
0.018008 0.29463 0.19635 60 97 52 
0.017998 0.30571 0.19635 60 97 52 
0.024368 0.2912 0.13782 79 51 85 
0.025887 0.29264 0.1327 79 51 85 
0.020044 0.29882 0.1327 79 51 85 
0.018525 0.29738 0.13782 79 51 85 
0.39574 0.3357 0.14343 102 56 43 
0.016163 0.3358 0.14326 102 56 43 
0.016163 0.2992 0.12152 102 56 43 
0.39574 0.29909 0.1217 102 56 43 
0.044134 0.29655 0.12916 44 77 106 
0.020869 0.29652 0.12915 44 77 106 
0.020869 0.29493 0.13184 44 77 106 
0.044134 0.29495 0.13185 44 77 106 
0.04265 0.29409 0.13429 44 77 106 
0.026043 0.29407 0.13428 44 77 106 
0.026043 0.29629 0.13055 44 77 106 
0.04265 0.29631 0.13056 44 77 106 
0.39468 0.28399 0.17981 44 77 106 
0.020657 0.28361 0.17958 44 77 106 
0.020657 0.30575 0.14229 44 77 106 
0.39468 0.30613 0.14251 44 77 106 
0.018516 0.25374 0.27404 120 44 48 
0.0038652 0.26495 0.22286 120 44 48 
0.00056268 0.26063 0.22286 120 44 48 
0.015213 0.24942 0.27404 120 44 48 
0.38981 0.3012 0.13314 102 56 43 
0.030839 0.3013 0.13297 102 56 43 
0.030839 0.29361 0.12841 102 56 43 
0.38981 0.29351 0.12858 102 56 43 
0.21216 0.33744 0.12834 102 56 43 
0.021933 0.33749 0.12826 102 56 43 
0.021933 0.34314 0.13161 102 56 43 
0.21216 0.34309 0.1317 102 56 43 
0.050461 0.34103 0.13283 102 56 43 
0.022959 0.34103 0.13282 102 56 43 
0.022959 0.3345 0.12894 102 56 43 
0.050461 0.3345 0.12896 102 56 43 
0.013155 0.26598 0.2306 44 77 106 
0.0070894 0.26597 0.2306 44 77 106 
0.0070894 0.25298 0.25249 44 77 106 
0.013155 0.25298 0.25249 44 77 106 
0.092838 0.24873 0.19042 102 56 43 
0.020082 0.24875 0.19039 102 56 43 
0.020082 0.25862 0.19626 102 56 43 
0.092838 0.2586 0.19629 102 56 43 
0.094729 0.25082 0.19199 44 77 106 
0.022151 0.25075 0.19194 44 77 106 
0.022151 0.24804 0.1965 44 77 106 
0.094729 0.24811 0.19655 44 77 106 
0.39795 0.29009 0.20682 102 56 43 
0.015345 0.2902 0.20664 102 56 43 
0.015345 0.25376 0.18499 102 56 43 
0.39795 0.25365 0.18517 102 56 43 
0.39765 0.23894 0.24311 44 77 106 
0.018848 0.23855 0.24287 44 77 106 
0.018848 0.26271 0.2022 44 77 106 
0.39765 0.26309 0.20243 44 77 106 
0.10011 0.3433 0.12855 102 56 43 
0.027772 0.34332 0.12852 102 56 43 
0.027772 0.33916 0.12605 102 56 43 
0.10011 0.33914 0.12608 102 56 43 
0.063436 0.34405 0.089692 44 77 106 
0.034967 0.34402 0.089674 44 77 106 
0.034967 0.33359 0.10725 44 77 106 
0.063436 0.33361 0.10726 44 77 106 
0.39724 0.34152 0.13612 107 63 89 
0.030595 0.34149 0.13614 107 63 89 
0.030595 0.336 0.12881 107 63 89 
0.39724 0.33603 0.12878 107 63 89 
0.16266 0.29379 0.13507 44 77 106 
0.040065 0.29367 0.135 44 77 106 
0.040065 0.29665 0.12997 44 77 106 
0.16266 0.29678 0.13005 44 77 106 
0.019234 0.24448 0.25937 60 97 52 
0.019266 0.20795 0.25937 60 97 52 
0.019249 0.20795 0.27496 60 97 52 
0.019217 0.24448 0.27496 60 97 52 
0.01337 0.20222 0.3319 44 77 106 
0.0078629 0.20222 0.3319 44 77 106 
0.0078629 0.22057 0.30099 44 77 106 
0.01337 0.22058 0.30099 44 77 106 
0.12011 0.29571 0.19167 44 77 106 
0.022428 0.29561 0.19161 44 77 106 
0.022428 0.29223 0.1973 44 77 106 
0.12011 0.29233 0.19736 44 77 106 
0.05046 0.20813 0.24999 44 77 106 
0.023921 0.20811 0.24998 44 77 106 
0.023921 0.20307 0.25847 44 77 106 
0.05046 0.20309 0.25848 44 77 106 
0.39493 0.30765 0.13931 44 77 106 
0.044283 0.30729 0.1391 44 77 106 
0.044283 0.28317 0.17972 44 77 106 
0.39493 0.28353 0.17994 44 77 106 
0.1147 0.28685 0.19275 102 56 43 
0.024375 0.28688 0.1927 102 56 43 
0.024375 0.29523 0.19766 102 56 43 
0.1147 0.2952 0.19771 102 56 43 
0.1617 0.33786 0.13715 102 56 43 
0.037696 0.3379 0.13709 102 56 43 
0.037696 0.31691 0.12463 102 56 43 
0.1617 0.31688 0.12469 102 56 43 
0.11258 0.2023 0.26208 44 77 106 
0.024996 0.20221 0.26203 44 77 106 
0.024996 0.20572 0.25613 44 77 106 
0.11258 0.20581 0.25618 44 77 106 
0.21505 0.20931 0.24666 102 56 43 
0.022544 0.20937 0.24657 102 56 43 
0.022544 0.2459 0.26826 102 56 43 
0.21505 0.24585 0.26835 102 56 43 
0.073679 0.2459 0.2402 44 77 106 
0.024788 0.24585 0.24017 44 77 106 
0.024788 0.25097 0.23155 44 77 106 
0.073679 0.25102 0.23158 44 77 106 
0.38981 0.29244 0.19848 44 77 106 
0.026178 0.29206 0.19825 44 77 106 
0.026178 0.29586 0.19187 44 77 106 
0.38981 0.29623 0.19209 44 77 106 
0.39224 0.19531 0.30485 44 77 106 
0.02269 0.19493 0.30462 44 77 106 
0.02269 0.21771 0.26625 44 77 106 
0.39224 0.21809 0.26648 44 77 106 
0.016394 0.16658 0.40175 57 57 57 
0.0075377 0.16968 0.35368 57 57 57 
0.004489 0.16095 0.35368 57 57 57 
0.013345 0.15785 0.40175 57 57 57 
0.065527 0.16624 0.31139 102 56 43 
0.018317 0.16626 0.31137 102 56 43 
0.018317 0.19789 0.33015 102 56 43 
0.065527 0.19787 0.33017 102 56 43 
0.3862 0.15434 0.33389 44 77 106 
0.020024 0.15397 0.33366 44 77 106 
0.020024 0.16293 0.31856 44 77 106 
0.3862 0.16331 0.31878 44 77 106 
0.020809 0.20478 0.32351 60 97 52 
0.02084 0.16962 0.32351 60 97 52 
0.020827 0.16962 0.33529 60 97 52 
0.020796 0.20478 0.33529 60 97 52 
0.031421 0.15011 0.34942 79 51 85 
0.03588 0.15537 0.33421 79 51 85 
0.024511 0.165 0.33421 79 51 85 
0.020052 0.15974 0.34942 79 51 85 
0.048829 0.16145 0.31927 102 56 43 
0.02515 0.16146 0.31926 102 56 43 
0.02515 0.16864 0.32352 102 56 43 
0.048829 0.16863 0.32353 102 56 43 
0.070806 0.31489 0.13134 120 44 48 
0.050414 0.31526 0.12992 120 44 48 
0.050414 0.32303 0.13198 120 44 48 
0.070806 0.32265 0.1334 120 44 48 
0.012343 0.11851 0.44383 62 44 120 
0.013535 0.11734 0.41257 62 44 120 
0.0074893 0.11116 0.41257 62 44 120 
0.0062972 0.11232 0.44383 62 44 120 
0.011243 0.16235 0.39687 60 97 52 
0.011281 0.11946 0.39687 60 97 52 
0.011261 0.11946 0.41492 60 97 52 
0.011224 0.16235 0.41491 60 97 52 
0.16072 0.25163 0.26221 102 56 43 
0.032273 0.25166 0.26215 102 56 43 
0.032273 0.23951 0.25493 102 56 43 
0.16072 0.23947 0.25499 102 56 43 
0.16287 0.24663 0.25936 44 77 106 
0.031926 0.2465 0.25928 44 77 106 
0.031926 0.25073 0.25216 44 77 106 
0.16287 0.25086 0.25224 44 77 106 
0.018311 0.16337 0.39079 60 97 52 
0.01835 0.11942 0.39079 60 97 52 
0.018323 0.11942 0.41537 60 97 52 
0.018285 0.16337 0.41537 60 97 52 
0.27428 0.11767 0.38359 44 77 106 
0.026207 0.11742 0.38344 44 77 106 
0.026207 0.11085 0.39451 44 77 106 
0.27428 0.1111 0.39466 44 77 106 
0.023353 0.16348 0.38574 60 97 52 
0.023391 0.12013 0.38574 60 97 52 
0.023367 0.12013 0.40796 60 97 52 
0.023329 0.16348 0.40796 60 97 52 
0.39223 0.17277 0.32664 102 56 43 
0.035162 0.17287 0.32647 102 56 43 
0.035162 0.15892 0.31819 102 56 43 
0.39223 0.15882 0.31836 102 56 43 
0.094791 0.24606 0.19326 102 56 43 
0.054141 0.24607 0.19324 102 56 43 
0.054141 0.24979 0.19546 102 56 43 
0.094791 0.24978 0.19547 102 56 43 
0.39617 0.1554 0.39754 102 56 43 
0.023943 0.1555 0.39737 102 56 43 
0.023943 0.11833 0.37529 102 56 43 
0.39617 0.11823 0.37547 102 56 43 
0.39523 0.20059 0.326 44 77 106 
0.028874 0.20021 0.32577 44 77 106 
0.028874 0.20687 0.31456 44 77 106 
0.39523 0.20725 0.31478 44 77 106 
0.023786 0.11217 0.45894 46 120 44 
0.016819 0.071145 0.45674 46 120 44 
0.012079 0.071145 0.47169 46 120 44 
0.019045 0.11217 0.4739 46 120 44 
0.13485 0.12131 0.38281 44 77 106 
0.028105 0.1212 0.38275 44 77 106 
0.028105 0.11725 0.38939 44 77 106 
0.13485 0.11736 0.38946 44 77 106 
0.013476 0.11306 0.46052 60 97 52 
0.013497 0.089302 0.46052 60 97 52 
0.013474 0.089302 0.48131 60 97 52 
0.013454 0.11306 0.48131 60 97 52 
0.39128 0.10528 0.43106 44 77 106 
0.02584 0.1049 0.43084 44 77 106 
0.02584 0.12612 0.3951 44 77 106 
0.39128 0.1265 0.39532 44 77 106 
0.16585 0.2432 0.27068 102 56 43 
0.050332 0.24323 0.27063 102 56 43 
0.050332 0.20807 0.24975 102 56 43 
0.16585 0.20803 0.2498 102 56 43 
0.040311 0.1539 0.38461 61 97 52 
0.028308 0.1535 0.38383 61 97 52 
0.028308 0.16169 0.37972 61 97 52 
0.040311 0.16209 0.38051 61 97 52 
0.16472 0.21025 0.2577 97 83 52 
0.051525 0.20664 0.25288 97 83 52 
0.051525 0.20155 0.25669 97 83 52 
0.16472 0.20516 0.26151 97 83 52 
0.018366 0.11102 0.47627 97 52 62 
0.0089751 0.074745 0.47073 97 52 62 
0.022134 0.074745 0.44844 97 52 62 
0.031525 0.11102 0.45398 97 52 62 
0.25725 0.11826 0.43828 44 77 106 
0.019899 0.11802 0.43813 44 77 106 
0.019899 0.10854 0.4541 44 77 106 
0.25725 0.10878 0.45424 44 77 106 
0.058088 0.15979 0.33539 44 77 106 
0.055652 0.16288 0.32694 44 77 106 
0.045318 0.15472 0.32694 44 77 106 
0.047754 0.15163 0.33539 44 77 106 
0.011377 0.03963 0.54281 90 106 44 
0.016356 0.04195 0.52098 90 106 44 
0.024363 0.024769 0.52098 90 106 44 
0.019385 0.022449 0.54281 90 106 44 
0.034359 0.074014 0.44848 102 56 43 
0.02596 0.074017 0.44847 102 56 43 
0.02596 0.087491 0.45647 102 56 43 
0.034359 0.087489 0.45648 102 56 43 
0.03566 0.027096 0.50976 102 56 43 
0.022971 0.027099 0.50976 102 56 43 
0.022971 0.056409 0.52716 102 56 43 
0.03566 0.056406 0.52717 102 56 43 
0.27929 0.064719 0.52572 102 56 43 
0.021838 0.06479 0.5256 102 56 43 
0.021838 0.024699 0.50179 102 56 43 
0.27929 0.024628 0.50191 102 56 43 
0.097056 0.12906 0.37615 102 56 43 
0.034722 0.12908 0.37613 102 56 43 
0.034722 0.15643 0.39237 102 56 43 
0.097056 0.15642 0.3924 102 56 43 
0.2064 0.15728 0.38453 44 77 106 
0.035325 0.15711 0.38442 44 77 106 
0.035325 0.16138 0.37723 44 77 106 
0.2064 0.16155 0.37734 44 77 106 
0.080611 0.25013 0.2074 44 77 106 
0.062106 0.25011 0.20739 44 77 106 
0.062106 0.2452 0.21566 44 77 106 
0.080611 0.24522 0.21567 44 77 106 
0.38894 0.069439 0.43818 102 56 43 
0.027622 0.069539 0.43801 102 56 43 
0.027622 0.11071 0.46246 102 56 43 
0.38894 0.11061 0.46262 102 56 43 
0.39288 0.14962 0.36878 44 77 106 
0.041086 0.14925 0.36857 44 77 106 
0.041086 0.17136 0.33134 44 77 106 
0.39288 0.17172 0.33155 44 77 106 
0.077111 0.10975 0.45451 106 75 44 
0.029524 0.10911 0.45715 106 75 44 
0.029524 0.094282 0.45354 106 75 44 
0.077111 0.094924 0.45091 106 75 44 
0.076944 0.25698 0.19491 124 83 45 
0.068082 0.25741 0.19408 124 83 45 
0.068082 0.25014 0.19037 124 83 45 
0.076944 0.24971 0.1912 124 83 45 
0.078754 0.059127 0.52049 102 56 43 
0.026648 0.059141 0.52047 102 56 43 
0.026648 0.037696 0.50773 102 56 43 
0.078754 0.037681 0.50776 102 56 43 
0.080939 0.068338 0.45099 124 45 123 
0.040386 0.078164 0.45683 124 45 123 
0.040386 0.073002 0.46552 124 45 123 
0.080939 0.063176 0.45968 124 45 123 
0.051971 0.1207 0.38451 102 56 43 
0.044594 0.1207 0.38451 102 56 43 
0.044594 0.12898 0.38943 102 56 43 
0.051971 0.12898 0.38943 102 56 43 
0.39584 0.20032 0.33248 102 56 43 
0.048963 0.20042 0.33232 102 56 43 
0.048963 0.16503 0.3113 102 56 43 
0.39584 0.16493 0.31146 102 56 43 
0.035209 0.11132 0.45195 60 97 52 
0.035223 0.095451 0.45195 60 97 52 
0.035215 0.095451 0.45991 60 97 52 
0.035201 0.11132 0.45991 60 97 52 
0.17055 0.11499 0.4439 44 77 106 
0.031513 0.11485 0.44381 44 77 106 
0.031513 0.10683 0.45732 44 77 106 
0.17055 0.10697 0.45741 44 77 106 
0.16575 0.15244 0.38828 45 94 124 
0.040453 0.15164 0.38584 45 94 124 
0.040453 0.16056 0.38291 45 94 124 
0.16575 0.16136 0.38536 45 94 124 
0.096254 0.20791 0.28399 44 77 106 
0.055049 0.20787 0.28396 44 77 106 
0.055049 0.19924 0.2985 44 77 106 
0.096254 0.19928 0.29853 44 77 106 
0.046872 0.025376 0.51143 78 51 85 
0.02899 0.028455 0.50625 78 51 85 
0.02899 0.049056 0.51849 78 51 85 
0.046872 0.045977 0.52367 78 51 85 
0.16355 0.20605 0.32318 102 56 43 
0.052042 0.20608 0.32313 102 56 43 
0.052042 0.1954 0.31678 102 56 43 
0.16355 0.19536 0.31684 102 56 43 
0.073103 0.064064 0.51812 44 77 106 
0.037083 0.064027 0.51809 44 77 106 
0.037083 0.06764 0.51201 44 77 106 
0.073103 0.067677 0.51203 44 77 106 
0.1739 0.023543 0.50504 102 56 43 
0.043001 0.02358 0.50498 102 56 43 
0.043001 0.057968 0.5254 102 56 43 
0.1739 0.057932 0.52546 102 56 43 
0.072534 0.12076 0.38178 51 82 85 
0.06197 0.12076 0.38178 51 82 85 
0.06197 0.13058 0.39132 51 82 85 
0.072534 0.13058 0.39132 51 82 85 
0.091528 0.061718 0.51113 102 56 43 
0.047707 0.06173 0.51111 102 56 43 
0.047707 0.068711 0.51526 102 56 43 
0.091528 0.068699 0.51528 102 56 43 
0.062438 0.10114 0.452 102 56 43 
0.054239 0.10114 0.452 102 56 43 
0.054239 0.10945 0.45693 102 56 43 
0.062438 0.10944 0.45693 102 56 43 
0.10826 0.21281 0.25281 102 56 43 
0.07778 0.21282 0.2528 102 56 43 
0.07778 0.23086 0.26351 102 56 43 
0.10826 0.23085 0.26352 102 56 43 
0.12159 0.079027 0.46488 44 77 106 
0.055367 0.07896 0.46484 44 77 106 
0.055367 0.057931 0.50025 44 77 106 
0.12159 0.057999 0.50029 44 77 106 
0.16406 0.28643 0.2055 102 56 43 
0.093669 0.28645 0.20547 102 56 43 
0.093669 0.25243 0.18526 102 56 43 
0.16406 0.25241 0.18529 102 56 43 
0.089956 0.19342 0.31876 107 63 89 
0.079456 0.19341 0.31877 107 63 89 
0.079456 0.19864 0.32575 107 63 89 
0.089956 0.19864 0.32575 107 63 89 
0.39449 0.25323 0.19787 102 56 43 
0.095618 0.25331 0.19773 102 56 43 
0.095618 0.24594 0.19336 102 56 43 
0.39449 0.24586 0.1935 102 56 43 
0.13268 0.12594 0.38381 102 56 43 
0.076042 0.12712 0.38181 102 56 43 
0.076042 0.13776 0.38813 102 56 43 
0.13268 0.13658 0.39012 102 56 43 
0.14621 0.24907 0.19717 83 85 51 
0.09685 0.24904 0.19718 83 85 51 
0.09685 0.24807 0.1939 83 85 51 
0.14621 0.2481 0.19389 83 85 51 
0.13048 0.17864 0.32242 102 56 43 
0.088603 0.17865 0.3224 102 56 43 
0.088603 0.16997 0.31724 102 56 43 
0.13048 0.16996 0.31726 102 56 43 
0.13717 0.25049 0.20848 44 77 106 
0.099177 0.25045 0.20845 44 77 106 
0.099177 0.24668 0.2148 44 77 106 
0.13717 0.24672 0.21482 44 77 106 
0.13253 0.012597 0.94674 44 77 106 
0.0087261 0.0032393 0.94118 44 77 106 
0.0087261 0.009913 0.92994 44 77 106 
0.13253 0.019271 0.9355 44 77 106 
0.1262 0.11808 0.38504 44 77 106 
0.094341 0.11805 0.38502 44 77 106 
0.094341 0.11386 0.39207 44 77 106 
0.1262 0.1139 0.39209 44 77 106 
0.39101 0.29682 0.1994 102 56 43 
0.10437 0.2969 0.19927 102 56 43 
0.10437 0.28953 0.19489 102 56 43 
0.39101 0.28945 0.19502 102 56 43 
0.11793 0.11311 0.45858 102 56 43 
0.093404 0.11312 0.45857 102 56 43 
0.093404 0.089369 0.44447 102 56 43 
0.11793 0.089362 0.44448 102 56 43 
0.11233 0.1701 0.32288 44 77 106 
0.10537 0.17009 0.32288 44 77 106 
0.10537 0.17353 0.31709 44 77 106 
0.11233 0.17354 0.3171 44 77 106 
0.11027 0.068246 0.51457 102 56 43 
0.092753 0.06825 0.51456 102 56 43 
0.092753 0.061517 0.51056 102 56 43 
0.11027 0.061512 0.51057 102 56 43 
0.12405 0.023773 0.51882 44 77 106 
0.10253 0.023751 0.51881 44 77 106 
0.10253 0.029417 0.50927 44 77 106 
0.12405 0.029439 0.50928 44 77 106 
0.15917 0.22352 0.26078 102 56 43 
0.11986 0.22353 0.26076 102 56 43 
0.11986 0.2162 0.25641 102 56 43 
0.15917 0.21619 0.25643 102 56 43 
0.13549 0.25309 0.23431 44 77 106 
0.12206 0.25308 0.2343 44 77 106 
0.12206 0.24636 0.24562 44 77 106 
0.13549 0.24637 0.24563 44 77 106 
0.17289 0.068719 0.44522 102 56 43 
0.12068 0.068733 0.4452 102 56 43 
0.12068 0.090709 0.45825 102 56 43 
0.17289 0.090694 0.45827 102 56 43 
0.15925 0.17088 0.31905 102 56 43 
0.1301 0.17089 0.31903 102 56 43 
0.1301 0.18177 0.3255 102 56 43 
0.15925 0.18176 0.32551 102 56 43 
0.38927 0.29405 0.20066 102 56 43 
0.13511 0.29412 0.20054 102 56 43 
0.13511 0.28432 0.19472 102 56 43 
0.38927 0.28425 0.19484 102 56 43 
0.14797 0.3443 0.12105 44 77 106 
0.1365 0.34429 0.12104 44 77 106 
0.1365 0.3387 0.13046 44 77 106 
0.14797 0.33871 0.13047 44 77 106 
0.20487 0.06925 0.50999 44 77 106 
0.12936 0.069172 0.50995 44 77 106 
0.12936 0.064928 0.51709 44 77 106 
0.20487 0.065005 0.51714 44 77 106 
0.16217 0.1333 0.38148 102 56 43 
0.13887 0.13331 0.38147 102 56 43 
0.13887 0.14917 0.39089 102 56 43 
0.16217 0.14916 0.3909 102 56 43 
0.29008 0.15722 0.39338 44 77 106 
0.14003 0.15127 0.38987 44 77 106 
0.14003 0.15681 0.38046 44 77 106 
0.29008 0.16276 0.38396 44 77 106 
0.14829 0.039202 0.51064 102 55 43 
0.15082 0.025311 0.50979 102 55 43 
0.15376 0.025311 0.51848 102 55 43 
0.15124 0.039202 0.51934 102 55 43 
0.19499 0.24583 0.25511 73 43 102 
0.14451 0.24582 0.25511 73 43 102 
0.14451 0.2499 0.26227 73 43 102 
0.19499 0.24991 0.26226 73 43 102 
0.39414 0.26876 0.20358 102 56 43 
0.14986 0.26883 0.20347 102 56 43 
0.14986 0.2491 0.19175 102 56 43 
0.39414 0.24903 0.19187 102 56 43 
0.16043 0.29682 0.12895 102 56 43 
0.15144 0.29682 0.12894 102 56 43 
0.15144 0.30101 0.13143 102 56 43 
0.16043 0.30101 0.13143 102 56 43 
0.19041 0.2466 0.19641 44 77 106 
0.15282 0.24657 0.19638 44 77 106 
0.15282 0.24869 0.1928 44 77 106 
0.19041 0.24873 0.19283 44 77 106 
0.16597 0.11758 0.38933 44 77 106 
0.1545 0.11757 0.38932 44 77 106 
0.1545 0.12108 0.38341 44 77 106 
0.16597 0.12109 0.38342 44 77 106 
0.15649 0.13197 0.38343 43 102 76 
0.1584 0.12421 0.38242 43 102 76 
0.16211 0.12421 0.38944 43 102 76 
0.1602 0.13197 0.39045 43 102 76 
0.21007 0.071031 0.50242 44 77 106 
0.16274 0.070982 0.50239 44 77 106 
0.16274 0.067476 0.5083 44 77 106 
0.21007 0.067525 0.50832 44 77 106 
0.23582 0.10056 0.45389 102 56 43 
0.16808 0.10058 0.45386 102 56 43 
0.16808 0.075772 0.43912 102 56 43 
0.23582 0.075754 0.43915 102 56 43 
0.22892 0.027453 0.4991 102 56 43 
0.16396 0.027471 0.49907 102 56 43 
0.16396 0.06293 0.52012 102 56 43 
0.22892 0.062912 0.52015 102 56 43 
0.39303 0.29897 0.1342 102 56 43 
0.16272 0.29903 0.1341 102 56 43 
0.16272 0.29148 0.12961 102 56 43 
0.39303 0.29141 0.12972 102 56 43 
0.21533 0.20693 0.25505 44 77 106 
0.16579 0.20688 0.25502 44 77 106 
0.16579 0.20336 0.26094 44 77 106 
0.21533 0.20341 0.26097 44 77 106 
0.25538 0.29088 0.13059 102 56 43 
0.16488 0.2909 0.13055 102 56 43 
0.16488 0.29672 0.134 102 56 43 
0.25538 0.29669 0.13404 102 56 43 
0.17257 0.18114 0.31533 60 97 52 
0.17258 0.16119 0.31533 60 97 52 
0.17258 0.16119 0.32333 60 97 52 
0.17256 0.18114 0.32333 60 97 52 
0.16935 0.20489 0.31853 60 97 52 
0.16935 0.19476 0.31853 60 97 52 
0.16935 0.19476 0.32549 60 97 52 
0.16934 0.20489 0.32549 60 97 52 
0.18818 0.057308 0.5098 107 63 90 
0.17984 0.026709 0.50426 107 63 90 
0.17143 0.026709 0.51694 107 63 90 
0.17977 0.057308 0.52248 107 63 90 
0.2341 0.33266 0.13024 102 56 43 
0.16441 0.33268 0.13021 102 56 43 
0.16441 0.33781 0.13325 102 56 43 
0.2341 0.33779 0.13328 102 56 43 
0.18314 0.041186 0.50777 63 70 107 
0.17976 0.025643 0.50629 63 70 107 
0.17407 0.025643 0.51924 63 70 107 
0.17745 0.041186 0.52073 63 70 107 
0.1996 0.20457 0.31956 102 56 43 
0.17028 0.20458 0.31955 102 56 43 
0.17028 0.20093 0.31738 102 56 43 
0.1996 0.20092 0.31739 102 56 43 
0.21445 0.06532 0.44925 97 83 52 
0.17844 0.064241 0.44778 97 83 52 
0.17844 0.071384 0.44254 97 83 52 
0.21445 0.072463 0.44401 97 83 52 
0.20786 0.23029 0.25773 102 56 43 
0.17184 0.2303 0.25771 102 56 43 
0.17184 0.22149 0.25248 102 56 43 
0.20786 0.22148 0.25249 102 56 43 
0.26148 0.16141 0.32723 102 56 43 
0.18145 0.16144 0.32719 102 56 43 
0.18145 0.15847 0.32543 102 56 43 
0.26148 0.15845 0.32547 102 56 43 
0.19564 0.062847 0.52361 85 107 63 
0.20472 0.031524 0.51223 85 107 63 
0.18783 0.031524 0.49875 85 107 63 
0.17874 0.062847 0.51013 85 107 63 
0.21067 0.18305 0.32337 102 56 43 
0.17797 0.18306 0.32336 102 56 43 
0.17797 0.17395 0.31795 102 56 43 
0.21067 0.17394 0.31796 102 56 43 
0.39506 0.24589 0.27235 102 56 43 
0.17731 0.24595 0.27225 102 56 43 
0.17731 0.20696 0.24909 102 56 43 
0.39506 0.2069 0.24919 102 56 43 
0.20843 0.069593 0.44641 44 77 106 
0.18662 0.069571 0.4464 44 77 106 
0.18662 0.073536 0.43972 44 77 106 
0.20843 0.073558 0.43974 44 77 106 
0.32756 0.11319 0.38829 44 77 106 
0.18347 0.11485 0.38927 44 77 106 
0.18347 0.12068 0.37944 44 77 106 
0.32756 0.11903 0.37846 44 77 106 
0.2929 0.15583 0.39369 102 56 43 
0.18086 0.15586 0.39363 102 56 43 
0.18086 0.12273 0.37396 102 56 43 
0.2929 0.1227 0.37401 102 56 43 
0.39332 0.10718 0.45941 102 56 43 
0.18348 0.10724 0.45932 102 56 43 
0.18348 0.073964 0.43955 102 56 43 
0.39332 0.073905 0.43965 102 56 43 
0.39367 0.20833 0.26429 102 56 43 
0.18065 0.20839 0.26419 102 56 43 
0.18065 0.20167 0.2602 102 56 43 
0.39367 0.20161 0.2603 102 56 43 
0.19232 0.22907 0.25766 60 97 52 
0.1792 0.22933 0.25702 60 97 52 
0.1792 0.22043 0.25344 60 97 52 
0.19232 0.22017 0.25408 60 97 52 
0.38707 0.20413 0.32781 51 82 85 
0.18125 0.20682 0.32474 51 82 85 
0.18125 0.20027 0.319 51 82 85 
0.38707 0.19758 0.32207 51 82 85 
0.38646 0.24923 0.26457 44 77 106 
0.17906 0.24562 0.26294 44 77 106 
0.17906 0.24927 0.25486 44 77 106 
0.38646 0.25289 0.25649 44 77 106 
0.1963 0.34025 0.12633 44 77 106 
0.17619 0.34023 0.12631 44 77 106 
0.17619 0.33846 0.12929 44 77 106 
0.1963 0.33848 0.12931 44 77 106 
0.25499 0.11604 0.44328 124 83 45 
0.18806 0.11598 0.4432 124 83 45 
0.18806 0.10988 0.44777 124 83 45 
0.25499 0.10994 0.44785 124 83 45 
0.18625 0.33977 0.083072 44 77 106 
0.17775 0.33976 0.083067 44 77 106 
0.17775 0.33679 0.088082 44 77 106 
0.18625 0.33679 0.088087 44 77 106 
0.2484 0.2604 0.18808 102 56 43 
0.18638 0.26042 0.18805 102 56 43 
0.18638 0.28555 0.20298 102 56 43 
0.2484 0.28554 0.20301 102 56 43 
0.20096 0.26611 0.1952 102 56 43 
0.18997 0.26611 0.1952 102 56 43 
0.18997 0.25865 0.19077 102 56 43 
0.20096 0.25865 0.19077 102 56 43 
0.39436 0.067332 0.52331 102 56 43 
0.20852 0.067384 0.52322 102 56 43 
0.20852 0.030891 0.50155 102 56 43 
0.39436 0.030839 0.50164 102 56 43 
0.26013 0.25685 0.21686 44 77 106 
0.19679 0.25678 0.21682 44 77 106 
0.19679 0.24066 0.24397 44 77 106 
0.26013 0.24072 0.24401 44 77 106 
0.24325 0.039954 0.51888 79 51 85 
0.22656 0.044309 0.51156 79 51 85 
0.22656 0.032257 0.50439 79 51 85 
0.24325 0.027902 0.51172 79 51 85 
0.39718 0.21206 0.25115 102 56 43 
0.21072 0.21211 0.25106 102 56 43 
0.21072 0.24174 0.26866 102 56 43 
0.39718 0.24169 0.26875 102 56 43 
0.26586 0.069765 0.45142 44 77 106 
0.22781 0.069941 0.45153 44 77 106 
0.22781 0.077256 0.43921 44 77 106 
0.26586 0.07708 0.4391 44 77 106 
0.3968 0.35698 0.083411 44 77 106 
0.21204 0.35679 0.083298 44 77 106 
0.21204 0.33161 0.12571 44 77 106 
0.3968 0.3318 0.12582 44 77 106 
0.39604 0.19797 0.32838 102 56 43 
0.23282 0.19584 0.33236 102 56 43 
0.23282 0.1736 0.32049 102 56 43 
0.39604 0.17573 0.3165 102 56 43 
0.37078 0.20351 0.25909 102 56 43 
0.22875 0.20355 0.25902 102 56 43 
0.22875 0.20975 0.2627 102 56 43 
0.37078 0.20971 0.26277 102 56 43 
0.39478 0.25207 0.20142 102 56 43 
0.22318 0.25212 0.20134 102 56 43 
0.22318 0.24703 0.19831 102 56 43 
0.39478 0.24698 0.19839 102 56 43 
0.38994 0.1115 0.46218 44 77 106 
0.2462 0.10064 0.45573 44 77 106 
0.2462 0.1098 0.44031 44 77 106 
0.38994 0.12066 0.44676 44 77 106 
0.27828 0.05223 0.51862 102 56 43 
0.25513 0.052236 0.51861 102 56 43 
0.25513 0.030505 0.5057 102 56 43 
0.27828 0.030499 0.50571 102 56 43 
0.27993 0.066312 0.45375 44 77 106 
0.25031 0.066282 0.45374 44 77 106 
0.25031 0.071305 0.44528 44 77 106 
0.27993 0.071335 0.4453 44 77 106 
0.39599 0.33946 0.13691 102 56 43 
0.21846 0.33951 0.13683 102 56 43 
0.21846 0.32872 0.13043 102 56 43 
0.39599 0.32867 0.13051 102 56 43 
0.39412 0.29648 0.1367 107 63 89 
0.22176 0.2968 0.13646 107 63 89 
0.22176 0.29215 0.13026 107 63 89 
0.39412 0.29183 0.1305 107 63 89 
0.39539 0.25499 0.26148 102 56 43 
0.23936 0.25503 0.26141 102 56 43 
0.23936 0.24814 0.25731 102 56 43 
0.39539 0.24809 0.25739 102 56 43 
0.23469 0.32654 0.1338 102 56 43 
0.22721 0.32654 0.13379 102 56 43 
0.22721 0.31667 0.12793 102 56 43 
0.23469 0.31667 0.12793 102 56 43 
0.32423 0.040469 0.51555 102 56 43 
0.27515 0.040482 0.51553 102 56 43 
0.27515 0.030511 0.50961 102 56 43 
0.32423 0.030498 0.50963 102 56 43 
0.29884 0.1026 0.4513 102 56 43 
0.27111 0.10261 0.45129 102 56 43 
0.27111 0.09287 0.4455 102 56 43 
0.29884 0.092862 0.44551 102 56 43 
0.28351 0.058249 0.51946 102 55 43 
0.28644 0.036992 0.51875 102 55 43 
0.28262 0.036992 0.50306 102 55 43 
0.2797 0.058249 0.50377 102 55 43 
0.28594 0.0539 0.52289 120 44 48 
0.2891 0.056552 0.51211 120 44 48 
0.29968 0.043946 0.51211 120 44 48 
0.29652 0.041295 0.52289 120 44 48 
0.32546 0.11661 0.38684 44 77 106 
0.27593 0.11656 0.38681 44 77 106 
0.27593 0.11318 0.39251 44 77 106 
0.32546 0.11323 0.39254 44 77 106 
0.33804 0.035462 0.50726 102 56 43 
0.29678 0.035473 0.50724 102 56 43 
0.29678 0.064308 0.52436 102 56 43 
0.33804 0.064297 0.52438 102 56 43 
0.24675 0.34143 0.080902 44 77 106 
0.23877 0.34142 0.080897 44 77 106 
0.23877 0.33653 0.089122 44 77 106 
0.24675 0.33654 0.089127 44 77 106 
0.28249 0.30134 0.1241 102 56 43 
0.24543 0.30135 0.12408 102 56 43 
0.24543 0.32679 0.13918 102 56 43 
0.28249 0.32678 0.1392 102 56 43 
0.36399 0.15506 0.38174 107 63 89 
0.28377 0.15805 0.38107 107 63 89 
0.28377 0.16019 0.39055 107 63 89 
0.36399 0.15721 0.39123 107 63 89 
0.30768 0.10017 0.45582 57 57 57 
0.30448 0.10267 0.4447 57 57 57 
0.29241 0.087231 0.4447 57 57 57 
0.29561 0.084729 0.45582 57 57 57 
0.32926 0.15595 0.38954 120 44 48 
0.28841 0.15337 0.39253 120 44 48 
0.28841 0.14532 0.3856 120 44 48 
0.32926 0.1479 0.3826 120 44 48 
0.39293 0.15635 0.38728 44 77 106 
0.28886 0.15625 0.38721 44 77 106 
0.28886 0.16065 0.37979 44 77 106 
0.39293 0.16076 0.37985 44 77 106 
0.387 0.05754 0.52468 62 44 120 
0.31179 0.057768 0.52487 62 44 120 
0.31179 0.068706 0.51172 62 44 120 
0.387 0.068478 0.51153 62 44 120 
0.31141 0.090508 0.45829 60 97 52 
0.31176 0.090524 0.44665 60 97 52 
0.31127 0.10057 0.44665 60 97 52 
0.31092 0.10056 0.45829 60 97 52 
0.39159 0.15871 0.33089 44 77 106 
0.29356 0.15861 0.33083 44 77 106 
0.29356 0.16033 0.32793 44 77 106 
0.39159 0.16043 0.32799 44 77 106 
0.2943 0.25593 0.22502 44 77 106 
0.27538 0.25591 0.22501 44 77 106 
0.27538 0.24454 0.24417 44 77 106 
0.2943 0.24456 0.24418 44 77 106 
0.39109 0.072297 0.45687 44 77 106 
0.30805 0.066021 0.45314 44 77 106 
0.30805 0.070278 0.44597 44 77 106 
0.39109 0.076554 0.4497 44 77 106 
0.38981 0.10973 0.45538 44 77 106 
0.30731 0.10964 0.45533 44 77 106 
0.30731 0.11568 0.44515 44 77 106 
0.38981 0.11577 0.44521 44 77 106 
0.34209 0.054302 0.51681 102 56 43 
0.32386 0.054307 0.5168 102 56 43 
0.32386 0.037195 0.50664 102 56 43 
0.34209 0.03719 0.50665 102 56 43 
0.33173 0.13878 0.3809 102 56 43 
0.30537 0.13879 0.38089 102 56 43 
0.30537 0.15568 0.39092 102 56 43 
0.33173 0.15567 0.39093 102 56 43 
0.36088 0.12903 0.38955 102 56 43 
0.30976 0.12904 0.38953 102 56 43 
0.30976 0.11561 0.38155 102 56 43 
0.36088 0.1156 0.38157 102 56 43 
0.29926 0.33945 0.076601 107 63 89 
0.26281 0.33878 0.076756 107 63 89 
0.26281 0.34052 0.084402 107 63 89 
0.29926 0.3412 0.084247 107 63 89 
0.3883 0.063626 0.52165 44 77 106 
0.34285 0.062766 0.52133 44 77 106 
0.34285 0.066764 0.51046 44 77 106 
0.3883 0.067624 0.51078 44 77 106 
0.36433 0.03976 0.51194 102 56 43 
0.34385 0.039766 0.51193 102 56 43 
0.34385 0.053542 0.52011 102 56 43 
0.36433 0.053537 0.52012 102 56 43 
0.38108 0.066775 0.46439 44 77 106 
0.33302 0.064973 0.46372 44 77 106 
0.33302 0.069264 0.45218 44 77 106 
0.38108 0.071066 0.45285 44 77 106 
0.38811 0.064926 0.51625 44 77 106 
0.34423 0.064881 0.51623 44 77 106 
0.34423 0.070915 0.50606 44 77 106 
0.38811 0.07096 0.50609 44 77 106 
0.27656 0.343 0.10001 44 77 106 
0.27034 0.34299 0.10001 44 77 106 
0.27034 0.33831 0.10788 44 77 106 
0.27656 0.33832 0.10789 44 77 106 
0.33774 0.10193 0.44466 60 97 52 
0.33776 0.088441 0.44466 60 97 52 
0.33774 0.088441 0.45612 60 97 52 
0.33773 0.10193 0.45612 60 97 52 
0.38862 0.061135 0.51569 102 56 43 
0.35939 0.061143 0.51568 102 56 43 
0.35939 0.050641 0.50944 102 56 43 
0.38862 0.050633 0.50945 102 56 43 
0.38233 0.11359 0.39277 44 77 106 
0.33914 0.11354 0.39275 44 77 106 
0.33914 0.11675 0.38734 44 77 106 
0.38233 0.11679 0.38737 44 77 106 
0.3838 0.12511 0.39099 102 56 43 
0.34038 0.12512 0.39097 102 56 43 
0.34038 0.1134 0.38401 102 56 43 
0.3838 0.11339 0.38403 102 56 43 
0.3326 0.30351 0.12399 102 56 43 
0.29001 0.30352 0.12397 102 56 43 
0.29001 0.3301 0.13975 102 56 43 
0.3326 0.33008 0.13977 102 56 43 
0.39093 0.042063 0.51412 44 77 106 
0.37264 0.042045 0.51411 44 77 106 
0.37264 0.047229 0.50538 44 77 106 
0.39093 0.047247 0.50539 44 77 106 
0.39357 0.11666 0.38892 44 77 106 
0.35664 0.11663 0.38889 44 77 106 
0.35664 0.11289 0.39518 44 77 106 
0.39357 0.11293 0.39521 44 77 106 
0.34468 0.25217 0.2352 44 77 106 
0.32383 0.25215 0.23518 44 77 106 
0.32383 0.24851 0.24131 44 77 106 
0.34468 0.24853 0.24133 44 77 106 
0.39496 0.12158 0.37654 102 56 43 
0.35545 0.12159 0.37652 102 56 43 
0.35545 0.15296 0.39515 102 56 43 
0.39496 0.15295 0.39517 102 56 43 
0.39003 0.16117 0.39049 102 56 43 
0.35699 0.16118 0.39047 102 56 43 
0.35699 0.15163 0.3848 102 56 43 
0.39003 0.15162 0.38481 102 56 43 
0.37926 0.095838 0.46029 46 120 44 
0.38263 0.093844 0.45009 46 120 44 
0.38917 0.10488 0.45009 46 120 44 
0.3858 0.10687 0.46029 46 120 44 
0.42914 0.04891 0.568 102 56 43 
0.41143 0.048915 0.56799 102 56 43 
0.41143 0.072556 0.58203 102 56 43 
0.42914 0.072551 0.58204 102 56 43 
0.42757 0.074595 0.57988 102 56 43 
0.41457 0.074598 0.57987 102 56 43 
0.41457 0.067093 0.57542 102 56 43 
0.42757 0.067089 0.57542 102 56 43 
0.42786 0.057279 0.57299 44 77 106 
0.41682 0.056444 0.5725 44 77 106 
0.41682 0.050709 0.58216 44 77 106 
0.42786 0.051543 0.58265 44 77 106 
0.4297 0.052506 0.5684 61 97 52 
0.4275 0.043059 0.56598 61 97 52 
0.41994 0.043058 0.57281 61 97 52 
0.42213 0.052506 0.57524 61 97 52 
0.39942 0.080063 0.45055 102 56 43 
0.39174 0.080065 0.45055 102 56 43 
0.39174 0.099965 0.46237 102 56 43 
0.39942 0.099963 0.46237 102 56 43 
0.40397 0.11258 0.48531 102 55 43 
0.40808 0.088007 0.48406 102 55 43 
0.39848 0.088007 0.45265 102 55 43 
0.39437 0.11258 0.45391 102 55 43 
0.40774 0.093867 0.46933 102 56 43 
0.39674 0.09387 0.46933 102 56 43 
0.39674 0.075478 0.45841 102 56 43 
0.40774 0.075475 0.45841 102 56 43 
0.32869 0.30032 0.13351 44 77 106 
0.31837 0.29954 0.13304 44 77 106 
0.31837 0.30052 0.1314 44 77 106 
0.32869 0.3013 0.13186 44 77 106 
0.39791 0.066776 0.45342 97 83 52 
0.39487 0.042165 0.45111 97 83 52 
0.40319 0.042165 0.44016 97 83 52 
0.40623 0.066776 0.44247 97 83 52 
0.66731 0.26383 0.91295 44 77 106 
0.54224 0.25437 0.90734 44 77 106 
0.54224 0.20936 0.98316 44 77 106 
0.66731 0.21881 0.98878 44 77 106 
0.67048 0.22142 0.91524 44 77 106 
0.54023 0.21157 0.90939 44 77 106 
0.54023 0.16179 0.99324 44 77 106 
0.67048 0.17164 0.99908 44 77 106 
0.57538 0.12124 0.94489 44 77 106 
0.54028 0.11859 0.94332 44 77 106 
0.54028 0.13774 0.91106 44 77 106 
0.57538 0.14039 0.91263 44 77 106 
0.3772 0.26388 0.19173 102 56 43 
0.34343 0.26389 0.19171 102 56 43 
0.34343 0.28307 0.2031 102 56 43 
0.3772 0.28306 0.20312 102 56 43 
0.46852 0.083585 0.56642 97 52 62 
0.43454 0.078566 0.56917 97 52 62 
0.43454 0.050586 0.51803 97 52 62 
0.46852 0.055604 0.51529 97 52 62 
0.62218 0.13153 0.89146 44 77 106 
0.54941 0.12603 0.88819 44 77 106 
0.54941 0.1088 0.91721 44 77 106 
0.62218 0.1143 0.92048 44 77 106 
0.40758 0.089727 0.40327 57 57 57 
0.40386 0.092454 0.39012 57 57 57 
0.39659 0.082536 0.39012 57 57 57 
0.40031 0.079809 0.40327 57 57 57 
0.39529 0.25953 0.22197 44 77 106 
0.36802 0.25002 0.21633 44 77 106 
0.36802 0.23679 0.23861 44 77 106 
0.39529 0.2463 0.24425 44 77 106 
0.46904 0.086126 0.57188 107 63 89 
0.45172 0.086124 0.57188 107 63 89 
0.45172 0.07507 0.55711 107 63 89 
0.46904 0.075072 0.5571 107 63 89 
0.61674 0.13814 0.90276 44 77 106 
0.56507 0.13423 0.90045 44 77 106 
0.56507 0.11438 0.93388 44 77 106 
0.61674 0.11829 0.9362 44 77 106 
0.40655 0.098807 0.37557 44 77 106 
0.39901 0.098799 0.37557 44 77 106 
0.39901 0.095706 0.38078 44 77 106 
0.40655 0.095714 0.38078 44 77 106 
0.65868 0.32106 0.90421 44 77 106 
0.58428 0.31543 0.90088 44 77 106 
0.58428 0.29499 0.9353 44 77 106 
0.65868 0.30062 0.93864 44 77 106 
0.61018 0.1729 0.91748 44 77 106 
0.58598 0.17107 0.91639 44 77 106 
0.58598 0.15318 0.94653 44 77 106 
0.61018 0.15501 0.94761 44 77 106 
0.3969 0.21196 0.27433 44 77 106 
0.3833 0.21195 0.27432 44 77 106 
0.3833 0.19518 0.30257 44 77 106 
0.3969 0.19519 0.30257 44 77 106 
0.63705 0.26034 0.92821 44 77 106 
0.59708 0.25731 0.92642 44 77 106 
0.59708 0.23774 0.95939 44 77 106 
0.63705 0.24076 0.96118 44 77 106 
0.49221 0.055545 0.52521 107 63 89 
0.4516 0.05803 0.52343 107 63 89 
0.4516 0.047893 0.50931 107 63 89 
0.49221 0.045408 0.51109 107 63 89 
0.64382 0.17529 0.90339 44 77 106 
0.59151 0.17133 0.90104 44 77 106 
0.59151 0.15266 0.93249 44 77 106 
0.64382 0.15662 0.93484 44 77 106 
0.65868 0.35372 0.95155 44 77 106 
0.60798 0.34988 0.94928 44 77 106 
0.60798 0.37256 0.91109 44 77 106 
0.65868 0.37639 0.91337 44 77 106 
0.4054 0.075095 0.31592 44 77 106 
0.39948 0.075089 0.31592 44 77 106 
0.39948 0.06263 0.3369 44 77 106 
0.4054 0.062636 0.3369 44 77 106 
0.50718 0.080248 0.53916 102 56 43 
0.46137 0.080261 0.53914 102 56 43 
0.46137 0.041898 0.51636 102 56 43 
0.50718 0.041885 0.51638 102 56 43 
0.50481 0.084751 0.55025 90 106 44 
0.47508 0.080451 0.5575 90 106 44 
0.47508 0.058419 0.54443 90 106 44 
0.50481 0.062719 0.53719 90 106 44 
0.66478 0.21692 0.90412 44 77 106 
0.61995 0.21353 0.90211 44 77 106 
0.61995 0.1913 0.93956 44 77 106 
0.66478 0.19469 0.94157 44 77 106 
0.41062 0.20611 0.26303 102 56 43 
0.39206 0.20611 0.26302 102 56 43 
0.39206 0.24064 0.28353 102 56 43 
0.41062 0.24063 0.28354 102 56 43 
0.50402 0.063348 0.53106 106 75 44 
0.48569 0.056883 0.53766 106 75 44 
0.48569 0.073227 0.55367 106 75 44 
0.50402 0.079692 0.54708 106 75 44 
0.40132 0.16485 0.29021 124 83 45 
0.4072 0.16828 0.2675 124 83 45 
0.40208 0.17706 0.2675 124 83 45 
0.3962 0.17363 0.29021 124 83 45 
0.39899 0.22719 0.27618 124 45 123 
0.4019 0.20659 0.27545 124 45 123 
0.39887 0.20659 0.26335 124 45 123 
0.39596 0.22719 0.26408 124 45 123 
0.40774 0.092713 0.30158 120 44 48 
0.40382 0.096167 0.28825 120 44 48 
0.39747 0.088962 0.28825 120 44 48 
0.4014 0.085509 0.30158 120 44 48 
0.39787 0.20096 0.27297 97 52 62 
0.39089 0.17597 0.26799 97 52 62 
0.40347 0.17597 0.25033 97 52 62 
0.41045 0.20096 0.2553 97 52 62 
0.67628 0.13532 0.88025 44 77 106 
0.61781 0.1309 0.87762 44 77 106 
0.61781 0.1144 0.90541 44 77 106 
0.67628 0.11882 0.90803 44 77 106 
0.65258 0.10517 0.89045 44 77 106 
0.61593 0.1024 0.88881 44 77 106 
0.61593 0.10648 0.88194 44 77 106 
0.65258 0.10925 0.88359 44 77 106 
0.43166 0.20085 0.22001 97 52 62 
0.40158 0.093195 0.19859 97 52 62 
0.36806 0.093195 0.24564 97 52 62 
0.39815 0.20085 0.26707 97 52 62 
0.77535 0.66509 0.8917 44 77 106 
0.66404 0.65668 0.8867 44 77 106 
0.66404 0.60084 0.98076 44 77 106 
0.77535 0.60925 0.98575 44 77 106 
0.6834 0.51289 0.92579 44 77 106 
0.6605 0.51115 0.92476 44 77 106 
0.6605 0.51957 0.91059 44 77 106 
0.6834 0.5213 0.91162 44 77 106 
0.74393 0.55887 0.91431 44 77 106 
0.66779 0.55312 0.91089 44 77 106 
0.66779 0.53276 0.94518 44 77 106 
0.74393 0.53852 0.94859 44 77 106 
0.69204 0.15759 0.88566 44 77 106 
0.62935 0.15285 0.88284 44 77 106 
0.62935 0.1292 0.92268 44 77 106 
0.69204 0.13394 0.92549 44 77 106 
0.67346 0.17248 0.89216 44 77 106 
0.64127 0.17005 0.89072 44 77 106 
0.64127 0.14681 0.92986 44 77 106 
0.67346 0.14924 0.9313 44 77 106 
0.68645 0.49877 0.9139 44 77 106 
0.6639 0.49706 0.91289 44 77 106 
0.6639 0.50536 0.89891 44 77 106 
0.68645 0.50707 0.89992 44 77 106 
0.77291 0.46744 0.92714 44 77 106 
0.65941 0.45886 0.92205 44 77 106 
0.65941 0.47943 0.8874 44 77 106 
0.77291 0.48801 0.89249 44 77 106 
0.40694 0.1097 0.27188 44 77 106 
0.3993 0.10969 0.27187 44 77 106 
0.3993 0.12058 0.25354 44 77 106 
0.40694 0.12059 0.25355 44 77 106 
0.49688 0.047224 0.53833 57 57 57 
0.49161 0.049439 0.51345 57 57 57 
0.50147 0.072862 0.51345 57 57 57 
0.50673 0.070647 0.53833 57 57 57 
0.40952 0.15056 0.23455 102 56 43 
0.39892 0.15056 0.23454 102 56 43 
0.39892 0.17977 0.25189 102 56 43 
0.40952 0.17977 0.25189 102 56 43 
0.39706 0.20294 0.24323 45 94 124 
0.40288 0.18998 0.24752 45 94 124 
0.40863 0.18998 0.23972 45 94 124 
0.40281 0.20294 0.23543 45 94 124 
0.68175 0.47866 0.87471 44 77 106 
0.66857 0.47766 0.87411 44 77 106 
0.66857 0.4659 0.89393 44 77 106 
0.68175 0.4669 0.89452 44 77 106 
0.40042 0.15322 0.21909 60 97 52 
0.40045 0.11814 0.21909 60 97 52 
0.40042 0.11814 0.24396 60 97 52 
0.40039 0.15322 0.24396 60 97 52 
0.74684 0.60446 0.95197 44 77 106 
0.71348 0.60194 0.95047 44 77 106 
0.71348 0.61567 0.92734 44 77 106 
0.74684 0.61819 0.92884 44 77 106 
0.40132 0.13 0.23063 60 97 52 
0.40133 0.12004 0.23063 60 97 52 
0.40131 0.12004 0.25026 60 97 52 
0.4013 0.13 0.25026 60 97 52 
0.6902 0.20283 0.90955 44 77 106 
0.66585 0.20099 0.90846 44 77 106 
0.66585 0.21185 0.89017 44 77 106 
0.6902 0.21369 0.89126 44 77 106 
0.72108 0.50764 0.89723 44 77 106 
0.6959 0.50574 0.8961 44 77 106 
0.6959 0.48435 0.93214 44 77 106 
0.72108 0.48625 0.93327 44 77 106 
0.68995 0.20657 0.92257 44 77 106 
0.67952 0.20579 0.9221 44 77 106 
0.67952 0.21503 0.90653 44 77 106 
0.68995 0.21582 0.907 44 77 106 
0.40302 0.058332 0.25289 60 97 52 
0.40303 0.045286 0.25289 60 97 52 
0.40302 0.045286 0.26648 60 97 52 
0.40301 0.058332 0.26648 60 97 52 
0.75934 0.42494 0.88364 44 77 106 
0.68838 0.41958 0.88045 44 77 106 
0.68838 0.39472 0.92233 44 77 106 
0.75934 0.40008 0.92551 44 77 106 
0.74044 0.40791 0.94704 44 77 106 
0.69406 0.4044 0.94496 44 77 106 
0.69406 0.43695 0.89014 44 77 106 
0.74044 0.44046 0.89222 44 77 106 
0.71921 0.41681 0.93404 44 77 106 
0.70568 0.41579 0.93343 44 77 106 
0.70568 0.42579 0.91659 44 77 106 
0.71921 0.42681 0.9172 44 77 106 
0.78555 0.72229 0.92147 44 77 106 
0.72125 0.71743 0.91859 44 77 106 
0.72125 0.74414 0.87359 44 77 106 
0.78555 0.749 0.87648 44 77 106 
0.40433 0.058926 0.24671 60 97 52 
0.40434 0.052992 0.24671 60 97 52 
0.40433 0.052992 0.25254 60 97 52 
0.40433 0.058926 0.25254 60 97 52 
0.78383 0.6808 0.86641 44 77 106 
0.71975 0.67595 0.86354 44 77 106 
0.71975 0.6434 0.91837 44 77 106 
0.78383 0.64824 0.92124 44 77 106 
0.40406 0.059013 0.24442 78 51 85 
0.41169 0.065859 0.22904 78 51 85 
0.40517 0.073121 0.22904 78 51 85 
0.39755 0.066275 0.24442 78 51 85 
0.40588 0.075806 0.22078 44 77 106 
0.39986 0.0758 0.22078 44 77 106 
0.39986 0.064196 0.24032 44 77 106 
0.40588 0.064202 0.24032 44 77 106 
0.53832 0.063669 0.54212 51 82 85 
0.52089 0.06367 0.54212 51 82 85 
0.52089 0.05089 0.52903 51 82 85 
0.53832 0.050889 0.52903 51 82 85 
0.40163 0.15195 0.21989 51 82 85 
0.40206 0.15198 0.21036 51 82 85 
0.40274 0.14292 0.21036 51 82 85 
0.40231 0.14289 0.21989 51 82 85 
0.76631 0.75875 0.90604 44 77 106 
0.74917 0.75745 0.90527 44 77 106 
0.74917 0.7664 0.89021 44 77 106 
0.76631 0.76769 0.89098 44 77 106 
0.73062 0.35143 0.91279 44 77 106 
0.71352 0.35013 0.91203 44 77 106 
0.71352 0.35803 0.89872 44 77 106 
0.73062 0.35932 0.89949 44 77 106 
0.39791 0.32102 0.13197 83 85 51 
0.38642 0.32109 0.13164 83 85 51 
0.38642 0.33085 0.13375 83 85 51 
0.39791 0.33078 0.13408 83 85 51 
0.40753 0.13506 0.22096 102 56 43 
0.3993 0.1353 0.22053 102 56 43 
0.3993 0.1067 0.20456 102 56 43 
0.40753 0.10647 0.20498 102 56 43 
0.75347 0.62435 0.88789 44 77 106 
0.73249 0.62276 0.88695 44 77 106 
0.73249 0.63691 0.86312 44 77 106 
0.75347 0.63849 0.86406 44 77 106 
0.78963 0.57418 0.91165 44 77 106 
0.74853 0.57107 0.9098 44 77 106 
0.74853 0.54414 0.95516 44 77 106 
0.78963 0.54725 0.95701 44 77 106 
0.40199 0.23816 0.18509 102 55 43 
0.40376 0.23951 0.18079 102 55 43 
0.40732 0.23482 0.18079 102 55 43 
0.40554 0.23347 0.18509 102 55 43 
0.74309 0.40042 0.87751 44 77 106 
0.72582 0.39911 0.87673 44 77 106 
0.72582 0.38415 0.90194 44 77 106 
0.74309 0.38545 0.90272 44 77 106 
0.77802 0.52682 0.89501 44 77 106 
0.73997 0.52394 0.8933 44 77 106 
0.73997 0.50701 0.92182 44 77 106 
0.77802 0.50989 0.92353 44 77 106 
0.78307 0.57407 0.8938 44 77 106 
0.74288 0.57103 0.892 44 77 106 
0.74288 0.54069 0.94311 44 77 106 
0.78307 0.54372 0.94491 44 77 106 
0.40984 0.13367 0.22045 73 43 102 
0.4026 0.13435 0.21926 73 43 102 
0.4026 0.10874 0.20462 73 43 102 
0.40984 0.10806 0.20582 73 43 102 
0.4015 0.093549 0.19788 97 52 62 
0.39984 0.088753 0.19688 97 52 62 
0.39568 0.088753 0.2038 97 52 62 
0.39734 0.093549 0.2048 97 52 62 
0.40149 0.088507 0.19854 60 97 52 
0.4015 0.075693 0.19854 60 97 52 
0.40148 0.075693 0.21888 60 97 52 
0.40147 0.088507 0.21888 60 97 52 
0.74676 0.32663 0.87745 44 77 106 
0.7176 0.32443 0.87614 44 77 106 
0.7176 0.30468 0.9094 44 77 106 
0.74676 0.30688 0.91071 44 77 106 
0.38856 0.065081 0.17525 60 97 52 
0.38858 0.044806 0.17525 60 97 52 
0.38856 0.044806 0.19024 60 97 52 
0.38854 0.065081 0.19024 60 97 52 
0.74173 0.3026 0.87278 44 77 106 
0.71671 0.30071 0.87166 44 77 106 
0.71671 0.28635 0.89584 44 77 106 
0.74173 0.28825 0.89696 44 77 106 
0.75209 0.34961 0.88315 44 77 106 
0.72523 0.34758 0.88195 44 77 106 
0.72523 0.33005 0.91147 44 77 106 
0.75209 0.33208 0.91268 44 77 106 
0.39114 0.045418 0.18406 44 77 106 
0.38536 0.045412 0.18406 44 77 106 
0.38536 0.042051 0.18972 44 77 106 
0.39114 0.042057 0.18972 44 77 106 
0.38878 0.043554 0.18092 43 102 76 
0.38312 0.042549 0.17958 43 102 76 
0.38312 0.051608 0.1728 43 102 76 
0.38878 0.052614 0.17414 43 102 76 
0.73004 0.26461 0.87263 44 77 106 
0.71783 0.26369 0.87209 44 77 106 
0.71783 0.27107 0.85965 44 77 106 
0.73004 0.272 0.8602 44 77 106 
0.39145 0.34614 0.107 107 63 90 
0.38882 0.34861 0.1001 107 63 90 
0.38566 0.34525 0.1001 107 63 90 
0.3883 0.34278 0.107 107 63 90 
4 0 1 2 3
4 4 5 6 7
4 8 9 10 11
4 12 13 14 15
4 16 17 18 19
4 20 21 22 23
4 24 25 26 27
4 28 29 30 31
4 32 33 34 35
4 36 37 38 39
4 40 41 42 43
4 44 45 46 47
4 48 49 50 51
4 52 53 54 55
4 56 57 58 59
4 60 61 62 63
4 64 65 66 67
4 68 69 70 71
4 72 73 74 75
4 76 77 78 79
4 80 81 82 83
4 84 85 86 87
4 88 89 90 91
4 92 93 94 95
4 96 97 98 99
4 100 101 102 103
4 104 105 106 107
4 108 109 110 111
4 112 113 114 115
4 116 117 118 119
4 120 121 122 123
4 124 125 126 127
4 128 129 130 131
4 132 133 134 135
4 136 137 138 139
4 140 141 142 143
4 144 145 146 147
4 148 149 150 151
4 152 153 154 155
4 156 157 158 159
4 160 161 162 163
4 164 165 166 167
4 168 169 170 171
4 172 173 174 175
4 176 177 178 179
4 180 181 182 183
4 184 185 186 187
4 188 189 190 191
4 192 193 194 195
4 196 197 198 199
4 200 201 202 203
4 204 205 206 207
4 208 209 210 211
4 212 213 214 215
4 216 217 218 219
4 220 221 222 223
4 224 225 226 227
4 228 229 230 231
4 232 233 234 235
4 236 237 238 239
4 240 241 242 243
4 244 245 246 247
4 248 249 250 251
4 252 253 254 255
4 256 257 258 259
4 260 261 262 263
4 264 265 266 267
4 268 269 270 271
4 272 273 274 275
4 276 277 278 279
4 280 281 282 283
4 284 285 286 287
4 288 289 290 291
4 292 293 294 295
4 296 297 298 299
4 300 301 302 303
4 304 305 306 307
4 308 309 310 311
4 312 313 314 315
4 316 317 318 319
4 320 321 322 323
4 324 325 326 327
4 328 329 330 331
4 332 333 334 335
4 336 337 338 339
4 340 341 342 343
4 344 345 346 347
4 348 349 350 351
4 352 353 354 355
4 356 357 358 359
4 360 361 362 363
4 364 365 366 367
4 368 369 370 371
4 372 373 374 375
4 376 377 378 379
4 380 381 382 383
4 384 385 386 387
4 388 389 390 391
4 392 393 394 395
4 396 397 398 399
4 400 401 402 403
4 404 405 406 407
4 408 409 410 411
4 412 413 414 415
4 416 417 418 419
4 420 421 422 423
4 424 425 426 427
4 428 429 430 431
4 432 433 434 435
4 436 437 438 439
4 440 441 442 443
4 444 445 446 447
4 448 449 450 451
4 452 453 454 455
4 456 457 458 459
4 460 461 462 463
4 464 465 466 467
4 468 469 470 471
4 472 473 474 475
4 476 477 478 479
4 480 481 482 483
4 484 485 486 487
4 488 489 490 491
4 492 493 494 495
4 496 497 498 499
4 500 501 502 503
4 504 505 506 507
4 508 509 510 511
4 512 513 514 515
4 516 517 518 519
4 520 521 522 523
4 524 525 526 527
4 528 529 530 531
4 532 533 534 535
4 536 537 538 539
4 540 541 542 543
4 544 545 546 547
4 548 549 550 551
4 552 553 554 555
4 556 557 558 559
4 560 561 562 563
4 564 565 566 567
4 568 569 570 571
4 572 573 574 575
4 576 577 578 579
4 580 581 582 583
4 584 585 586 587
4 588 589 590 591
4 592 593 594 595
4 596 597 598 599
4 600 601 602 603
4 604 605 606 607
4 608 609 610 611
4 612 613 614 615
4 616 617 618 619
4 620 621 622 623
4 624 625 626 627
4 628 629 630 631
4 632 633 634 635
4 636 637 638 639
4 640 641 642 643
4 644 645 646 647
4 648 649 650 651
4 652 653 654 655
4 656 657 658 659
4 660 661 662 663
4 664 665 666 667
4 668 669 670 671
4 672 673 674 675
4 676 677 678 679
4 680 681 682 683
4 684 685 686 687
4 688 689 690 691
4 692 693 694 695
4 696 697 698 699
4 700 701 702 703
4 704 705 706 707
4 708 709 710 711
4 712 713 714 715
4 716 717 718 719
4 720 721 722 723
4 724 725 726 727
4 728 729 730 731
4 732 733 734 735
4 736 737 738 739
4 740 741 742 743
4 744 745 746 747
4 748 749 750 751
4 752 753 754 755
4 756 757 758 759
4 760 761 762 763
4 764 765 766 767
4 768 769 770 771
4 772 773 774 775
4 776 777 778 779
4 780 781 782 783
4 784 785 786 787
4 788 789 790 791
4 792 793 794 795
4 796 797 798 799
4 800 801 802 803
4 804 805 806 807
4 808 809 810 811
4 812 813 814 815
4 816 817 818 819
4 820 821 822 823
4 824 825 826 827
4 828 829 830 831
4 832 833 834 835
4 836 837 838 839
4 840 841 842 843
4 844 845 846 847
4 848 849 850 851
4 852 853 854 855
4 856 857 858 859
4 860 861 862 863
4 864 865 866 867
4 868 869 870 871
4 872 873 874 875
4 876 877 878 879
4 880 881 882 883
4 884 885 886 887
4 888 889 890 891
4 892 893 894 895
4 896 897 898 899
4 900 901 902 903
4 904 905 906 907
4 908 909 910 911
4 912 913 914 915
4 916 917 918 919
4 920 921 922 923
4 924 925 926 927
4 928 929 930 931
4 932 933 934 935
4 936 937 938 939
4 940 941 942 943
4 944 945 946 947
4 948 949 950 951
4 952 953 954 955
4 956 957 958 959
4 960 961 962 963
4 964 965 966 967
4 968 969 970 971
4 972 973 974 975
4 976 977 978 979
4 980 981 982 983
4 984 985 986 987
4 988 989 990 991
4 992 993 994 995
4 996 997 998 999
4 1000 1001 1002 1003
4 1004 1005 1006 1007
4 1008 1009 1010 1011
4 1012 1013 1014 1015
4 1016 1017 1018 1019
4 1020 1021 1022 1023
4 1024 1025 1026 1027
4 1028 1029 1030 1031
4 1032 1033 1034 1035
4 1036 1037 1038 1039
4 1040 1041 1042 1043
4 1044 1045 1046 1047
4 1048 1049 1050 1051
4 1052 1053 1054 1055
4 1056 1057 1058 1059
4 1060 1061 1062 1063
4 1064 1065 1066 1067
4 1068 1069 1070 1071
4 1072 1073 1074 1075
4 1076 1077 1078 1079
4 1080 1081 1082 1083
4 1084 1085 1086 1087
4 1088 1089 1090 1091
4 1092 1093 1094 1095
4 1096 1097 1098 1099
4 1100 1101 1102 1103
4 1104 1105 1106 1107
4 1108 1109 1110 1111
4 1112 1113 1114 1115
4 1116 1117 1118 1119
4 1120 1121 1122 1123
4 1124 1125 1126 1127
4 1128 1129 1130 1131
4 1132 1133 1134 1135
4 1136 1137 1138 1139
4 1140 1141 1142 1143
4 1144 1145 1146 1147
4 1148 1149 1150 1151
4 1152 1153 1154 1155
4 1156 1157 1158 1159
4 1160 1161 1162 1163
4 1164 1165 1166 1167
4 1168 1169 1170 1171
4 1172 1173 1174 1175
4 1176 1177 1178 1179
4 1180 1181 1182 1183
4 1184 1185 1186 1187
4 1188 1189 1190 1191
4 1192 1193 1194 1195
4 1196 1197 1198 1199
